<svg xmlns="http://www.w3.org/2000/svg" xmlns:xlink="http://www.w3.org/1999/xlink" width="400.807" height="485.517" viewBox="0 0 400.807 485.517"><defs><style>.a{fill:#b1afad;}.b{fill:#4b7848;}.c{fill:#d4c19c;}.d{fill:#b38e5d;}.e{fill-rule:evenodd;fill:url(#a);}.f{fill:#aa6a64;}.g{fill:gray;}.h{fill:#4d4d4d;}.i{fill:#abbcc4;}.j{fill:#ddd2c5;}.k{fill:#6d6d6d;}.l{fill:#4c4c4b;}.m{fill:#333;}.n{fill:#fff;font-size:25px;font-family:OpenSans-Bold, Open Sans;font-weight:700;letter-spacing:0.05em;}</style><linearGradient id="a" x1="1" y1="0.5" x2="0" y2="0.5" gradientUnits="objectBoundingBox"><stop offset="0" stop-color="#ccc"/><stop offset="1" stop-color="#ccc"/></linearGradient></defs><g transform="translate(66.738 -3.491)"><path class="a" d="M10955.842,4763.06c-39.942-1.434-81.347.717-121.435-.479-12.144-.478-24.433-.836-36.43.24-4.973.478-10.094,1.314-13.459,4.182-3.073,2.509-4.243,6.213-4.829,9.677-1.9,9.2-2.2,18.521-2.34,27.72-.439,12.785-.878,25.688-1.169,38.473-.734,20.79-1.318,41.818,2.487,62.489a8.525,8.525,0,0,0,1.755,4.3c2.048,2.271,6,2.628,9.509,2.748,59.254,2.509,123.919,4.063,183.173,2.509l41.258-1.075c7.462-.12,15.8-.6,21.069-5.018,4.242-3.584,5.413-8.842,6.143-13.74,6.146-37.637.88-78.738.88-116.733,0-17.683-17.7-15.652-32.627-14.577C10990.955,4765.21,10974.862,4763.776,10955.842,4763.06Z" transform="translate(-10842.38 -4758.627)"/><path class="b" d="M11033.171,4812.616c-36.431-1.434-74.178.6-110.607-.6-11.116-.239-22.235-.6-33.21.358-4.39.359-9.071,1.076-12.29,3.7-2.779,2.39-3.657,5.734-4.39,8.961-1.607,8.244-1.9,16.727-2.047,25.21-.441,11.59-.733,23.3-1.026,35.008-.585,19-1.169,38,2.2,56.873a7.611,7.611,0,0,0,1.61,3.823c1.9,2.151,5.413,2.51,8.632,2.629,53.987,2.15,112.8,3.584,166.933,2.27,12.437-.358,24.873-.6,37.455-.956,6.877-.119,14.485-.6,19.313-4.66,3.8-3.226,4.825-8,5.558-12.545,5.413-34.292.733-71.689.733-106.219,0-16.13-16.093-14.218-29.7-13.262C11065.065,4814.528,11050.434,4813.213,11033.171,4812.616Z" transform="translate(-10924.859 -4802.462)"/><g transform="translate(9 48)"><ellipse class="c" cx="63.889" cy="5.017" rx="63.889" ry="5.017" transform="translate(197.292 430.974)"/><path class="d" d="M2766.752,967.8s22.433,81.236,18.75,92.526S2766.752,967.8,2766.752,967.8Z" transform="translate(-2597.27 -916.285)"/><path class="e" d="M10717.5,8251.977h6.967l.482-.12h3.963l.48-.12h2.523l.48-.12h1.441l.48-.12h1.443l.48-.12h1.082l.48-.12h.959l.48-.12h.961l.48-.12h.48l.482-.12h.6l.48-.12h.48l.48-.121h.482l.48-.12h.48l.48-.12h.48l.48-.12h.48l.48-.12.48-.12h.48l.6-.12-.6.12h-.48l-.48.12-.48.12h-.48l-.48.12h-.48l-.48.12h-.48l-.48.12h-.482l-.48.121h-.48l-.48.12h-.6l-.482.12h-.48l-.48.12h-.961l-.48.12h-.959l-.48.12h-1.082l-.48.12h-1.443l-.48.12h-1.441l-.48.12h-2.523l-.48.12h-3.963l-.482.12h-6.967Zm31.6-2.043c1.682-.24,3.723-1.2,4.084-2.644C10752.816,8248.732,10750.775,8249.693,10749.094,8249.934Zm-137.926.36h-.961v-.12h-.842v-.12h-.48l-.119-.12h-.24l-.121-.12h-.24l-.119-.12h-.242c-.119-.12-.24-.24-.359-.24h0v-.12h-.24v-.12h-.121l-.119-.12h0v-.12h-.121v-.12h-.119v-.12h-.121v-.12h-.119v-.12h-.121v-.24h-.119v0h.119v.24h.121v.12h.119v.12h.121v.12h.119v.12h.121v.12h0l.119.12h.121v.12h.24v.12h0c.119,0,.24.12.359.24h.242l.119.12h.24l.121.12h.24l.119.12h.48v.12h.842v.12h.961Zm-4.926-2.283h-.121v-.12h0v-.12h0v-.12H10606v-.12h0v-.12h0v-.12h0v-.12h0v-.12h0v-.12h0v.12h0v.12h0v.12h0v.12h0v.12h0v.12h.119v.12h0v.12h0v.12h.121Zm147.057-1.2Zm0,0h0v-.12h0v-.12h0v-.12h-.121v-.12h0v.12h.121v.12h0v.12h0v.12Zm-.121-.48Zm-3-2.283Zm0,0a120.987,120.987,0,0,0-17.42-3.483A120.987,120.987,0,0,1,10750.174,8244.046Zm-45.053-5.045Zm0,0h0Z" transform="translate(-10444.822 -7811.43)"/><path class="f" d="M11264.361,5380l-.361.6Z" transform="translate(-11034.938 -5295.921)"/><path class="f" d="M11259,5408.6l.361-.6Z" transform="translate(-11029.339 -5320.557)"/><path class="f" d="M11240.41,5427.646c.359.24,0,.961-.48.721C11239.568,5428.127,11239.93,5427.406,11240.41,5427.646Z" transform="translate(-11008.224 -5337.801)"/><path class="f" d="M11244,5408.48l.24-.48Z" transform="translate(-11012.417 -5320.557)"/><path class="f" d="M11246.565,5359.489a.484.484,0,0,1,.48-.84A.484.484,0,0,1,11246.565,5359.489Z" transform="translate(-11015.701 -5277.093)"/><path class="g" d="M10719.834,8207.787a60.031,60.031,0,0,1,13.938.6,54.61,54.61,0,0,0,11.535,6.488,9.343,9.343,0,0,1,3.361,1.922,2.725,2.725,0,0,1,.361,3.484,3.937,3.937,0,0,1-3.123.961,152.293,152.293,0,0,1-25.592-2.162,2.661,2.661,0,0,1-1.32-.6,2.461,2.461,0,0,1-.6-1.082A12.748,12.748,0,0,1,10719.834,8207.787Z" transform="translate(-10454.49 -7783.821)"/><path class="g" d="M11107.326,8226.787a59.929,59.929,0,0,0-13.937.6,54.626,54.626,0,0,1-11.533,6.486,8.055,8.055,0,0,0-3.244,1.922,2.642,2.642,0,0,0-.48,3.484,4.086,4.086,0,0,0,3.123.961,130.738,130.738,0,0,0,25.592-2.164,3.668,3.668,0,0,0,1.441-.6,2.959,2.959,0,0,0,.482-1.08A12.312,12.312,0,0,0,11107.326,8226.787Z" transform="translate(-10857.362 -7800.538)"/><path class="h" d="M10745.885,6731.129c-1.2-25.47-1.922-51.061-1.682-76.531a60.626,60.626,0,0,1,3.6-26.191,4.092,4.092,0,0,1,.721-1.441c1.2-1.2,3.244-.481,4.807.12a51.375,51.375,0,0,0,46.855-4.085c2.764,4.205,3.484,9.251,4.205,14.177,1.082,8.05,2.283,15.979,2.523,23.908v.12c.121,1.683.121,3.364.121,5.166-.24,9.973-2.162,19.7-3.605,29.556a148.424,148.424,0,0,0-1.922,19.344c-.121,5.286.721,10.212-.48,15.378-3,12.855-3,26.792-4.205,39.889-1.32,13.937-2.643,27.993-3.725,42.05,0,.6-.119,1.082-.119,1.682-.723.12-11.535,2.644-11.535-.12q-1.263-40.909-2.523-81.7c-.48-11.534-.842-23.188-3.723-34.121-9.611.961-8.049,32.679-8.41,40.729-1.2,25.591-2.283,51.3-3.484,76.893-3.605,0-7.328.12-10.934.12-2.043-6.008-2.523-12.375-2.885-18.623C10748.168,6775.343,10746.846,6753.236,10745.885,6731.129Z" transform="translate(-10515.142 -6389.583)"/><path class="i" d="M10745.654,5651.244c-12.975,1.082-25.35,3.485-36.883-3.243-26.553,30.4-13.457,28.234-16.34,58.029-.6,6.128,7.811,20.545,7.328,26.792-2.281,30.4-12.975,67.161-11.895,97.557.361,8.531.842,17.181,3.006,25.23.6,2.283,1.439,4.687,2.881,6.007,1.684,1.683,3.967,1.683,6.008,1.442,20.426-1.2,36.4-9.852,58.871-1.081a7.717,7.717,0,0,0,10.453-6.608c3.123-50.58-9.131-87.825-11.775-122.547-1.922-25.71,8.051-34.962,2.885-61.634-1.2-6.247-2.645-12.615-5.527-17.421-.84-1.441-4.445-3-3.123-3.243A39.934,39.934,0,0,1,10745.654,5651.244Z" transform="translate(-10470.939 -5531.723)"/><path class="j" d="M10917.416,5110.016a36.78,36.78,0,0,1,3.244-6.969c4.566-7.569,17.061-16.819,25.951-10.093a20.749,20.749,0,0,1,4.807,5.888,42.654,42.654,0,0,1,3.6,6.969,25.655,25.655,0,0,1,1.2,15.018c-1.08,4.445-3.844,8.771-6.488,12.615-3.363,5.046-7.687,10.093-13.574,11.533-7.932,1.923-16.221-3.724-19.463-11.173C10913.572,5126.234,10914.654,5117.585,10917.416,5110.016Z" transform="translate(-10685.473 -5041.315)"/><path class="k" d="M10840.082,6272c-11.293,2.763-23.066,2.162-34.721,3.123-8.291.6-16.459,2.043-24.75,2.283l-.48.12-.119.36c-.121,2.643.721,2.282,3,2.162,2.281-.24,4.443-.36,6.727-.6,4.445-.24,8.891-.6,13.338-.961,3.482-.24,6.967-.6,10.332-.721,7.93-.24,15.738.24,23.666-.12a3.4,3.4,0,0,0,2.164-.48,3.469,3.469,0,0,0,.84-2.4A10.635,10.635,0,0,1,10840.082,6272Z" transform="translate(-10552.512 -6080.754)"/><path class="l" d="M10910.293,6265a38.774,38.774,0,0,1,.842,8.289c-.961.36-1.924.6-2.764.842h-.361l-.359-.6c-.121-2.162-.842-4.686-.6-6.728.121-1.2-.361-1.2.48-1.8Z" transform="translate(-10638.821 -6074.594)"/><path class="l" d="M11092.686,6281.827c-.48-1.8-.24-3.845-.84-5.646-.482-1.8-2.043-1.081-3.486-.961l-.24.12-.119.24a28.169,28.169,0,0,0,.48,3.364,17.491,17.491,0,0,1,.24,4.324c1.2.481,2.523-.12,3.605-.721l.359-.24Z" transform="translate(-10842.119 -6083.371)"/><path class="j" d="M12.371,9.15a13.706,13.706,0,0,1,3.554,4.323A13.521,13.521,0,0,1,17,18.417a8.857,8.857,0,0,1-.154,2.009l-1.081,1.081c-1.391,1.081-3.4,1.854-5.1,1.081-1.854-.927-2.624-3.4-4.637-4.017-1.389-.308-3.243.309-4.169-.927A2.767,2.767,0,0,1,1.556,16.1C1.71,11.929,2.639,7.45.63,3.9.321,3.124-.3,2.2.167,1.425L1.249.806c3.244-1.39,4.017-1.081,5.87,1.7A36.867,36.867,0,0,0,12.371,9.15Z" transform="translate(197.206 156.284) rotate(171)"/><path class="i" d="M59.406,17.48c-2.008-3.089-3.861-6.025-5.87-8.96-2.315-3.553-5.1-7.413-9.269-8.341C39.169-.9,34.382,3.113,30.673,7.13c-4.79,5.1-9.422,10.815-11.585,17.456-.772,2.781-1.237,5.563-1.854,8.189C14.144,48.068,10.112,43.387,3,57.136.842,61.307-1.318,66.252,1,70.112c2.163,3.4,6.953,4.173,10.662,2.781C15.208,71.348,17.989,68.1,20,64.86c10.35-16.375,6.97-18.955,17.939-34.712,1.7-2.472,2.932-8.652,5.56-9.887,2.781-1.236,6.955,7.724,8.653,10.195.771.773,1.08,1.854,1.851,2.781.774.773,4.944-2.626,5.872-3.089C65.28,27.367,61.571,20.725,59.406,17.48Z" transform="translate(244.638 187.093) rotate(-172)"/><path class="m" d="M10681.016,5082.161a5.172,5.172,0,0,1,3.727,5.888c-.242,8.29-6.127,15.378-8.65,23.308-1.684,5.286-1.924,10.934-3.125,16.46-1.082,4.325-2.764,8.41-3.844,12.614a103.666,103.666,0,0,0-2.043,16.1c-.84,11.294-1.682,22.708-2.523,34-.24,1.682-.24,3.725,1.2,4.806a4.548,4.548,0,0,0,2.883.842,517.867,517.867,0,0,0,52.863,3c2.762,0,6.127-.24,7.809-2.523,1.2-1.682,1.082-4.085.842-6.247-2.885-26.432-12.256-51.662-16.221-77.973-2.041-13.7-2.762-28.114-9.25-40.489a20.26,20.26,0,0,0-3.965-5.527,20.5,20.5,0,0,0-6.85-3.964,39.118,39.118,0,0,0-22.586-1.082c-3.123.722-13.455,5.167-11.295,9.973.963,1.922,8.051,4.2,10.094,5.166C10673.688,5078.437,10677.412,5080.239,10681.016,5082.161Z" transform="translate(-10428.289 -5014.542)"/></g><text class="n" transform="translate(-33.709 89.287)"><tspan x="0" y="0">CAPACITACIÓN</tspan></text></g></svg>