<svg xmlns="http://www.w3.org/2000/svg" width="133.6" height="457.982" viewBox="0 0 133.6 457.982"><defs><style>.a{fill:#d4c19c;}.b{fill:#eaddd0;}.c{fill:#333;}.d{fill:#4a4e31;}.e{fill:#b4c7ba;}.f{fill:#e6e6e6;}.g{fill:#c69c6d;}.h{fill:#c7b299;}.i{fill:#fbb03b;}.j{fill:#8cc67c;}.k{fill:#4c7940;}</style></defs><g transform="translate(0)"><ellipse class="a" cx="65.889" cy="9.517" rx="65.889" ry="9.517" transform="translate(1.823 438.948)"/><path class="b" d="M15329.413,5373.842a4.04,4.04,0,0,1,.95-2.03,2.377,2.377,0,0,1,1.757-.812c1.9,1.217,2.979,3.789,2.707,6.767.681-.947,1.763-1.895,2.3-1.488.405.405.271,1.083.132,1.759a20.18,20.18,0,0,0,.139,7.58l.135.678c4.058,13.535,5.144,24.906,11.368,36.547,3.654-3.52,6.5-8.528,9.07-13.266,4.2-7.985,9.745-19.9,18.139-20.3,2.3-.137,3.384,2.706,2.977,5.684-.54,2.844-2.164,5.686-3.789,8.394-6.634,11.775-15.566,22.6-23.959,33.163-1.895,2.3-5.821,8.8-8.393,8.663-2.842-.136-3.385-6.092-4.332-8.257a7.975,7.975,0,0,1-.542-1.9c-2.707-14.349-5.275-28.7-7.985-43.045h.135C15327.657,5387.242,15327.385,5380.475,15329.413,5373.842Z" transform="translate(-15324.813 -5286.08)"/><path class="b" d="M15526.767,6066.956a45.067,45.067,0,0,1,.407,27.072,6.027,6.027,0,0,0-.407,2.571c.138,1.76,1.624,2.842,3.114,3.654,7.311,3.925,15.7,4.331,23.824,4.331a315.833,315.833,0,0,0,39.117-2.3c1.489-1.759.542-4.6-.271-6.9-2.029-6.9-.405-14.349.271-21.658a3.806,3.806,0,0,0-.271-2.437,3.927,3.927,0,0,0-1.489-1.488,58.57,58.57,0,0,0-30.59-8.8,84.048,84.048,0,0,0-12.994,1.083A158.426,158.426,0,0,0,15526.767,6066.956Z" transform="translate(-15496.582 -5882.681)"/><path class="c" d="M15515.111,7985.583a57.5,57.5,0,0,0-14.484.541,50.682,50.682,0,0,1-11.773,6.634,9.958,9.958,0,0,0-3.52,2.028,2.719,2.719,0,0,0-.408,3.521c.678.947,2.029,1.082,3.25,1.082a132.888,132.888,0,0,0,26.4-2.3,2.029,2.029,0,0,0,1.486-.541l.541-1.084A13.173,13.173,0,0,0,15515.111,7985.583Z" transform="translate(-15460.02 -7546.561)"/><path class="c" d="M15908.748,7975a57.65,57.65,0,0,0-13.676,3.249,47.754,47.754,0,0,1-10.148,8.663,11.083,11.083,0,0,0-2.979,2.571,2.836,2.836,0,0,0,.271,3.521,4.759,4.759,0,0,0,3.381.4,148.747,148.747,0,0,0,24.906-7.173c.408-.271.951-.406,1.221-.949l.4-1.082A12.75,12.75,0,0,0,15908.748,7975Z" transform="translate(-15803.302 -7537.601)"/><path class="d" d="M15551.829,6343.307c-1.489-31.81,1.625-64.431,1.354-96.511a77.665,77.665,0,0,0-4.469-32.892,5.282,5.282,0,0,0-1.082-1.9c-1.487-1.489-4.062-.676-5.956.136a65.353,65.353,0,0,1-59.152-5.144c-3.384,5.279-4.331,11.775-5.144,17.868-1.487,10.016-2.98,20.032-3.249,30.184h0c-.133,2.167-.133,4.332-.133,6.5.271,12.589,2.707,24.906,4.6,37.358a186.179,186.179,0,0,1,2.437,24.366c0,6.768-.949,12.859.54,19.357,3.792,16.107,3.792,33.7,5.279,50.218,1.759,17.732,3.384,35.329,4.738,53.061,0,.677.135,1.353.135,2.03.947.271,14.484,3.384,14.484-.135q1.622-51.37,3.249-103.009c.539-14.349.947-29.1,4.6-42.774,1.489.136,3.115.271,4.6.406,8.258,45.481,16.514,90.828,24.906,136.308.677,3.926-1.082,8.8,1.489,11.371,2.71,2.572,10.288,1.353,11.1-2.572C15553.727,6412.746,15553.454,6378.095,15551.829,6343.307Z" transform="translate(-15450.987 -6008.919)"/><path class="e" d="M15550.768,5360.364c-2.3-14.348-4.467-28.29-4.2-42.909-1.625-3.249-3.654-6.362-4.6-9.881a30.572,30.572,0,0,1-.543-11.1c.27-2.031.543-3.925.947-5.956.27-1.082.947-2.437.543-3.519a45.787,45.787,0,0,1-32.082,5.415,13.67,13.67,0,0,1-4.467-1.625c-.947-.542-1.76-2.166-2.707-2.572-2.571-.812-4.466,3.52-5.009,5.144-10.965,31.539-21.926,63.89-19.627,97.053.543,7.173,2.167,15.159,8.259,19.627.269-3.655,4.735-5.415,8.526-6.227a134.152,134.152,0,0,1,48.188-1.488,20.124,20.124,0,0,1,8.932,3.113A218.805,218.805,0,0,0,15550.768,5360.364Z" transform="translate(-15455.067 -5213.449)"/><path class="f" d="M15431,5459.981a182.352,182.352,0,0,0-6.5-36.141c-2.842-10.423-3.113-19.086-5.277-29.645-1.625-8.8-5.822-19.492-6.365-28.426-1.623-25.447-3.652-51.166-5.143-76.613-10.559-.948-10.287,0-10.018,9.611.271,7.851.543,15.566.68,23.417a178.412,178.412,0,0,1-36.008,3.519c-1.217,0-2.164-30.861-3.25-33.569-1.217-3.383-2.3-2.708-6.359-2.436-4.6.406-5.145,6.5-5.145,11.776-.27,23.146-10.557,43.315-11.639,66.326a314.907,314.907,0,0,1-4.062,37.495c-2.572,16.785-2.3,40.879-6.633,57.393-.406,1.625-.674,3.384-1.217,5.009a121.47,121.47,0,0,1-4.469,15.16c-.406,1.219-.676,2.437-1.084,3.655a6.271,6.271,0,0,1-1.76,2.708,35.725,35.725,0,0,1-1.758,3.113c19.492-.948,38.85-1.9,58.34-2.707,9.475-.542,18.949-.948,28.424-1.354,7.176-.406,15.57-.541,22.742-1.624,7.717-1.354,7.039-5.415,7.039-12.184C15431.543,5469.591,15431.408,5464.719,15431,5459.981Z" transform="translate(-15313.51 -5215.065)"/><path class="c" d="M15771.722,5627.336c.947-18.95,1.217-37.9.674-56.851-.4-10.287.273-21.522-.135-32.486-1.486.271-2.977.542-4.466.677-.679,11.641,0,23.688-.543,35.058-.675,15.7-1.082,31.539-2.029,47.376-1.76,27.342-4.466,54.82-2.977,82.163,1.76,0,3.52-.135,5.278-.271C15766.577,5677.826,15770.366,5652.377,15771.722,5627.336Z" transform="translate(-15699.845 -5430.474)"/><path class="c" d="M15889.128,5431.2a429.577,429.577,0,0,0,3.52-55.9c.135-21.251,2.437-41.826,5.683-62.265-.812-11.912-1.625-23.959-2.3-35.87-10.018-.949-9.745,0-9.476,9.61.271,7.851.543,15.7.678,23.417l-1.625.406c.405,10.016-.135,20.439.136,30.321.677,18.814.812,37.629-.271,56.58-1.489,25.989-5.686,52.926-4.6,79.186,2.572-.136,5.144-.271,7.716-.271C15886.148,5461.381,15887.233,5446.22,15889.128,5431.2Z" transform="translate(-15802.634 -5204.689)"/><path class="c" d="M16019.953,5986.922c-1.22-6.9-1.763-13.4-3.114-20.981-.812-4.332-2.167-9.2-3.52-13.942v7.039a429.073,429.073,0,0,1-3.521,55.9c-1.895,14.89-3.247,29.914-.54,44.668,1.625-.136,3.114-.27,4.6-.27C16014.267,6034.975,16016.839,6010.881,16019.953,5986.922Z" transform="translate(-15912.476 -5788.435)"/><path class="c" d="M16136.113,6476.152c-.135-3.385-.543-6.769-.947-10.152-1.084,11.912-1.9,23.958-2.166,35.87,4.2-1.76,3.791-5.55,3.791-11.234C16136.791,6485.9,16136.518,6481.024,16136.113,6476.152Z" transform="translate(-16020.787 -6232.86)"/><path class="c" d="M15526.126,5281.454c-2.706.271-3.923,2.707-4.465,5.685.135,2.708.4,5.55.542,8.258,1.76,22.875,1.353,45.886,0,68.762-1.354,24.365-2.845,48.594-5.687,72.824-1.352,10.963-2.3,21.658-2.571,32.621a86.776,86.776,0,0,1-.947,13.4l5.686-.271c.675-37.495,4.872-74.719,6.5-112.213,1.354-28.967,4.2-57.8,7.038-86.63C15531,5280.506,15529.919,5281.182,15526.126,5281.454Z" transform="translate(-15484.708 -5208.445)"/><path class="c" d="M15359,5863.92c.54-10.153,2.164-20.3,3.246-30.457,2.571-22.875,3.926-45.886,5.009-68.9.271-5.279.408-10.423.408-15.566a91.184,91.184,0,0,0-1.761,15.16c-.812,14.89-1.762,22.606-3.791,37.359-2.437,16.785-2.3,40.879-6.36,57.393-.408,1.759-.678,3.384-1.085,5.144a118.1,118.1,0,0,1-4.332,15.024c-.271,1.219-.675,2.437-.947,3.655a5.559,5.559,0,0,1-1.759,2.708,13.613,13.613,0,0,1-1.625,3.113l11.507-.542C15359,5880.163,15358.452,5872.176,15359,5863.92Z" transform="translate(-15340.313 -5612.912)"/><path class="c" d="M15641.493,5601.2c-1.894,37.358-5.817,74.313-6.5,111.671q3.453-.2,6.906-.406c-1.624-28.831,1.625-57.663,3.111-86.63.947-17.19,1.489-34.382,2.168-51.572.4-8.662.134-17.461.4-26.26-1.083,0-2.164.136-3.111.136C15642.714,5565.731,15642.44,5583.464,15641.493,5601.2Z" transform="translate(-15590.192 -5439.119)"/><path class="b" d="M15631.95,4855.933a11.978,11.978,0,0,0-5.144,4.2,46.979,46.979,0,0,0-11.1,27.884,18.348,18.348,0,0,0,.813,7.174,20.369,20.369,0,0,0,4.2,6.632,62.069,62.069,0,0,0,14.076,11.777,5.23,5.23,0,0,0,2.842,1.082,7.5,7.5,0,0,0,3.791-.947,90.01,90.01,0,0,0,9.34-5.144,20.422,20.422,0,0,0,7.309-6.226c2.032-3.249,2.437-7.311,2.572-11.236.137-2.843.272-5.685.272-8.527a31.274,31.274,0,0,0-.408-6.228,21.16,21.16,0,0,0-6.5-11.1,51.854,51.854,0,0,0-10.83-7.173C15639.665,4856.339,15635.6,4854.579,15631.95,4855.933Z" transform="translate(-15573.476 -4840.316)"/><path class="g" d="M15304,5301.4c0,4.061.4,8.527,3.249,11.369,2.707,2.844,7.038,3.384,10.962,3.655,3.522.406,7.445.676,10.422-1.489,3.657-2.707,4.062-7.851,4.2-12.318.133-2.842.133-5.55.271-8.392,0-1.76-.138-3.925-1.625-4.873a10.857,10.857,0,0,0-2.032-.406c-5.684-.406-11.369-.812-17.187-.947-2.575,0-5.686.405-6.906,2.707a7.021,7.021,0,0,0-.812,2.978C15304.268,5296.258,15304.133,5298.829,15304,5301.4Z" transform="translate(-15303.998 -5214.314)"/><path class="h" d="M15339.462,5286.075l-.27-.135c-7.716-.947-15.432-1.489-23.147-.136a3.45,3.45,0,0,0-1.76.677,1.284,1.284,0,0,0-.135,1.759c3.385.271,6.635.406,10.016.678,5.012.271,10.287.541,14.756-1.759C15339.462,5287.022,15340,5286.346,15339.462,5286.075Z" transform="translate(-15312.527 -5211.713)"/><path class="i" d="M15343.73,5381.983c-1.219-1.76-2.3-3.521-3.518-5.279a.886.886,0,0,0-1.49,0,34.656,34.656,0,0,1-3.521,4.061,43.863,43.863,0,0,1-2.57-4.2c-.271-.406-.949-.541-1.219-.135-.947,1.082-2.842,4.737-4.467,2.571a3.678,3.678,0,0,0-1.355-1.489h-.812a27.409,27.409,0,0,0-2.572,2.979c-.4.677.273,1.354.813.812,2.168-2.03,2.438-2.165,4.2.406l1.221.136a28.1,28.1,0,0,0,3.383-3.52,43.863,43.863,0,0,0,2.57,4.2l1.354.136q1.831-2.032,3.658-4.061c.813,1.488,1.756,2.842,2.568,4.331C15342.646,5384.149,15344.27,5383.066,15343.73,5381.983Z" transform="translate(-15319.635 -5290.565)"/><path class="i" d="M15352.756,5451c-.677,0-.677,1.219,0,1.219S15353.43,5451,15352.756,5451Z" transform="translate(-15345.717 -5355.25)"/><path class="i" d="M15402.11,5457a.609.609,0,1,0,0,1.218C15402.788,5458.217,15402.788,5457,15402.11,5457Z" transform="translate(-15388.302 -5360.438)"/><path class="i" d="M15466.943,5449.461v.27a.678.678,0,1,0,1.354,0v-.27C15468.3,5448.512,15466.8,5448.512,15466.943,5449.461Z" transform="translate(-15444.879 -5353.305)"/><path class="j" d="M15332.4,5179.772a5.849,5.849,0,0,1-1.492-3.519,11.288,11.288,0,0,1,2.166-7.174,6.061,6.061,0,0,1,2.707-2.166,3.108,3.108,0,0,1,3.25.406,5.407,5.407,0,0,1,5.551-4.468,5.311,5.311,0,0,1,4.875,5.28,3.728,3.728,0,0,1,4.463.676,3.854,3.854,0,0,1,.541,4.467,2.467,2.467,0,0,1,1.352,2.3,4.63,4.63,0,0,1-.943,2.572c-2.3,3.113-6.768,3.79-10.7,3.79a45.513,45.513,0,0,1-8.527-.812A6.4,6.4,0,0,1,15332.4,5179.772Z" transform="translate(-15327.25 -5106.086)"/><path class="k" d="M15362.217,5260.109c.135-.812-1.082-.812-1.217,0a10.3,10.3,0,0,0,.135,2.031.621.621,0,0,0,1.217-.136A8.968,8.968,0,0,1,15362.217,5260.109Z" transform="translate(-15353.285 -5189.672)"/><path class="k" d="M15366.079,5223.743a1.87,1.87,0,0,0-.407,1.624.543.543,0,1,0,1.085,0l.135-.812C15367.435,5223.878,15366.484,5223.2,15366.079,5223.743Z" transform="translate(-15357.279 -5158.584)"/><path class="k" d="M15421.184,5264.756a4.894,4.894,0,0,1-.27,1.49.558.558,0,0,0,1.082.27,6.747,6.747,0,0,0,.27-1.759C15422.4,5264.081,15421.184,5264.081,15421.184,5264.756Z" transform="translate(-15405.076 -5193.779)"/><path class="k" d="M15419.807,5224.4c-.27-.541-1.354-.135-1.082.542a6.767,6.767,0,0,1,.27,1.624c-.134.678.947.813,1.082.136A4.491,4.491,0,0,0,15419.807,5224.4Z" transform="translate(-15403.157 -5159.104)"/><path class="k" d="M15418.756,5196c-.677,0-.677,1.217,0,1.217A.608.608,0,1,0,15418.756,5196Z" transform="translate(-15402.784 -5134.768)"/><path class="k" d="M15462.184,5265.157a9.182,9.182,0,0,0-.27,1.9.558.558,0,0,0,1.082.271q.2-1.015.407-2.031C15463.4,5264.616,15462.184,5264.481,15462.184,5265.157Z" transform="translate(-15440.527 -5194.179)"/><path class="k" d="M15458.775,5234.186c-.406-.676-1.35,0-1.082.541a2.178,2.178,0,0,1,.406,1.218c0,.677,1.221.677,1.082,0A3.713,3.713,0,0,0,15458.775,5234.186Z" transform="translate(-15436.849 -5167.539)"/><path class="k" d="M15448.756,5200c-.677,0-.677,1.218,0,1.218A.609.609,0,1,0,15448.756,5200Z" transform="translate(-15428.723 -5138.226)"/><path class="k" d="M15376.756,5201c-.678,0-.678,1.218,0,1.218A.609.609,0,0,0,15376.756,5201Z" transform="translate(-15366.468 -5139.09)"/><path class="j" d="M15330.734,5210.211c-.542-.406-.949-.947-1.489-1.354-.542-.541-1.354.271-.947.813a15.842,15.842,0,0,0,1.487,1.489C15330.327,5211.836,15331.409,5210.889,15330.734,5210.211Z" transform="translate(-15324.914 -5145.731)"/><path class="j" d="M15368.083,5175.158a.548.548,0,0,0-1.086.135c.139.677.139,1.49.273,2.166.135.812,1.352.406,1.217-.406C15368.353,5176.376,15368.218,5175.834,15368.083,5175.158Z" transform="translate(-15358.47 -5116.362)"/><path class="j" d="M15427.217,5149.108a.545.545,0,1,0-1.082,0,8.986,8.986,0,0,0-.135,1.9.68.68,0,0,0,1.352,0C15427.352,5150.327,15427.217,5149.785,15427.217,5149.108Z" transform="translate(-15409.485 -5093.696)"/><path class="j" d="M15483.066,5185.108c0,.542-.135,1.218-.135,1.759-.135.813,1.082,1.084,1.217.271a10,10,0,0,0,.139-2.03C15484.148,5184.3,15483.066,5184.3,15483.066,5185.108Z" transform="translate(-15458.702 -5124.823)"/><path class="j" d="M15496.854,5225.724a11.65,11.65,0,0,0-2.842.947c-.677.271-.138,1.49.54,1.219a22.317,22.317,0,0,1,2.709-1.083A.579.579,0,1,0,15496.854,5225.724Z" transform="translate(-15468.021 -5160.432)"/><path class="j" d="M15499.878,5252.6a11.744,11.744,0,0,0-3.111-.812c-.812-.27-1.22,1.218-.27,1.354s2.029.406,3.111.542C15500.286,5253.819,15500.69,5252.736,15499.878,5252.6Z" transform="translate(-15469.965 -5182.976)"/><path class="b" d="M15504.553,5340.856a3.064,3.064,0,0,1-.271-2.167,2.927,2.927,0,0,1,1.49-1.623,11.053,11.053,0,0,1,8.393,4.6c.135-1.082.675-2.435,1.756-2.3.681.135,1.086.813,1.493,1.489a21.17,21.17,0,0,0,5.549,6.5l.678.542c14.889,9.881,24.633,19.221,40.741,26.53,1.9-4.873,2.029-10.557,1.625-15.836-.539-8.8-2.3-21.793,7.854-25.99,2.839-1.219,6.225.678,7.712,3.519,1.49,2.708,1.625,5.956,1.625,9.07.138,13.265-3.112,26.8-5.818,39.931-.543,2.978-.812,10.288-4.062,11.506-3.657,1.218-8.663-3.79-11.369-5.144a12.311,12.311,0,0,1-2.168-1.489c-13.671-11.235-27.478-22.47-41.148-33.7h0A26.781,26.781,0,0,1,15504.553,5340.856Z" transform="translate(-15477.076 -5252.552)"/><path class="c" d="M15592.111,4765.339c-3.249-7.174-9.61-12.86-16.785-16.245s-15.024-4.872-23.013-5.413c-9.337-.543-18.812,3.384-25.988,9.476-7.577,6.5-10.422,14.348-10.557,24.364-.27,9.069.947,18.274,5.414,26.125,4.6,7.716,16.785,13.4,25.718,12.86-2.707-3.926-7.442-7.446-9.88-11.641a42.1,42.1,0,0,0-1.895-4.2c-2.032-5.144-2.706-10.694-3.113-16.244a18.508,18.508,0,0,1,.269-6.091,5.716,5.716,0,0,1,2.168-3.384c1.352-1.082,3.114-1.625,4.738-2.707a47.548,47.548,0,0,0,8.934-7.445c1.081,3.249,3.791,5.82,6.768,7.715,2.977,1.761,6.226,2.978,9.337,4.739a7.418,7.418,0,0,1,2.574,2.029,10.6,10.6,0,0,1,1.083,3.113,63.094,63.094,0,0,1,1.217,16.785c-.947,6.768-2.977,15.972-6.36,17.733,9.475-5.145,20.574-11.371,26.261-20.576C15594.549,4787.132,15596.443,4775.22,15592.111,4765.339Z" transform="translate(-15487.072 -4743.632)"/></g></svg>