<svg xmlns="http://www.w3.org/2000/svg" xmlns:xlink="http://www.w3.org/1999/xlink" width="246.361" height="438.721" viewBox="0 0 246.361 438.721"><defs><style>.a{fill:#d4c19c;}.b{fill-rule:evenodd;fill:url(#a);}.c{fill:#ffc3b1;}.d{fill:#97a8b2;}.e{fill:#736357;}.f{fill:#494949;}.g{fill:#ebefeb;}.h{fill:#996b5d;}.i{fill:#404040;}.j{fill:#e2e2e2;}.k{fill:#f2f2f2;}.l{fill:#875f52;}.m{fill:#7a5f44;}.n{fill:#b4c7ba;}.o{fill:#615349;}.p{fill:#c7b299;}</style><linearGradient id="a" y1="0.496" x2="1" y2="0.496" gradientUnits="objectBoundingBox"><stop offset="0" stop-color="#ccc"/><stop offset="1" stop-color="#ccc"/></linearGradient></defs><g transform="translate(17.999)"><ellipse class="a" cx="79.889" cy="9.517" rx="79.889" ry="9.517" transform="translate(-17.999 419.687)"/><path class="b" d="M13420.179,3801.729h.258a171.344,171.344,0,0,0,23.018-1.286A176.377,176.377,0,0,1,13420.179,3801.729Zm35.487-4.5c1.415-.643,2.83-1.928,2.83-3.215C13458.5,3795.3,13457.081,3796.586,13455.666,3797.229ZM13324,3794.014c0-.9,1.03-1.928,3.344-2.572a70.605,70.605,0,0,1,13.627-2.444h2.574a85.513,85.513,0,0,1,12.729,1.287c8.484,1.157,17.229,1.157,25.847,1.414,4.5.129,9,.129,13.5.129,13.888,0,27.9-.515,41.79-1.415,2.569-.128,5.271-.385,7.841-.385a28.6,28.6,0,0,1,11.445,1.928,2.911,2.911,0,0,1,1.544,1.157l.127.128-.127-.128a2.911,2.911,0,0,0-1.544-1.157,28.6,28.6,0,0,0-11.445-1.928c-2.57,0-5.271.257-7.841.385-13.887.9-27.9,1.415-41.79,1.415-4.5,0-9,0-13.5-.129-8.618-.257-17.362-.257-25.847-1.414a83.805,83.805,0,0,0-12.6-1.287h-2.7a70.605,70.605,0,0,0-13.627,2.444c-2.313.643-3.344,1.543-3.344,2.444Z" transform="translate(-13324.001 -3365.712)"/><path class="c" d="M13840.082,2447.869c-1.031,5.014-2.187,9.9-3.346,14.916-1.668,7.2-3.339,14.529-5.011,21.729a3.5,3.5,0,0,1-1.033,2.186,4.513,4.513,0,0,1-3.469.643,30.745,30.745,0,0,1-9.643-2.057c1.543-24.43,9.9-48.6,8.355-73.034a187.835,187.835,0,0,0-2.442-18.772c-2.827-16.587-5.529-33.174-8.357-49.761a9.97,9.97,0,0,1,.127-5.143,9.847,9.847,0,0,1,4.246-3.986c5.785-3.471,18.514-7.844,25.715-5.4,4.115,1.415,3.471,5.272,3.6,8.486.259,5.143.517,10.158.517,15.3a417.91,417.91,0,0,1-3.345,60.69C13844.455,2425.11,13842.524,2436.554,13840.082,2447.869Z" transform="translate(-13751.745 -2092.987)"/><path class="c" d="M13481.313,2319.478c0,13.373-.132,26.874-1.547,40.117-2.058,20.059-7.585,79.206-8.612,99.265-.131,2.957-.517,6.556-3.344,7.843a7.831,7.831,0,0,1-3.474.257,28.507,28.507,0,0,1-8.612-2.314c1.284-13.372-.129-66.348-1.158-79.591-.514-7.2-.771-14.53-1.157-21.73-.646-16.972-1.285-33.816-1.931-50.789a4.779,4.779,0,0,1,.258-2.7c.514-1.672,2.187-2.572,3.729-3.215a38.112,38.112,0,0,1,20.059-2.442c2.956.385,5.4.256,5.789,3.471C13481.952,2311.378,13481.313,2315.621,13481.313,2319.478Z" transform="translate(-13435.021 -2071.447)"/><path class="d" d="M13856.977,1089.084c7.328,1.286,14.4,4.114,21.473,6.429,10.029,3.086,20.316,5.272,30.734,4.629s20.828-4.114,28.541-11.187a19,19,0,0,1,3.6-2.7c2.443-1.157,5.531-.385,7.717,1.286a85.428,85.428,0,0,1-62.107,31.5c-10.027.514-19.928-.9-29.828-2.7-6.172-1.158-12.73-2.7-17.486-6.943-3.986-3.729-6.945-12.344-3.217-17.23C13840.389,1086.9,13851.447,1088.056,13856.977,1089.084Z" transform="translate(-13769.027 -1010.007)"/><path class="e" d="M13427.389,2033.976a12.556,12.556,0,0,1,4.629,1.285,68.007,68.007,0,0,0,32.016,5.657q1.154-5.785,2.311-11.186c1.674-.128,3.348-.257,4.889-.385a54.064,54.064,0,0,1,1.8,10.8c10.674-1.286,21.346-3.986,32.275-5.915a57.122,57.122,0,0,1,7.328-.9c.385-3.343.643-6.557.768-9.9,0-2.057,0-4.114-.125-6.172h0c-.389-9.515-2.059-19.03-3.6-28.416-.9-5.915-1.928-11.958-5.654-16.844-19.033,10.415-43.592,12.215-64.422,4.757-2.186-.771-5.016-1.542-6.559-.128a5.413,5.413,0,0,0-1.156,1.8,62.8,62.8,0,0,0-4.883,30.988C13427,2017.646,13427.129,2025.746,13427.389,2033.976Z" transform="translate(-13413.5 -1782.344)"/><path class="f" d="M13804.537,3550.645l.258-1.029c1.289-4.887.131-14.273,0-19.286a24.065,24.065,0,0,1,.514-6.816c2.961,0,14.4-.514,17.361-.514l.768.128.26.772c1.283,6.943-4.115,18.9-2.574,25.843.645,2.7,3.344,3.729,5.789,5.144,2.059,1.286,6.174,4.243,8.742,4.243a10.96,10.96,0,0,1,3.988,2.186c1.154,1.157,1.539,3.087.514,4.243-.771,1.029-2.314,1.158-3.732,1.158a181.866,181.866,0,0,1-31.242-2.572,2.55,2.55,0,0,1-1.674-.771,2.068,2.068,0,0,1-.643-1.286C13801.582,3557.717,13803.25,3554.631,13804.537,3550.645Z" transform="translate(-13740.893 -3133.916)"/><path class="f" d="M13447.527,3546.592a31.4,31.4,0,0,1,1.418-2.958,11.375,11.375,0,0,0,.127-3.6c0-5.272.129-14.787.129-20.058,0-1.672.127-3.472,1.545-4.373a4.584,4.584,0,0,1,3.213-.129c3.213.515,9.385,1.029,12.473,1.543a3.53,3.53,0,0,1,2.313,1.028c.516.644.26,1.544.131,2.315-.9,5.144-4.373,14.529-4.113,19.673,0,1.542.127,2.958,0,4.5a61.269,61.269,0,0,0,11.957,7.715,9.385,9.385,0,0,1,3.6,2.187c.77,1.156,1.156,2.828.129,3.857-.9.771-2.316.771-3.471.771a169.948,169.948,0,0,1-27.9-4.244,2.535,2.535,0,0,1-1.414-.771,1.392,1.392,0,0,1-.514-1.157A11.743,11.743,0,0,1,13447.527,3546.592Z" transform="translate(-13431.07 -3127.163)"/><path class="g" d="M13425.545,1227.821c23.274,3.086,45.132-2.7,56.705-21.73-.646-3.6-1.285-7.329-2.058-11.058a977.136,977.136,0,0,0-27.517-107.107c-.773-2.186-1.8-4.758-4.242-5.529a8.589,8.589,0,0,0-4.759.257c-6.172,1.543-12.473,2.7-18.771,2.314-7.075-.514-14.917-7.714-18.905,0-3.983,7.329-3.082,20.316-4.241,28.545-4.372,28.673-8.871,57.347-13.758,86.021C13394.428,1215.477,13405.228,1225.249,13425.545,1227.821Z" transform="translate(-13379.771 -1006.277)"/><path class="c" d="M13602.741,650.188a29.306,29.306,0,0,0,1.284,7.458c1.8,5.272,6.559,8.229,11.061,10.672,3.469,1.8,7.457,3.472,10.928,1.8,2.956-1.543,4.626-5.015,6.945-7.715,1.671-2.057,3.857-3.6,5.525-5.658,3.6-4.757,4.5-11.572,4.63-18,0-8.1-1.414-16.973-6.814-22.245a20.4,20.4,0,0,0-10.027-4.886,18.215,18.215,0,0,0-10.162-.129c-4.109,1.286-7.584,4.629-10.025,8.744C13600.3,630,13602.1,639,13602.741,650.188Z" transform="translate(-13566.221 -596.184)"/><path class="h" d="M15036.25,800.9a4.746,4.746,0,0,0-2.7-3.986,4.4,4.4,0,0,0-3.6-.129c-1.156.643-1.415,2.7-1.415,3.986a6.323,6.323,0,0,1,0,1.543c-.258.772-1.673.386-1.673,1.286-.128.514.389,1.029.771,1.543a23.426,23.426,0,0,0,2.572,2.443c1.157,1.029,1.929.129,2.7-.9C15034.452,804.753,15036.25,803.467,15036.25,800.9Z" transform="translate(-14807.889 -757.95)"/><path class="h" d="M13875.2,951.176c-5.145,2.443-11.188,1.414-16.588,3.086a19.593,19.593,0,0,0-12.6,12.987,25.359,25.359,0,0,0,1.675,18.387c3.343,7.2,10.03,12.987,17.874,14.4,7.711,1.286,16.458-2.443,19.926-9.643a16.616,16.616,0,0,1,1.416-2.572,4.88,4.88,0,0,1,4.889-1.414,4.553,4.553,0,0,1,3.211,3.857c-1.154-2.7.13-5.915,2.316-7.844a16.769,16.769,0,0,1,8.1-3.343,8.448,8.448,0,0,1,4.372-.257c1.413.514,2.7,1.8,2.57,3.215,2.574,0,4.887-1.415,7.072-2.7a22.166,22.166,0,0,0,6.3-5.143,15.127,15.127,0,0,0,2.827-10.415,38.3,38.3,0,0,0-2.7-10.672c-1.288-3.6-2.831-7.329-5.786-9.772a17.389,17.389,0,0,0-9.389-3.086,33.4,33.4,0,0,0-12.857,1.543c1.414,4.114-2.313,8.358-6.429,10.029-3.6,1.286-8.485.9-10.027-2.572-.642-1.414-.642-3.343-2.317-3.986C13878.539,947.7,13877.767,949.89,13875.2,951.176Z" transform="translate(-13777.988 -883.157)"/><path class="i" d="M14226.58,862.484c2.96-1.286,6.3-2.443,9.517-3.6,6.688-2.186,13.761-3.986,20.573-6.043,7.2-2.057,14.016-4.5,21.091-6.686,3.854-1.286,7.582-2.443,11.569-3.6l.13-.129,14.4-5.658a2.776,2.776,0,0,1,1.414-.128l.9.9c.9,1.671,1.159,1.415,2.059,3.086.514.772.9,1.929.258,2.572l-.9.514-14.659,4.757h0c-3.085.9-6.172,1.8-9.126,2.829-6.56,2.314-13.5,4.115-20.189,6.172-7.071,2.186-13.63,4.629-20.573,6.943-3.341,1.157-6.814,2.186-10.285,3.214-1.671.514-5.53,1.8-7.332,2.443L14199.2,879.2s-2.828-6.429-2.442-7.329C14197.136,871.1,14226.58,862.484,14226.58,862.484Z" transform="translate(-14084.503 -792.922)"/><path class="i" d="M13849.273,1108.56a25.626,25.626,0,0,1,4.246-3.086,6.673,6.673,0,0,0,2.184-1.671c1.16-1.286,1.414-3.215,1.67-5.015a46.866,46.866,0,0,0,.129-7.329,13.331,13.331,0,0,0-.9-5.015,9.838,9.838,0,0,0-2.186-2.957,8.867,8.867,0,0,0-1.674-1.414,5.929,5.929,0,0,0-8.1,1.414,13.381,13.381,0,0,0-2.055,5.015c-1.416,5.4-2.443,10.929-1.416,16.329.258,1.8,1.156,5.529,2.957,6.172C13845.8,1111.775,13847.986,1109.589,13849.273,1108.56Z" transform="translate(-13774.312 -1005.953)"/><path class="j" d="M14107.571,1140.615l.132.257h.251l.648-.514-.131-.385a51.133,51.133,0,0,0-1.93-5.786,6.127,6.127,0,0,1-.514-2.186l-1.03.129v.514a18.911,18.911,0,0,0,.645,2.571A45.514,45.514,0,0,0,14107.571,1140.615Z" transform="translate(-14004.577 -1050.351)"/><path class="k" d="M14106.924,864.658c-2.059.643-.515.128-2.443.772a67.656,67.656,0,0,0-7.2,2.443c-5.658,1.929-11.571,3.729-17.359,5.529-11.571,3.6-23.015,7.329-34.586,11.058-11.7,3.729-23.532,7.458-35.359,11.315-5.785,1.8-11.7,3.729-17.616,5.529-5.787,1.8-11.572,3.729-17.359,5.4v.129c5.787-1.672,11.572-3.6,17.359-5.4s11.441-3.6,17.1-5.4c11.959-3.857,23.915-7.586,35.875-11.443,11.441-3.6,22.759-7.2,34.072-10.8,5.272-1.8,10.671-3.343,15.944-5.143,3.088-1.028,6.043-2.186,9.129-3.086,2.06-.643.385,0,2.443-.643C14107.568,864.658,14107.568,864.529,14106.924,864.658Z" transform="translate(-13891.293 -817.341)"/><path class="k" d="M14106.882,889a29.863,29.863,0,0,0-3.6,1.286c-5.657,1.929-11.57,3.729-17.356,5.529-11.573,3.729-23.017,7.329-34.587,11.058-11.832,3.729-23.531,7.458-35.36,11.315-5.915,1.8-11.7,3.729-17.616,5.529-5.786,1.8-11.574,3.729-17.362,5.4v.129c5.788-1.672,11.576-3.6,17.362-5.4s11.445-3.6,17.1-5.4c11.96-3.858,23.917-7.586,35.876-11.444q16.972-5.4,33.947-10.8c5.4-1.8,10.8-3.343,16.071-5.143,1.8-.643,3.727-1.286,5.526-1.929Z" transform="translate(-13896.522 -838.597)"/><path class="k" d="M14113.038,897c-1.284.386-2.57.9-3.856,1.286-5.785,2.057-11.571,3.857-17.484,5.657-11.445,3.6-23.02,7.329-34.46,11.058-11.832,3.729-23.53,7.458-35.359,11.315-5.918,1.8-11.7,3.729-17.617,5.529-5.788,1.8-12.472,3.986-18.259,5.786h0c5.787-1.671,12.471-3.857,18.259-5.658s11.316-3.6,17.1-5.4c11.96-3.857,23.917-7.715,35.878-11.444,11.313-3.6,22.627-7.329,33.944-10.929,5.4-1.672,10.8-3.214,16.071-5.015,1.929-.643,3.86-1.414,5.913-2.057Z" transform="translate(-13900.882 -845.568)"/><path class="k" d="M14128.85,888.658a19.526,19.526,0,0,1-2.569.772c-2.443.771-4.887,1.672-7.2,2.443-5.657,2.057-11.573,3.857-17.357,5.657-11.572,3.6-23.016,7.329-34.587,11.058-11.7,3.729-23.53,7.458-35.234,11.186-5.913,1.929-11.827,3.858-17.74,5.658-5.788,1.8-13.372,4.243-19.162,5.915v.129c5.916-1.672,13.374-4.243,19.287-5.915l16.975-5.4c11.958-3.857,24.046-7.715,36-11.444,11.317-3.729,22.633-7.329,33.944-10.93,5.273-1.671,10.675-3.343,16.074-5.014,2.958-1.029,5.915-2.186,9-3.086,2.058-.643.643-.129,2.7-.771C14129.621,888.658,14129.493,888.529,14128.85,888.658Z" transform="translate(-13908.72 -838.255)"/><path class="i" d="M13958.882,1166.3l.645-.514.256-.643q.192-1.157.386-2.314v-1.286c-.386-1.286-1.929-1.8-3.213-1.672a10.77,10.77,0,0,0-6.433,2.443,15.5,15.5,0,0,0-4.11,5.4c-.388.772-1.031,2.572.126,2.829,1.026.257,3.086-1.029,3.984-1.286C13953.226,1168.228,13956.053,1167.2,13958.882,1166.3Z" transform="translate(-13865.919 -1074.621)"/><path class="i" d="M14127.77,1188.651l.512.515.9,1.028q-1.538,3.086-3.855,2.314c-.9-.128-1.674-.386-2.576-.515a15.969,15.969,0,0,0-3.469-.385,6.8,6.8,0,0,0-4.887,2.057c-1.8,1.928-.516,6.429,2.441,4.372.771-.514.131-1.671-.641-1.157-.387-.643-.643-1.286-1.029-1.8a2.75,2.75,0,0,1,2.057-1.543,6.923,6.923,0,0,1,2.83-.514c1.543,0,3.086.514,4.631.643,1.67.129,3.984.257,5.139-1.286C14131.369,1190.452,14129.57,1186.08,14127.77,1188.651Z" transform="translate(-14012.045 -1099.031)"/><path class="i" d="M14094.676,1059a5.906,5.906,0,0,0-3.469,1.415,13.581,13.581,0,0,0-1.543,1.286c-.383.514-.771,1.029-1.158,1.543-1.156,1.543-2.7,1.672-4.5.257.385-.643-.645-1.286-1.029-.643-1.029,2.057.771,3.6,2.83,3.214a7.229,7.229,0,0,0,3.344-2.186c.639-.771,1.152-1.543,1.8-2.186,2.314-2.057,5.656-2.315,6.43,1.157h.385A3.324,3.324,0,0,0,14094.676,1059Z" transform="translate(-13985.124 -986.738)"/><path class="i" d="M14929.154,835.79l.516.643.771.129.514-.514-.127-.9a13.827,13.827,0,0,0-1.031-1.929l-.127-.129-.387-.129C14927.1,832.832,14928.641,834.89,14929.154,835.79Z" transform="translate(-14721.882 -789.758)"/><path class="i" d="M14974.383,821.474l.643.9a1.174,1.174,0,0,0,1.027.514l.9-.514.256-.257-.125-.257a6.592,6.592,0,0,0-.645-1.671l-.389-.514h-.127a1.939,1.939,0,0,0-1.668.386l-.258.514Z" transform="translate(-14761.839 -778.142)"/><path class="i" d="M14967.8,910h.514l.9.257.516.772a13.9,13.9,0,0,1,1.025,2.443v.129l-.125.128a8.525,8.525,0,0,1-1.93.643l-.773-.129-.385-.386a11.4,11.4,0,0,1-1.287-2.057c-.256-.514-.512-1.028.256-1.286A5.411,5.411,0,0,1,14967.8,910Z" transform="translate(-14754.868 -856.896)"/><path class="i" d="M15026.645,894.147l.642,1.157.513.514.772.128.258-.128.385-.257.256-.257v-.257a2.508,2.508,0,0,0-.382-1.672l-.389-.771-.258-.257h-.256a2.2,2.2,0,0,0-1.29,0l-.894.772.257.386Z" transform="translate(-14807.153 -841.429)"/><path class="i" d="M14964.287,892.443a3.263,3.263,0,0,1-.516-2.186l.129-.129h.131l.383-.129.387.129.258.386a8.563,8.563,0,0,1,1.158,2.443v.129l-.129.129-1.156.257-.258-.386Z" transform="translate(-14752.899 -839.468)"/><path class="i" d="M15025,878.9v-.386l.13-.386.256-.129h.256l.258.129a5.035,5.035,0,0,1,1.029,1.8v.386l-.384.257c-.392.258-.646.258-.9-.257S15025.256,879.414,15025,878.9Z" transform="translate(-14806.285 -829.011)"/><path class="i" d="M14940.508,853.794l.77,1.157c.255.514.388,1.029.641,1.543l.259.128.133.129.385-.257.125-.257a7.385,7.385,0,0,0-1.668-3.857c-.258-.257-1.161-.9-1.289-.257C14939.733,852.637,14940.248,853.408,14940.508,853.794Z" transform="translate(-14732.074 -806.219)"/><path class="i" d="M14985.921,838.057l.642,1.157c.261.386.391.9.773,1.157l.13.128h.256l.646-.386-.13-.514a13.274,13.274,0,0,0-.645-1.415q-.387-.771-.771-1.543l-.772-.643-.771.257C14984.892,836.772,14985.662,837.543,14985.921,838.057Z" transform="translate(-14771.58 -792.411)"/><path class="l" d="M14082.583,979.722c2.317-9.386,6.559-18.13,10.416-26.873s7.714-17.487,11.444-26.23c7.844-17.744,15.561-35.488,23.016-53.361l-.644-.257q-12.535,27.195-24.687,54.647c-4.115,9-7.975,18-11.957,27-3.6,8.1-7.459,16.073-9.516,24.687C14080.271,980.622,14082.2,981.007,14082.583,979.722Z" transform="translate(-13983.318 -824.654)"/><path class="c" d="M14021.281,1627.192a21.066,21.066,0,0,1,9.389-4.372c1.672-.257,3.725-.386,5.143.771,1.414,1.286,1.8,3.344,1.928,5.143a29.345,29.345,0,0,1,.129,4.758c0,.514,0,1.157-.258,1.415l-1.158.514a62.649,62.649,0,0,1-15.559,1.543,3.758,3.758,0,0,1-2.7-.771,4.473,4.473,0,0,1-.771-1.8C14016.523,1630.407,14018.326,1629.764,14021.281,1627.192Z" transform="translate(-13928.063 -1477.91)"/><path class="c" d="M14648.724,975.912a18.762,18.762,0,0,1,2.055-5.272c1.159-1.543,2.827-2.829,4.756-2.7,2.061,0,3.862,1.8,4.631,3.729a10.543,10.543,0,0,1-.129,6.3c-.9,3.215-2.7,6.429-5.785,7.972-2.059,1.157-6.429,1.672-7.586-1.029C14645.763,982.855,14648.206,977.969,14648.724,975.912Z" transform="translate(-14476.424 -907.379)"/><path class="d" d="M13519.693,1127.193a24.5,24.5,0,0,0,.771,6.943,30.1,30.1,0,0,0,3.986,7.844c12.858,18.773,35.873,30.216,58.5,28.931,1.159,0,2.316-.128,2.83-1.157a3.029,3.029,0,0,0,.256-1.543,38.583,38.583,0,0,0-.512-5.529,164.9,164.9,0,0,1-17.616-3.729c-10.287-2.7-21.347-7.2-25.588-16.973-1.927-4.372-2.058-9.258-2.313-14.015-.388-7.072-.644-14.272,1.026-21.087.774-3.214,1.929-6.3,2.188-9.515.771-10.158-13.114-15.558-17.229-5.529A85.389,85.389,0,0,0,13519.693,1127.193Z" transform="translate(-13494.494 -1010.699)"/><path class="m" d="M13491.643,527.73a40.766,40.766,0,0,0-2.316-7.972,13.433,13.433,0,0,0-2.7-3.472c1.543-3.857-6.557-12.215-9.127-13.887-3.088-1.8-4.5-2.829-7.975-3.857-3.6-1.029-4.244-1.414-7.971-1.543-3.086,0-6.17,1.029-9.258,1.414-2.572.386-5.27.386-7.713,1.286-2.7,1.157-1.029.9-2.961,3.086-5.656,6.429-11.055,12.987-16.457,19.673a11.914,11.914,0,0,0-2.7,4.372c-1.414,5.4,4.244,10.286,4.5,15.815,0,2.057-.773,4.243-.516,6.429.258,3.986,3.986,7.072,7.715,8.615,1.541.643,3.086,1.029,4.629,1.543.771,2.186,1.416,6.043,3.6,6.429,1.93.514,3.99.643,5.914,1.157,3.859,1.286.516,3.857,4.373,5.143,2.186.772,4.76,1.029,6.17,2.957,1.158,1.414,1.029,3.472,1.289,5.272.127,1.672.9,3.472,2.441,4.115l-.129,1.029.516-.9h0a20.014,20.014,0,0,0,.643-15.172c-1.672-5.272-5.143-9.772-9-13.758-2.055-2.186-4.373-4.243-6.043-6.686a13.555,13.555,0,0,1-2.957-8.358,13.23,13.23,0,0,1,1.287-4.372c.514-.9,2.443-2.829,2.443-3.858v-.386l.385-.129a16.723,16.723,0,0,0,.643,6.686,28.55,28.55,0,0,0,5.658,9.258c-3.086-4.758-1.928-11.315,1.67-15.687,3.6-4.5,9-6.943,14.531-8.358a19.63,19.63,0,0,0,6.688-2.572,36.5,36.5,0,0,0,2.955,3.214c6.045,6.558,6.945,16.587,3.215,24.559-2.441,5.4-7.072,10.287-6.557,16.33,1.672-7.2,10.287-10.415,13.627-16.844C13495.369,542,13493.182,534.545,13491.643,527.73Z" transform="translate(-13409.604 -497)"/><path class="m" d="M13705.3,1225.607c-1.934-3.6-5.145-1.286-5.662,1.8a25.894,25.894,0,0,0-.125,4.5c0,3.215-.516,6.558-.516,9.772,0,3.343.773,6.686,2.955,9.129.9.9,2.059,1.929,1.932,3.215,1.928-.514,2.313-3.086,2.184-5.015v-19.03A8.35,8.35,0,0,0,13705.3,1225.607Z" transform="translate(-13650.779 -1130.329)"/><path class="n" d="M13711.62,1159.914l.77.386.258.514a32.373,32.373,0,0,1-.258,6.172l-.256,1.029-1.159.514a14.14,14.14,0,0,1-2.312.257,3.038,3.038,0,0,1-2.06-1.157,3.906,3.906,0,0,1-.128-2.957c.256-1.029.387-3.986,1.029-4.629C13708.274,1159.143,13710.592,1159.914,13711.62,1159.914Z" transform="translate(-13657.102 -1074.409)"/><path class="o" d="M13452.587,2429.162c-.389-2.315-2.057-2.445-3.985-2.829-5.016-1.157-11.06-.385-15.943-2.186-4.759-1.8-9.773-3.857-14.66-5.4-2.44-.77-4.5-1.029-6.043.387h-.516l-.254.256c-1.673.644-2.059,2.443-1.031,3.987,2.059,2.828,8.616,5.014,11.573,6.043a74.589,74.589,0,0,0,9.258,2.186c2.572.514,4.756,1.414,7.457,1.543,3.214.128,6.943.9,10.159.514C13450.785,2433.276,13453.23,2432.247,13452.587,2429.162Z" transform="translate(-13398.582 -2171.101)"/><path class="o" d="M13817.16,2431.35c-.641-3.343-4.5-2.185-6.814-1.8-9,1.928-17.873,3.6-26.873,4.886-2.83.386-9.516-.129-10.543,3.6-.773,2.7,1.414,3.986,3.6,4.372,2.83,2.058,8.359.386,11.316,0,6.686-.9,13.244-2.057,19.93-3.214,4.371-.772,7.455-1.028,9.26-5.4l.127-1.029A2.589,2.589,0,0,0,13817.16,2431.35Z" transform="translate(-13715.064 -2180.618)"/><path class="p" d="M13459.913,3490.339a3.625,3.625,0,0,1,2.833-.642,10.466,10.466,0,0,1,2.829.9,5.4,5.4,0,0,0,2.826.386c1.024-.128,2.059-.643,2.958-.256.511.256.9.643,1.413.9,1.285.387,2.83-1.029,3.986-.257.387.257.518.9,1.158,1.029l1.029-.129c.386,0,.771.385,1.156.643a5.559,5.559,0,0,1,1.157,1.286,1.423,1.423,0,0,1-.385,1.542,3.2,3.2,0,0,1-1.157.515,6.677,6.677,0,0,1-3.217-.129l-1.028-.642c-1.027-.259-2.055.642-3.213.642-1.416.129-2.573-1.157-3.988-1.286-.77,0-1.542.386-2.314,0l-.638-.385c-1.029-.514-1.932.128-2.959-.128-1.031-.128-.646-.257-1.289-.9C13460.172,3492.525,13458.374,3491.625,13459.913,3490.339Z" transform="translate(-13441.911 -3104.855)"/><path class="p" d="M13816.668,3498.739a3.353,3.353,0,0,1-2.184-.9,1.428,1.428,0,0,1,.131-2.058c.641-.385,1.412-.129,2.053-.129,1.16,0,2.189-.9,3.219-1.543s2.186-1.286,3.342-.9l.771.258a4.3,4.3,0,0,0,1.285,0,10.583,10.583,0,0,1,5.66.514l.9.129.775-.642,1.025.128c.643.385,1.156.644,1.67.9a2.4,2.4,0,0,1,1.412,1.028,1.711,1.711,0,0,1-.641,2.316,3.833,3.833,0,0,1-2.441.514c-.9,0-1.67-.129-2.572-.129a32.733,32.733,0,0,0-3.473.643c-1.928.257-3.729-.257-5.656-.385C13820.146,3498.354,13818.473,3498.739,13816.668,3498.739Z" transform="translate(-13751.095 -3107.855)"/></g></svg>