<svg xmlns="http://www.w3.org/2000/svg" xmlns:xlink="http://www.w3.org/1999/xlink" width="371.367" height="393.915" viewBox="0 0 371.367 393.915"><defs><style>.a{fill:#d4c19c;}.b,.c{fill-rule:evenodd;}.b{fill:url(#a);}.c{fill:url(#b);}.d{fill:#404040;}.e{fill:#4d4d4d;}.f{fill:#3b3b3b;}.g{fill:#edd5be;}.h{fill:#585973;}.i{fill:#a47152;}.j{fill:#65627d;}.k{fill:#6d9dbf;}.l{fill:#f2f2f2;}.m{fill:#b38e5d;}.n{fill:#e6e6e6;}.o{fill:#ede0c3;}.p{fill:#d2b790;}.q{fill:#736357;}</style><linearGradient id="a" y1="0.5" x2="1" y2="0.5" gradientUnits="objectBoundingBox"><stop offset="0" stop-color="#ccc"/><stop offset="1" stop-color="#ccc"/></linearGradient><linearGradient id="b" x1="0.076" y1="1.146" x2="0.924" y2="-0.144" xlink:href="#a"/></defs><g transform="translate(7.678)"><path class="a" d="M-6.587,377.947c-10.15-13.219,52.4-22.6,108.652-10.577s119.229,3.365,161.055-5.288,89.9-5.769,99.037,0S339.08,376.5,278.5,383.716s-136.056-2.885-187.016,2.4S3.563,391.166-6.587,377.947Z"/><path class="b" d="M22945.723,3829.309c-4.641,0-9.279-.116-13.92-.232h-.463l-1.854-.116h-2.205l-.232-.116h-2.2l-.35-.116h-2.2l-.232-.116h-1.855l-.465-.116h-1.506l-.35-.116h-1.506l-.465-.116h-1.275l-.115-.116h-1.277l-.465-.115h-1.391l-.467-.116h-.693l-.58-.116h-.7l-.578-.116h-1.277l-.578-.116h-.7l-.58-.116.58.116h.7l.578.116h1.277l.578.116h.7l.58.116h.693l.467.116h1.391l.465.115h1.277l.115.116h1.275l.465.116h1.506l.35.116h1.506l.465.116h1.855l.232.116h2.2l.35.116h2.2l.232.116h2.205l1.854.116h.463c4.408.116,8.93.232,13.338.232h1.16c4.057,0,8.119-.116,12.176-.232h.23c1.625,0,3.25-.116,4.873-.116l.346-.116h2.207l.693-.116h1.277l.348-.116h1.508l.463-.116h1.506l.463-.116h1.279l.113-.116h1.277l.58-.116h1.275l.115-.115h1.277l.463-.116h.811l.58-.116h.7l.576-.116h.7l.576-.116h.7l.582-.116h.115l.58-.116h.7l.578-.116h.7l.582-.116-.582.116h-.7l-.578.116h-.7l-.58.116h-.115l-.582.116h-.7l-.576.116h-.7l-.576.116h-.7l-.58.116h-.811l-.463.116h-1.277l-.115.115h-1.275l-.58.116h-1.277l-.113.116h-1.279l-.463.116h-1.506l-.463.116h-1.508l-.348.116h-1.277l-.693.116h-2.207l-.346.116c-1.623,0-3.248.116-4.873.116h-.23C22954.188,3829.193,22950.012,3829.309,22945.723,3829.309Zm-51.725-9.046v0Zm0-.232c0-2.667,2.207-4.871,4.525-6.262C22896.205,3815.161,22894,3817.365,22894,3820.031Zm4.525-6.262c11.25-6.958,26.207-5.682,38.848-6.03C22924.73,3808.087,22909.773,3806.811,22898.523,3813.769Zm38.848-6.03c15.539-.58,31.313-1.16,46.85-1.624C22968.684,3806.579,22952.91,3807.16,22937.371,3807.74Zm46.85-1.624Zm18.67,5.683v-.348h0c-.115-1.623-1.736-2.9-3.361-3.6h0l-.115-.115h0l.115.115h0c1.625.7,3.129,1.972,3.361,3.6h0Zm-3.707-4.059Zm-10.439-1.74h0Z" transform="translate(-22885.629 -3435.395)"/><path class="c" d="M25130.172,3760.916h0Zm-65.172-4.522c0-5.566,15.541-6.378,17.859-6.726A334.926,334.926,0,0,1,25124.6,3747c3.02,0,6.035,0,9.051.116,8.465.232,16.816.812,25.281,1.623h.576a5.244,5.244,0,0,0,1.279-.116h1.389c1.51,0,3.016.232,3.828,1.275a4.581,4.581,0,0,1,1.043,2.667v-.116a4.284,4.284,0,0,0-1.043-2.552c-.812-1.043-2.318-1.275-3.828-1.275h-1.389a5.244,5.244,0,0,1-1.279.116h-.576c-8.465-.812-16.816-1.391-25.281-1.623-3.016-.116-6.031-.116-8.928-.116h-.234a333.127,333.127,0,0,0-41.633,2.667C25080.541,3750.015,25065,3750.827,25065,3756.393Z" transform="translate(-24804.869 -3383.237)"/><path class="d" d="M22957.33,2457.915c1.045-2.667,2.205-5.8,1.045-8.466a10.262,10.262,0,0,0-2.088-2.9c-18.439-19.135-36.877-38.269-55.9-56.592-5.221-4.987-11.133-10.089-17.973-9.973a6.387,6.387,0,0,0-4.408,1.508,10.539,10.539,0,0,0-2.32,4.175c-4.523,13.8-1.74,30.267,7.074,41.284,10.32,12.872,26.672,17.279,39.08,27.6a15.049,15.049,0,0,1,4.641,5.1c2.664,4.754,1.855,10.9,1.16,16.351a319,319,0,0,0-2.67,33.282c0,4.986-3.479,31.891.7,34.674,9.158,6.262,17.857-45.459,19.482-51.257Q22950.548,2474.961,22957.33,2457.915Z" transform="translate(-22867.551 -2174.748)"/><path class="e" d="M22853.875,2456.993c.461,4.175,1.043,8.466,2.781,12.408,2.9,6.146,8.352,10.553,13.566,14.844a414.061,414.061,0,0,1,32.473,29.8c2.32,2.319,4.758,4.87,4.988,8.233.234,2.783-1.16,5.45-2.555,7.885q-16.172,29.573-32.586,59.143c-.574,1.159-1.273,2.667-.465,3.595a3.565,3.565,0,0,0,1.508,1.043c3.828,1.624,7.656,3.131,11.48,4.755,10.555-10.437,19.137-22.845,27.6-35.138q15.486-22.613,30.965-45.111c.926-1.507,1.969-3.131,1.855-4.87a8.406,8.406,0,0,0-1.738-3.711,355.955,355.955,0,0,1-30.387-52.765c-1.621-3.595-3.359-7.306-6.262-9.973-4.52-4.175-11.25-5.1-17.508-5.8-9.859-1.16-20.18-3.247-30.152-3.363C22849.238,2437.742,22853.176,2449.687,22853.875,2456.993Z" transform="translate(-22848.984 -2226.011)"/><path class="f" d="M22992.029,3758.722c-3.365-1.159-6.613-2.2-9.975-3.362a1.9,1.9,0,0,1-1.391-.812c-.812-.812-.467-2.319,0-3.594a21.861,21.861,0,0,0,1.623-3.943c.58-3.015-1.855-4.987-4.291-6.146-3.941-1.972-8.232-3.479-11.6-6.262-2.2-1.624-2.549-1.624-4.869,1.16-1.623,1.855-3.711,3.942-3.941,6.261-.352,2.088,1.041,3.479,2.2,4.639,2.32,2.319,4.523,4.523,6.84,6.727,2.9,2.9,5.8,5.8,9.4,7.77a18.558,18.558,0,0,0,12.637,2.436,4.368,4.368,0,0,0,1.16-.348C22991.449,3762.434,22991.912,3760.346,22992.029,3758.722Z" transform="translate(-22941.797 -3371.302)"/><path class="g" d="M24057.088,2147.733c1.973-.348,4.063-.812,5.338-2.436a6.11,6.11,0,0,0,1.043-2.667,2.4,2.4,0,0,0,.115-1.275,1.986,1.986,0,0,0-1.855-.928,29.992,29.992,0,0,0-7.187.464c-1.973.232-3.945.58-5.8.812a39.462,39.462,0,0,0-5.334.927,1.741,1.741,0,0,0-1.275.464,2.563,2.563,0,0,0-.7,2.087c-.117.928-.7,3.827,0,4.407s4.408-.348,5.334-.464A78.671,78.671,0,0,0,24057.088,2147.733Z" transform="translate(-23899.701 -1962.906)"/><path class="h" d="M23326.4,1640.246c3.246,3.015,4.871,7.19,6.492,11.133a343.166,343.166,0,0,0,20.41,42.676l.7.928a2.493,2.493,0,0,0,1.855.464,357.954,357.954,0,0,0,40.121-2.319,3.064,3.064,0,0,1,2.668.464,3.915,3.915,0,0,1,.582,1.971,49.779,49.779,0,0,1-.465,11.017,375.221,375.221,0,0,1-55.895,2.667c-4.523-7.19-5.684-11.365-9.047-16.931a120.422,120.422,0,0,1-6.031-12.292q-4.348-9.741-9.391-19.134c-2.086-3.711-4.176-7.538-4.988-11.6-.7-3.247-1.043-9.162,2.086-11.249C23318.742,1635.839,23323.961,1638.042,23326.4,1640.246Z" transform="translate(-23255.986 -1518.041)"/><path class="i" d="M23642.859,1085.651a1117.8,1117.8,0,0,0,138.465-35.6c3.014-.928,6.143-2.087,7.65-4.87,1.277-2.436.814-5.335.232-8-1.16-5.8-2.2-11.481-3.363-17.279-5.217-27.252-10.553-54.388-15.771-81.64-.23-1.16-.578-2.551-1.621-3.131a4.475,4.475,0,0,0-3.018-.232c-34.557,5.682-69,13.1-102.979,22.15-8.58,2.2-17.16,4.639-25.744,7.19-9.277,2.667-14.725,1.624-13.684,12.177,1.623,17.395,4.176,34.906,7.189,52.185C23631.146,1033.466,23641.35,1085.883,23642.859,1085.651Z" transform="translate(-23530.002 -897.113)"/><path class="j" d="M22883.422,1515.62a23.908,23.908,0,0,1,8.93,3.943c4.523,3.6,6.609,9.51,7.537,15.192,1.16,7.306,1.047,14.728.814,22.034-.582,23.657-1.16,47.2-1.855,70.855,0,2.9-.117,5.914-1.391,8.581a14.988,14.988,0,0,1-7.191,6.958c-8.465,4.407-18.555,3.711-28.064,2.667-10.32-1.16-20.641-2.551-30.15-6.378-2.553-1.044-5.1-2.2-6.842-4.291-2.434-2.9-2.9-6.958-3.131-10.785a177.4,177.4,0,0,1,6.492-57.867,180.535,180.535,0,0,1,10.207-27.716c3.48-7.19,8.117-20.062,14.611-25.165C22859.883,1508.43,22876.23,1513.532,22883.422,1515.62Z" transform="translate(-22821.826 -1406.866)"/><path class="k" d="M25059.617,2165.28a230.054,230.054,0,0,1,9.975,31.427c2.553,10.437,4.525,21.222,9.279,30.847a117.427,117.427,0,0,0,6.492,10.9c14.961,23.773,29.109,48.242,42.213,73.174.467.812.93,1.624,1.738,1.624a2.433,2.433,0,0,0,1.275-.463c2.781-1.624,5.451-3.132,8.236-4.755.463-.348.926-.58,1.158-1.159a2.6,2.6,0,0,0-.232-1.856c-5.1-14.728-10.205-29.455-15.309-44.067a221.963,221.963,0,0,0-8.811-22.614c-1.51-3.247-3.248-6.378-4.057-9.857a49.751,49.751,0,0,1-1.281-9.161c-1.389-22.265-1.734-44.647-.926-66.912,0-1.392-12.521-5.1-14.031-5.566a95.765,95.765,0,0,0-15.191-3.247,100.429,100.429,0,0,0-15.654-.812,43.039,43.039,0,0,0-7.771.58c-2.67.7-2.67,1.275-2.436,4.059C25054.748,2153.684,25057.3,2159.482,25059.617,2165.28Z" transform="translate(-24795.311 -1965.03)"/><path class="k" d="M25075.168,2196.214c0,9.509.117,19.019,1.744,28.3,1.855,9.741,5.449,19.019,8.576,28.412,7.773,22.73,13.34,46.039,18.791,69.464a30.967,30.967,0,0,0,15.074-3.479c-5.334-25.164-7.77-50.793-10.32-76.422a119.658,119.658,0,0,1-.926-15.772c.229-7.306,1.738-14.5,3.01-21.685,2.9-16.12,4.408-32.471,9.625-48.01,1.164-3.131,2.205-6.958.121-9.625a8.839,8.839,0,0,0-3.711-2.32,85.225,85.225,0,0,0-19.365-5.1c-5.105-.7-12.41-2.087-17.4.232-8.932,4.291-5.221,22.729-5.221,30.267Z" transform="translate(-24813.182 -1961.638)"/><path class="l" d="M25069.391,1170.326a14.413,14.413,0,0,1,4.988,0c7.184.812,14.377,1.624,21.449,2.551a20.636,20.636,0,0,1,8.352,2.087c2.781,1.624,4.754,4.523,6.146,7.422,3.824,8.35,4.174,17.975,3.361,27.136-2.668,29.572-16.812,57.751-16.35,87.555a2.924,2.924,0,0,1-.352,1.74c-.574.812-1.738.7-2.664.58-17.514-2.435-35.141-4.755-52.766-7.19a4.4,4.4,0,0,1-1.738-.58,3.237,3.237,0,0,1-.7-1.739c-2.436-12.64-.234-25.745,3.131-38.269,3.361-12.408,7.887-24.585,10.092-37.225,2.432-13.684,2.664-28.644,11.129-39.661C25065.1,1172.877,25066.951,1171.022,25069.391,1170.326Z" transform="translate(-24781.076 -1105.176)"/><path class="g" d="M25235.633,726.077c-.113,2.9-.113,5.8,1.164,8.466,2.555,5.566,10.434,8.234,16.93,6.61,6.379-1.508,11.363-6.61,13.918-12.292,2.668-5.682,3.129-11.945,3.129-18.091,0-6.842-.926-14.5-6.613-18.9a22.29,22.29,0,0,0-8.348-3.479c-3.824-.928-8.348-1.044-11.246,1.508a12.389,12.389,0,0,0-2.668,4.639A102.464,102.464,0,0,0,25235.633,726.077Z" transform="translate(-24955.672 -678.786)"/><path class="m" d="M25213.525,688.8c4.291-3.247,9.279-5.45,13.336-8.813a27.377,27.377,0,0,0,8.7-26.9c4.057,1.739,9.512-2.319,8.7-6.726-.812-4.291-8-5.8-10.092-1.856-4.406-5.914-11.592-10.553-13.8-17.047a19.818,19.818,0,0,0-9.279,16.7,51.957,51.957,0,0,1-.463-16.931c.463-4.523,2.09-9.625,6.264-11.6a11.3,11.3,0,0,1,6.492-.58,14.947,14.947,0,0,1,4.408-3.247c4.408-2.087,9.742-1.971,14.494-.58a29.8,29.8,0,0,1,18.67,16.583c2.551,5.914,3.02,12.408,3.135,18.786,0,7.074-.467,14.264-2.785,20.99-6.029,17.395-24.123,28.412-42.211,31.079-4.521.58-9.162.928-12.756,3.595C25205.641,696.919,25209.234,691.933,25213.525,688.8Z" transform="translate(-24929.738 -610.2)"/><path class="g" d="M24569.7,1337.879a17.087,17.087,0,0,0,7.656-.58c2.2-.928,3.828-2.783,5.332-4.639a74.592,74.592,0,0,0,6.961-11.712c2.668-5.1,5.332-10.321,8-15.424,1.744-3.363,3.6-6.958,6.609-9.277s7.773-3.131,10.793-.812c3.244,2.667,3.244,7.654,2.314,11.712a65.411,65.411,0,0,1-5.334,12.872c-5.1,10.437-10.32,20.758-15.424,31.2a7.96,7.96,0,0,1-2.549,3.247,6.876,6.876,0,0,1-3.715.7c-8.344,0-16.7-1.972-24.814-3.943-20.062-4.871-40.008-10.321-59.723-16.583-1.855-.58-3.711-1.276-4.52-3.015-.93-2.319,1.154-4.871,3.594-5.45s4.982.348,7.307,1.276c-.117-1.276,1.734-1.507,3.014-1.16,4.174,1.508,6.492,4.407,10.783,5.45,4.754.928,9.625,1.855,14.379,2.667C24550.107,1336.024,24559.846,1337.183,24569.7,1337.879Z" transform="translate(-24306.324 -1214.746)"/><path class="n" d="M25231.27,1309.582a88.467,88.467,0,0,0,10.672-33.282c.109-1.971.344-4.059-.469-5.914a9.768,9.768,0,0,0-5.1-4.523c-4.176-1.971-9.281-2.783-13.223-.348-2.547,1.508-4.172,4.059-5.684,6.61-2.9,4.639-5.68,9.277-8.348,14.032-1.508,2.783-7.422,10.553-6.262,13.568C25203.9,1302.508,25230.457,1310.974,25231.27,1309.582Z" transform="translate(-24926.602 -1188.189)"/><path class="g" d="M23114.971,1045.426c-.926-11.6-5.334-23.31-14.381-30.847-6.84-5.8-17.857-8.465-25.049-2.9-6.027,4.639-7.189,13.22-6.146,20.642,1.279,8.929,5.1,17.627,11.6,23.889,5.449,5.1,16.234,10.785,24.123,9.741C23114.506,1064.792,23115.553,1052.732,23114.971,1045.426Z" transform="translate(-23040.385 -962.417)"/><path class="h" d="M23091.418,1597.5c2.9,2.087,4.752,5.218,6.609,8.35a330.287,330.287,0,0,1,17.4,33.746,6.659,6.659,0,0,0,1.275,1.856c1.277,1.044,3.248.58,4.871,0,15.77-5.218,24.814-8,40.7-13.336,1.158-.348,2.439-.812,3.594-.348,1.51.464,2.318,2.088,2.9,3.479,1.393,3.131,2.9,6.262,4.291,9.393-19.482,10.205-33.518,15.424-55.084,19.946-2.781.58-5.686,1.16-8.35.232a16.43,16.43,0,0,1-5.912-4.291c-11.6-11.713-24.24-24.585-32.705-38.849C23063.588,1605.39,23078.662,1588.111,23091.418,1597.5Z" transform="translate(-23040.375 -1480.633)"/><path class="g" d="M23903,1836.063a4.186,4.186,0,0,1,.234-1.739,3.612,3.612,0,0,1,1.158-1.159,40.136,40.136,0,0,1,9.859-5.219,3.434,3.434,0,0,1,1.5-.116l1.047.348a4.226,4.226,0,0,0,3.711-.348,19.632,19.632,0,0,1,3.475-1.74,6.174,6.174,0,0,1,5.8,2.088,10.379,10.379,0,0,1,2.205,6.03,3.269,3.269,0,0,1-.463,2.783,3.929,3.929,0,0,1-1.742,1.044c-6.031,2.087-12.061,3.943-18.207,5.8-2.084.58-4.523,2.2-6.029,0C23903.924,1841.745,23903.232,1838.614,23903,1836.063Z" transform="translate(-23777.617 -1684.982)"/><path class="o" d="M24152.578,1048.711a1.807,1.807,0,0,0-.578-1.16l.7.232c3.361-.812,6.727-1.74,9.975-2.551a5.964,5.964,0,0,1,1.271-.232,1.971,1.971,0,0,1,1.16.348c.115.116.115.232.232.464C24161.043,1046.74,24156.869,1047.783,24152.578,1048.711Zm-.578-1.16Z" transform="translate(-23997.744 -994.578)"/><path class="p" d="M24168.246,1088.529a3.407,3.407,0,0,1-1.043-.232l-.578-.928a23.74,23.74,0,0,1-1.512-6.262c-1.043-5.567-3.594-10.669-5.449-16-.465-1.276-1.738-7.422-2.664-10.205,4.289-.928,8.465-1.972,12.754-2.9a8.43,8.43,0,0,1,.23.812c2.668,10.553,9.742,20.062,9.973,30.963a1.733,1.733,0,0,1-.23,1.044l-.809.7a22.275,22.275,0,0,1-10.555,3.015Z" transform="translate(-24002.166 -1000.766)"/><path class="q" d="M25222.8,3689.857a1.942,1.942,0,0,1-.117,1.623l-.58.464c-2.551,1.508-5.684,2.087-8.58,2.667a149.162,149.162,0,0,1-16.006,1.508,10.72,10.72,0,0,1-5.1-.58c-1.506-.812-2.664-2.667-2.2-4.291a4.537,4.537,0,0,1,2.09-2.088,12.675,12.675,0,0,1,3.01-.7q5.224-.694,10.441-1.739a10.474,10.474,0,0,0,2.432-.927,2.913,2.913,0,0,0,1.51-1.972l.115-.58.463-.348a22.427,22.427,0,0,1,7.193-2.667,10.045,10.045,0,0,1,1.855-.232c.811,0,.811.116,1.043.928.463,1.392.814,2.783,1.16,4.175C25221.984,3686.61,25222.447,3688.234,25222.8,3689.857Z" transform="translate(-24915.465 -3324.006)"/><path class="q" d="M25617.3,3559.115l.7-.116.229.232c1.16,2.2,2.436,4.407,3.713,6.494a3.333,3.333,0,0,1,.578,2.319,2.664,2.664,0,0,1-.7,1.043,32.066,32.066,0,0,1-8.811,6.958c-3.365,1.855-6.844,3.247-10.32,4.755a5.232,5.232,0,0,1-1.281.348,3.134,3.134,0,0,1-2.2-.7,11.942,11.942,0,0,1-1.623-1.739,3.638,3.638,0,0,1-.58-1.16,2.494,2.494,0,0,1,1.16-1.739c3.594-2.9,7.768-4.755,11.48-7.306a2.063,2.063,0,0,0,.813-.928l.346-1.043a22.991,22.991,0,0,0-.463-2.784c-.117-.58-.232-.463.352-.927a4.74,4.74,0,0,1,1.271-.812A47.69,47.69,0,0,1,25617.3,3559.115Z" transform="translate(-25275.174 -3217.038)"/><path class="f" d="M23297.615,3722.509a3.861,3.861,0,0,1,2.553.348c1.393,1.043.813,3.131,2.088,4.174a4.3,4.3,0,0,0,2.436.7c4.525.116,9.045.348,13.57.58a2.933,2.933,0,0,1,1.51.347,2.794,2.794,0,0,1,.691,1.276,15.58,15.58,0,0,1,.35,4.638,13.8,13.8,0,0,1-5.795.813c-9.166.116-18.445.116-27.723.116a2.277,2.277,0,0,1-1.271-.232,2.05,2.05,0,0,1-.7-1.16c-.578-2.319-2.551-9.045-.463-10.553.926-.812,5.217-.463,6.609-.58C23293.445,3722.857,23295.531,3722.625,23297.615,3722.509Z" transform="translate(-23230.34 -3361.53)"/><path class="q" d="M23017.447,909c-.926.116-1.393,1.392-1.855,2.435-1.506,3.711-5.334,5.8-9.045,6.262s-7.422-.464-11.133-.928c-5.105-.7-10.434-.7-14.963,1.856-4.982,2.667-8.576,8.117-9.969,14.032a32.483,32.483,0,0,0,1.393,18.207,22.717,22.717,0,0,0,4.52,8c2.436,2.435,5.449,3.827,8.352,5.334,6.494,3.363,9.859,10.321,20.063,11.365-2.553-3.131-5.684-6.494-5.8-10.669a7.4,7.4,0,0,0-.346-2.783c-.814-1.623-3.016-1.855-3.945-3.363a3.178,3.178,0,0,1,.7-4.059,2.616,2.616,0,0,1,3.594,1.276c.234-3.827-1.852-7.654-1.275-11.481a10.427,10.427,0,0,1,3.594-6.146,20.792,20.792,0,0,1,5.918-3.6,16.3,16.3,0,0,0,5.566-3.363v.116c1.973-1.276,2.668-4.175,3.244-6.726C23017.1,919.553,23018.145,914.219,23017.447,909Z" transform="translate(-22952.6 -874.349)"/></g></svg>