<svg xmlns="http://www.w3.org/2000/svg" xmlns:xlink="http://www.w3.org/1999/xlink" width="190.844" height="542.516" viewBox="0 0 190.844 542.516"><defs><style>.a{fill:#d4c19c;}.b{fill-rule:evenodd;fill:url(#a);}.c{fill:#fdeadc;}.d{fill:#736357;}.e{fill:#63564b;}.f{fill:#ebefeb;}.g{fill:#333;}.h{fill:#96c6c8;}.i{fill:#5d9698;}.j{fill:#999;}.k{fill:#949494;}.l{fill:#fff;}.m{fill:#494949;}.n{fill:#575757;}</style><linearGradient id="a" y1="0.503" x2="1" y2="0.503" gradientUnits="objectBoundingBox"><stop offset="0" stop-color="#ccc"/><stop offset="1" stop-color="#ccc"/></linearGradient></defs><g transform="translate(-0.001)"><ellipse class="a" cx="79.889" cy="9.517" rx="79.889" ry="9.517" transform="translate(14.822 517.844)"/><path class="b" d="M35823.789,3764.571c-9.883,0-19.758-.163-29.8-.325,10.039.162,19.914.325,29.953.325,10.375,0,20.906-.163,31.258-.648C35844.852,3764.408,35834.32,3764.571,35823.789,3764.571Zm-29.8-.325c-20.578-.323-41.32-.647-61.883-.972C35752.672,3763.6,35773.414,3763.923,35793.992,3764.246Zm63.164-.485c8.75-.487,17.656-1.3,25.914-4.373C35874.813,3762.464,35865.906,3763.274,35857.156,3763.761Zm-125.859-.487c-6.648-.161-14.094-1.133-17.484-6.8C35717.2,3762.141,35724.648,3763.113,35731.3,3763.274Zm-17.484-6.8a6.1,6.1,0,0,1-.812-2.43A7.078,7.078,0,0,0,35713.813,3756.472Zm-.812-2.591h0c.172-3.079,3.891-4.374,6.969-4.859a295.741,295.741,0,0,1,37.9-2.593c27.375-.323,54.75-2.429,81.969-2.429,12.133,0,24.289.485,36.438,1.62,3.07.324,6.477.647,8.9,2.43a6.993,6.993,0,0,1,3.086,5.669h0a7.478,7.478,0,0,0-3.086-5.669c-2.422-1.782-5.828-2.106-8.9-2.43-12.148-1.135-24.3-1.62-36.437-1.62-27.219,0-54.594,2.106-81.969,2.429a295.741,295.741,0,0,0-37.9,2.593c-3.078.485-6.8,1.78-6.969,4.859Z" transform="translate(-35697.414 -3222.056)"/><path class="c" d="M36218.582,2326.69c2.582,7.613,4.535,13.121,6.953,20.9,2.27,6.479,9.234,20.9,10.859,27.536,1.449,6.478.48,7.937.316,14.577-1.609,35.311-14.895,69.325-24.605,103.341a4.857,4.857,0,0,1-1.629,2.916,5.211,5.211,0,0,1-2.746.485,30.556,30.556,0,0,1-11.34-2.753c7.605-30.128,10.688-60.417,15.063-91.193a26.874,26.874,0,0,0,.309-8.747,30.255,30.255,0,0,0-2.422-6.8c-5.828-12.635-13.613-25.269-19.441-37.741-2.91-6.479-5.828-12.8-9.883-18.628-3.719-5.507-3.551-11.175-4.2-17.817-.484-6.965,4.2-13.768,10.523-16.845,6.488-3.239,16.207-5.183,20.4,1.944C36211.453,2306.121,36215.484,2317.62,36218.582,2326.69Z" transform="translate(-36085.23 -2006.083)"/><path class="c" d="M35798.375,2308.324c4.051,47.135,8.105,94.27,9.723,141.4,3.25.324,6.641.648,10.043.81a4.943,4.943,0,0,0,3.074-.325c1.453-.972,1.777-2.753,1.777-4.534,1.293-18.789,2.754-37.741,4.055-56.53.969-13.444,1.773-26.887,1.953-40.17,0-37.579,3.07-78.234,7.934-115.489.641-5.183-8.27-8.1-11.012-12.634a15.912,15.912,0,0,0-5.672-5.669c-9.07-5.831-29.973-10.852-29.324,5.508.637,18.626,3.246,37.416,4.7,56.042C35796.609,2287.267,35797.563,2297.795,35798.375,2308.324Z" transform="translate(-35762.707 -1936.207)"/><path class="d" d="M35838.289,2065.427c.82,2.43,1.473,5.344.18,7.613-.828,1.457-2.613,2.43-4.223,3.239a64.058,64.058,0,0,1-26.25,7.127c-5.5.325-11.977-.648-14.238-5.669-1.473-2.916-.809-6.317-1.312-9.557-.477-3.239-3.234-6.64-6.3-5.668a49.9,49.9,0,0,0,.969,13.929,7.288,7.288,0,0,1-7.137,8.747c-10.691,0-21.359.161-32.062.161-5.828,0-12.3-.161-16.687-3.888-5.988-5.183-5.5-14.577-4.687-22.352,1.781-15.063,3.719-30.613,10.844-43.895,1.3-2.269,2.594-4.374,4.7-5.67,2.266-1.458,5.176-1.782,7.945-1.944,14.246-1.133,28.672-1.619,43.078-1.782,9.871,0,32.551-1.134,37.414,9.557,2.762,5.994,1.289,17.493,2.438,24.134A237.957,237.957,0,0,0,35838.289,2065.427Z" transform="translate(-35708.355 -1765.39)"/><path class="e" d="M35796.859,2459.1c-1.789-1.457-4.066-.971-6.332-.809a36.833,36.833,0,0,0-4.2.324c-3.719-.324-7.941.162-10.379.162-10.84-.162-21.687-2.591-32.387-2.106a2.3,2.3,0,0,0-1.949.972,2.738,2.738,0,0,0-1.773,2.592,3.015,3.015,0,0,0,.98,2.916,5.772,5.772,0,0,0,3.23,2.915,6.407,6.407,0,0,0,3.563.486,15.091,15.091,0,0,0,6.328,1.458c10.2.161,20.234.324,30.445.324,3.883.162,10.848,1.618,13.6-2.43A4.89,4.89,0,0,0,35796.859,2459.1Z" transform="translate(-35719.875 -2143.187)"/><path class="e" d="M36195.313,2394.853a299.833,299.833,0,0,0-30.117,11.014h-.484c-2.437.485-4.062,0-5.359,2.591a3.342,3.342,0,0,0,1.125,4.211c6.477,4.7,19.773-2.268,26.25-4.534,5.664-1.945,12.633-3.4,17.828-6.319,1.773-.971,2.742-1.457,3.227-3.4C36209.406,2390.965,36198.547,2393.88,36195.313,2394.853Z" transform="translate(-36071.191 -2090.28)"/><path class="e" d="M35798.945,2169.243c-5.02,9.557-15.707,13.444-25.922,12.472-.648,0-.8.972-.156.972,11.02,1.782,20.891-3.887,27.359-12.8C35800.719,2169.243,35799.434,2168.433,35798.945,2169.243Z" transform="translate(-35747.238 -1902.087)"/><path class="e" d="M36249.031,2144.493c-10.7.487-19.609-6.479-21.062-17.007-.168-.648-.965-.648-.965,0a20.1,20.1,0,0,0,22.027,18.3C36249.836,2145.627,36249.836,2144.493,36249.031,2144.493Z" transform="translate(-36128.16 -1866.971)"/><path class="c" d="M36453.508,1898.685c1.445,1.619,3.883,2.267,6.141,2.429a27.452,27.452,0,0,0,12.648-2.106c1.281-.648,2.734-1.458,2.734-2.754,0-1.782-2.422-2.591-4.359-2.915-4.055-.81-10.367-2.105-14.586-1.134C36453.164,1893.016,36451.063,1896.094,36453.508,1898.685Z" transform="translate(-36317.078 -1669.917)"/><path class="f" d="M35965.727,1095c-.328,4.373,4.691,7.127,9.23,7.775,4.367.648,9.246.324,12.625,3.24,3.566,2.915,4.063,7.937,4.223,12.31.492,11.824.8,23.972-1.945,35.472-1.449,6.155-3.895,11.986-5.344,18.141-2.594,10.529-3.09,21.543-3.41,32.4-.156,7.775-.477,15.712.488,23.487.492,4.049,1.473,7.936,1.3,11.985,0,4.05-1.3,8.423-4.211,11.177-3.234,3.24-8.105,4.211-12.637,4.859a277.049,277.049,0,0,1-44.867,2.754,6.622,6.622,0,0,1-3.887-.972,4.513,4.513,0,0,1-1.941-2.592c-1.629-3.725-1.777-7.937-1.945-11.985-2.266-44.868-2.109-89.9-7.289-134.44-.168-2.268-.484-4.535.645-6.479,2.1-3.725,7.609-3.563,11.992-3.4a63.9,63.9,0,0,0,13.6-.81c2.6-.486,4.523-3.078,6.641-2.753,2.758.161,5.836,2.915,8.742,3.4A24.264,24.264,0,0,0,35965.727,1095Z" transform="translate(-35859.109 -1002.13)"/><path class="g" d="M35952.348,943.123a37.526,37.526,0,0,1,1.449,10.366,53.169,53.169,0,0,1-.641,8.747c-.492,3.563-2.1,7.775-5.664,8.422-3.254.648-6-1.781-8.273-4.211-2.25-2.268-4.855-4.859-8.078-4.535-.828-2.106,1.434-4.211,3.707-4.211,2.121.162,3.895,1.62,5.5,3.24,1.145,1.134,2.609,2.429,4.055,1.943,1.777-.486,2.109-2.754,2.27-4.7.164-3.887.336-7.937-.641-11.824-.328-1.458-.809-2.915-1.145-4.535a19.224,19.224,0,0,1,.176-7.451c.316-3.725,3.082-.972,4.047.648A45.727,45.727,0,0,1,35952.348,943.123Z" transform="translate(-35880.074 -865.964)"/><path class="c" d="M36047.535,645c-.809-17.007-11.812-35.634-29.48-39.36-15.387-3.239-24.445,11.338-26.234,25.268a67.427,67.427,0,0,0,0,14.092,2.4,2.4,0,0,0-2.1,0c-2.426,1.3-1.957,5.021-1.145,7.127.977,2.754,3.074,4.7,5.355,6.479l.809.324a69.639,69.639,0,0,0,6.313,13.606c4.055,6.8,10.527,13.282,18.465,13.606,7.121.324,13.6-4.535,17.992-10.043A47.214,47.214,0,0,0,36047.535,645Z" transform="translate(-35927.801 -591.649)"/><path class="g" d="M35980.441,599.86c-3.883,3.725-8.918,6.8-11.02,11.824-1.137,3.077-.969,6.641-2.422,9.557a2.976,2.976,0,0,1-3.082-3.077c-2.426.81-2.426,4.373-.973,6.641,1.3,2.106,3.578,3.888,3.891,6.479.316,2.268-.82,4.535-.656,6.8,0,2.106,1.309,3.888,2.273,5.669a49.831,49.831,0,0,1,6.8,30.289h-2.914a31.846,31.846,0,0,0-6.961-22.353c-2.27-2.753-5.191-5.345-6.816-8.585-1.445-2.915-1.773-6.317-1.941-9.556a63.773,63.773,0,0,1-.316-11.014c.652-5.669,3.078-11.177,3.078-16.846,0-3.239-.645-6.641-.645-9.88.16-4.859,1.945-9.395,3.891-13.768a18.55,18.55,0,0,1,3.387-6.317A13.967,13.967,0,0,1,35975.9,572c5.832,0,12.8,2.592,12.8,9.07A25.306,25.306,0,0,1,35980.441,599.86Z" transform="translate(-35901.199 -563.843)"/><path class="g" d="M36190.395,600.255c-.5-6.641.16-13.444,0-20.085-.152-5.183-.809-10.529-1.457-15.712A65.817,65.817,0,0,0,36187,554.9c-1.629-5.507-4.527-10.528-7.293-15.549-2.922-5.183-6-10.367-10.852-13.768-5.5-3.725-12.633-4.373-19.426-3.725a20.4,20.4,0,0,0-8.762,2.592c-6.793,4.373-2.91,10.69-1.934,16.846.965,6.8,2.9,12.958,8.574,17.493,5.508,4.373,12.8,5.993,18.469,10.366,5.836,4.535,5.023.81,4.215,15.874-.18,2.754-1.137,8.261-2.449,10.69-4.855,8.909,0,19.923-1.445,29.8a19.62,19.62,0,0,0-.629,2.754v.162c-.18,2.753.785,5.021,1.273,6.8,1.453,4.211,3.891,8.1,5.027,12.472a13.937,13.937,0,0,1-.488,8.909c1.945-2.268,5.5-3.077,6.809-5.831a12.845,12.845,0,0,0,.813-3.563c.8-5.184,4.207-10.043,5.5-15.226a8.7,8.7,0,0,0,.164-3.563h0C36181.977,619.692,36191.051,609.164,36190.395,600.255Z" transform="translate(-36052.531 -521.638)"/><path class="c" d="M35661.68,1240.216a15.724,15.724,0,0,0,10.7-5.993,87.79,87.79,0,0,0,4.7-12.31l.48-1.134a23.052,23.052,0,0,1,.328-2.754c3.734-17.979,13.762-33.528,22.191-49.888.973-1.782-1.785-5.993-1.949-8.1-.633-6.8-13.918-4.211-16.848-.648a17.514,17.514,0,0,0-2.582,4.859l-26.562,60.9c-.809,1.944-1.785,4.211-1.473,6.317.82,3.4,4.219,5.345,7.3,6.8C35659.25,1238.921,35660.387,1239.569,35661.68,1240.216Z" transform="translate(-35645.125 -1053.076)"/><path class="h" d="M35750.223,1265.521a97.849,97.849,0,0,1,4.688,11.339c2.93,9.233,4.379,18.951,5.508,28.507q4.875,36.2,9.719,72.4c.184,1.458.324,3.077-.8,3.887a3.381,3.381,0,0,1-2.105.486c-10.523.486-21.055.972-31.75,1.3-7.129.324-14.25.648-21.539-.162-1.293-.162-2.922-.485-3.723-1.457a5.481,5.481,0,0,1-.66-3.887c.98-8.423,5.688-15.712,9.4-23.163a124.121,124.121,0,0,0,7.133-16.521,44.9,44.9,0,0,0,2.906-12.8c.328-5.832-.965-11.5-1.617-17.17-.816-7.127-.816-14.578-2.121-21.7s-4.191-14.254-9.871-18.789a8.341,8.341,0,0,1-2.91-2.916c-.809-1.3-.645-3.078-.488-4.535.969-6.479,4.059-12.148,7.453-17.493,1.133-1.782,3.41-6.317,5.188-7.289,2.113-1.134,5.031,1.458,6.8,2.915C35740.332,1245.112,35745.848,1255.479,35750.223,1265.521Z" transform="translate(-35694.457 -1119.684)"/><path class="i" d="M35783.953,1433.562c-4.863.486-10.219.971-15.727,1.3.813-4.212,1.281-8.423,1.8-12.8q6.791.243,13.594,0C35783.773,1425.949,35783.953,1429.837,35783.953,1433.562Zm-33.051,1.3a149,149,0,0,0,5.656-13.93c3.559.324,7.117.81,10.688.972a86.85,86.85,0,0,1-1.609,13.12A89.224,89.224,0,0,1,35750.9,1434.858Zm9.551-29.642c2.441.162,4.863.486,7.281.648,0,4.535,0,9.232-.312,13.768-3.4,0-6.969-.162-10.371-.486A101.522,101.522,0,0,0,35760.453,1405.216Zm1.293-10.528c1.785.162,3.727.323,5.676.486.168,2.592.168,5.183.313,7.936h-6.949C35761.266,1400.357,35761.41,1397.442,35761.746,1394.688Zm4.539-42.6h7.605c1.473,6.317,2.746,12.8,3.906,19.275,1.293,6.965,2.254,13.93,3.223,20.895h-.648c-3.246.162-6.637.324-10.039.324-.309-8.909-.969-17.655-1.781-26.078A80.979,80.979,0,0,0,35766.285,1352.088Zm-6.168-16.2a33.281,33.281,0,0,0,7.785-2.43,103.478,103.478,0,0,1,5.344,16.2c-2.59,0-5.02.162-7.609.162A68.825,68.825,0,0,0,35760.117,1335.891Zm-10.027-14.254a30.161,30.161,0,0,0,7.285-6.317,77.745,77.745,0,0,1,9.234,15.064,26.99,26.99,0,0,1-7.785,3.077A66.467,66.467,0,0,0,35750.09,1321.637Zm20.566,81.312c-.176-2.592-.176-5.183-.176-7.613,3.254.162,6.645.162,9.891.162l.973-.162c.168,2.43.645,4.859.813,7.289C35778.266,1402.786,35774.371,1402.949,35770.656,1402.949Zm12.793,16.035c-4.359.324-8.9.648-13.27.648.3-4.536.3-9.071.477-13.606a96.123,96.123,0,0,0,11.813.323Q35783.207,1412.668,35783.449,1418.984Zm5.043-.324a16.116,16.116,0,0,1-2.777.162c-.324-4.212-.8-8.261-1.293-12.473h.168c2.418-.162,2.418-3.725,0-3.725h-.492c-1.461-11.662-3.223-23.486-5.488-35.149-.992-5.183-2.129-10.2-3.246-15.226,1.6,0,3.391.162,5.008.162,2.1.162,2.1-3.078,0-3.078-1.93.162-3.891.162-5.664.162a141.69,141.69,0,0,0-5.668-16.522,23.423,23.423,0,0,0,5.668-4.211c1.113-1.134-.492-3.563-1.953-2.43-1.773,1.3-3.391,2.43-5.164,3.564a81.749,81.749,0,0,0-9.727-15.226,13.664,13.664,0,0,0,1.617-2.592c.816-1.944-1.8-3.564-2.922-1.62-1.617,2.43-2.754,4.859-4.527,6.965a18.826,18.826,0,0,1-3.246,2.915c-.961-.809-1.617-1.781-2.59-2.591a.522.522,0,1,0-.656.81c.656.81,1.461,1.62,2.109,2.43-.793.486-1.609.972-2.422,1.458-.98.485-.156,1.943.813,1.457a27.327,27.327,0,0,0,2.914-1.62,85.755,85.755,0,0,1,7.941,11.5l-.66.162c-1.449.162-1.605,2.592,0,2.43.492,0,1.141-.162,1.785-.162a65.57,65.57,0,0,1,5.176,13.768c-2.1,0-4.039,0-5.988.162a1.053,1.053,0,1,0,0,2.106c2.105,0,4.2-.162,6.469-.162a120.768,120.768,0,0,1,2.609,20.571c.324,6.479.648,13.282.961,20.085-1.773,0-3.57,0-5.5-.162a5.864,5.864,0,0,0,.168-1.782,1.38,1.38,0,0,0-2.758,0c0,.648-.156,1.134-.156,1.782h-2.766a.749.749,0,0,0-.168,1.458,17.707,17.707,0,0,1,2.758.324c-.168,2.916-.469,5.831-.8,8.746-1.125-.161-2.1,0-3.078-.161-.969,0-.969,1.458,0,1.619a15.53,15.53,0,0,1,2.742.324,140.792,140.792,0,0,1-3.055,14.092c-2.117-.162-4.047-.324-6.012-.486-.793-.162-.969,1.134-.156,1.134,1.773.324,3.727.648,5.668.972a124.913,124.913,0,0,1-5.512,14.091,55.9,55.9,0,0,1-7.437-1.619c-1.309-.486-1.953,1.782-.48,2.106,2.105.648,4.527,1.134,6.949,1.62l-.793,1.458c-.66,1.3,1.281,2.429,1.93,1.133a17.97,17.97,0,0,1,1.125-2.268c11.355,1.458,23.648.324,34.512-.486.813.972,2.922.648,2.754-.972-.324-4.535-.8-9.233-1.125-13.768a12.485,12.485,0,0,0,2.441-.162C35790.422,1421.576,35790.422,1418.5,35788.492,1418.66Z" transform="translate(-35719.922 -1181.955)"/><path class="h" d="M36240.5,1135.06c-.969,4.536-3.086,8.585-4.539,13.12a65.355,65.355,0,0,0-2.594,15.874c-2.578,39.359,5.852,79.206,1.148,118.4,7.117,0,14.406-.162,21.7-.162,2.422,0,4.859,0,6.8-1.3,4.047-2.753,3.727-8.746,2.766-13.444-1.141-5.994-2.437-11.986-2.766-18.142-.812-13.12,2.1-26.24,4.7-39.2a462.025,462.025,0,0,0,7.773-66.9,34.606,34.606,0,0,0-.156-6.965c-1.125-5.345-5.023-9.88-9.7-12.958-4.719-3.078-9.9-4.7-15.234-6.317-1.953-.648-5.187-2.592-7.141-2.267-2.594.324-2.258,2.267-2.422,4.7C36240.656,1124.531,36240.5,1130.039,36240.5,1135.06Z" transform="translate(-36133.074 -1018.703)"/><path class="i" d="M36268.133,1201.778c-4.375-.324-8.578-.648-12.953-1.134.484-3.887.969-7.775,1.617-11.662a89.13,89.13,0,0,0,12.961,3.078C36269.1,1195.3,36268.609,1198.538,36268.133,1201.778Zm-2.273,18.951a79.629,79.629,0,0,1-12.148-1.943c.336-5.345.656-10.69,1.313-16.2,4.2.81,8.414,1.458,12.625,1.944C36267.008,1209.877,36266.344,1215.384,36265.859,1220.729Zm-1.3,17.817c-3.883-.648-7.766-1.134-11.812-1.944.164-5.021.477-10.2.8-15.549a62.4,62.4,0,0,0,12.148,2.591C36265.219,1228.666,36264.9,1233.525,36264.563,1238.546Zm-.469,6.155c-.164,3.888-.336,7.937-.492,11.824-3.727-.162-7.453-.324-11.187-.648-.156-4.049,0-8.1.172-12.31,0-1.62.164-3.24.164-4.859,3.891.648,7.789,1.458,11.656,2.268A29.947,29.947,0,0,1,36264.094,1244.7Zm-.492,32.719c-3.57-.486-7.281-.486-10.852-.648-.164-6.479-.336-12.8-.336-19.113,3.57.648,7.3,1.134,11.023,1.62C36263.289,1265.434,36263.289,1271.427,36263.6,1277.42Zm.156,5.184c.172,5.669.8,11.176,1.141,16.845-3.562.162-7.3.486-10.852.81-.492-6.965-.82-13.768-1.133-20.733,3.563.648,7.117,1.3,10.688,1.62Zm2.273,30.127c-3.891.162-7.617.162-11.352,0-.148-3.4-.469-6.8-.633-10.366,3.734,0,7.445,0,11.172.161C36265.555,1305.928,36265.859,1309.329,36266.031,1312.731Zm-5.352-140.757a128.239,128.239,0,0,0,12.953,5.183,126.221,126.221,0,0,0-3.234,12.472,61.734,61.734,0,0,1-13.273-2.43C36258.094,1182.017,36259.219,1177,36260.68,1171.974Zm19.609,17.979a60.8,60.8,0,0,1-7.773-.162,110.6,110.6,0,0,1,3.063-11.986c.648.162,1.156.486,1.789.648,1.773.486,2.586-2.267.813-2.754-.656-.162-1.141-.486-1.773-.648h0c.328-1.3-1.625-1.782-1.953-.648v.162a128.7,128.7,0,0,1-13.281-4.535l.32-1.134c.156-.81-1.133-1.133-1.461-.324l-.32.972-.8-.325c-.812-.324-1.461,1.3-.656,1.782l.969.324c-1.437,5.021-2.742,10.2-3.711,15.387a12.46,12.46,0,0,0-1.8-.648c-1.125-.324-1.453,1.134-.484,1.62.664.162,1.3.486,1.953.648-.648,4.05-1.289,8.1-1.953,12.148-.969,0-1.937-.162-2.9-.162a.751.751,0,0,0-.336,1.458c1.133.162,2.1.324,3.078.486-.484,5.345-1.125,10.69-1.461,16.035h-.484a1,1,0,1,0-.484,1.944l.813.324c-.484,6.479-.633,13.12-1.125,19.6-.18,5.183-.336,10.367-.336,15.55-.8-.162-1.781-.162-2.586-.324s-.992,1.3-.164,1.458c.969.162,1.773.324,2.75.486,0,6.479.156,13.12.336,19.6-.492.486-.492,1.782.148,2.106.344,7.127.648,14.254,1.133,21.38-.641,0-1.281.162-1.93.162a.972.972,0,1,0,0,1.944h1.93q.258,5.1.484,10.2h-.484a.893.893,0,1,0,0,1.782h.648a18.24,18.24,0,0,0,.156,2.915,1.222,1.222,0,0,0,2.43,0,14.631,14.631,0,0,0-.164-2.753c3.891,0,7.633.162,11.352.162a66.6,66.6,0,0,1,.156,7.937,1.217,1.217,0,0,0,2.422,0c0-2.754-.141-5.346-.32-7.937h3.414c1.781,0,1.625-2.754,0-2.592-1.141.162-2.437.162-3.57.324-.312-3.4-.641-6.641-.969-10.043h.813c1.938,0,1.938-3.239,0-3.077h-1.125c-.508-5.021-1.148-10.042-1.461-15.225a19.475,19.475,0,0,0-.172-3.078l1.125.162c1.945-.162,2.266-2.916.508-3.4-.664,0-1.148-.162-1.789-.162-.164-6.155-.164-12.149,0-18.142,2.266.162,4.531.486,6.641.648a1.621,1.621,0,0,0,0-3.24c-2.109-.162-4.211-.324-6.484-.324.172-2.916.336-5.669.484-8.585.156-2.268.328-4.535.484-6.641,3.57.648,6.961,1.458,10.547,2.106,1.922.324,2.9-2.916.789-3.24-3.719-.486-7.437-1.134-11.18-1.62.508-4.859.82-9.881,1.3-14.74a48.922,48.922,0,0,0,5.008.324c2.125.162,2.125-3.239,0-3.239a48.091,48.091,0,0,1-4.836-.162c.469-5.345,1.125-10.69,1.938-16.2,2.6.324,5.344.648,7.93.81,1.8,0,1.8-2.591,0-2.916-2.43-.162-5.031-.486-7.6-.648.477-3.24,1.133-6.479,1.781-9.718a36.723,36.723,0,0,0,8.422.486A1.377,1.377,0,0,0,36280.289,1189.953Z" transform="translate(-36144.68 -1063.392)"/><path class="j" d="M36076.746,1785.622c10.684,2.267,17.008.81,27.852.972,14.754.162,30.3-.648,45.039-1.458,2.1-.162,4.359-.324,6.145-1.458s3.09-3.563,2.43-5.669c-.645-1.782-2.43-2.754-4.047-3.563-4.2-1.944-8.578-4.05-12.793-6.155a25.53,25.53,0,0,1-4.059-2.268,39.919,39.919,0,0,0-3.238-2.429,11.632,11.632,0,0,0-5.34-.972c-9.871-.324-19.766.486-29.648,1.3-13.285.972-26.566,1.943-39.84,3.239a42.556,42.556,0,0,0-11.012,2.106,2.6,2.6,0,0,0-1.949,1.458c-.637,1.619,1.137,2.915,2.6,3.563,1.941.648,2.422,1.62,3.883,2.916s4.371,1.781,6.313,2.43C36063.461,1780.925,36072.039,1784.812,36076.746,1785.622Z" transform="translate(-35976.609 -1561.551)"/><path class="c" d="M35734.6,1613.417c6.324,1.619,12.793,3.239,18.953,4.859,4.383,1.134,9.559,2.105,13.125-.648,1.449-1.3,2.422-3.887.973-5.183a6.84,6.84,0,0,0-2.434-1.134c-1.3-.648-2.285-1.943-3.4-2.916-1.449-1.134-3.41-1.62-5.34-2.267a336.218,336.218,0,0,1-62.844-24.458c-5.352-2.754-10.707-5.669-16.7-5.669-3.883.162-11.656,2.916-11.98,7.775-.332,4.049,9.383,8.1,12.473,9.719,11.332,6.155,23.656,10.528,35.957,14.092C35720.348,1609.69,35727.477,1611.472,35734.6,1613.417Z" transform="translate(-35657.16 -1405.219)"/><path class="h" d="M35626.059,1409.6c-2.586,2.43-5.684,4.859-6.324,8.261a43.146,43.146,0,0,0-.316,4.535c-.5,4.049-3.4,7.937-2.441,11.824.98,4.535,6.332,6.317,10.539,8.261a43.787,43.787,0,0,1,12.3,7.775,39.245,39.245,0,0,0,5.516,4.7c3.559,2.268,7.77,2.916,12,3.4,12.949,1.944,25.9,4.211,38.859,6.965a6.508,6.508,0,0,0,1.781,0,2.624,2.624,0,0,0,1.145-1.943,143.421,143.421,0,0,0,4.043-16.36,2.632,2.632,0,0,0,.164-1.619c-.332-1.134-1.625-1.62-2.758-2.106-14.09-5.345-28.176-11.176-41.777-17.493-1.789-.81-3.574-1.62-4.379-3.4a7.309,7.309,0,0,1-.488-4.211c.488-5.346-3.891-3.888-3.555-9.395a7.944,7.944,0,0,0-.172-3.4,6.672,6.672,0,0,0-2.422-2.753c-3.891-2.916-10.047-10.043-13.941-5.183-1.773,2.106-2.754,4.7-3.875,7.127C35628.168,1407.984,35628.8,1407.012,35626.059,1409.6Z" transform="translate(-35616.781 -1254.211)"/><path class="i" d="M35689.773,1490.316l-.8-.162c.652-2.754,1.293-5.345,1.938-8.1,4.875,1.134,9.879,2.106,14.734,2.916-.789,2.267-1.617,4.7-2.25,7.126C35698.852,1491.288,35694.48,1490.8,35689.773,1490.316Zm-17.641-6.155-1.453-.81a84.709,84.709,0,0,0,9.223-4.86,85.879,85.879,0,0,0,9.723,3.24,81.475,81.475,0,0,0-2.434,8.26A36.864,36.864,0,0,1,35672.133,1484.161Zm-21.867-13.444c-1.293-3.725,0-7.126,3.074-9.88a17.415,17.415,0,0,0,3.09-2.754l.473-.81c1.953.648,3.879,1.3,6,1.944l-.324.486a7.724,7.724,0,0,0-1.141,3.888c0,2.429,1.3,4.211,2.914,5.831A45.274,45.274,0,0,1,35650.266,1470.717Zm66.406,25.43a48.776,48.776,0,0,0-10.379-3.564,63.743,63.743,0,0,1,1.965-7.288c2.43.324,4.844.647,7.109.809l.168-.486c-2.434-.486-4.7-.972-6.969-1.458a10.129,10.129,0,0,1,.656-2.268c.309-1.3-1.625-1.782-2.105-.648-.316.81-.656,1.62-.977,2.43-5.016-.971-9.875-1.944-14.887-3.4.465-1.3.641-2.429,1.109-3.725.164-.648-.8-.809-.949-.324-.5,1.3-.82,2.43-1.3,3.725-2.75-.972-5.359-1.781-8.109-2.916.988-.486,1.781-1.134,2.6-1.62a1.018,1.018,0,0,0-.984-1.781c-1.3.81-2.414,1.62-3.719,2.429q-1.219-.485-2.43-.972a39.553,39.553,0,0,1-7.781-4.859c1.781-.486,3.746-1.134,5.52-1.782,1.121-.647.645-2.754-.652-2.106-2.262.81-4.363,1.62-6.637,2.267-2.117-2.429-3.238-5.183-2.27-8.584,2.27.486,4.543.972,6.645,1.3,1.141.162,1.449-1.782.324-1.944-2.113-.324-4.23-.648-6.164-1.134a6.322,6.322,0,0,1,.809-1.458,24.662,24.662,0,0,0,4.051-13.444c.156-1.458-2.109-1.458-2.262,0-.168,5.993-2.926,9.557-5.508,14.254a47.234,47.234,0,0,1-5.992-1.62c1.457-2.754,2.1-5.831,3.4-8.423.652-.972-.98-1.944-1.469-.972a57.484,57.484,0,0,0-2.754,6.479,9.9,9.9,0,0,1-1.281,2.268c-1.625-.648-3.254-1.3-4.871-1.943-.652-.325-1.129.647-.652.971,1.641.648,3.254,1.3,4.863,1.944-1.609,1.781-3.406,3.078-5.02,5.183a9.07,9.07,0,0,0-1.121,9.233,6.765,6.765,0,0,0-1.793-.162c-.809-.162-.809,1.134,0,1.3s1.793.162,2.594.324l.172.162,1.125-.162a55.675,55.675,0,0,0,15.559-1.134,44.062,44.062,0,0,0,4.855,3.077,61.988,61.988,0,0,0,6.48,3.4,78.635,78.635,0,0,1-8.914,4.859c-4.523-1.944-10.2-3.4-12.633-7.451a.949.949,0,1,0-1.629.972c1.629,2.916,3.57,4.211,6.813,5.669,1.777.81,3.406,1.458,4.852,2.105l-1.445.647c-.82.325-.172,1.62.484,1.458.961-.486,1.945-.81,2.754-1.3a47.159,47.159,0,0,1,5.176,3.077,29.837,29.837,0,0,0,4.863,2.916,39.772,39.772,0,0,0,8.586,2.43,7.633,7.633,0,0,0-.332,2.106.926.926,0,0,0,1.785.486,10.089,10.089,0,0,1,.32-2.268c4.7.648,9.559.81,14.254,1.458-.152.81-.484,1.62-.637,2.268-.328,1.944,2.582,2.754,3.066.81.172-.81.492-1.619.641-2.429a41.86,41.86,0,0,1,9.723,3.077C35717,1499.225,35718.3,1496.957,35716.672,1496.147Z" transform="translate(-35641.477 -1293.133)"/><path class="k" d="M36283.488,1416.3c4.207.324,9.063,1.134,11.328,4.7a14.71,14.71,0,0,1,1.3,6.965c-.16,19.275,1.773,35.8-3.727,54.1a12.018,12.018,0,0,1-2.262,5.021c-1.961,1.781-4.7,2.268-7.285,2.43-20.742,2.429-46.672,4.859-67.391,2.429a14.49,14.49,0,0,1-6.973-1.943c-4.043-2.754-4.852-8.423-4.852-13.282a342.64,342.64,0,0,1,.641-38.713c.5-7.937-.148-18.141,8.59-21.219,9.4-3.4,22.688-1.781,32.551-1.781C36258.059,1414.844,36270.848,1415.33,36283.488,1416.3Z" transform="translate(-36108.359 -1269.979)"/><path class="l" d="M36494.141,1613.634c-2.266-.162-4.375-.162-6.477-.162a20.119,20.119,0,0,1,4.211-7.775,22.159,22.159,0,0,1,.961,3.078A26.053,26.053,0,0,1,36494.141,1613.634Zm2.906,1.134a55.51,55.51,0,0,0-2.594-8.909c-.633-1.3-1.273-4.211-2.75-4.859h-.969a11.487,11.487,0,0,0-3.727,5.345c-1.773,2.753-3.242,5.831-3.078,8.746a1.67,1.67,0,0,0,1.617,1.781l10.211-.485A1.373,1.373,0,0,0,36497.047,1614.768Z" transform="translate(-36343.453 -1426.17)"/><path class="m" d="M35885.672,3525.8c1.8.162,3.738.486,4.7,1.782a5.711,5.711,0,0,1,.809,2.916,102.688,102.688,0,0,1-.484,15.874,8.425,8.425,0,0,0,.172,4.049,7.62,7.62,0,0,0,3.383,3.4c6.164,3.726,7.949,2.916,15.238,3.888a13.226,13.226,0,0,1,4.855,1.62c3.078,2.105,3.41,6.479,3.57,10.2a6.752,6.752,0,0,1-.492,3.078c-1.129,2.267-4.363,2.43-6.8,2.267-8.422-.486-11.172.163-19.441-.486-7.277-.647-14.574-1.133-21.371-3.563a2.805,2.805,0,0,1-1.629-.972,3.522,3.522,0,0,1-.324-2.268c.492-10.529,1.137-21.057,1.629-31.586.16-2.591-.664-9.07,2.109-10.689C35874.5,3523.536,35882.277,3525.641,35885.672,3525.8Z" transform="translate(-35827.16 -3038.199)"/><path class="n" d="M35867.945,3512.1a1.6,1.6,0,0,1,.484-2.107,2.216,2.216,0,0,1,2.27-.162c.816.162,1.473.648,2.113.809,3.4.972,6.961-1.781,10.2-.486.8.325,1.621.972,2.582.81a4.648,4.648,0,0,0,1.617-.485,4.631,4.631,0,0,1,3.574.972c.969.648,2.109,1.3,1.934,2.429,0,1.134-1.605,1.782-3.07,1.62-1.3,0-2.582-.647-4.055-.647-1.781-.161-3.4.485-5,.324a18.876,18.876,0,0,1-3.258-.648C35874.266,3513.721,35869.563,3515.015,35867.945,3512.1Z" transform="translate(-35827.09 -3025.628)"/><path class="m" d="M36276.977,3498.746a3.219,3.219,0,0,1,2.121.972c.629.809.473,2.106.156,3.238a101.73,101.73,0,0,0-1.949,15.551,8.694,8.694,0,0,0,.809,5.344c1.457,2.754,4.863,3.4,7.766,4.213,2.762.647,5.363,1.458,8.109,2.268a10.585,10.585,0,0,1,4.2,2.269c2.441,2.429,2.266,6.477,1.789,10.041,0,.972-.16,2.106-1.137,2.43l-1.449.162a206.657,206.657,0,0,1-31.426-4.374c-3.4-.81-6.809-1.456-9.57-3.4a2.6,2.6,0,0,1-1.445-1.459,4.772,4.772,0,0,1-.172-2.1c.492-3.725,1.137-7.614,1.965-11.338,1.449-7.127,3.719-14.091,4.684-21.382.473-3.886-.492-6.64,4.055-5.507C36269.371,3496.64,36273.258,3497.774,36276.977,3498.746Z" transform="translate(-36151.414 -3013.732)"/><path class="n" d="M36289,3480.458a3.052,3.052,0,0,1,2.582-1.458c1.789,0,3.406,1.458,5.352,1.458a7.5,7.5,0,0,0,2.734-.811,4.666,4.666,0,0,1,2.945-.162c.965.486,1.281,1.62,2.258,1.943a7.672,7.672,0,0,0,1.934,0c.977.163,1.781,1.135,1.461,1.944a2.619,2.619,0,0,1,2.426.486,1.54,1.54,0,0,1,.5,1.944c-.5,1.134-2.27,1.62-3.559,1.458a10.542,10.542,0,0,1-3.906-1.62,3.588,3.588,0,0,0-1.762-.486c-.656.161-1.152.648-1.785.81-1.133.324-2.262-.648-3.242-1.3C36294.668,3483.535,36287.535,3484.184,36289,3480.458Z" transform="translate(-36179.949 -2999.98)"/></g></svg>