<svg xmlns="http://www.w3.org/2000/svg" xmlns:xlink="http://www.w3.org/1999/xlink" width="267.433" height="655.197" viewBox="0 0 267.433 655.197"><defs><style>.a{fill:#d4c19c;}.b{fill-rule:evenodd;fill:url(#a);}.c{fill:#e4e8e4;}.d{fill:#516277;}.e{fill:#d1ac9d;}.f{fill:#3d322b;}.g{fill:#ebefeb;}.h{fill:#333;}.i{fill:#fff;}.j{fill:#736357;}</style><linearGradient id="a" x1="0.265" y1="-2.339" x2="0.736" y2="3.334" gradientUnits="objectBoundingBox"><stop offset="0" stop-color="#ccc"/><stop offset="1" stop-color="#ccc"/></linearGradient></defs><ellipse class="a" cx="110.889" cy="14.017" rx="110.889" ry="14.017" transform="translate(4.434 627.163)"/><path class="b" d="M279.725,3734.632h-2.732v-.194h-3.122l-.2-.2h-3.122l-.2-.2h0l.2.2h3.122l.2.2h3.122v.194h2.732Zm0,0Zm1.171,0c45.656-1.366,72.581-1.366,106.531-2.34C353.477,3733.266,326.551,3733.266,280.9,3734.632Zm-10.926-.586H264.9l-.976-.194h-6.244l-.976-.195h-8.975l-1.171-.195h-12.1l-.976-.2H219.24l-.976-.195H208.119l-.976-.2h0l.976.2h10.146l.976.195h14.243l.976.2h12.1l1.171.195H256.7l.976.195h6.244l.976.194h5.073Zm-66.923-1.17c-11.121-.195-22.243-.584-33.364-1.365C180.8,3732.292,191.924,3732.681,203.046,3732.876Zm-33.364-1.365h-1.951l-.39-.195H164.8l-.2-.2h-2.341l-.2-.195h-2.341l-.2-.2H157.78l-.585-.2h-1.951v-.195h0v.195h1.951l.585.2h1.756l.2.2h2.341l.2.195h2.341l.2.2h2.536l.39.195h1.951Zm-16.194-1.171a16.9,16.9,0,0,1-4.488-1.17A16.9,16.9,0,0,0,153.488,3730.34Zm56.972-17.95c-3.317,0-6.829-.194-10.341-.194,3.512,0,7.024.194,10.341.194Zm-10.341-.194h-1.561l-.2-.2h0l.2.2h1.561Zm-10.341-.2Zm22.438.39h5.658l.2-.194h14.048l.585-.2h0l-.585.2H218.069l-.2.194h-5.658Zm47.022-.39h0Zm1.951,0h0Z" transform="translate(-119.993 -3082.417)"/><path class="c" d="M749.934,1111.669c4.683.39,8.975,3.317,12.682,6.634a80.624,80.624,0,0,1,14.048,17.365c3.9,6.049,7.219,12.292,10.536,18.731,4.292,8.39,8.585,16.974,12.682,25.365a121.374,121.374,0,0,1,7.414,16.194c2.146,6.048,3.512,12.682,1.561,18.731-1.951,6.244-8,11.317-14.243,9.951-5.463-1.17-8.78-6.439-11.511-11.317-12.682-21.657-25.169-43.12-37.851-64.777a72.778,72.778,0,0,1-6.244-12.292C735.691,1126.693,735.105,1110.3,749.934,1111.669Z" transform="translate(-593.323 -989.377)"/><path class="d" d="M274.634,2173.527c2.146-43.705-2.536-88.19-2.146-132.091a94.177,94.177,0,0,1,7.024-45.071,6.886,6.886,0,0,1,1.561-2.536c2.146-2.146,6.244-.975,9.17.2,29.462,10.731,64.192,8.195,91.117-7.024,5.268,7.219,6.829,16,8,24.389,2.146,13.853,4.487,27.511,5.073,41.364h0c.2,2.927.2,5.853.2,8.78-.39,17.365-4.1,34.144-7.024,51.119-1.951,11.122-3.707,22.242-3.9,33.364,0,9.17,1.366,17.56-.976,26.535-5.658,22.048-5.658,46.047-8,68.68-2.536,24.194-5.073,48.388-7.219,72.581a12,12,0,0,0-.2,2.731c-1.561.391-22.438,4.683-22.438-.195-1.756-46.827-3.317-93.849-5.073-140.871-.585-19.707.976-86.434-4.683-105.36l-7.024.585c-12.877,62.24-22.438,171.7-35.315,233.743-1.171,5.463-2.536,11.511-6.634,15.023-3.9,3.512-16.975,1.951-18.145-3.512C271.707,2268.351,272.1,2220.939,274.634,2173.527Z" transform="translate(-215.774 -1693.985)"/><path class="e" d="M444,595.388C444,577.438,459.609,563,478.925,563s34.925,14.438,34.925,32.388a31.827,31.827,0,0,1-1.171,8.78v2.146c0,6.439-.2,13.073-1.561,19.316-2.341,12.487-8.78,24-21.072,31.218-4.1,2.341-8.585,4.1-13.463,4.1-6.634-.195-12.487-3.512-17.17-7.609-14.829-13.853-16.194-34.34-15.024-53.851A29.1,29.1,0,0,1,444,595.388Z" transform="translate(-357.435 -547.824)"/><path class="f" d="M643.6,3676.913a124.537,124.537,0,0,1,26.925,1.171,109.362,109.362,0,0,0,22.438,11.122c2.341.78,4.683,1.561,6.439,3.121,1.561,1.756,2.341,4.292.78,6.049-1.366,1.561-3.9,1.756-6.048,1.756a303.746,303.746,0,0,1-49.753-3.9,3.65,3.65,0,0,1-2.732-.976,3.167,3.167,0,0,1-.975-1.756A18.756,18.756,0,0,1,643.6,3676.913Z" transform="translate(-515.084 -3053.964)"/><path class="f" d="M240.471,3653a126.268,126.268,0,0,1,25.755,5.658c5.268,5.073,8.975,8.976,15.414,12.682a12.691,12.691,0,0,1,5.073,3.9c1.171,1.562,1.366,4.1-.39,5.268-1.561,1.172-3.707.976-5.658.585a244.872,244.872,0,0,1-43.12-10.926c-.78-.391-1.756-.585-2.146-1.365a2.149,2.149,0,0,1-.585-1.756A17.6,17.6,0,0,1,240.471,3653Z" transform="translate(-189.026 -3034.929)"/><path class="g" d="M253.854,1285.684c0-25.95.2-52.095.2-78.044.2-22.048,5.658-45.266,9.17-66.923,2.146-11.9,4.488-16.194,10.341-26.73.976-1.561.976-2.536,8.975-4.878,1.756-.39,5.853-2.536,8-2.341,10.341,1.756,20.682-1.951,31.023-.39,11.121,1.756,29.462-3.317,37.852,3.512,11.512,9.17,12.487,30.828,14.243,45.071,2.536,19.316,8.39,38.632,9.365,57.948.976,16.975,1.366,33.949,1.756,50.924.2,8.78,3.707,39.607-5.073,45.461-5.073,3.512-18.926,4.877-32.974,5.268h-1.951c-5.658.2-11.512.2-16.78,0-7.609,0-14.048-.39-17.755-.781-16.389-1.17-32.779-4.292-48.778-7.609-2.927-.585-6.048-1.365-7.609-3.9C252.683,1300.708,253.854,1287.83,253.854,1285.684Z" transform="translate(-203.969 -984.865)"/><path class="c" d="M621.259,1100.553c-.585-.585-1.17-1.561-.78-2.341.195-.585.975-.781,1.561-1.171,2.927-1.171,6.048-2.341,8.975-3.317,1.171-.2,2.146-.585,3.122,0l1.171.976c1.951,2.536,3.707,5.073,5.658,7.609l.585,1.171-.976,1.561c-1.951,1.951-3.9,3.9-5.658,6.048-1.366,1.561-2.732,5.268-5.268,3.707-1.951-1.365-2.732-5.073-3.707-7.024A75.365,75.365,0,0,0,621.259,1100.553Z" transform="translate(-499.379 -974.749)"/><path class="c" d="M497.107,1106.341a20.581,20.581,0,0,1-1.171,4.683l-.39.585-1.756-.976a76.368,76.368,0,0,0-12.1-13.072,10.8,10.8,0,0,1-2.341-2.732,2.392,2.392,0,0,1,.39-3.122c.39-.585,1.366-.781,2.146-.976,1.756-.585,3.317-.975,5.073-1.561a9.664,9.664,0,0,1,3.317-.39,11.292,11.292,0,0,1,2.732.976c2.146,1.366,8,3.9,8.195,6.244,0,1.366-1.756,3.512-2.341,4.878A25.536,25.536,0,0,0,497.107,1106.341Z" transform="translate(-385.568 -970.976)"/><path class="h" d="M598.4,1161.125l.2-.781-.585-.39a12.457,12.457,0,0,0-8.78-1.756l-.976.2-.78.975a8.313,8.313,0,0,0,0,4.878,26.118,26.118,0,0,0,2.536,4.488l.585.39h.585C595.28,1168.93,597.622,1164.052,598.4,1161.125Z" transform="translate(-472.62 -1026.736)"/><path class="i" d="M289.39,1875.39,289,1875Z" transform="translate(-232.677 -1603.838)"/><path class="h" d="M592.7,1233.077c4.292,6.633,5.658,14.828,6.243,22.828.39,8,0,16,1.366,24a52.107,52.107,0,0,0,5.853,16.78c4.683,8.975,11.9,16.779,15.024,26.535a5.511,5.511,0,0,1,.39,3.512,5.128,5.128,0,0,1-1.756,2.732,90.007,90.007,0,0,0-12.877,18.926c-6.439-3.122-12.877-6.439-19.316-9.755a6.353,6.353,0,0,1-3.317-2.537c-.39-1.17,0-2.536.2-3.9,5.658-22.438,0-46.241.39-69.459a156.545,156.545,0,0,1,1.561-21.462c.2-2.536-.2-8.78,1.171-10.731C589.579,1228.2,591.53,1231.321,592.7,1233.077Z" transform="translate(-470.235 -1084.445)"/><path class="c" d="M650.875,1273.6a8.5,8.5,0,0,1,4.292-3.122c2.341-.585,4.683.976,6.634,2.537,20.487,15.414,41.364,30.047,62.826,44.095,4.1,2.732,8.39,5.463,11.121,9.756,4.487,6.829,3.707,16.389-.975,23.218a20.1,20.1,0,0,1-11.317,8.39c-6.243,1.366-12.682-.975-17.56-4.877-5.073-3.9-8.78-8.975-12.682-14.048A470.955,470.955,0,0,0,662,1302.284c-4.292-4.488-8.78-8.975-12.487-14.048C644.827,1281.993,645.8,1279.261,650.875,1273.6Z" transform="translate(-520.41 -1117.166)"/><path class="c" d="M65.822,1148.571c-6.634,2.341-11.121,8.39-15.219,14.243-14.438,20.682-29.072,41.559-43.51,62.241-4.683,6.634-9.365,15.414-5.073,22.438,1.756,2.927,5.073,4.878,8.39,6.049a34.67,34.67,0,0,0,22.633.78c6.439-1.756,12.1-5.268,17.755-8.585a413.8,413.8,0,0,1,41.168-21.657c4.1-1.756,8.195-3.707,10.926-7.219s3.122-9.17-.2-11.9c-4.292-3.512-10.536-.586-15.414,2.146-11.316,6.244-23.608,9.95-36.1,13.853-1.171.39-2.732.585-3.512-.39-.976-1.171,0-2.731.976-4.1,9.56-11.511,18.926-23.218,28.486-34.925,2.927-3.707,6.048-7.414,7.609-11.9C88.845,1158.716,78.309,1144.083,65.822,1148.571Z" transform="translate(-0.329 -1018.474)"/><path class="e" d="M532.542,1363.489c-.586-.975-1.366-2.341-.976-3.512l.585-.975c2.146-2.536,4.292-4.878,6.634-7.414a34.774,34.774,0,0,1,2.731-2.537,5.049,5.049,0,0,1,3.707-.585l1.171.2c.78,0,1.366-.781,2.146-1.17a5.3,5.3,0,0,1,3.9-.781,8.814,8.814,0,0,1,3.317,2.146,9.3,9.3,0,0,1,3.512,6.243c.39,3.317-1.366,6.439-3.9,8.585s-5.658,3.512-8.585,4.877c-2.536,1.171-6.634,3.512-9.365,2.342-1.171-.39-1.561-1.365-1.951-2.342A42.977,42.977,0,0,0,532.542,1363.489Z" transform="translate(-427.832 -1178.566)"/><path class="h" d="M482,1292.356A151.739,151.739,0,0,1,473.8,1310.5c-2.146,4.292-4.488,8.585-5.853,13.073a53.539,53.539,0,0,0-1.756,12.487c-.2,5.853-.2,11.9-.2,17.951.2,4.292.2,8.389.39,12.682,0,2.537.2,5.073,1.561,7.219,1.561,1.951,4.683,2.927,6.439,1.366,1.951-1.951,1.171-4.878.585-7.609-1.366-6.439,0-13.268.39-20.1.2-5.268-.195-10.341,0-15.609a71.039,71.039,0,0,1,9.365-30.633c1.951-3.512,4.1-6.829,6.048-10.536,5.658-11.317,6.829-24.389,7.219-37.267.2-2.537.2-5.463-1.171-7.8-1.951-3.317-6.829-4.1-6.829.39-.2,5.268.39,10.341-.2,15.609A110.539,110.539,0,0,1,482,1292.356Z" transform="translate(-375.142 -1095.141)"/><path class="e" d="M556.292,1184.025a5.69,5.69,0,0,1-3.122.2c-1.561-.39-2.732-1.951-3.707-3.122-3.122-4.1-6.439-8.195-9.56-12.1a14.134,14.134,0,0,1-2.146-3.707,7.511,7.511,0,0,1,1.756-8.195,7.84,7.84,0,0,1,8.39-1.171,11.2,11.2,0,0,1,4.292,3.707,4.443,4.443,0,0,0,1.561,1.756,2.565,2.565,0,0,0,2.341.585l1.366-.781a2.956,2.956,0,0,1,2.146,1.366,49.763,49.763,0,0,1,6.829,11.707c1.366,3.317-1.171,3.512-2.927,5.268C561.365,1181.684,559.219,1183.44,556.292,1184.025Z" transform="translate(-432.461 -1024.467)"/><path class="j" d="M423.757,531.416c-.585-2.536-2.732-4.488-3.512-7.219-.585-2.536.2-5.268.2-7.8a14.415,14.415,0,0,0-1.756-6.439,20.075,20.075,0,0,0-6.829-8.195c-2.732-1.951-6.439-2.927-9.561-1.951l-.39.2a9.453,9.453,0,0,0-1.366-5.073c-2.536-4.1-8-4.683-12.682-3.9-1.951.39-4.1.78-5.853,0a16.153,16.153,0,0,1-2.927-2.146A18.183,18.183,0,0,0,358,488.3c-2.146,1.366-3.9,3.122-6.048,4.1-3.512,1.561-7.609.976-10.926,2.927-3.707,2.146-5.268,6.829-6.243,11.121-.976,4.488-1.561,9.17-4.1,12.682-2.536,3.707-7.024,5.853-8.585,10.146-2.146,5.463.976,11.317,4.683,15.609,1.756,1.951,3.9,4.1,4.488,6.829.2,1.171.2,2.536.39,3.707.585,2.146,2.536,3.512,3.122,5.658,2.927,12.877,10.536,11.121,22.633,26.145a14.306,14.306,0,0,1-2.341-6.244c-.39-4.488-.585-6.634.2-11.316.2-1.756.781-3.707,0-5.268-.976-1.951-2.927-5.268-3.512-7.414a3.39,3.39,0,0,1,2.536-4.293c1.951-.2,3.512,1.756,3.512,3.707-.195-4.683-.39-9.56,1.756-13.658,2.536-5.073,8-7.609,13.268-8.585,5.073-.976,10.536-.976,15.609-2.732a20.356,20.356,0,0,0,6.244-3.707,15.594,15.594,0,0,0,2.536,2.536c2.146,1.366,4.683,2.537,6.634,4.488,2.732,2.732,5.658,5.073,6.048,9.365.585,4.1,3.122,7.8,3.707,11.9,1.366-4.683.976-6.049,4.1-9.756,1.951-2.146,1.561-4.683,3.512-6.829C422.977,537.27,424.538,534.343,423.757,531.416Z" transform="translate(-258.757 -485.217)"/></svg>