<svg xmlns="http://www.w3.org/2000/svg" xmlns:xlink="http://www.w3.org/1999/xlink" width="413.318" height="337.972" viewBox="0 0 413.318 337.972"><defs><style>.a{fill:#d4c19c;}.b,.c{fill-rule:evenodd;}.b{fill:url(#a);}.c{fill:url(#b);}.d{fill:#4d4d4d;}.e{fill:#d3e4ea;}.f{fill:#454545;}.g{fill:#b4c7ba;}.h{fill:#f2f2f2;}.i{fill:#736357;}.j{fill:#aa4a4d;}.k{fill:#662e2a;}.l{fill:#ffc3b1;}.m{fill:#ebefeb;}.n{fill:#b3b3b3;}.o{fill:#d9924e;}.p{fill:#cf8b4a;}.q{fill:#333;}</style><linearGradient id="a" y1="0.502" x2="1" y2="0.502" gradientUnits="objectBoundingBox"><stop offset="0" stop-color="#ccc"/><stop offset="1" stop-color="#ccc"/></linearGradient><linearGradient id="b" x1="0" y1="0.5" x2="1" y2="0.5" xlink:href="#a"/></defs><g transform="translate(5.583 -2.101)"><path class="a" d="M100.049,251.348c40.295-8.868,103.228-22.253,115.492-31.642s-70.453-27.366-76.182-27.366c-5.168,0-90.423,15.439-122.819,17.8C-5.388,211.738,59.754,260.216,100.049,251.348Z" transform="translate(17.896 57.438)"/><ellipse class="a" cx="83.191" cy="14.946" rx="83.191" ry="14.946" transform="translate(217.235 302.279)"/><path class="b" d="M7639,7724.26h9.437l1.163-.115h6.99l1.165-.117h3.609l1.167-.116h3.493l1.165-.116h3.494l1.166-.118h1.165l1.164-.115h2.33l1.165-.117h2.447l1.163-.115h1.165l1.165-.117h1.165l1.164-.117h1.165l1.165-.116h1.164l1.164-.117h1.167l1.165-.115h1.165l1.163-.117h0l1.165-.117h1.165l1.164-.115h1.168l1.162-.118h0l1.166-.115h1.281l1.165-.116h0l1.163-.117h1.165l1.165-.115h0l1.164-.116h1.168l1.163-.118h0l1.165-.115h0l1.165-.116-1.165.116h0l-1.165.115h0l-1.163.118h-1.168l-1.164.116h0l-1.165.115h-1.165l-1.163.117h0l-1.165.116h-1.281l-1.166.115h0l-1.162.118h-1.168l-1.164.115h-1.165l-1.165.117h0l-1.163.117h-1.165l-1.165.115H7690.6l-1.164.117h-1.164l-1.165.116h-1.165l-1.164.117h-1.165l-1.165.117h-1.165l-1.163.115h-2.447l-1.165.117h-2.33l-1.164.115h-1.165l-1.166.118h-3.494l-1.165.116h-3.493l-1.167.116h-3.609l-1.165.117h-6.99l-1.163.115H7639Zm75.017-2.911Zm0,0h1.164l.117-.115h1.513v-.118h1.515l.117-.115h0l-.117.115h-1.515v.118H7715.3l-.117.115h-1.164Z" transform="translate(-7518.28 -7452.331)"/><path class="c" d="M8483.592,8099.868c-1.4,0-2.793,0-4.193-.117h-1.748l-.117-.116h-1.863l-.232-.116h-1.627l-.119-.116h-1.281l-.35-.116h-1.049l-.58-.117h-.119l-.932-.115h-1.047l-.932-.118h-.354l-.348-.116h-.7l-.35-.117h-.93l-.35-.116h-.7l-.35-.115h-.7l-.582-.117.582.117h.7l.35.115h.7l.35.116h.93l.35.117h.7l.348.116h.354l.932.118h1.047l.932.115h.119l.58.117h1.049l.35.116h1.281l.119.116h1.627l.232.116h1.863l.117.116h1.748c1.281.117,2.68.117,3.963.117h.463a74.591,74.591,0,0,0,13.512-1.166h0l.35-.116h.234l.7-.115.23-.117h.352l.23-.116h.354v-.117h.348l.232-.117h.35l.232-.115h0l.352-.117h0l.58-.116h0l.352-.117h0l.23-.116h.35l.236-.115h0l.348-.117-.348.117h0l-.236.115h-.35l-.23.116h0l-.352.117h0l-.58.116h0l-.352.117h0l-.232.115h-.35l-.232.117h-.348v.117h-.354l-.23.116h-.352l-.23.117-.7.115h-.234l-.35.116h0A78.113,78.113,0,0,1,8483.592,8099.868Zm-21.549-1.515Zm0,0-1.166-.116h0l-1.164-.117h0l-1.166-.117h0l-1.049-.115h-1.164l-1.166-.117h0l-1.164-.116h0l-1.162-.117h0l-1.166-.116h0l-1.166-.115h0l-1.047-.117h-.117l-1.049-.116h0l-1.164-.118h-1.166l-1.164-.116h0l-1.164-.115h0l-1.166-.117h0l-1.162-.116h-1.051l-1.162-.116h0l-1.166-.117h0l-1.166-.115H8435.6l-1.164-.116h0l-1.164-.118h-1.166l-1.047-.116h0l-1.166-.117h-1.164l-1.166-.115h0l-1.162-.116h-1.166l-1.166-.117H8422.9l-1.049-.116h-1.164l-1.166-.115h-1.164l-1.164-.117h-1.166l-1.164-.117H8413.7l-1.049-.117h-2.328l-1.164-.115h-2.332l-1.164-.116h-3.379l-1.164-.117H8395.3l-1.164-.116h0l1.164.116h5.824l1.164.117h3.379l1.164.116h2.332l1.164.115h2.328l1.049.117h1.166l1.164.117h1.166l1.164.117h1.164l1.166.115h1.164l1.049.116h1.164l1.166.117h1.166l1.162.116h0l1.166.115h1.164l1.166.117h0l1.047.116h1.166l1.164.118h0l1.164.116h1.166l1.166.115h0l1.166.117h0l1.162.116h1.051l1.162.116h0l1.166.117h0l1.164.115h0l1.164.116h1.166l1.164.118h0l1.049.116h.117l1.047.117h0l1.166.115h0l1.166.116h0l1.162.117h0l1.164.116h0l1.166.117h1.164l1.049.115h0l1.166.117h0l1.164.117h0Zm-73.617-4.077Zm-74.2,3.378q-6.29,0-12.584-.349c-3.609-.352-8.035-1.516-8.967-5.825-1.164-5.242,3.729-9.2,7.924-10.949,3.025-1.4,6.172-2.561,9.318-3.728l.813-.233h0c.467-.232,1.047-.349,1.514-.583h0l.816-.232h0l.816-.232h0l.7-.232h0l.816-.233h0c.582-.231,1.049-.35,1.631-.581h0l.814-.233h0l.7-.117h0l.814-.231h0l.816-.234h0l.816-.233h0l.813-.232h0l.816-.232h0l.816-.118h0l.7-.232h0l.816-.232h0l.814-.117h0l.818-.231h0l.813-.119h0l.816-.232h0l.816-.115h0l.816-.118h0l.814-.231h0l.816-.117h0l.813-.115h0l.814-.119h0l.816-.231h0l.7-.117h0l.816-.116h0l.816-.116h0l.813-.115h0l.816-.116h0l.816-.116h.816l.814-.116h0l.816-.117h0l.813-.117h.816l.816-.114h0l.814-.119h.816l.813-.115h.818l.814-.117h1.631l.814-.116h0l-.814.116h-1.631l-.814.117h-.818l-.812.115h-.816l-.814.119h0l-.816.114h-.816l-.812.117h0l-.816.117h0l-.814.116h-.816l-.816.116h0l-.816.116h0l-.812.115h0l-.816.116h0l-.816.116h0l-.7.117h0l-.816.231h0l-.814.119h0l-.812.115h0l-.816.117h0l-.814.231h0l-.816.118h0l-.816.115h0l-.816.232h0l-.812.119h0l-.818.231h0l-.814.117h0l-.816.232h0l-.7.232h0l-.816.118h0l-.816.232h0l-.812.232h0l-.816.233h0l-.816.234h0l-.814.231h0l-.7.117h0l-.814.233h0c-.582.231-1.049.35-1.631.581h0l-.816.233h0l-.7.232h0l-.816.232h0l-.816.232h0l-1.514.583h0l-.812.233c-3.146,1.167-6.293,2.33-9.318,3.728-4.2,1.749-9.088,5.707-7.924,10.949.932,4.31,5.357,5.474,8.967,5.708,4.2.349,8.391.466,12.584.466,10.482,0,20.85-.816,31.215-1.514h0l1.166-.116h0l1.166-.118h.582l.584-.116h.7l.58-.117h1.164l.582-.115-.582.115h-1.164l-.58.117h-.7l-.584.116h-.582l-1.166.118h0l-1.166.116h0C8335.076,8096.837,8324.592,8097.654,8314.227,8097.654ZM8351.732,8069Zm0,0h0Z" transform="translate(-8095.66 -7759.794)"/><path class="d" d="M8623.748,7712.834c-1.748,2.1-2.33,4.894-4.309,6.874-2.8,2.913-8.273,3.843-10.717,6.988-1.98,2.68-1.166,6.405,1.629,8.735,2.8,2.216,6.99,2.912,10.832,2.331,1.867-.232,3.611-.815,5.359-.932,8.854-.7,16.424,8.038,25.043,6.174a11.128,11.128,0,0,0,8.156-7.339c1.162-3.261.932-6.873.932-10.251.115-4.31.35-8.97-2.33-12.7-2.562-3.378-7.223-5.474-12.115-6.057a35.207,35.207,0,0,0-14.328,1.748C8628.758,7709.341,8625.729,7710.621,8623.748,7712.834Z" transform="translate(-8374.082 -7439.508)"/><path class="d" d="M8620.476,7828.144c5.01,3.146,11.3,3.379,17.241,2.913,5.823-.466,11.88-1.63,17.706-.466,6.171,1.164,11.881,4.776,14.908,10.25a17.45,17.45,0,0,1-.116,17.823c-2.68,4.309-7.222,6.988-12,8.5-2.213.7-4.426,1.165-6.64.465a17.067,17.067,0,0,1-3.261-1.63c-3.961-1.98-8.621-1.98-13.047-1.4-4.31.583-8.619,1.747-13.045,2.1-6.407.468-12.932-.814-19.22.7-3.729.934-7.106,2.8-10.835,3.5-5.241.932-10.715-.583-15.957-1.4-6.407-.931-7.572-1.863-13.978-.931-1.981.349-4.777.116-5.01-1.865-1.513.233-3.609.118-3.726-1.4a2.92,2.92,0,0,1,.7-1.631,15.968,15.968,0,0,1,10.832-5.825c2.8-.232,5.823.816,8.5,0,1.514-.349,2.912.116,4.426-.232,3.378-.7,1.4,0,4.894,0,.7,0,1.631-.234,1.862-1.051.467-1.162-1.165-1.861-2.329-2.21-1.282-.352-3.612-1.166-2.564-1.865-4.658,2.329-3.493,2.214-8.735,2.913-2.8.348-6.289-1.048-8.852.117-1.516.813-2.913,1.861-4.544,1.979a6.338,6.338,0,0,1-3.261-.7c-1.747-.581-2.68.352-4.428-.233a4.615,4.615,0,0,1-2.329-1.279,1.791,1.791,0,0,1-.232-2.33,2.979,2.979,0,0,1,1.514-.7c6.059-1.28,12-2.445,17.938-3.727,4.659-.932,4.427-1.4,6.874-5.358,1.748-2.912,1.748-6.874,4.192-9.436,1.862-1.98,5.126-2.8,5.824-5.474.234-.933.117-1.865.35-2.8.7-3.378,4.892-4.427,8.387-4.543,5.125-.116,10.365.816,15.491.7C8613.488,7821.389,8616.166,7825.348,8620.476,7828.144Z" transform="translate(-8320.605 -7540.605)"/><path class="d" d="M9383.682,8009.232c1.048,1.4,1.63,3.262,3.146,4.077,1.165.7,2.681.466,4.078.466,6.639-.351,12.932,2.328,18.986,5.009a12.617,12.617,0,0,1,5.009,2.912c1.4,1.515,2.1,3.727,1.164,5.475-1.283,2.563-5.242,2.563-7.921,1.164-2.679-1.281-5.008-3.494-7.921-3.96-2.8-.466-5.592.7-7.92,2.329s-4.193,3.728-6.408,5.476a40.125,40.125,0,0,1-10.6,5.591c-3.26,1.049-6.871,1.98-9.9.582a12.288,12.288,0,0,1-4.073-3.262c-3.381-3.843-5.942-9.317-4.078-14.094,1.165-2.8,3.61-4.66,5.825-6.642,2.211-1.745,3.262-4.191,5.123-5.937C9371.686,8005.039,9380.654,8005.388,9383.682,8009.232Z" transform="translate(-9035.821 -7704.222)"/><path class="d" d="M9513.717,7935.954c4.076.233,8.389.465,12.115-1.283,1.4-.581,2.795-1.513,4.309-1.164,2.33.467,2.912,3.845,1.633,5.825s-3.613,2.912-5.941,3.726c-3.029,1.165-6.059,2.216-9.2,3.381-2.1.815-4.541,1.513-6.408.349-1.512-.932-2.1-2.913-3.49-4.078-2.215-1.863-14.68-4.425-8.973-10.366,1.982-2.213,4.311-.233,6.174.7A20.413,20.413,0,0,0,9513.717,7935.954Z" transform="translate(-9159.216 -7638.164)"/><path class="d" d="M8561.781,8160.028a23.673,23.673,0,0,0,5.709-.233,11.949,11.949,0,0,0,3.492-.933,4.792,4.792,0,0,0,2.33-2.68c.7-2.329-1.049-4.893-3.379-5.823a12.7,12.7,0,0,0-7.221.116,9.684,9.684,0,0,0-5.01,2.445,4.454,4.454,0,0,0-.816,4.894C8557.7,8159.444,8560.033,8159.91,8561.781,8160.028Z" transform="translate(-8328.886 -7831.253)"/><path class="d" d="M8518.311,8075.269a9.875,9.875,0,0,1-5.127-1.281,4,4,0,0,1-1.863-4.66c.7-1.63,2.8-2.328,4.545-2.328,2.795,0,5.473,1.048,8.27,1.4,4.543.7,9.436-.584,13.514,1.629a2.124,2.124,0,0,1,1.279,1.165,1.133,1.133,0,0,1-.35,1.516l-.7.232a97.258,97.258,0,0,0-9.9,1.631C8524.719,8075.386,8521.686,8075.269,8518.311,8075.269Z" transform="translate(-8288.795 -7758.027)"/><path class="e" d="M8825.515,7830.795v-.815h0l-.117-.35c-.231-1.863-3.378-1.514-3.261.35.35,5.125-6.524,8.736-10.483,10.716a10.21,10.21,0,0,1-1.98.934c-4.893,1.281-9.786,1.163-14.91.7-2.913-.233-2.795,4.31,0,4.658C8804.78,7848.268,8826.212,7844.191,8825.515,7830.795Z" transform="translate(-8537.525 -7547.216)"/><path class="f" d="M8913.879,7742.487a15.053,15.053,0,0,1,5.01,6.292c1.512,4.192.465,8.618-.583,12.813a4.835,4.835,0,0,1-.933,2.1,2.373,2.373,0,0,1-2.445.583c-.933-.234-1.165-1.048-1.4-1.747-.7-1.748-1.283-3.61-1.864-5.358a12.379,12.379,0,0,0-1.865-3.962c-1.977-2.678-6.057-4.076-8.035-6.873-1.515-2.1-1.981-7.8,2.213-8.618C8906.541,7737.245,8912.131,7741.207,8913.879,7742.487Z" transform="translate(-8632.996 -7467.062)"/><path class="f" d="M9573.855,7669.811c2.564-5.126,5.361-10.368,5.826-16.425.465-5.357-.7-10.6-1.982-15.726,2.8-.931,5.477,1.98,6.99,5.126.932,1.863,2.33,4.427,3.961,3.379a4.578,4.578,0,0,0,1.98,4.31c0,1.863-.117,3.844-.117,5.707a4.412,4.412,0,0,0,1.164-.115,8.122,8.122,0,0,1-1.861,5.59,1.751,1.751,0,0,0,1.281.467c.348,2.562-3.145,3.145-3.5,5.591a7.228,7.228,0,0,1-.115,1.63,1.625,1.625,0,0,1-.816.934c-3.729,3.146-7.453,6.173-11.182,9.2-1.4,1.048-2.68,2.213-4.312,2.446-2.443.35-3.957-1.515-2.328-4.31C9570.363,7674.936,9572.342,7672.605,9573.855,7669.811Z" transform="translate(-9222.734 -7378.543)"/><path class="g" d="M8296.474,8114.643a9.1,9.1,0,0,0-3.262,3.028,8.471,8.471,0,0,0-.466,6.523,13.2,13.2,0,0,0,4.894,7.454,13.056,13.056,0,0,0,2.446,1.4,11.494,11.494,0,0,0,2.793.35,14.162,14.162,0,0,0,3.729-.468,12.336,12.336,0,0,0,3.96-1.863,8.065,8.065,0,0,0,2.8-3.146,9.623,9.623,0,0,0,.466-3.029,18.363,18.363,0,0,0-.816-6.174,5.538,5.538,0,0,0-1.281-2.445,7.124,7.124,0,0,0-1.979-1.747A12.93,12.93,0,0,0,8296.474,8114.643Z" transform="translate(-8095.498 -7798.448)"/><path class="h" d="M8310.406,8126.68c-.348-1.049-1.28-2.68-2.562-2.68v.35c1.282.115,2.215,2.33,2.448,3.379a6.6,6.6,0,0,1-.118,3.959,7.044,7.044,0,0,1-6.173,4.776v.583a7.709,7.709,0,0,0,6.87-5.592A7.483,7.483,0,0,0,8310.406,8126.68Z" transform="translate(-8105.82 -7808.388)"/><path class="h" d="M8384.285,8150.147c-1.279.7-3.025-1.4-4.191-1.748a4.5,4.5,0,0,0-3.027.117,5.927,5.927,0,0,0-3.729,4.658,6.308,6.308,0,0,0,2.1,5.941c2.217,1.748,5.127,1.4,7.572,2.444l.117-.231c-1.98-1.048-4.426-.816-6.406-1.864a5.814,5.814,0,0,1-2.682-7.1,4.9,4.9,0,0,1,6.291-3.379c1.4.583,2.447,2.563,4.193,1.632Z" transform="translate(-8167.004 -7829.758)"/><path class="d" d="M8079.525,6231.31a14.657,14.657,0,0,1,5.127,2.8,63.574,63.574,0,0,1,8.618,7.1c7.688,8.038,10.367,19.452,12.7,30.285,2.68,12.232,5.358,24.579,8.037,36.81a4.5,4.5,0,0,1,0,3.027,3.953,3.953,0,0,1-1.631,1.749,22.783,22.783,0,0,1-11.765,4.426c-3.146-8.388-6.29-16.891-10.949-24.461-6.058-9.669-14.211-17.705-20.734-27.024a28.125,28.125,0,0,1-4.426-8.735,32.872,32.872,0,0,1-.816-10.134c.118-4.661-1.4-10.134,2.795-12.582C8070.091,6232.474,8075.216,6230.029,8079.525,6231.31Z" transform="matrix(0.998, -0.07, 0.07, 0.998, -8312.456, -5561.574)"/><path class="i" d="M7802.795,7449.979c3.379.583,6.874,1.4,8.621,4.076,1.047,1.864,1.047,4.194,1.047,6.291,0,2.912,0,5.823.117,8.853a4.689,4.689,0,0,1-.35,1.748,2.6,2.6,0,0,1-3.377.814,6.6,6.6,0,0,1-2.213-2.8c-1.515-2.795-2.912-5.59-4.427-8.386-1.4-2.8-2.912-5.941-1.863-9.2a2.7,2.7,0,0,1,.932-1.4A2.247,2.247,0,0,1,7802.795,7449.979Z" transform="matrix(0.998, -0.07, 0.07, 0.998, -8155.329, -6652.101)"/><path class="i" d="M7318.325,7412.9c3.961,3.846,2.447,10.02.7,15.144-3.261,9.319-6.522,18.754-9.783,28.073-1.98,5.824-3.961,11.531-5.942,17.24-.815,2.445-1.746,5.008-3.728,6.987-1.862,1.865-5.124,2.911-7.57,1.633a452.769,452.769,0,0,0,11.532-60.921c.349-2.564.7-5.359,2.329-7.573C7308.773,7409.987,7315.18,7409.639,7318.325,7412.9Z" transform="matrix(0.998, -0.07, 0.07, 0.998, -7705.18, -6648.859)"/><path class="i" d="M8226.534,7420.917c.466,1.864.466,3.728-.7,4.892a2.528,2.528,0,0,1-3.493,0,10.488,10.488,0,0,1-2.445-3.378,294.953,294.953,0,0,0-16.657-27.606c-2.564-3.728-7.922-9.783-7.458-15.259.468-5.124,5.71-8.62,9.319-9.2,7.106-1.283,8.855,12.463,10.834,18.52,3.379,10.135,6.756,20.151,10.134,30.285A9.9,9.9,0,0,1,8226.534,7420.917Z" transform="matrix(0.998, -0.07, 0.07, 0.998, -8499.228, -6557.584)"/><path class="i" d="M6880.166,7342.17c-.466,1.281-.35,3.378,1.165,3.493a2.812,2.812,0,0,0,2.1-1.514c7.922-12,15.493-24.111,22.831-36.459,1.981-3.261,3.845-7.222,2.1-10.6a8.146,8.146,0,0,0-4.543-3.727c-2.446-.932-5.591-1.165-7.8.349-1.864,1.4-2.681,3.728-3.262,5.825Z" transform="matrix(0.998, -0.07, 0.07, 0.998, -7334.717, -6570.233)"/><path class="j" d="M6801.281,6166.468c5.123-2.447,10.133-5.359,14.094-9.318,6.405-6.29,9.9-14.677,12.813-22.832a243,243,0,0,0,10.019-39.021c1.28-7.689,7.8-22.948.116-29.237-3.612-3.031-13.746-3.846-18.521-4.777a208.362,208.362,0,0,0-37.974-4.311c-5.825-.231-11.648-.117-17.122-1.514-11.066-2.913-19.337-11.416-25.51-20.384s-10.949-18.754-18.521-26.792a29.832,29.832,0,0,0-11.531-8.153c-4.427-1.63-9.2-1.747-13.861-1.863-26.441-.35-52.768.233-79.094,1.981-3.493.232-7.1.582-9.783,2.562-4.077,3.145-4.077,8.969-3.494,13.862a366.008,366.008,0,0,0,8.735,50.088,6.8,6.8,0,0,0,1.4,3.261c1.165,1.165,2.913,1.515,4.544,1.864l27.955,5.241c9.785,1.865,19.919,3.844,27.607,9.786,4.774,3.726,8.271,8.736,11.181,13.976,9.786,17.823,14.329,37.974,22.367,56.495,3.026,6.872,3.261,13.163,10.248,17.938,8.154,5.592,18.638,4.077,27.957,2.447C6764.354,6174.389,6782.759,6175.2,6801.281,6166.468Z" transform="matrix(0.998, -0.07, 0.07, 0.998, -7010.544, -5446.439)"/><path class="k" d="M7302.583,6926a168.674,168.674,0,0,0-34.713-20.151c-10.018-4.311-20.734-7.8-31.8-7.922a103.915,103.915,0,0,0-18.986,1.863c-15.259,2.447-30.521,4.893-45.662,7.34a7.04,7.04,0,0,0-3.727,1.164,5.73,5.73,0,0,0-1.864,3.61c-1.4,6.641.932,13.514,3.728,19.8,1.631,3.379,3.377,6.757,6.29,9.319,4.774,4.192,11.648,5.357,18.172,5.824,25.393,2.213,50.786-1.4,75.831-5.126,8.5-1.165,16.889-2.446,25.274-3.61,2.68-.349,5.476-.815,7.688-2.213,2.213-1.515,3.845-4.194,2.913-6.524A8.718,8.718,0,0,0,7302.583,6926Z" transform="matrix(0.998, -0.07, 0.07, 0.998, -7562.01, -6204.759)"/><path class="l" d="M6991.475,5505.189c-1.05,9.085,2.1,18.4,7.339,25.975,2.563,3.846,6.057,7.572,10.6,8.853,6.172,1.863,13.046-1.28,17.238-6.173,4.31-4.893,6.407-11.3,8.154-17.473,1.515-5.242,2.795-10.6,2.679-15.959-.117-5.475-1.862-10.948-5.706-14.792-6.059-6.174-19.22-11.183-26.559-5.009C6998.7,5486.086,6992.409,5496.686,6991.475,5505.189Z" transform="matrix(0.998, -0.07, 0.07, 0.998, -7321.006, -4963.844)"/><path class="d" d="M7497.117,6308.094c4.425-9.551,7.221-17.706,17.7-17.238,1.165.115,8.038,0,8.97.581a10.405,10.405,0,0,1,3.494,3.962c9.087,20.851,22.364,39.72,33.9,59.291,1.4,2.445,2.911,5.008,3.028,7.8.114,5.01-4.894,9.67-9.9,8.97a71.514,71.514,0,0,1-16.89-20.384c-.349-.466-.583-.932-1.165-1.166-1.4-.582-2.329,1.631-2.444,3.146a45.506,45.506,0,0,1-4.545,16.54,18.221,18.221,0,0,1-6.058,7.8,15.866,15.866,0,0,1-7.222,2.563c-10.017,1.048-20.034-5.009-24.578-13.978-5.008-9.553-2.328-18.057-.115-27.723C7493.738,6328.13,7492.572,6317.879,7497.117,6308.094Z" transform="matrix(0.998, -0.07, 0.07, 0.998, -7809.407, -5649.785)"/><path class="d" d="M7644.625,6322.559c4.892-3.613,8.271-9.087,11.415-14.33,9.9-16.423,19.8-32.73,29.587-49.155a27.873,27.873,0,0,0,3.961-8.155,16.684,16.684,0,0,0-8.62-18.754c-9.786-4.542-21.318,2.449-27.724,11.183-6.522,8.736-10.25,19.453-17.706,27.374-4.31,4.542-9.667,8.038-13.977,12.464-8.97,9.553-12.7,24-10.018,36.925C7614.688,6334.554,7635.772,6329.313,7644.625,6322.559Z" transform="matrix(0.998, -0.07, 0.07, 0.998, -7913.345, -5589.289)"/><path class="m" d="M8076.735,6917c1.981,0,3.5,1.862,5.011,3.143a12.938,12.938,0,0,0,8.5,2.331,56.623,56.623,0,0,0,8.853-1.748,10.812,10.812,0,0,1,3.262-.35c2.213.35,3.728,2.33,5.008,4.194a4.506,4.506,0,0,1,.7,1.98c.115,1.4-1.048,2.445-2.214,3.145a51.121,51.121,0,0,1-17.938,8.153c-2.1.467-4.192.816-6.172.117a13.723,13.723,0,0,1-4.894-4.077c-1.98-2.446-6.755-6.289-6.872-9.667C8069.864,6921.426,8073.94,6917.115,8076.735,6917Z" transform="matrix(0.998, -0.07, 0.07, 0.998, -8360.438, -6165.831)"/><path class="m" d="M7455.944,6146.676c3.727-.35,7.222,1.514,10.716,2.911,14.444,5.708,30.636,2.331,46.011,2.795a3.188,3.188,0,0,1,1.515.234c1.515.815,1.281,3.029.7,4.66-4.891,15.725-9.784,31.566-18.869,45.313a4.374,4.374,0,0,1-1.514,1.747c-1.4,1.048-3.379.7-5.126.35a349.447,349.447,0,0,1-40.654-11.184,5.078,5.078,0,0,1-1.863-1.164,3.772,3.772,0,0,1-.348-2.562C7448.371,6175.213,7453.5,6161.235,7455.944,6146.676Z" transform="matrix(0.998, -0.07, 0.07, 0.998, -7763.4, -5525.284)"/><path class="n" d="M7568,6268c1.166-.116,2.214.7,3.379,1.165,1.048.35,2.213.582,3.379.932,2.095.815,4.426.7,6.639,1.049.349,0,.466-.583,0-.583-1.4,0-2.8,0-4.193-.117-1.28-.116-2.331-.7-3.611-.931a20.061,20.061,0,0,1-3.378-1.282,3.656,3.656,0,0,0-2.214-.466Z" transform="matrix(0.998, -0.07, 0.07, 0.998, -7877.998, -5624.533)"/><path class="n" d="M7620.241,6261.1l.117-.583c-1.748-.466-3.5-.932-5.242-1.515l-.117.35A34.553,34.553,0,0,0,7620.241,6261.1Z" transform="matrix(0.998, -0.07, 0.07, 0.998, -7918.882, -5613.932)"/><path class="n" d="M7526,6329.349c6.407,1.165,12.23,4.311,18.753,5.008v-.464c-6.405-.933-12.346-3.729-18.753-4.894Z" transform="matrix(0.998, -0.07, 0.07, 0.998, -7844.757, -5681.114)"/><path class="n" d="M7544.635,6361.959a77.205,77.205,0,0,1-18.52-3.959l-.115.465a64.56,64.56,0,0,0,18.635,4.194C7545.1,6362.659,7545.1,6362.076,7544.635,6361.959Z" transform="matrix(0.998, -0.07, 0.07, 0.998, -7846.544, -5706.673)"/><path class="n" d="M7536.754,6395.01c-6.174-1.632-12.465-3.262-18.638-5.011l-.116.467c6.172,1.864,12.346,3.61,18.638,5.125Z" transform="matrix(0.998, -0.07, 0.07, 0.998, -7841.465, -5735.369)"/><path class="n" d="M7506.286,6443.892c-5.938-1.98-12.112-3.378-18.054-4.893l-.232.584c6.058,1.4,12.116,3.261,18.17,4.775Z" transform="matrix(0.998, -0.07, 0.07, 0.998, -7818.042, -5780.405)"/><path class="n" d="M7517.493,6492.192c-5.127-1.631-10.251-2.912-15.493-4.193v.233c5.124,1.4,10.251,3.028,15.377,4.426Z" transform="matrix(0.998, -0.07, 0.07, 0.998, -7833.403, -5822.729)"/><path class="n" d="M7813,6240.538c6.174-.465,12.348-.35,18.638-.232.349.117.349-.583,0-.583a141.674,141.674,0,0,0-18.638.351Z" transform="matrix(0.998, -0.07, 0.07, 0.998, -8092.196, -5584.591)"/><path class="n" d="M7815.315,6291.349c-6.988-.816-14.21-.583-21.315-.583v.466c7.105.117,14.21.7,21.315.7C7815.782,6291.931,7815.782,6291.349,7815.315,6291.349Z" transform="matrix(0.998, -0.07, 0.07, 0.998, -8078.604, -5630.872)"/><path class="n" d="M7821,6263.508v.233a140.434,140.434,0,0,1,17.122.7c.468,0,.468-.582,0-.582A105.023,105.023,0,0,0,7821,6263.508Z" transform="matrix(0.998, -0.07, 0.07, 0.998, -8100.711, -5605.037)"/><path class="n" d="M7818.881,6332.608a113.356,113.356,0,0,0-18.869-.349c-.35,0-.35.7,0,.583a145.9,145.9,0,0,1,18.869.582C7819.349,6333.423,7819.349,6332.608,7818.881,6332.608Z" transform="matrix(0.998, -0.07, 0.07, 0.998, -8086.216, -5666.912)"/><path class="n" d="M7779.863,6392a103.817,103.817,0,0,0-20.851,0,.293.293,0,0,0,0,.582,124.735,124.735,0,0,1,20.851.232C7780.328,6392.813,7780.328,6392,7779.863,6392Z" transform="matrix(0.998, -0.07, 0.07, 0.998, -8053.745, -5721.828)"/><path class="n" d="M7778.268,6434.233c-6.641-.35-13.279-.233-19.918-.118a.35.35,0,1,0,0,.7c6.639-.117,13.277.117,19.918.233A.408.408,0,1,0,7778.268,6434.233Z" transform="matrix(0.998, -0.07, 0.07, 0.998, -8055.703, -5759.358)"/><path class="n" d="M7743.568,6477.752c-6.522-.115-13.047.117-19.569.117v.35c6.522.117,13.047.349,19.569.349C7744.033,6478.567,7744.033,6477.752,7743.568,6477.752Z" transform="matrix(0.998, -0.07, 0.07, 0.998, -8028.431, -5799.987)"/><path class="n" d="M7748.135,6512.95l-17.123-1.049c-.35-.115-.35.582,0,.582,5.709.351,11.416.934,17.123,1.283C7748.717,6513.881,7748.717,6512.95,7748.135,6512.95Z" transform="matrix(0.998, -0.07, 0.07, 0.998, -8036.486, -5829.686)"/><path class="n" d="M7723.752,6558.281c-6.057-.815-12.346-.815-18.4-1.281a.35.35,0,0,0,0,.7c6.059.466,12.231,1.4,18.288,1.514C7724.1,6559.213,7724.219,6558.4,7723.752,6558.281Z" transform="matrix(0.998, -0.07, 0.07, 0.998, -8016.571, -5871.033)"/><path class="o" d="M6858.512,6058.235a97.512,97.512,0,0,1,9.668-14.1c2.33-2.561,7.688-7.1,10.25-8.27,3.612-1.514,7.8.35,11.648.35,5.592,0,11.766-3.495,16.309,0a11.1,11.1,0,0,1,3.378,4.542,80.2,80.2,0,0,1,8.387,23.762c.932,4.66,1.515,9.32,3.377,13.629a24.424,24.424,0,0,0,19.452,14.094,10.115,10.115,0,0,1,3.264.582c3.145,1.4,4.192,5.708,4.31,9.552.231,3.729,0,7.921,2.1,10.833,1.748,2.447,4.544,3.5,6.522,5.592,2.447,2.562,3.264,6.521,2.913,10.134a36.545,36.545,0,0,1-2.795,10.6q-2.622,7.165-5.243,14.328a4.285,4.285,0,0,1-1.28,2.212,4.183,4.183,0,0,1-2.446.932,170.4,170.4,0,0,1-20.268,1.98c-3.03.116-6.175.233-8.97-.932s-5.009-3.378-7.571-5.125c-8.619-5.708-19.335-4.892-29.236-6.64a5.731,5.731,0,0,1-2.564-.933c-1.863-1.281-1.863-4.193-2.1-6.638-.932-9.785-7.223-17.939-11.531-26.675C6857.23,6094.344,6848.61,6075.708,6858.512,6058.235Z" transform="matrix(0.998, -0.07, 0.07, 0.998, -7234.423, -5463.109)"/><path class="m" d="M6850.247,6530.031a23.77,23.77,0,0,0-3.38-9.2c-1.512-2.562-3.494-4.775-4.31-7.572-1.048-3.377-.466-6.988,0-10.483.7-6.289.467-12.929-1.979-18.869s-7.34-11.067-13.512-12.7c-4.659-1.164-9.552-.349-14.329-.116a56.176,56.176,0,0,1-13.976-1.048c-4.311-.816-8.621-2.213-12.931-1.747-4.311.349-8.854,3.261-9.435,7.571a8.455,8.455,0,0,0,3.61,7.805l1.981,6.173c.7,2.446,1.4,4.776,2.1,7.223a58.989,58.989,0,0,0,2.911,9.085c5.24,12.58,16.657,21.316,28.072,28.888,7.455,5.009,16.076,10.017,25.045,8.736,3.843-.466,7.8-2.562,9.435-6.057A12.384,12.384,0,0,0,6850.247,6530.031Z" transform="matrix(0.998, -0.07, 0.07, 0.998, -7192.59, -5850.006)"/><path class="j" d="M6668.979,6591.1c2.33-2.446,6.407-2.1,9.9-1.632a286.139,286.139,0,0,1,47.523,11.766c7.806,2.679,15.844,5.94,21.084,12a44.973,44.973,0,0,1,6.407,10.949,280.278,280.278,0,0,1,10.949,28.421c4.426,13.162,8.386,27.374,19.8,36.11,3.959,3.028,8.969,5.942,9.318,10.6-15.027,2.563-30.634.583-45.078-3.96s-27.841-11.533-40.771-19.1c-4.658-2.8-9.2-5.591-13.045-9.2a65.02,65.02,0,0,1-6.523-7.454,108.145,108.145,0,0,1-21.55-61.5C6667,6595.641,6667.115,6592.961,6668.979,6591.1Z" transform="matrix(0.998, -0.07, 0.07, 0.998, -7103.695, -5963.328)"/><path class="p" d="M7051.632,6185.682a10.688,10.688,0,0,1,4.191,1.514c2.913,1.63,5.941,3.379,8.154,5.825,2.329,2.446,3.845,5.475,5.709,8.387a92.722,92.722,0,0,0,8.387,10.833c3.145,3.611,6.174,7.338,9.317,11.065,1.4,1.515,2.8,3.145,4.66,3.96,3.027,1.166,6.29.117,9.318-1.048,6.29-2.33,12.58-4.659,18.87-7.105,2.213-.815,4.777-1.632,6.872-.583,2.1.932,3.145,3.378,3.845,5.475a4.388,4.388,0,0,1,.465,2.33,4.141,4.141,0,0,1-1.63,2.1,101.4,101.4,0,0,1-28.889,16.423,15.044,15.044,0,0,1-6.29,1.166,16.139,16.139,0,0,1-4.075-1.05,128.753,128.753,0,0,1-41.47-26.091c-2.444-2.331-4.892-4.776-6.173-7.921a20.141,20.141,0,0,1-1.165-8.737C7041.963,6196.167,7042.662,6184.867,7051.632,6185.682Z" transform="matrix(0.998, -0.07, 0.07, 0.998, -7409.071, -5584.61)"/><path class="l" d="M7811.172,6406.478a4.073,4.073,0,0,1,.583-3.261c1.165-1.63,3.494-1.864,5.474-2.447a41.309,41.309,0,0,0,5.009-2.679c1.748-.814,3.611-1.63,5.476-1.4a5.773,5.773,0,0,1,4.192,2.911,5.577,5.577,0,0,1,.117,5.242,10.611,10.611,0,0,1-2.33,2.8,20.917,20.917,0,0,1-3.261,2.33c-2.912,1.747-6.407,2.33-9.784,2.8-1.631.233-2.913-.117-3.728-1.631A13.279,13.279,0,0,1,7811.172,6406.478Z" transform="matrix(0.998, -0.07, 0.07, 0.998, -8100.17, -5723.173)"/><path class="q" d="M6877.848,5443.325c-1.282,1.747-3.612,2.213-5.708,1.98s-4.076-1.05-6.174-1.4a5.74,5.74,0,0,0-3.145.233c-2.913,1.281-2.8,5.241-2.33,8.27-3.844-.35-7.8-.7-11.764-1.048-.467,0-.932-.117-1.282.116a2.291,2.291,0,0,0-1.049,1.515,20.255,20.255,0,0,0-1.048,7.454,2.4,2.4,0,0,0-3.145-1.629,3.471,3.471,0,0,0-1.865,3.377,6.741,6.741,0,0,0,1.865,3.611,5.6,5.6,0,0,1,1.746,2.33c.465,1.863-1.746,3.5-1.863,5.476-.233,1.514.932,2.911,1.747,4.192,1.631,2.446,3.494,3.378,3.494,6.291-4.076.583-5.124-2.68-7.572-4.311a11.288,11.288,0,0,0-8.5-2.213c-1.632.35-3.261,1.165-4.892.583-1.632-.7-2.331-2.68-2.563-4.426s-.234-3.611-1.4-5.008c-1.165-1.632-3.262-2.1-5.242-2.1s-3.961.233-5.824-.349c-1.98-.466-3.728-2.212-3.5-4.077.116-2.1,2.214-3.377,3.845-4.542,3.262-2.33,5.709-6.64,3.844-10.018-.7-1.165-1.863-2.213-2.1-3.494a4.568,4.568,0,0,1,1.631-4.194c1.166-1.048,2.68-1.747,3.845-2.795a9.863,9.863,0,0,0,3.494-6.757c.233-2.212-.233-4.892,1.4-6.64,1.747-1.746,4.893-1.048,7.223-1.979,3.843-1.4,5.59-6.64,9.551-7.222,3.728-.583,7.339,3.378,10.949,2.213,1.632-.466,2.795-1.747,4.427-2.1,2.447-.583,4.775,1.515,6.406,3.612,1.633,1.979,3.378,4.425,5.942,4.775.931.233,2.1.117,2.794.7a2.67,2.67,0,0,1,.7,1.4c.7,1.98,1.28,4.309,3.144,5.358a14.757,14.757,0,0,1,1.4.932C6878.43,5433.773,6879.829,5440.878,6877.848,5443.325Z" transform="matrix(0.998, -0.07, 0.07, 0.998, -7155.415, -4919.363)"/></g></svg>