<svg xmlns="http://www.w3.org/2000/svg" xmlns:xlink="http://www.w3.org/1999/xlink" width="200" height="65" viewBox="0 0 200 65"><defs><style>.a{fill:#373435;}.b,.c,.d,.e{fill-rule:evenodd;}.b{fill:url(#a);}.c{fill:url(#b);}.d{fill:url(#c);}.e{fill:url(#d);}.f{fill:#f8f8f8;}.g{fill:#f9f8f8;}</style><linearGradient id="a" x1="0.5" x2="0.5" y2="1" gradientUnits="objectBoundingBox"><stop offset="0" stop-color="#3781b2"/><stop offset="0.459" stop-color="#61a8b8"/><stop offset="1" stop-color="#8cd0bf"/></linearGradient><linearGradient id="b" y1="0.5" x2="1" y2="0.5" gradientUnits="objectBoundingBox"><stop offset="0" stop-color="#58c2af"/><stop offset="1" stop-color="#dde89c"/></linearGradient><linearGradient id="c" x1="0.5" x2="0.5" y2="1" gradientUnits="objectBoundingBox"><stop offset="0" stop-color="#ec4b49"/><stop offset="1" stop-color="#8e55a0"/></linearGradient><linearGradient id="d" x1="0.5" x2="0.5" y2="1" gradientUnits="objectBoundingBox"><stop offset="0" stop-color="#f58b7d"/><stop offset="1" stop-color="#fdc87a"/></linearGradient></defs><g transform="translate(2672 -3420.266)"><path class="a" d="M200,7166.212a8.82,8.82,0,0,1-8.845,8.788H8.845A8.82,8.82,0,0,1,0,7166.212v-47.425A8.82,8.82,0,0,1,8.845,7110h182.31a8.82,8.82,0,0,1,8.845,8.787Z" transform="translate(-2672 -3689.734)"/><path class="b" d="M1353.022,8355.009v-.045h-.011c0-.056-.011-.109-.011-.154v-40.653c0-.044.011-.1.011-.144h.011v-.088a1.19,1.19,0,0,1,.067-.3h.011v-.032a.8.8,0,0,0,.033-.088h0a.491.491,0,0,0,.044-.077h0a.79.79,0,0,1,.111-.154h0a1.121,1.121,0,0,1,.122-.11h0a.7.7,0,0,1,.111-.077h.011v-.011a1.073,1.073,0,0,1,.166-.066h.022V8313h.022l21.6,21.274-2.5,2.466h0l-4.611,4.548h0l-4.611,4.548h0l-10.064,9.9h0A.818.818,0,0,1,1353.022,8355.009Z" transform="translate(-4010.003 -4879.488)"/><path class="c" d="M1439.608,8328.357h0L1435,8323.81h0l-.044-.033h0l-4.611-4.547h0l-4.611-4.548-.044-.034h0l-4.611-4.548-1.075-1.057a.511.511,0,0,1,.122-.032h.011a1.614,1.614,0,0,1,.554.032v.011h0a1.891,1.891,0,0,1,.233.066v.011h0c.022.011.055.011.078.022v.012h.011l.133.065,16.715,9.591.166.088.288.177.144.077.133.077,7.16,4.106,1.851,1.058-6,5.913Z" transform="translate(-4076.261 -4875.531)"/><path class="d" d="M1403.011,10266.46H1403l.8-.771h0l4.611-4.548h0l16.382-16.142,6,5.912-.288.165-7.582,4.351h0l-1.142.659-.022.013-.144.076-.333.2-.111.055-.909.529-.144.076-.986.573h0l-9.355,5.362h0l-2.771,1.586-2.128,1.222-.654.374h0l-.266.154h0a.289.289,0,0,0-.078.045h0a.549.549,0,0,0-.078.032h0a1.539,1.539,0,0,1-.222.077h-.022v.012l-.188.033h-.177A1.073,1.073,0,0,1,1403.011,10266.46Z" transform="translate(-4059.449 -6790.213)"/><path class="e" d="M3371.66,9716.533h0l-2.66-2.62,2.117-2.082h0L3375,9708s7.87,4.548,8.734,5.01l.011.011.078.045a.477.477,0,0,1,.077.043v.011h.011a1.686,1.686,0,0,1,.144.111h0l.044.032v.011h0l.033.033h.011c.011.012.022.033.033.044h0a.927.927,0,0,1,.155.232h0a.323.323,0,0,1,.033.1v.021h.011a.7.7,0,0,1-.044.5h0v.011a.55.55,0,0,1-.033.077h-.011a1.215,1.215,0,0,1-.344.385h0a1.477,1.477,0,0,1-.266.176l-.643.364-.532.308-.21.122h0l-.067.044-5.087,2.907-.022.021-1.1.627-.266.154-.277.154-.1.066-.21.121-.155.077-.011.011Z" transform="translate(-6003.658 -6259.126)"/><path class="f" d="M13507.707,9823.641a3.468,3.468,0,0,0-2.859,1.09,5.537,5.537,0,0,0-.9,3.457v.43a6.453,6.453,0,0,0,.9,3.865,3.476,3.476,0,0,0,2.9,1.157,2.989,2.989,0,0,0,2.616-1.344,6.318,6.318,0,0,0,.953-3.7,6.125,6.125,0,0,0-.953-3.678A3.116,3.116,0,0,0,13507.707,9823.641Zm.289,11.628a5.628,5.628,0,0,1-2.306-.463,4.307,4.307,0,0,1-1.74-1.42h-.145a18.126,18.126,0,0,1,.145,2.125v5.264H13502v-18.543h1.586l.266,1.75h.1a4.461,4.461,0,0,1,1.751-1.519A5.4,5.4,0,0,1,13508,9822a4.758,4.758,0,0,1,3.956,1.74,9.255,9.255,0,0,1-.021,9.777A4.8,4.8,0,0,1,13508,9835.269Z" transform="translate(-16024.343 -6371.872)"/><path class="f" d="M14757,9373.168h1.951V9355H14757Z" transform="translate(-17265.432 -5910.013)"/><path class="f" d="M15147.477,9835.639a4,4,0,0,0,2.87-.992,3.664,3.664,0,0,0,1.031-2.774v-1.155l-1.95.077a7.174,7.174,0,0,0-3.348.715,2.175,2.175,0,0,0-1.031,1.982,1.961,1.961,0,0,0,.644,1.6A2.6,2.6,0,0,0,15147.477,9835.639Zm4.411,1.365-.388-1.816h-.089a5.4,5.4,0,0,1-1.929,1.629,5.815,5.815,0,0,1-2.394.43,4.307,4.307,0,0,1-3-.991,3.553,3.553,0,0,1-1.086-2.785q0-3.882,6.24-4.064l2.194-.065v-.8a3.255,3.255,0,0,0-.654-2.223,2.7,2.7,0,0,0-2.084-.717,8.6,8.6,0,0,0-3.646.98l-.6-1.477a8.934,8.934,0,0,1,2.084-.813,9.434,9.434,0,0,1,2.272-.286,4.957,4.957,0,0,1,3.414,1.012,4.226,4.226,0,0,1,1.108,3.26V9837Z" transform="translate(-17647.154 -6373.849)"/><path class="f" d="M16178,9843h2.084l2.826,7.3a26.089,26.089,0,0,1,1.152,3.611h.088c.111-.408.322-1.08.645-2.049s1.4-3.908,3.191-8.863h2.1l-5.543,14.579a7.266,7.266,0,0,1-1.918,3.061,4.078,4.078,0,0,1-2.693.9,7.822,7.822,0,0,1-1.762-.2v-1.552a6.409,6.409,0,0,0,1.441.144,2.987,2.987,0,0,0,2.871-2.246l.709-1.817Z" transform="translate(-18670.684 -6392.64)"/><path class="f" d="M9882.922,9870.762a2.664,2.664,0,0,0,.677-1.949c0-1.927-1.165-4.922-3.4-4.922a2.514,2.514,0,0,0-1.885.881,3.1,3.1,0,0,0-.588,1.982c0,1.795,1.053,4.768,3.37,4.768A2.754,2.754,0,0,0,9882.922,9870.762Zm-.775,5.1a3.624,3.624,0,0,0-.621-.033,10.9,10.9,0,0,0-2.838.43,3.018,3.018,0,0,0-2.316,2.753c0,1.9,1.862,3.271,4.744,3.271,2.583,0,3.969-1.234,3.969-2.9C9885.084,9878.018,9884.187,9877.3,9882.146,9875.86Zm1.906-11.893a4.493,4.493,0,0,1,1.917,3.612c0,1.981-1.13,2.918-2.271,3.8a1.916,1.916,0,0,0-.754,1.32,1.47,1.47,0,0,0,.71,1.146l.964.748c1.186.991,2.262,1.905,2.262,3.755,0,2.511-2.451,5.055-7.083,5.055-3.913,0-5.8-1.851-5.8-3.833a3.845,3.845,0,0,1,2.083-3.259,11.5,11.5,0,0,1,5.143-1.233,2.812,2.812,0,0,1-.809-1.816,2.4,2.4,0,0,1,.266-1.046c-.3.021-.587.054-.864.054a4.245,4.245,0,0,1-4.466-4.205,4.815,4.815,0,0,1,1.717-3.59A7.415,7.415,0,0,1,9881.9,9863h5.542l-1.719.969Z" transform="translate(-12436.557 -6412.419)"/><path class="f" d="M8667.931,9839.637a4.853,4.853,0,0,0,.809-2.974c0-2.345-1.13-6.837-4.466-6.837a3.8,3.8,0,0,0-2.428.913,4.036,4.036,0,0,0-1.229,3.26c0,2.643,1.318,7,4.565,7A3.444,3.444,0,0,0,8667.931,9839.637Zm-3.358,2.169A6.335,6.335,0,0,1,8658,9835.5a6.653,6.653,0,0,1,6.973-6.5,6.267,6.267,0,0,1,6.429,6.31A6.556,6.556,0,0,1,8664.572,9841.806Z" transform="translate(-11234.034 -6378.795)"/><path class="f" d="M7352.92,9839.637a4.781,4.781,0,0,0,.809-2.974c0-2.345-1.13-6.837-4.467-6.837a3.75,3.75,0,0,0-2.416.913,4.013,4.013,0,0,0-1.242,3.26c0,2.643,1.319,7,4.578,7A3.423,3.423,0,0,0,7352.92,9839.637Zm-3.358,2.169A6.324,6.324,0,0,1,7343,9835.5a6.642,6.642,0,0,1,6.96-6.5,6.267,6.267,0,0,1,6.429,6.31A6.549,6.549,0,0,1,7349.562,9841.806Z" transform="translate(-9933.61 -6378.795)"/><path class="f" d="M5494.632,9297.443l-3.868.882a28.971,28.971,0,0,1-4.467.451c-7.459,0-10.3-5.451-10.3-9.723,0-5.209,4.023-10.054,10.928-10.054a15.566,15.566,0,0,1,4.135.573,10.448,10.448,0,0,1,3.569,1.662l-2.25,2.125-.942.209.676-1.067a7.72,7.72,0,0,0-5.786-2.533c-4.278,0-7.493,3.227-7.493,7.928a9.534,9.534,0,0,0,9.577,9.812,8.227,8.227,0,0,0,3.436-.671v-4.328l-4.09.221,2.161-1.168h5.741l-.709.672a.646.646,0,0,0-.266.43c-.033.242-.056,1.023-.056,1.3Z" transform="translate(-8087.304 -5834.851)"/><path class="f" d="M11039.752,9243.256c-.9-.077-1.087-.242-1.087-1.288v-15.207a.811.811,0,0,0,.013-.176c.11-.937.387-1.1,1.219-1.585h-3.869l-2.027.969h2.071v16.594c0,.539-.11.616-.73,1.421h4.788l1-.584C11040.672,9243.345,11040.206,9243.312,11039.752,9243.256Z" transform="translate(-13583.698 -5781.445)"/><path class="f" d="M11668.281,9833.887c.51-.187.776-.341.776-.716a2.655,2.655,0,0,0-2.661-2.29c-1.074,0-3.093.825-3.093,3.7,0,.462.056.936.089,1.42Zm2.527,7.961c-.3.154-.6.342-.887.474a6.208,6.208,0,0,1-2.616.507,5.8,5.8,0,0,1-3.569-1.036,6.89,6.89,0,0,1-2.737-5.637,6.064,6.064,0,0,1,6.151-6.156,5.185,5.185,0,0,1,2.771.749,4.4,4.4,0,0,1,1.872,2.632l-6.306,2.544-2.072.154c.675,3.391,2.98,5.361,5.53,5.361a6.977,6.977,0,0,0,3.28-.924Z" transform="translate(-14203.748 -6379.783)"/><path class="f" d="M12707.809,9830.176v1.762h-.223v-1.762H12707V9830h1.386v.177Z" transform="translate(-15238.154 -6379.783)"/><path class="f" d="M12865.484,9831.938v-1.773h-.012l-.555,1.773h-.166l-.543-1.773h-.011v1.773h-.2V9830h.344l.5,1.564h0l.487-1.564h.343v1.938Z" transform="translate(-15393.414 -6379.783)"/><path class="g" d="M5483.38,8314.072c-.477-1.432-.72-2.214-.72-2.323h-.067a24.351,24.351,0,0,1-.743,2.323Zm1.94,2.355h-1.341a8.676,8.676,0,0,0-.377-1.562h-1.951a8.549,8.549,0,0,0-.388,1.563H5480a26.768,26.768,0,0,1,.976-2.664,21.805,21.805,0,0,0,.986-2.764h1.585a23.868,23.868,0,0,0,.887,2.72A22.3,22.3,0,0,1,5485.32,8316.428Z" transform="translate(-8091.259 -4877.51)"/><path class="g" d="M6046.511,8316.428h-1.042a9.885,9.885,0,0,0-1.153-1.806,9.732,9.732,0,0,1-1.374-2.355h-.067a15.129,15.129,0,0,1,.1,1.651c0,.683.022,1.53.067,2.51H6042q.067-1.288.066-2.841c0-1.013-.022-1.883-.066-2.587h1.252a7.631,7.631,0,0,0,1.042,1.761,10.605,10.605,0,0,1,1.263,2.225h.067a15.685,15.685,0,0,1-.1-1.673q0-1.124-.066-2.312h1.053c-.044.683-.056,1.553-.056,2.587S6046.467,8315.58,6046.511,8316.428Z" transform="translate(-8647.03 -4877.51)"/><path class="g" d="M6584.479,8311.729a1.963,1.963,0,0,0-.477-1.354,1.777,1.777,0,0,0-1.43-.551,3.242,3.242,0,0,0-.5.044c.033.551.044,1.134.044,1.74,0,.672.011,1.32.044,1.981a2.911,2.911,0,0,0,.542.056,1.608,1.608,0,0,0,1.341-.562A2.15,2.15,0,0,0,6584.479,8311.729Zm1.142-.187a3.046,3.046,0,0,1-.765,2.069,2.66,2.66,0,0,1-2.139.893c-.411,0-.987-.022-1.718-.055.044-.838.055-1.784.055-2.841,0-1.014-.011-1.873-.055-2.588h.743c.122,0,.3-.011.532-.011s.4-.011.466-.011a2.837,2.837,0,0,1,2.206.748A2.567,2.567,0,0,1,6585.622,8311.543Z" transform="translate(-9180.055 -4875.531)"/><path class="g" d="M7107.859,8310.618c0-.562-.366-.837-1.075-.837a4.258,4.258,0,0,0-.7.055c.022.441.044,1,.044,1.7h.388C7107.4,8311.532,7107.859,8311.224,7107.859,8310.618Zm1.574,3.832h-1.242a8.257,8.257,0,0,0-.754-1.817.991.991,0,0,0-.842-.352c-.155,0-.31,0-.466.011,0,.7.011,1.432.044,2.158H7105c.044-.838.055-1.784.055-2.841,0-1.014-.011-1.873-.055-2.588h.731c.078,0,.255-.011.521-.011s.521-.011.743-.011c1.286,0,1.929.429,1.929,1.31a1.474,1.474,0,0,1-1.1,1.442v.065a1.329,1.329,0,0,1,.743.65A15.7,15.7,0,0,1,7109.434,8314.45Z" transform="translate(-9698.248 -4875.531)"/><path class="g" d="M7570.179,8301.863a2.153,2.153,0,0,0-.444-1.41,1.386,1.386,0,0,0-1.108-.539,1.279,1.279,0,0,0-1.042.539,2.428,2.428,0,0,0,.022,2.8,1.372,1.372,0,0,0,1.108.539,1.282,1.282,0,0,0,1.042-.539A2.252,2.252,0,0,0,7570.179,8301.863Zm1.164-.121a3,3,0,0,1-.787,2.125,2.6,2.6,0,0,1-1.962.848,2.509,2.509,0,0,1-1.851-.771,2.728,2.728,0,0,1-.743-1.971,2.955,2.955,0,0,1,.787-2.126,2.565,2.565,0,0,1,1.951-.848,2.46,2.46,0,0,1,1.851.781A2.692,2.692,0,0,1,7571.342,8301.742Z" transform="translate(-10154.139 -4865.642)"/><path class="g" d="M8156.185,8316.428H8155c.033-.858.056-1.806.056-2.841,0-1.013-.022-1.883-.056-2.587h1.186c-.032.693-.055,1.563-.055,2.587C8156.13,8314.633,8156.153,8315.58,8156.185,8316.428Z" transform="translate(-10736.609 -4877.51)"/><path class="g" d="M8398.469,8311.729a2.006,2.006,0,0,0-.467-1.354,1.815,1.815,0,0,0-1.439-.551,3.233,3.233,0,0,0-.5.044c.032.551.043,1.134.043,1.74,0,.672.013,1.32.045,1.981a3.022,3.022,0,0,0,.543.056,1.6,1.6,0,0,0,1.342-.562A2.153,2.153,0,0,0,8398.469,8311.729Zm1.142-.187a3.034,3.034,0,0,1-.755,2.069,2.683,2.683,0,0,1-2.15.893c-.409,0-.985-.022-1.706-.055.033-.838.055-1.784.055-2.841,0-1.014-.021-1.873-.055-2.588h.731c.122,0,.3-.011.531-.011s.4-.011.478-.011a2.811,2.811,0,0,1,2.194.748A2.57,2.57,0,0,1,8399.61,8311.543Z" transform="translate(-10973.948 -4875.531)"/><path class="g" d="M9063.381,8314.072c-.478-1.432-.721-2.214-.721-2.323h-.066a24.282,24.282,0,0,1-.743,2.323Zm1.938,2.355h-1.34a9.3,9.3,0,0,0-.389-1.562h-1.939a8.59,8.59,0,0,0-.389,1.563H9060a26.888,26.888,0,0,1,.975-2.664,21.53,21.53,0,0,0,.986-2.764h1.586a23.75,23.75,0,0,0,.887,2.72A24.983,24.983,0,0,1,9065.319,8316.428Z" transform="translate(-11631.579 -4877.51)"/><path class="g" d="M9624.9,8310.673c0-.595-.387-.892-1.185-.892a4.308,4.308,0,0,0-.633.055c.034.529.045,1.123.045,1.795h.244Q9624.9,8311.631,9624.9,8310.673Zm1.087-.231a1.631,1.631,0,0,1-.743,1.477,3.327,3.327,0,0,1-1.828.473,1.794,1.794,0,0,1-.277-.011c0,.528.011,1.211.044,2.07H9622c.033-.8.055-1.751.055-2.841,0-1-.021-1.861-.055-2.588h.731c.1,0,.3-.011.6-.011s.543-.011.765-.011a2.427,2.427,0,0,1,1.353.352A1.216,1.216,0,0,1,9625.989,8310.441Z" transform="translate(-12187.349 -4875.531)"/><path class="g" d="M10079.9,8310.673q0-.892-1.2-.892a4.038,4.038,0,0,0-.621.055c.022.529.044,1.123.044,1.795h.244Q10079.9,8311.631,10079.9,8310.673Zm1.086-.231a1.639,1.639,0,0,1-.754,1.477,3.276,3.276,0,0,1-1.829.473,1.871,1.871,0,0,1-.277-.011c0,.528.012,1.211.045,2.07H10077c.032-.8.056-1.751.056-2.841,0-1-.023-1.861-.056-2.588h.73c.1,0,.3-.011.588-.011s.555-.011.765-.011a2.408,2.408,0,0,1,1.354.352A1.226,1.226,0,0,1,10080.99,8310.441Z" transform="translate(-12637.307 -4875.531)"/><path class="g" d="M10701.189,8301.863a2.155,2.155,0,0,0-.443-1.41,1.387,1.387,0,0,0-1.108-.539,1.267,1.267,0,0,0-1.042.539,2.429,2.429,0,0,0,.021,2.8,1.375,1.375,0,0,0,1.109.539,1.281,1.281,0,0,0,1.042-.539A2.254,2.254,0,0,0,10701.189,8301.863Zm1.163-.121a3,3,0,0,1-.786,2.125,2.6,2.6,0,0,1-1.963.848,2.51,2.51,0,0,1-1.851-.771,2.735,2.735,0,0,1-.754-1.971,2.959,2.959,0,0,1,.8-2.126,2.564,2.564,0,0,1,1.95-.848,2.461,2.461,0,0,1,1.852.781A2.7,2.7,0,0,1,10702.353,8301.742Z" transform="translate(-13250.434 -4865.642)"/><path class="g" d="M11291.5,8316.428h-1.031a10.683,10.683,0,0,0-1.152-1.806,9.909,9.909,0,0,1-1.386-2.355h-.066a13.081,13.081,0,0,1,.11,1.651c0,.683.021,1.53.056,2.51H11287q.064-1.288.066-2.841c0-1.013-.023-1.883-.066-2.587h1.24a8.131,8.131,0,0,0,1.042,1.761,10.093,10.093,0,0,1,1.265,2.225h.066a15.824,15.824,0,0,1-.1-1.673c0-.749-.022-1.521-.055-2.312h1.042c-.034.683-.056,1.553-.056,2.587S11291.466,8315.58,11291.5,8316.428Z" transform="translate(-13833.895 -4877.51)"/></g></svg>