<svg xmlns="http://www.w3.org/2000/svg" width="200" height="65" viewBox="0 0 200 65"><defs><style>.a{fill:#373435;}.b{fill:#fefefe;}</style></defs><g transform="translate(2672 -3665.527)"><path class="a" d="M200,29735.439a8.813,8.813,0,0,1-8.835,8.561H8.846A8.817,8.817,0,0,1,0,29735.213v-47.426A8.818,8.818,0,0,1,8.846,29679H191.165a8.813,8.813,0,0,1,8.835,8.561Z" transform="translate(-2672 -26013.473)"/><path class="b" d="M1273.214,31608.379a32.13,32.13,0,0,1-2.923,5.432c-1.9,2.881-4.586,6.455-7.9,6.488-2.956.031-3.717-1.912-7.716-1.891s-4.847,1.922-7.8,1.9c-3.314-.033-5.857-3.271-7.759-6.143-5.325-8.043-5.879-17.488-2.6-22.51a11.793,11.793,0,0,1,9.465-5.646c3.521,0,5.738,1.912,8.65,1.912,2.825,0,4.542-1.922,8.607-1.922a11.513,11.513,0,0,1,8.661,4.545C1264.292,31594.691,1265.531,31605.486,1273.214,31608.379Z" transform="translate(-3893.063 -27899.885)"/><path class="b" d="M2955.079,30622.275a9.763,9.763,0,0,0,2.2-7.275,10.755,10.755,0,0,0-6.89,3.68c-1.5,1.814-2.739,4.492-2.25,7.094A9,9,0,0,0,2955.079,30622.275Z" transform="translate(-5587.989 -26939.367)"/><path class="b" d="M5598.433,32102.672c.261.994.533,2.018.891,3.141l2.054,5.9h-5.847l2.021-5.945C5597.868,32104.811,5598.161,32103.762,5598.433,32102.672Zm-1.8-3.67-7.629,22.281h3.5l2.271-6.844h7.379l2.336,6.844h3.586l-7.65-22.281Z" transform="translate(-8200.264 -28407.35)"/><path class="b" d="M7464.781,32636.8c3.032,0,4.379,2.785,4.379,5.537,0,3.563-1.728,5.766-4.5,5.766a4.1,4.1,0,0,1-4-3.121,4.465,4.465,0,0,1-.119-1.09v-2.721a5,5,0,0,1,.108-.83c.011-.088.033-.184.043-.27A4.287,4.287,0,0,1,7464.781,32636.8Zm.848-2.795a6.359,6.359,0,0,0-5.39,2.568l-.142-2.215H7457l.011.281c.1,1.383.131,2.906.131,5.086v17.176h3.4v-8.021a5.966,5.966,0,0,0,4.629,1.986,7.065,7.065,0,0,0,5.151-2.17,9.235,9.235,0,0,0,2.271-6.488,8.91,8.91,0,0,0-1.978-5.916A6.449,6.449,0,0,0,7465.629,32634Z" transform="translate(-10047.963 -28936.572)"/><path class="b" d="M9072.792,32636.8c3.021,0,4.369,2.785,4.369,5.537,0,3.563-1.729,5.766-4.5,5.766a4.1,4.1,0,0,1-4-3.121,3.97,3.97,0,0,1-.12-1.09v-2.721a5.052,5.052,0,0,1,.108-.83c.012-.088.033-.184.044-.27A4.289,4.289,0,0,1,9072.792,32636.8Zm.837-2.795a6.359,6.359,0,0,0-5.39,2.568l-.142-2.215H9065l.012.281c.1,1.383.13,2.906.13,5.086v17.176h3.4v-8.021a5.967,5.967,0,0,0,4.63,1.986,7.063,7.063,0,0,0,5.15-2.17,9.233,9.233,0,0,0,2.271-6.488,8.912,8.912,0,0,0-1.978-5.916A6.45,6.45,0,0,0,9073.629,32634Z" transform="translate(-11638.489 -28936.572)"/><path class="b" d="M11138.085,32075.8c-3.173-1.221-4.184-2.182-4.184-3.953,0-1.49,1.2-2.99,3.857-2.99a7.688,7.688,0,0,1,3.978.994l.294.172.956-2.807-.185-.119a10.021,10.021,0,0,0-4.945-1.1c-4.325,0-7.356,2.537-7.356,6.176,0,2.926,1.9,4.977,5.966,6.445,2.88,1.07,3.944,2.16,3.944,4.037,0,2.127-1.651,3.445-4.313,3.445a9.356,9.356,0,0,1-4.891-1.373l-.293-.193-.913,2.881.174.109a11.611,11.611,0,0,0,5.727,1.469c5.836,0,7.9-3.531,7.9-6.564C11143.8,32079.322,11142.149,32077.389,11138.085,32075.8Z" transform="translate(-13681.048 -28374.705)"/><path class="b" d="M12437.771,32312l-3.336,1.037v2.795H12432v2.7h2.435v8.248a6.32,6.32,0,0,0,1.174,4.275,4.347,4.347,0,0,0,3.282,1.285,8.032,8.032,0,0,0,2.63-.4l.185-.074-.163-2.7-.326.107a5.212,5.212,0,0,1-1.576.174c-1.314,0-1.869-.82-1.869-2.766v-8.15h4.087v-2.7h-4.087Z" transform="translate(-14968.899 -28618.049)"/><path class="b" d="M13378.966,32636.668c3.054,0,4.444,2.957,4.444,5.7,0,3.379-1.9,5.828-4.51,5.828h-.033c-2.575,0-4.444-2.4-4.444-5.73C13374.423,32639.582,13375.836,32636.668,13378.966,32636.668Zm.1-2.666c-4.749,0-8.063,3.52-8.063,8.559,0,4.893,3.205,8.3,7.8,8.3h.032c3.88,0,8.063-2.689,8.063-8.594a8.492,8.492,0,0,0-2.162-5.957A7.573,7.573,0,0,0,13379.063,32634Z" transform="translate(-15897.694 -28936.572)"/><path class="b" d="M15021.443,32634.162l-.2-.055a3.316,3.316,0,0,0-.848-.105,4.821,4.821,0,0,0-4.249,2.719l-.108-2.365H15013l.021.281c.087,1.34.131,2.84.131,4.859l-.033,11.01h3.391v-8.592a8.288,8.288,0,0,1,.1-1.307,3.729,3.729,0,0,1,3.564-3.389,8.108,8.108,0,0,1,.913.053l.358.031Z" transform="translate(-17521.852 -28936.572)"/><path class="b" d="M15793.455,32633.57a3.358,3.358,0,0,1,2.488.939,4.773,4.773,0,0,1,1.163,3.143h-7.737C15789.684,32635.709,15790.912,32633.57,15793.455,32633.57Zm.217-2.568c-4.51,0-7.672,3.584-7.672,8.723,0,4.943,3.141,8.139,8,8.139a13.209,13.209,0,0,0,5.379-1.023l.207-.088-.652-2.514-.293.105a10.459,10.459,0,0,1-4.249.758,4.7,4.7,0,0,1-5.075-4.881l10.943.031.054-.215a7.906,7.906,0,0,0,.1-1.414C15800.41,32635.115,15798.649,32631,15793.672,32631Z" transform="translate(-18286.449 -28933.605)"/><path class="b" d="M5590.543,30678.564a12.72,12.72,0,0,0,1.543.055c3.249.021,5.021-1.621,5.021-4.469.021-2.516-1.554-4.07-4.782-4.07a10.064,10.064,0,0,0-1.782.139Zm-1.543-9.348a26.091,26.091,0,0,1,3.26-.215,7.369,7.369,0,0,1,4.781,1.293,4.626,4.626,0,0,1,1.674,3.811,5.3,5.3,0,0,1-1.7,4.092,7.864,7.864,0,0,1-5.227,1.523,23.52,23.52,0,0,1-2.793-.129Z" transform="translate(-8200.264 -26992.785)"/><path class="b" d="M6616.108,30942.877a2.7,2.7,0,0,0,2.575-2.957,2.588,2.588,0,1,0-2.586,2.957Zm-.055,1.039a3.812,3.812,0,0,1-4.053-3.9,3.912,3.912,0,0,1,4.195-4.016,3.787,3.787,0,0,1,4.086,3.877,3.941,3.941,0,0,1-4.206,4.037Z" transform="translate(-9212.146 -27256.904)"/><path class="b" d="M7454.576,30952l1.13,3.832c.228.842.457,1.641.62,2.418h.054c.185-.766.467-1.576.75-2.406l1.38-3.844h1.293l1.315,3.779a25.279,25.279,0,0,1,.75,2.471h.054a20.239,20.239,0,0,1,.652-2.449l1.206-3.8h1.521l-2.728,7.568h-1.4l-1.293-3.617a23.883,23.883,0,0,1-.761-2.5h-.032a19.555,19.555,0,0,1-.772,2.525l-1.358,3.6h-1.4L7453,30952Z" transform="translate(-10044.007 -27272.732)"/><path class="b" d="M8720.076,30938.225c0-.8-.021-1.424-.076-2.051h1.369l.087,1.23h.033a3.227,3.227,0,0,1,2.8-1.4,2.885,2.885,0,0,1,2.988,3.217v4.523h-1.543v-4.361c0-1.221-.5-2.256-1.956-2.256a2.21,2.21,0,0,0-2.064,1.4,2.032,2.032,0,0,0-.109.648v4.566h-1.532Z" transform="translate(-11297.238 -27256.904)"/><path class="b" d="M9620,30635.111h1.543V30624H9620Z" transform="translate(-12187.457 -26948.271)"/><path class="b" d="M9945.107,30942.877a2.7,2.7,0,0,0,2.575-2.957,2.587,2.587,0,1,0-2.586,2.957Zm-.044,1.039a3.815,3.815,0,0,1-4.063-3.9,3.912,3.912,0,0,1,4.194-4.016,3.787,3.787,0,0,1,4.086,3.877,3.941,3.941,0,0,1-4.205,4.037Z" transform="translate(-12504.969 -27256.904)"/><path class="b" d="M10825.13,30939.879c-1.685-.033-3.587.236-3.587,1.705a1.285,1.285,0,0,0,1.435,1.316,2.146,2.146,0,0,0,2.087-1.273,1.21,1.21,0,0,0,.065-.434Zm1.51,2.051a11.47,11.47,0,0,0,.12,1.813h-1.381l-.141-.949h-.055a3.259,3.259,0,0,1-2.586,1.123,2.311,2.311,0,0,1-2.6-2.172c0-1.836,1.826-2.838,5.1-2.816v-.162c0-.627-.2-1.771-1.923-1.75a4.543,4.543,0,0,0-2.229.561l-.348-.916a5.883,5.883,0,0,1,2.8-.658c2.608,0,3.238,1.574,3.238,3.1Z" transform="translate(-13374.417 -27256.904)"/><path class="b" d="M11607.385,30630.619a2.778,2.778,0,0,0-.064-.594,2.23,2.23,0,0,0-2.229-1.576c-1.586,0-2.531,1.252-2.531,2.9a2.516,2.516,0,0,0,2.5,2.816,2.3,2.3,0,0,0,2.261-1.641,2.568,2.568,0,0,0,.064-.592Zm1.544-6.619v9.154c0,.67.011,1.436.064,1.957h-1.38l-.065-1.318h-.043a3.159,3.159,0,0,1-2.869,1.49,3.621,3.621,0,0,1-3.641-3.844,3.792,3.792,0,0,1,3.8-4.07,2.889,2.889,0,0,1,2.554,1.145h.032V30624Z" transform="translate(-14146.925 -26948.271)"/><path class="b" d="M12855.108,30942.877a2.7,2.7,0,0,0,2.575-2.957,2.588,2.588,0,1,0-2.587,2.957Zm-.044,1.039a3.815,3.815,0,0,1-4.064-3.9,3.912,3.912,0,0,1,4.2-4.016,3.787,3.787,0,0,1,4.086,3.877,3.941,3.941,0,0,1-4.206,4.037Z" transform="translate(-15383.346 -27256.904)"/><path class="b" d="M13785.076,30938.225c0-.8-.022-1.424-.076-2.051h1.369l.087,1.23h.032a3.229,3.229,0,0,1,2.8-1.4,2.885,2.885,0,0,1,2.988,3.217v4.523h-1.543v-4.361c0-1.221-.5-2.256-1.956-2.256a2.21,2.21,0,0,0-2.064,1.4,1.773,1.773,0,0,0-.108.648v4.566h-1.532Z" transform="translate(-16307.195 -27256.904)"/><path class="b" d="M14940.814,30784v1.814h2.206v1.047h-2.206v4.08c0,.939.3,1.469,1.163,1.469a3.639,3.639,0,0,0,.892-.086l.064,1.047a4.923,4.923,0,0,1-1.358.186,2.3,2.3,0,0,1-1.662-.584,2.715,2.715,0,0,1-.6-1.988v-4.123H14938v-1.047h1.315v-1.393Z" transform="translate(-17447.666 -27106.545)"/><path class="b" d="M15560,30624h1.532v4.729h.043a2.624,2.624,0,0,1,1.1-.971,3.31,3.31,0,0,1,1.576-.389,2.886,2.886,0,0,1,2.956,3.238v4.5h-1.532v-4.352c0-1.23-.511-2.246-1.967-2.246a2.223,2.223,0,0,0-2.065,1.371,1.5,1.5,0,0,0-.108.658v4.568H15560Z" transform="translate(-18062.906 -26948.271)"/><path class="b" d="M16402.988,30937.229a2.037,2.037,0,0,0-2.119-2.234,2.378,2.378,0,0,0-2.359,2.234Zm-4.5.982a2.575,2.575,0,0,0,2.891,2.635,6.414,6.414,0,0,0,2.348-.379l.271.973a7.7,7.7,0,0,1-2.836.486c-2.586,0-4.162-1.555-4.162-3.822a3.869,3.869,0,0,1,3.988-4.1,3.608,3.608,0,0,1,3.434,4.232Z" transform="translate(-18890.811 -27254.924)"/></g></svg>