<svg xmlns="http://www.w3.org/2000/svg" width="102.5" height="161.271" viewBox="0 0 102.5 161.271"><defs><style>.a{fill:#d4c19c;opacity:0.3;}.b{fill:#e6e7e8;}.c{fill:#fbc4a4;}.d{fill:#606591;}.e{fill:#eb5957;}.f{fill:#d0a58c;}.g{fill:#fefefe;}.h{fill:#bae5fa;}.i{fill:#48372f;}.j{fill:#fabba0;}.k{fill:#d6aa8f;}.l{fill:#d7a98f;}.m{fill:#f58f8e;}</style></defs><g transform="translate(-229 -1360)"><circle class="a" cx="47.5" cy="47.5" r="47.5" transform="translate(229 1417)"/><g transform="translate(259 1360)"><path class="b" d="M710.191,16.1A16.1,16.1,0,1,1,694.1,0,16.1,16.1,0,0,1,710.191,16.1Z" transform="translate(-659.087)"/><path class="c" d="M18.963,4272.616l4.547-32.974c2.483-9.234-4.24-10.21-4.24-10.21-7.309-1.144-8.257,7.671-8.257,7.671L8,4272.616Z" transform="translate(-7.777 -4111.345)"/><path class="c" d="M2027.693,4272.616h10.991l-3.013-35.513s-.948-8.815-8.285-7.671c0,0-6.695.976-4.24,10.21Z" transform="translate(-1966.184 -4111.345)"/><path class="c" d="M162.3,3751H151.477S125.7,3758.281,124,3771.393h65.777C188.1,3758.281,162.3,3751,162.3,3751Z" transform="translate(-120.541 -3646.36)"/><path class="c" d="M558.911,4500.74,556.094,4464H515.953L514,4500.74Z" transform="translate(-499.662 -4339.469)"/><path class="d" d="M15.036,4259.031l.7-19.389c2.483-9.234-4.24-10.21-4.24-10.21-7.309-1.144-8.257,7.671-8.257,7.671L0,4259.031Z" transform="translate(0 -4111.345)"/><path class="d" d="M2037.513,4258.863l-1.841-21.76s-.948-8.815-8.285-7.671c0,0-6.695.976-4.24,10.21l1.227,19.221Z" transform="translate(-1966.184 -4111.345)"/><path class="d" d="M162.3,3751H151.477S125.7,3758.281,124,3771.393h12.8l-1.925,36.238h44.911L177,3771.393h12.776C188.1,3758.281,162.3,3751,162.3,3751Z" transform="translate(-120.541 -3646.36)"/><path class="e" d="M17.992,3779.833c.279-1.06-1.841-4.269-1.757-5.105l-1.9,35.819H30.545v-56.519c-2.985.893-22.93,7.281-26.584,18.188a12.619,12.619,0,0,0-.725,2.818L0,3796.961H15.036Zm36.208.5,3.989,16.459-1.646-21.536C56.627,3775.982,53.977,3779.5,54.2,3780.334Zm5.049,30.212-1.06-13.753H71.328l-1.841-21.759a12.332,12.332,0,0,0-.753-2.9C64.968,3761.2,44.8,3754.809,42.094,3754v56.546Z" transform="translate(0 -3649.276)"/><path class="c" d="M1047.561,3350.482a7.281,7.281,0,1,1-14.561,0v-8.173a7.281,7.281,0,1,1,14.561,0Z" transform="translate(-1004.184 -3241.965)"/><path class="c" d="M64.762,2524.09c.669,3.543-.586,6.751-2.817,7.169-2.2.418-4.575-2.12-5.216-5.663-.669-3.543.586-6.751,2.817-7.169S64.12,2520.548,64.762,2524.09Z" transform="translate(-54.97 -2448.128)"/><path class="f" d="M107.315,2646.058a1.909,1.909,0,0,1-.642-.14,3.508,3.508,0,0,1-1.339-1.228,5.733,5.733,0,0,1-.781-1.841,6.186,6.186,0,0,1-.084-1.032,3.089,3.089,0,0,1,.112-1,2.14,2.14,0,0,1,.418-.921,1.8,1.8,0,0,1,.279-.363c.139-.111.251-.2.363-.279a1.562,1.562,0,0,1,.753-.223.476.476,0,0,1,.2-.028,1,1,0,0,1,.307.056,2.263,2.263,0,0,1,.446.084s-.167.056-.418.167a.948.948,0,0,0-.418.2c-.112.139-.279.2-.363.363a1.418,1.418,0,0,0-.251.5c-.112.167-.084.447-.139.642a6.034,6.034,0,0,0,.139,1.562,8.925,8.925,0,0,0,.474,1.534,4.762,4.762,0,0,0,.725,1.144,1.692,1.692,0,0,0,.391.279,1.809,1.809,0,0,0,.363.112.086.086,0,0,0,.056-.028,3.8,3.8,0,0,1,.418-.028,1.448,1.448,0,0,1-.335.279c-.139.139-.335.112-.558.167A.166.166,0,0,1,107.315,2646.058Z" transform="translate(-101.541 -2565.381)"/><path class="g" d="M186.347,2916.674a1.674,1.674,0,1,1-1.674-1.674A1.673,1.673,0,0,1,186.347,2916.674Z" transform="translate(-177.895 -2833.681)"/><path class="h" d="M185.036,2921.4h-.028a1.669,1.669,0,0,1-1.172-1.534v-.056a1.422,1.422,0,0,1,.223-.809,1.66,1.66,0,0,0,.614,3.208,1.609,1.609,0,0,0,1.478-.948A1.411,1.411,0,0,1,185.036,2921.4Z" transform="translate(-177.895 -2837.57)"/><path class="c" d="M2230.728,2524.09c-.669,3.543.586,6.751,2.818,7.169s4.575-2.12,5.244-5.663-.614-6.751-2.845-7.169C2233.74,2518.009,2231.4,2520.548,2230.728,2524.09Z" transform="translate(-2168.326 -2448.128)"/><path class="f" d="M2346.032,2646.058a.248.248,0,0,1-.14-.028c-.223-.056-.418-.028-.53-.167a2.57,2.57,0,0,1-.363-.279s.2,0,.446.028c0,.028.028.028.056.028a1.582,1.582,0,0,0,.335-.112,1.823,1.823,0,0,0,.418-.279,4.014,4.014,0,0,0,.7-1.144,6.991,6.991,0,0,0,.474-1.534,6.027,6.027,0,0,0,.14-1.562,4.366,4.366,0,0,0-.112-.642,1.117,1.117,0,0,0-.279-.5c-.083-.167-.223-.223-.363-.363a.827.827,0,0,0-.418-.2c-.251-.112-.391-.167-.391-.167a1.692,1.692,0,0,1,.418-.084,1.2,1.2,0,0,1,.335-.056.545.545,0,0,1,.2.028,1.55,1.55,0,0,1,.725.223,3.149,3.149,0,0,1,.363.279,4.224,4.224,0,0,1,.307.363,3.1,3.1,0,0,1,.418.921,4.7,4.7,0,0,1,0,2.036,4.722,4.722,0,0,1-.781,1.841,3.438,3.438,0,0,1-1.311,1.228A1.909,1.909,0,0,1,2346.032,2646.058Z" transform="translate(-2279.585 -2565.381)"/><path class="g" d="M2289.32,2916.674a1.673,1.673,0,0,1-1.674,1.646,1.66,1.66,0,1,1,1.674-1.646Z" transform="translate(-2222.231 -2833.681)"/><path class="h" d="M2288.009,2921.4h-.028a1.707,1.707,0,0,1-1.172-1.534v-.056a1.682,1.682,0,0,1,.223-.809,1.667,1.667,0,0,0,.614,3.208,1.68,1.68,0,0,0,1.506-.948A1.494,1.494,0,0,1,2288.009,2921.4Z" transform="translate(-2222.231 -2837.57)"/><path class="c" d="M260.644,957.646c0,22.485-17.658,38.3-30.322,40.673C218.188,997.119,200,980.13,200,957.646,200,935.189,211.744,917,230.322,917,248.928,917,260.644,935.189,260.644,957.646Z" transform="translate(-194.421 -891.419)"/><path class="i" d="M758.686,2339.818a2.383,2.383,0,1,1-2.343-2.818A2.617,2.617,0,0,1,758.686,2339.818Z" transform="translate(-732.967 -2271.805)"/><path class="g" d="M759.981,2375a.99.99,0,1,1-1-1A.994.994,0,0,1,759.981,2375Z" transform="translate(-736.855 -2307.773)"/><path class="g" d="M829.976,2420.5a.5.5,0,0,1-.5.474.489.489,0,0,1-.474-.474.5.5,0,0,1,.474-.5A.5.5,0,0,1,829.976,2420.5Z" transform="translate(-805.875 -2352.49)"/><path class="b" d="M527.2,2060.947a24.608,24.608,0,0,1,13.724.446c.725.223,1-1.116,1-1.116.391-1.255-.53-1.479-.53-1.479-9.484-2.539-14.478.977-14.338.809a.751.751,0,0,0-.307.92S526.893,2061.031,527.2,2060.947Z" transform="translate(-512.025 -2000.467)"/><path class="i" d="M1606,2339.818a2.395,2.395,0,1,0,2.371-2.818A2.619,2.619,0,0,0,1606,2339.818Z" transform="translate(-1561.2 -2271.805)"/><path class="g" d="M1700,2375a.97.97,0,0,0,.976.976.99.99,0,0,0,0-1.981A.977.977,0,0,0,1700,2375Z" transform="translate(-1652.578 -2307.773)"/><path class="g" d="M1664,2420.5a.5.5,0,0,0,1,0,.5.5,0,1,0-1,0Z" transform="translate(-1617.582 -2352.49)"/><path class="b" d="M1467.708,2060.947a24.649,24.649,0,0,0-13.724.446c-.7.223-1-1.116-1-1.116-.363-1.255.53-1.479.53-1.479,9.484-2.539,14.478.977,14.366.809a.788.788,0,0,1,.307.92S1468.043,2061.031,1467.708,2060.947Z" transform="translate(-1412.364 -2000.467)"/><path class="j" d="M492.963,2542.85c0,2.12-2.455,3.85-5.5,3.85-3.013,0-5.467-1.73-5.467-3.85s2.455-3.85,5.467-3.85C490.508,2539,492.963,2540.729,492.963,2542.85Zm33.949,0c0,2.12-2.455,3.85-5.467,3.85-3.041,0-5.5-1.73-5.5-3.85s2.455-3.85,5.5-3.85C524.457,2539,526.911,2540.729,526.911,2542.85Z" transform="translate(-468.554 -2468.17)"/><path class="b" d="M127.378,628.27a8.168,8.168,0,0,1,3.961,2.957c2.9,3.292,3.85,8.062,4.407,12.47.642,5.189,1.311,10.35.446,15.538,0,0,.7-4.8,3.682-4.77.921.028,2.26-9.569,2.343-10.238,1.172-11.8-1.534-25.525-10.4-33.978-6.5-6.221-15.761-10.127-24.855-9.178-15.566,1.646-27.812,12.3-30.992,27.646a55.874,55.874,0,0,0-.809,16.961,66.206,66.206,0,0,0,1.674,8.787s3.961,9.652,3.905,4.77c-.056-5.83-.53-11.8.837-17.463,1.618-6.779,3.626-14.283,13.669-15.2A82.162,82.162,0,0,1,127.378,628.27Z" transform="translate(-72.759 -584.165)"/><path class="k" d="M1152,2947a4.07,4.07,0,0,0,6.918,0Z" transform="translate(-1119.865 -2864.789)"/><path class="k" d="M985.357,3163.054a11.786,11.786,0,0,0,16.57,0,.493.493,0,1,0-.725-.669,10.776,10.776,0,0,1-15.119,0,.494.494,0,1,0-.725.669Z" transform="translate(-957.74 -3074.008)"/><path class="l" d="M769,1634.363s1.869-.111,4.659-.2c1.395-.056,3.041-.112,4.77-.112,1.757-.028,3.6-.056,5.468-.056s3.738.028,5.467.056c1.757,0,3.375.056,4.77.112,2.79.084,4.659.2,4.659.2s-1.869.112-4.659.2c-1.395.028-3.013.112-4.77.112-1.729.028-3.6.028-5.467.056-1.869-.028-3.71-.028-5.468-.056-1.729,0-3.375-.084-4.77-.112C770.869,1634.474,769,1634.363,769,1634.363Z" transform="translate(-747.549 -1588.417)"/><path class="l" d="M994,1789.363s1.088-.112,2.762-.2c.809-.028,1.785-.112,2.817-.112,1.032-.028,2.148-.056,3.264-.056,1.088,0,2.2.028,3.236.056,1.032,0,2.008.084,2.845.112,1.646.084,2.762.2,2.762.2s-1.116.112-2.762.2c-.837.056-1.813.112-2.845.14s-2.148.028-3.236.028c-1.116,0-2.232,0-3.264-.028s-2.008-.084-2.817-.14C995.088,1789.474,994,1789.363,994,1789.363Z" transform="translate(-966.272 -1739.093)"/><path class="l" d="M737,1912.363s.725-.112,1.757-.2c1.06-.084,2.455-.167,3.877-.167,1.395,0,2.79.084,3.85.167s1.757.2,1.757.2-.7.112-1.757.223c-1.06.083-2.455.139-3.85.139-1.423,0-2.817-.056-3.877-.139C737.725,1912.474,737,1912.363,737,1912.363Z" transform="translate(-716.441 -1858.661)"/><path class="l" d="M1389,1912.363s.7-.112,1.757-.2c1.032-.084,2.455-.167,3.849-.167s2.818.084,3.85.167c1.06.083,1.757.2,1.757.2s-.7.112-1.757.223c-1.032.083-2.455.139-3.85.139s-2.817-.056-3.849-.139C1389.7,1912.474,1389,1912.363,1389,1912.363Z" transform="translate(-1350.253 -1858.661)"/><path class="m" d="M1093.856,3199.066c-3.515-1.9-5.161-.949-5.161-.949a1.214,1.214,0,0,1-1.562,0c-1.674-.921-5.133.949-5.133.949s1.534,1.423,5.914,1.534A13.9,13.9,0,0,0,1093.856,3199.066Z" transform="translate(-1051.817 -3108.653)"/><path class="m" d="M1110,3255.084s.781,3.264,5.356,3.236a5.545,5.545,0,0,0,4.993-3.32A12.955,12.955,0,0,1,1110,3255.084Z" transform="translate(-1079.036 -3164.196)"/><path class="g" d="M692.6,3732.365v4.073a7.4,7.4,0,0,0,6.807,6.583s.251,7.7-7.253,7.058c0,0-9.261-1.284-9.261-10.1,0,0-.948-5.886,4.659-8.09C687.546,3731.891,691.089,3730.384,692.6,3732.365Z" transform="translate(-663.78 -3627.25)"/><path class="g" d="M1316.772,3732.365v4.073a7.4,7.4,0,0,1-6.807,6.583s-.251,7.7,7.253,7.058c0,0,9.261-1.284,9.261-10.1,0,0,.948-5.886-4.631-8.09C1321.849,3731.891,1318.279,3730.384,1316.772,3732.365Z" transform="translate(-1273.423 -3627.25)"/></g></g></svg>