<svg xmlns="http://www.w3.org/2000/svg" width="110.918" height="98" viewBox="0 0 110.918 98"><defs><style>.a,.d{fill:#d4c19c;}.a{opacity:0.3;}.b{fill:#b38e5d;}.b,.c,.d,.e,.f{stroke:#b38e5d;}.b,.c,.d,.e,.f,.g{stroke-linecap:round;stroke-linejoin:round;}.b,.c,.f,.g{fill-rule:evenodd;}.c,.e,.g{fill:#fff;}.f{fill:none;}.g{stroke:#fff;}</style></defs><g transform="translate(-782.082 -2099)"><circle class="a" cx="49" cy="49" r="49" transform="translate(795 2099)"/><g transform="translate(10.651 10.278)"><path class="b" d="M520.436,330H466.744A3.722,3.722,0,0,0,463,333.744v3.787h53.649v-3.787A3.759,3.759,0,0,1,520.436,330Z" transform="translate(308.931 1765.769)"/><path class="c" d="M610.861,333.744V403.6a3.759,3.759,0,0,1-3.744,3.787H558.53a3.759,3.759,0,0,1-3.744-3.787V333.744A3.759,3.759,0,0,0,551,330h56.117A3.722,3.722,0,0,1,610.861,333.744Z" transform="translate(224.675 1765.769)"/><rect class="d" width="41.822" height="10.509" transform="translate(786.566 2101.555)"/><rect class="e" width="20.932" height="17.443" transform="translate(786.566 2118.489)"/><path class="f" d="M1386,864h17.231M1386,881.443h11.4m-11.4-5.829h17.231M1386,869.829h17.231" transform="translate(-574.8 1254.488)"/><rect class="d" width="23.698" height="4.467" transform="translate(786.566 2142.526)"/><rect class="e" width="14.423" height="15.997" transform="translate(814.008 2142.526)"/><path class="f" d="M807,1660h23.7" transform="translate(-20.434 492.354)"/><path class="f" d="M807,1805h23.7" transform="translate(-20.434 353.523)"/><path class="c" d="M728,1979.53h53.692a3.8,3.8,0,0,0,3.787-3.786V1972H731.787v3.744A3.8,3.8,0,0,1,728,1979.53Z" transform="translate(55.205 193.628)"/><circle class="d" cx="16.593" cy="16.593" r="16.593" transform="translate(818.943 2114.915)"/><path class="g" d="M1937.894,980.657a.915.915,0,1,1,0,1.829.915.915,0,0,1,0-1.829Zm0-4.637h0a.937.937,0,0,0,.936-.894v-9.232a.909.909,0,0,0-.936-.893h0a.9.9,0,0,0-.893.893v9.232A.928.928,0,0,0,1937.894,976.019Z" transform="translate(-1102.358 1157.785)"/></g></g></svg>