<svg xmlns="http://www.w3.org/2000/svg" width="112.784" height="98" viewBox="0 0 112.784 98"><defs><style>.a{fill:#d4c19c;opacity:0.3;}.b{fill:#fff;}.b,.c,.d{stroke:#b38e5d;}.c,.d{fill:none;}.d,.f,.g,.h{fill-rule:evenodd;}.e{fill:#b38e5d;}.f{fill:#42515c;}.g{fill:#5eab99;}.h{fill:#e0896f;}</style></defs><g transform="translate(-569.216 -2495)"><circle class="a" cx="49" cy="49" r="49" transform="translate(584 2495)"/><g transform="translate(569.716 2512.931)"><rect class="b" width="100" height="57.146" rx="4" transform="translate(0 0)"/><ellipse class="c" cx="6.535" cy="6.535" rx="6.535" ry="6.535" transform="translate(7.028 2.25)"/><path class="d" d="M110,304c-12.128,5.357-30.041,8.742-50.011,8.742a156.817,156.817,0,0,1-30.812-2.914m-12.149-3.15A69.876,69.876,0,0,1,10,304" transform="translate(-10 -297.7)"/><line class="c" x2="36.662" transform="translate(38.569 26.462)"/><line class="c" x2="49.711" transform="translate(38.569 41.676)"/><line class="c" x2="49.711" transform="translate(38.569 44.697)"/><line class="c" x2="36.662" transform="translate(38.569 31.841)"/><line class="c" x2="10.221" transform="translate(38.569 48.811)"/><line class="c" x2="10.199" transform="translate(53.975 48.811)"/><line class="c" x2="10.199" transform="translate(70.516 48.811)"/><path class="e" d="M.342-1.285V-3.6H.809v2.316Zm.918,0V-3.6h.455l.948,1.547V-3.6H3.1v2.316H2.628l-.934-1.51v1.51Zm2.213-.754.455-.044a.555.555,0,0,0,.167.336.5.5,0,0,0,.339.107.521.521,0,0,0,.34-.1.284.284,0,0,0,.115-.224A.211.211,0,0,0,4.84-2.1a.385.385,0,0,0-.168-.1Q4.59-2.226,4.3-2.3a1.27,1.27,0,0,1-.528-.229.6.6,0,0,1-.213-.466.6.6,0,0,1,.1-.331.628.628,0,0,1,.289-.235A1.159,1.159,0,0,1,4.4-3.64a.978.978,0,0,1,.656.191.675.675,0,0,1,.231.51l-.468.021a.4.4,0,0,0-.129-.257.471.471,0,0,0-.3-.078.534.534,0,0,0-.319.084A.169.169,0,0,0,4-3.026a.178.178,0,0,0,.07.141,1.229,1.229,0,0,0,.43.155,2.268,2.268,0,0,1,.5.167.651.651,0,0,1,.256.235.688.688,0,0,1,.092.369.682.682,0,0,1-.111.373.663.663,0,0,1-.313.258,1.312,1.312,0,0,1-.5.085,1,1,0,0,1-.675-.2A.883.883,0,0,1,3.473-2.038Zm2.8.754V-3.209H5.584V-3.6h1.84v.392H6.738v1.924Zm1.441,0V-3.6h.468v2.316Zm1.434,0V-3.209H8.459V-3.6H10.3v.392H9.614v1.924ZM10.6-3.6h.468v1.254a2.6,2.6,0,0,0,.017.387.375.375,0,0,0,.143.228.5.5,0,0,0,.309.086.471.471,0,0,0,.3-.081.321.321,0,0,0,.122-.2,2.606,2.606,0,0,0,.021-.393V-3.6h.468v1.216a3.126,3.126,0,0,1-.038.589.652.652,0,0,1-.14.291.706.706,0,0,1-.273.189,1.185,1.185,0,0,1-.445.07,1.283,1.283,0,0,1-.5-.077.72.72,0,0,1-.271-.2.638.638,0,0,1-.131-.257,2.813,2.813,0,0,1-.046-.588Zm2.861,2.316V-3.209h-.687V-3.6h1.84v.392h-.686v1.924Zm1.3-1.144a1.473,1.473,0,0,1,.106-.594,1.09,1.09,0,0,1,.216-.318.9.9,0,0,1,.3-.209,1.271,1.271,0,0,1,.5-.092,1.087,1.087,0,0,1,.819.318,1.217,1.217,0,0,1,.307.883,1.213,1.213,0,0,1-.3.878,1.079,1.079,0,0,1-.815.317,1.09,1.09,0,0,1-.821-.315A1.2,1.2,0,0,1,14.76-2.428Zm.482-.016a.868.868,0,0,0,.182.6.592.592,0,0,0,.461.2.587.587,0,0,0,.459-.2.885.885,0,0,0,.179-.6.871.871,0,0,0-.175-.594.591.591,0,0,0-.464-.2.6.6,0,0,0-.466.2A.875.875,0,0,0,15.242-2.444Zm3.033,1.16V-3.6h.455l.948,1.547V-3.6h.434v2.316h-.469l-.934-1.51v1.51Zm4.42,0h-.509l-.2-.526h-.926l-.191.526h-.5l.9-2.316h.494ZM21.835-2.2l-.319-.859L21.2-2.2Zm2.591.065.453.144a1.017,1.017,0,0,1-.347.563.989.989,0,0,1-.615.184,1,1,0,0,1-.758-.315,1.206,1.206,0,0,1-.3-.862,1.266,1.266,0,0,1,.3-.9,1.024,1.024,0,0,1,.785-.32.963.963,0,0,1,.69.251.914.914,0,0,1,.237.427l-.463.111a.491.491,0,0,0-.171-.284.491.491,0,0,0-.317-.1.527.527,0,0,0-.418.185.906.906,0,0,0-.16.6.971.971,0,0,0,.158.626.513.513,0,0,0,.411.186.468.468,0,0,0,.321-.118A.688.688,0,0,0,24.426-2.136Zm.84.852V-3.6h.468v2.316Zm.818-1.144a1.473,1.473,0,0,1,.106-.594,1.09,1.09,0,0,1,.216-.318.9.9,0,0,1,.3-.209,1.271,1.271,0,0,1,.5-.092,1.087,1.087,0,0,1,.819.318,1.217,1.217,0,0,1,.307.883,1.213,1.213,0,0,1-.3.878,1.079,1.079,0,0,1-.815.317,1.09,1.09,0,0,1-.821-.315A1.2,1.2,0,0,1,26.084-2.428Zm.482-.016a.868.868,0,0,0,.182.6.592.592,0,0,0,.461.2.587.587,0,0,0,.459-.2.885.885,0,0,0,.179-.6.871.871,0,0,0-.175-.594.591.591,0,0,0-.464-.2.6.6,0,0,0-.466.2A.875.875,0,0,0,26.566-2.444ZM28.7-1.285V-3.6h.455L30.1-2.054V-3.6h.434v2.316h-.469l-.934-1.51v1.51Zm4.42,0h-.509l-.2-.526h-.926l-.191.526h-.5L31.7-3.6h.494ZM32.26-2.2l-.319-.859-.313.859Zm1.122.916v-2.3h.468v1.907h1.163v.39Zm2.8,0V-3.6H37.9v.392h-1.25V-2.7h1.163v.39H36.653v.63h1.294v.39Zm2.171,0v-2.3h.468v1.907h1.163v.39Zm1.964,0V-3.6h1.717v.392h-1.25V-2.7H41.95v.39H40.787v.63h1.294v.39Zm3.64-.852.453.144a1.017,1.017,0,0,1-.347.563.989.989,0,0,1-.615.184,1,1,0,0,1-.758-.315,1.206,1.206,0,0,1-.3-.862,1.266,1.266,0,0,1,.3-.9,1.024,1.024,0,0,1,.785-.32.963.963,0,0,1,.69.251.913.913,0,0,1,.237.427l-.463.111a.491.491,0,0,0-.171-.284.491.491,0,0,0-.317-.1.527.527,0,0,0-.418.185.906.906,0,0,0-.16.6.971.971,0,0,0,.158.626.513.513,0,0,0,.411.186.468.468,0,0,0,.321-.118A.688.688,0,0,0,43.96-2.136Zm1.376.852V-3.209h-.687V-3.6h1.84v.392H45.8v1.924Zm1.3-1.144a1.473,1.473,0,0,1,.106-.594,1.09,1.09,0,0,1,.216-.318.9.9,0,0,1,.3-.209,1.271,1.271,0,0,1,.5-.092,1.087,1.087,0,0,1,.819.318,1.217,1.217,0,0,1,.307.883,1.213,1.213,0,0,1-.3.878,1.079,1.079,0,0,1-.815.317,1.09,1.09,0,0,1-.821-.315A1.2,1.2,0,0,1,46.637-2.428Zm.482-.016a.868.868,0,0,0,.182.6.592.592,0,0,0,.461.2.587.587,0,0,0,.459-.2.885.885,0,0,0,.179-.6.871.871,0,0,0-.175-.594.591.591,0,0,0-.464-.2.6.6,0,0,0-.466.2A.875.875,0,0,0,47.119-2.444Zm2.131,1.16V-3.6h.984a1.685,1.685,0,0,1,.539.062.532.532,0,0,1,.269.222.667.667,0,0,1,.1.365.618.618,0,0,1-.153.43.736.736,0,0,1-.458.214,1.091,1.091,0,0,1,.25.194,2.639,2.639,0,0,1,.266.376l.283.452h-.559l-.338-.5a3.269,3.269,0,0,0-.246-.34.359.359,0,0,0-.141-.1.771.771,0,0,0-.235-.026h-.095v.967Zm.468-1.336h.346a1.787,1.787,0,0,0,.42-.028.252.252,0,0,0,.131-.1.3.3,0,0,0,.047-.174A.278.278,0,0,0,50.6-3.11a.286.286,0,0,0-.176-.091q-.057-.008-.341-.008h-.365Zm3.956,1.336h-.509l-.2-.526h-.926l-.191.526h-.5l.9-2.316h.494ZM52.813-2.2l-.319-.859-.313.859Zm1.122.916v-2.3H54.4v1.907h1.163v.39Z" transform="translate(35.469 7.064)"/><path class="e" d="M1.592-1.678l.245.062a.825.825,0,0,1-.277.461A.764.764,0,0,1,1.07-1a.88.88,0,0,1-.487-.122A.762.762,0,0,1,.3-1.472a1.26,1.26,0,0,1-.1-.5,1.092,1.092,0,0,1,.111-.5A.758.758,0,0,1,.624-2.8a.919.919,0,0,1,.449-.112.76.76,0,0,1,.468.142.735.735,0,0,1,.264.4l-.241.057a.573.573,0,0,0-.187-.294A.5.5,0,0,0,1.069-2.7a.6.6,0,0,0-.357.1.541.541,0,0,0-.2.275,1.107,1.107,0,0,0-.058.356,1.131,1.131,0,0,0,.069.413.513.513,0,0,0,.214.264.6.6,0,0,0,.315.087A.527.527,0,0,0,1.4-1.325.608.608,0,0,0,1.592-1.678Zm.551.65V-2.881h.821a1.093,1.093,0,0,1,.377.05.412.412,0,0,1,.206.176.526.526,0,0,1,.077.279.466.466,0,0,1-.128.332.646.646,0,0,1-.394.172.636.636,0,0,1,.148.092,1.274,1.274,0,0,1,.2.246l.322.5H3.467l-.245-.385q-.107-.167-.177-.255a.556.556,0,0,0-.124-.124.368.368,0,0,0-.112-.049.737.737,0,0,0-.136-.009H2.388v.823Zm.245-1.035h.527A.79.79,0,0,0,3.178-2.1a.28.28,0,0,0,.144-.111.3.3,0,0,0,.049-.166.276.276,0,0,0-.1-.216.446.446,0,0,0-.3-.085H2.388ZM4.013-1.028V-2.881h1.34v.219H4.259V-2.1H5.284v.217H4.259v.631H5.4v.219Zm1.721,0V-2.881h.638a1.548,1.548,0,0,1,.33.027.628.628,0,0,1,.272.133.754.754,0,0,1,.219.317,1.243,1.243,0,0,1,.073.44,1.294,1.294,0,0,1-.049.374.908.908,0,0,1-.126.27.671.671,0,0,1-.169.168A.688.688,0,0,1,6.7-1.06a1.262,1.262,0,0,1-.3.032Zm.245-.219h.4a.96.96,0,0,0,.288-.034.411.411,0,0,0,.166-.1.584.584,0,0,0,.136-.234,1.146,1.146,0,0,0,.049-.357.862.862,0,0,0-.1-.447.48.48,0,0,0-.232-.209.959.959,0,0,0-.317-.038H5.98Zm1.629.219V-2.881h1.34v.219H7.854V-2.1H8.879v.217H7.854v.631H8.992v.219Zm1.719,0V-2.881h.252l.973,1.455V-2.881h.235v1.853h-.252L9.563-2.484v1.456Zm3.194-.65.245.062a.825.825,0,0,1-.277.461A.764.764,0,0,1,12-1a.88.88,0,0,1-.487-.122.762.762,0,0,1-.286-.353,1.26,1.26,0,0,1-.1-.5,1.092,1.092,0,0,1,.111-.5.758.758,0,0,1,.315-.327A.919.919,0,0,1,12-2.913a.76.76,0,0,1,.468.142.735.735,0,0,1,.264.4l-.241.057a.573.573,0,0,0-.187-.294A.5.5,0,0,0,12-2.7a.6.6,0,0,0-.357.1.541.541,0,0,0-.2.275,1.107,1.107,0,0,0-.058.356,1.131,1.131,0,0,0,.069.413.513.513,0,0,0,.214.264.6.6,0,0,0,.315.087.527.527,0,0,0,.349-.119A.608.608,0,0,0,12.522-1.678Zm.589.65V-2.881h.245v1.853Zm.474,0L14.3-2.881h.264l.758,1.853h-.279l-.216-.561h-.775l-.2.561Zm.535-.761h.628L14.554-2.3q-.088-.234-.131-.384a2.362,2.362,0,0,1-.1.354Zm1.385.761V-2.881h.245v1.634h.912v.219Zm2.073,0V-2.881h.7a1.687,1.687,0,0,1,.282.018.558.558,0,0,1,.229.087.454.454,0,0,1,.149.179.568.568,0,0,1,.056.253.57.57,0,0,1-.15.4.721.721,0,0,1-.543.164h-.475v.753ZM17.822-2H18.3a.508.508,0,0,0,.337-.088.315.315,0,0,0,.1-.249.335.335,0,0,0-.059-.2.275.275,0,0,0-.155-.109,1.048,1.048,0,0,0-.229-.016h-.474Zm1.086.972.712-1.853h.264l.758,1.853h-.279l-.216-.561h-.775l-.2.561Zm.535-.761h.628L19.877-2.3q-.088-.234-.131-.384a2.362,2.362,0,0,1-.1.354Zm1.4.761V-2.881h.821a1.093,1.093,0,0,1,.377.05.412.412,0,0,1,.206.176.526.526,0,0,1,.077.279.466.466,0,0,1-.128.332.646.646,0,0,1-.394.172.636.636,0,0,1,.148.092,1.274,1.274,0,0,1,.2.246l.322.5h-.308l-.245-.385q-.107-.167-.177-.255a.556.556,0,0,0-.124-.124.368.368,0,0,0-.112-.049.737.737,0,0,0-.136-.009h-.284v.823Zm.245-1.035h.527a.79.79,0,0,0,.263-.035.28.28,0,0,0,.144-.111.3.3,0,0,0,.049-.166.276.276,0,0,0-.1-.216.446.446,0,0,0-.3-.085h-.586ZM22.5-1.028l.712-1.853h.264l.758,1.853h-.279l-.216-.561h-.775l-.2.561Zm.535-.761h.628L23.473-2.3q-.088-.234-.131-.384a2.362,2.362,0,0,1-.1.354Zm2.5.761-.718-1.853h.265l.482,1.346q.058.162.1.3.043-.152.1-.3l.5-1.346h.25L25.79-1.028Zm1.122-.9a1.007,1.007,0,0,1,.248-.722.842.842,0,0,1,.639-.261.887.887,0,0,1,.463.123.8.8,0,0,1,.314.342,1.11,1.11,0,0,1,.108.5,1.092,1.092,0,0,1-.114.5A.777.777,0,0,1,28-1.111a.921.921,0,0,1-.45.114.876.876,0,0,1-.468-.126.813.813,0,0,1-.312-.345A1.046,1.046,0,0,1,26.661-1.931Zm.253,0a.742.742,0,0,0,.18.528.592.592,0,0,0,.452.193A.591.591,0,0,0,28-1.4a.787.787,0,0,0,.179-.552.949.949,0,0,0-.076-.395.587.587,0,0,0-.224-.262.606.606,0,0,0-.33-.093.627.627,0,0,0-.448.179A.8.8,0,0,0,26.914-1.927Zm2.306.9V-2.663h-.61v-.219h1.469v.219h-.613v1.634Zm.714,0,.712-1.853h.264l.758,1.853h-.279l-.216-.561H30.4l-.2.561Zm.535-.761H31.1L30.9-2.3q-.088-.234-.131-.384a2.361,2.361,0,0,1-.1.354Zm1.4.761V-2.881h.821a1.093,1.093,0,0,1,.377.05.412.412,0,0,1,.206.176.526.526,0,0,1,.077.279.466.466,0,0,1-.128.332.646.646,0,0,1-.394.172.636.636,0,0,1,.148.092,1.274,1.274,0,0,1,.2.246l.322.5h-.308l-.245-.385q-.107-.167-.177-.255a.556.556,0,0,0-.124-.124.368.368,0,0,0-.112-.049.737.737,0,0,0-.136-.009h-.284v.823Zm.245-1.035h.527A.79.79,0,0,0,32.9-2.1a.28.28,0,0,0,.144-.111.3.3,0,0,0,.049-.166.276.276,0,0,0-.1-.216.446.446,0,0,0-.3-.085h-.586Z" transform="translate(35.519 10.734)"/><path class="e" d="M.3-1.266V-3.118H.666L1.1-1.806q.061.183.088.274.032-.1.1-.3l.444-1.289h.33v1.853H1.829V-2.816L1.29-1.266H1.069L.533-2.843v1.577Zm2.169,0V-3.118h1.34V-2.9H2.711v.567H3.736v.217H2.711v.631H3.848v.219Zm.506-1.967.168-.354h.3l-.278.354ZM4-1.266l.717-.966-.632-.887h.292l.336.475a2.7,2.7,0,0,1,.149.227,2.419,2.419,0,0,1,.147-.211l.373-.492h.267L5-2.245l.7.979h-.3l-.466-.661q-.039-.057-.081-.124-.062.1-.088.139l-.465.646Zm1.956,0V-3.118H6.2v1.853Zm2-.65.245.062a.825.825,0,0,1-.277.461.764.764,0,0,1-.49.159.88.88,0,0,1-.487-.122.762.762,0,0,1-.286-.353,1.26,1.26,0,0,1-.1-.5,1.092,1.092,0,0,1,.111-.5.758.758,0,0,1,.315-.327.919.919,0,0,1,.449-.112.76.76,0,0,1,.468.142.735.735,0,0,1,.264.4l-.241.057a.573.573,0,0,0-.187-.294.5.5,0,0,0-.308-.092.6.6,0,0,0-.357.1.541.541,0,0,0-.2.275,1.107,1.107,0,0,0-.058.356,1.131,1.131,0,0,0,.069.413.513.513,0,0,0,.214.264.6.6,0,0,0,.315.087.527.527,0,0,0,.349-.119A.608.608,0,0,0,7.954-1.915Zm.473-.253a1.007,1.007,0,0,1,.248-.722.842.842,0,0,1,.639-.261.887.887,0,0,1,.463.123.8.8,0,0,1,.314.342,1.11,1.11,0,0,1,.108.5,1.092,1.092,0,0,1-.114.5.777.777,0,0,1-.322.337.921.921,0,0,1-.45.114.876.876,0,0,1-.468-.126.813.813,0,0,1-.312-.345A1.046,1.046,0,0,1,8.427-2.168Zm.253,0a.742.742,0,0,0,.18.528.592.592,0,0,0,.452.193.591.591,0,0,0,.456-.195.787.787,0,0,0,.179-.552.949.949,0,0,0-.076-.395.587.587,0,0,0-.224-.262.606.606,0,0,0-.33-.093.627.627,0,0,0-.448.179A.8.8,0,0,0,8.68-2.164Z" transform="translate(21.48 10.064)"/><line class="c" y2="49.196" transform="translate(3.343 7.671)"/><line class="c" y2="49.004" transform="translate(4.521 8.121)"/><line class="c" y2="49.154" transform="translate(2.7 7.435)"/><g transform="translate(10.156 24.953)"><g transform="translate(2.4 0)"><path class="f" d="M606.756,1198.032c1.821-1.286,2.593-2.893,1.993-4.093a3.664,3.664,0,0,1-.536-3.6c.236-.857.75-1.928,1.35-3.492a9.952,9.952,0,0,0-.579-9.428c-1.736-3.171-6.45-3.685-9.042-1.736-6.557,4.928.836,13.435-3.943,16.842Zm0,0Z" transform="translate(-596 -1174.538)"/></g><path class="g" d="M484.857,1857.54l-.857,7.178h19.884l-.857-7.157C500.949,1850.1,487.043,1849.762,484.857,1857.54Z" transform="translate(-484 -1837.324)"/><path class="h" d="M833.571,1766.779c0,4.2-5.571,4.157-5.571-.043V1765h5.571Z" transform="translate(-820.629 -1752.348)"/><path class="h" d="M737.974,1369c-.107,2.336-2.764,4.178-2.228,6.321a8.365,8.365,0,0,0,2.486,3.729,3.115,3.115,0,0,0,4.414-.257,5.359,5.359,0,0,0,1.307-4.864C743.417,1372.45,738.66,1371.828,737.974,1369Z" transform="translate(-730.282 -1364.833)"/><path class="f" d="M1022.014,1599a4.83,4.83,0,0,1-.771,4.092c-1.457,2.4-1.864,2.486-.879,4.778.964,2.271,3.343,2.635,1.393,5.357,0,0,2.528-1.907,1.993-3.343C1021.586,1604.143,1025.292,1602.686,1022.014,1599Z" transform="translate(-1008.344 -1589.905)"/></g><rect class="c" width="26.184" height="30.426" transform="translate(7.028 21.92)"/></g></g></svg>