<svg xmlns="http://www.w3.org/2000/svg" width="128" height="120.567" viewBox="0 0 128 120.567"><defs><style>.a{fill:#d4c19c;opacity:0.3;}.b{fill:#13add1;}.c{fill:#c1bfbf;}.d{fill:#f36f23;}.e{fill:#f7ae4f;}.f{fill:#e08d2b;}.g{fill:#edeced;}.h{fill:#ffc776;}.i{fill:#17c6cd;}</style></defs><g transform="translate(-994 -1381)"><circle class="a" cx="55" cy="55" r="55" transform="translate(994 1386)"/><g transform="translate(1022 1381.238)"><g transform="translate(0 -0.238)"><path class="b" d="M8065,3362v7.2a2.414,2.414,0,0,0,2.415-2.415v-2.366A2.414,2.414,0,0,0,8065,3362Z" transform="translate(-7967.622 -3321.404)"/><path class="c" d="M6846.424,1766.843c2.209,3.9.507,9.044-3.8,11.483s-9.587,1.256-11.8-2.644-.507-9.044,3.8-11.483S6844.215,1762.943,6846.424,1766.843Z" transform="translate(-6747.392 -1741.642)"/><path class="c" d="M4480.012,6.844l-17.387,9.8a43.1,43.1,0,0,0-5.409-8.512,5.145,5.145,0,0,1-1.485-3.634,3.12,3.12,0,0,1,1.848-2.415C4461.49.022,4470.969,1.06,4480.012,6.844Z" transform="translate(-4401.917 -1.093)"/><path class="d" d="M5060.492,492a42.186,42.186,0,0,0-15.1-17L5028,484.816c11.881,24.088,4.262,50.385,6.931,56.29C5043.322,559.8,5079.255,530.022,5060.492,492Z" transform="translate(-4967.291 -469.262)"/><path class="e" d="M2837.643,1585.883c-12.509,3.224-16.868,10.746-16.771,18.618,18.389-.314,32.733,14.706,33.6,32.938C2874.312,1620.7,2869.507,1577.684,2837.643,1585.883Z" transform="translate(-2786.811 -1565.716)"/><path class="f" d="M2149.335,3211.6c5.9,9.043.676,12.569-4.878,12.75a3.649,3.649,0,0,0-3.115,2c-.978,2.209,1.582,5.965,3.393,7.039,3.164,1.908,4.129,4.491,3.888,6.568a14.427,14.427,0,0,1,6.508,13.982,21.826,21.826,0,0,1,5.638,6.1c2.2,3.32,4.142,3.453,6.085,2.862.121-.036,9.213-12.545,16.083-18.365C2182.068,3226.311,2167.724,3211.291,2149.335,3211.6Z" transform="translate(-2115.273 -3172.82)"/><path class="g" d="M1569.194,4613.1a17.1,17.1,0,1,1-17.1-17.1A17.1,17.1,0,0,1,1569.194,4613.1Z" transform="translate(-1516.466 -4540.504)"/><path class="h" d="M67.664,989.961c-6.87,5.82-15.962,18.329-16.083,18.365-1.944.592-3.888.459-6.085-2.862a21.826,21.826,0,0,0-5.639-6.1c-9.152-5.856-6.122,9.406-12.9,5.47-2.415-1.413-4.371-5.615-5.119-8.1-.918-3.043-.254-13.5,5.228-10.106,2.33,4.274,5.892,2.173,6.279-1.244.241-2.077-.724-4.661-3.888-6.568-1.811-1.075-4.371-4.83-3.393-7.039a3.649,3.649,0,0,1,3.115-2c5.554-.181,10.782-3.707,4.878-12.75-.1-7.872,4.262-15.395,16.771-18.618C82.7,930.206,87.5,973.227,67.664,989.961ZM55.541,929.518C25.03,927.972,19.79,959.643,19.79,959.643c-1.992,4.3-5.47,5.023-15.479,2.874a63.495,63.495,0,0,0,1.884,50.349c11.036-6.689,21.154,2.391,21.154,2.391-5.252,13.656,4.057,26.334,17.339,23.013,8.138-2.028,15.153-9.768,12.4-19.536-1.159-8.1,8.114-18.534,8.114-18.534C95.8,975.038,90.532,929.88,55.541,929.518Z" transform="translate(0 -918.238)"/><path class="i" d="M1275.884.755a3.12,3.12,0,0,0-1.847,2.415c-12.968-2.21-22.977,1.026-29.171,9.539-11.181,15.358-7.921,45.025,2.33,60.3l-2.246,1.509c-5.252-7.812-8.85-19.476-9.647-31.2-.881-13.04,1.739-24.474,7.365-32.2C1247.727,4.172,1257.507-2.891,1275.884.755Z" transform="translate(-1220.222 0.238)"/><path class="d" d="M1861.414,5867.707a3.707,3.707,0,1,1-3.707-3.707A3.707,3.707,0,0,1,1861.414,5867.707Z" transform="translate(-1831.615 -5793.194)"/></g></g></g></svg>