<svg xmlns="http://www.w3.org/2000/svg" xmlns:xlink="http://www.w3.org/1999/xlink" width="208.499" height="369.521" viewBox="0 0 208.499 369.521"><defs><style>.a{fill:#d4c19c;}.b{fill-rule:evenodd;fill:url(#a);}.c{fill:#bf937b;}.d{fill:#8f7d6d;}.e{fill:#d8bfa3;}.f{fill:#4d4d4d;}.g{fill:#c89a81;}.h{fill:#eaeeef;}.i{fill:#736357;}.j{fill:#c4c7c4;}.k{fill:#998675;}.l{fill:#333;}</style><linearGradient id="a" x1="1" y1="0.493" x2="0" y2="0.493" gradientUnits="objectBoundingBox"><stop offset="0" stop-color="#ccc"/><stop offset="1" stop-color="#ccc"/></linearGradient></defs><ellipse class="a" cx="104.145" cy="5.08" rx="104.145" ry="5.08" transform="translate(0.209 359.339)"/><path class="b" d="M5972.817,20778.838c1.978,0,4.069-.328,5.606-.328,22.428-.326,44.855-.768,67.284-1.1q18.962-.328,37.927-.66-18.965.325-37.927.66c-22.429.332-44.856.773-67.284,1.1-1.537,0-3.628.328-5.606.328-2.529,0-4.949-.436-6.158-2.416C5967.868,20778.4,5970.289,20778.838,5972.817,20778.838Zm-6.268-2.531Zm0,0c0-.107,0-.107-.11-.107C5966.55,20776.2,5966.55,20776.2,5966.55,20776.307Zm131.378-.439a4.424,4.424,0,0,0,1.977-.764A4.424,4.424,0,0,1,6097.928,20775.867Zm-131.818-.875a.666.666,0,0,1-.109-.445v-.109A.829.829,0,0,0,5966.11,20774.992Zm133.906,0a1.634,1.634,0,0,0,.221-.992A1.634,1.634,0,0,1,6100.016,20774.992Z" transform="translate(-5903.468 -20409.316)"/><path class="c" d="M7480.65,18884.318c-3.849,1.428-6.706,4.727-7.035,8.244l.108.664.549.547a4.481,4.481,0,0,0,3.187.436,11.578,11.578,0,0,0,3.19-.873c1.539-.551,3.08-1.1,4.619-1.646a18.677,18.677,0,0,0,4.176-1.984,2.9,2.9,0,0,0,1.43-2.854,4.394,4.394,0,0,0-1.54-1.98c-.989-.773-2.2-2.527-3.846-2.2a15.654,15.654,0,0,0-2.091.775C7482.521,18883.771,7481.53,18883.988,7480.65,18884.318Z" transform="translate(-7459.894 -18725.875)"/><path class="d" d="M6977.219,18604.535a2.407,2.407,0,0,0-1.1.98,2.459,2.459,0,0,0,.114,1.762c.986,2.529,3.737,4.178,6.485,4.619s5.5-.109,8.244-.553a169.751,169.751,0,0,0,16.6-3.625c8.8-2.639,17.041-6.7,25.285-10.777,1.979-.986,4.178-2.082,4.838-4.174a8.388,8.388,0,0,0,.111-3.295c-.441-5.061-.662-14.512-3.957-18.473-4.62,2.193-9.016,6.268-13.415,9.016-4.728,2.961-9.455,5.607-14.293,8.354C6996.459,18593.645,6986.676,18598.705,6977.219,18604.535Z" transform="translate(-6952.177 -18448.504)"/><path class="e" d="M7443.314,18984.094c1.648-8.691,8.683-15.176,18.36-14.072,9.013.986,14.62,10.549,11.543,19.02-1.1,2.961-5.937,1.646-4.837-1.434,4.945-14.295-15.283-18.689-20.011-4.838-3.078,9.016-4.067,107.629-4.067,117.084,0,10.006-.44,20.227.109,30.232.439,10.555-1.318,28.582-2.638,39.139a.882.882,0,0,1-1.76,0c-1.978-15.064.661-37.713.111-52.881C7439.574,19102.051,7440.784,18998.166,7443.314,18984.094Z" transform="translate(-7439.267 -18803.553)"/><path class="f" d="M6273.366,19425.664a19.188,19.188,0,0,0,11.545-4.066c-7.366-12.863-14.622-25.729-21.878-38.588a77.591,77.591,0,0,1-6.155-12.537c-1.979-5.383-2.751-11.1-3.521-16.818-2.858-21.986,3.958-44.525,1.1-66.51a13.224,13.224,0,0,0-1.538-5.387c-2.749-4.619-19.131-3.959-24.408-3.191a5.886,5.886,0,0,0-3.3,1.32c-.88.992-.771,2.531-.662,3.844,1.434,17.486-6.814,1.213-5.385,18.7.439,6.158,8.244,46.064,10.113,52,3.19,10.342,8.355,22.428,15.062,31.121C6254.568,19398.84,6263.033,19409.834,6273.366,19425.664Z" transform="translate(-6115.957 -19077.799)"/><path class="f" d="M6824.385,19361.855c-7.367-.223-14.842-.437-22.317-.547-.44-.992,1.429-.221,1.429.883a491.058,491.058,0,0,0,9.015,100.7c2.748,14.293,6.158,28.586,6.268,43.205,3.076,0,6.157,0,9.125-.109,1.1-45.51,5.936-91.357,7.034-136.867,0-2.311-3.958-4.621-5.715-6.049C6827.9,19361.969,6826.143,19361.855,6824.385,19361.855Z" transform="translate(-6730.08 -19151.523)"/><path class="g" d="M6845.569,17626.254a3.989,3.989,0,0,0-.878-1.656c-3.959-5.6-7.914-11.213-11.875-16.705-2.747-4.068-6.044-8.354-10.883-9.346-6.375-1.211-12.094,3.959-17.59,7.586a176.69,176.69,0,0,1,5.278,23.744c.657,4.51,1.1,9.123,2.857,13.414s4.947,8.137,9.235,9.564c7.365,2.422,15.171-3.074,19.238-9.783a35.615,35.615,0,0,0,4.727-14.951A3.521,3.521,0,0,0,6845.569,17626.254Z" transform="translate(-6741.151 -17582.801)"/><path class="h" d="M6724.83,17499.344a4.64,4.64,0,0,1,2.309-4.4,3.622,3.622,0,0,1,4.616,1.426c.99,1.871-.108,4.18-.658,6.162-1.759,6.705,2.86,13.3,7.036,18.8a39.265,39.265,0,0,1,6.6-13.635c2.42-3.187,5.5-6.486,5.278-10.443-.221-2.193-1.321-4.182-1.429-6.375-.221-2.971,1.539-5.83,1.1-8.795-.329-3.3-3.077-5.719-5.717-7.586a78.754,78.754,0,0,0-20.338-10.334c-2.088-.66-4.4-1.43-5.5-3.3-.55-.99-.658-2.092-1.43-2.969-1.318-1.432-3.519-1.209-5.388-.881-5.826,1.1-11.763,2.086-16.709,5.275a15.145,15.145,0,0,1-3.958,2.09c-2.75.771-5.828-.66-8.686-.109-3.189.658-5.387,3.74-5.937,7.037-.441,3.188.441,6.379,1.43,9.566,2.2.326,4.287.654,6.485.986a8.456,8.456,0,0,0,2.088,8.8,21.717,21.717,0,0,0,10.774-4.729c2.09-1.76,4.067-4.068,6.815-4.4,2.75-.219,5.169,1.762,7.587,3.08s6.048,1.756,7.477-.549A36.531,36.531,0,0,1,6724.83,17499.344Z" transform="translate(-6631.291 -17456.775)"/><path class="i" d="M6364.341,18290.945c2.639-35.953,3.739-71.789,2.31-107.52-.109-3.734-.109-12.748,1.318-18.578a92.15,92.15,0,0,1,3.079-15.5c1.979-7.471,4.948-17.256,13.193-20.227,5.937-2.307,14.293,1.434,19.9,3.625a77.2,77.2,0,0,1,36.06,29.242,53.158,53.158,0,0,1,7.035,15.723,75.859,75.859,0,0,1,1.542,13.2c.658,11.762,1.428,23.637,1.1,35.393-.332,15.395-2.311,30.68-4.291,45.854a109.384,109.384,0,0,1-2.858,15.719c0,1.758.109,3.41.109,5.168q-33.308,2.795-66.733,5.6c-2.637.223-5.5.438-7.7-.223C6364.341,18297.209,6364.122,18293.906,6364.341,18290.945Z" transform="translate(-6296.971 -18054.559)"/><path class="j" d="M6736.981,18016.357a12.451,12.451,0,0,1,4.946-.107,9.627,9.627,0,0,1,3.96,2.637,17.813,17.813,0,0,1,4.616,13.41,4.764,4.764,0,0,1-.879,2.641c-.879,1.209-2.527,1.543-4.069,1.762-10.881,1.535-21.767,2.852-32.76,3.734a23.663,23.663,0,0,1-7.367-.109,11.346,11.346,0,0,1-8.684-8.027c-2.088-8.572,5.606-10.553,11.983-11.543C6718.071,18019.324,6727.525,18017.785,6736.981,18016.357Z" transform="translate(-6634.102 -17954.547)"/><path class="j" d="M7077.662,18126.986c.224,5.936.77,11.873.224,17.809a112.61,112.61,0,0,1-2.751,14.734c-1.1,4.172-2.089,8.355-3.189,12.645a9.589,9.589,0,0,1-1.1,2.965c-.988,1.318-2.637,1.428-4.066,1.535a5.512,5.512,0,0,1-4.287-.982c-1.979-1.766-2.089-5.395-2.089-8.467a311.1,311.1,0,0,1,7.806-58.162c1.428-6.043,7.365-10,9.893-2.193C7079.751,18111.924,7077.553,18121.488,7077.662,18126.986Z" transform="translate(-7002.267 -18031.539)"/><path class="g" d="M7450.135,18913.662a32.787,32.787,0,0,0,3.408-.326q4.452-.826,8.905-1.982c.329-.109.769-.217.878-.547v-.768a14.36,14.36,0,0,0-2.307-3.961,5.142,5.142,0,0,0-2.64-2.2,10.057,10.057,0,0,0-4.067.225,13.433,13.433,0,0,1-7.476-1.1,1.134,1.134,0,0,0-.33,1.65,3.092,3.092,0,0,0,1.539,1.1c-1.429.77-3.077.223-3.958.553a23.049,23.049,0,0,0-3.3,1.1l-.661.549c-.439.66.331,1.541.988,1.977C7443.867,18911.682,7446.837,18913.555,7450.135,18913.662Z" transform="translate(-7428.607 -18744.008)"/><path class="k" d="M6694.069,18446.746c.219-.439.771-.658,1.209-.877,16.051-6.051,33.972-9.787,45.954-22.1,8.244-8.355,12.863-19.9,20.561-28.8a16.457,16.457,0,0,1,6.375-4.947,8.917,8.917,0,0,1,8.354,1.318,12.206,12.206,0,0,1,4.069,9.676c-.11,3.3-1.54,6.27-2.969,9.123a235.657,235.657,0,0,1-14.512,22.865,62.69,62.69,0,0,1-7.477,9.457c-7.586,7.145-18.578,9.346-29.353,10.771a256.75,256.75,0,0,1-30.674,1.98c-.548-2.2-.99-4.51-1.539-6.711A3.143,3.143,0,0,1,6694.069,18446.746Z" transform="translate(-6663.858 -18286.982)"/><path class="l" d="M6195.118,20610.4l-.88.551c-.55.66-.441,1.43-.659,2.2-.33,1.873-2.089,3.191-3.958,3.854a50.686,50.686,0,0,0-5.5,1.535,4.626,4.626,0,0,0-1.65,1.322c-.88,1.316-.218,3.188-.439,4.723,2.419.992,5.058.441,7.588-.219a76.222,76.222,0,0,0,16.49-6.7c.658-.441,1.539-1,1.649-1.869a1.818,1.818,0,0,0-.55-1.32c-.991-1.758-2.64-6.158-4.508-7.037C6200.726,20606.439,6196.877,20609.52,6195.118,20610.4Z" transform="translate(-6034.737 -20260.885)"/><path class="l" d="M6884.025,20688.625c-1.318-.109-2.859-.109-3.628.994-.55.877-.33,2.2-1.209,2.971a2.719,2.719,0,0,1-1.868.543c-2.31.113-4.619.33-6.928.438a7.21,7.21,0,0,0-2.637.66c-1.321.883-1.649,2.641-1.761,4.18l.111.664.549.219a47.954,47.954,0,0,0,5.607,0c4.507-.109,9.124-.219,13.632-.332a3.019,3.019,0,0,0,2.2-.551,3.358,3.358,0,0,0,.66-1.43c.439-1.758,1.431-5.164.77-6.812S6885.785,20688.844,6884.025,20688.625Z" transform="translate(-6791.919 -20333.285)"/></svg>