<?xml version="1.0" encoding="utf-8"?>
<!-- Generator: Adobe Illustrator 21.1.0, SVG Export Plug-In . SVG Version: 6.00 Build 0)  -->
<svg version="1.1" id="Capa_1" xmlns="http://www.w3.org/2000/svg" xmlns:xlink="http://www.w3.org/1999/xlink" x="0px" y="0px"
	 viewBox="0 0 1344.1 1668" style="enable-background:new 0 0 1344.1 1668;" xml:space="preserve">
<style type="text/css">
	.st0{fill:#D4C19C;}
	.st1{fill:url(#SVGID_1_);}
	.st2{fill:#F2E7D6;}
	.st3{fill:#537082;}
	.st4{fill:#666666;}
	.st5{fill:#FFFFFF;}
	.st6{fill:#B3B3B3;}
	.st7{fill:#FCEE9F;}
	.st8{fill:#808080;}
	.st9{fill:url(#SVGID_2_);}
	.st10{fill:#707070;}
	.st11{fill:#4D4D4D;}
	.st12{fill:#EDEDED;}
	.st13{fill:#736357;}
</style>
<g>
	<g transform="translate(0)">
		<ellipse class="st0" cx="1056.3" cy="1139.4" rx="122.6" ry="15.5"/>
		
			<linearGradient id="SVGID_1_" gradientUnits="userSpaceOnUse" x1="597.8255" y1="474.9405" x2="600.8049" y2="474.9405" gradientTransform="matrix(91.3613 0 0 -10.0488 -53636.043 5914.9912)">
			<stop  offset="0" style="stop-color:#CCCCCC"/>
			<stop  offset="1" style="stop-color:#CCCCCC"/>
		</linearGradient>
		<path class="st1" d="M1054.6,1158c-15.4,0-30.9-0.3-46.3-1c-8.9-0.3-38.7,1.4-30.5-15.1c3.4-6.9,17.8-11.3,27.4-13.4
			c-9.6,2.1-24,6.5-27.4,13.4c-8.2,16.4,21.6,14.7,30.5,15.1C1023.8,1157.6,1039.2,1158,1054.6,1158c20.6,0,41.5-0.7,62.4-1.7
			C1096.1,1157.3,1075.2,1158,1054.6,1158z M1217.5,1148.1c12-1.4,23.7-3.1,35.3-4.8c2.4-0.3,4.8-0.7,7.2-1.4
			c-2.4,0.6-4.8,1.1-7.2,1.4C1241.1,1145,1229.5,1146.7,1217.5,1148.1L1217.5,1148.1z M1214.4,1127.5h2.8c5.1,0,10.3-0.3,15.4-0.3
			l0,0c-5.1,0-10.3,0.3-15.4,0.3H1214.4z M1032.7,1126.8L1032.7,1126.8z"/>
		<path class="st2" d="M1043.3,190.3c-7.2-10.7-11.4-23.1-12-36c-1.7-27.1,0-55.2,11-79.9c13-28.5,45.3-56.9,79.2-49.7
			c39.8,8.6,37,59.6,34.3,93.6c-2,27.1-12,54.2-31.9,72.7C1094,218,1060.8,214.6,1043.3,190.3z"/>
		<path class="st3" d="M1010.4,1106.9c-14.7-168-26.4-362-41.1-530.3c42.8-4.1,85.9-5.5,128.9-4.1c13.4,0.3,37.4-5.1,40.1,10.6
			c2.1,10.6-7.2,33.6-8.9,45.3c-11.7,77.5-38.7,152.5-43.2,231.4c-1,23-0.7,45.9-1,68.9c-1.1,38.9-4.4,77.7-9.9,116.2
			c-2.1,15.1-12,43.2-8.2,57.6c3.4,12,22.3,18.9,34.3,23.7c4.2,1.3,8,3.6,11.3,6.5c3.1,3.1,4.5,8.6,1.4,12
			c-2.8,2.4-6.6,3.5-10.3,3.1c-29.4,0.4-58.8-2.1-87.8-7.2c-1.8-0.1-3.5-0.8-4.8-2.1c-1-1.1-1.7-2.4-2.1-3.8
			c-2.3-9.3-1.5-19,2.4-27.8L1010.4,1106.9z"/>
		<path class="st4" d="M1335.7,209.8c4.6,0,8.4,3.8,8.4,8.4c0,1.9-0.7,3.8-1.9,5.3c-29.8,44.2-57.5,87.6-83,130.3
			c-3.4,5.5-7.5,11.7-13.7,13c-4.1,0.6-8.3-0.1-12-2.1l-50.7-18.9c-4.2-1.6-6.4-6.3-4.8-10.5c0.2-0.5,0.4-1,0.7-1.5
			c25.2-44.6,53.7-87.2,85.3-127.5c2.7-3.4,7-5.1,11.3-4.5C1295.3,206,1315.4,208.6,1335.7,209.8z"/>
		<path class="st5" d="M1314.1,225.2c3.3,0,6,2.7,6,6.1c0,1.3-0.4,2.5-1.2,3.5c-20.9,30.9-40.1,61.7-58.3,92.2
			c-2.4,3.8-5.2,8.2-9.6,9.3c-3,0.4-6.1-0.1-8.9-1.4l-36.3-13c-3-0.9-4.7-4.2-3.8-7.2c0.2-0.5,0.4-1,0.6-1.4
			c18.2-31.9,38.7-62.3,61.4-91.2c1.9-2.3,4.9-3.5,7.9-3.1C1285.8,222.2,1299.9,224.2,1314.1,225.2z"/>
		<path class="st4" d="M1243.2,191c-7.9-1.6-15.7-3.8-23.3-6.5c-1.5-0.6-2.2-2.3-1.6-3.8c0.6-1.4,2.2-2.2,3.7-1.7
			c7.5,2.7,14.7,5.8,22.6,8.2C1246.9,187.9,1245.5,191.3,1243.2,191z"/>
		<path class="st4" d="M1249.7,180c-2.9-5.8-4.7-12.1-5.2-18.5c-0.3-3.8,5.2-5.1,5.8-1c0.7,6.2,2,12.2,3.8,18.2
			C1254.8,181,1251.1,182,1249.7,180z"/>
		<path class="st4" d="M1263.8,180c0.1-8.8,1.2-17.5,3.4-26.1c1-3.8,6.5-3.4,6.2,0.3c-1.4,8.6-2.4,18.2-5.8,26.4
			C1266.8,183.1,1263.8,182,1263.8,180z"/>
		<path class="st6" d="M1253.1,245.5c0.5-4.3,3.7-7.8,7.9-8.9c4.2-0.7,8.5-0.6,12.7,0.3c9.6,1.4,18.9,2.7,27.8,4.1
			c-0.4,4.1-3.4,7.2-6.5,10.3c-0.8,0.9-1.7,1.6-2.8,2.1c-2.2,0.5-4.5,0.2-6.5-0.7C1275.2,248.9,1264.2,246.5,1253.1,245.5z"/>
		<path class="st6" d="M1279.5,271.9c-9.2-5.1-19-8.9-29.1-11.3c-1.7-0.3-2.4,2.1-1,2.4c9.8,3,19.3,6.9,28.5,11.7
			C1279.5,275.6,1281.2,272.9,1279.5,271.9z"/>
		<path class="st6" d="M1273.7,278c-10.7-3.7-21.9-5.6-33.3-5.8c-0.7-0.1-1.2,0.4-1.3,1.1c-0.1,0.7,0.4,1.2,1.1,1.3
			c0.1,0,0.1,0,0.2,0c11,0.8,21.8,3,32.2,6.5C1274.7,281.8,1275.4,278.7,1273.7,278z"/>
		<path class="st6" d="M1264.1,291c-9.9-3.8-19.9-6.9-29.8-9.9c-1.4-0.3-2,1.7-0.7,2.4c9.9,3.4,19.6,7.2,29.8,10.3
			c0.8,0.2,1.5-0.3,1.7-1C1265.3,292,1264.8,291.2,1264.1,291L1264.1,291z"/>
		<path class="st6" d="M1257.6,302.7c-9.6-2.7-19.6-5.1-29.5-7.5c-1.4-0.3-2,2.1-0.7,2.4c10,2.7,19.6,5.8,29.5,8.2
			c0.9,0.1,1.7-0.5,1.8-1.4C1258.8,303.7,1258.3,302.9,1257.6,302.7z"/>
		<path class="st6" d="M1249.3,315.4c-8.6-2.1-17.2-3.8-25.7-5.5c-1.4-0.3-2,2.1-0.7,2.4c8.6,2.1,16.8,4.5,25.4,6.2
			C1250.3,318.8,1251.4,315.7,1249.3,315.4z"/>
		<path class="st2" d="M1162.3,369.2c2.1-0.2,4.1-0.5,6.2-1c2.1-0.7,4-1.8,5.8-3.1c17.5-12,37-22.3,57.9-23c2.6-0.2,5.1,0.2,7.5,1
			c2.7,1.6,4.6,4.4,5.1,7.5c1.7,6.9-2,14.4-7.2,19.2c-5.7,4.4-12.1,7.9-18.8,10.3c-12.7,5.1-24.7,9.9-37.4,15.1
			c-9.6,3.8-19.5,7.9-29.8,6.2c-2.4-6.2-4.8-12.7-3.1-19.2C1150.2,375.6,1155.5,370.5,1162.3,369.2z"/>
		<path class="st7" d="M1153.4,421c15.4-4.8,31.2-9.3,47-13.4c-7.5-19.6-15.1-39.1-22.6-59c-8.6,3.8-17.1,7.5-25.7,11.3
			c0-6.5-0.4-12.7-0.7-18.9c-1.4-28.5-2.7-57.9-13.7-83.6c-46.3-107.3-106.3-67.9-151.2,2.1c-32.9,51.8-57.6,119.6-62.7,158.7
			c-7.6,56.2-0.4,368.9,36.3,414.8c18.9,23.7,169.4,43.2,196.1-48.3C1151.6,681.8,1155.1,539.3,1153.4,421z"/>
		<path class="st8" d="M1136.5,15.1c6.5,6.8,12,14.4,16.5,22.6c5.5,9.3,11,18.5,12.7,29.1c0.9,6.1,0.9,12.4,0,18.5
			c-1.4,10.8-3.8,21.5-7.2,31.9h-5.5c1-11.3,2.1-23,2.7-34.3c0.5-3.3,0.5-6.6,0-9.9c-2.5-8.5-10-14.6-18.8-15.1
			c-8.7-0.3-17.2,2.5-24,7.9c-6.6,5.5-12.6,11.7-17.8,18.5c-7.9,8.9-16.1,17.8-24.7,26.4c-2.7,2.7-6.8,5.8-10.3,4.1
			c-1.4-0.9-2.7-2.1-3.8-3.4c-4.4-2.9-10.3-1.9-13.4,2.4c-2.7,4.6-2.1,10.4,1.4,14.4c3.6,3.8,8.9,5.5,14.1,4.5
			c-1,14.4-2,28.8-3.1,43.2c-0.2,4-0.9,7.9-2.1,11.7c-3.4,8.2-12.7,13-21.6,13.4c-8.9-0.1-17.6-2.4-25.4-6.9
			c-7.2-3.2-13.8-7.9-19.2-13.7c-5.4-6-8.2-13.9-7.9-21.9c0.2-6.3,3.7-12.1,9.3-15.1c5.8-2.7,13.7-1,16.5,4.8
			c2.4,5.1,0.7,12.3,5.5,15.8c4,2,8.9,0.7,11.3-3.1c2.1-3.9,3.1-8.3,2.7-12.7c0.3-21.3-4.1-42.2-4.8-63.4
			c-0.7-20.9,3.4-43.9,17.5-59.3c4.8-5.3,10.5-9.7,16.8-13c12.7-7.8,27.3-12.1,42.2-12.3C1111-0.3,1125.5,5.1,1136.5,15.1z"/>
	</g>
	<ellipse class="st0" cx="207.2" cy="1635.9" rx="194" ry="24.8"/>
	
		<linearGradient id="SVGID_2_" gradientUnits="userSpaceOnUse" x1="582.9502" y1="497.0015" x2="585.9855" y2="497.0015" gradientTransform="matrix(51.3506 0 0 -18.0122 -29873.6953 10592.1426)">
		<stop  offset="0" style="stop-color:#C7C7C7"/>
		<stop  offset="1" style="stop-color:#C7C7C7"/>
	</linearGradient>
	<path class="st9" d="M218.8,1668H200c-31.3-0.5-62.5-0.5-93.8-2.2c-1.6-0.4-3.3-0.5-4.9-0.4l0,0c1.7-0.1,3.3,0.1,4.9,0.4
		c31.3,1.8,62.5,1.8,93.8,2.2H218.8z M90.5,1665.8c-10.3,0-21.4-0.9-26.8-4.9c-8-6.3-3.6-19.7,2.7-25.5c6.7-6.3,15.6-8.9,24.1-11.2
		c35.9-8.5,72.6-12.6,109.5-12.1h-0.4c-36.7-0.5-73.3,3.6-109,12.1c-8.5,2.2-17.4,4.9-24.1,11.2c-6.3,5.8-10.7,19.2-2.7,25.5
		C69.1,1664.9,80.3,1665.7,90.5,1665.8L90.5,1665.8z"/>
	<path class="st10" d="M337.6,992.5c0.4-4,1.3-8,1.8-12.1c1.8-14.3,3.1-30.4-5.8-41.1c-3.1-4-38-1.8-44.2-2.2
		c-12.1-1.9-24.1-4.7-35.7-8.5c-25.4-7.2-52.2-8.4-78.2-3.6c-20.7,4-41.6,6.8-62.5,8.5c-7.4,0.9-14.8,2.6-21.9,4.9
		c-25.5,6.7-23.7,7.6-19.7,33.5c3.1,22.3,5.8,44.2,8,66.6c4,42.9,0.9,87.1,6.3,129.1c5.4,40.2,8.5,80.9,11.6,121.5
		c7.1,99.2,15.2,198.4,25.5,297.1c-6.6,6.9-12.7,14.2-18.3,21.9c-8,11.6-16.1,25.5-14.3,40.7c15.2,6.7,31.3-3.1,45.6-12.5l18.3-12.1
		c41.6-28.1,24.6-101.4,26.4-152.4c1.8-66.6,4-133.1,6.3-200.2c0.4-13.9-6.3-159.9,13.4-159.1c11.2,0.5,16.1,202.8,17,224.7
		c1.8,56.3,2.7,112.6,1.8,168.9c-0.4,48.3-16.1,100.1,24.6,127.3l18.3,12.5c13.9,9.4,30.4,18.8,45.6,12.1
		c1.8-14.7-6.3-28.6-14.7-40.2c-5.1-8-11.1-15.3-17.9-21.9c-3.1-3.1,4.5-42.9,4.9-49.1c1.8-18.3,3.1-36.2,4.9-54.5
		c3.6-42.4,6.7-84.4,9.4-126.4C302.3,1240.9,321.1,1116.7,337.6,992.5z"/>
	<path class="st2" d="M217.9,379c13.9,0,27.3-8.5,37.1-18.8c37.1-38,35.7-97.8,32.2-151c0-5.8-1.3-11.4-4-16.5
		c-4.9-7.1-14.3-8.9-23.2-9.8c-36.6,0-73.3,1.8-110.4,3.6c-3.1-0.2-6.2,0.6-8.9,2.2c-2.5,2.3-3.9,5.5-4,8.9
		c-2.7,15.2,2.2,31.3,1.8,46.5c-0.4,16.2,0.8,32.3,3.6,48.3c5.4,30.4,19.2,59,46,76.4C196.7,375,207.1,378.6,217.9,379z"/>
	<path class="st2" d="M370.7,567.6c2.7-0.2,5.4-0.7,8-1.3c2.7-1.1,5.2-2.4,7.6-4c22.8-16.1,48.7-29.5,76.4-30.4
		c3.2-0.3,6.5,0.3,9.4,1.8c3.6,1.9,6.3,5.4,7.1,9.4c2.2,9.4-2.7,19.2-9.8,25.5c-7.3,6.1-15.6,10.8-24.6,13.8
		c-16.5,6.3-32.6,13-49.1,19.7c-12.5,4.9-25.9,10.3-39.3,8c-3.1-8-6.3-17-4-25.5C354.7,575.8,361.8,569.3,370.7,567.6z"/>
	<path class="st11" d="M359.1,635.5c20.1-6.3,40.7-12.1,61.2-17.4c-9.8-25.5-19.7-51.4-29.5-77.3l-33.5,14.7
		c-0.4-8.5-0.9-16.5-0.9-24.6c-1.8-37.5-3.6-76.4-18.3-110.4c-11.6-26.8-13.9-33.5-37.5-52.7c-33.5,18.3-119.3,25-147.9,0
		c-23.2,13-22.8-0.5-40.7,27.7C68.7,463,63.7,581,57,631.9c-9.8,74.2-54.5,281-6.3,341.3c24.6,31.3,214.9,25,329.7-9.4
		C374.7,828.9,360.9,790.9,359.1,635.5z"/>
	<path class="st12" d="M237.5,422.4c-55.4-3.1-111.7-6.7-166.7,0.4c-6.9,0.9-12.1,6.5-12.5,13.4c-2.6,54.9-2.3,110,0.9,164.9
		c0.6,7.8,7.4,13.6,15.2,13c0.1,0,0.3,0,0.4,0c80.4-6.7,163.5-6.7,243.9-6.7c7.8,0.1,14.2-6.1,14.3-13.9c0-0.1,0-0.2,0-0.4
		c-0.4-49.1-3.6-103.2-4-152.4c-0.1-7.5-5.9-13.7-13.4-14.3L237.5,422.4z"/>
	<path class="st4" d="M50.8,371c-2.2-12.1-4-24.6-8.5-36.2c-1.8-5.4-10.3-2.7-8.5,2.7c3.6,11.6,8.5,23.2,11.2,35.3
		C45.9,376.3,51.7,374.5,50.8,371z"/>
	<path class="st4" d="M33.8,380.8c-8.8-5.1-18.5-8.3-28.6-9.4c-5.4-0.9-7.6,7.6-1.8,8.5c9.4,1.7,18.7,4.1,27.7,7.1
		C35.1,388.4,36.9,382.6,33.8,380.8z"/>
	<path class="st4" d="M32.5,401.8c-13-0.9-27.3,1.8-40.2,4c-5.8,0.9-5.8,9.4,0.4,8.9c13.4-1.3,28.1-2.2,40.7-6.7
		c1.7-0.5,2.7-2.3,2.2-4C35.1,402.7,33.9,401.8,32.5,401.8z"/>
	<path class="st2" d="M77.6,636.4c-7.6,7.6-17.9,16.5-28.1,12.5c-3.4-1.1-6.4-3.3-8.5-6.3c-8-11.2-6.3-26.4-1.3-38.9
		c7.6-21,22.8-38.9,37.5-55.8c12.1-13.8,28.6-29.5,46.5-24.6c3.4,0.8,6.5,2.9,8.5,5.8c1.5,3,2,6.5,1.3,9.8
		C130.3,576.9,103.9,608.7,77.6,636.4z"/>
	<path class="st11" d="M8.4,679.3c-2.3-4.1-3.1-8.8-2.2-13.4c4.4-37.6,19.1-73.3,42.4-103.2c14.3,21.4,30.9,41.2,49.6,59
		c-20.1,21.4-31.7,32.6-50.5,51.8c-4,4-19.2,7.1-24.1,8.9C18.2,684.6,11.5,683.7,8.4,679.3z"/>
	<path class="st13" d="M186.6,189.1c-8.6,2.1-16.1,7.5-20.6,15.2c-11.2,17.4-9.4,38.9-13.9,58.5c-3.1,14.1-9.2,27.4-17.9,38.9
		c-4.3-8.6-7.9-17.6-10.7-26.8c-8.9-27.7-14.7-56.3-10.7-84.9s18.8-56.3,44.2-72.4c8-5.4,18.3-9.4,27.7-7.1
		c13,3.1,20.6,15.6,25,27.3c5.8,13.7,8,28.6,6.3,43.3c-1.3,7.1-2.7,14.3-9.4,13.4C199.1,193.6,196,186.9,186.6,189.1z"/>
	<path class="st13" d="M271.9,286.1c-4-8.9-4.9-18.8-7.1-28.6c-3.2-13.2-8-26-14.3-38c-3.4-6.5-8.1-12.1-13.9-16.5
		c-5.6-4.6-13-6.4-20.1-4.9c-2.7,0.5-4.9,1.8-7.1,1.3c-2.9-1.3-5.2-3.7-6.3-6.7c-4-7.6-8.5-15.6-8.9-24.6
		c-0.3-5.3,0.3-10.6,1.8-15.6c5.8-21.4,21.9-42,43.8-45.6c18.8-3.1,37.5,7.1,49.6,21.9c11.6,14.3,17.9,33.1,21.9,51.4
		c2.9,10.6,4.3,21.6,4,32.6c-0.9,21.4-11.2,41.6-17,61.7c-1.3,4.5-2.7,28.6-5.4,29.9C285.8,308.4,274.2,291,271.9,286.1z"/>
	<path class="st5" d="M209.8,522c0,4.5-0.9,9.4-1.3,14.3v-0.4c-9.8-5.8-18.8-12.5-28.1-18.8c4.5-1.8,9.4-3.6,13.9-4.9
		c5.3-1.5,10.6-2.6,16.1-3.1C210.6,513.4,210.4,517.7,209.8,522z M216.5,504.6l-2.2-2.7c-6.7-1.3-14.3,1.3-20.6,3.1
		c-7.8,2-15.4,4.7-22.8,8c-2.7,0.9-2.2,4.9,0,6.3c11.4,7.4,23.1,14.1,35.3,20.1h1.8c-0.4,4.5,6.3,6.3,7.1,1.8
		C216.5,530,219.7,515.3,216.5,504.6L216.5,504.6z"/>
</g>
</svg>
