<svg xmlns="http://www.w3.org/2000/svg" xmlns:xlink="http://www.w3.org/1999/xlink" width="162.794" height="314.209" viewBox="0 0 162.794 314.209"><defs><style>.a{fill:#d4c19c;}.b{fill-rule:evenodd;fill:url(#a);}.c{fill:#f9e9de;}.d{fill:#97a8b2;}.e{fill:#ebefeb;}.f{fill:#f9e0cf;}.g{fill:#afd9c4;}.h{fill:#441a19;}.i{fill:#333;}.j{fill:#fff;}.k{fill:#efefef;}.l{fill:#666;}</style><linearGradient id="a" y1="0.501" x2="1" y2="0.501" gradientUnits="objectBoundingBox"><stop offset="0" stop-color="#ccc"/><stop offset="1" stop-color="#ccc"/></linearGradient></defs><g transform="translate(0.194 1.014)"><ellipse class="a" cx="58" cy="3.5" rx="58" ry="3.5" transform="translate(-0.194 305.126)"/><path class="b" d="M1429.922,20721.363a86.21,86.21,0,0,0,12.517-.7c1.663-.176,3.851-1.141,3.763-2.715v.176c0,1.488-2.1,2.363-3.763,2.539a86.21,86.21,0,0,1-12.517.7c-3.064,0-6.214-.086-9.278-.176-15.055-.348-30.109-.785-45.164-1.223-9.89-.348-20.043-.609-29.234-4.2-1.05-.437-2.275-1.227-2.275-2.277,0,1.051,1.225,1.84,2.275,2.277,9.19,3.59,19.344,3.852,29.234,4.2,15.055.438,30.109.875,45.164,1.223C1423.707,20721.277,1426.771,20721.363,1429.922,20721.363Zm-65.382-9.363Z" transform="translate(-1343.971 -20408.168)"/><path class="c" d="M2038,20490.09l-.175.352-.613.176a25.425,25.425,0,0,1-4.464-.441c-.613-.086-1.4-.352-1.575-.961a2.579,2.579,0,0,1,.175-.875c.7-1.66,1.313-3.414,1.926-5.078l.088-.172.35-.09a13.119,13.119,0,0,1,3.151.348c.7.09,1.926.18,2.276.879.262.7-.263,1.926-.437,2.539C2038.44,20487.9,2038.265,20488.953,2038,20490.09Z" transform="translate(-1997.127 -20199.211)"/><path class="c" d="M1627.09,20492.6c-1.4.086-4.814.172-6.214.258l-.35-.086-.175-.434a39.754,39.754,0,0,1,.088-5.605l.175-.437.437-.176a37.534,37.534,0,0,1,4.376-.348,3.154,3.154,0,0,1,2.013.438c.613.348.525.613.438,1.227C1627.615,20489.094,1627.44,20490.844,1627.09,20492.6Z" transform="translate(-1549.892 -20201.719)"/><path class="d" d="M1740.966,19021.055a13.156,13.156,0,0,1-8.753-.961c3.063-10.328,3.938-13.391,7-23.719a54.053,54.053,0,0,0,2.276-9.891c.525-4.113.087-8.312-.262-12.52-1.576-16.1-5.514-69.582-7.09-85.687a12.891,12.891,0,0,1,.175-4.117c1.225-3.676,11.991-4.285,15.842-4.637.875-.086,7.264-.086,7.965.352.788.609,7.09-.527,7.177.438,1.926,12.6-5.164,39.215-5.251,52.777,0,4.555-1.838,33.352-2.188,37.813a71.285,71.285,0,0,1-6.389,23.543C1746.48,19005.563,1745.78,19008.1,1740.966,19021.055Z" transform="translate(-1697.378 -18736.043)"/><path class="d" d="M1457.949,18890.488c.962-.785,10.59-1.488,11.816-1.488l15.23.266c.35,24.6-4.552,92.168-9.278,116.32-2.013,10.418-4.289,13.918-4.376,24.508h-8.577c-.788-33.168-7.177-102.23-7.965-135.4C1454.8,18893.027,1456.723,18891.539,1457.949,18890.488Z" transform="translate(-1392.479 -18744.73)"/><path class="e" d="M1472.572,17917.8c-2.188.352-4.289,1.227-6.565,1.75a22.311,22.311,0,0,1-13.3-.961c-2.013-.789-3.939-1.926-6.039-2.625-2.1-.613-4.552-.789-6.389.348-2.713,1.488-3.589,4.906-4.026,7.965-1.488,11.207-.262,22.758-2.188,33.879-.7,3.852-1.75,7.609-2.8,11.375-1.926,7-3.939,14-5.864,20.922-1.4,4.9-2.538,10.676.788,14.527,2.188,2.449,5.689,3.328,8.928,3.848a179.333,179.333,0,0,0,45.426,2.105,2.85,2.85,0,0,0,3.063-2.277c2.275-5.953.875-12.43-.175-18.645-3.763-21.621-3.239-43.676-4.026-65.648C1479.224,17919.465,1478.261,17916.836,1472.572,17917.8Z" transform="translate(-1389.597 -17856.422)"/><path class="c" d="M1260.852,17961.006c-.875-3.152-1.926-9.365.438-10.941,2.276-1.49,6.564-1.051,8.84,1.4a17.718,17.718,0,0,1,3.063,5.688c3.5,9.363,7,18.82,10.5,28.184a36.763,36.763,0,0,1,2.1,6.65,3.561,3.561,0,0,1,0,1.662,1.9,1.9,0,0,1-1.138,1.051c-2.451,1.4-5.6,4.381-8.14,2.1-.963-.877-1.75-3.939-2.363-5.252a254.784,254.784,0,0,1-11.379-24.861A43.35,43.35,0,0,1,1260.852,17961.006Z" transform="translate(-1176.301 -17887.195)"/><path class="c" d="M1918.151,17934.986c-2.188.088-3.676,2.275-5.251,3.848-2.889,3.242-6.915,5.256-10.241,7.967a47.2,47.2,0,0,0-6.564,6.654c-2.013,2.188-3.939,4.375-5.952,6.652a23.95,23.95,0,0,0-2.8,3.676c-2.275,4.113-1.575,9.363.7,13.564s5.776,7.439,9.278,10.682c2.363,2.188,4.726,4.287,7,6.477a56.992,56.992,0,0,0,5.6,4.725,13.788,13.788,0,0,0,5.514,2.8,6.723,6.723,0,0,0,5.864-1.576,1.911,1.911,0,0,0,.525-2.187,2.839,2.839,0,0,0-1.225-.7c-.963-.26-1.838-.521-2.713-.787a2.944,2.944,0,0,1-1.05-.525c-.351-.348-.438-.873-.7-1.225a4.453,4.453,0,0,0-1.926-1.662c-7.265-4.377-13.83-10.941-15.843-19.168a5.111,5.111,0,0,1-.175-2.8,7.169,7.169,0,0,1,1.05-2.189,60.47,60.47,0,0,1,5.251-7.441c2.888-3.412,6.477-6.125,9.8-9.1,3.238-3.061,6.389-6.477,7.877-10.678C1923.4,17938.834,1922.089,17934.9,1918.151,17934.986Z" transform="translate(-1867.823 -17874.219)"/><path class="f" d="M1997.862,17823.438a11.838,11.838,0,0,1,4.114.961,7.192,7.192,0,0,1,3.063,3.59,22.925,22.925,0,0,1,1.75,6.039,12.793,12.793,0,0,1-1.576,8.664c-1.75,2.8-5.514,4.992-8.84,4.551-3.063-.348-4.989-2.625-6.39-4.9a53.193,53.193,0,0,1-3.238-5.687,11.172,11.172,0,0,1-1.4-4.379,9.194,9.194,0,0,1,1.05-4.988C1988.234,17823,1993.661,17823.086,1997.862,17823.438Z" transform="translate(-1960.838 -17772.297)"/><path class="g" d="M1774.948,18001.623a4,4,0,0,0-2.451,2.01,10.981,10.981,0,0,0-.262,1.664c-.088,4.465-.175,8.93-.35,13.393-.087,4.2-.175,8.58,1.488,12.342,1.926,4.463,5.952,7.705,10.416,9.8,4.376,2.1,9.1,3.238,13.654,4.813,2.188.789,4.727,1.576,6.74.438,1.838-1.047,2.451-3.412,2.8-5.428a2.845,2.845,0,0,0,0-1.486c-.525-1.488-2.8-1.139-4.026-2.1-1.05-.783-1.138-2.273-1.663-3.5-1.663-3.324-7.09-3.674-8.4-7.176a8.915,8.915,0,0,1,.087-4.551,44.053,44.053,0,0,0,.7-6.742,26.414,26.414,0,0,1,.262-5.25c.875-4.812,4.552-8.578,8.49-11.381a11.565,11.565,0,0,0,2.888-2.537,3.549,3.549,0,0,0,.525-3.678,3.589,3.589,0,0,0-2.451-1.574c-3.5-.873-7.09.965-9.89,3.242a41.6,41.6,0,0,0-4.114,3.76,6.911,6.911,0,0,1-3.851,1.84C1782.037,18000.311,1778.361,18000.225,1774.948,18001.623Z" transform="translate(-1742.3 -17924.836)"/><path class="h" d="M1979.094,17816.824c.263-1.668.7-3.5,2.1-4.383l.612-.348.525-.523a3.242,3.242,0,0,1,1.663-.965,23.517,23.517,0,0,1,6.039-1.574c2.363-.352,5.514-.613,7.7.7a8.009,8.009,0,0,1,1.926,1.93,5.073,5.073,0,0,0,1.575,1.047c.087,0,1.575.352,1.575-.086.087.785-.788,1.313-1.575,1.574a1.916,1.916,0,0,0,2.1.609,5.95,5.95,0,0,1-2.626.965,23.647,23.647,0,0,1-3.588-.348h-.087c-.876.789-2.626,1.227-3.326,1.66-3.326,1.926-6.564,4.816-10.591,4.816a4.307,4.307,0,0,1-3.413-1.312A5.061,5.061,0,0,1,1979.094,17816.824Z" transform="translate(-1956.687 -17759.029)"/><g transform="translate(-7.038 11.158) rotate(-8)"><path class="h" d="M1536.627,17253.016a7.876,7.876,0,0,0,.175-4.027,7.775,7.775,0,0,0-1.751-3.234,14.266,14.266,0,0,0-15.317-4.289c-3.676,1.309-6.915,4.723-6.915,8.66.088,3.766,3.239,7.008,6.827,8.145C1524.723,17259.844,1534.964,17259.055,1536.627,17253.016Z" transform="translate(-1449.538 -17240.74)"/><path class="i" d="M1457.695,17768.764a4.4,4.4,0,0,1,2.888,1.834,2.9,2.9,0,0,1-.437,2.887c-.525.879-1.313,1.582-1.926,2.453a14.486,14.486,0,0,0-2.013,3.59c-1.051,2.275-2.276,4.377-3.5,6.477a7.6,7.6,0,0,1-2.363,3.063,5.854,5.854,0,0,1-5.514,0,17.879,17.879,0,0,1-4.289-2.977,3.083,3.083,0,0,1-.876-.961c-.437-.961.176-2.1.876-2.977,2.451-3.588,4.989-7.178,7.527-10.676.7-1.053,2.363-4.381,3.589-4.555.7-.088,2.1.615,2.8.789C1455.507,17768.061,1456.644,17768.412,1457.695,17768.764Z" transform="translate(-1366.929 -17720.859)"/><path class="j" d="M1458.177,17792.943c-2.363-1.225-4.814-2.537-7.177-3.764a22.64,22.64,0,0,0,2.451-3.238,15.413,15.413,0,0,1,1.225-2.012,72.5,72.5,0,0,1,5.952-8.668l.262-.26.438.086c1.488.525,3.063,1.051,4.551,1.664a10.906,10.906,0,0,1,3.239,1.488l.263.352-.175.609c-1.4,2.277-2.8,4.553-4.114,6.918s-2.538,4.725-3.763,7.174c-.35.529-.438,1.139-1.226.789C1459.49,17793.73,1458.878,17793.293,1458.177,17792.943Z" transform="translate(-1376.515 -17728.24)"/><path class="j" d="M1605.713,17975.5a1.418,1.418,0,0,1-.963,1.4h-.875a1.218,1.218,0,0,1-.7-.437l-.175-.437a1.61,1.61,0,0,1,.35-1.137A1.338,1.338,0,0,1,1605.713,17975.5Z" transform="translate(-1526.152 -17910.176)"/><path class="c" d="M1458.933,17515.865a25.417,25.417,0,0,0-10.24,10.152c-2.626,4.637-4.289,10.068-3.239,15.318.962,5.164,5.164,9.98,10.416,10.59,3.588.348,7.09-1.139,9.978-3.152a27.041,27.041,0,0,0,10.941-23.719c-.175-3.678-.875-8.316-4.376-10.154C1468.737,17512.887,1462.435,17514.025,1458.933,17515.865Z" transform="translate(-1383.486 -17489.932)"/><path class="h" d="M1405.442,17425.6a7.813,7.813,0,0,1-3.326-2.277,34.555,34.555,0,0,0-11.9-7.529,8.443,8.443,0,0,0-4.114-.783,5.506,5.506,0,0,0-3.938,2.713,17.927,17.927,0,0,0-1.575,4.463c-.438.176-.875-.525-1.313-.787-.963-.527-1.838.787-1.663,1.75s.788,1.926.438,2.8a3.024,3.024,0,0,1-1.138,1.227,9.33,9.33,0,0,0-2.888,4.2l-.438.613-.612.088a5.15,5.15,0,0,1-3.939-2.539,9.048,9.048,0,0,1-1.05-4.463c-.175-6.391,2.451-12.342,5.076-18.119a18.374,18.374,0,0,1,2.539-4.377,15.818,15.818,0,0,1,4.289-3.238,26.654,26.654,0,0,1,6.74-2.715,23.972,23.972,0,0,1,14,1.316,16.252,16.252,0,0,1,4.552,2.447,20.54,20.54,0,0,1,7.527,14.531C1412.794,17418.332,1410.519,17426.824,1405.442,17425.6Z" transform="translate(-1312.576 -17382.512)"/></g><g transform="translate(-28.628 33.855) rotate(-17)"><path class="c" d="M878.475,18420.238c-2.8-.785-5.514-1.75-8.227-2.363a32.257,32.257,0,0,0-7.615-.875,4.382,4.382,0,0,0-3.151.965c-.963.875-.963,2.363-.875,3.676a8.1,8.1,0,0,0,.613,2.887c.7,1.574,2.451,2.453,4.114,2.891a33.377,33.377,0,0,0,5.952.7c9.978.613,20.131,1.227,30.022-.176,1.488-.262,4.989-1.137,4.552-3.414-.438-2.016-4.726-1.57-6.214-1.66A94.76,94.76,0,0,1,878.475,18420.238Z" transform="translate(-759.176 -18314.045)"/><path class="k" d="M745.774,18431.355A12.123,12.123,0,0,1,743.5,18436a11.265,11.265,0,0,1-3.151,2.188c-9.715,5.074-19.606,9.715-29.759,14-1.138-1.664-.613-3.852,0-5.777a77.54,77.54,0,0,0,1.926-9.8,5.659,5.659,0,0,1,.875-2.977,5.6,5.6,0,0,1,1.663-1.141c6.214-3.324,12.429-6.648,18.906-9.625q4.989-2.367,9.978-4.2c2.451-.965,6.915-3.59,5.777.789C748.575,18423.477,747.087,18427.418,745.774,18431.355Z" transform="translate(-592.165 -18314.045)"/></g><path class="l" d="M1417.111,20552.633a2.284,2.284,0,0,1,1.313.348,3.217,3.217,0,0,1,.788,2.191c.088,1.051.088,2.188.175,3.238a2.421,2.421,0,0,0,.263,1.137l.613.527c4.026,2.539,8.84,3.063,13.479,4.113a3.837,3.837,0,0,1,2.451,1.4,3.207,3.207,0,0,1,.262,2.191,2.449,2.449,0,0,1-.613,1.922,2.639,2.639,0,0,1-1.838.438c-1.4,0-2.713-.086-4.026-.172-6.915-.266-13.829-.613-20.744-.961l-.613-.09c-.437-.266-.437-.875-.437-1.312.087-4.379.087-8.754.437-13.043.088-1.578.525-2.1,2.1-2.277A26.215,26.215,0,0,1,1417.111,20552.633Z" transform="translate(-1339.913 -20262.367)"/><path class="l" d="M2037.138,20526.053a2.892,2.892,0,0,0-2.275.086,2.132,2.132,0,0,0-.875,1.227,25.207,25.207,0,0,0-1.313,5.773c-.7,4.729-2.625,9.105-3.413,13.83a2.941,2.941,0,0,0,0,.877l.613.7c1.751,1.49,4.026,2.893,6.3,2.629a6.824,6.824,0,0,0,5.252-3.852,18.76,18.76,0,0,0,1.751-6.479,80.827,80.827,0,0,0,.788-10.328c0-.611.35-2.1,0-2.627-.262-.521-.963-.436-1.575-.609C2040.639,20526.84,2038.889,20526.488,2037.138,20526.053Z" transform="translate(-2001.865 -20238.322)"/></g></svg>