<svg xmlns="http://www.w3.org/2000/svg" xmlns:xlink="http://www.w3.org/1999/xlink" width="158.848" height="434.435" viewBox="0 0 158.848 434.435"><defs><style>.a{fill:#d4c19c;}.b{fill-rule:evenodd;fill:url(#a);}.c{fill:#f2e4d7;}.d{fill:#998675;}.e{fill:#aa6a64;}.f{fill:#333;}.g{fill:#98b99d;}.h{fill:#9c615c;}.i{fill:#5b4a41;}</style><linearGradient id="a" x1="-0.001" y1="0.5" x2="1.001" y2="0.5" gradientUnits="objectBoundingBox"><stop offset="0" stop-color="#ccc"/><stop offset="1" stop-color="#ccc"/></linearGradient></defs><ellipse class="a" cx="69" cy="9" rx="69" ry="9" transform="translate(18.33 416.434)"/><path class="b" d="M4623.613,8216.74c1.19-.663,2.25-1.591,2.25-2.915C4625.862,8215.149,4624.8,8216.077,4623.613,8216.74Zm2.25-2.915v0Zm-3.575-3.309a.481.481,0,0,0-.4-.134A.481.481,0,0,1,4622.288,8210.517Zm-.4-.134c-.132,0-.265-.134-.4-.134C4621.626,8210.249,4621.759,8210.383,4621.891,8210.383Zm-53.1-1.325Zm32.177-1.059Zm.264,0h0Z" transform="translate(-4467.014 -7791.101)"/><path class="c" d="M5213.662,5771.24a20.27,20.27,0,0,0,1.324-4.635c2.914-16.947,2.782-32.836-.265-46.342-1.324-5.3-3.84-10.593-9-8.74a5.753,5.753,0,0,0-2.781,1.722c-3.576,3.311-4.1,8.872-3.972,12.977.4,14.036.794,28.071,2.648,41.047a19.169,19.169,0,0,0-3.443,3.178c-12.182,13.24-25.291,24.893-36.677,39.326-1.854,2.383-3.841,5.03-4.768,7.811-1.059,2.782-.794,5.826,1.059,6.091,1.589.266,3.574-1.324,5.3-2.78,7.945-6.752,15.756-13.373,23.7-20.127,7.413-6.223,15.094-12.843,20.919-21.715C5209.955,5776.536,5212.338,5774.286,5213.662,5771.24Z" transform="translate(-5136.115 -5624.854)"/><path class="d" d="M5250.683,6299.849c-1.457-.662-3.045-1.457-4.634-1.191s-2.914,1.456-4.1,2.516a52.986,52.986,0,0,0-6.622,6.752c-2.648,3.575-4.238,7.547-5.958,11.652-1.458,3.707-2.914,7.547-4.371,11.254-1.058,2.647-1.985,5.694-.528,8.077a8.483,8.483,0,0,0,3.31,2.78,103.505,103.505,0,0,0,13.9,6.752c9.268,3.974,18.4,7.946,27.672,11.917a21.174,21.174,0,0,0,5.561,1.854,11.573,11.573,0,0,0,6.355-.662,6.207,6.207,0,0,0,1.589-.927,5.428,5.428,0,0,0,.927-1.457,257.412,257.412,0,0,0,11.52-31.645c.4-1.591.795-3.443-.131-4.768a5.013,5.013,0,0,0-2.119-1.588C5279.15,6313.752,5264.983,6306.734,5250.683,6299.849Z" transform="translate(-5223.714 -6134.529)"/><path class="e" d="M5512.317,5855.627c-.132,1.457-.4,3.046-1.322,3.841a4.472,4.472,0,0,1-2.252,1.059,34.607,34.607,0,0,1-9.8.53c-2.384-.133-5.164-.795-6.488-3.179-1.061-1.722-1.192-4.1-1.192-6.223-.134-5.429-.134-10.857-.266-16.153a5.54,5.54,0,0,1,.662-3.31c.8-1.193,2.252-1.193,3.575-1.193,5.033.266,10.2.53,15.359.795,2.65.133,2.119,1.986,2.119,4.767.131,2.913.131,5.957.131,8.871C5512.714,5848.875,5512.582,5852.185,5512.317,5855.627Z" transform="translate(-5476.212 -5728.838)"/><path class="c" d="M4787.954,6325.691a42.1,42.1,0,0,1,.4,25.556,5.587,5.587,0,0,0-.4,2.516c.132,1.589,1.59,2.648,2.914,3.31,6.886,3.709,14.829,4.106,22.509,4.106a314.044,314.044,0,0,0,36.943-2.119c1.324-1.724.4-4.371-.266-6.488-1.853-6.488-.4-13.639.266-20.391a4.932,4.932,0,0,0-.266-2.385,3.528,3.528,0,0,0-1.456-1.324,54.294,54.294,0,0,0-28.732-8.474,77.536,77.536,0,0,0-12.314,1.191A144.81,144.81,0,0,0,4787.954,6325.691Z" transform="translate(-4721.263 -6153.089)"/><path class="c" d="M4889.027,5179.643a14.65,14.65,0,0,0,6.355.267c11.653-1.986,15.492-16.288,15.89-25.16.4-8.739,0-17.741-3.972-25.687-3.046-6.092-8.607-9.8-16.154-10.063a17.418,17.418,0,0,0-4.5.53c-18.008,3.574-17.744,27.672-15.493,40.649C4872.475,5167.727,4880.024,5177.523,4889.027,5179.643Z" transform="translate(-4792.543 -5111.114)"/><path class="f" d="M5100.458,8178.827a69.058,69.058,0,0,0-16.551.8,69.357,69.357,0,0,1-13.639,7.679,10.463,10.463,0,0,0-3.972,2.119c-1.059,1.19-1.456,3.045-.531,4.236a5.151,5.151,0,0,0,3.708,1.061,156.826,156.826,0,0,0,30.455-2.518,3.387,3.387,0,0,0,1.59-.662,2.532,2.532,0,0,0,.661-1.323A14.329,14.329,0,0,0,5100.458,8178.827Z" transform="translate(-5009.669 -7765.637)"/><path class="f" d="M4728.518,8154a60.4,60.4,0,0,0-14.435,3.441,55.13,55.13,0,0,1-10.725,9.271,7.382,7.382,0,0,0-3.044,2.647,2.8,2.8,0,0,0,.264,3.707,3.9,3.9,0,0,0,3.442.4,149.844,149.844,0,0,0,26.352-7.547,3.391,3.391,0,0,0,1.323-.926,2.252,2.252,0,0,0,.4-1.326A12.63,12.63,0,0,0,4728.518,8154Z" transform="translate(-4590.721 -7744.252)"/><path class="f" d="M4803.489,6590.568c-1.457-30.189,1.455-60.775,1.19-91.1a71.355,71.355,0,0,0-4.236-31.117,10.859,10.859,0,0,0-.929-1.721c-1.455-1.458-3.839-.662-5.692.132a61.5,61.5,0,0,1-55.744-4.767c-3.178,4.9-4.105,10.989-4.9,16.816-1.325,9.533-2.782,18.934-3.048,28.468h0c-.132,1.986-.132,4.1-.132,6.091.265,11.917,2.518,23.568,4.371,35.222a193.679,193.679,0,0,1,2.249,23.04c0,6.222-.792,12.047.53,18.271,3.576,15.227,3.576,31.779,5.032,47.4,1.589,16.552,3.178,33.235,4.371,49.92a10.155,10.155,0,0,1,.13,1.985c.928.265,13.771,3.178,13.771-.132q1.393-48.461,3.046-97.188c.53-16.552,1.06-33.367,7.018-48.595q12.513,68.522,25.025,137.176c.8,3.84,1.589,7.812,4.105,10.329,2.383,2.383,7.149,1.722,7.813-1.988C4805.208,6655.979,4804.944,6623.274,4803.489,6590.568Z" transform="translate(-4670.062 -6276.288)"/><path class="g" d="M4612.084,5570.529a41.589,41.589,0,0,0,7.019,3.045c9.8,3.046,21.583,1.721,29.659-3.575a20.8,20.8,0,0,1,13.64,11.254c2.383,4.9,2.779,10.329,3.177,15.625,2.119,26.614,3.838,52.963,4.235,79.445.532,30.056,11.39,56.673,19.995,81.167a6.115,6.115,0,0,1,.532,3.442c-.532,3.178-4.5,3.972-7.681,4.238a955.744,955.744,0,0,1-99.307.4c1.72-28.865,5.691-67.66,10.194-96.261,3.975-25.159-1.455-42.371,2.516-67.8,1.325-8.6,3.046-17.345,7.812-25.156a10.18,10.18,0,0,1,3.973-4.238C4609.7,5571.191,4610.23,5569.6,4612.084,5570.529Z" transform="translate(-4533.61 -5502.397)"/><path class="c" d="M5090.579,5915.934a27.66,27.66,0,0,1,8.871,2.383c17.081,6.619,32.043,15.756,48.329,23.569a22.011,22.011,0,0,1,3.046,1.588c0,.663-.133,1.456-.133,2.251a38.4,38.4,0,0,0,.133,3.84l-.133.927c-.131,1.987-.131,3.841-.264,5.694l.132.4a30.993,30.993,0,0,1-8.209-3.179c-10.065-2.913-18.8-8.342-26.879-13.638l-26.216-16.684c-1.856-1.324-3.975-2.648-4.238-4.237C5084.753,5916.993,5087.532,5915.8,5090.579,5915.934Z" transform="translate(-5060.434 -5802.518)"/><path class="h" d="M5503.975,5870.141a1.464,1.464,0,0,0,1.325-.663c.133-1.985.4-5.164.4-5.694,0-1.059.661-7.943-1.324-7.679-2.12,0-2.782-3.707-.531-3.974l.531-.132h.265a5.924,5.924,0,0,1,2.914.663c3.309,1.589,3.177,5.561,2.913,10.063a33.022,33.022,0,0,1-.662,6.091c0,1.986-.134,3.973-1.459,5.165a4.191,4.191,0,0,1-1.985,1.059,2.583,2.583,0,0,1-3.31-1.191C5501.459,5872.92,5501.856,5870.007,5503.975,5870.141Z" transform="translate(-5475.418 -5747.057)"/><path class="f" d="M5503.848,6395.578c0,.266.929.661,1.721.928C5504.909,6395.974,5503.981,6395.182,5503.848,6395.578Zm-3.838,8.871c.131-.4.528-.4.926-.4.531,0,1.192.133,1.588-.4l.265-.661a1.959,1.959,0,0,1,1.723-.265c-.529-.663-1.059-1.457-1.59-2.252l.265-.266c1.061-.4,1.986.4,3.047.4a8.845,8.845,0,0,0-1.192-1.853,10.879,10.879,0,0,1-1.985-1.457l.4-.265a8.592,8.592,0,0,1,2.117,1.722c.4.131,1.591.793,1.591-.4l-.928-1.189a12.53,12.53,0,0,1-2.913-1.59v-.264c.662-.8,2.382.4,3.441,1.588v.133a3.649,3.649,0,0,1,.927,1.722c0,.926-.794.926-1.59.662.267.4.531.793.8,1.191l-.133.4c-1.192.265-2.117-.53-3.178-.4.529.8,1.061,1.458,1.588,2.251l-.131.4-1.059-.132c-.4.132-.662.663-1.061.927l-.263.53h-1.323c-.4.132-.663,0-.532.662l.8,1.325-.132.4-.266.131-.4-.4C5501.2,6406.435,5499.877,6405.111,5500.01,6404.449Z" transform="translate(-5472.248 -6218.208)"/><path class="f" d="M5553,6515.888a9.013,9.013,0,0,1,3.575-1.854v-.264a1.392,1.392,0,0,1,.662-1.193c-.662-.663-1.589-1.853-1.324-2.647s1.589-.794,2.383-.662c-.4-1.192-1.456-2.648-.4-3.575.929-.927,2.648-.265,3.841.263a12.066,12.066,0,0,0-1.458-2.912l.265-.4c.531,0,1.06.529,1.59.4.529.132.529,0,.266-.4l-.134-.794a7.464,7.464,0,0,1-.529-1.588v-.132l.926-.133v.133c-1.19,0,.266,2.912.4,3.31l-.132.265c-.8.264-1.325-.265-1.854-.4a16.351,16.351,0,0,1,1.456,3.045l-.4.265c-.4-.133-.928-.265-1.324-.4l-.927-.266c-.663-.4-1.192-.132-1.324.53-.663.927-.4,1.06,0,1.987l.4,1.058-.4.4c-.529-.132-2.119-.264-1.854.795a5.947,5.947,0,0,0,1.325,1.853l-.266.53-.133.794a1.311,1.311,0,0,1,1.194,1.324l-.4.265a3.134,3.134,0,0,1-1.456-.794l-.132-.133-.4.133-1.059.4a10.306,10.306,0,0,0-1.985,1.322Z" transform="translate(-5534.639 -6309.256)"/><path class="f" d="M5499.8,6506.207l.4-.926v-.265c.132-.662-.132-.4.132-1.058a31.933,31.933,0,0,1,1.458-3.046l.795-1.06a1.674,1.674,0,0,0,.4-1.721l.4-.133c.131.53.4,1.059.265,1.457-.4.794-1.191,1.191-1.589,1.986a11.24,11.24,0,0,0-1.324,3.708,9.321,9.321,0,0,0-.265,2.648l-.4.132A1.967,1.967,0,0,1,5499.8,6506.207Z" transform="translate(-5468.205 -6307.521)"/><path class="f" d="M5529.132,6582.4l.264-.134v-.131l.132-.134.265.134-.133.131-.264.134v.132l-.132.265-.265-.265Z" transform="translate(-5498.191 -6380.398)"/><path class="c" d="M4916.394,5708.465c-4.767,12.844-9.8,25.556-14.828,38.267-1.061,2.383-1.989,4.634-3.179,6.884-.927,1.854-2.78,3.974-4.767,3.179a5.062,5.062,0,0,1-1.854-1.457,12.314,12.314,0,0,1-2.383-3.442c-1.458-2.782-.927-6.223-.265-9.269,3.443-17.611,8.342-35.088,15.889-51.243a10.876,10.876,0,0,1,3.047-4.237,9.155,9.155,0,0,1,5.03-1.191c4.635-.133,8.606,1.721,7.946,6.753A74.065,74.065,0,0,1,4916.394,5708.465Z" transform="translate(-4804.684 -5602.994)"/><path class="i" d="M4766.791,5168.494c-1.589,12.447-10.46,38.531-22.378,45.283-4.767,2.781-10.859,3.045-16.155,2.118-2.781-19.86,1.722-43.562,4.369-63.292,1.193-8.871,3.046-17.346,4.9-25.818l.265-1.06c1.987-9,.4-18.537,3.048-27.408,1.058-3.31,2.647-6.886,1.19-10.064a7.465,7.465,0,0,0-7.017,4.237c-.265-4.9-.662-9.666-.927-14.433-2.383-.4-4.5,1.458-6.753,2.384a11.6,11.6,0,0,1-5.165.663c-1.456.529-3.043,1.059-4.5,1.457a44.194,44.194,0,0,1-8.342.529c-5.165.132-10.329.265-15.359.265-4.5-16.949,19.993-22.51,32.307-23.7,7.15-.794,14.831.661,20.259,5.3,4.5,3.842,7.15,9.4,9.4,14.963,4.9,12.711,2.516,28.732,5.3,42.37C4764.539,5137.377,4769.042,5152.737,4766.791,5168.494Z" transform="translate(-4625.155 -5059.447)"/></svg>