<svg xmlns="http://www.w3.org/2000/svg" xmlns:xlink="http://www.w3.org/1999/xlink" width="192.574" height="316.836" viewBox="0 0 192.574 316.836"><defs><style>.a{fill:#d4c19c;}.b{fill-rule:evenodd;fill:url(#a);}.c{fill:#8f9fa8;}.d{fill:#f9e9de;}.e{fill:#4d4d4d;}.f{fill:#d3e4ea;}.g{fill:#97a8b2;}.h{fill:#ebefeb;}.i{fill:#f6cbc5;}.j{fill:#67302d;}.k{fill:#736357;}.l{fill:#d6d0cb;}.m{fill:#afd9c4;}.n{fill:#f4dad4;}.o{fill:#d9924e;}.p{fill:#537082;}.q{fill:#4b6575;}.r{fill:#ffe2de;}.s{fill:#f3f4f8;}.t{fill:#a5ccb8;}.u{fill:#edddb2;}.v{fill:#f0f1f5;}.w{fill:#998675;}.x{fill:#c6b697;}</style><linearGradient id="a" y1="0.5" x2="1" y2="0.5" gradientUnits="objectBoundingBox"><stop offset="0" stop-color="#ccc"/><stop offset="1" stop-color="#ccc"/></linearGradient></defs><g transform="translate(0.448 1.71)"><ellipse class="a" cx="95" cy="3.5" rx="95" ry="3.5" transform="translate(-0.448 308.126)"/><path class="b" d="M844.217,15997.851a238.47,238.47,0,0,1-24.438-1.008,3.55,3.55,0,0,1-2.094-.686,3.55,3.55,0,0,0,2.094.686,234.408,234.408,0,0,0,24.229,1.008h.381c2.95,0,5.881-.02,8.812-.037C850.213,15997.831,847.205,15997.851,844.217,15997.851Zm56.433-.418q24.267-.2,48.534-.381Q924.917,15997.225,900.65,15997.433Zm49.238-.4a230.4,230.4,0,0,0,25.085-1.123c3.788-.437,7.861-1.2,10.773-3.787-2.912,2.59-6.985,3.35-10.773,3.787A230.4,230.4,0,0,1,949.888,15997.032Zm-132.7-1.6a2.233,2.233,0,0,1-.19-.951A2.233,2.233,0,0,0,817.19,15995.433ZM986.85,15991h0c-7.137-1.559-15.664-2-24.743-2h0c9.079,0,17.606.438,24.743,2Z" transform="translate(-801.448 -15684.654)"/><path class="c" d="M4442.107,2640.694c8.812,7.937,11.382,20.481,16.216,31.312,1.921,4.321,4.263,8.452,6.6,12.563a15.849,15.849,0,0,0,3.616,4.816,13.736,13.736,0,0,0,5.2,2.284c5.6,1.446,4.606.933,10.374,1.313,7.518.5,1.922.02,9.422.514a6.76,6.76,0,0,1,2.55.5,4.6,4.6,0,0,1,2.246,3.711c.133,1.5-1.39,5.692-1.771,7.139a3.122,3.122,0,0,1-.857,1.732,3.064,3.064,0,0,1-1.636.5,67.625,67.625,0,0,1-9.213.114c-18.062-.667-16.158-.761-33.954-3.978-1.294-.248-1.485-3.179-2.589-3.9a9.049,9.049,0,0,1-2.874-3.693c-3.921-7.88-4.872-16.846-6.909-25.431-1.294-5.539-3.045-10.945-4.815-16.351-.913-2.855-4.016-8.47-2.4-11.5C4433.1,2638.981,4439.538,2638.391,4442.107,2640.694Z" transform="translate(-4346.521 -2589.071)"/><path class="d" d="M2214.809,15330.387a.724.724,0,0,1-.095.4.707.707,0,0,1-.552.23,17.887,17.887,0,0,1-6.281-.609.694.694,0,0,1-.609-.666,12.626,12.626,0,0,1-.1-4.854.687.687,0,0,1,.153-.383.625.625,0,0,1,.456-.133c1.618-.076,5.082-.533,6.529.342C2215.589,15325.477,2214.847,15329.055,2214.809,15330.387Z" transform="translate(-2164.978 -15032.489)"/><path class="d" d="M3934.555,15402.948a.7.7,0,0,1-.153.4.674.674,0,0,1-.514.15c-2.075.059-4.187.059-6.261.037a.774.774,0,0,1-.515-.113.8.8,0,0,1-.247-.59,29.293,29.293,0,0,1-.286-4.834c1.979.018,3.978.057,5.957.094,1.352.039,1.771-.115,2.075,1.143A12.151,12.151,0,0,1,3934.555,15402.948Z" transform="translate(-3851.835 -15104.903)"/><path class="e" d="M1110.017,7320.825a96.612,96.612,0,0,1-2.456,15.381,4.063,4.063,0,0,1-1.237,2.341,3.216,3.216,0,0,1-2.056.438c-1.827-.021-3.635-.039-5.444-.077a3.411,3.411,0,0,1-1.9-.38c-1.1-.724-1.313-2.361-1.427-3.788-2.608-35.024-6.966-70.011-15.683-103.7-1.675-6.471-3.521-12.962-4-19.681-.457-6.72.59-13.839,4.206-19.187,5.025-7.424,13.875-9.937,22.1-10.449a39.383,39.383,0,0,1,12.486.913c4.8,1.219,4.168,3.331,4.016,8.547q-.428,15.674-1.18,31.369-1.456,31.351-4.073,62.605Q1111.882,7303,1110.017,7320.825Z" transform="translate(-1055.238 -7044.897)"/><path class="e" d="M3057.487,6807.573a4.522,4.522,0,0,0,.743,2.093,3.107,3.107,0,0,0,1.674.838,24.066,24.066,0,0,0,8.565.571q4.054-51.68,12.1-102.807c1.313-8.414,2.722-16.865,2.722-25.432,0-8.546-1.5-17.3-5.6-24.459a32.938,32.938,0,0,0-13.495-12.963c-5.538-2.836-19.718-5.558-20.669,4.283a313.347,313.347,0,0,0-1.066,37.593c.571,25.965,3.711,51.757,7.689,77.281C3052.405,6778.944,3054.936,6793.258,3057.487,6807.573Z" transform="translate(-2984.435 -6516.34)"/><path class="c" d="M38.33,2480.319a7.861,7.861,0,0,0-2.912,1.979c-1.389,1.294-2.779,2.608-4.187,3.9-3.369,3.141-6.757,6.319-9.307,10.146-1.732,2.589-3.045,5.425-4.72,8.052-3.312,5.215-7.956,9.5-11.229,14.752a50.886,50.886,0,0,0-3.654,7.443c-1.751,4.3-3.2,9.041-2,13.534.59,2.17,2,4.339,4.187,4.911a7.078,7.078,0,0,0,4.587-.742c3.864-1.808,6.909-5.025,9.555-8.394,11.172-14.162,16.939-31.521,24.8-47.549.876-1.751,2.3-3.521,1.085-5.369C43.335,2481.138,40.518,2479.69,38.33,2480.319Z" transform="translate(0.119 -2432.96)"/><path class="f" d="M981.971,2499.012c-1.1-.59-2.512-1.237-3.521-.514a3.912,3.912,0,0,0-.99,1.5c-16.749,32.816-9.383,28.476-18.329,50.042-1.884,4.53-5.158,26.535-6.319,31.312-2.17,8.928-1.713,14.143-1.237,23.318a10.535,10.535,0,0,0,.837,4.359,9.294,9.294,0,0,0,3.445,3.369c7.785,5.1,8.964,7.119,18.253,7.329,9.307.19,18.538,2.8,27.712,1.275,4.815-.8,9.65-1.619,14.465-2.418,6.776-1.123,14.218-2.626,18.443-8.032a22.609,22.609,0,0,0,3.768-8.68c4.187-17.265.057-35.4-4.815-52.5-4.492-15.685-9.155-31.788-15.512-46.826-3.483-8.223-8.565-2.094-15.36-.7A31.59,31.59,0,0,1,981.971,2499.012Z" transform="translate(-933.073 -2450.625)"/><path class="g" d="M4198.013,2383.315a35.728,35.728,0,0,0-2.266,14.733,294.673,294.673,0,0,0,2.437,35.519,134.47,134.47,0,0,1,.686,13.591,82.613,82.613,0,0,0,1.027,8.413c.42,3.1-.229,8.318.457,11.345,1.9,8.223,1.428,15.818,3.2,24.1a8.99,8.99,0,0,1,5.253-2.3c1.5-.133,3.027-1.1,4.55-1.143,3.654-.1,7.194-3.007,8.945-7.366,1.674-4.169,1.693-9.175,1.6-13.934a231.251,231.251,0,0,0-2.95-34.51c-.933-5.234-2.094-10.374-3.273-15.514q-4.2-18.3-8.394-36.584c-.59-2.57-2.569-14.2-5.748-12.582-1.257.646-2.228,6.071-2.76,7.67Q4199.4,2379.031,4198.013,2383.315Z" transform="translate(-4115.883 -2321.871)"/><path class="h" d="M4140.479,2492.668a42.309,42.309,0,0,0-1.96,6.586,45.146,45.146,0,0,0-.59,7.88c-.361,28.914,4.073,67.993,7.232,96.583.837-.8,1.6-.209,2.817-1.618.247-4.606-2.493-19.4-3.368-23.87-3.217-16.427-.876-34.091-3.712-50.633a39.389,39.389,0,0,1-.857-6.681c0-2.322.5-4.606.477-6.928-.02-3.122-.952-6.167-.724-9.27.228-3.083,1.56-5.768,2.589-8.527,1.217-3.312,3.92-11.688,2.359-15.19C4142.972,2484.407,4141.831,2488.88,4140.479,2492.668Z" transform="translate(-4059.149 -2433.774)"/><path class="f" d="M4244.131,2551.252c-1.713.609-3.445,1.218-5.159,1.828a36.263,36.263,0,0,0,1.9,10.412,1.967,1.967,0,0,1,.171.875,2.063,2.063,0,0,1-.3.762q-3.341,5.4-6.643,10.773c-.494-6.624-.971-13.477.533-19.815a68.5,68.5,0,0,1,2.57-7.747c.666-1.827,1.293-5.9,2.3-7.214C4243.008,2536.576,4242.684,2551.766,4244.131,2551.252Z" transform="translate(-4153.037 -2491.92)"/><path class="g" d="M532.849,2367c-3.293,10.3-12.467,20.672-13.609,31.2-.209,1.884-1.808,4.169-2.455,6.015-.761,2.151-.818,3.674-2.284,5.634-4.758,6.416-5.653,13.857-8.184,20.881-1.408,3.921-3.331,7.747-4.7,11.669-2.665,7.67-3.121,15.627-3.388,23.526q-.2,6.225-.228,12.468a6.976,6.976,0,0,0,.628,3.56,9.557,9.557,0,0,0,2.969,2.8c11.1,7.652,27.046,11.555,42.367,10.394a23.132,23.132,0,0,1,.971-6.11c.571-1.694,1.428-3.35,2-5.044a30.1,30.1,0,0,0,1.1-7.557q.714-12.363,1.447-24.707c.571-9.67,1.123-19.358,3.064-28.933a35.076,35.076,0,0,0,1.085-8.147c-.076-2.208-.647-4.4-.933-6.6-.514-4.207.1-8.489-.857-12.658-1.218-5.406-4.987-10.336-6.224-15.742C544.479,2374.595,540.044,2369.436,532.849,2367Z" transform="translate(-488.519 -2321.945)"/><path class="h" d="M2856.592,2632.752c2.646,6.072,5.31,12.277,5.12,18.654a57.223,57.223,0,0,1-1.542,9.422c-1.637,8.014-2.189,16.1-2.741,24.174q-1.457,21.415-2.931,42.809c-.114,1.922-2.417,10.355-3.807,11.992s-3.045,1.085-5.424.209c2.684-14.847,4.815-34.625,6.224-49.586q1.77-18.959,3.559-37.937a21.666,21.666,0,0,0,.02-5.977c-.477-2.551-1.809-4.949-2.988-7.367-3.2-6.662-6.128-14.143-7.081-21.147C2853.28,2620.76,2854.117,2627.061,2856.592,2632.752Z" transform="translate(-2790.849 -2568.167)"/><path class="f" d="M2456.1,2781.837a92.086,92.086,0,0,0,11.191,7.443,67.571,67.571,0,0,1-6.909,2.513,94.368,94.368,0,0,1,8.679,7.119c2.531,2.341,2.132,6.833,3.692,9.442,1.2-3.332,3.083-7.614,3.826-10.793,1.428-6-3.844-11.631-6.585-17.4-1.028-2.132-2.074-12.334-6.375-11.383C2462.17,2769.1,2455.508,2781.381,2456.1,2781.837Z" transform="translate(-2409.313 -2716.015)"/><path class="f" d="M4710.876,6498.723a2.839,2.839,0,0,0-.989,1.446c-.152.628.133,1.485.628,1.467,3.978-2.609,7.518-6.226,11.039-9.842.818-.819,3.844-2.874,2.836-4.53-.856-1.37-3.16,1.751-3.864,2.4C4717.31,6492.688,4714.092,6495.7,4710.876,6498.723Z" transform="translate(-4620.201 -6363.442)"/><path class="f" d="M1023.735,6444.615a42.723,42.723,0,0,1-4.644-2.741c-1.637-1.181-3.236-2.646-5.539-2.874.323.724-.552,1.466-.552,2.228.019.8.99,1.409,1.884,1.884q11.077,6.11,22.135,12.2a6.972,6.972,0,0,0,3.864,1.123C1043.453,6452.724,1027.446,6446.614,1023.735,6444.615Z" transform="translate(-993.717 -6316.435)"/><g transform="matrix(0.839, -0.545, 0.545, 0.839, -56.458, 24.288)"><path class="c" d="M10.369,5285.861c1.028-1.656,3.064-2.418,4.987-2.762a26.161,26.161,0,0,1,14.37,2.019,77.428,77.428,0,0,1,12.752,7.253l12.847,8.394,2.76,1.827a2.4,2.4,0,0,1,1.732,2.3,7,7,0,0,1-.742,2.988c-1.047,2.55-2.113,5.1-3.159,7.652a134.4,134.4,0,0,1-16.977-5.026,110.528,110.528,0,0,1-17.586-9.212c-3.5-2.171-7.023-4.454-9.555-7.69C10.084,5291.4,8.885,5288.24,10.369,5285.861Z" transform="translate(2717.232 -4437.117) rotate(31)"/><path class="i" d="M2447.756,6453.558a5.064,5.064,0,0,1,2.531.818,1.774,1.774,0,0,1,.457,2.38c1.542.838,3.5.894,4.853,2.056a4.4,4.4,0,0,1,1.409,3.712,6.554,6.554,0,0,1-1.694,3.692,4.928,4.928,0,0,1-2.779,1.751,6.715,6.715,0,0,1-3.464-.7c-2.854-1.123-5.709-2.265-8.564-3.389-1.713-.685-3.712-1.713-3.883-3.559a5.4,5.4,0,0,1,.514-2.285c.589-1.465,1.18-4.872,2.816-5.481C2441.969,6451.807,2445.586,6453.558,2447.756,6453.558Z" transform="translate(1267.461 -6646.719) rotate(31)"/></g><path class="j" d="M3886.44,15565.009c-2.208-.857-4.664-.57-7.023-.533-1.409,0-2.988-.15-3.9-1.217a4.735,4.735,0,0,1-.723-3.389,1.319,1.319,0,0,0-.152-.9,1.238,1.238,0,0,0-.933-.34c-2.836-.25-5.691-.5-8.546-.725a.857.857,0,0,0-1.1,1.086c-.02,3.369-.038,6.719-.058,10.068a2.53,2.53,0,0,0,.171,1.143c.362.742,1.313.932,2.131,1.047q9.622,1.257,19.3,2.037c2.322.191,6.072.477,5.368-2.742A7.512,7.512,0,0,0,3886.44,15565.009Z" transform="translate(-3790.454 -15261.747)"/><path class="j" d="M1400.654,15533.176a1.624,1.624,0,0,0-2.17,1.637c-.133,1.1-.267,2.207-.381,3.313a3.851,3.851,0,0,1-.571,1.885,3.228,3.228,0,0,1-1.675.99,27.6,27.6,0,0,1-5.482.512,7.409,7.409,0,0,0-5.025,1.961,5.819,5.819,0,0,0-1.351,3.674,1.47,1.47,0,0,0,.133.762,1.58,1.58,0,0,0,1.256.609,26.746,26.746,0,0,0,4.435.1c3.045-.076,6.072-.174,9.1-.268a49.381,49.381,0,0,0,8.85-.779,1.274,1.274,0,0,0,.837-.42,1.223,1.223,0,0,0,.19-.646c.266-2.209.514-4.436.78-6.662.171-1.447.818-3.521-.019-4.893C1408.134,15532.547,1402.919,15533.176,1400.654,15533.176Z" transform="translate(-1357.656 -15237.433)"/><path class="i" d="M7785.618,5591.512a.953.953,0,0,0,.1.724,1.045,1.045,0,0,0,.57.3,52.436,52.436,0,0,0,17.377,1.618,3.928,3.928,0,0,0,4.512-3.122c.5-1.579.856-3.444-.134-4.758a4.525,4.525,0,0,0-3.121-1.466,18.073,18.073,0,0,1-3.5-.515,1.55,1.55,0,0,1-.762-.533c-.114-.228-.133-.494-.228-.742-.286-.78-1.313-.914-2.151-.933-2.665-.038-5.31-.075-7.956-.133-2.436-.038-2.245,1.237-2.893,3.025A33.6,33.6,0,0,0,7785.618,5591.512Z" transform="translate(-7637.406 -5475.705)"/><g transform="translate(-2.51 8.018) rotate(-7)"><path class="i" d="M2245.014,186.813c2.646,5.577,2.665,12.011,2.094,18.159a20.943,20.943,0,0,1-1.123,5.729c-2.417,6.186-9.612,9.175-16.235,9.689a22.851,22.851,0,0,1-9.364-.99,19.785,19.785,0,0,1-10.011-8.585,33.456,33.456,0,0,1-4.13-12.7,22.285,22.285,0,0,1,.513-10.031c1.618-4.854,5.862-8.566,10.658-10.355C2227.333,174.078,2240.16,176.534,2245.014,186.813Z" transform="matrix(0.978, 0.208, -0.208, 0.978, -2072.266, -631.069)"/><path class="k" d="M2042,14.456a8.7,8.7,0,0,1,1.313-3.35c1.389-1.808,3.845-2.417,6.129-2.855,2.512-.495,5.272-.914,7.537.247a2.941,2.941,0,0,0,.952.381,2.5,2.5,0,0,0,1.2-.266c4.758-1.751,9.973,1.713,13.209,7.652-.038-1.351,1.485-4.778-.8-7.671a19.816,19.816,0,0,0-8.85-6.491A42.953,42.953,0,0,0,2051.574.161a27.332,27.332,0,0,0-7.48.171,17.2,17.2,0,0,0-9.078,5.254,24.707,24.707,0,0,0-5.12,9.08,16.623,16.623,0,0,0-.933,4.911,17.746,17.746,0,0,0,.8,4.987A41.147,41.147,0,0,0,2033.227,33a2.027,2.027,0,0,0,.514.685,2.134,2.134,0,0,0,1.2.247c2.037,0,4.34-.152,5.71-1.618a1.316,1.316,0,0,0,.438-1.047c-.19-1.409-2.607-1.123-2.722-2.931-.1-1.618,1.256-1.656,2.151-2.532,1.2-1.18.628-3.046.685-4.606A36.384,36.384,0,0,1,2042,14.456Z" transform="matrix(0.978, 0.208, -0.208, 0.978, -1938.396, -425.96)"/><path class="l" d="M2360.917,1735.82a5.892,5.892,0,0,1-2.169-.133,2.394,2.394,0,0,1-1.58-1.409,1.5,1.5,0,0,1,.552-1.789c.628-.267,1.732.343,2.417.4a9.566,9.566,0,0,0,3.578-.609,5.471,5.471,0,0,1,1.523-.4,1.566,1.566,0,0,1,1.39.59,1.548,1.548,0,0,1-.4,1.961,4.482,4.482,0,0,1-2,.838A24.572,24.572,0,0,1,2360.917,1735.82Zm11.439-4.664a6.268,6.268,0,0,1-2.55,2.284c-.59.285-1.256.495-1.827.837-.038-.59-.038-1.2-.095-1.789a5.4,5.4,0,0,0-.8-2.665,3.745,3.745,0,0,0-1.465-1.2,9.029,9.029,0,0,0-5.805-.381,6.224,6.224,0,0,0-3.73,1.79,6.54,6.54,0,0,0-.952,1.846,14.931,14.931,0,0,0-.742,2.589,13.432,13.432,0,0,0-.1,2.474,40.259,40.259,0,0,1-7.975-2.589,6.209,6.209,0,0,1-2.531-1.732,8.79,8.79,0,0,1-1.123-2.379,15.439,15.439,0,0,0-1.143-2.4,4.455,4.455,0,0,0-.8-1.066,4.152,4.152,0,0,0-3.178-.628c-1.237.133-1.694.229-1.466,1.561.381,2.17,2.037,3.826,3.007,5.73a14.035,14.035,0,0,0,6.262,6.129,17.425,17.425,0,0,0,8.66,1.713c.172,0,.343-.038.533-.057a3.121,3.121,0,0,0,2.265,1.2,10.747,10.747,0,0,0,2.817-.057c1.18-.114,2.341-.248,3.521-.362a6.327,6.327,0,0,0,3.122-.895,4.166,4.166,0,0,0,1.58-2.665c.534-.324,1.066-.819,1.447-1.066a16,16,0,0,0,2.36-1.675,8.522,8.522,0,0,0,2.36-6.453C2373.193,1729.539,2372.813,1730.434,2372.356,1731.157Z" transform="matrix(0.978, 0.208, -0.208, 0.978, -1880.983, -2144.834)"/></g><path class="k" d="M5533.188,15381.682a6.036,6.036,0,0,1-1.714,1.617,40.578,40.578,0,0,1-5.957,3.008,52.854,52.854,0,0,0-5.615,2.988,3.894,3.894,0,0,0-1.446,1.275,3.835,3.835,0,0,0-.267,2.322,2.02,2.02,0,0,0,.248.99,1.818,1.818,0,0,0,1.428.627c2.321.209,4.586-.646,6.852-1.18,4.739-1.141,9.706-1.01,14.5-1.809a2.9,2.9,0,0,0,1.846-.818,2.958,2.958,0,0,0,.438-1.711,60.535,60.535,0,0,0-1.047-13.992c-1.466.229-2.932.439-4.4.648a7.638,7.638,0,0,0-2.874.627C5533.53,15377.322,5534.215,15380.121,5533.188,15381.682Z" transform="translate(-5413.106 -15082.34)"/><path class="k" d="M7101.773,15322.232a2.427,2.427,0,0,0-1.048.209,2.342,2.342,0,0,0-.97,1.561c-.609,2.76.476,5.863-.9,8.338-1.084,1.922-6.146,3.236-8.165,4.131-2.018.875-4.167,2.15-4.682,4.3a1.044,1.044,0,0,0,0,.684c.171.422.685.533,1.123.574,1.847.188,6.566-.363,8.413-.479,3.729-.248,7.441-.512,11.171-.8a4.234,4.234,0,0,0,2.513-.762,4.1,4.1,0,0,0,.951-3.008,60.219,60.219,0,0,0-.76-11.4c-.248-1.484-.058-3.73-1.847-3.75C7105.674,15321.793,7103.695,15322.1,7101.773,15322.232Z" transform="translate(-6951.085 -15030.18)"/><path class="m" d="M6841.981,7481.87c-4.7,32.816-4.416,66.013-3.273,99.152.152,4.378.666,7.976.818,13.058.019,1.18-.457,2.267-1.638,2.342l-8.944.4a2.679,2.679,0,0,1-3.6-2.761c-3.73-29.618-3.654-59.617-10.772-88.722a188.485,188.485,0,0,1-4.892-29.142,33.284,33.284,0,0,1,.514-11.078,19.949,19.949,0,0,1,12.276-13.553c5.387-1.979,15.8-1.789,19.355,3.6C6846.149,7461.73,6842.99,7474.809,6841.981,7481.87Z" transform="translate(-6679.856 -7308.596)"/><path class="m" d="M5766.433,7166.313c.323,43.19,1.561,86.379,7.366,129.17.151,1.027.38,2.208,1.274,2.741a3.714,3.714,0,0,0,1.827.361c1.466,0,5.92-.02,7.4,0a6.084,6.084,0,0,0,2.035-.229c2.037-.761,2.476-3.406,2.59-5.6,1.731-30.895,4.187-61.673,9.611-92.129,1.027-5.767,2.112-11.517,3.482-17.188,1.732-7.271,3.921-14.543,3.9-22a12.565,12.565,0,0,0-.914-5.312,11.133,11.133,0,0,0-3.235-3.807c-4.473-3.636-10.239-5.405-15.968-5.958-3.884-.38-14.675-1.655-17.378,1.523C5765.272,7151.617,5766.4,7161.8,5766.433,7166.313Z" transform="translate(-5656.459 -7009.77)"/><path class="e" d="M5599.827,7870.093a.706.706,0,0,0,.075.552,1.084,1.084,0,0,0,.571.285c1.637.4,3.255.819,4.892,1.238a25.271,25.271,0,0,0,7.975,1.1,5.1,5.1,0,0,0,2.455-.666,2.054,2.054,0,0,0,1.066-2,2.574,2.574,0,0,0-2.056-1.713c-.952-.229-1.961-.172-2.932-.3-1.979-.228-3.768-1.142-5.652-1.732a8.237,8.237,0,0,0-4.4-.3C5600.017,7867.028,5599.979,7868.57,5599.827,7870.093Z" transform="translate(-5493.221 -7716.635)"/><path class="e" d="M6152,7915.771a22.569,22.569,0,0,1,3.674,3.577,14.926,14.926,0,0,0,1.846,2.095,6.591,6.591,0,0,0,5.367,1.408,4.278,4.278,0,0,0,3.16-2.075c.856-1.77-.381-3.807-1.809-5.234a21.18,21.18,0,0,0-10.011-5.52,4.041,4.041,0,0,0-1.257-.171,3.977,3.977,0,0,0-3.121,2.683C6149.545,7913.9,6150.972,7914.989,6152,7915.771Z" transform="translate(-6032.756 -7759.285)"/><path class="n" d="M6017.516,3275.774a65.255,65.255,0,0,1-10.545,19.035c-1.39,1.751-2.969,3.693-2.779,5.92.229,2.8,3.408,4.645,6.206,4.264,2.778-.38,5.082-2.4,6.756-4.644,3.084-4.13,4.645-9.175,6.148-14.1.646-2.113,1.275-4.226,1.921-6.339a12.647,12.647,0,0,0,.839-5.843c-.343-2-2.3-4.417-4.55-3.959C6019.248,3270.559,6018.163,3273.928,6017.516,3275.774Z" transform="translate(-5889.896 -3207.801)"/><path class="o" d="M5616.543,3043.37c-.4,2.379,1.675,4.492,3.845,5.54,2.17,1.065,4.645,1.542,6.548,3.045,2.379,1.885,3.387,5.025,3.749,8.033.686,5.71-.533,11.478-1.885,17.074-3.958,16.275-9.287,32.721-7.651,49.376a4.534,4.534,0,0,1-.133,2.265,3.6,3.6,0,0,1-.97,1.237c-3.712,3.312-9.231,3.312-14.2,3.1q-10.219-.429-20.421-1.028c-6.243-.362-12.562-.8-18.481-2.76-1.675-.571-3.464-1.37-4.244-2.97-.742-1.522-.343-3.35.095-5.006a130.6,130.6,0,0,1,14.445-33.729c2-3.312,4.169-6.529,5.844-9.994,4.416-9.155,5.272-19.72,4-29.79a4.342,4.342,0,0,1,.154-2.474,3.731,3.731,0,0,1,1.408-1.428,13.941,13.941,0,0,1,12.522-1.713C5602.63,3042.647,5616.125,3045.806,5616.543,3043.37Z" transform="translate(-5456.418 -2983.487)"/><path class="p" d="M5485.415,5520.841c-.532,1.466-1.218,3.1-2.778,3.692a6.551,6.551,0,0,1-3.274.038c-1.751-.267-3.5-.551-5.233-.837-1.162-.171-2.494-.457-3.026-1.408-.686-1.257.438-2.665,1.332-3.808,2.531-3.273,3.445-7.31,4.3-11.229,1.065-4.874,2.113-9.8,1.884-14.753-.152-3.216-.837-6.586.514-9.574a11.865,11.865,0,0,1,6.358-5.521c1.75-.724,4.738-1.94,6.7-1.828,2.552.153,2.17,1.162,2.266,3.465a65.823,65.823,0,0,1-.99,13.934C5491.848,5502.511,5488.632,5511.7,5485.415,5520.841Z" transform="translate(-5366.761 -5371.379)"/><path class="q" d="M5048.154,5548.524c2.474,2.684,6.071,4.378,8.356,7.177a21.5,21.5,0,0,1,2.988,5.6c2.777,6.719,5.595,13.742,4.662,20.843a1.8,1.8,0,0,0,.323,1.656,2.138,2.138,0,0,0,1.257.381c2.7.267,5.633.514,8.013-.724,3.2-1.675,4.245-5.425,4.168-8.775a21.743,21.743,0,0,0-.743-4.93c-1.979-7.271-7.879-13.666-7.821-21.147.038-3.54,1.275-7.576-1.294-10.26A9.944,9.944,0,0,0,5063.4,5536c-3.616-1.01-14.389-3.542-17.416-.61C5042.767,5538.511,5045.7,5545.839,5048.154,5548.524Z" transform="translate(-4948.551 -5428.68)"/><path class="r" d="M5198.477,2351.817a17.031,17.031,0,0,0,1.941-9.213c-.723-5.958-6.623-11.173-13.113-11.554a7,7,0,0,0-3.2.438c-1.846.8-2.759,2.7-3.521,4.454-1.979,4.549-3.959,9.765-1.637,14.276a18.071,18.071,0,0,0,9.593,7.633C5193.167,2359.032,5196.821,2355.225,5198.477,2351.817Z" transform="translate(-5079.348 -2286.661)"/><path class="s" d="M4954.083,3707.743c1.96-.533,3.959-1.466,5.938-.971,2.684.666,3.691,3.521,4.226,5.958a181.251,181.251,0,0,1,3.521,24.1,12.27,12.27,0,0,1-.134,3.921,11.735,11.735,0,0,1-2.188,4.073,10.969,10.969,0,0,1-3.35,3.2c-2.551,1.39-5.786,1.066-8.735.61a135.31,135.31,0,0,1-15.36-3.293,3.094,3.094,0,0,1-1.693-.876,3.353,3.353,0,0,1-.3-2.132c.038-2.074-1.237-4-1.638-6.053a13.852,13.852,0,0,1,.515-5.9,105.166,105.166,0,0,1,6.033-18.616C4943.634,3705.725,4948.355,3709.285,4954.083,3707.743Z" transform="translate(-4840.302 -3636.076)"/><g transform="translate(13.003 -21.847) rotate(8)"><path class="n" d="M5036.611,6088.883a4,4,0,0,1,.151,4.492c-.971,1.39-2.8,1.827-4.492,2.018a4.565,4.565,0,0,1-3.578-.705,6.69,6.69,0,0,1-1.428-2.835c-1.026-2.741-1.9-5.292,1.638-5.653C5031.509,6085.933,5035.011,6086.617,5036.611,6088.883Z" transform="translate(-4930.689 -5970.297)"/><path class="n" d="M5371.419,3653.3a56.834,56.834,0,0,1,4.3-11.877,8.077,8.077,0,0,1,2.589-3.16c2.988-1.941,7.251.133,8.831,3.312,1.6,3.179,1.218,6.967.589,10.47a95.913,95.913,0,0,1-13.359,34.548,8.024,8.024,0,0,1-1.733,2.094,8.163,8.163,0,0,1-3.54,1.276q-14.474,2.74-29.044,4.911a56.862,56.862,0,0,1-9.821.857,28.708,28.708,0,0,1-12.009-3.064c-1.58-.8-3.274-2.037-3.351-3.808-.076-1.751,1.617-3.2,3.351-3.369a7.227,7.227,0,0,1,4.814,1.713,8.689,8.689,0,0,0,2.283,1.427,6.246,6.246,0,0,0,3.654-.38q15.419-4.74,30.854-9.5c1.885-.571,4.13-.761,5.2-2.379,1.181-1.809,1.447-5.273,2.037-7.385C5368.507,3663.75,5369.973,3658.535,5371.419,3653.3Z" transform="translate(-5213.71 -3568.272)"/></g><path class="t" d="M6234.812,15122.443a3.274,3.274,0,0,0,2.3,2.227,6.757,6.757,0,0,0,1.752.135,33.97,33.97,0,0,0,5.348-.5,2.384,2.384,0,0,0,1.123-.418,1.358,1.358,0,0,0,.38-.877,16.783,16.783,0,0,0,.229-3.654.751.751,0,0,0-.058-.361c-.209-.381-.837-.457-1.351-.457a57.281,57.281,0,0,0-8.069.381C6234.26,15119.225,6234.374,15120.959,6234.812,15122.443Z" transform="translate(-6115.892 -14830.754)"/><path class="t" d="M7733.238,15081.189a2.188,2.188,0,0,0,.837,1.391,3.99,3.99,0,0,0,1.676.475,27.263,27.263,0,0,0,6.6.039,2.914,2.914,0,0,0,1.827-.646,1.661,1.661,0,0,0,.3-.818,7.653,7.653,0,0,0-.19-3.141,1.06,1.06,0,0,0-.343-.611,2.089,2.089,0,0,0-1.1-.3,36.978,36.978,0,0,0-8.222-.037C7732.344,15077.9,7732.876,15079.82,7733.238,15081.189Z" transform="translate(-7585.73 -14790.319)"/><path class="m" d="M6374.627,15234.285c-.058-.381-.837-.381-.78,0,.095.668.133,1.314.267,1.963.076.379.876.283.837-.078C6374.893,15235.543,6374.742,15234.916,6374.627,15234.285Z" transform="translate(-6252.529 -14944.024)"/><path class="m" d="M6506.225,15238.087c-.075-.607-1.256-.627-1.237,0a16.619,16.619,0,0,0,.172,2.152c.1.57,1.237.4,1.237-.135A14.4,14.4,0,0,0,6506.225,15238.087Z" transform="translate(-6381.177 -14947.579)"/><path class="m" d="M6668.308,15169.353c-.19-.76-.363-1.521-.5-2.283-.058-.418-.913-.455-.876,0a20.489,20.489,0,0,1,.075,2.418C6667.012,15170.21,6668.517,15170.095,6668.308,15169.353Z" transform="translate(-6540.042 -14878.047)"/><path class="m" d="M7862.878,15121.238c-.037-.477-.989-.5-.97,0,0,.742.037,1.5,0,2.246-.057.607,1.275.57,1.18,0C7862.974,15122.742,7862.936,15121.98,7862.878,15121.238Z" transform="translate(-7712.269 -14833.05)"/><path class="m" d="M8040.152,15113.558c-.076-.572-1.236-.59-1.2,0,.076.934.171,1.865.342,2.8.114.7,1.428.59,1.275-.133A25.481,25.481,0,0,1,8040.152,15113.558Z" transform="translate(-7885.945 -14825.447)"/><path class="m" d="M8224.053,15142.294c-.1-.551-1.219-.57-1.16,0a8.842,8.842,0,0,0,.342,2.246c.189.629,1.371.346,1.256-.266C8224.338,15143.608,8224.148,15142.962,8224.053,15142.294Z" transform="translate(-8066.382 -14853.649)"/><path class="u" d="M5110.476,2151.449c-.514-2.76-1.333-5.787-3.711-7.252a9.073,9.073,0,0,0-2.97-1.047,30.322,30.322,0,0,0-8.089-.628c-2.97.171-6.167.914-8.07,3.217a8.879,8.879,0,0,0-1.827,4.645,26.517,26.517,0,0,0,.057,5.063c.058.819.267,1.828,1.066,2.037.761.19,1.427-.533,1.884-1.18.742-1.028,1.5-2.075,2.246-3.1l.343-.933a7.493,7.493,0,0,0,.19,1.6c.285,1.256.438,2.779-.553,3.56,1.086-.248,1.429-1.618,1.522-2.741.115-.971.21-1.961.306-2.95a11.84,11.84,0,0,0,1.56,3.1c.115-.686-.095-1.39.077-2.075a2.026,2.026,0,0,1,2.342-1.484c.95.189,1.636,1.046,2.53,1.427,1.085.476,2.359.209,3.445.685,1.332.59,1.941,2.17,2.075,3.636a41.545,41.545,0,0,0,.189,4.378,3.637,3.637,0,0,1,1.219-.856,1.231,1.231,0,0,1,1.37.3c.5.628-.038,1.561.057,2.379.057.4.266.781.362,1.18.36,1.637-1.313,3.312-.686,4.873a5.6,5.6,0,0,1,1.009-2.341c.323-.438.7-.838,1.009-1.294a7.136,7.136,0,0,0,.666-1.732,26.088,26.088,0,0,0,1.027-7.367A30.586,30.586,0,0,0,5110.476,2151.449Z" transform="translate(-4988.91 -2101.692)"/><g transform="translate(54.749 -42.472) rotate(31)"><path class="v" d="M4432.387,2778.884c2.608,4.645,5.539,9.993,10.62,11.535a2.334,2.334,0,0,0,1.523.1,7.6,7.6,0,0,0,1.408-.838,7.274,7.274,0,0,0,3.179-4.987c.019-.437.019-.837,0-1.276-.058-.894-1.066-1.389-1.885-1.77-6.775-3.083-10.887-10.355-12.257-17.683a2.13,2.13,0,0,0-.7-1.5,1.877,1.877,0,0,0-.838-.248c-1.218-.152-3.56-.323-4.454.762-.933,1.1-.209,3.332-.019,4.587A31.806,31.806,0,0,0,4432.387,2778.884Z" transform="matrix(0.719, -0.695, 0.695, 0.719, -5029.811, 1162.388)"/><path class="r" d="M4373.762,2257.769a4.774,4.774,0,0,0,1.408-3.426c0-.457-.133-1.009-.571-1.181a1.908,1.908,0,0,1-.3-.095.884.884,0,0,1-.324-.685,7.544,7.544,0,0,0-.285-1.085,2.277,2.277,0,0,0-.724-1.218,2.824,2.824,0,0,0-1.085-.437,3.11,3.11,0,0,0-1.9-.076,2.687,2.687,0,0,0-1.37,1.808,5.534,5.534,0,0,0-.229,1.238,6.485,6.485,0,0,0,.1,1.484,11.835,11.835,0,0,0,.895,3.808c.209.4.418.875.913.971a4,4,0,0,0,1.58-.1A4.106,4.106,0,0,0,4373.762,2257.769Z" transform="matrix(0.719, -0.695, 0.695, 0.719, -4638.023, 1483.155)"/></g><g transform="matrix(0.848, -0.53, 0.53, 0.848, -20.009, 75.275)"><path class="v" d="M6235.114,2631.636a30.391,30.391,0,0,0,4.168-7.386c1.161-2.855,2.074-5.939,1.675-8.984a42.753,42.753,0,0,1,4.949-.267,1.231,1.231,0,0,1,.817.209,1.208,1.208,0,0,1,.267.514,10.357,10.357,0,0,1,.058,3.978c-.152,1.237-.285,2.475-.437,3.73a35.866,35.866,0,0,1-.7,4.455,24.6,24.6,0,0,1-4.018,8.356,71,71,0,0,1-6.014,7.119c-.532.571-1.236,1.218-2.017,1.027a2.227,2.227,0,0,1-.914-.59,18.312,18.312,0,0,1-2.894-3.046,6.5,6.5,0,0,1-1.218-3.083c-.057-1.027.647-1.142,1.446-1.637A19.026,19.026,0,0,0,6235.114,2631.636Z" transform="matrix(0.914, 0.407, -0.407, 0.914, -4500.161, -4871.476)"/><path class="r" d="M6801.658,2105.5a2.483,2.483,0,0,1-1.58-.209,2.263,2.263,0,0,1-.8-1.027,9.544,9.544,0,0,1-.933-3.388c-.038-.267,0-.609.247-.7a2.2,2.2,0,0,1,.324-.038c.437-.057.666-.514.78-.933a6,6,0,0,1,.646-2.417,2.343,2.343,0,0,1,1.865-.78,7.512,7.512,0,0,1,2.037.457,1.066,1.066,0,0,1,.36.19,1.09,1.09,0,0,1,.153.343,14.234,14.234,0,0,1,.59,4.644c-.038,1.01.076,2.951-1.065,3.351A11.084,11.084,0,0,1,6801.658,2105.5Z" transform="matrix(0.914, 0.407, -0.407, 0.914, -5217.605, -4633.601)"/></g><path class="w" d="M8577.1,2083a.927.927,0,0,0-.1.4C8577.037,2083.266,8577.059,2083.133,8577.1,2083Z" transform="translate(-8413.752 -2043.35)"/><g transform="matrix(0.995, -0.105, 0.105, 0.995, -3.149, 17.148)"><path class="n" d="M7146.132,724.642a22.439,22.439,0,0,1,1.618,8.775c.209,7.024-.457,14.276-4.34,20.558-2.188,3.56-5.8,6.929-10.639,7.576a14.892,14.892,0,0,1-11.916-4.073,21.171,21.171,0,0,1-5.405-9.936c-1.655-5.958-2.035-12.316.438-18.083C7120.494,718.78,7139.623,710.48,7146.132,724.642Z" transform="translate(-6978.716 -703.475)"/><path class="x" d="M7142.416,461.814a1.837,1.837,0,0,1-.571-1.237c.038-1.523,2.437-1.618,3.388-2.817a2.679,2.679,0,0,0-.133-3.008,12.783,12.783,0,0,0-2.284-2.246,17.317,17.317,0,0,1-5.082-9.594,41.715,41.715,0,0,1-.419-11c.21-3.617.553-7.29-.323-10.793a16.173,16.173,0,0,0-9.916-11.078c-4.148-1.523-8.7-1.275-13.114-.895-4.605.4-9.307.952-13.455,3.008-4.473,2.208-8.242,6.643-8.015,11.611a4.1,4.1,0,0,0,.8,2.532,4.717,4.717,0,0,0,2.112,1.275,22.143,22.143,0,0,0,12.58.647,7.212,7.212,0,0,0,4.53,2.665c2.037.286,4.244-.285,6.071.628a5.573,5.573,0,0,1,2.7,4.359,14.974,14.974,0,0,1-.457,4.854,1.249,1.249,0,0,1,1.865-.286,2.027,2.027,0,0,1,0,2.494,8.946,8.946,0,0,1-1.96,1.827,3.544,3.544,0,0,0-1.408,2.227,5.92,5.92,0,0,0,.4,1.884,6.752,6.752,0,0,1-.971,5.52c-1.352,1.942-3.6,3.008-5.291,4.664-1.675,1.637-2.685,4.587-1.028,6.262,1.123,1.142,2.988,1.142,4.549.8,1.58-.324,3.142-.952,4.74-.761a8.581,8.581,0,0,1,4.225,2.17,15.336,15.336,0,0,0,3.978,2.665,4.077,4.077,0,0,0,4.454-.742,9.538,9.538,0,0,1,1.065-1.256,2.986,2.986,0,0,1,3.141.171,9.011,9.011,0,0,0,3.027,1.371,4.669,4.669,0,0,0,3.691-1.694,3.275,3.275,0,0,0,1.2-2.722C7146.185,463.489,7143.71,463.147,7142.416,461.814Z" transform="translate(-6957.488 -401.074)"/></g></g></svg>