<svg id="Capa_1" data-name="Capa 1" xmlns="http://www.w3.org/2000/svg" xmlns:xlink="http://www.w3.org/1999/xlink" viewBox="0 0 423 534.37"><defs><style>.cls-1{fill:#d4c19c;}.cls-2{fill:url(#Degradado_sin_nombre);}.cls-3{fill:#707070;}.cls-4{fill:#f2e7d6;}.cls-5{fill:#4d4d4d;}.cls-6{fill:#ededed;}.cls-7{fill:#666;}.cls-8{fill:#736357;}.cls-9{fill:#fff;}.cls-10{fill:url(#Degradado_sin_nombre_3);}.cls-11{fill:#537082;}.cls-12{fill:#b3b3b3;}.cls-13{fill:#fcee9f;}.cls-14{fill:gray;}</style><linearGradient id="Degradado_sin_nombre" x1="-591.25" y1="660.43" x2="-590.27" y2="660.43" gradientTransform="matrix(51.35, 0, 0, -18.01, 30384.46, 12421.12)" gradientUnits="userSpaceOnUse"><stop offset="0" stop-color="#c7c7c7"/><stop offset="1" stop-color="#c7c7c7"/></linearGradient><linearGradient id="Degradado_sin_nombre_3" x1="-593.24" y1="657.77" x2="-592.28" y2="657.77" gradientTransform="matrix(91.36, 0, 0, -10.05, 54505.76, 6977.89)" gradientUnits="userSpaceOnUse"><stop offset="0" stop-color="#ccc"/><stop offset="1" stop-color="#ccc"/></linearGradient></defs><title>familia6-7</title><ellipse class="cls-1" cx="70.64" cy="524.03" rx="62.5" ry="8"/><path class="cls-2" d="M74.37,534.37h-6c-10.08-.15-20.15-.15-30.23-.72a5.4,5.4,0,0,0-1.58-.14h0a5.4,5.4,0,0,1,1.58.14c10.08.58,20.15.58,30.23.72Zm-41.32-.72c-3.31,0-6.91-.29-8.64-1.58-2.59-2-1.15-6.33.86-8.21s5-2.88,7.77-3.6a144.87,144.87,0,0,1,35.27-3.89h-.14a144.49,144.49,0,0,0-35.13,3.89c-2.74.72-5.61,1.58-7.77,3.6s-3.46,6.19-.86,8.21c1.73,1.29,5.33,1.58,8.64,1.58Z"/><path class="cls-3" d="M112.66,316.71c.14-1.3.43-2.59.58-3.89.58-4.61,1-9.79-1.87-13.24-1-1.3-12.24-.58-14.25-.72a74.93,74.93,0,0,1-11.52-2.73A55.15,55.15,0,0,0,60.41,295a187.82,187.82,0,0,1-20.15,2.73,38.47,38.47,0,0,0-7.05,1.58c-8.21,2.16-7.63,2.45-6.33,10.79,1,7.2,1.87,14.25,2.59,21.45,1.3,13.82.29,28.07,2,41.6,1.73,13,2.73,26.06,3.74,39.16,2.3,32,4.89,63.92,8.21,95.73a69.58,69.58,0,0,0-5.9,7.05c-2.59,3.74-5.18,8.21-4.61,13.1,4.89,2.16,10.08-1,14.68-4l5.9-3.89c13.39-9.07,7.92-32.68,8.49-49.09.58-21.45,1.3-42.9,2-64.49.14-4.46-2-51.54,4.32-51.25,3.6.15,5.18,65.36,5.47,72.41.58,18.14.86,36.28.58,54.42-.14,15.55-5.18,32.25,7.92,41l5.9,4c4.46,3,9.79,6,14.68,3.89.58-4.75-2-9.21-4.75-13a39.68,39.68,0,0,0-5.76-7.05c-1-1,1.44-13.82,1.58-15.84.58-5.9,1-11.66,1.58-17.56,1.15-13.67,2.16-27.21,3-40.74C101.29,396.75,107.34,356.72,112.66,316.71Z"/><path class="cls-4" d="M74.08,119.05c4.46,0,8.78-2.73,11.95-6C98,100.77,97.55,81.48,96.4,64.35A11.2,11.2,0,0,0,95.1,59c-1.58-2.3-4.61-2.88-7.49-3.17-11.8,0-23.61.58-35.56,1.15a5.06,5.06,0,0,0-2.88.72,4.14,4.14,0,0,0-1.3,2.88c-.86,4.9.72,10.08.58,15A80.8,80.8,0,0,0,49.6,91.13c1.73,9.79,6.19,19,14.83,24.62A18.08,18.08,0,0,0,74.08,119.05Z"/><path class="cls-4" d="M123.32,179.8a16.22,16.22,0,0,0,2.59-.43,13.12,13.12,0,0,0,2.45-1.3c7.34-5.18,15.69-9.5,24.62-9.79a5.69,5.69,0,0,1,3,.58,4.5,4.5,0,0,1,2.3,3c.72,3-.86,6.19-3.17,8.21a25.11,25.11,0,0,1-7.92,4.46c-5.33,2-10.51,4.17-15.84,6.33-4,1.58-8.35,3.31-12.67,2.59-1-2.59-2-5.47-1.3-8.21A7.65,7.65,0,0,1,123.32,179.8Z"/><path class="cls-5" d="M119.57,201.68c6.48-2,13.1-3.89,19.72-5.61-3.17-8.21-6.33-16.56-9.5-24.9L119,175.91c-.14-2.73-.29-5.33-.29-7.92-.58-12.09-1.15-24.62-5.9-35.56-3.74-8.64-4.46-10.8-12.09-17-10.8,5.9-38.44,8.06-47.65,0-7.49,4.17-7.34-.15-13.1,8.92-14,21.74-15.55,59.74-17.71,76.15-3.17,23.9-17.56,90.55-2,110,7.92,10.08,69.24,8.06,106.24-3C124.61,264,120.15,251.78,119.57,201.68Z"/><path class="cls-6" d="M80.42,133c-17.85-1-36-2.16-53.7.14a4.61,4.61,0,0,0-4,4.32A503,503,0,0,0,23,190.6a4.56,4.56,0,0,0,4.91,4.19H28c25.91-2.16,52.69-2.16,78.6-2.16a4.55,4.55,0,0,0,4.61-4.49s0-.08,0-.12c-.14-15.83-1.15-33.25-1.3-49.09a4.69,4.69,0,0,0-4.32-4.61Z"/><path class="cls-7" d="M20.24,116.46c-.72-3.89-1.3-7.92-2.74-11.66-.58-1.73-3.31-.86-2.74.86,1.15,3.74,2.74,7.49,3.6,11.37C18.66,118.19,20.53,117.61,20.24,116.46Z"/><path class="cls-7" d="M14.77,119.63a23.2,23.2,0,0,0-9.21-3c-1.73-.29-2.45,2.45-.58,2.73a62.48,62.48,0,0,1,8.93,2.3C15.21,122.08,15.78,120.2,14.77,119.63Z"/><path class="cls-7" d="M14.34,126.39c-4.18-.29-8.78.58-13,1.29-1.87.29-1.87,3,.14,2.88,4.32-.43,9.07-.72,13.1-2.16a1,1,0,0,0-.29-2Z"/><path class="cls-4" d="M28.88,202c-2.45,2.45-5.76,5.33-9.07,4a5.47,5.47,0,0,1-2.74-2c-2.59-3.6-2-8.49-.43-12.52,2.45-6.77,7.34-12.52,12.09-18,3.89-4.46,9.21-9.5,15-7.92a4.72,4.72,0,0,1,2.74,1.87,4.9,4.9,0,0,1,.43,3.17C45.87,182.82,37.37,193,28.88,202Z"/><path class="cls-5" d="M6.57,215.79a6.47,6.47,0,0,1-.72-4.32,66.75,66.75,0,0,1,13.67-33.25,111.86,111.86,0,0,0,16,19c-6.48,6.91-10.22,10.51-16.27,16.7-1.3,1.29-6.19,2.3-7.77,2.88S7.57,217.23,6.57,215.79Z"/><path class="cls-8" d="M64,57.87a10.49,10.49,0,0,0-6.62,4.9c-3.6,5.61-3,12.52-4.46,18.86a32,32,0,0,1-5.76,12.52,54,54,0,0,1-3.45-8.64C40.83,76.59,39,67.38,40.25,58.16S46.3,40,54.51,34.84c2.59-1.73,5.9-3,8.92-2.3,4.17,1,6.62,5,8.06,8.78a27.4,27.4,0,0,1,2,14c-.43,2.3-.86,4.61-3,4.32C68,59.31,67,57.15,64,57.87Z"/><path class="cls-8" d="M91.5,89.11c-1.3-2.88-1.58-6-2.3-9.21A52.24,52.24,0,0,0,84.6,67.66a16.07,16.07,0,0,0-4.46-5.33,7.7,7.7,0,0,0-6.48-1.58c-.86.15-1.58.58-2.3.43a3.72,3.72,0,0,1-2-2.16c-1.3-2.45-2.73-5-2.88-7.92a15.52,15.52,0,0,1,.58-5c1.87-6.91,7.05-13.53,14.11-14.68,6-1,12.09,2.3,16,7.06,3.74,4.61,5.76,10.65,7.05,16.56a36.9,36.9,0,0,1,1.3,10.51c-.29,6.91-3.6,13.39-5.47,19.87-.43,1.44-.86,9.21-1.73,9.65C96,96.31,92.22,90.69,91.5,89.11Z"/><path class="cls-9" d="M71.49,165.12c0,1.44-.29,3-.43,4.61v-.14c-3.17-1.87-6-4-9.07-6,1.44-.58,3-1.15,4.46-1.58a30.18,30.18,0,0,1,5.18-1A20.26,20.26,0,0,1,71.49,165.12Zm2.16-5.61-.72-.86c-2.16-.43-4.61.43-6.62,1A44.43,44.43,0,0,0,59,162.24c-.86.29-.72,1.58,0,2a110.42,110.42,0,0,0,11.37,6.48h.58c-.14,1.44,2,2,2.3.58.44-3.6,1.44-8.35.44-11.81Z"/><ellipse class="cls-1" cx="330.27" cy="367.12" rx="39.5" ry="5"/><path class="cls-10" d="M329.73,373.12q-7.45,0-14.92-.33c-2.87-.11-12.48.44-9.82-4.86,1.1-2.21,5.74-3.65,8.84-4.31-3.1.66-7.73,2.1-8.84,4.31-2.66,5.3,7,4.75,9.82,4.86q7.46.33,14.92.33c6.63,0,13.37-.22,20.11-.55C343.09,372.9,336.36,373.12,329.73,373.12Zm52.47-3.2c3.86-.44,7.62-1,11.37-1.55a17,17,0,0,0,2.32-.44,17,17,0,0,1-2.32.44c-3.75.55-7.51,1.1-11.37,1.54Zm-1-6.63h.89c1.66,0,3.31-.11,5-.11h0c-1.66,0-3.31.11-5,.11Zm-58.54-.22Z"/><path class="cls-4" d="M326.09,61.31a22.55,22.55,0,0,1-3.87-11.6c-.55-8.73,0-17.78,3.53-25.73,4.2-9.17,14.58-18.34,25.52-16,12.82,2.76,11.93,19.22,11,30.15-.66,8.73-3.87,17.45-10.27,23.42C342.43,70.26,331.72,69.15,326.09,61.31Z"/><path class="cls-11" d="M315.47,356.66C310.73,302.53,307,240,302.22,185.79a326.12,326.12,0,0,1,41.53-1.33c4.31.11,12-1.66,12.92,3.42.67,3.42-2.32,10.82-2.87,14.58-3.76,25-12.48,49.15-13.92,74.56-.33,7.4-.22,14.8-.33,22.2a327,327,0,0,1-3.2,37.44c-.66,4.86-3.86,13.92-2.65,18.56,1.1,3.87,7.18,6.07,11.05,7.62a9.92,9.92,0,0,1,3.64,2.1c1,1,1.44,2.76.44,3.87a4.28,4.28,0,0,1-3.31,1,151.21,151.21,0,0,1-28.28-2.32,2.47,2.47,0,0,1-1.54-.66,2.66,2.66,0,0,1-.66-1.22,13.79,13.79,0,0,1,.78-8.95Z"/><path class="cls-7" d="M420.3,67.6A2.71,2.71,0,0,1,422.4,72Q408,93.4,395.67,114c-1.11,1.77-2.43,3.76-4.42,4.2a6.41,6.41,0,0,1-3.87-.66L371,111.46a2.63,2.63,0,0,1-1.55-3.39,2.7,2.7,0,0,1,.23-.48,328.44,328.44,0,0,1,27.5-41.09,3.93,3.93,0,0,1,3.65-1.44A135.3,135.3,0,0,0,420.3,67.6Z"/><path class="cls-9" d="M413.34,72.57a1.94,1.94,0,0,1,1.55,3.09c-6.74,9.94-12.93,19.88-18.78,29.71-.78,1.21-1.66,2.65-3.09,3a5.11,5.11,0,0,1-2.87-.44l-11.71-4.2a1.85,1.85,0,0,1-1.21-2.32,1.87,1.87,0,0,1,.21-.45,239,239,0,0,1,19.77-29.38,2.8,2.8,0,0,1,2.54-1A91.33,91.33,0,0,0,413.34,72.57Z"/><path class="cls-7" d="M390.48,61.53a57.9,57.9,0,0,1-7.52-2.1.94.94,0,0,1,.67-1.77c2.43.88,4.74,1.88,7.29,2.65C391.69,60.54,391.24,61.64,390.48,61.53Z"/><path class="cls-7" d="M392.58,58a16,16,0,0,1-1.66-6c-.11-1.22,1.66-1.66,1.88-.33A33.63,33.63,0,0,0,394,57.55C394.23,58.33,393,58.66,392.58,58Z"/><path class="cls-7" d="M397.11,58a35.39,35.39,0,0,1,1.11-8.39c.33-1.22,2.1-1.1,2,.11-.44,2.76-.77,5.85-1.88,8.5C398.11,59,397.11,58.66,397.11,58Z"/><path class="cls-12" d="M393.68,79.09a3.4,3.4,0,0,1,2.54-2.87,10.2,10.2,0,0,1,4.09.11q4.65.66,8.95,1.32c-.12,1.32-1.1,2.32-2.1,3.31a2.69,2.69,0,0,1-.89.66,3.46,3.46,0,0,1-2.1-.22A42.45,42.45,0,0,0,393.68,79.09Z"/><path class="cls-12" d="M402.19,87.6A37.63,37.63,0,0,0,392.8,84c-.55-.11-.78.66-.33.77a55.14,55.14,0,0,1,9.17,3.76C402.19,88.81,402.74,87.93,402.19,87.6Z"/><path class="cls-12" d="M400.31,89.58a35.25,35.25,0,0,0-10.71-1.88.39.39,0,0,0-.07.77h.07A42.31,42.31,0,0,1,400,90.58C400.64,90.8,400.87,89.81,400.31,89.58Z"/><path class="cls-12" d="M397.22,93.78c-3.21-1.21-6.41-2.21-9.61-3.2-.44-.11-.65.55-.22.77,3.2,1.1,6.3,2.32,9.61,3.31a.46.46,0,0,0,.22-.89Z"/><path class="cls-12" d="M395.13,97.54c-3.1-.88-6.3-1.66-9.51-2.43-.44-.11-.65.66-.22.77,3.21.88,6.3,1.88,9.5,2.65a.51.51,0,0,0,.23-1Z"/><path class="cls-12" d="M392.47,101.62c-2.77-.66-5.53-1.21-8.29-1.77-.44-.11-.66.66-.21.77,2.76.66,5.41,1.44,8.17,2C392.79,102.73,393.13,101.73,392.47,101.62Z"/><path class="cls-4" d="M364.41,119a12.54,12.54,0,0,0,2-.33,7.54,7.54,0,0,0,1.88-1c5.63-3.87,11.92-7.18,18.66-7.4a6.16,6.16,0,0,1,2.43.33A3.49,3.49,0,0,1,391,113c.55,2.21-.66,4.64-2.32,6.19a21.75,21.75,0,0,1-6.07,3.31l-12,4.86c-3.09,1.21-6.29,2.54-9.6,2-.78-2-1.55-4.09-1-6.19A5.58,5.58,0,0,1,364.41,119Z"/><path class="cls-13" d="M361.54,135.64c5-1.55,10.05-3,15.13-4.31-2.43-6.3-4.86-12.59-7.29-19L361.1,116c0-2.1-.11-4.09-.23-6.07-.44-9.17-.87-18.67-4.41-26.95-14.91-34.57-34.24-21.87-48.71.66-10.6,16.68-18.56,38.55-20.21,51.14-2.43,18.11-.11,118.85,11.71,133.65,6.07,7.62,54.57,13.92,63.18-15.57C361,219.7,362.09,173.75,361.54,135.64Z"/><path class="cls-14" d="M356.12,4.87a34,34,0,0,1,5.3,7.29c1.77,3,3.53,6,4.09,9.39a21.63,21.63,0,0,1,0,6,55.89,55.89,0,0,1-2.32,10.27h-1.77c.33-3.65.67-7.4.88-11a10.22,10.22,0,0,0,0-3.2,6.74,6.74,0,0,0-6.07-4.86,11.65,11.65,0,0,0-7.73,2.54,36.93,36.93,0,0,0-5.75,6c-2.53,2.87-5.19,5.74-8,8.5-.88.88-2.21,1.88-3.31,1.33a5.61,5.61,0,0,1-1.21-1.1,3.15,3.15,0,0,0-4.31.77,4,4,0,0,0,.44,4.64,4.9,4.9,0,0,0,4.53,1.44q-.49,7-1,13.92a15,15,0,0,1-.66,3.76c-1.11,2.65-4.09,4.2-7,4.31a16.8,16.8,0,0,1-8.18-2.21A19.17,19.17,0,0,1,308,58.11,10,10,0,0,1,305.41,51a5.69,5.69,0,0,1,3-4.86c1.88-.88,4.42-.33,5.3,1.55.77,1.66.22,4,1.76,5.08a2.84,2.84,0,0,0,3.65-1,7.37,7.37,0,0,0,.88-4.09c.11-6.85-1.32-13.59-1.54-20.43s1.1-14.14,5.63-19.11A19.68,19.68,0,0,1,329.5,4a27,27,0,0,1,13.59-4A18.74,18.74,0,0,1,356.12,4.87Z"/></svg>