<svg xmlns="http://www.w3.org/2000/svg" xmlns:xlink="http://www.w3.org/1999/xlink" width="229.856" height="310.213" viewBox="0 0 229.856 310.213"><defs><style>.a{fill:#d4c19c;}.b{fill-rule:evenodd;fill:url(#a);}.c{fill:#f2e1c6;}.d{fill:#454545;}.e{fill:#494949;}.f{fill:#4d4d4d;}.g{fill:#e8e8e8;}.h{fill:#736357;}.i{fill:#4a4e31;}.j{fill:#d6d6d6;}.k{fill:#e2e2e2;}.l{fill:#edddb2;}.m{fill:#f0dcce;}.n{fill:#acb18f;}.o{fill:#272826;}.p{fill:#ebc9b2;}.q{fill:#d9ac7c;}.r{fill:#c6b697;}</style><linearGradient id="a" y1="0.499" x2="1" y2="0.499" gradientUnits="objectBoundingBox"><stop offset="0" stop-color="#ccc"/><stop offset="1" stop-color="#ccc"/></linearGradient></defs><g transform="translate(0 2.369)"><ellipse class="a" cx="43.374" cy="2.931" rx="43.374" ry="2.931" transform="translate(5.953 301.483)"/><ellipse class="a" cx="63.889" cy="3.517" rx="63.889" ry="3.517" transform="translate(102.079 292.105)"/><path class="b" d="M7000.71,12503.686a129.8,129.8,0,0,1-33.051-3.777c-.858-.171-1.8-.687-1.717-1.459,0-.516.516-.944.944-1.2a39.589,39.589,0,0,1,10.388-4.465,39.589,39.589,0,0,0-10.388,4.465c-.429.258-.944.687-.944,1.2-.086.772.858,1.288,1.717,1.459a129.8,129.8,0,0,0,33.051,3.777c22.921,0,46.186-4.12,69.106-5.236,6.1-.344,12.1-.43,18.113-.43,10.388,0,20.689.258,30.991.258h.171c14.423,0,28.845-.516,43.268-1.03-14.423.515-28.845,1.03-43.268,1.03h-.171c-10.3,0-20.6-.258-30.991-.258-6.009,0-12.018.086-18.113.43C7046.9,12499.565,7023.545,12503.686,7000.71,12503.686Zm39.489-15.453c1.2-.085,2.4-.171,3.691-.257l3.091-.258-3.091.258C7042.6,12488.062,7041.4,12488.147,7040.2,12488.232Zm35.283-1.889c3.348-.086,6.7-.172,9.958-.258.944-.085,1.8-.085,2.747-.085-.944,0-1.8,0-2.747.085C7082.179,12486.172,7078.83,12486.258,7075.482,12486.344Z" transform="translate(-6946.921 -12195.841)"/><path class="c" d="M7830,9647.777l.085-.772a2.688,2.688,0,0,1,.43-.859c.858-1.287.6-3.091.858-4.635a1.1,1.1,0,0,1,.344-.858l.687-.344a11.532,11.532,0,0,1,3.435-.6,3.25,3.25,0,0,1,2.66.687,3.036,3.036,0,0,1,.859,1.545,11.355,11.355,0,0,1-.516,6.1c-.6,1.974-1.46,3.862-1.889,5.837a3.073,3.073,0,0,1-.944,1.889,2.009,2.009,0,0,1-1.03.172c-1.373,0-4.034.258-4.378-1.46C7830.172,9652.326,7830.258,9650.009,7830,9647.777Z" transform="translate(-7736.808 -9593.866)"/><path class="d" d="M7412.412,9819.79c2.66,1.03,4.55,3.262,6.523,5.323,2.4,2.4,4.979,4.635,7.641,6.867,3.091,2.66,6.182,5.322,9.357,7.983a1.634,1.634,0,0,0,.858.43c.858.086,1.288-1.03,1.459-1.975,1.288-9.959,2.4-20,3.349-29.961a18.331,18.331,0,0,1,6.095.258,1.8,1.8,0,0,1,1.116.6,1.458,1.458,0,0,1,.172,1.2c-.6,13.735-2.4,27.3-4.293,40.862-.172,1.2-.344,2.662-1.287,3.521-1.288,1.288-3.348.944-5.065.258a35.7,35.7,0,0,1-7.555-4.465c-3.434-2.488-6.953-4.979-10.473-7.383a80.17,80.17,0,0,1-9.872-7.983,17.293,17.293,0,0,1-4.378-6.095C7404.083,9824.254,7405.973,9817.387,7412.412,9819.79Z" transform="translate(-7348.578 -9748.023)"/><path class="c" d="M7090.318,10930.069c.772-19.229-.858-38.8-.687-58.117a49.888,49.888,0,0,1,2.4-19.831,7.16,7.16,0,0,1,.6-1.115c.773-.859,2.232-.43,3.263.085a32.9,32.9,0,0,0,32.363-3.091c1.89,3.177,2.4,7.04,2.92,10.817.771,6.009,1.545,12.019,1.8,18.113h0v3.949c-.171,7.555-1.459,15.023-2.489,22.406a121.249,121.249,0,0,0-1.373,14.68c0,4.034-.773,7.039-1.2,12.533-.858,9.872-1.116,19.487-1.975,29.359q-1.417,15.967-2.575,31.935a6.5,6.5,0,0,0-.086,1.288c-.515.172-7.983,2.06-7.983-.086q-.9-31.033-1.8-61.981c-.258-8.757-1.46-36.141-1.631-46.357l-1.718.172c-1.974,28.157-8.585,74.944-13.134,102.33-.43,2.4-3,5.322-4.464,6.867a2.575,2.575,0,0,1-4.551-1.2C7089.288,10971.877,7089.46,10951.016,7090.318,10930.069Z" transform="translate(-7058.505 -10698.456)"/><path class="e" d="M7351.273,12376.791l.172-.772a32.839,32.839,0,0,0,1.373-9.529,15.086,15.086,0,0,1,.344-4.378c2.146,0,8.241-.343,10.387-.257l.516.085.258.43c.944,4.464-2.318,9.357-1.116,13.735.429,1.8,2.4,2.4,4.12,3.348,1.546.772,4.464,2.661,6.354,2.661a9.815,9.815,0,0,1,2.832,1.46,1.935,1.935,0,0,1,.43,2.661,4.255,4.255,0,0,1-2.747.687,131.646,131.646,0,0,1-22.491-1.631,2.89,2.89,0,0,1-1.2-.429c-.258-.172-.344-.516-.516-.773C7349.127,12381.255,7350.415,12379.28,7351.273,12376.791Z" transform="translate(-7297.741 -12082.339)"/><path class="e" d="M7064.063,12378.438c.258-.687.772-1.288,1.03-1.975a6.923,6.923,0,0,0,.086-2.318V12364.1c0-1.029.086-2.231,1.116-2.747a4.238,4.238,0,0,1,2.317-.172c2.318.344,4.636.688,6.868,1.031a2.574,2.574,0,0,1,1.631.687,1.464,1.464,0,0,1,.086,1.458,42.544,42.544,0,0,0-.772,9.873,15.776,15.776,0,0,1,0,2.833,41.053,41.053,0,0,0,8.67,4.894,7.065,7.065,0,0,1,2.489,1.459,1.671,1.671,0,0,1,.172,2.4,3.976,3.976,0,0,1-2.489.514,121.451,121.451,0,0,1-20.088-2.746,2.211,2.211,0,0,1-1.03-.429,1.052,1.052,0,0,1-.343-.773A6.251,6.251,0,0,1,7064.063,12378.438Z" transform="translate(-7036.2 -12081.667)"/><path class="c" d="M7079.934,9439.607a16.867,16.867,0,0,0,3.348-6.524,44.388,44.388,0,0,0,2.232-15.71,22.961,22.961,0,0,0-6.181-14.422c-3.863-3.776-9.7-5.665-14.852-4.206-5.924,1.8-9.872,7.813-10.56,13.993-.6,6.181,1.545,12.361,4.55,17.855C7062.163,9437.205,7072.379,9447.42,7079.934,9439.607Z" transform="translate(-7027.26 -9373.163)"/><path class="f" d="M7069.7,9942.984c3.177,9.443,2.833,19.744,1.374,29.96,6.781-.258,13.821.858,20.6-.258,6.61-1.116,13.135-2.489,19.659-4.12-2.747-5.409-5.494-10.816-6.868-16.912-2.832-12.362.086-25.41,1.975-37.943.515-3.092.858-6.353.086-9.272-.858-3-3.348-5.493-5.923-4.893l-2.318-1.545a54.524,54.524,0,0,1-22.406,5.493c-1.974.086-4.034.086-5.837,1.116a10.583,10.583,0,0,0-3.349,4.293c-3.176,6.438-3.52,14.68-1.459,21.891C7066.439,9935,7068.413,9938.778,7069.7,9942.984Z" transform="translate(-7036.515 -9830.011)"/><path class="f" d="M6887.37,10719.9c-1.975,3.692-2.49,7.983-3.348,12.02-2.661,14.078-8.327,27.384-15.367,39.66a4.206,4.206,0,0,0-.772,2.4,3.433,3.433,0,0,0,.858,1.976c2.06,3.347,4.292,6.7,7.383,8.842a24.928,24.928,0,0,0,6.7,3.09,74.492,74.492,0,0,0,33.909,2.49c5.237-.858,10.388-2.318,15.539-3.692a6.636,6.636,0,0,0,2.232-1.03,6.1,6.1,0,0,0,1.374-3.433c2.661-17.256-.944-34.768-1.374-52.2-.171-6.267.085-12.79-1.8-18.8a3.34,3.34,0,0,0-.944-1.8,3.452,3.452,0,0,0-2.06-.43l-30.046.258c-2.662,0-6.267-.258-7.726,2.231C6890.374,10714.151,6888.915,10717.242,6887.37,10719.9Z" transform="translate(-6857.273 -10571.388)"/><path class="g" d="M7206.341,10463.363c-.859-6.1-4.293-10.645-6.524-17.34-.858-2.49-2.317-6.783-3.262-9.271a6.471,6.471,0,0,0-3.177-3.863,8.621,8.621,0,0,0-3.605-.6c-10.216-.43-20.518-.6-30.733-.516a14.109,14.109,0,0,0-4.636.688,4.149,4.149,0,0,0-1.888,1.287,3.518,3.518,0,0,0-.516,2.061,6.792,6.792,0,0,0,1.115,4.121l.43.688c4.464,6.953,5.666,15.451,9.014,22.92a7.158,7.158,0,0,0,1.889,2.832c1.374,1.031,3.263,1.031,4.979.945,4.035-.086,8.069-.344,12.19-.344,6.095,0,16.653,1.459,22.491-.344a3.264,3.264,0,0,0,2.146-1.459A3.226,3.226,0,0,0,7206.341,10463.363Z" transform="translate(-7117.011 -10317.939)"/><path class="d" d="M6746.273,9989.882a8.593,8.593,0,0,0-1.8,3.778,5.685,5.685,0,0,0,1.63,4.549,11.973,11.973,0,0,0,3.692,2.576c9.7,5.15,19.486,10.215,29.875,12.876a2.185,2.185,0,0,0,1.287,0,2.966,2.966,0,0,0,.944-1.287c.687-1.374,1.374-2.747,2.06-4.206a1.439,1.439,0,0,0,.258-1.03c0-.687-.6-1.03-1.116-1.374A192.3,192.3,0,0,1,6764.559,9994c-1.116-.858-2.318-1.889-2.318-3.435a4.968,4.968,0,0,1,1.03-2.832c5.666-8.585,14.165-15.022,17.255-25.239.687-2.318,1.116-4.979.257-7.3-.515-1.631-2.231-3.691-3.777-3.435-1.459.172-2.49,2.318-3.52,3.349-3.176,3.605-6.353,7.3-9.357,11.16C6757.949,9973.914,6752.111,9981.9,6746.273,9989.882Z" transform="translate(-6744.421 -9879.141)"/><path class="c" d="M7166.351,10603.85c1.03.687,2.061,1.374,3.177,1.975,1.03.43,1.975.772,3,1.116a9.322,9.322,0,0,0,2.575.6,4.619,4.619,0,0,0,2.4-.687,2.988,2.988,0,0,0,1.46-2.833,3.024,3.024,0,0,0-1.2-1.889c-.515-.43-1.2-.773-1.8-1.288l-.172-.43.258-.258c.258-.343-.172-.686-.516-.857a31.029,31.029,0,0,0-5.837-1.889c-1.03-.258-2.146-.6-3.263-.858a2.375,2.375,0,0,0-1.545,0,2.1,2.1,0,0,0-.772.944c-.344.772-1.717,2.918-1.46,3.69.172.43,1.46,1.03,1.8,1.288C7165.15,10602.905,7165.75,10603.42,7166.351,10603.85Z" transform="translate(-7126.726 -10468.471)"/><path class="h" d="M6961.885,9366.426a14.621,14.621,0,0,0-4.378,3.263c-2.231,3-1.889,7.211-2.919,10.9a1.494,1.494,0,0,0-2.575.172,2.588,2.588,0,0,0,.772,2.747,12.75,12.75,0,0,1,2.061,2.232c.944,1.459.515,3.348.515,5.064a15.533,15.533,0,0,0,3.177,9.015,39,39,0,0,0,6.524,7.039,20.439,20.439,0,0,1-16.4,3.776c-3.605-.687-7.383-2.488-10.9-1.116-.172-1.8.687-3.6,1.2-5.322,1.546-4.893,1.03-10.13,1.116-15.194.086-3.691.516-7.383.858-11.159a69.081,69.081,0,0,1,1.889-10.9,24.722,24.722,0,0,1,7.383-12.275c3.691-3.091,8.671-4.637,13.221-3.521a7.081,7.081,0,0,1,5.064,7.211C6968.066,9362.478,6965.147,9364.709,6961.885,9366.426Z" transform="translate(-6921.145 -9329.77)"/><path class="h" d="M7248.619,9362.991a25.428,25.428,0,0,0,4.293,2.232c2.918,1.373,5.751,3.52,6.867,6.7a10.625,10.625,0,0,1,.516,4.379c-.172,4.292-1.8,8.413-2.748,12.533-1.03,4.206-1.459,8.843.43,12.619a47.088,47.088,0,0,1,6.009-.43,44.891,44.891,0,0,1-.772-10.729c.43-8.585,3.349-17.256,1.545-25.583a22.222,22.222,0,0,0-8.241-12.705,10.028,10.028,0,0,0-5.408-2.232,5.5,5.5,0,0,0-5.15,2.4C7244.241,9355.179,7246.129,9361.018,7248.619,9362.991Z" transform="translate(-7202.298 -9328.824)"/><path class="i" d="M8112.5,10021.962a87.008,87.008,0,0,1,.172-12.533,48.779,48.779,0,0,1,2.661-10.559c1.2-3.177,2.832-6.268,5.494-8.327,1.459-1.2,3.519-1.975,5.236-1.288a4.531,4.531,0,0,1,2.575,3.348,14.937,14.937,0,0,1,.086,4.379,49.516,49.516,0,0,1-1.287,7.813c-.859,3.433-2.318,6.7-3.349,10.043-1.631,5.581-1.889,11.418-2.232,17.17-.429,8.842-.944,17.685-1.373,26.526l-.172.773c-.429.514-2.747,1.028-3.349.6-.943-.687-.943-3.521-1.115-4.551q-.9-5.665-1.545-11.331C8113.36,10036.729,8112.761,10029.346,8112.5,10021.962Z" transform="translate(-7994.93 -9913.194)"/><path class="j" d="M8421.725,9775.788a85.281,85.281,0,0,0-8.241,8.5,164.489,164.489,0,0,0-13.563,16.481c-1.46,2.146-2.834,4.465-2.92,7.041,0,2.574,1.8,5.321,4.378,5.407,1.8.086,3.435-1.2,4.895-2.4,7.383-6.267,14.851-12.533,22.233-18.8a19.966,19.966,0,0,0,4.894-5.152c1.8-3.261,3.434-11.76.515-14.851C8430.738,9768.663,8424.215,9773.642,8421.725,9775.788Z" transform="translate(-8255.132 -9713.807)"/><path class="k" d="M8138.005,10934.545c-.687,13.992-1.631,20.345-3,34.252,1.889-.258,2.49-.344,4.293-.6,2.06-8.069,4.378-8.927,5.752-17.168,1.029-5.839,2.4-11.5,3.69-17.256q5.666-24.079,11.246-48.16c1.717-7.125,3.349-14.25,5.924-21.118,2.832-7.3,6.181-17.769-3.605-21.2-5.5-1.89-12.964-.944-16.74,3.777-4.293,5.408-3.949,13.821-4.207,20.26-.515,10.559-1.115,21.118-1.631,31.764C8139.122,10910.937,8138.606,10922.7,8138.005,10934.545Z" transform="translate(-8015.625 -10693.316)"/><path class="k" d="M8416.847,10895.637a7.9,7.9,0,0,1,2.575-3.862c1.632-1.116,3.863-1.03,5.838-.858,3.091.258,6.095.6,9.1,1.115,2.489.429,5.15,1.116,6.7,3.091,1.373,1.889,1.373,4.464,1.373,6.781-.429,17.256-1.2,34.512-2.146,51.766-.858,15.8-4.377,26.7-5.751,42.409-.516,6.181-.944,5.15-2.061,16.481-.086.858,0,.344-.344.858a2.725,2.725,0,0,0-.772-.258c-1.03-.086-.858.858-1.889.773l-.6.085a13.969,13.969,0,0,1-.858-4.12c-2.061-30.99-4.465-52.194-10.474-82.756C8415.473,10916.669,8413.069,10905.6,8416.847,10895.637Z" transform="translate(-8271.459 -10737.595)"/><path class="k" d="M8197.254,10699.51a5.266,5.266,0,0,1,.258-2.832,6.068,6.068,0,0,1,3-2.4,69.327,69.327,0,0,1,34.6-6.783,7.1,7.1,0,0,1,3.263.859,6.151,6.151,0,0,1,1.889,3.949c.858,4.465,1.716,9.014,2.574,13.563.6,3.006,1.116,6.268-.429,8.928a11.735,11.735,0,0,1-3.862,3.521,43.519,43.519,0,0,1-32.966,5.922c-4.206-.943-6.782-2.4-7.125-6.7C8197.94,10711.529,8197.769,10705.518,8197.254,10699.51Z" transform="translate(-8072.469 -10551.596)"/><path class="l" d="M7948.9,12282.2a2.5,2.5,0,0,0-1.029.6,3.569,3.569,0,0,0-.344.858c-.515,2.575-.944,5.236-1.288,7.812a14.034,14.034,0,0,1-.772,3.777,10.018,10.018,0,0,1-5.665,5.408,26.08,26.08,0,0,1-6.182,1.545c-.687.086-1.459,0-1.8.688a2.709,2.709,0,0,0,.688,2.489c.857.859,2.317.688,3.52.429a106.014,106.014,0,0,0,10.215-2.918,4,4,0,0,0,2.146-1.116,2.722,2.722,0,0,0,.687-1.03q1.159-2.19,2.061-4.378a35.619,35.619,0,0,0,1.2,5.236,1.435,1.435,0,0,1,1.03.086c-.344-6.7-.516-13.306-.344-19.916A13.47,13.47,0,0,0,7948.9,12282.2Z" transform="translate(-7829.781 -12009.119)"/><path class="l" d="M8427.217,12315.5c-.344,1.974-.43,4.034-1.374,5.751-1.374,2.919-4.551,4.378-7.555,5.322a1.908,1.908,0,0,0-.944.43,1.409,1.409,0,0,0-.172.858c-.086.858-.086,1.8-.172,2.661l.086.43.6.172a78.362,78.362,0,0,1,10.043.172,2.361,2.361,0,0,0,1.546-.172,2.008,2.008,0,0,0,.772-2.061,7.754,7.754,0,0,1-.172-2.4c.172-.772.944-1.546,1.717-1.2a17.346,17.346,0,0,1-.257,5.151,4.15,4.15,0,0,0,2.061.258,57.938,57.938,0,0,1,.172-13.908c.343-1.544,1.372-3.776.687-5.322-.687-1.459-2.318-1.545-3.777-1.631-1.632,0-1.718.6-2.318,2.061C8427.816,12313.178,8427.473,12314.38,8427.217,12315.5Z" transform="translate(-8273.416 -12034.95)"/><path class="m" d="M8224.878,9452.619c-1.545,6.868-2.146,14.509,1.287,20.6,3.178,5.58,10.3,9.015,16.226,6.61,6.095-2.49,8.585-9.7,9.7-16.226C8255.524,9443.435,8230.373,9427.9,8224.878,9452.619Z" transform="translate(-8096.659 -9411.242)"/><path class="i" d="M8157.232,9910.9c3.691-.686,7.3-1.888,11.074-2.4a4.545,4.545,0,0,1,2.4.258,2.223,2.223,0,0,1,.944,1.2c5.752,10.215,7.555,21.547,9.186,32.707,3.091,20.688,6.267,41.378,9.357,62.066a115.806,115.806,0,0,1-38.545,6.01c-4.808-.086-9.7-.43-13.907-2.232a7.412,7.412,0,0,1-3.091-2.146c-1.116-1.46-.944-3.263-.687-4.895q5.537-41.076,10.13-82.154c.257-2.231-.429-6.181,2.4-7.641C8148.991,9910.3,8154.227,9911.411,8157.232,9910.9Z" transform="translate(-8014.504 -9839.559)"/><path class="n" d="M8384.08,9926.112c-1.373,10.3-4.121,20.346-6.867,30.389-.516,1.8-.943,3.863.086,5.5.859,1.374,2.66,1.889,4.207,2.317,8.756,2.146,17.855,4.378,26.783,2.747a3.092,3.092,0,0,0,1.889-.772c.771-.687.771-1.975.688-3-.773-8.929-2.318-17.771-3.777-26.527-2.49-14.422-4.98-28.931-10.217-42.494-.258-.515-.43-1.115-.943-1.373a2.839,2.839,0,0,0-2.061,0c-2.4.6-8.154.944-9.959,2.661s.258,6.438.516,8.756A80.532,80.532,0,0,1,8384.08,9926.112Z" transform="translate(-8236.547 -9825.156)"/><path class="n" d="M8156.156,9997.556a1.187,1.187,0,0,1-.086.943,1.5,1.5,0,0,1-1.2.429c-2.318.172-4.636.344-6.868.516.6-3,1.03-6.009,1.374-9.1,2.317-18.8,2.4-37.944,6.61-56.4a6.2,6.2,0,0,1,1.373-3.263c1.631-1.631,2.661-.772,2.747.858.086,2.146-.944,4.894-1.373,7.039-.773,4.637-1.374,9.357-1.8,14.08-.858,9.442-1.116,18.972-1.03,28.586C8155.9,9986.652,8156.07,9992.146,8156.156,9997.556Z" transform="translate(-8027.508 -9859.085)"/><path class="i" d="M8521.933,9959.813c2.748,2.061,4.464,5.322,5.924,8.413a86.077,86.077,0,0,1,5.751,14.766c1.889,7.3,2.318,14.766,2.747,22.233a64.281,64.281,0,0,1,0,11.5,11.77,11.77,0,0,1-2.061,6.1,5.517,5.517,0,0,1-5.665,2.316l-.687-.343c-.6-.516-.515-1.373-.515-2.146a84.271,84.271,0,0,0-11.675-50.994c-1.631-2.746-5.323-7.811-3.949-11.245C8513.263,9956.637,8519.443,9958.01,8521.933,9959.813Z" transform="translate(-8359.805 -9884.869)"/><path class="o" d="M8757.306,10805.543q-.387-1.03-.772-2.059l.515-.086v-19.316c0-8.413-.344-16.482-1.116-24.9-2.061-24.638,4.979-51.594,3-76.746a107.739,107.739,0,0,0-2.316-17.427c-1.718-7.469-6.183-6.438-12.535-7.727-9.957-2.061-30.3-2.49-40.089.344-.086,47.988,9.1,101.471,13.134,149.114h.858a26.806,26.806,0,0,1-7.983,5.064,5.827,5.827,0,0,0-1.975,1.2,3.114,3.114,0,0,0,.343,4.379c1.288.858,2.92.6,4.378.258l12.62-2.833a4.986,4.986,0,0,0,2.146-1.03,4.258,4.258,0,0,0,.687-2.747c0-1.459,0-2.919.086-4.293h.344c3.177-25.925,2.232-50.392,3-76.4,1.374,12.105,4.034,19.059,6.868,34.082,1.288,6.953,2.833,13.735,3.948,20.774.515,3.606,1.116,7.125,1.8,10.731.6,3,1.632,6.181,1.546,9.356l.6.086a32.549,32.549,0,0,1-5.579,7.983,4.508,4.508,0,0,0-1.46,1.889,2.939,2.939,0,0,0,1.889,3.864c1.459.342,2.918-.516,4.206-1.46,3.521-2.49,7.039-4.979,10.646-7.555a3.751,3.751,0,0,0,1.544-1.717A4.117,4.117,0,0,0,8757.306,10805.543Z" transform="translate(-8535.771 -10522.594)"/><path class="k" d="M8683.642,9709.074c1.717-.43,3.519-1.116,5.321-.773,3.349.688,4.55,4.12,5.065,7.04,1.116,6.609,1.631,13.306,3,19.83,2.747,13.307,8.928,26.012,11.846,39.317a81.242,81.242,0,0,1,1.8,20.347,16.6,16.6,0,0,1-1.03,5.751c-1.459,3.434-4.979,6.01-8.756,7.727-6.611,3.09-14.251,4.12-21.72,5.15-9.442,1.288-19.229,2.576-28.329.258a5.553,5.553,0,0,1-2.4-1.03,4.243,4.243,0,0,1-1.2-2.918c-4.293-30.562,6.438-61.037,7.126-91.685.171-4.722,1.03-11.5,7.812-10.388C8669.906,9709.074,8675.4,9711.393,8683.642,9709.074Z" transform="translate(-8482.968 -9655.936)"/><path class="j" d="M8967.7,9775.654a9.59,9.59,0,0,1,7.983.172,13.856,13.856,0,0,1,4.378,4.551c6.268,9.528,10.044,20.345,13.65,31.162a8.483,8.483,0,0,1,.6,3.262,6.992,6.992,0,0,1-1.975,3.863c-7.9,10.044-17.856,18.285-27.729,26.354a5.84,5.84,0,0,1-2.231,1.288c-1.546.258-2.919-.772-4.121-1.718-1.03-.772-1.974-1.631-3-2.4-.172-.172-.43-.344-.43-.6a1.046,1.046,0,0,1,.516-1.03,180.337,180.337,0,0,0,18.542-20.26,12.192,12.192,0,0,0,2.232-3.777c.6-2.146-.172-4.465-.944-6.523a205.515,205.515,0,0,0-8.5-20c-1.2-2.317-4.55-6.353-4.722-8.928C8961.777,9778.659,8965.641,9776.513,8967.7,9775.654Z" transform="translate(-8765.054 -9717.449)"/><path class="p" d="M8851.672,10563.258c-.857.429-1.8,1.2-1.544,2.061.086.257.344.515.258.858,0,.258-.258.515-.43.771a5.6,5.6,0,0,0-2.232,3.521,3.791,3.791,0,0,0,1.8,3.691,5.286,5.286,0,0,0,4.55,0,13.143,13.143,0,0,0,3.606-2.919,73.777,73.777,0,0,0,5.322-6.267,2.913,2.913,0,0,0,.515-1.03c.344-1.2-.772-2.232-1.8-2.748-1.8-.944-2.662-1.717-4.55-.772C8855.364,10561.368,8853.476,10562.313,8851.672,10563.258Z" transform="translate(-8667.139 -10435.174)"/><path class="q" d="M8179.772,9398.36a1.48,1.48,0,0,0,.086.857c.257.344.772.344,1.116.43a25.112,25.112,0,0,0,5.064-.344c1.2-.172,2.4-.687,3.691-.771a14.642,14.642,0,0,1,2.661.257c2.576.343,5.15.687,7.813,1.03a4.407,4.407,0,0,0,2.575-.086c1.029-.43,2.06-1.631,3-1.029.516.344.516,1.029.6,1.63,0,2.662.086,5.237.172,7.9a1.174,1.174,0,0,1,1.459-1.03,1.369,1.369,0,0,1,.944,1.631c-.343.944-1.459,1.288-1.8,2.146a4.249,4.249,0,0,1,.688,2.918,28.482,28.482,0,0,1-1.288,9.7,12.663,12.663,0,0,1-6.267,7.211c3.176-.344,6.095-1.975,8.928-3.6,4.206-2.4,8.671-5.152,10.473-9.615a18.832,18.832,0,0,0,1.2-6.181,60.761,60.761,0,0,0,.258-11.848,22.9,22.9,0,0,0-3.862-11.073,22.118,22.118,0,0,0-3.006-3.349,13.9,13.9,0,0,0-3.52-2.747,15.405,15.405,0,0,0-4.464-1.03,52.309,52.309,0,0,0-10.987.086c-2.748.258-4.208,1.116-6.439,2.661C8183.978,9387.543,8180.373,9392.265,8179.772,9398.36Z" transform="translate(-8056.533 -9357.498)"/><g transform="translate(0 0)"><path class="p" d="M8797.248,9167.239c-3.692,5.323-5.408,11.848-6.01,18.372-.429,5.236-.171,10.815,2.575,15.28a15.57,15.57,0,0,0,11.332,7.04,14.772,14.772,0,0,0,12.275-4.894c3.091-3.605,4.122-8.413,5.064-13.049.516-2.231.945-4.464,1.46-6.782,1.03-4.979,2.061-10.387,0-15.109C8818.967,9156.424,8803.687,9158.055,8797.248,9167.239Z" transform="matrix(0.995, -0.105, 0.105, 0.995, -9526.957, -8183.996)"/><path class="r" d="M8758.069,9116.217a4.515,4.515,0,0,0-1.287-.43l-.43-.43c-1.546-1.373-3.09-2.833-4.636-4.207a22.028,22.028,0,0,0-5.321-3.948,16.012,16.012,0,0,0-6.7-1.2,33.809,33.809,0,0,0-8.842,1.2,32.541,32.541,0,0,1-6.182,1.546,6.6,6.6,0,0,1-5.837-1.975c0,2.746.258,5.923,2.489,7.468a21.616,21.616,0,0,1-8.327-2.061c1.8,5.666,6.954,9.873,12.705,11.676,5.237,1.631,9.959.771,15.281.6a3.962,3.962,0,0,1,2.146.514c.772.6,1.717,1.116,2.575,1.8a13.017,13.017,0,0,1,1.029,1.116c1.546,2.4.516,6.524,3.091,7.813a4.56,4.56,0,0,1,.858.515c.859.859-.257,2.062-.944,3.092a9.459,9.459,0,0,0-1.116,4.034c-.257,2.833-.515,5.579-.858,8.413a8.272,8.272,0,0,1,2.576-4.122c.944-.771,1.975-1.286,3-1.973,3.262-2.232,5.236-5.925,6.867-9.529,1.546-3.435,2.833-7.126,2.747-10.989C8762.791,9121.882,8761.16,9117.933,8758.069,9116.217Z" transform="matrix(0.995, -0.105, 0.105, 0.995, -9450.832, -8142.505)"/></g></g></svg>