<svg xmlns="http://www.w3.org/2000/svg" xmlns:xlink="http://www.w3.org/1999/xlink" width="368.149" height="283.78" viewBox="0 0 368.149 283.78"><defs><style>.a{fill:#d4c19c;}.b{fill-rule:evenodd;fill:url(#a);}.c{fill:#a1b299;}.d{fill:#85997a;}.e{fill:#cfcfcf;}.f{fill:#736357;}.g{fill:#eaeaea;}.h{fill:#b4c7ba;}.i{fill:#98b99d;}.j{fill:#aa6a64;}.k{fill:#998675;}.l{fill:#60514f;}.m{fill:#4f4544;}.n{fill:#93a598;}.o{fill:#e3c0ac;}.p{fill:#5e5147;}.q{fill:#6e5e53;}.r{fill:#8ead93;}.s{fill:#7a937d;}.t{fill:#91b095;}.u{fill:#d3e4ea;}.v{fill:#67302d;}.w{fill:#5e2c29;}.x{fill:#272826;}.y{fill:#e6e6e6;}.z{fill:#c89a81;}.aa{fill:#e0af4e;}.ab{fill:#d9924e;}.ac{fill:#c98848;}.ad{fill:#d9d9d9;}.ae{fill:#d1e1e8;}.af{fill:#ccdce3;}.ag{fill:#929496;}.ah{fill:#dff1f7;}.ai{fill:#4d4d4d;}.aj{fill:#6b6883;}.ak{fill:#d5afcb;}.al{fill:#f2d8a5;}</style><linearGradient id="a" y1="0.5" x2="1" y2="0.5" gradientUnits="objectBoundingBox"><stop offset="0" stop-color="#ccc"/><stop offset="1" stop-color="#ccc"/></linearGradient></defs><path class="a" d="M94.317,278.9c-34.95,2.113-89.49-4.749-66.726-9.017s28.478-2.35,75.786-3.061,48.374,4.839,130.9,3.061S314.307,259,338.85,263.979s25.966,4.268,16.718,11.382S129.267,276.788,94.317,278.9Z"/><path class="b" d="M7808.324,3791.113c62.539,0,131.086-1.391,180.957-2.051-49.871.659-118.418,2.051-180.957,2.051-79.312,0-148.953-2.344-158.328-11.717C7659.371,3788.77,7729.012,3791.113,7808.324,3791.113Zm181.543-2.051c7.4-.22,22.555-2.783,22.48-6.225C8012.422,3786.28,7997.266,3788.843,7989.867,3789.063Zm-325.594-14.134h.148c18.164-1.684,34.566-2.563,49.8-2.929-15.234.366-31.637,1.245-49.8,2.929Z" transform="translate(-7644.199 -3507.333)"/><path class="c" d="M9932.758,1403.954a3.119,3.119,0,0,1,3.73-.659,6.978,6.978,0,0,1,2.641,2.636,35.313,35.313,0,0,1,.223-3.954,9.548,9.548,0,0,1,1.023-3.515,4.125,4.125,0,0,1,2.781-2.124c1.977-.366,3.953,1.245,4.688,3.149a13.1,13.1,0,0,1,.289,6.078c-.434,3.369-.8,6.737-1.168,10.033,0,.513.223,4.833-.074,5.2-.437.513-2.2.732-2.785.806a9.913,9.913,0,0,1-4.172-.366l-.441-.293a1.28,1.28,0,0,1-.289-.879c-.074-.586.879-4.321.8-4.906l-.145-.073c-2.348-2.05-4.984-4.1-6.742-6.737a5.169,5.169,0,0,1-.953-2.124A2.661,2.661,0,0,1,9932.758,1403.954Z" transform="translate(-9747.312 -1305.595)"/><path class="d" d="M10009,1489.135a.407.407,0,0,1,.813,0v1.1a.407.407,0,0,1-.812,0Z" transform="translate(-9814.407 -1391.288)"/><path class="d" d="M9974.02,1541.527c-.145-.513.66-.732.734-.22a2.811,2.811,0,0,1,.148,1.1c-.074.513-.883.513-.883,0A1.67,1.67,0,0,0,9974.02,1541.527Z" transform="translate(-9776.94 -1439.726)"/><path class="d" d="M9973.605,1629.684a7.4,7.4,0,0,0,.07-1.245.438.438,0,1,1,.875,0,4.745,4.745,0,0,1-.07,1.465C9974.41,1630.563,9973.457,1630.27,9973.605,1629.684Z" transform="translate(-9776.595 -1520.341)"/><path class="d" d="M10033.258,1589.285l.512.586c.363.366-.223.952-.66.586l-.516-.439C10032.082,1589.578,10032.887,1588.846,10033.258,1589.285Z" transform="translate(-9840.2 -1484.336)"/><path class="d" d="M10095.328,1527.653l.516.586c.367.439-.293,1.1-.656.659l-.52-.586C10094.234,1527.8,10094.965,1527.141,10095.328,1527.653Z" transform="translate(-9906.819 -1427.17)"/><path class="c" d="M9854.477,1475.808a1.755,1.755,0,0,1,1.1-1.172,1.25,1.25,0,0,1,.875.146,2.525,2.525,0,0,1,1.176,1.538,5.466,5.466,0,0,1,.219,1.9,8.474,8.474,0,0,1-.66,3.588,3.574,3.574,0,0,1-2.707,2.2,5.075,5.075,0,0,1-1.836-.22,2.936,2.936,0,0,1-2.051-1.025,2.825,2.825,0,0,1-.434-1.318,3.058,3.058,0,0,1-.078-1.611,1.333,1.333,0,0,1,1.027-1.1c.8-.146,2.2,1.318,2.855.439.3-.366.074-1.172.074-1.611A4.725,4.725,0,0,1,9854.477,1475.808Z" transform="translate(-9650.802 -1378.181)"/><path class="d" d="M9974.941,1450.439a.4.4,0,1,1,.8,0v1.025c.078.586-.8.586-.8,0Z" transform="translate(-9777.863 -1355.376)"/><path class="d" d="M9862,1509.135a.4.4,0,0,1,.8,0v1.1a.4.4,0,0,1-.8,0Z" transform="translate(-9656.643 -1409.823)"/><path class="d" d="M9883.313,1568.757a.418.418,0,0,1,.223.806c-.293.073-.656.22-1.027.293-.441.22-.734-.586-.219-.732C9882.656,1568.977,9882.949,1568.9,9883.313,1568.757Z" transform="translate(-9679.123 -1465.418)"/><path class="d" d="M10020.605,1686.684a7.012,7.012,0,0,0,.074-1.245.439.439,0,0,1,.879,0,4.991,4.991,0,0,1-.07,1.465C10021.418,1687.563,10020.465,1687.27,10020.605,1686.684Z" transform="translate(-9827.035 -1573.166)"/><path class="e" d="M9888.031,1698.229a6.814,6.814,0,0,1-.437,2.417c-.66,1.611-2.418,2.417-4.105,2.783a28.542,28.542,0,0,1-7.906.366,5.433,5.433,0,0,1-3.59-.952,2.678,2.678,0,0,1-.8-1.025,3.657,3.657,0,0,1-.363-1.172c-.148-.732-.367-1.391-.512-2.124a30.624,30.624,0,0,1-.219-3.735,40.62,40.62,0,0,1-.152-4.247,32.215,32.215,0,0,0-.07-3.735c-.219-3.149.07-6.591-.148-9.74,5.422-1.318,10.621-1.1,16.113-.293.949.146,2.563.439,2.785,1.538a15.257,15.257,0,0,1-.078,1.831c-.07.806-.07,1.611-.07,2.417-.148,3.369-.223,6.664-.293,9.959C9888.109,1694.421,9888.031,1696.325,9888.031,1698.229Z" transform="translate(-9683.038 -1564.938)"/><path class="f" d="M9883.008,2033.293a3.3,3.3,0,0,0-1.687-.293c-5.055.073-10.105.586-15.09.073a2.554,2.554,0,0,0-2.414.659,1.616,1.616,0,0,0,.516,2.051,4.114,4.114,0,0,0,2.27.659,73.925,73.925,0,0,0,9.008,0c1.539-.073,3.148-.073,4.688,0,.879,0,2.047.366,2.781-.146A1.811,1.811,0,0,0,9883.008,2033.293Z" transform="translate(-9677.797 -1895.682)"/><path class="g" d="M9899.227,1757.781a.461.461,0,0,1,.656-.073.836.836,0,0,1,.441.806h-.293c0-.293-.219-.732-.512-.513a.2.2,0,0,0,.148.366c.293,0,.438.439.145.513C9899.156,1758.953,9898.715,1758.221,9899.227,1757.781Z" transform="translate(-9696.871 -1640.455)"/><path class="g" d="M10034.074,1798.814l.078-.073a.666.666,0,0,1,1.1.586.691.691,0,0,1-1.316.146Z" transform="translate(-9841.683 -1678.413)"/><path class="g" d="M9900.047,1762.22l.371-.22.434.146.078.513-.512.146C9900.125,1762.732,9899.906,1762.513,9900.047,1762.22Z" transform="translate(-9697.552 -1644.528)"/><path class="g" d="M9993.215,1711.29a.682.682,0,0,1,.145,1.1.785.785,0,0,1-1.246-.513A.69.69,0,0,1,9993.215,1711.29Z" transform="translate(-9796.931 -1597.406)"/><path class="g" d="M9945.488,1855.439a1.8,1.8,0,0,1,.664-.293l.141-.146a1.494,1.494,0,0,1,1.176.659.757.757,0,0,1-.441,1.025,1.328,1.328,0,0,1-1.465-.073A.769.769,0,0,1,9945.488,1855.439Z" transform="translate(-9747.455 -1730.717)"/><path class="g" d="M9908.523,1934.091a.521.521,0,0,1,.8-.073.476.476,0,0,1,.07.806C9909.031,1935.19,9908.227,1934.6,9908.523,1934.091Z" transform="translate(-9706.823 -1803.804)"/><path class="g" d="M9880.641,1826.9c.59-.366,1.1.513.883,1.025l-.074.073-.074.146a.6.6,0,0,1-.664.22C9880.129,1828.146,9880.207,1827.194,9880.641,1826.9Z" transform="translate(-9676.752 -1704.596)"/><path class="g" d="M9949.2,1709.073l.512-.073h.148c.293.146.586.22.734.513a.587.587,0,0,1-.148.732c-.441.439-1.1.073-1.391-.366A.583.583,0,0,1,9949.2,1709.073Z" transform="translate(-9750.88 -1595.409)"/><path class="g" d="M10037.035,1888.146l.223-.146h.219l.293.22-.07.146h0l-.148.293A.4.4,0,0,1,10037.035,1888.146Z" transform="translate(-9844.414 -1761.301)"/><path class="g" d="M9968.707,1791.142v.366l-.516.146C9967.684,1791.362,9968.34,1790.7,9968.707,1791.142Z" transform="translate(-9770.305 -1671.4)"/><path class="g" d="M9968.914,1977.439l.438-.22.223-.22a1.025,1.025,0,0,1,.582.659.735.735,0,0,1-.363.732C9969.2,1978.538,9968.547,1977.952,9968.914,1977.439Z" transform="translate(-9771.829 -1843.783)"/><path class="g" d="M10071,1759.146l.289-.146.223.073.07.073-.219.439H10071Z" transform="translate(-9880.731 -1641.747)"/><path class="h" d="M9677.352,1812.1v-.293h-.727l-.148-.366.363-.659-.145-.073-.367.439a6.434,6.434,0,0,0-.437-.732h0l.586-.439-.148-.22-.656.366h0l-.59-.586-.437-.293a5.964,5.964,0,0,1,.512-.952l-.219-.146a4.4,4.4,0,0,1-.586.952l-.367-.22h0a3.2,3.2,0,0,1-.363-.732l-.148.073.219.586a3.644,3.644,0,0,0-.883-.146v-.073l.078-.586h-.219l-.148.513.07.146h-.508l-.441.073-.367-.513-.215.22.293.366a4.952,4.952,0,0,0-.883.439l-.148.073-.215-.659h-.148l.07.732c-.215,0-.363-.146-.727-.293l.215-.439-.145-.146-.363.513a3.332,3.332,0,0,0-.809-.073l-.223-.586-.215.073v.513a3.491,3.491,0,0,0-1.687.513l-.07-.073-.219-.513-.148.073.07.513.078.146h-.078c-.293,0-.656.073-.949.073v.22h.586a5.535,5.535,0,0,0-.953.952h0a1.985,1.985,0,0,0-.734-.586l-.07.146.582.659h.078l-.3.586-.363-.366-.145.073.363.513h0l-.148.659H9663v.293h.586a3.437,3.437,0,0,0,.219,1.758l-.293.22.145.22.293-.22a6.322,6.322,0,0,0,.516.732l-.437.586.07.146.512-.586a7.527,7.527,0,0,0,2.785,1.611l.219.146c2.781.073,6.223.806,8.348-1.538l.074-.146h.73v-.146l-.512-.146a2.49,2.49,0,0,0,.441-1.025l.215.22.148-.073-.293-.513.074-.439.07-.073.52-.586-.148-.146-.441.293a4.458,4.458,0,0,0-.145-.952Z" transform="translate(-9456.691 -1687.159)"/><path class="i" d="M9774.625,1835a3.669,3.669,0,0,0-2.855,3.3,3.464,3.464,0,0,0,1.9,3.369l.074-.146a3.21,3.21,0,0,1-1.613-3.222c.148-1.318,1.023-2.929,2.492-2.929C9774.844,1835.366,9774.844,1835,9774.625,1835Z" transform="translate(-9562.021 -1712.182)"/><path class="i" d="M9741.531,1836.588c-.074-1.172-.656-3.076-1.832-3.588l-.07.146c.949.513,1.391,2.051,1.539,3.076a2.942,2.942,0,0,1-1.176,3.076l.223.293A2.983,2.983,0,0,0,9741.531,1836.588Z" transform="translate(-9526.431 -1710.328)"/><path class="i" d="M9708.926,1832.847a3.681,3.681,0,0,0-4.1-3.149v.146a3.388,3.388,0,0,1,1.395,6.591l.07.293A3.779,3.779,0,0,0,9708.926,1832.847Z" transform="translate(-9491.269 -1707.246)"/><path class="j" d="M9668.047,1930.076a2.463,2.463,0,0,0,.516.879,2.532,2.532,0,0,0,1.023.439,31.884,31.884,0,0,0,5.93.439c1.395,0,2.934,0,3.957-.952.656-.513.949-6.444,1.1-7.25a10.294,10.294,0,0,0,.148-2.563,1.191,1.191,0,0,0-.148-.732c-.223-.366-.734-.439-1.168-.513a83.7,83.7,0,0,0-9.6.146c-.879,0-2.781.073-2.93,1.1-.145.659.219,1.172.363,1.758C9667.465,1923.559,9667.828,1929.417,9668.047,1930.076Z" transform="translate(-9460.269 -1790.708)"/><path class="k" d="M8172.777,2637.121a2.447,2.447,0,0,1,2.855,1.1,7.18,7.18,0,0,1,.883,3.076,87.794,87.794,0,0,1-.3,22.335,7.762,7.762,0,0,1-1.246,3.588,2.55,2.55,0,0,1-3.367.659c-.512-9.081-.586-18.161-.367-27.242C8171.313,2639.318,8171.531,2637.707,8172.777,2637.121Z" transform="translate(-7847.099 -2455.425)"/><path class="h" d="M7866.625,2550.123c.438-1.977,2.707-2.709,4.688-3,7.25-1.172,14.715-1.025,22.039-.732,3.074.073,6.152.219,9.23.586a57.477,57.477,0,0,1,7.688,1.611,8.711,8.711,0,0,1,4.1,2.051,3.46,3.46,0,0,1,.586,4.174c-.879,1.172-2.562,1.391-4.031,1.465a254.362,254.362,0,0,1-35.809-.952,21.592,21.592,0,0,1-4.832-.879,5.594,5.594,0,0,1-2.711-1.538A3.143,3.143,0,0,1,7866.625,2550.123Z" transform="translate(-7563.135 -2371.283)"/><path class="l" d="M8248.109,2978.749a1.184,1.184,0,0,0,1.168-1.025l1.023-16.7a15.839,15.839,0,0,1,.52-3.735c.141-.439.363-.952.508-1.391a14.615,14.615,0,0,0,.59-1.538,18.249,18.249,0,0,0,.582-4.394c.148-3.588.148-7.25,0-10.765l-.07-1.831c-.078-1.9-.223-3.808-.148-5.712a43.707,43.707,0,0,1,2.121-12.669,1.14,1.14,0,0,0-.656-1.465,1.245,1.245,0,0,0-1.465.732,46.4,46.4,0,0,0-2.273,13.4c0,1.9.074,3.881.148,5.785l.074,1.831q.223,5.273,0,10.545a13.11,13.11,0,0,1-.441,3.881c-.145.439-.363.952-.512,1.391a13.044,13.044,0,0,0-.586,1.538,17.185,17.185,0,0,0-.582,4.248l-1.1,16.7a1.182,1.182,0,0,0,1.023,1.172Z" transform="translate(-7930.046 -2715.4)"/><path class="l" d="M8076.152,2890.232a5.972,5.972,0,0,0-2.273.146c-.949.293-1.973.513-3,.732-.441.073-.879.293-.879.732,0,.293.293.513.586.586a12.889,12.889,0,0,0,4.98,1.025,75.715,75.715,0,0,0,12.887,0c.367,0,.734-.146.809-.439l-.219-.659a5.033,5.033,0,0,0-2.492-1.245,16.719,16.719,0,0,0-3.734-.659,16.549,16.549,0,0,0-3.3.073,7.1,7.1,0,0,1-2.488,0C8076.738,2890.452,8076.441,2890.306,8076.152,2890.232Z" transform="translate(-7751.865 -2690.082)"/><path class="m" d="M7941.082,3397.636a.953.953,0,0,0,.875-.439,1.214,1.214,0,0,0,.074-1.465l-.437-.512h0l-.074-.073h0l-.512-.146h-43.793a1.129,1.129,0,0,0-1.1,1.1,1.145,1.145,0,0,0,1.1,1.172h43.059a1.619,1.619,0,0,0,.586.366Z" transform="translate(-7592.111 -3157.941)"/><path class="l" d="M8147.414,3358.838a1.066,1.066,0,0,0,.879-.366,1.136,1.136,0,0,0-.145-1.538l-2.492-2.124c-2.2-1.831-4.32-3.735-6.516-5.492a1.462,1.462,0,0,0-1.172-.439,1.63,1.63,0,0,0-1.1.879,1.425,1.425,0,0,0,.219,1.318,1.316,1.316,0,0,0,1.027.293c2.051,1.684,4.1,3.442,6.078,5.126l2.488,2.124A1.238,1.238,0,0,0,8147.414,3358.838Z" transform="translate(-7816.025 -3115.189)"/><path class="l" d="M8115.551,2980.658a1.063,1.063,0,0,0,1.1-1.025c.367-5.346.223-10.692.148-15.891a56.849,56.849,0,0,0-.586-9.3c-.148-.879-.293-1.831-.512-2.783a28.173,28.173,0,0,1-.66-4.1,38.04,38.04,0,0,1,.512-9.52l.219-1.9c.516-4.394.66-8.788.8-13.987.074-5.419-.289-13.181-4.832-18.967a1.219,1.219,0,0,0-1.609-.146,1.136,1.136,0,0,0-.148,1.538c4.1,5.2,4.469,12.522,4.32,17.5a112.765,112.765,0,0,1-.8,13.768l-.219,1.9a50.578,50.578,0,0,0-.512,10.032,41.4,41.4,0,0,0,.73,4.321c.223.879.367,1.831.512,2.709a73,73,0,0,1,.59,8.934c.074,5.2.145,10.472-.148,15.745a1.123,1.123,0,0,0,1.027,1.172Z" transform="translate(-7782.405 -2701.784)"/><path class="l" d="M7803.078,2968.981a1.084,1.084,0,0,0,1.027-.806,27.507,27.507,0,0,0-2.2-22.848c-.516-.806-1.027-1.611-1.609-2.417-1.613-2.49-3.227-4.906-3.3-7.616a11.591,11.591,0,0,1,.293-3.149l.074-.732a39.642,39.642,0,0,0-2.2-20.431,22.871,22.871,0,0,0-4.105-7.03,21.556,21.556,0,0,0-9.664-5.053,1.139,1.139,0,0,0-1.246.952,1.086,1.086,0,0,0,.953,1.245,19.241,19.241,0,0,1,8.273,4.394,18.292,18.292,0,0,1,3.664,6.3,36.851,36.851,0,0,1,2.125,19.26l-.074.732a14.611,14.611,0,0,0-.367,3.662c.145,3.3,1.977,6,3.734,8.714.516.732,1.027,1.538,1.539,2.344a25.068,25.068,0,0,1,1.977,20.944,1.176,1.176,0,0,0,.73,1.465Z" transform="translate(-7447.009 -2698.163)"/><path class="l" d="M8276.66,2970.4h.145a1.137,1.137,0,0,0,.953-1.245c-.66-7.909-1.465-17.8,2.414-25.777.52-1.025,1.023-1.977,1.613-2.929a26.575,26.575,0,0,0,2.855-6.225,23.662,23.662,0,0,0,.66-4.1c.145-2.051.145-4.028.145-6,.07-1.9.07-3.955.223-5.932.367-4.614,1.316-8.129,3-10.912,1.832-2.929,6.957-5.785,10.844-6a1.207,1.207,0,0,0,1.023-1.245,1.192,1.192,0,0,0-1.176-1.025c-4.1.293-10.105,3.149-12.6,7.1a26.805,26.805,0,0,0-3.293,11.864,59.556,59.556,0,0,0-.215,6.151c-.078,1.9-.078,3.881-.223,5.858a22.76,22.76,0,0,1-.512,3.662,27.262,27.262,0,0,1-2.711,5.712c-.586,1.025-1.1,1.977-1.609,3.076-4.176,8.495-3.3,18.747-2.641,26.949A1.117,1.117,0,0,0,8276.66,2970.4Z" transform="translate(-7978.147 -2698.264)"/><path class="n" d="M7900.875,2597.525l-13.988-.22h-4.246c-1.98-.073-3.957-.073-5.934-.073-3.152-.073-6.3-.146-9.445-.146a10.661,10.661,0,0,1-3.371-.439,5.75,5.75,0,0,1-3.59-3.954,7.494,7.494,0,0,1,.078-3.369c.289-1.758,1.023-1.9,2.34-.659a12.076,12.076,0,0,0,6.227,2.783c2.27.439,4.539.439,6.883.659,3.59.22,7.176.806,10.766,1.1a81.091,81.091,0,0,0,10.328-.293c1.973-.146,3.879-.293,5.855-.439,1.32-.146,3.441.073,4.469-.952.582-.586,1.172-1.757,1.9-1.318,1.613,1.758.586,4.76-1.391,6.078C7905.781,2597.525,7903.215,2597.525,7900.875,2597.525Z" transform="translate(-7557.181 -2409.897)"/><path class="o" d="M7933.262,2304.359c.219-.659-.223-1.684.512-1.538.586.073,2.34.879,2.93.805l-.148.513c-.145.879-.73,2.2-.879,3.076-.949,0-1.684-.439-2.637-.439A5.4,5.4,0,0,1,7933.262,2304.359Z" transform="translate(-7589.275 -2145.731)"/><path class="o" d="M8327.586,2546.439c1.246-.146,4.32-.219,5.5-.439l-.293.586c.215,1.025.434,2.051.582,3.076a26.391,26.391,0,0,1-6.367.146A17.8,17.8,0,0,1,8327.586,2546.439Z" transform="translate(-8014.796 -2371.115)"/><path class="p" d="M8695.324,2118.146c3.367-.073,16.547-.146,20.434-.146h141.113c6.668.073,15.453.073,22.2.146,4.027,0,2.93,0,3.8,1.538.8,1.391.656,2.783.8,4.247a20.588,20.588,0,0,1-.07,4.247,20.225,20.225,0,0,1-.441,2.051c-.07.439.883,1.025-.07,1.465.215.293.07.513-2.641.586-2.414.146-6.371.146-10.613.22h-.8c-5.863,0-12.164-.073-15.895-.073H8715.828c-3.809,0-16.84,0-20.285-.22-.953-.073-1.68-.146-2.051-.22-2.051-.439-.8-1.1-.953-1.538h.371c-.148-.659.293-1.391.141-1.9a13.042,13.042,0,0,1-.219-2.856,13.3,13.3,0,0,1,.441-3.369c.293-1.025-.875-2.49-1.316-3.588C8691.809,2118.293,8691.809,2118.293,8695.324,2118.146Z" transform="translate(-8591.909 -1974.457)"/><path class="q" d="M8581.527,2062.677c39.91-1.245,95.93.293,135.766-.219,21.461-.293,42.992.512,64.445.805,3.445.22,1.688,3.955,1.176,5.932-61.664-.146-140.242-.073-201.758-.805A6.37,6.37,0,0,1,8581.527,2062.677Z" transform="translate(-8483.818 -1922.723)"/><path class="p" d="M8775.4,2376.146a16.581,16.581,0,0,1-6.59-.073,8.148,8.148,0,0,1-.66-3.222c.879-24.752-2.414-95.933-.074-120.611,1.395-1.9,4.691-1.1,6.078.805,1.316,1.977,1.316,4.54,1.316,6.957q-.434,23.068-.289,46.135C8775.184,2313.607,8776.137,2368.75,8775.4,2376.146Z" transform="translate(-8489.342 -2097.858)"/><path class="p" d="M11102.355,2221.05a2.329,2.329,0,0,0-.516-1.684,2.115,2.115,0,0,0-1.535-.366c-1.906.073-3.887.146-5.789.146a202.071,202.071,0,0,1,1.391,29.8c-.293,10.325-1.391,20.724-.512,31.05.59,7.323,1.465,60.416.367,67.665-.074.22,5.055-.146,5.789-2.124,1.094-2.636.8-53.678.8-56.534V2221.05Z" transform="translate(-10986.489 -2068.061)"/><path class="r" d="M10357.605,1515.437a2.215,2.215,0,0,0-1.832-1.538c-1.758-.146-3.074,1.757-3.664,3.222a11.124,11.124,0,0,0-.293,6c.223,2.2.223,4.467.293,6.737.219,5.2,1.543,10.106,2.859,15.086.145.439.879.293.734-.146-.371-1.245-.734-2.563-1.027-3.808-.516-3.588-.953-7.177-.219-10.765a31.806,31.806,0,0,1,2.121-5.785,25.059,25.059,0,0,0,.953-3.076,22.167,22.167,0,0,0,.734-3.149A4.656,4.656,0,0,0,10357.605,1515.437Z" transform="translate(-10187.979 -1414.588)"/><path class="r" d="M10402.117,1606.454a29.98,29.98,0,0,0-1.027-4.247c-.293-.879-.656-1.831-1.023-2.709-.363-1.172-.734-2.343-1.1-3.515a30.781,30.781,0,0,0-3.957-9.3,12.69,12.69,0,0,0-1.609-1.9,2.615,2.615,0,0,0-1.977-.879c-1.539.22-1.539,2.051-1.32,3.222a8.918,8.918,0,0,0,2.422,4.467c1.387,1.465,2.777,2.929,4.172,4.321a21.962,21.962,0,0,1,2.051,2.49,14.418,14.418,0,0,1,1.316,2.856c.219.586.367,1.1.59,1.684l.07.439a31,31,0,0,1,.953,4.394.317.317,0,0,0,.586.146l.219-.22C10402.336,1607.333,10402.266,1606.893,10402.117,1606.454Z" transform="translate(-10234.989 -1479.461)"/><path class="r" d="M10290.328,1657.5a4.148,4.148,0,0,0-4.1.513c-2.855,1.9-3.734,5.492-3.734,8.788a50.121,50.121,0,0,0,.367,6.664c.223,1.684.441,3.442.8,5.053.074.659.223,1.318.293,1.9a.3.3,0,1,0,.59-.073c-.371-1.977-.734-4.028-.953-6.005-.07-1.025-.148-2.124-.223-3.149a12.72,12.72,0,0,1,.152-2.929,4.694,4.694,0,0,1,1.75-2.2,17.316,17.316,0,0,1,2.27-1.757c1.324-.879,2.863-1.611,3.59-3.149A2.818,2.818,0,0,0,10290.328,1657.5Z" transform="translate(-10116.096 -1547.351)"/><path class="s" d="M10308.813,1673a23.835,23.835,0,0,0-2.562,2.2c-.66.732-1.316,1.538-1.906,2.343a19.127,19.127,0,0,0-1.461,2.71,31.078,31.078,0,0,0-.879,3.149h.148a18.989,18.989,0,0,1,.8-3,12.885,12.885,0,0,1,1.535-2.783,15.715,15.715,0,0,1,1.98-2.417,16.6,16.6,0,0,1,2.414-2.124Z" transform="translate(-10134.944 -1562.045)"/><path class="s" d="M10343.113,1672a9.215,9.215,0,0,0,0,2.856h.145a12.482,12.482,0,0,1-.07-2.856Z" transform="translate(-10172.315 -1561.118)"/><path class="s" d="M10366,1694a26.8,26.8,0,0,0,.223,3.442h.07c-.07-1.172-.148-2.27-.219-3.442Z" transform="translate(-10197.044 -1581.507)"/><path class="s" d="M10379.074,1728H10379c.223.879.363,1.758.586,2.563h.148C10379.512,1729.684,10379.293,1728.879,10379.074,1728Z" transform="translate(-10211.434 -1613.017)"/><path class="s" d="M10328.59,1734a15.477,15.477,0,0,1-3.586,1.538v.146a13.867,13.867,0,0,0,3.664-1.684Z" transform="translate(-10156.412 -1618.578)"/><path class="s" d="M10313.223,1707a24.539,24.539,0,0,1-3.219,1.245v.073a15.575,15.575,0,0,0,3.219-1.245Z" transform="translate(-10139.869 -1593.555)"/><path class="s" d="M10298.832,1683a13.183,13.183,0,0,1-1.832.513v.073a8.11,8.11,0,0,0,1.906-.513Z" transform="translate(-10124.595 -1571.313)"/><path class="s" d="M10394.2,1542c-.3,5.053-1.172,10.106-1.906,15.159a10.956,10.956,0,0,0-.141,4.1h.07a11.154,11.154,0,0,1,.145-3.808c.219-1.245.367-2.49.59-3.735.363-2.49.73-4.98,1.023-7.47.145-1.391.219-2.856.293-4.247Z" transform="translate(-10226.915 -1440.638)"/><path class="s" d="M10370.055,1552c-.586.879-1.687,1.611-2.051,2.636l.07.073c.512-1.1,1.465-1.758,2.051-2.71Z" transform="translate(-10201.021 -1449.906)"/><path class="s" d="M10367.637,1596c-.875.952-1.758,1.977-2.633,2.929l.07.073a33.3,33.3,0,0,0,2.637-3Z" transform="translate(-10198.385 -1490.684)"/><path class="s" d="M10382.055,1650a25.077,25.077,0,0,1-2.051,1.9l.078.073a16.7,16.7,0,0,0,1.973-1.9Z" transform="translate(-10213.826 -1540.729)"/><path class="s" d="M10406.613,1628.563a5.469,5.469,0,0,1-1.539-2.563h-.07a4.82,4.82,0,0,0,1.535,2.636Z" transform="translate(-10240.215 -1518.487)"/><path class="s" d="M10401.684,1592.977a2.981,2.981,0,0,1-1.027-1.1,3.9,3.9,0,0,0-.656-.879h0c.293.366.438.806.727,1.172a2.586,2.586,0,0,0,.883.879Z" transform="translate(-10234.924 -1486.05)"/><path class="s" d="M10395.316,1545.343a6.171,6.171,0,0,1-.73-1.318c-.223-.293-.293-.732-.512-1.025H10394a10.813,10.813,0,0,1,.586,1.318,3.044,3.044,0,0,0,.66,1.025Z" transform="translate(-10228.119 -1441.565)"/><path class="s" d="M10412.172,1672.49a2.462,2.462,0,0,1-.656-1.1,7.366,7.366,0,0,1-.441-1.391h-.07a5.489,5.489,0,0,0,.434,1.465,2.471,2.471,0,0,0,.66,1.1Z" transform="translate(-10246.215 -1559.265)"/><path class="s" d="M10445.547,1623.2a14.052,14.052,0,0,0-1.758-2.49c-.66-1.025-1.316-1.977-1.977-3l-3.738-5.712h-.07c1.246,1.977,2.488,3.881,3.734,5.785.586.879,1.168,1.831,1.832,2.71a24.124,24.124,0,0,1,1.906,2.783Z" transform="translate(-10281.569 -1505.512)"/><path class="s" d="M10513,1601c.219,1.245.3,2.563.441,3.881h.07a22.581,22.581,0,0,0-.434-3.881Z" transform="translate(-10355.026 -1495.318)"/><path class="s" d="M10525.344,1627.879l-1.316-.439c-.367-.146-.66-.439-1.023-.439h0a7.531,7.531,0,0,1,1.094.513,3.606,3.606,0,0,0,1.246.439Z" transform="translate(-10367.595 -1519.414)"/><path class="s" d="M10490.223,1642c-.078,1.025-.148,2.05-.219,3.076h.141c.078-1.025.078-2.05.148-3.076Z" transform="translate(-10330.119 -1533.315)"/><path class="s" d="M10504.051,1670.146A19.083,19.083,0,0,0,10502,1670v.073a19.375,19.375,0,0,0,2.047.146Z" transform="translate(-10344.765 -1559.265)"/><path class="s" d="M10470.625,1672a15.755,15.755,0,0,1,.07,3.222h.152a11.75,11.75,0,0,0-.223-3.222Z" transform="translate(-10309.285 -1561.118)"/><path class="s" d="M10481.91,1695.732c-.3-.146-.66-.293-1.023-.439a2.134,2.134,0,0,0-.883-.293h0a5.094,5.094,0,0,1,.953.366c.293.146.586.293.953.439Z" transform="translate(-10321.001 -1582.434)"/><path class="j" d="M10295.449,1803.828a18.443,18.443,0,0,1-1.316,6.371,6.9,6.9,0,0,1-1.543,2.417c-.727.659-1.754,0-2.637.293-2.414.806-7.543.586-9.734-.732-2.273-1.245-1.469-2.563-2.273-5.492a23.421,23.421,0,0,1-.953-6,17.666,17.666,0,0,1,.441-5.566,3.155,3.155,0,0,1,.586-1.1,2.528,2.528,0,0,1,1.1-.513c1.023-.146,2.121-.22,3.219-.293,1.387-.073,3.223-.146,4.539-.146a25.122,25.122,0,0,1,4.684-.073c1.027,0,3-.146,3.668,1.025.512.879.219,2.783.141,3.808C10295.3,1799.8,10295.664,1801.851,10295.449,1803.828Z" transform="translate(-10119.753 -1673.174)"/><path class="i" d="M9120.035,1711.545c2.125-3.954,5.863-7.177,8.789-10.472h.219V1701l.223.293a50.673,50.673,0,0,0-7.4,10.985c-.148.366-.66.073-.512-.293l.074-.146h-.223l-.66.22C9120.254,1712.278,9119.891,1711.838,9120.035,1711.545Z" transform="translate(-8868.757 -1587.995)"/><path class="i" d="M9271.422,1652.909A17.47,17.47,0,0,0,9266,1645a28.035,28.035,0,0,1,1.98,3.149c1.68,3.515,1.758,7.543,2.121,11.424.074.732,1.535.439,1.906.146.512-.293.512-.806.512-1.391A28.7,28.7,0,0,0,9271.422,1652.909Z" transform="translate(-9022.716 -1536.096)"/><path class="i" d="M9060.762,1778.372a11.636,11.636,0,0,1,2.711-1.977,13.822,13.822,0,0,1,7.105-1.025,4.09,4.09,0,0,0-2.934-.659c-3.516.22-6.812,1.9-9.957,3.588l-.512.439c-.516.659.219,2.343,1.172,2.05C9059.223,1780.569,9060.1,1778.958,9060.762,1778.372Z" transform="translate(-8805.463 -1656.286)"/><path class="t" d="M9247.926,1637.2a19.251,19.251,0,0,0-2.562-8.2c.652,4.906,1.242,9.886.141,14.646-.215,1.025.078,1.684,1.176,1.684.8.073,1.172-.293,1.246-1.1A32.535,32.535,0,0,0,9247.926,1637.2Z" transform="translate(-8996.802 -1521.267)"/><path class="i" d="M9315.535,1731.49a13.727,13.727,0,0,0-5.707-2.49,12.131,12.131,0,0,1,4.391,2.783c1.832,1.684,3.516,3.808,3.516,6.3,0-.22,2.344-.293,2.492-.659.145-.439-1.023-1.684-1.246-2.051A21.637,21.637,0,0,0,9315.535,1731.49Z" transform="translate(-9073.645 -1613.944)"/><path class="i" d="M9285.105,1675.636c-1.027-1.318-2.344-2.636-4.031-2.636,2.422,1.831,3.738,4.76,4.691,7.689a10.284,10.284,0,0,1,.512,3.3,10.506,10.506,0,0,0-.148,2.124c.734,0,2.855.439,3.148-.513.3-.879-.437-2.563-.727-3.442A20.934,20.934,0,0,0,9285.105,1675.636Z" transform="translate(-9040.642 -1562.045)"/><path class="t" d="M9163.93,1693.934c1.828-3.3,3.809-6.664,6.883-8.934a22.384,22.384,0,0,0-5.2,12.23c-.07.439-2.266.073-2.484-.439C9162.684,1695.985,9163.566,1694.593,9163.93,1693.934Z" transform="translate(-8913.467 -1573.166)"/><path class="t" d="M9098.008,1732.712c1.832-2.27,3.879-4.614,6.59-5.712a3.707,3.707,0,0,0-1.242.513,31.041,31.041,0,0,0-4.91,2.563c-1.242.806-2.344,1.758-3.59,2.563a9.277,9.277,0,0,0-2.707,1.977l-.148.366.363.293c.813.366,2.785,1.684,3.52.806.367-.439.438-1.172.8-1.611A7.951,7.951,0,0,1,9098.008,1732.712Z" transform="translate(-8842.044 -1612.091)"/><path class="i" d="M9202.234,1659.149a9.518,9.518,0,0,0,.879-3.149,14.08,14.08,0,0,0-3.441,5.053c-1.168,2.49-2.273,4.98-3.219,7.47a4.274,4.274,0,0,0-.441,1.9c2.633.732,2.855-1.318,3.516-3.369C9200.332,1664.422,9201.207,1661.712,9202.234,1659.149Z" transform="translate(-8948.184 -1546.29)"/><path class="t" d="M9280,1718c2.348.952,4.031,3.149,5.566,5.273a20.581,20.581,0,0,1,2.563,4.467c-.582.22-2.34,1.1-2.926.732-.512-.293-.66-2.05-.883-2.563a23.681,23.681,0,0,0-2.34-5.419C9281.539,1719.831,9280.734,1718.293,9280,1718Z" transform="translate(-9039.347 -1603.75)"/><path class="u" d="M9199.258,1836a3.753,3.753,0,0,1-.219,1.538,3.974,3.974,0,0,1-2.855,1.684,20.317,20.317,0,0,1-5.566.293,4.818,4.818,0,0,1-2.492-.586,2.043,2.043,0,0,1-.512-.659,5.33,5.33,0,0,1-.289-.732c-.074-.439-.223-.879-.293-1.318a11.964,11.964,0,0,1-.223-2.343c0-.879-.148-1.758-.07-2.636,0-.806,0-1.538-.078-2.343-.141-1.977.078-4.1-.07-6.078a31.971,31.971,0,0,1,11.2-.146c.66.073,1.758.22,1.906.952a2.688,2.688,0,0,1-.078,1.1v1.538c-.07,2.051-.141,4.174-.215,6.225C9199.332,1833.656,9199.332,1834.827,9199.258,1836Z" transform="translate(-8944.106 -1700.365)"/><path class="f" d="M9193.965,2043.22a2.233,2.233,0,0,0-1.172-.22c-3.516,0-7.027.366-10.473.073-.582-.073-1.387-.073-1.684.439a1.063,1.063,0,0,0,.367,1.391,2.77,2.77,0,0,0,1.539.513,60.437,60.437,0,0,0,6.3-.073h3.219c.59.073,1.395.293,1.906-.073A1.228,1.228,0,0,0,9193.965,2043.22Z" transform="translate(-8938.438 -1904.95)"/><path class="o" d="M10900.344,1420.02c-3.227-1.831-6.445-3.881-9.961-5.126a1.844,1.844,0,0,0-.879-.146,1.97,1.97,0,0,0-1.32,1.1,8.4,8.4,0,0,0-1.457,2.636,3.054,3.054,0,0,0,.434,2.856,4.946,4.946,0,0,0,1.758,1.172c6.3,3,12.6,6.078,19.039,8.714,2.273.952,4.543,1.831,6.664,2.929a30.362,30.362,0,0,0,6.227,3c2.273.659,4.906.439,6.516-1.172a2.066,2.066,0,0,0,.734-1.831,1.894,1.894,0,0,0-.586-.952c-.8-1.1-1.609-2.124-2.414-3.149a5.55,5.55,0,0,0-1.758-1.684c-.883-.513-1.395,0-2.2,0a12.017,12.017,0,0,1-2.781-.732c-2.125-.586-4.172-1.318-6.23-2.051A91.455,91.455,0,0,1,10900.344,1420.02Z" transform="translate(-10796.994 -1322.686)"/><path class="v" d="M11282.656,835.391a7.1,7.1,0,0,1,3.734-1.391c2.121,0,3.957,1.538,5.348,3.149a38.986,38.986,0,0,1,9.594,16.55c.656,2.27,1.023,4.687,1.609,6.957a60.33,60.33,0,0,0,3,7.543,31.856,31.856,0,0,0,4.176,7.4c1.9,2.2,4.535,3.881,7.395,3.881a19.78,19.78,0,0,1-2.418,9.081l-.512.586a1.58,1.58,0,0,1-.8-.073,24.5,24.5,0,0,1-7.031-4.174c-12.742-9.886-23.215-25.045-29.293-39.911C11275.7,840.81,11279.359,837.588,11282.656,835.391Z" transform="translate(-11214.98 -784.486)"/><path class="w" d="M11248.355,1432.811c.367-1.025.883-2.124,1.977-2.417a2.59,2.59,0,0,1,2.785,2.051,7.271,7.271,0,0,1-.441,3.735q-.65,2.2-1.316,4.394c-.363,1.318-.953,2.783-2.2,3.3a5.231,5.231,0,0,1-1.828.22,3.068,3.068,0,0,1-1.172-.293c-1.395-.732,0-4.028.293-5.2A41.1,41.1,0,0,1,11248.355,1432.811Z" transform="translate(-11148.381 -1337.162)"/><path class="w" d="M11351.078,928.7c.8-.439,1.465-.952,2.2-1.391-.363-1.245-.734-2.417-1.1-3.588a.581.581,0,0,1,1.1-.366c.289,1.1.66,2.124.953,3.222.434-.293.8-.659,1.168-.952.512-.439,1.246.293.734.732s-1.027.879-1.539,1.318c.582,1.977,1.246,4.028,1.9,6.078.73-.732,1.543-1.391,2.27-2.124a.466.466,0,1,1,.66.659c-.8.879-1.687,1.758-2.562,2.636.734,2.27,1.539,4.467,2.418,6.664.73-.732,1.391-1.465,2.051-2.2.363-.366.949.22.586.659-.734.806-1.465,1.684-2.121,2.563a14.939,14.939,0,0,0,1.094,2.49c.734,1.465,1.469,2.929,2.273,4.321a7.3,7.3,0,0,0,.945-1.172c.3-.439,1.031,0,.738.439-.367.586-.738,1.1-1.172,1.684,1.023,1.684,2.121,3.369,3.223,5.053.223-.366.438-.732.656-1.1.223-.586,1.1-.073.8.439-.293.586-.582,1.1-.875,1.611,1.1,1.611,2.27,3.149,3.367,4.687l.512-.586c.293-.439.953.073.66.513a6.062,6.062,0,0,1-.59.879c.516.659,1.031,1.245,1.469,1.9.289.366-.223.879-.516.513-.437-.513-.875-1.1-1.387-1.684-.371.659-.734,1.391-1.1,2.124-.293.659-1.316.073-.949-.586a23.7,23.7,0,0,1,1.391-2.343c-1.176-1.465-2.273-3-3.367-4.467a24.73,24.73,0,0,1-2.2,3.149c-.516.586-1.391-.22-.879-.879a27,27,0,0,0,2.414-3.3q-1.752-2.417-3.293-5.053a18.979,18.979,0,0,1-2.93,3c-.586.513-1.391-.293-.8-.806a42.946,42.946,0,0,0,3.148-3.149c-.883-1.538-1.758-3.076-2.492-4.614-.363-.732-.656-1.391-.953-2.124-.656.806-1.316,1.538-1.973,2.2-.59.513-1.246-.22-.809-.806a24.261,24.261,0,0,1,2.27-2.49c-.949-2.2-1.758-4.394-2.484-6.664a5.921,5.921,0,0,0-.734.659.623.623,0,0,1-.883-.879c.371-.366.734-.659,1.176-1.025q-.99-3.076-1.98-6.151c-.582.439-1.172.879-1.828,1.318S11350.422,929.065,11351.078,928.7Z" transform="translate(-11275.857 -866.956)"/><path class="w" d="M11557.047,828.952c1.094-.659,2.262-1.538,3.586-1.465a4.162,4.162,0,0,1,2.633,1.465,11.255,11.255,0,0,1,2.2,5.053c3.227,12.3,10.473,23.654,11.348,36.4a33.017,33.017,0,0,1-.363,8.934c-1.023,4.833-4.027,9.081-4.469,13.987-.215,2.563.078,5.639-1.973,7.177a6.213,6.213,0,0,1-3.445,1.1l-12.961,1.758c-3.074.439-6.449.806-9.227-.586-3.445-1.758-5.125-5.712-6.3-9.447-4.395-13.987-5.859-28.78-7.324-43.353-.664-6.664-1.98-21.75,7.762-22.555,3.512-.366,7.105,1.538,10.473,2.27C11553.527,830.636,11553.09,831.369,11557.047,828.952Z" transform="translate(-11492.948 -778.34)"/><path class="v" d="M11577.75,1003.589c2.348.073,4.617.146,6.961.146,0-2.27.07-4.54,0-6.884-2.344,0-4.691,0-7.1-.073C11577.68,999.049,11577.75,1001.319,11577.75,1003.589Zm0,7.909c4.469-.146,8.941-.513,13.4-.879a6.6,6.6,0,0,1,1.1-.146l-.3-.439c.223-1.758.441-3.515.59-5.346-2.27.073-4.539.146-6.812.073-.07,1.684-.07,3.442-.148,5.126-.07.659-1.168.659-1.168,0,.145-1.758.223-3.442.223-5.126-2.273-.073-4.621-.146-6.891-.293C11577.828,1006.811,11577.75,1009.155,11577.75,1011.5Zm21.973-1.758q.105-2.746,0-5.492-3.076.33-6.148.439c-.148,1.831-.371,3.662-.586,5.492l-.148.22C11594.527,1010.253,11597.09,1010.033,11599.723,1009.74Zm6.227-.586c.074-1.9.074-3.735,0-5.639-1.906.293-3.809.513-5.637.732-.078,1.831-.078,3.662-.148,5.492C11602.285,1009.521,11604.336,1009.3,11605.949,1009.155Zm-.66-12.889c-1.68.146-3.367.293-5.055.366.078,2.05.078,4.174.078,6.225,1.828-.146,3.66-.366,5.566-.586C11605.73,1000.22,11605.508,998.243,11605.289,996.266Zm-1.539-8.714c-1.242.22-2.488.366-3.734.513.078,2.563.148,5.2.219,7.762,1.688-.073,3.3-.146,4.906-.293C11604.777,992.9,11604.266,990.188,11603.75,987.551Zm-1.828-7.4c-2.855.879-6.148.879-9.227.952a64.547,64.547,0,0,1,.73,6.444c1.906-.146,3.8-.293,5.715-.513-.074-1.758-.223-3.515-.293-5.2-.078-.586.8-.586.875,0,.07,1.684.148,3.369.223,5.126l3.516-.439Q11602.8,983.341,11601.922,980.155Zm-11.352.952c-1.98.073-3.957.073-5.93.073.219,2.27.441,4.54.582,6.884q3.738-.11,7.473-.439c-.148-2.2-.367-4.321-.66-6.518Zm-13.844-.22c.148,2.417.367,4.833.516,7.25,2.414,0,4.762,0,7.176-.073-.148-2.27-.289-4.614-.512-6.884C11581.488,981.107,11579.074,981.034,11576.727,980.887Zm12.453,15.012h3.73c0-2.417,0-4.833-.141-7.177-2.492.146-4.984.22-7.473.293.219,2.27.289,4.54.367,6.884Zm3.73.879c-.953,0-1.977,0-2.926.073h-4.25c0,2.343.074,4.614,0,6.884,1.688,0,3.367-.073,5.055-.146a15.989,15.989,0,0,0,1.832-.073C11592.77,1001.246,11592.84,999.049,11592.91,996.779Zm6.664-.952c-.07-2.563-.215-5.126-.363-7.689-1.906.22-3.738.366-5.637.513.148,2.417.289,4.833.289,7.25C11595.773,995.9,11597.672,995.9,11599.574,995.827Zm-5.711.952c0,2.2-.07,4.467-.219,6.664,2.051-.073,4.1-.293,6.078-.513,0-2.124-.07-4.174-.148-6.3C11597.672,996.705,11595.773,996.779,11593.863,996.779Zm-16.254-1.1c2.34.073,4.758.146,7.1.146,0-2.27-.148-4.54-.219-6.81-2.422,0-4.836,0-7.25-.073C11577.387,991.14,11577.535,993.41,11577.609,995.68Zm-7.176-.439c2.047.146,4.1.293,6.219.366-.07-2.27-.141-4.467-.219-6.737-1.02,0-2.043-.073-3-.146a.367.367,0,1,1,0-.732c.953.073,1.977.073,2.926.146q-.111-3.625-.441-7.25c-.363,0-.727-.073-1.1-.073a.549.549,0,1,1,0-1.1,4.5,4.5,0,0,0,1.023.073c-.219-3.3-.512-6.664-.875-9.959-.078-.439.586-.439.586,0,.441,3.3.73,6.664,1.023,10.033,2.414.146,4.832.293,7.254.366q-.223-1.977-.441-3.954a21.678,21.678,0,0,1-5.348-.073c-.582-.073-.437-1.025.145-1.025a29.179,29.179,0,0,0,5.055.146c-.223-1.684-.437-3.3-.734-4.98,0-.293.441-.439.512-.146.293,1.684.59,3.369.813,5.126,1.973-.146,3.949-.366,5.93-.513.441-.073.441.586,0,.586-1.832.22-3.809.586-5.789.806.152,1.318.367,2.71.516,4.028,1.465,0,2.93.073,4.391.073,1.023,0,2.051,0,3.074-.073-.141-1.172-.363-2.343-.582-3.515-.074-.439.512-.586.582-.22.223,1.245.441,2.49.664,3.735.953,0,1.977-.073,2.93-.073a28.98,28.98,0,0,0,6.223-.586c-.734-2.929-1.609-5.859-2.414-8.788-.07-.293.363-.366.434-.073.883,2.856,1.758,5.785,2.57,8.641a6.665,6.665,0,0,0,1.1-.366c.289-.22.582.293.289.513-.437.146-.8.293-1.242.439.582,2.2,1.172,4.321,1.684,6.444h.223c.656-.073.945.952.289,1.1h-.289c.582,2.636,1.094,5.346,1.535,7.982.656-.073,1.391-.146,2.121-.22.441-.073.586.513.145.586-.727.146-1.461.22-2.191.366a54.432,54.432,0,0,1,.582,5.932c1.027-.073,1.98-.22,2.934-.293.582-.073.73.952.141,1.025-.945.22-1.973.366-3,.513.07,1.9.145,3.808.07,5.712,1.461-.146,2.414-.22,2.414-.22l.223-.073.148.146v.146c-.371.659-1.609.879-2.855.952-.078.806-.078,1.538-.148,2.27-.07.513-.875.513-.8,0,.07-.732.148-1.465.148-2.2-.809.073-1.543.073-1.906.146-1.246.073-2.562.22-3.809.366a20.7,20.7,0,0,1-.07,2.124c0,.293-.441.293-.371,0v-2.05c-2.051.22-4.027.439-6.078.586-5.27.513-10.621,1.172-15.965,1.391v1.318a.585.585,0,0,1-1.168,0,8.286,8.286,0,0,1,.07-1.318,29.282,29.282,0,0,1-3.586,0,.513.513,0,0,1,0-1.025c1.246,0,2.418-.073,3.586-.073.07-2.417.07-4.76.145-7.177-1.609-.073-3.219-.22-4.828-.366a.4.4,0,0,1,0-.806c1.609.146,3.219.293,4.828.366,0-2.343-.074-4.614-.074-6.884-2.121-.073-4.172-.22-6.219-.439C11569.77,996.193,11569.7,995.167,11570.434,995.241Z" transform="translate(-11528.968 -910.063)"/><path class="o" d="M11673.1,225.393a24.849,24.849,0,0,0,4.914,7.836,12.463,12.463,0,0,0,8.125,3.954c4.766.293,9.3-2.929,11.5-7.25a26.467,26.467,0,0,0,2.047-6,77.4,77.4,0,0,0,1.688-15.379c.07-3.662-.148-7.543-2.352-10.472-1.969-2.636-5.266-4.1-8.562-4.614a18.97,18.97,0,0,0-11.57,1.318C11666.883,200.641,11668.93,215.141,11673.1,225.393Z" transform="translate(-11627.614 -190.525)"/><path class="x" d="M11529.645,2018.872a16.739,16.739,0,0,0,.73-1.758l-.434-.146v-17.063c0-7.47.363-14.646,1.023-22.043,1.9-21.9-.66-44.012,1.168-66.274a99.4,99.4,0,0,1,2.129-15.452c1.609-6.591,1.68-7.469,7.617-8.641,9.074-1.758,21.746-1.9,30.68.586.07,42.547-2.273,89.708-5.93,131.889h-.8a26.01,26.01,0,0,0,7.324,4.54,4.55,4.55,0,0,1,1.828,1.025,2.65,2.65,0,0,1-.293,3.881c-1.172.806-2.711.513-4.105.22-3.8-.879-7.687-1.684-11.566-2.563a3.066,3.066,0,0,1-1.9-.879,3.354,3.354,0,0,1-.66-2.417c0-1.318-.07-2.563-.07-3.808h-.371c-2.855-22.921-1.023-74.183-1.758-97.178-1.246,10.692-4.684,46.355-7.246,59.683-1.246,6.151-2.641,12.229-3.594,18.381-.586,3.222-1.1,6.371-1.68,9.52-.59,2.709-1.539,5.492-1.469,8.348l-.582.073a28.621,28.621,0,0,0,5.2,7.03,6.855,6.855,0,0,1,1.324,1.611,2.654,2.654,0,0,1-1.766,3.515c-1.316.293-2.7-.513-3.8-1.318-3.3-2.2-6.52-4.467-9.816-6.664a4.17,4.17,0,0,1-1.465-1.538A3.968,3.968,0,0,1,11529.645,2018.872Z" transform="translate(-11491.618 -1759.624)"/><path class="y" d="M11472.57,1582.469c4.977-.22,10.613-.439,14.059,2.343a10.393,10.393,0,0,1,2.926,4.028c3.445,7.469,3.734,15.525,3.957,23.434.441,12.962.879,25.851.293,38.739a2.3,2.3,0,0,1-.516,1.538,4.218,4.218,0,0,1-2.488.879,256.921,256.921,0,0,1-40.426,1.025c-5.051-.22-10.98-1.1-13.254-4.687a8.857,8.857,0,0,1-.953-5.126c.293-7.689,2.344-15.305,3.375-22.921,1.094-9.3.656-18.6,1.9-27.9.879-5.932,1.832-12.522,11.355-12.083C11459.457,1582.1,11465.9,1582.688,11472.57,1582.469Z" transform="translate(-11403.203 -1477.445)"/><path class="z" d="M11769.6,862.184a79.973,79.973,0,0,0,1.1-15.671l-.148-.439-.437-.073c-2.125.366-4.836.439-6.812,1.245-1.1.366-.8.586-.148,1.465.586.879,1.172,1.684,1.758,2.563a51.423,51.423,0,0,1,2.711,5.273C11768.281,858.156,11769.6,860.5,11769.6,862.184Z" transform="translate(-11703.752 -795.607)"/><path class="v" d="M11770.148,868.886l-.227.439.227.22c.8.439,1.609.806,2.414,1.172.3.146.586.293.656.586.148.513-.289.952-.734,1.245a5.077,5.077,0,0,0-1.383,2.343v.366l.289.293c4.031,2.417,7.977,4.76,12.008,7.1a12.167,12.167,0,0,0-1.32-5.2c-.953-2.05-1.906-4.028-2.852-6-.8-1.611-1.828-3.515-3.445-4.467C11774.172,866.1,11771.531,867.861,11770.148,868.886Z" transform="translate(-11716.961 -814.831)"/><path class="v" d="M11692.43,847.85c.508.073,1.164.293,1.094.806l-.289.586c-.664.732-1.32,1.465-1.984,2.2.734.293,1.4.586,2.133.879.211.146.43.22.508.513l-.219.586a35.227,35.227,0,0,0-5.055,8.788,10.434,10.434,0,0,1-1.609,2.929c.438-4.028.727-8.129.8-12.156,0-1.245-.586-4.174.3-5.053C11688.984,846.971,11691.328,847.7,11692.43,847.85Z" transform="translate(-11621.372 -796.944)"/><path class="aa" d="M11657.031,174.133a2.412,2.412,0,0,1-.148,1.611,2.365,2.365,0,0,1-2.273,1.025c-1.9,0-3.883-.806-5.781-.439-.883.22-1.687.586-2.562.879-3.227.952-6.812-.366-10.039.586a7.576,7.576,0,0,0-4.828,9.374,5.019,5.019,0,0,0-2.414-2.343c-1.1-.293-2.57.366-2.57,1.538-.07,1.245,1.4,1.9,2.047,3,.883,1.318.445,3,.375,4.614a11.127,11.127,0,0,0,2.344,7.836c-1.977-1.831-4.469-2.929-6.594-4.614-3.219-2.71-5.2-6.591-6.594-10.618-2.047-6-2.781-12.742-.359-18.6a26.58,26.58,0,0,1,3.367-5.566,10.755,10.755,0,0,1,2.859-2.929c1.969-1.172,4.391-1.318,6.664-1.465a49.309,49.309,0,0,1,10.906.293A18.339,18.339,0,0,1,11657.031,174.133Z" transform="translate(-11579.387 -157.866)"/><path class="aa" d="M12121.25,206a16.238,16.238,0,0,0-8.57,2.71,23.181,23.181,0,0,0-10.539,22.116c.578,4.906,2.7,9.447,4.313,14.06,1.617,4.687,2.641,9.886.961,14.5a24.258,24.258,0,0,1-2.492,4.614c-2.57,4.028-5.492,8.055-9.742,10.106-2.2,1.1-4.984,1.611-7.1.293-.734,2.2,1.172,4.467,3.219,5.639a16.372,16.372,0,0,0,19.477-2.343,27.144,27.144,0,0,0,5.344-8.129c2.273-4.76,4.258-9.886,4.328-15.159a59.7,59.7,0,0,0-1.023-9.52,80.61,80.61,0,0,1-.953-9.447,11.514,11.514,0,0,1,.734-5.492c1.977-4.394,8.125-5.346,10.469-9.52a15.611,15.611,0,0,0,1.242-4.1C12132.016,210.394,12127.039,206,12121.25,206Z" transform="translate(-12087.917 -202.475)"/><path class="ab" d="M11225.961,1259.259c1.754-2.124,3.441-4.321,5.418-6.3a3.678,3.678,0,0,1,4.543-.659,4.652,4.652,0,0,1,1.758,4.321,19.6,19.6,0,0,1-.664,4.174,16.985,16.985,0,0,0-.582,4.394c-.078,1.684-.664,3.442-2.422,4.174a4.334,4.334,0,0,1-4.246-.732l-.215-.073c-2.129-.879-4.613-2.051-5.5-4.174C11223.25,1262.262,11224.859,1260.651,11225.961,1259.259Z" transform="translate(-11131.258 -1171.665)"/><path class="ac" d="M11309.27,1392.726c1.023-1.611,2.051-3.149,3-4.833.656-1.172,1.094-2.636,1.9-3.808.59-.879,1.617-1.611,2.641-.879,1.461,1.1.438,2.929-.367,4.028-1.176,2.783-2.414,5.492-3.66,8.275-1.176,2.417-2.051,5.419-3.738,7.543-2.27,2.929-4.9-.146-3.957-2.929C11306.043,1397.486,11307.8,1395.07,11309.27,1392.726Z" transform="translate(-11217.053 -1293.196)"/><path class="ac" d="M11271.207,1269l.289.146a42.339,42.339,0,0,1-3.879,8.714c-.219.366-.734.073-.59-.22A54.965,54.965,0,0,0,11271.207,1269Z" transform="translate(-11168.229 -1187.63)"/><path class="o" d="M11391.4,1542.3c-1.32-1.465-3.883.146-5.641-.806a8.015,8.015,0,0,1-1.023-.659,3.222,3.222,0,0,0-3.516,0,18.286,18.286,0,0,1-1.906,1.318,3.915,3.915,0,0,1-1.609.073c-10.473-.732-20.941-1.465-31.492-2.2a14.6,14.6,0,0,0-5.051.293,4.789,4.789,0,0,0-3.512,3.442l-.738,1.172c9.3,2.051,18.676,3.954,28.2,4.394,5.859.293,11.715,0,17.355,1.318,2.34.513,4.98,1.318,7.031.073s2.563-3.954,2.484-6.3A3.032,3.032,0,0,0,11391.4,1542.3Z" transform="translate(-11293.836 -1438.739)"/><path class="v" d="M11705.293,839.61c-5.492,4.98-6.375,13.035-7.766,20.358-1.609,8.055-4.242,15.891-5.93,23.873-.516,2.417-.875,5.053.219,7.25,1.688,3.076,5.641,3.954,9.156,4.467,5.2.806,7.031,1.1,12.227,1.831,9.008,1.391,9.594.659,19.844,1.831a3.406,3.406,0,0,0,2.2-.513,5.047,5.047,0,0,0,1.906-2.343,23.076,23.076,0,0,0,2.047-6.591c.219-1.391.3-3-.656-4.1a5.581,5.581,0,0,0-3.008-1.465c-10.836-2.636-13.984,0-24.75-2.71a10.669,10.669,0,0,1-2.711-.879c-2.852-1.538,1.539-8.641,2.2-11.863.648-3.149.289-7.323,1.977-10.106a58.042,58.042,0,0,0,3.875-7.616c1.1-2.49,2.055-5.2,1.539-7.909C11716.574,837.047,11709.395,835.8,11705.293,839.61Z" transform="translate(-11667.13 -787.68)"/><path class="w" d="M11668.727,1470.922c.656-1.758,1.539-3.515,2.188-5.273a28.1,28.1,0,0,0,.961-2.71,2.758,2.758,0,0,1,1.172-1.9,2.46,2.46,0,0,1,1.609.146,12.754,12.754,0,0,1,2.7,1.245,2.342,2.342,0,0,1,.742.732,2.245,2.245,0,0,1,.141.732,11.007,11.007,0,0,1-.953,4.614,62.984,62.984,0,0,1-3.656,8.568,3.535,3.535,0,0,1-.8,1.172c-1.18,1.025-3.672.732-5.055.146-1.609-.732-.586-2.783-.227-4.028C11667.914,1473.192,11668.281,1472.02,11668.727,1470.922Z" transform="translate(-11604.263 -1365.533)"/><path class="w" d="M11808.867,938.532c0,3.076,1.828,5.053,4.32,6.371,1.164-1.1,2.336-2.2,3.438-3.369a10.969,10.969,0,0,1-3.953-5.126,21.315,21.315,0,0,1-.516-2.27c-.953.146-1.977.293-2.93.366A25.056,25.056,0,0,0,11808.867,938.532Zm12.813,8.934c.508-.879,1.031-1.831,1.531-2.71a26.334,26.334,0,0,1-5.7-2.563c-1.031,1.1-2.055,2.2-3.156,3.222A38.4,38.4,0,0,0,11821.68,947.467Zm8.641,1.318c.289-.806.656-1.538.953-2.343a59.638,59.638,0,0,1-7.031-1.391c-.437.879-.883,1.758-1.391,2.636Q11826.59,948.345,11830.32,948.785Zm6.156.513c.289-.659.508-1.318.8-1.9-1.609-.293-3.3-.513-4.906-.732-.3.732-.594,1.465-.883,2.2C11833.18,949,11834.859,949.151,11836.477,949.3Zm2.7-6.225c-1.758-.146-3.508-.293-5.273-.513-.367,1.025-.727,2.124-1.172,3.149,1.609.293,3.219.513,4.836.879C11838.086,945.416,11838.594,944.244,11839.18,943.073Zm-13.031-1.684c-.445.952-.883,1.831-1.391,2.71a14.015,14.015,0,0,0,1.461.366c1.836.439,3.664.806,5.422,1.1.438-1.025.945-2.05,1.391-3.076C11830.688,942.194,11828.414,941.9,11826.148,941.388Zm-5.789-2.417c-.656.805-1.32,1.611-2.047,2.343a21.733,21.733,0,0,0,5.492,2.49c.438-.879.875-1.758,1.391-2.636A12.647,12.647,0,0,1,11820.359,938.972Zm-2.492-5.053c0-.439.078-.952.078-1.465a18.318,18.318,0,0,1-4.539,1.465l.07.439a9.355,9.355,0,0,0,3.953,6.371c.734-.806,1.461-1.611,2.2-2.417A5.91,5.91,0,0,1,11817.867,933.919Zm-4.172-8.788a34.384,34.384,0,0,0-.437,7.689,15.257,15.257,0,0,0,4.828-1.391,45.007,45.007,0,0,1,1.18-6.225C11817.359,925.2,11815.523,925.2,11813.7,925.131Zm7.547-7.763c.289-1.1.586-2.27.875-3.369l-4.172-.659c-.516-.073-1.023-.073-1.539-.146-.289,1.1-.586,2.27-.883,3.442-.578,2.343-1.172,4.906-1.68,7.47l5.641.22C11820.07,921.982,11820.727,919.639,11821.242,917.369Zm3.078-11.058c-1.984-.22-3.961-.439-5.859-.659-.664,2.2-1.25,4.394-1.836,6.591a20.408,20.408,0,0,1,2.344.293c1.1.22,2.273.439,3.367.659C11822.992,910.851,11823.656,908.581,11824.32,906.311Zm1.68-5.639c-1.023-.293-2.125-.513-3.219-.732-.375-.073-1.539-.22-2.641-.439-.437,1.684-.953,3.369-1.391,5.126,1.828.22,4.1.586,5.789.879C11825.047,903.894,11825.484,902.283,11826,900.672Zm-9.227,4.76c-.734-.073-1.906-.146-2.273-.732-1.172,5.346-2.047,10.692-2.922,16.111-.148,1.025-.375,2.124-.523,3.149a11.5,11.5,0,0,0,1.617.073c.367-1.9.734-3.735,1.172-5.419.367-1.831.875-3.735,1.32-5.566a6.515,6.515,0,0,1-1.687-.586c-.656-.293-.07-1.318.586-.952a6.246,6.246,0,0,0,1.391.513c.516-2.2,1.1-4.394,1.758-6.518Zm-7.328,27.828c.883-.073,1.688-.146,2.563-.22a32.244,32.244,0,0,1,.445-7.909h-1.609c-.219,1.465-.445,2.856-.664,4.247C11809.961,930.623,11809.672,931.942,11809.445,933.26Zm-3.367.22a22.149,22.149,0,0,1,2.273-.146c.516-3.222,1.094-6.371,1.609-9.593,1.172-6.81,2.422-13.621,4.172-20.358.078-.439.664-.22.586.146.367-.146.953.22.8.659,0,0,.8.073,1.984.22.508-1.684.953-3.442,1.461-5.126-.508-.146-.953-.366-.953-.586,0,.659-1.023.806-1.094.146v-.073a.636.636,0,0,1,.359-.732,4.96,4.96,0,0,1,2.273.146l.664.22c.508.146.945.293,1.313.366a34.073,34.073,0,0,1,4.688,1.245l.07-.22c.078-.366.594-.22.516.146l-.078.22c.227.073.516.146.734.22a.3.3,0,0,1-.148.586c-.289-.073-.508-.146-.727-.22-.508,1.611-.953,3.222-1.391,4.906.8.073,1.461.22,1.609.22.438.073.3.806-.078.732l-1.75-.22c-.586,2.343-1.1,4.614-1.687,6.957l.586.073c.516.146.289.879-.219.806l-.516-.073c-.07.22-.148.439-.219.659-.734,3.222-1.539,6.371-2.2,9.593h1.32c.508.073.508.806,0,.806h-1.539c-.289,1.465-.586,2.856-.883,4.321l-.211,1.1c.43-.146.727.513.289.806l-.516.293c-.3,2.124-.367,4.321,1.172,5.858h0a.514.514,0,0,1,.664.586,11.564,11.564,0,0,0,4.68,1.977c.219-.366.445-.806.664-1.172.289-.513,1.023-.073.8.439-.148.293-.367.659-.516.952l.367.073c2.125.366,4.328.659,6.445.879.219-.513.438-.952.656-1.465a.4.4,0,0,1,.734.293,5.652,5.652,0,0,1-.516,1.245c1.836.22,3.594.366,5.352.513.438-.806.875-1.684,1.32-2.49.211-.439.875-.073.656.366l-1.1,2.2c.8.073,1.539.22,2.344.293.734.073.734,1.172,0,1.1l-2.852-.22c-.594,1.172-1.023,2.417-1.539,3.588,1.094.22,2.2.513,3.219.806.516.146.3.879-.141.732-1.1-.293-2.273-.513-3.375-.732-.219.586-.437,1.245-.656,1.831.875.073,1.68.146,2.563.22.8,0,.8,1.318,0,1.245-.953-.073-1.977-.073-2.93-.146a11.8,11.8,0,0,0-.508,1.538.57.57,0,1,1-1.1-.293c.148-.439.289-.879.438-1.318-1.687-.146-3.367-.293-5.055-.513a8.585,8.585,0,0,1-.367.806c-.211.586-1.164.146-.945-.366l.141-.513c-2.492-.293-5.047-.732-7.539-1.245-.3.586-.664,1.172-.953,1.758a.609.609,0,0,1-1.023-.659c.219-.439.508-.879.734-1.318a41.754,41.754,0,0,1-7.617-2.2c-.445.439-.953.879-1.4,1.318-.578.513-1.461-.366-.875-.879a14.08,14.08,0,0,1,1.1-1.025,9.247,9.247,0,0,1-4.031-4.174c-.945-2.27-.516-4.687-.07-7.03a20.024,20.024,0,0,1-2.055.073C11805.273,934.651,11805.352,933.553,11806.078,933.479Z" transform="translate(-11779.624 -843.762)"/><path class="j" d="M10775.594,1540a3.392,3.392,0,0,0,.363,1.245,2.728,2.728,0,0,0,1.172.879,39.779,39.779,0,0,0,7.617,2.343c1.828.439,3.809.879,5.418.073,1.023-.586,3.145-8.129,3.586-9.154a12.531,12.531,0,0,0,.953-3.222,2.485,2.485,0,0,0,.074-1.025,1.773,1.773,0,0,0-1.391-.952c-4.1-1.245-8.277-1.9-12.449-2.783-1.1-.22-3.586-.732-4.176.586a6.7,6.7,0,0,0,0,2.417C10776.836,1531.359,10775.52,1539.048,10775.594,1540Z" transform="translate(-10655.551 -1426.849)"/><path class="y" d="M10963.523,1870.252a6.848,6.848,0,0,1,2.934-3c1.609-1.1,3.223-2.2,4.762-3.442,2.047-1.684,3.949-3.661,6.734-3.808l.074.366-.074.073c.8.513.879,1.391,1.1,2.343a12.25,12.25,0,0,0,2.633,4.906,14.558,14.558,0,0,0,4.391,3.222c1.176.586,3.445,1.1,4.25,2.27.953,1.391-.73,1.9-1.828,1.9-4.25,0-8.422-.366-12.672-.073C10972.977,1875.232,10960.961,1876.623,10963.523,1870.252Z" transform="translate(-10865.088 -1735.351)"/><path class="ad" d="M10792.164,1848.275a2.532,2.532,0,0,1,1.246-1.611c2.781-1.831,6.738-1.245,9.813-1.025,5.055.293,14.719-.146,16.039,6.591,1.387,7.177-8.129,8.275-12.82,8.861h-.363c-3.074-.586-6.078,0-8.785-1.9-1.836-1.318-4.469-4.028-4.98-6.3a5.405,5.405,0,0,1,0-2.2A14,14,0,0,1,10792.164,1848.275Z" transform="translate(-10681.354 -1721.795)"/><path class="p" d="M10737.977,1916.749a9.784,9.784,0,0,1,3.227-2.49c1.684-.659,3.148,0,4.832.073,2.2.073,4.1-1.172,6.227-1.391,1.316-.073,1.9.732,3.148,1.1,1.023.366,1.977.146,2.781,1.025.371.439.293.659.512,1.172l-.07.586a6.246,6.246,0,0,0,1.316,1.025,6.1,6.1,0,0,0,3.516,1.318,9.616,9.616,0,0,1,2.051.073,4.036,4.036,0,0,1,1.906,1.9c.363.586,1.316,1.684.8,2.417-.441.732-1.687.439-2.418.439-4.172,0-8.352.073-12.523.146a34.77,34.77,0,0,1-4.832-.659,14.191,14.191,0,0,1-4.32-.879,12.034,12.034,0,0,1-5.934-5.492Z" transform="translate(-10626.357 -1784.411)"/><path class="q" d="M10887.465,2010.5c1.242.806,2.273-.513,3.441-.732a5,5,0,0,1,2.711.513l-.078.146a5.339,5.339,0,0,0-2.414-.22c-.8.146-1.316.732-2.051,1.025a2.178,2.178,0,0,1-1.906-.146C10886.8,2010.871,10887.1,2010.285,10887.465,2010.5Z" transform="translate(-10762.52 -1874.139)"/><path class="q" d="M10964.637,1957.744c.148.146,1.395-.366,1.684-.439a4.428,4.428,0,0,1,1.391,0,1.8,1.8,0,0,1,1.316,1.611c0,.439-.586.439-.656,0-.07-.952-1.246-1.1-1.977-.879a8.192,8.192,0,0,0-1.176.513.88.88,0,0,1-1.168-.439A.345.345,0,0,1,10964.637,1957.744Z" transform="translate(-10843.566 -1825.479)"/><path class="q" d="M11063.844,1957.383a1.781,1.781,0,0,1,1.609.146c.363.22.07.659-.293.513a1.022,1.022,0,0,0-1.023,0C11063.766,1958.189,11063.551,1957.53,11063.844,1957.383Z" transform="translate(-10947.458 -1825.484)"/><path class="q" d="M10763.434,2030.855c.363-.073.727.22,1.023.439v.513h-.59l-.219-.22-.074-.073h0l-.441.073A.425.425,0,0,1,10763.434,2030.855Z" transform="translate(-10624.277 -1893.683)"/><path class="q" d="M10810.965,2026.776c.8.073,1.172-.806,1.9-.952a1.083,1.083,0,0,1,1.176.586.328.328,0,0,1-.586.293c-.293-.586-1.1.22-1.395.439a1.171,1.171,0,0,1-1.168.293C10810.523,2027.362,10810.594,2026.7,10810.965,2026.776Z" transform="translate(-10677.371 -1889.019)"/><path class="q" d="M10860.211,1991.756a.557.557,0,0,1,.438.732c0,.366-.582.293-.652-.073C10859.555,1992.341,10859.773,1991.609,10860.211,1991.756Z" transform="translate(-10727.579 -1857.44)"/><path class="q" d="M10923.137,1947a.4.4,0,0,1,0,.806A.4.4,0,0,1,10923.137,1947Z" transform="translate(-10795.036 -1815.98)"/><path class="q" d="M11025.5,1998.739a2.589,2.589,0,0,0,.73.146,3.05,3.05,0,0,0,.879-.22.665.665,0,0,1,.809.293c.223.293-.148.513-.441.366-.148-.146-.8.22-1.023.22a2.655,2.655,0,0,1-1.1-.22C11024.914,1999.252,11025.059,1998.666,11025.5,1998.739Z" transform="translate(-10906.993 -1863.838)"/><path class="o" d="M8675.922,1378.525a6.01,6.01,0,0,1,.07-1.977,3.757,3.757,0,0,1,.883-1.977,2.4,2.4,0,0,1,2.047-.732c1.395.22,2.125,1.9,3.52,1.977.582.073,1.172-.146,1.758-.073a3.546,3.546,0,0,1,1.977,1.318,41.6,41.6,0,0,0,7.688,6.151,4.252,4.252,0,0,0,2.414.879c1.324-.146,2.129-1.611,2.641-2.856,1.023-2.636,2.121-5.273,3.145-7.909,1.176-2.856,2.422-5.785,4.836-7.689,1.246-.952,2.93-1.538,4.32-.806a3.337,3.337,0,0,1,1.246,1.025,4.935,4.935,0,0,1,.148,5.2c-.883,1.831-1.758,3.588-2.492,5.492a76.528,76.528,0,0,1-4.176,8.495c-.949,1.831-1.9,3.588-2.855,5.346a10.541,10.541,0,0,1-1.465,2.343,3.31,3.31,0,0,1-2.488,1.025,3.051,3.051,0,0,1-1.395-.366,51.9,51.9,0,0,1-8.859-5.346c-3.738-2.563-7.469-4.98-11.355-7.323a2.786,2.786,0,0,1-1.168-.879A2.578,2.578,0,0,1,8675.922,1378.525Z" transform="translate(-8420.257 -1276.139)"/><path class="ae" d="M8914.359,1478.718c1.023,1.391,2.051,2.856,3.074,4.247a20.9,20.9,0,0,1,2.2,3.954c.809,2.124.66,4.614,1.906,6.444a6.224,6.224,0,0,0,5.785,2.636,7.852,7.852,0,0,0,5.488-3.588,10.6,10.6,0,0,0,1.688-6.3,8.968,8.968,0,0,0-.219-1.977,7.559,7.559,0,0,0-.8-1.758,6.9,6.9,0,0,0-2.855-2.563,11,11,0,0,0-3.074-.659c-3.664-.439-7.4-1.465-10.184-3.881-1.32-1.1-3.219-2.929-4.836-1.318C8910.7,1475.716,8913.406,1477.327,8914.359,1478.718Z" transform="translate(-8658.763 -1376.99)"/><path class="af" d="M9156.387,1434.359c1.316-1.172,2.633-2.417,3.879-3.735a1.122,1.122,0,0,0,.441-.806,2.01,2.01,0,0,0-.8-1.1,16.069,16.069,0,0,0-1.617-1.465.985.985,0,0,0-.656-.439c-.3-.073-.516.146-.738.293-.727.806-1.535,1.538-2.34,2.27a9.1,9.1,0,0,0-1.1,1.245,1.932,1.932,0,0,0,.148,2.636,13.768,13.768,0,0,0,1.316.952C9155.5,1434.652,9155.945,1434.8,9156.387,1434.359Z" transform="translate(-8902.615 -1333.876)"/><path class="ag" d="M9229,1502.033l.148.293c.223.366.516.732.734,1.1l.145.146h.219a.872.872,0,0,0,.734-.073l.441-.586a3.119,3.119,0,0,1,.582-.806l.148-.293-.078-.22c-.363-.586-.945-1.318-1.68-1.1C9230.027,1500.641,9229,1501.667,9229,1502.033Z" transform="translate(-8979.628 -1402.136)"/><path class="ah" d="M8938.5,1614.792a3.651,3.651,0,0,1,3.145.952,2.672,2.672,0,0,1,.664,1.831,19.521,19.521,0,0,1-.367,1.977,6.006,6.006,0,0,1-.66,1.9,5.629,5.629,0,0,1-.883,1.318,5.365,5.365,0,0,1-2.047,1.611,7.205,7.205,0,0,1-3.52.439,3.675,3.675,0,0,1-2.121-.513,3.2,3.2,0,0,1-.875-1.245c-.441-.952-.8-1.9-1.176-2.929a11.338,11.338,0,0,1-.652-3.149c.07-.879.875-.879,1.609-.879a24.448,24.448,0,0,0,3.215-.513A29.774,29.774,0,0,1,8938.5,1614.792Z" transform="translate(-8667.896 -1508.085)"/><path class="af" d="M9177.313,1523.3a22.384,22.384,0,0,1,.953,3.369l.363.439.441-.293-.07-.586c-.148-.586-.293-1.1-.441-1.684-.293-.806-.512-1.611-.8-2.417a8.328,8.328,0,0,0-.371-1.318,2.68,2.68,0,0,0-.363-.806h-.879C9175.555,1520.586,9177.02,1522.636,9177.313,1523.3Z" transform="translate(-8922.67 -1420.25)"/><path class="ai" d="M7972.8,1746.865a5.194,5.194,0,0,0,.145,2.343c.441,1.318,1.758,2.051,3.078,2.636a29.554,29.554,0,0,0,6,2.2c1.906.513,4.031.952,5.492,2.27s1.98,3.955.438,5.273a90.015,90.015,0,0,1-21.016-4.687,5.2,5.2,0,0,1-2.637-1.611,5.119,5.119,0,0,1-.656-2.929c-.293-10.179.438-20.431-1.1-30.464-.293-1.9-.656-4.1.512-5.566,1.832-2.343,6.957-3.076,9.6-2.05,2.781,1.1,2.781,3.588,2.637,6.225C7974.629,1729.289,7973.605,1738.077,7972.8,1746.865Z" transform="translate(-7643.604 -1599.88)"/><path class="ai" d="M8313.785,1824.167a59.277,59.277,0,0,0-1.246,8.055c-.363,9.3,4.465,18.088,5.488,27.315,1.688-.073,5.273-.293,6.813-1.1-.293-3.954-1.539-7.03-2.562-10.911a26.587,26.587,0,0,1-1.1-5.346c-.07-2.636-.441-6.225.293-8.715a115.42,115.42,0,0,0,4.25-19.846,13.263,13.263,0,0,0,.141-4.174c-.582-3.442-7.023-9.447-9.516-4.467-1.246,2.417-.875,6.518-1.176,9.227C8314.809,1817.5,8314.367,1820.871,8313.785,1824.167Z" transform="translate(-8006.34 -1682.601)"/><path class="aj" d="M7996.188,1335.246a10.89,10.89,0,0,1,3.883-1.465,7.594,7.594,0,0,1,4.977,1.684c1.395,1.1,2.488,2.343,3.809,3.515a49.573,49.573,0,0,0,7.18,4.906,173.68,173.68,0,0,1,15.742,11.131c2.488,1.9,4.906,3.881,6.371,6.371,2.125,3.515,2.2,7.616,2.637,11.5.512,3.954,1.609,8.129,5.051,10.692,1.469,1.1,3.52,2.124,3.441,3.808a3.03,3.03,0,0,1-1.973,2.343,9.113,9.113,0,0,1-3.441.439,65.907,65.907,0,0,0-7.617.073c-2.711.366-5.2,1.318-7.836,1.9a33.937,33.937,0,0,1-13.84-.439c-2.051-.439-4.25-1.1-5.492-2.563a5.729,5.729,0,0,1-1.246-3.515c-.3-4.614,2.707-9.007,2.855-13.694.145-4.54-2.344-8.788-4.906-12.742-2.344-3.588-4.836-7.25-8.57-9.813-3.148-2.2-7.1-3.442-9.957-5.859-2.492-2.05-.953-3.076,1.316-4.247C7991.063,1337.883,7993.625,1336.564,7996.188,1335.246Z" transform="translate(-7705.734 -1247.652)"/><path class="o" d="M8736.395,957.478a20.665,20.665,0,0,1,.66,4.76,17.14,17.14,0,0,1-1.828,6.81c-1.687,3.369-4.18,6.518-7.617,8.129-3.367,1.611-7.836,1.465-10.621-1.1a12.706,12.706,0,0,1-3.074-4.906,24.746,24.746,0,0,1-1.395-14.353,16.385,16.385,0,0,1,8.719-11.131,9.336,9.336,0,0,1,3.953-.806,8.306,8.306,0,0,1,3.664,1.172C8733.32,948.543,8735.3,952.718,8736.395,957.478Z" transform="translate(-8446.67 -887.239)"/><path class="ak" d="M8083.457,1444.033a33.673,33.673,0,0,0,7.18-.073l-.3-.22c-2.93-.22-5.859-.439-8.785-.732C8082.211,1443.374,8082.8,1443.667,8083.457,1444.033Zm3,1.831,1.1.659a20.033,20.033,0,0,0,2.781-2.124,24.087,24.087,0,0,1-5.637.439C8085.285,1445.2,8085.875,1445.571,8086.461,1445.863Zm4.98-2.856a2.965,2.965,0,0,0-.074-.806c-.074-.659-.293-1.831-1.027-.732C8089.9,1442.129,8090.637,1442.714,8091.441,1443.007Zm1.684,1.465c.441.879,1.023,1.1,1.758.659.73-.073.879-.366.289-.879-.949-.879-1.605-.22-2.266.073Zm-45.187-9.3a1.654,1.654,0,0,1,1.684-1.172,27.276,27.276,0,0,0,5.863,3.588,37.005,37.005,0,0,0,5.492,1.757,102.129,102.129,0,0,0,15.965,2.343,17.277,17.277,0,0,1,2.051.366c3.656.366,7.324.732,10.98,1.172a2.833,2.833,0,0,1-.219-2.417c.219-.513.734-1.1,1.465-.659.953.513.879,1.977.66,3.076a4.94,4.94,0,0,0,1.246.22c.293,0,.441-.293.73-.293a2.081,2.081,0,0,1,2.418,1.318c.879,1.9-1.023,2.05-2.562,1.391a16.862,16.862,0,0,0,2.492,1.758,30.263,30.263,0,0,1,2.926,2.05,6.987,6.987,0,0,1,2.488,3.881c.074.366-.656.439-.8.073-.953-2.344-2.855-3.955-5.273-5.492-1.316-.879-3.441-1.831-3.293-3.442l.145-.293a2.246,2.246,0,0,1-1.242-.146h-.074a12.243,12.243,0,0,1-2.785,2.71c6.594,4.174,10.84,9.667,14.941,15.012,2.93,3.954,6,8.129,5.859,12.6a1.481,1.481,0,0,1-.586,1.318,4.6,4.6,0,0,1-2.566.513c-11.57.366-23.141.732-34.785,1.1,1.027-4.614-.145-9.374-2.414-13.767-2.2-4.394-5.492-8.495-8.715-12.6-3.809-4.833-7.543-9.593-11.352-14.427A2.2,2.2,0,0,1,8047.938,1435.172Z" transform="translate(-7770.081 -1340.547)"/><path class="o" d="M8710.168,1473.236a1.536,1.536,0,0,1,1.094-.513c.8-.073,1.684.073,2.492-.073.512-.146.953-.366,1.461-.513l.219-.073c-1.609-12.523-3.145-25.265-1.023-37.714a9.666,9.666,0,0,1,1.906-4.833c1.168-1.318,3.3-1.9,4.684-.806a4.206,4.206,0,0,1,1.324,2.343,17.09,17.09,0,0,1,.363,4.321c0,7.25-.363,14.5-1.023,21.75-.293,3.515-.734,7.1-1.176,10.692-.145.952-.07,3.369-.734,4.321a3.464,3.464,0,0,1,.441,2.2,1.819,1.819,0,0,1-1.828.952,40.077,40.077,0,0,1-5.93,0,3.775,3.775,0,0,1-1.836-.439A1.208,1.208,0,0,1,8710.168,1473.236Z" transform="translate(-8432.159 -1335.112)"/><path class="g" d="M8297.621,2541.068l-.586-.073-.367-.513a4.9,4.9,0,0,0-2.707-2.563,3.874,3.874,0,0,0-3.664.513c-1.391,1.172-1.68,3.3-1.609,5.126l.148.439.508.22c1.539.22,3.074.22,4.691.293,3.438.073,8.859.293,12.227-.586a1.85,1.85,0,0,0,1.1-.879C8308.973,2540.336,8298.645,2541.068,8297.621,2541.068Z" transform="translate(-7986.152 -2363.4)"/><path class="g" d="M7893.059,2296.666l-.367.586a42.547,42.547,0,0,0-1.9,5.858,3.029,3.029,0,0,1-.367.879,2.073,2.073,0,0,1-1.316.659c-.66.073-1.391,0-2.125.073a2.708,2.708,0,0,0-1.977.659,3.788,3.788,0,0,0-.8,2.49,3.306,3.306,0,0,0,.148,1.9,3,3,0,0,0,1.1,1.245,9.451,9.451,0,0,0,4.1,1.611,3.01,3.01,0,0,0,1.98-.293,2.692,2.692,0,0,0,.73-1.245c1.609-3.881,3.223-7.762,3.66-11.864a1.932,1.932,0,0,0-.582-2.05C7894.742,2296.739,7893.793,2296.007,7893.059,2296.666Z" transform="translate(-7544.973 -2139.795)"/><path class="al" d="M8228.816,896.2a10.411,10.411,0,0,1,4.1-3.881,10.636,10.636,0,0,1,2.926-2.783,12.52,12.52,0,0,1,6.082-1.538,19.026,19.026,0,0,1,16.113,8.788,11.5,11.5,0,0,1,1.68,4.028l.078.366c.656.806.8,2.343,1.316,3.808a12.249,12.249,0,0,0,4.32,6c1.98,1.245,4.395,1.684,6.664,2.27,3.516.879,7.25,2.49,8.789,5.785.656,1.538.875,3.515,2.344,4.467,1.316.952,3.367.659,4.609,1.684a3.719,3.719,0,0,1,1.1,3.149,12.087,12.087,0,0,1-1.1,3.149c-.8,1.684-1.828,3.515-3.586,4.028-1.609.439-3.66-.366-4.906.806a6.946,6.946,0,0,0-1.023,2.49,6.776,6.776,0,0,1-4.98,4.614,6.235,6.235,0,0,1-6.152-2.636,28.019,28.019,0,0,1-1.465-3.735,4.862,4.862,0,0,0-2.562-2.929c-.875-.366-1.98-.293-2.641-.879-.949-.806-.656-2.27-1.02-3.442-.512-1.538-2.125-2.417-3.664-2.856a13.626,13.626,0,0,0-7.469-.073,2.8,2.8,0,0,1-1.32.22,1.8,1.8,0,0,1-.949-2.417l.07-.146a19.118,19.118,0,0,1-2.047.073,5.153,5.153,0,0,0,2.41-3.369,6.314,6.314,0,0,1,.664-2.27c.73-.879,2.27-.952,2.855-1.977a1.612,1.612,0,0,0-.516-2.05,1.572,1.572,0,0,0-2.047.366c1.094-1.465-1.1-5.639-2.125-6.737a10.728,10.728,0,0,0-1.977-1.684c-1.246,0-3.074-.806-4.25-.513-1.316.293-2.492,1.025-3.809,1.245s-2.926-.293-3.293-1.611c-.734,1.391-2.707,1.391-4.25,1.172l-.656-.293c-.148-.146-.148-.439-.219-.659A17.524,17.524,0,0,1,8228.816,896.2Z" transform="translate(-7963.038 -834.532)"/><path class="n" d="M7770.605,2084.394c0,2.563-4.91,1.977-4.613-.659.73-7.25,2.852-14.28,4.023-21.53,1.176-7.177,2.785-14.353,4.176-21.53.367-1.9,2.563-1.611,2.492.293-.223,7.177-1.758,14.06-2.93,21.017-.223,1.172-.367,2.27-.512,3.369-.59,4.614-1.176,9.227-1.758,13.768-.078.732-.148,1.465-.223,2.124C7771.262,2082.344,7770.605,2083.3,7770.605,2084.394Z" transform="translate(-7417.027 -1901.599)"/></svg>