<svg xmlns="http://www.w3.org/2000/svg" xmlns:xlink="http://www.w3.org/1999/xlink" width="158.475" height="503.168" viewBox="0 0 158.475 503.168"><defs><style>.a{fill:#d4c19c;}.b{fill-rule:evenodd;fill:url(#a);}.c{fill:#707070;}.d{fill:#f2e7d6;}.e{fill:#4d4d4d;}.f{fill:#ededed;}.g{fill:#666;}.h{fill:#736357;}.i{fill:#fff;}</style><linearGradient id="a" x1="0.011" y1="0.5" x2="0.989" y2="0.5" gradientUnits="objectBoundingBox"><stop offset="0" stop-color="#c7c7c7"/><stop offset="1" stop-color="#c7c7c7"/></linearGradient></defs><ellipse class="a" cx="62.5" cy="8" rx="62.5" ry="8" transform="translate(8.145 484.829)"/><path class="b" d="M291.642,8044H285.6c-10.077-.146-20.154-.146-30.231-.721a5.412,5.412,0,0,0-1.584-.144h0a5.412,5.412,0,0,1,1.584.144c10.077.575,20.154.575,30.231.721Zm-41.316-.721c-3.311,0-6.91-.288-8.637-1.582-2.591-2.016-1.152-6.335.864-8.205,2.159-2.017,5.039-2.88,7.774-3.6A144.867,144.867,0,0,1,285.6,8026h-.144a144.484,144.484,0,0,0-35.125,3.887c-2.735.722-5.614,1.585-7.774,3.6-2.015,1.87-3.455,6.189-.864,8.205,1.728,1.294,5.326,1.582,8.637,1.582Z" transform="translate(-217.27 -7540.827)"/><path class="c" d="M348.288,6504.136c.144-1.3.432-2.592.576-3.888.576-4.606,1.008-9.789-1.871-13.244-1.008-1.3-12.236-.575-14.252-.719a74.929,74.929,0,0,1-11.517-2.735,55.146,55.146,0,0,0-25.192-1.152,187.87,187.87,0,0,1-20.154,2.735,38.492,38.492,0,0,0-7.054,1.585c-8.206,2.157-7.63,2.446-6.334,10.795,1.008,7.2,1.872,14.253,2.591,21.45,1.3,13.819.288,28.071,2.015,41.6,1.727,12.955,2.735,26.057,3.743,39.156,2.3,31.959,4.895,63.917,8.206,95.731a69.59,69.59,0,0,0-5.9,7.054c-2.591,3.743-5.182,8.205-4.607,13.1,4.894,2.16,10.077-1.007,14.684-4.03l5.9-3.887c13.388-9.069,7.918-32.679,8.493-49.089.576-21.45,1.3-42.9,2.015-64.493.144-4.463-2.015-51.536,4.319-51.249,3.6.145,5.182,65.356,5.47,72.411.576,18.139.864,36.277.576,54.416-.144,15.547-5.182,32.245,7.918,41.026l5.9,4.031c4.463,3.023,9.789,6.046,14.684,3.888.576-4.752-2.015-9.214-4.751-12.957a39.673,39.673,0,0,0-5.758-7.054c-1.008-1.008,1.44-13.82,1.584-15.836.576-5.9,1.008-11.66,1.583-17.562,1.152-13.675,2.159-27.207,3.023-40.74C336.915,6584.175,342.961,6544.155,348.288,6504.136Z" transform="translate(-235.623 -6218.63)"/><path class="d" d="M437.659,4890.2c4.463,0,8.781-2.734,11.948-6.047,11.949-12.235,11.517-31.526,10.365-48.657a11.2,11.2,0,0,0-1.3-5.326c-1.584-2.3-4.607-2.879-7.486-3.167-11.8,0-23.609.576-35.557,1.151a5.063,5.063,0,0,0-2.879.72,4.14,4.14,0,0,0-1.3,2.879c-.864,4.9.72,10.077.576,14.972a80.805,80.805,0,0,0,1.152,15.548c1.727,9.789,6.19,19,14.828,24.616A18.082,18.082,0,0,0,437.659,4890.2Z" transform="translate(-363.574 -4802.346)"/><path class="d" d="M900.453,5619.516a16.216,16.216,0,0,0,2.591-.432,13.136,13.136,0,0,0,2.447-1.3c7.342-5.183,15.691-9.5,24.616-9.789a5.689,5.689,0,0,1,3.023.575,4.5,4.5,0,0,1,2.3,3.024c.72,3.022-.864,6.189-3.167,8.206a25.1,25.1,0,0,1-7.918,4.462c-5.326,2.016-10.509,4.175-15.835,6.334-4.031,1.583-8.349,3.311-12.668,2.591-1.008-2.591-2.016-5.47-1.3-8.206A7.645,7.645,0,0,1,900.453,5619.516Z" transform="translate(-777.135 -5470.916)"/><path class="e" d="M278.155,5327.229c6.478-2.016,13.1-3.887,19.722-5.613-3.167-8.206-6.334-16.557-9.5-24.905l-10.8,4.751c-.144-2.735-.288-5.327-.288-7.918-.576-12.093-1.152-24.617-5.9-35.558-3.743-8.637-4.463-10.8-12.092-16.986-10.8,5.9-38.437,8.061-47.65,0-7.486,4.174-7.342-.146-13.1,8.925-13.964,21.738-15.547,59.742-17.707,76.153-3.167,23.9-17.563,90.55-2.015,109.982,7.918,10.077,69.243,8.063,106.24-3.022C283.194,5389.563,278.731,5377.326,278.155,5327.229Z" transform="translate(-158.58 -5156.748)"/><path class="f" d="M292.354,5355.882c-17.851-1.008-35.989-2.16-53.7.143a4.609,4.609,0,0,0-4.031,4.32,502.977,502.977,0,0,0,.288,53.121,4.562,4.562,0,0,0,5.038,4.173c25.912-2.159,52.688-2.159,78.6-2.159a4.547,4.547,0,0,0,4.607-4.606c-.144-15.835-1.152-33.255-1.3-49.09a4.692,4.692,0,0,0-4.319-4.606Z" transform="translate(-211.936 -5254.067)"/><path class="g" d="M188,5173.061c-.72-3.887-1.3-7.917-2.735-11.661-.576-1.727-3.311-.864-2.735.864,1.152,3.743,2.735,7.486,3.6,11.373C186.416,5174.789,188.288,5174.212,188,5173.061Z" transform="translate(-167.755 -5087.802)"/><path class="g" d="M118.222,5251.9a23.2,23.2,0,0,0-9.213-3.023c-1.727-.287-2.447,2.448-.576,2.735a62.481,62.481,0,0,1,8.925,2.3C118.654,5254.345,119.23,5252.473,118.222,5251.9Z" transform="translate(-103.448 -5163.47)"/><path class="g" d="M94.714,5316.662c-4.175-.289-8.781.576-12.956,1.295-1.871.288-1.871,3.024.144,2.88,4.319-.432,9.069-.72,13.1-2.159A1.029,1.029,0,0,0,94.714,5316.662Z" transform="translate(-80.372 -5221.469)"/><path class="d" d="M200.208,5623.651c-2.447,2.448-5.758,5.327-9.069,4.03a5.474,5.474,0,0,1-2.735-2.015c-2.591-3.6-2.015-8.493-.432-12.525,2.447-6.766,7.342-12.523,12.092-17.994,3.887-4.462,9.213-9.5,14.972-7.918a4.719,4.719,0,0,1,2.735,1.872,4.9,4.9,0,0,1,.432,3.167C217.2,5604.5,208.7,5614.726,200.208,5623.651Z" transform="translate(-171.326 -5452.88)"/><path class="e" d="M121.3,5714.572a6.47,6.47,0,0,1-.72-4.318A66.751,66.751,0,0,1,134.252,5677a111.87,111.87,0,0,0,15.979,19c-6.478,6.91-10.221,10.51-16.267,16.7-1.3,1.294-6.19,2.3-7.774,2.879C124.462,5716.3,122.3,5716.013,121.3,5714.572Z" transform="translate(-114.727 -5529.982)"/><path class="h" d="M381.266,4689.128a10.491,10.491,0,0,0-6.622,4.9c-3.6,5.614-3.023,12.524-4.463,18.859a32.019,32.019,0,0,1-5.758,12.523,54,54,0,0,1-3.455-8.637c-2.879-8.925-4.751-18.138-3.455-27.352s6.046-18.139,14.252-23.321c2.591-1.728,5.9-3.023,8.925-2.3,4.175,1.008,6.622,5.039,8.061,8.782a27.4,27.4,0,0,1,2.015,13.963c-.432,2.3-.864,4.607-3.023,4.32C385.3,4690.569,384.289,4688.41,381.266,4689.128Z" transform="translate(-317.258 -4662.459)"/><path class="h" d="M566.826,4713.65c-1.3-2.88-1.583-6.047-2.3-9.215a52.243,52.243,0,0,0-4.607-12.235,16.071,16.071,0,0,0-4.463-5.327,7.7,7.7,0,0,0-6.478-1.584c-.864.146-1.584.577-2.3.432a3.719,3.719,0,0,1-2.015-2.158c-1.3-2.448-2.735-5.038-2.879-7.918a15.52,15.52,0,0,1,.576-5.039c1.872-6.91,7.054-13.532,14.108-14.684,6.046-1.007,12.092,2.3,15.979,7.056,3.743,4.606,5.758,10.651,7.054,16.555a36.9,36.9,0,0,1,1.3,10.508c-.288,6.91-3.6,13.388-5.47,19.867-.432,1.439-.864,9.212-1.727,9.646C571.288,4720.848,567.546,4715.233,566.826,4713.65Z" transform="translate(-475.323 -4655.741)"/><path class="i" d="M498.986,5546.783c0,1.44-.288,3.024-.432,4.606v-.143c-3.167-1.872-6.046-4.031-9.069-6.046,1.44-.577,3.023-1.151,4.463-1.584a30.138,30.138,0,0,1,5.182-1.007A20.255,20.255,0,0,1,498.986,5546.783Zm2.159-5.614-.72-.863c-2.159-.432-4.607.433-6.622,1.007a44.413,44.413,0,0,0-7.342,2.592c-.864.287-.72,1.583,0,2.015a110.409,110.409,0,0,0,11.373,6.477h.576c-.144,1.439,2.015,2.016,2.3.577C501.145,5549.375,502.153,5544.624,501.145,5541.169Z" transform="translate(-427.493 -5412.866)"/></svg>