<svg xmlns="http://www.w3.org/2000/svg" xmlns:xlink="http://www.w3.org/1999/xlink" width="136.301" height="373.11" viewBox="0 0 136.301 373.11"><defs><style>.a{fill:#d4c19c;}.b{fill-rule:evenodd;fill:url(#a);}.c{fill:#f2e7d6;}.d{fill:#537082;}.e{fill:#666;}.f{fill:#fff;}.g{fill:#b3b3b3;}.h{fill:#fcee9f;}.i{fill:gray;}</style><linearGradient id="a" x1="0.02" y1="0.497" x2="0.98" y2="0.497" gradientUnits="objectBoundingBox"><stop offset="0" stop-color="#ccc"/><stop offset="1" stop-color="#ccc"/></linearGradient></defs><g transform="translate(0)"><ellipse class="a" cx="39.5" cy="5" rx="39.5" ry="5" transform="translate(4.107 362.11)"/><path class="b" d="M21023.059,3793.051q-7.453,0-14.918-.332c-2.867-.11-12.477.442-9.82-4.86,1.1-2.209,5.738-3.645,8.836-4.307-3.1.662-7.734,2.1-8.836,4.307-2.656,5.3,6.953,4.75,9.82,4.86q7.459.331,14.918.332c6.629,0,13.367-.221,20.105-.552C21036.426,3792.831,21029.688,3793.051,21023.059,3793.051Zm52.473-3.2c3.859-.442,7.621-.994,11.367-1.546a16.928,16.928,0,0,0,2.324-.442,16.928,16.928,0,0,1-2.324.442C21083.152,3788.854,21079.391,3789.406,21075.531,3789.848Zm-39.332-6.186Zm38.332-.441h.887c1.656,0,3.313-.111,4.969-.111h0c-1.656,0-3.312.111-4.969.111Zm-58.543-.222h0Z" transform="translate(-20980 -3419.941)"/><path class="c" d="M21160.379,618.417a22.548,22.548,0,0,1-3.867-11.6c-.551-8.726,0-17.783,3.531-25.735,4.2-9.168,14.582-18.335,25.518-16.016,12.816,2.761,11.934,19.219,11.047,30.154-.66,8.726-3.867,17.452-10.268,23.416C21176.723,627.363,21166.014,626.259,21160.379,618.417Z" transform="translate(-21120.961 -557.115)"/><path class="d" d="M20990.25,2336.5c-4.746-54.123-8.5-116.639-13.254-170.871a326.133,326.133,0,0,1,41.533-1.326c4.307.11,12.039-1.657,12.922,3.424.668,3.424-2.316,10.824-2.869,14.58-3.756,24.962-12.482,49.151-13.92,74.556-.332,7.4-.221,14.8-.332,22.2a327.179,327.179,0,0,1-3.2,37.443c-.664,4.86-3.861,13.917-2.65,18.556,1.1,3.866,7.184,6.075,11.051,7.622a9.908,9.908,0,0,1,3.643,2.1c1,.995,1.438,2.762.441,3.867a4.282,4.282,0,0,1-3.312.994,151.208,151.208,0,0,1-28.283-2.32,2.473,2.473,0,0,1-1.543-.662,2.671,2.671,0,0,1-.662-1.215,13.8,13.8,0,0,1,.777-8.946Z" transform="translate(-20961.443 -1979.85)"/><path class="e" d="M21635.4,1087.154a2.712,2.712,0,0,1,2.1,4.418q-14.417,21.373-26.729,41.972c-1.105,1.767-2.43,3.755-4.42,4.2a6.412,6.412,0,0,1-3.865-.663l-16.352-6.075a2.636,2.636,0,0,1-1.318-3.866,328.34,328.34,0,0,1,27.5-41.089,3.926,3.926,0,0,1,3.646-1.436A135.261,135.261,0,0,0,21635.4,1087.154Z" transform="translate(-21501.771 -1019.557)"/><path class="f" d="M21691.586,1136.821a1.943,1.943,0,0,1,1.551,3.093c-6.738,9.941-12.93,19.882-18.777,29.712-.777,1.215-1.664,2.651-3.094,2.982a5.108,5.108,0,0,1-2.871-.442l-11.707-4.2a1.847,1.847,0,0,1-1-2.761,239.109,239.109,0,0,1,19.773-29.38,2.8,2.8,0,0,1,2.539-.994A91.327,91.327,0,0,0,21691.586,1136.821Z" transform="translate(-21564.912 -1064.254)"/><path class="e" d="M21710.713,1021.3a57.963,57.963,0,0,1-7.518-2.1.945.945,0,0,1,.668-1.767c2.43.884,4.742,1.878,7.285,2.651C21711.926,1020.305,21711.475,1021.41,21710.713,1021.3Z" transform="translate(-21606.902 -959.777)"/><path class="e" d="M21781.613,963.784a15.963,15.963,0,0,1-1.66-5.965c-.109-1.215,1.66-1.657,1.879-.331a33.617,33.617,0,0,0,1.219,5.854C21783.266,964.115,21782.051,964.446,21781.613,963.784Z" transform="translate(-21675.699 -905.796)"/><path class="e" d="M21835.9,946.485a35.441,35.441,0,0,1,1.105-8.394c.332-1.215,2.1-1.1,1.984.11-.439,2.761-.766,5.854-1.877,8.5C21836.895,947.479,21835.9,947.148,21835.9,946.485Z" transform="translate(-21725.457 -888.498)"/><path class="g" d="M21805,1187.511a3.4,3.4,0,0,1,2.537-2.872,10.2,10.2,0,0,1,4.088.111q4.646.662,8.949,1.325c-.115,1.325-1.1,2.319-2.1,3.314a2.681,2.681,0,0,1-.887.663,3.458,3.458,0,0,1-2.1-.221A42.458,42.458,0,0,0,21805,1187.511Z" transform="translate(-21697.986 -1108.427)"/><path class="g" d="M21801.828,1259.558a37.618,37.618,0,0,0-9.387-3.645c-.553-.11-.775.663-.334.773a55.108,55.108,0,0,1,9.168,3.755C21801.828,1260.773,21802.381,1259.89,21801.828,1259.558Z" transform="translate(-21686.311 -1171.969)"/><path class="g" d="M21775.377,1291.878a35.241,35.241,0,0,0-10.715-1.878.388.388,0,1,0,0,.773,42.312,42.312,0,0,1,10.383,2.1C21775.705,1293.093,21775.93,1292.1,21775.377,1291.878Z" transform="translate(-21661.73 -1202.301)"/><path class="g" d="M21755.889,1319.1c-3.205-1.215-6.408-2.209-9.613-3.2-.439-.111-.654.552-.217.773,3.2,1.1,6.3,2.319,9.609,3.313A.456.456,0,0,0,21755.889,1319.1Z" transform="translate(-21645.338 -1225.329)"/><path class="g" d="M21737.787,1359.343c-3.1-.884-6.3-1.657-9.512-2.43-.439-.111-.654.663-.217.773,3.207.884,6.3,1.878,9.5,2.651A.512.512,0,0,0,21737.787,1359.343Z" transform="translate(-21629.328 -1261.813)"/><path class="g" d="M21723.572,1401.681c-2.768-.663-5.529-1.215-8.293-1.767-.439-.11-.656.663-.215.773,2.758.663,5.414,1.436,8.17,1.988C21723.895,1402.785,21724.232,1401.791,21723.572,1401.681Z" transform="translate(-21617.773 -1300.064)"/><path class="c" d="M21502.914,1502.726a12.525,12.525,0,0,0,1.986-.331,7.532,7.532,0,0,0,1.881-.994c5.631-3.866,11.924-7.179,18.66-7.4a6.159,6.159,0,0,1,2.43.331,3.486,3.486,0,0,1,1.658,2.43c.555,2.209-.66,4.639-2.316,6.185a21.749,21.749,0,0,1-6.072,3.313c-4.094,1.657-7.955,3.2-12.045,4.86-3.09,1.215-6.295,2.54-9.6,1.988-.775-1.988-1.551-4.087-1-6.185A5.58,5.58,0,0,1,21502.914,1502.726Z" transform="translate(-21425.168 -1383.768)"/><path class="h" d="M20911.039,1127.589c4.973-1.547,10.051-2.982,15.133-4.308-2.43-6.3-4.855-12.592-7.293-19q-4.137,1.822-8.281,3.645c0-2.1-.113-4.087-.227-6.075-.441-9.168-.871-18.667-4.414-26.95-14.906-34.572-34.238-21.87-48.711.663-10.6,16.678-18.559,38.548-20.211,51.14-2.434,18.115-.113,118.847,11.707,133.648,6.074,7.621,54.57,13.917,63.184-15.574C20910.484,1211.644,20911.594,1165.7,20911.039,1127.589Z" transform="translate(-20836.168 -991.953)"/><path class="i" d="M21056.473,500.86a34.081,34.081,0,0,1,5.3,7.29c1.771,2.982,3.533,5.964,4.088,9.388a21.633,21.633,0,0,1,0,5.964,55.748,55.748,0,0,1-2.316,10.272h-1.771c.33-3.645.666-7.4.881-11.045a10.244,10.244,0,0,0,0-3.2,6.737,6.737,0,0,0-6.072-4.86,11.655,11.655,0,0,0-7.73,2.54,36.922,36.922,0,0,0-5.75,5.964c-2.533,2.872-5.186,5.744-7.951,8.5-.877.884-2.207,1.878-3.312,1.325a5.591,5.591,0,0,1-1.215-1.1,3.151,3.151,0,0,0-4.311.773,4,4,0,0,0,.443,4.639,4.9,4.9,0,0,0,4.529,1.436q-.489,6.959-.992,13.917a14.971,14.971,0,0,1-.662,3.755c-1.107,2.651-4.09,4.2-6.959,4.308a16.8,16.8,0,0,1-8.176-2.209,19.173,19.173,0,0,1-6.184-4.418,10.017,10.017,0,0,1-2.545-7.069,5.689,5.689,0,0,1,2.984-4.86c1.883-.884,4.418-.331,5.3,1.546.771,1.657.221,3.976,1.76,5.081a2.836,2.836,0,0,0,3.65-.994,7.375,7.375,0,0,0,.881-4.087c.111-6.848-1.324-13.586-1.543-20.434-.215-6.738,1.1-14.138,5.635-19.108a19.7,19.7,0,0,1,5.414-4.2,26.976,26.976,0,0,1,13.586-3.976A18.738,18.738,0,0,1,21056.473,500.86Z" transform="translate(-20987.021 -496)"/></g></svg>