<?xml version="1.0" encoding="utf-8"?>
<!-- Generator: Adobe Illustrator 21.1.0, SVG Export Plug-In . SVG Version: 6.00 Build 0)  -->
<svg version="1.1" id="Capa_1" xmlns="http://www.w3.org/2000/svg" xmlns:xlink="http://www.w3.org/1999/xlink" x="0px" y="0px"
	 viewBox="0 0 412.5 319" style="enable-background:new 0 0 412.5 319;" xml:space="preserve">
<style type="text/css">
	.st0{fill:#D4C19C;}
	.st1{fill:url(#SVGID_1_);}
	.st2{fill:#F9E9DE;}
	.st3{fill:#97A8B2;}
	.st4{fill:#EBEFEB;}
	.st5{fill:#F9E0CF;}
	.st6{fill:#AFD9C4;}
	.st7{fill:#441A19;}
	.st8{fill:#333333;}
	.st9{fill:#FFFFFF;}
	.st10{fill:#EFEFEF;}
	.st11{fill:#666666;}
	.st12{fill:url(#SVGID_2_);}
	.st13{fill:#8F9FA8;}
	.st14{fill:#4D4D4D;}
	.st15{fill:#D3E4EA;}
	.st16{fill:#F6CBC5;}
	.st17{fill:#67302D;}
	.st18{fill:#736357;}
	.st19{fill:#D6D0CB;}
	.st20{fill:#F4DAD4;}
	.st21{fill:#D9924E;}
	.st22{fill:#537082;}
	.st23{fill:#4B6575;}
	.st24{fill:#FFE2DE;}
	.st25{fill:#F3F4F8;}
	.st26{fill:#A5CCB8;}
	.st27{fill:#EDDDB2;}
	.st28{fill:#F0F1F5;}
	.st29{fill:#998675;}
	.st30{fill:#C6B697;}
</style>
<g transform="translate(0.194 1.014)">
	<ellipse class="st0" cx="57.8" cy="308.6" rx="58" ry="3.5"/>
	
		<linearGradient id="SVGID_1_" gradientUnits="userSpaceOnUse" x1="-595.3153" y1="516.2999" x2="-594.3153" y2="516.2999" gradientTransform="matrix(102.2335 0 0 -9.375 60861.1797 5149.5757)">
		<stop  offset="0" style="stop-color:#CCCCCC"/>
		<stop  offset="1" style="stop-color:#CCCCCC"/>
	</linearGradient>
	<path class="st1" d="M86,313.2c4.2,0.1,8.4-0.2,12.5-0.7c1.7-0.2,3.9-1.1,3.8-2.7v0.2c0,1.5-2.1,2.4-3.8,2.5
		C94.3,313,90.1,313.3,86,313.2c-3.1,0-6.2-0.1-9.3-0.2c-15.1-0.3-30.1-0.8-45.2-1.2c-9.9-0.3-20-0.6-29.2-4.2
		c-1.1-0.4-2.3-1.2-2.3-2.3c0,1.1,1.2,1.8,2.3,2.3c9.2,3.6,19.3,3.9,29.2,4.2c15.1,0.4,30.1,0.9,45.2,1.2
		C79.7,313.1,82.8,313.2,86,313.2z"/>
	<path class="st2" d="M40.9,290.9l-0.2,0.4l-0.6,0.2c-1.5,0-3-0.2-4.5-0.4c-0.6-0.1-1.4-0.4-1.6-1c0-0.3,0.1-0.6,0.2-0.9
		c0.7-1.7,1.3-3.4,1.9-5.1l0.1-0.2l0.3-0.1c1.1,0,2.1,0.1,3.2,0.3c0.7,0.1,1.9,0.2,2.3,0.9c0.3,0.7-0.3,1.9-0.4,2.5
		C41.3,288.7,41.1,289.7,40.9,290.9z"/>
	<path class="st2" d="M77.2,290.9c-1.4,0.1-4.8,0.2-6.2,0.3l-0.3-0.1l-0.2-0.4c-0.1-1.9-0.1-3.7,0.1-5.6l0.2-0.4l0.4-0.2
		c1.5-0.2,2.9-0.3,4.4-0.3c0.7-0.1,1.4,0.1,2,0.4c0.6,0.3,0.5,0.6,0.4,1.2C77.7,287.4,77.5,289.1,77.2,290.9z"/>
	<path class="st3" d="M43.6,285c-2.9,0.7-6,0.4-8.8-1c3.1-10.3,3.9-13.4,7-23.7c1.1-3.2,1.8-6.5,2.3-9.9c0.5-4.1,0.1-8.3-0.3-12.5
		c-1.6-16.1-5.5-69.6-7.1-85.7c-0.2-1.4-0.1-2.8,0.2-4.1c1.2-3.7,12-4.3,15.8-4.6c0.9-0.1,7.3-0.1,8,0.4c0.8,0.6,7.1-0.5,7.2,0.4
		c1.9,12.6-5.2,39.2-5.3,52.8c0,4.6-1.8,33.4-2.2,37.8c-0.8,8.2-2.9,16.1-6.4,23.5C49.1,269.5,48.4,272.1,43.6,285z"/>
	<path class="st3" d="M65.5,145.8c1-0.8,10.6-1.5,11.8-1.5l15.2,0.3c0.3,24.6-4.6,92.2-9.3,116.3c-2,10.4-4.3,13.9-4.4,24.5h-8.6
		c-0.8-33.2-7.2-102.2-8-135.4C62.3,148.3,64.2,146.8,65.5,145.8z"/>
	<path class="st4" d="M83,61.4c-2.2,0.4-4.3,1.2-6.6,1.8c-4.4,1-9.1,0.7-13.3-1c-2-0.8-3.9-1.9-6-2.6c-2.1-0.6-4.6-0.8-6.4,0.3
		c-2.7,1.5-3.6,4.9-4,8c-1.5,11.2-0.3,22.8-2.2,33.9c-0.7,3.9-1.8,7.6-2.8,11.4c-1.9,7-3.9,14-5.9,20.9c-1.4,4.9-2.5,10.7,0.8,14.5
		c2.2,2.4,5.7,3.3,8.9,3.8c15,2.6,30.3,3.3,45.4,2.1c1.5,0.1,2.8-0.8,3.1-2.3c2.3-6,0.9-12.4-0.2-18.6c-3.8-21.6-3.2-43.7-4-65.6
		C89.6,63,88.7,60.4,83,61.4z"/>
	<path class="st2" d="M84.6,73.8c-0.9-3.2-1.9-9.4,0.4-10.9c2.3-1.5,6.6-1.1,8.8,1.4c1.4,1.7,2.4,3.6,3.1,5.7
		c3.5,9.4,7,18.8,10.5,28.2c0.9,2.1,1.6,4.4,2.1,6.7c0.1,0.5,0.1,1.1,0,1.7c-0.2,0.5-0.6,0.9-1.1,1.1c-2.5,1.4-5.6,4.4-8.1,2.1
		c-1-0.9-1.8-3.9-2.4-5.3c-4.2-8.1-8-16.4-11.4-24.9C85.7,77.6,85.1,75.7,84.6,73.8z"/>
	<path class="st2" d="M50.3,60.8c-2.2,0.1-3.7,2.3-5.3,3.8c-2.9,3.2-6.9,5.3-10.2,8c-2.4,2-4.6,4.2-6.6,6.7c-2,2.2-3.9,4.4-6,6.7
		c-1,1.1-2,2.4-2.8,3.7c-2.3,4.1-1.6,9.4,0.7,13.6s5.8,7.4,9.3,10.7c2.4,2.2,4.7,4.3,7,6.5c1.8,1.7,3.6,3.3,5.6,4.7
		c1.6,1.3,3.5,2.3,5.5,2.8c2.1,0.4,4.3-0.1,5.9-1.6c0.6-0.5,0.8-1.4,0.5-2.2c-0.3-0.3-0.8-0.6-1.2-0.7c-1-0.3-1.8-0.5-2.7-0.8
		c-0.4-0.1-0.7-0.3-1.1-0.5c-0.4-0.3-0.4-0.9-0.7-1.2c-0.5-0.7-1.1-1.3-1.9-1.7c-7.3-4.4-13.8-10.9-15.8-19.2
		c-0.3-0.9-0.4-1.9-0.2-2.8c0.2-0.8,0.6-1.5,1.1-2.2c1.6-2.6,3.3-5.1,5.3-7.4c2.9-3.4,6.5-6.1,9.8-9.1c3.2-3.1,6.4-6.5,7.9-10.7
		C55.6,64.6,54.3,60.7,50.3,60.8z"/>
	<path class="st5" d="M37,51.1c1.4,0.1,2.8,0.4,4.1,1c1.4,0.8,2.5,2.1,3.1,3.6c0.9,1.9,1.4,4,1.8,6c0.5,3,0,6.1-1.6,8.7
		c-1.8,2.8-5.5,5-8.8,4.6c-3.1-0.3-5-2.6-6.4-4.9c-1.2-1.8-2.3-3.7-3.2-5.7c-0.8-1.3-1.2-2.8-1.4-4.4c-0.1-1.7,0.2-3.5,1.1-5
		C27.4,50.7,32.8,50.8,37,51.1z"/>
	<path class="st6" d="M32.6,76.8c-1.1,0.3-1.9,1-2.5,2c-0.1,0.5-0.2,1.1-0.3,1.7c-0.1,4.5-0.2,8.9-0.3,13.4
		c-0.1,4.2-0.2,8.6,1.5,12.3c1.9,4.5,6,7.7,10.4,9.8c4.4,2.1,9.1,3.2,13.7,4.8c2.2,0.8,4.7,1.6,6.7,0.4c1.8-1,2.5-3.4,2.8-5.4
		c0.1-0.5,0.1-1,0-1.5c-0.5-1.5-2.8-1.1-4-2.1c-1.1-0.8-1.1-2.3-1.7-3.5c-1.7-3.3-7.1-3.7-8.4-7.2c-0.4-1.5-0.3-3.1,0.1-4.6
		c0.4-2.2,0.6-4.5,0.7-6.7c-0.1-1.8,0-3.5,0.3-5.2c0.9-4.8,4.6-8.6,8.5-11.4c1.1-0.7,2.1-1.5,2.9-2.5c0.9-1,1.1-2.5,0.5-3.7
		c-0.6-0.8-1.4-1.4-2.5-1.6c-3.5-0.9-7.1,1-9.9,3.2c-1.5,1.2-2.8,2.4-4.1,3.8c-1.1,1-2.4,1.6-3.9,1.8C39.7,75.5,36.1,75.4,32.6,76.8
		z"/>
	<path class="st7" d="M22.4,57.8c0.3-1.7,0.7-3.5,2.1-4.4l0.6-0.3l0.5-0.5c0.4-0.5,1-0.8,1.7-1c1.9-0.8,4-1.3,6-1.6
		c2.4-0.4,5.5-0.6,7.7,0.7c0.7,0.5,1.4,1.2,1.9,1.9c0.5,0.4,1,0.8,1.6,1c0.1,0,1.6,0.4,1.6-0.1c0.1,0.8-0.8,1.3-1.6,1.6
		c0.5,0.6,1.3,0.9,2.1,0.6c-0.8,0.5-1.7,0.9-2.6,1c-1.2,0-2.4-0.1-3.6-0.3h-0.1c-0.9,0.8-2.6,1.2-3.3,1.7c-3.3,1.9-6.6,4.8-10.6,4.8
		c-1.3,0.1-2.5-0.4-3.4-1.3C22.3,60.4,22.1,59.1,22.4,57.8z"/>
	<g transform="translate(-7.038 11.158) rotate(-8)">
		<path class="st7" d="M87.1,12.3c0.4-1.3,0.5-2.7,0.2-4C86.9,7,86.3,5.9,85.5,5c-3.8-4.4-9.8-6.1-15.3-4.3
			c-3.7,1.3-6.9,4.7-6.9,8.7c0.1,3.8,3.2,7,6.8,8.1C75.2,19.1,85.4,18.3,87.1,12.3z"/>
		<path class="st8" d="M90.8,47.9c1.2,0.2,2.2,0.9,2.9,1.8c0.4,1,0.2,2.1-0.4,2.9c-0.5,0.9-1.3,1.6-1.9,2.5c-0.8,1.1-1.5,2.3-2,3.6
			c-1.1,2.3-2.3,4.4-3.5,6.5c-0.5,1.2-1.3,2.3-2.4,3.1c-1.7,0.9-3.8,0.9-5.5,0c-1.6-0.8-3-1.8-4.3-3c-0.4-0.3-0.7-0.6-0.9-1
			c-0.4-1,0.2-2.1,0.9-3c2.5-3.6,5-7.2,7.5-10.7c0.7-1.1,2.4-4.4,3.6-4.6c0.7-0.1,2.1,0.6,2.8,0.8C88.6,47.2,89.7,47.6,90.8,47.9z"
			/>
		<path class="st9" d="M81.7,64.7c-2.4-1.2-4.8-2.5-7.2-3.8c0.9-1,1.7-2.1,2.5-3.2c0.4-0.7,0.8-1.4,1.2-2c1.8-3,3.8-5.9,6-8.7
			l0.3-0.3l0.4,0.1c1.5,0.5,3.1,1.1,4.6,1.7c1.2,0.3,2.2,0.8,3.2,1.5l0.3,0.4L92.7,51c-1.4,2.3-2.8,4.6-4.1,6.9
			c-1.3,2.4-2.5,4.7-3.8,7.2c-0.3,0.5-0.4,1.1-1.2,0.8C83,65.5,82.4,65.1,81.7,64.7z"/>
		<path class="st9" d="M79.6,65.3c0,0.6-0.4,1.2-1,1.4h-0.9c-0.3-0.1-0.5-0.2-0.7-0.4l-0.2-0.4c0-0.4,0.1-0.8,0.3-1.1
			c0.5-0.6,1.3-0.7,1.9-0.2C79.3,64.7,79.5,65,79.6,65.3z"/>
		<path class="st2" d="M75.4,25.9c-4.3,2.3-7.9,5.9-10.2,10.2c-2.6,4.6-4.3,10.1-3.2,15.3c1,5.2,5.2,10,10.4,10.6
			c3.6,0.3,7.1-1.1,10-3.2c7.5-5.5,11.6-14.5,10.9-23.7c-0.2-3.7-0.9-8.3-4.4-10.2C85.3,23,78.9,24.1,75.4,25.9z"/>
		<path class="st7" d="M92.9,43.1c-1.3-0.5-2.4-1.2-3.3-2.3c-3.4-3.3-7.5-5.9-11.9-7.5c-1.3-0.6-2.7-0.9-4.1-0.8
			c-1.7,0.3-3.1,1.3-3.9,2.7c-0.7,1.4-1.2,2.9-1.6,4.5c-0.4,0.2-0.9-0.5-1.3-0.8c-1-0.5-1.8,0.8-1.7,1.8s0.8,1.9,0.4,2.8
			c-0.3,0.5-0.7,0.9-1.1,1.2c-1.3,1.1-2.3,2.6-2.9,4.2L61,49.5l-0.6,0.1c-1.6-0.2-3.1-1.1-3.9-2.5c-0.7-1.4-1.1-2.9-1.1-4.5
			c-0.2-6.4,2.5-12.3,5.1-18.1c0.6-1.6,1.5-3,2.5-4.4c1.2-1.3,2.7-2.4,4.3-3.2c2.1-1.2,4.4-2.1,6.7-2.7c4.7-1,9.6-0.5,14,1.3
			c1.6,0.6,3.2,1.4,4.6,2.4c4.4,3.6,7.1,8.9,7.5,14.5C100.2,35.8,97.9,44.3,92.9,43.1z"/>
	</g>
	<g transform="translate(-28.628 33.855) rotate(-17)">
		<path class="st2" d="M119.3,106.2c-2.8-0.8-5.5-1.8-8.2-2.4c-2.5-0.6-5.1-0.9-7.6-0.9c-1.1-0.1-2.3,0.2-3.2,1
			c-1,0.9-1,2.4-0.9,3.7c0,1,0.2,2,0.6,2.9c0.7,1.6,2.5,2.5,4.1,2.9c2,0.4,4,0.6,6,0.7c10,0.6,20.1,1.2,30-0.2
			c1.5-0.3,5-1.1,4.6-3.4c-0.4-2-4.7-1.6-6.2-1.7C132,108.6,125.6,107.7,119.3,106.2z"/>
		<path class="st10" d="M153.6,117.3c-0.4,1.7-1.2,3.3-2.3,4.6c-0.9,0.9-2,1.6-3.2,2.2c-9.7,5.1-19.6,9.7-29.8,14
			c-1.1-1.7-0.6-3.9,0-5.8c0.9-3.2,1.5-6.5,1.9-9.8c0-1.1,0.3-2.1,0.9-3c0.5-0.5,1-0.9,1.7-1.1c6.2-3.3,12.4-6.6,18.9-9.6
			c3.3-1.6,6.7-3,10-4.2c2.5-1,6.9-3.6,5.8,0.8C156.4,109.4,154.9,113.4,153.6,117.3z"/>
	</g>
	<path class="st11" d="M77.2,290.3c0.5,0,0.9,0.1,1.3,0.3c0.5,0.6,0.8,1.4,0.8,2.2c0.1,1.1,0.1,2.2,0.2,3.2c0,0.4,0.1,0.8,0.3,1.1
		l0.6,0.5c4,2.5,8.8,3.1,13.5,4.1c1,0.1,1.8,0.6,2.5,1.4c0.3,0.7,0.4,1.5,0.3,2.2c0.1,0.7-0.1,1.4-0.6,1.9c-0.5,0.4-1.2,0.5-1.8,0.4
		c-1.4,0-2.7-0.1-4-0.2c-6.9-0.3-13.8-0.6-20.7-1l-0.6-0.1c-0.4-0.3-0.4-0.9-0.4-1.3c0.1-4.4,0.1-8.8,0.4-13
		c0.1-1.6,0.5-2.1,2.1-2.3C72.9,289.8,75.1,289.9,77.2,290.3z"/>
	<path class="st11" d="M35.3,287.7c-0.7-0.3-1.6-0.3-2.3,0.1c-0.4,0.3-0.7,0.7-0.9,1.2c-0.7,1.9-1.1,3.8-1.3,5.8
		c-0.7,4.7-2.6,9.1-3.4,13.8c0,0.3,0,0.6,0,0.9l0.6,0.7c1.8,1.5,4,2.9,6.3,2.6c2.3-0.3,4.3-1.8,5.3-3.9c1-2,1.6-4.2,1.8-6.5
		c0.5-3.4,0.7-6.9,0.8-10.3c0-0.6,0.3-2.1,0-2.6c-0.3-0.5-1-0.4-1.6-0.6C38.8,288.5,37,288.2,35.3,287.7z"/>
</g>
<g transform="translate(0.448 1.71)">
	<ellipse class="st0" cx="314.9" cy="312.6" rx="95" ry="3.5"/>
	
		<linearGradient id="SVGID_2_" gradientUnits="userSpaceOnUse" x1="-596.6123" y1="514.1759" x2="-595.6123" y2="514.1759" gradientTransform="matrix(169.8526 0 0 -8.8623 101572.0547 4866.5605)">
		<stop  offset="0" style="stop-color:#CCCCCC"/>
		<stop  offset="1" style="stop-color:#CCCCCC"/>
	</linearGradient>
	<path class="st12" d="M263.1,314.2c-8.2,0.1-16.3-0.3-24.4-1c-0.8,0-1.5-0.2-2.1-0.7c0.6,0.4,1.3,0.7,2.1,0.7
		c8.1,0.8,16.1,1.1,24.2,1h0.4c3,0,5.9,0,8.8,0C269.1,314.2,266.1,314.2,263.1,314.2z M319.6,313.8c16.2-0.1,32.4-0.3,48.5-0.4
		C351.9,313.5,335.7,313.6,319.6,313.8L319.6,313.8z M368.8,313.4c8.4,0.1,16.8-0.3,25.1-1.1c3.8-0.4,7.9-1.2,10.8-3.8
		c-2.9,2.6-7,3.3-10.8,3.8C385.5,313.1,377.2,313.5,368.8,313.4L368.8,313.4z M236.1,311.8c-0.1-0.3-0.2-0.6-0.2-1
		C235.9,311.2,236,311.5,236.1,311.8L236.1,311.8z M405.8,307.3L405.8,307.3c-7.1-1.6-15.7-2-24.7-2l0,0
		C390.1,305.3,398.6,305.8,405.8,307.3z"/>
	<path class="st13" d="M315.9,52.6c8.8,7.9,11.4,20.5,16.2,31.3c1.9,4.3,4.3,8.5,6.6,12.6c0.9,1.8,2.1,3.5,3.6,4.8
		c1.6,1.1,3.3,1.9,5.2,2.3c5.6,1.4,4.6,0.9,10.4,1.3c7.5,0.5,1.9,0,9.4,0.5c0.9,0,1.7,0.2,2.5,0.5c1.3,0.8,2.2,2.2,2.2,3.7
		c0.1,1.5-1.4,5.7-1.8,7.1c-0.1,0.7-0.4,1.3-0.9,1.7c-0.5,0.3-1.1,0.5-1.6,0.5c-3.1,0.2-6.1,0.3-9.2,0.1c-18.1-0.7-16.2-0.8-34-4
		c-1.3-0.2-1.5-3.2-2.6-3.9c-1.3-1-2.3-2.2-2.9-3.7c-3.9-7.9-4.9-16.8-6.9-25.4c-1.3-5.5-3-10.9-4.8-16.4c-0.9-2.9-4-8.5-2.4-11.5
		C306.9,50.9,313.4,50.3,315.9,52.6z"/>
	<path class="st2" d="M270.2,298.9c0,0.1,0,0.3-0.1,0.4c-0.1,0.2-0.3,0.2-0.6,0.2c-2.1,0.2-4.2,0-6.3-0.6c-0.3,0-0.6-0.3-0.6-0.7
		c-0.3-1.6-0.4-3.2-0.1-4.9c0-0.1,0.1-0.3,0.2-0.4c0.1-0.1,0.3-0.2,0.5-0.1c1.6-0.1,5.1-0.5,6.5,0.3
		C271,294,270.2,297.6,270.2,298.9z"/>
	<path class="st2" d="M303.1,299c0,0.1-0.1,0.3-0.2,0.4c-0.1,0.1-0.3,0.2-0.5,0.2c-2.1,0.1-4.2,0.1-6.3,0c-0.2,0-0.4,0-0.5-0.1
		c-0.2-0.2-0.3-0.4-0.2-0.6c-0.2-1.6-0.3-3.2-0.3-4.8c2,0,4,0.1,6,0.1c1.4,0,1.8-0.1,2.1,1.1C303.3,296.6,303.3,297.8,303.1,299z"/>
	<path class="st14" d="M275.1,276.9c-0.4,5.2-1.2,10.3-2.5,15.4c-0.1,0.9-0.6,1.7-1.2,2.3c-0.6,0.4-1.3,0.5-2.1,0.4
		c-1.8,0-3.6,0-5.4-0.1c-0.7,0.1-1.3-0.1-1.9-0.4c-1.1-0.7-1.3-2.4-1.4-3.8c-2.6-35-7-70-15.7-103.7c-1.7-6.5-3.5-13-4-19.7
		c-0.5-6.7,0.6-13.8,4.2-19.2c5-7.4,13.9-9.9,22.1-10.4c4.2-0.4,8.4-0.1,12.5,0.9c4.8,1.2,4.2,3.3,4,8.5
		c-0.3,10.4-0.7,20.9-1.2,31.4c-1,20.9-2.3,41.8-4.1,62.6C277.5,253.2,276.4,265,275.1,276.9z"/>
	<path class="st14" d="M293.4,292.2c0.1,0.7,0.3,1.5,0.7,2.1c0.5,0.4,1,0.7,1.7,0.8c2.8,0.7,5.7,0.9,8.6,0.6
		c2.7-34.5,6.7-68.7,12.1-102.8c1.3-8.4,2.7-16.9,2.7-25.4c0-8.5-1.5-17.3-5.6-24.5c-3.2-5.5-7.8-10-13.5-13
		c-5.5-2.8-19.7-5.6-20.7,4.3c-1.1,12.5-1.5,25.1-1.1,37.6c0.6,26,3.7,51.8,7.7,77.3C288.3,263.6,290.9,277.9,293.4,292.2z"/>
	<path class="st13" d="M258.8,48.4c-1.1,0.4-2.1,1.1-2.9,2c-1.4,1.3-2.8,2.6-4.2,3.9c-3.4,3.1-6.8,6.3-9.3,10.1
		c-1.7,2.6-3,5.4-4.7,8.1c-3.3,5.2-8,9.5-11.2,14.8c-1.4,2.4-2.6,4.9-3.7,7.4c-1.8,4.3-3.2,9-2,13.5c0.6,2.2,2,4.3,4.2,4.9
		c1.6,0.3,3.2,0,4.6-0.7c3.9-1.8,6.9-5,9.6-8.4c11.2-14.2,16.9-31.5,24.8-47.5c0.9-1.8,2.3-3.5,1.1-5.4
		C263.8,49.2,261,47.7,258.8,48.4z"/>
	<path class="st15" d="M269.2,49.4c-1.1-0.6-2.5-1.2-3.5-0.5c-0.4,0.4-0.8,0.9-1,1.5c-16.7,32.8-9.4,28.5-18.3,50
		c-1.9,4.5-5.2,26.5-6.3,31.3c-2.2,8.9-1.7,14.1-1.2,23.3c0,1.5,0.3,3,0.8,4.4c0.8,1.4,2,2.6,3.4,3.4c7.8,5.1,9,7.1,18.3,7.3
		c9.3,0.2,18.5,2.8,27.7,1.3c4.8-0.8,9.7-1.6,14.5-2.4c6.8-1.1,14.2-2.6,18.4-8c1.9-2.6,3.1-5.6,3.8-8.7c4.2-17.3,0.1-35.4-4.8-52.5
		c-4.5-15.7-9.2-31.8-15.5-46.8c-3.5-8.2-8.6-2.1-15.4-0.7C283,53.7,275.7,52.7,269.2,49.4z"/>
	<path class="st3" d="M302.5,62.4c-1.8,4.7-2.6,9.7-2.3,14.7c0.1,11.9,0.9,23.7,2.4,35.5c0.5,4.5,0.7,9.1,0.7,13.6
		c0.2,2.8,0.5,5.6,1,8.4c0.4,3.1-0.2,8.3,0.5,11.3c1.9,8.2,1.4,15.8,3.2,24.1c1.5-1.3,3.3-2.1,5.3-2.3c1.5-0.1,3-1.1,4.5-1.1
		c3.7-0.1,7.2-3,8.9-7.4c1.7-4.2,1.7-9.2,1.6-13.9c-0.1-11.6-1.1-23.1-3-34.5c-0.9-5.2-2.1-10.4-3.3-15.5
		c-2.8-12.2-5.6-24.4-8.4-36.6c-0.6-2.6-2.6-14.2-5.7-12.6c-1.3,0.6-2.2,6.1-2.8,7.7C304.3,56.7,303.4,59.6,302.5,62.4z"/>
	<path class="st4" d="M301.7,59.9c-0.8,2.1-1.5,4.3-2,6.6c-0.4,2.6-0.6,5.2-0.6,7.9c-0.4,28.9,4.1,68,7.2,96.6
		c0.8-0.8,1.6-0.2,2.8-1.6c0.2-4.6-2.5-19.4-3.4-23.9c-3.2-16.4-0.9-34.1-3.7-50.6c-0.5-2.2-0.8-4.4-0.9-6.7c0-2.3,0.5-4.6,0.5-6.9
		c0-3.1-1-6.2-0.7-9.3c0.2-3.1,1.6-5.8,2.6-8.5c1.2-3.3,3.9-11.7,2.4-15.2C304.2,51.6,303,56.1,301.7,59.9z"/>
	<path class="st15" d="M311.4,60.3c-1.7,0.6-3.4,1.2-5.2,1.8c0.1,3.5,0.8,7.1,1.9,10.4c0.1,0.3,0.2,0.6,0.2,0.9
		c0,0.3-0.1,0.5-0.3,0.8c-2.2,3.6-4.4,7.2-6.6,10.8c-0.5-6.6-1-13.5,0.5-19.8c0.7-2.6,1.6-5.2,2.6-7.7c0.7-1.8,1.3-5.9,2.3-7.2
		C310.3,45.7,310,60.8,311.4,60.3z"/>
	<path class="st3" d="M264.7,46.1c-3.3,10.3-12.5,20.7-13.6,31.2c-0.2,1.9-1.8,4.2-2.5,6c-0.8,2.2-0.8,3.7-2.3,5.6
		c-4.8,6.4-5.7,13.9-8.2,20.9c-1.4,3.9-3.3,7.7-4.7,11.7c-2.7,7.7-3.1,15.6-3.4,23.5c-0.1,4.2-0.2,8.3-0.2,12.5
		c-0.1,1.2,0.1,2.4,0.6,3.6c0.8,1.1,1.8,2.1,3,2.8c11.1,7.7,27,11.6,42.4,10.4c0-2.1,0.4-4.1,1-6.1c0.6-1.7,1.4-3.4,2-5
		c0.7-2.5,1.1-5,1.1-7.6c0.5-8.2,1-16.5,1.4-24.7c0.6-9.7,1.1-19.4,3.1-28.9c0.7-2.7,1-5.4,1.1-8.1c-0.1-2.2-0.6-4.4-0.9-6.6
		c-0.5-4.2,0.1-8.5-0.9-12.7c-1.2-5.4-5-10.3-6.2-15.7C276.3,53.6,271.9,48.5,264.7,46.1z"/>
	<path class="st4" d="M286.1,65.6c2.6,6.1,5.3,12.3,5.1,18.7c-0.3,3.2-0.8,6.3-1.5,9.4c-1.6,8-2.2,16.1-2.7,24.2
		c-1,14.3-1.9,28.5-2.9,42.8c-0.1,1.9-2.4,10.4-3.8,12s-3,1.1-5.4,0.2c2.7-14.8,4.8-34.6,6.2-49.6c1.2-12.6,2.4-25.3,3.6-37.9
		c0.3-2,0.3-4,0-6c-0.5-2.6-1.8-4.9-3-7.4c-3.2-6.7-6.1-14.1-7.1-21.1C282.8,53.6,283.6,59.9,286.1,65.6z"/>
	<path class="st15" d="M267.1,66.8c3.5,2.8,7.3,5.2,11.2,7.4c-2.3,1-4.6,1.8-6.9,2.5c3,2.2,5.9,4.6,8.7,7.1c2.5,2.3,2.1,6.8,3.7,9.4
		c1.2-3.3,3.1-7.6,3.8-10.8c1.4-6-3.8-11.6-6.6-17.4c-1-2.1-2.1-12.3-6.4-11.4C273.2,54.1,266.5,66.4,267.1,66.8z"/>
	<path class="st15" d="M311,136.3c-0.5,0.4-0.8,0.9-1,1.4c-0.2,0.6,0.1,1.5,0.6,1.5c4-2.6,7.5-6.2,11-9.8c0.8-0.8,3.8-2.9,2.8-4.5
		c-0.9-1.4-3.2,1.8-3.9,2.4C317.5,130.2,314.2,133.3,311,136.3z"/>
	<path class="st15" d="M250.4,129.2c-1.6-0.8-3.2-1.7-4.6-2.7c-1.6-1.2-3.2-2.6-5.5-2.9c0.3,0.7-0.6,1.5-0.6,2.2
		c0,0.8,1,1.4,1.9,1.9c7.4,4.1,14.8,8.1,22.1,12.2c1.1,0.7,2.5,1.1,3.9,1.1C270.1,137.3,254.1,131.2,250.4,129.2z"/>
	<g transform="matrix(0.839, -0.545, 0.545, 0.839, -56.458, 24.288)">
		<path class="st13" d="M187.9,219.9c1.7-0.9,3.9-0.5,5.7,0.2c4.5,1.9,8.5,5.1,11.3,9.1c2.8,4,5.2,8.3,7.2,12.8l6.7,13.8l1.4,3
			c0.7,0.8,0.8,1.9,0.3,2.9c-0.6,0.9-1.3,1.6-2.2,2.2c-2.2,1.6-4.4,3.3-6.6,4.9c-4.3-4.1-8.3-8.4-12-13.1c-3.9-5.3-7.4-11-10.3-17
			c-1.9-3.7-3.7-7.4-4.2-11.5C184.8,224.5,185.4,221.2,187.9,219.9z"/>
		<path class="st16" d="M225.9,266.6c0.8,0.5,1.4,1.2,1.7,2c0.4,0.9,0,1.9-0.8,2.3c0.9,1.5,2.5,2.6,3.1,4.3c0.4,1.3,0.1,2.8-0.7,3.9
			c-0.8,1.1-2,1.9-3.4,2.3c-1.1,0.4-2.2,0.4-3.3,0.1c-1.1-0.5-2-1.4-2.6-2.4c-1.9-2.4-3.7-4.9-5.6-7.3c-1.1-1.5-2.3-3.4-1.5-5.1
			c0.4-0.7,1-1.3,1.6-1.7c1.3-1,3.5-3.6,5.2-3.2C221.9,262.1,224.1,265.4,225.9,266.6z"/>
	</g>
	<path class="st17" d="M316.3,304.3c-2.2-0.9-4.7-0.6-7-0.5c-1.4,0-3-0.2-3.9-1.2c-0.7-1-0.9-2.2-0.7-3.4c0.1-0.3,0-0.6-0.2-0.9
		c-0.2-0.2-0.6-0.4-0.9-0.3c-2.8-0.2-5.7-0.5-8.5-0.7c-0.4-0.2-0.9,0.1-1.1,0.5c-0.1,0.2-0.1,0.4,0,0.6c0,3.4,0,6.7-0.1,10.1
		c0,0.4,0,0.8,0.2,1.1c0.4,0.7,1.3,0.9,2.1,1c6.4,0.8,12.8,1.5,19.3,2c2.3,0.2,6.1,0.5,5.4-2.7C320.4,307.3,318.7,305.2,316.3,304.3
		z"/>
	<path class="st17" d="M263.3,296.7c-0.8-0.3-1.8,0.1-2.1,1c-0.1,0.2-0.1,0.4-0.1,0.7c-0.1,1.1-0.3,2.2-0.4,3.3
		c0,0.7-0.2,1.3-0.6,1.9c-0.4,0.5-1,0.8-1.7,1c-1.8,0.4-3.6,0.5-5.5,0.5c-1.9,0-3.7,0.7-5,2c-0.9,1-1.3,2.3-1.4,3.7
		c0,0.3,0,0.5,0.1,0.8c0.3,0.4,0.8,0.6,1.3,0.6c1.5,0.2,3,0.2,4.4,0.1c3-0.1,6.1-0.2,9.1-0.3c3,0,5.9-0.3,8.8-0.8
		c0.3,0,0.6-0.2,0.8-0.4c0.1-0.2,0.2-0.4,0.2-0.6c0.3-2.2,0.5-4.4,0.8-6.7c0.2-1.4,0.8-3.5,0-4.9
		C270.8,296.1,265.6,296.7,263.3,296.7z"/>
	<path class="st16" d="M368.6,116.8c-0.1,0.2,0,0.5,0.1,0.7c0.2,0.2,0.4,0.3,0.6,0.3c5.7,1.5,11.5,2.1,17.4,1.6
		c2.1,0.4,4.1-1,4.5-3.1c0.5-1.6,0.9-3.4-0.1-4.8c-0.8-0.9-1.9-1.4-3.1-1.5c-1.2-0.1-2.4-0.2-3.5-0.5c-0.3-0.1-0.6-0.3-0.8-0.5
		c-0.1-0.2-0.1-0.5-0.2-0.7c-0.3-0.8-1.3-0.9-2.2-0.9c-2.7,0-5.3-0.1-8-0.1c-2.4,0-2.2,1.2-2.9,3
		C369.6,112.4,368.9,114.6,368.6,116.8z"/>
	<g transform="translate(-2.51 8.018) rotate(-7)">
		<path class="st16" d="M303.1,46.4c1.4,6,0.1,12.3-1.7,18.2c-0.5,1.9-1.3,3.7-2.3,5.4c-3.7,5.5-11.3,7-17.9,6.1
			c-3.2-0.3-6.2-1.3-9-2.9c-3.8-2.5-6.6-6.2-8-10.5c-1.4-4.3-1.8-8.8-1.4-13.3c0.1-3.4,1-6.7,2.6-9.7c2.6-4.4,7.5-7.2,12.6-7.9
			C288.4,30.3,300.5,35.4,303.1,46.4z"/>
		<path class="st18" d="M274.3,40.8c0.4-1.1,1.1-2.2,2-3c1.7-1.5,4.3-1.6,6.6-1.5c2.6,0,5.3,0.2,7.3,1.8c0.2,0.2,0.5,0.4,0.9,0.6
			c0.4,0.1,0.8,0.1,1.2,0c5-0.7,9.4,3.7,11.3,10.2c0.2-1.3,2.4-4.4,0.8-7.7c-1.6-3.4-4.1-6.2-7.3-8.2c-3.3-1.9-6.8-3.3-10.5-4.2
			c-2.4-0.8-4.8-1.3-7.4-1.4c-3.6,0-7.1,1.2-10,3.3c-2.8,2.1-5.2,4.7-6.9,7.8c-0.9,1.4-1.5,3-1.9,4.6c-0.3,1.7-0.4,3.4-0.3,5
			c0.2,3,0.8,6.1,1.6,9c0.1,0.3,0.2,0.5,0.4,0.8c0.3,0.3,0.7,0.4,1.1,0.5c2,0.4,4.3,0.8,5.9-0.4c0.3-0.2,0.6-0.5,0.6-0.9
			c0.1-1.4-2.3-1.6-2.1-3.4c0.2-1.6,1.6-1.4,2.6-2c1.4-0.9,1.2-2.8,1.6-4.4C272.6,45,273.3,42.8,274.3,40.8z"/>
		<path class="st19" d="M285.5,71.7c-0.7-0.1-1.4-0.3-2.1-0.6c-0.7-0.3-1.1-1-1.3-1.7c-0.1-0.7,0.3-1.4,0.9-1.6
			c0.7-0.1,1.6,0.7,2.3,0.9c1.2,0.3,2.4,0.3,3.6,0.1c0.5-0.1,1-0.1,1.6-0.1c0.5,0.1,1,0.4,1.2,0.9c0.2,0.7-0.1,1.5-0.8,1.8
			c-0.7,0.3-1.4,0.4-2.1,0.4C287.8,71.9,286.6,71.8,285.5,71.7z M297.7,69.5c-0.8,0.8-1.8,1.4-3,1.7c-0.6,0.2-1.3,0.2-2,0.4
			c0.1-0.6,0.2-1.2,0.3-1.8c0.2-0.9,0.1-1.9-0.2-2.8c-0.3-0.6-0.7-1.1-1.2-1.5c-1.6-1.1-3.6-1.7-5.6-1.6c-1.4-0.1-2.8,0.2-4,1
			c-0.5,0.5-1,1-1.3,1.6c-0.5,0.8-0.9,1.5-1.3,2.4c-0.3,0.8-0.5,1.6-0.6,2.4c-2.6-1.1-5-2.5-7.3-4.2c-0.9-0.6-1.6-1.3-2.1-2.2
			c-0.3-0.8-0.5-1.7-0.6-2.6c-0.1-0.9-0.3-1.7-0.6-2.6c-0.1-0.4-0.3-0.8-0.6-1.2c-0.8-0.8-1.9-1.3-3-1.3c-1.2-0.1-1.7-0.1-1.8,1.2
			c-0.1,2.2,1.2,4.2,1.7,6.2c0.8,2.9,2.5,5.4,4.8,7.3c2.4,1.8,5.2,3,8.1,3.5c0.2,0,0.3,0,0.5,0.1c0.4,0.8,1.1,1.4,2,1.6
			c0.9,0.3,1.8,0.5,2.8,0.5c1.2,0.1,2.3,0.2,3.5,0.4c1.1,0.2,2.2,0.1,3.2-0.2c1-0.5,1.7-1.3,2.1-2.3c0.6-0.2,1.2-0.6,1.6-0.7
			c0.9-0.3,1.8-0.7,2.7-1.1c2-1.3,3.3-3.5,3.7-5.8C298.8,68.1,298.3,68.9,297.7,69.5L297.7,69.5z"/>
	</g>
	<path class="st18" d="M340.4,300.3c-0.5,0.6-1,1.2-1.7,1.6c-1.9,1.2-3.9,2.2-6,3c-1.9,0.9-3.8,1.9-5.6,3c-0.6,0.3-1.1,0.7-1.4,1.3
		c-0.3,0.7-0.4,1.5-0.3,2.3c0,0.3,0.1,0.7,0.2,1c0.4,0.4,0.9,0.6,1.4,0.6c2.3,0.2,4.6-0.6,6.9-1.2c4.7-1.1,9.7-1,14.5-1.8
		c0.7,0,1.3-0.3,1.8-0.8c0.3-0.5,0.5-1.1,0.4-1.7c0.2-4.7-0.2-9.4-1-14c-1.5,0.2-2.9,0.4-4.4,0.6c-1,0-2,0.2-2.9,0.6
		C340.8,296,341.5,298.8,340.4,300.3z"/>
	<path class="st18" d="M371,293.1c-0.4,0-0.7,0.1-1,0.2c-0.5,0.4-0.9,0.9-1,1.6c-0.6,2.8,0.5,5.9-0.9,8.3c-1.1,1.9-6.1,3.2-8.2,4.1
		c-2,0.9-4.2,2.2-4.7,4.3c-0.1,0.2-0.1,0.5,0,0.7c0.2,0.4,0.7,0.5,1.1,0.6c1.8,0.2,6.6-0.4,8.4-0.5c3.7-0.2,7.4-0.5,11.2-0.8
		c0.9,0,1.8-0.2,2.5-0.8c0.7-0.8,1-1.9,1-3c0.1-3.8-0.1-7.6-0.8-11.4c-0.2-1.5-0.1-3.7-1.8-3.8C374.9,292.6,373,292.9,371,293.1z"/>
	<path class="st6" d="M382.5,174.3c-4.7,32.8-4.4,66-3.3,99.2c0.2,4.4,0.7,8,0.8,13.1c0,1.2-0.5,2.3-1.6,2.3l-8.9,0.4
		c-1.4,0.5-2.9-0.2-3.4-1.6c-0.1-0.4-0.2-0.8-0.2-1.2c-3.7-29.6-3.7-59.6-10.8-88.7c-2.4-9.6-4-19.3-4.9-29.1
		c-0.4-3.7-0.3-7.4,0.5-11.1c1.7-6.2,6.2-11.3,12.3-13.6c5.4-2,15.8-1.8,19.4,3.6C386.6,154.1,383.5,167.2,382.5,174.3z"/>
	<path class="st6" d="M330.3,157.5c0.3,43.2,1.6,86.4,7.4,129.2c0.2,1,0.4,2.2,1.3,2.7c0.6,0.3,1.2,0.4,1.8,0.4c1.5,0,5.9,0,7.4,0
		c0.7,0,1.4,0,2-0.2c2-0.8,2.5-3.4,2.6-5.6c1.7-30.9,4.2-61.7,9.6-92.1c1-5.8,2.1-11.5,3.5-17.2c1.7-7.3,3.9-14.5,3.9-22
		c0.1-1.8-0.2-3.6-0.9-5.3c-0.8-1.5-1.9-2.8-3.2-3.8c-4.5-3.6-10.2-5.4-16-6c-3.9-0.4-14.7-1.7-17.4,1.5
		C329.2,142.8,330.3,153,330.3,157.5z"/>
	<path class="st14" d="M327,154.5c-0.1,0.2,0,0.4,0.1,0.6c0.2,0.2,0.4,0.2,0.6,0.3c1.6,0.4,3.3,0.8,4.9,1.2c2.6,0.8,5.3,1.2,8,1.1
		c0.9,0,1.7-0.2,2.5-0.7c0.7-0.4,1.1-1.2,1.1-2c-0.3-0.9-1.1-1.6-2.1-1.7c-1-0.2-2-0.2-2.9-0.3c-2-0.2-3.8-1.1-5.7-1.7
		c-1.4-0.5-2.9-0.6-4.4-0.3C327.1,151.4,327.1,152.9,327,154.5z"/>
	<path class="st14" d="M339.6,157.5c1.4,1,2.6,2.2,3.7,3.6c0.5,0.8,1.2,1.5,1.8,2.1c1.5,1.2,3.5,1.8,5.4,1.4
		c1.3-0.2,2.5-0.9,3.2-2.1c0.9-1.8-0.4-3.8-1.8-5.2c-2.8-2.7-6.2-4.6-10-5.5c-0.4-0.1-0.8-0.2-1.3-0.2c-1.5,0.2-2.7,1.3-3.1,2.7
		C337.1,155.6,338.6,156.7,339.6,157.5z"/>
	<path class="st20" d="M348,69c-2.4,6.9-6,13.3-10.5,19c-1.4,1.8-3,3.7-2.8,5.9c0.2,2.8,3.4,4.6,6.2,4.3c2.8-0.4,5.1-2.4,6.8-4.6
		c3.1-4.1,4.6-9.2,6.1-14.1c0.6-2.1,1.3-4.2,1.9-6.3c0.7-1.9,1-3.9,0.8-5.8c-0.3-2-2.3-4.4-4.5-4C349.7,63.8,348.6,67.1,348,69z"/>
	<path class="st21" d="M380.5,60.9c-0.4,2.4,1.7,4.5,3.8,5.5c2.2,1.1,4.6,1.5,6.5,3c2.4,1.9,3.4,5,3.7,8c0.7,5.7-0.5,11.5-1.9,17.1
		c-4,16.3-9.3,32.7-7.7,49.4c0.1,0.8,0.1,1.5-0.1,2.3c-0.2,0.5-0.6,0.9-1,1.2c-3.7,3.3-9.2,3.3-14.2,3.1c-6.8-0.3-13.6-0.6-20.4-1
		c-6.2-0.4-12.6-0.8-18.5-2.8c-1.7-0.6-3.5-1.4-4.2-3c-0.7-1.5-0.3-3.4,0.1-5c3.2-11.9,8.1-23.2,14.4-33.7c2-3.3,4.2-6.5,5.8-10
		c4.4-9.2,5.3-19.7,4-29.8c-0.2-0.8-0.1-1.7,0.2-2.5c0.3-0.6,0.8-1.1,1.4-1.4c3.7-2.5,8.3-3.2,12.5-1.7
		C366.6,60.2,380.1,63.3,380.5,60.9z"/>
	<path class="st22" d="M339,150.5c-0.5,1.5-1.2,3.1-2.8,3.7c-1.1,0.3-2.2,0.3-3.3,0c-1.8-0.3-3.5-0.6-5.2-0.8
		c-1.2-0.2-2.5-0.5-3-1.4c-0.7-1.3,0.4-2.7,1.3-3.8c2.5-3.3,3.4-7.3,4.3-11.2c1.1-4.9,2.1-9.8,1.9-14.8c-0.2-3.2-0.8-6.6,0.5-9.6
		c1.4-2.6,3.6-4.5,6.4-5.5c1.8-0.7,4.7-1.9,6.7-1.8c2.6,0.2,2.2,1.2,2.3,3.5c0.2,4.7-0.2,9.3-1,13.9
		C345.4,132.1,342.2,141.3,339,150.5z"/>
	<path class="st23" d="M320,120.8c2.5,2.7,6.1,4.4,8.4,7.2c1.3,1.7,2.3,3.6,3,5.6c2.8,6.7,5.6,13.7,4.7,20.8
		c-0.2,0.6-0.1,1.2,0.3,1.7c0.4,0.3,0.8,0.4,1.3,0.4c2.7,0.3,5.6,0.5,8-0.7c3.2-1.7,4.2-5.4,4.2-8.8c-0.1-1.7-0.3-3.3-0.7-4.9
		c-2-7.3-7.9-13.7-7.8-21.1c0-3.5,1.3-7.6-1.3-10.3c-1.3-1.2-2.9-2-4.7-2.3c-3.6-1-14.4-3.5-17.4-0.6
		C314.6,110.8,317.5,118.2,320,120.8z"/>
	<path class="st24" d="M339.5,66.2c1.5-2.8,2.2-6,1.9-9.2c-0.7-6-6.6-11.2-13.1-11.6c-1.1-0.1-2.2,0-3.2,0.4
		c-1.8,0.8-2.8,2.7-3.5,4.5c-2,4.5-4,9.8-1.6,14.3c2.2,3.6,5.6,6.3,9.6,7.6C334.2,73.4,337.8,69.6,339.5,66.2z"/>
	<path class="st25" d="M334.1,72.7c2-0.5,4-1.5,5.9-1c2.7,0.7,3.7,3.5,4.2,6c1.7,7.9,2.9,16,3.5,24.1c0.2,1.3,0.1,2.6-0.1,3.9
		c-0.5,1.5-1.2,2.9-2.2,4.1c-0.9,1.3-2,2.4-3.4,3.2c-2.6,1.4-5.8,1.1-8.7,0.6c-5.2-0.8-10.3-1.9-15.4-3.3c-0.6-0.1-1.2-0.4-1.7-0.9
		c-0.3-0.7-0.4-1.4-0.3-2.1c0-2.1-1.2-4-1.6-6.1c-0.3-2-0.1-4,0.5-5.9c1.4-6.4,3.4-12.6,6-18.6C323.7,70.6,328.4,74.2,334.1,72.7z"
		/>
	<g transform="translate(13.003 -21.847) rotate(8)">
		<path class="st20" d="M324.3,88.9c1,1.3,1,3.1,0.2,4.5c-1,1.4-2.8,1.8-4.5,2c-1.2,0.3-2.5,0-3.6-0.7c-0.7-0.8-1.2-1.8-1.4-2.8
			c-1-2.7-1.9-5.3,1.6-5.7C319.2,86,322.7,86.6,324.3,88.9z"/>
		<path class="st20" d="M376.1,55.4c1-4.1,2.4-8.1,4.3-11.9c0.6-1.3,1.5-2.3,2.6-3.2c3-1.9,7.3,0.1,8.8,3.3c1.6,3.2,1.2,7,0.6,10.5
			c-2.2,12.3-6.7,24-13.4,34.5c-0.5,0.8-1,1.5-1.7,2.1c-1.1,0.7-2.3,1.1-3.5,1.3c-9.6,1.8-19.3,3.5-29,4.9c-3.2,0.6-6.5,0.9-9.8,0.9
			c-4.2-0.1-8.3-1.2-12-3.1c-1.6-0.8-3.3-2-3.4-3.8c-0.1-1.8,1.6-3.2,3.4-3.4c1.8,0,3.5,0.6,4.8,1.7c0.7,0.6,1.5,1.1,2.3,1.4
			c1.2,0.2,2.5,0.1,3.7-0.4c10.3-3.2,20.6-6.3,30.9-9.5c1.9-0.6,4.1-0.8,5.2-2.4c1.2-1.8,1.4-5.3,2-7.4
			C373.1,65.8,374.6,60.6,376.1,55.4z"/>
	</g>
	<path class="st26" d="M339.3,292.7c0.3,1.1,1.2,1.9,2.3,2.2c0.6,0.1,1.2,0.2,1.8,0.1c1.8,0,3.6-0.2,5.3-0.5c0.4,0,0.8-0.2,1.1-0.4
		c0.2-0.2,0.4-0.5,0.4-0.9c0.2-1.2,0.3-2.4,0.2-3.7c0-0.1,0-0.2-0.1-0.4c-0.2-0.4-0.8-0.5-1.4-0.5c-2.7-0.1-5.4,0.1-8.1,0.4
		C338.7,289.5,338.8,291.2,339.3,292.7z"/>
	<path class="st26" d="M367.9,291.9c0.1,0.6,0.4,1.1,0.8,1.4c0.5,0.3,1.1,0.4,1.7,0.5c2.2,0.3,4.4,0.3,6.6,0c0.7,0,1.3-0.2,1.8-0.6
		c0.2-0.2,0.3-0.5,0.3-0.8c0.2-1,0.1-2.1-0.2-3.1c0-0.2-0.2-0.5-0.3-0.6c-0.3-0.2-0.7-0.3-1.1-0.3c-2.7-0.3-5.5-0.3-8.2,0
		C367,288.6,367.5,290.5,367.9,291.9z"/>
	<path class="st6" d="M342.4,291.3c-0.1-0.4-0.8-0.4-0.8,0c0.1,0.7,0.1,1.3,0.3,2c0.1,0.4,0.9,0.3,0.8-0.1
		C342.7,292.5,342.6,291.9,342.4,291.3z"/>
	<path class="st6" d="M345.4,291.5c-0.1-0.6-1.3-0.6-1.2,0c0,0.7,0.1,1.4,0.2,2.2c0.1,0.6,1.2,0.4,1.2-0.1
		C345.6,292.8,345.5,292.2,345.4,291.5z"/>
	<path class="st6" d="M348.6,292.3c-0.2-0.8-0.4-1.5-0.5-2.3c-0.1-0.4-0.9-0.5-0.9,0c0.1,0.8,0.1,1.6,0.1,2.4
		C347.3,293.2,348.8,293,348.6,292.3z"/>
	<path class="st6" d="M371,289.2c0-0.5-1-0.5-1,0c0,0.7,0,1.5,0,2.2c-0.1,0.6,1.3,0.6,1.2,0C371.1,290.7,371,289.9,371,289.2z"/>
	<path class="st6" d="M374.6,289.1c-0.1-0.6-1.2-0.6-1.2,0c0.1,0.9,0.2,1.9,0.3,2.8c0.1,0.7,1.4,0.6,1.3-0.1
		C374.8,290.9,374.7,290,374.6,289.1z"/>
	<path class="st6" d="M378,289.6c-0.1-0.6-1.2-0.6-1.2,0c0,0.8,0.1,1.5,0.3,2.2c0.2,0.6,1.4,0.3,1.3-0.3
		C378.3,291,378.1,290.3,378,289.6z"/>
	<path class="st27" d="M341.9,50.8c-0.5-2.8-1.3-5.8-3.7-7.3c-0.9-0.5-1.9-0.9-3-1c-2.7-0.6-5.4-0.8-8.1-0.6c-3,0.2-6.2,0.9-8.1,3.2
		c-1,1.3-1.7,3-1.8,4.6c-0.1,1.7-0.1,3.4,0.1,5.1c0.1,0.8,0.3,1.8,1.1,2c0.8,0.2,1.4-0.5,1.9-1.2c0.7-1,1.5-2.1,2.2-3.1l0.3-0.9
		c0,0.5,0.1,1.1,0.2,1.6c0.3,1.3,0.4,2.8-0.6,3.6c1.1-0.2,1.4-1.6,1.5-2.7c0.1-1,0.2-2,0.3-2.9c0.4,1.1,0.9,2.1,1.6,3.1
		c0.1-0.7-0.1-1.4,0.1-2.1c0.3-1,1.3-1.7,2.3-1.5c1,0.2,1.6,1,2.5,1.4c1.1,0.5,2.4,0.2,3.4,0.7c1.3,0.6,1.9,2.2,2.1,3.6
		c0,1.5,0,2.9,0.2,4.4c0.3-0.4,0.8-0.7,1.2-0.9c0.5-0.2,1-0.1,1.4,0.3c0.5,0.6,0,1.6,0.1,2.4c0.1,0.4,0.3,0.8,0.4,1.2
		c0.4,1.6-1.3,3.3-0.7,4.9c0.2-0.8,0.5-1.6,1-2.3c0.3-0.4,0.7-0.8,1-1.3c0.3-0.5,0.5-1.1,0.7-1.7c0.7-2.4,1-4.9,1-7.4
		C342.5,54.1,342.3,52.4,341.9,50.8z"/>
	<g transform="translate(54.749 -42.472) rotate(31)">
		<path class="st28" d="M277.8-32.7c5.1,1.5,10.9,3.3,15.7,0.9c0.5-0.2,0.9-0.5,1.2-1c0.2-0.5,0.3-1,0.4-1.6c0.4-2,0-4.1-1.2-5.8
			c-0.3-0.3-0.6-0.6-0.9-0.9c-0.7-0.6-1.7-0.3-2.6,0c-7,2.5-15,0.1-21.1-4.2c-0.4-0.4-1-0.6-1.5-0.6c-0.3,0.1-0.6,0.2-0.8,0.4
			c-1,0.7-2.8,2.2-2.7,3.6c0.1,1.4,2.2,2.5,3.2,3.3C270.5-35.9,274-34,277.8-32.7z"/>
		<path class="st24" d="M265.3-45.9c0-1.3-0.5-2.5-1.4-3.4c-0.3-0.3-0.8-0.6-1.2-0.5c-0.1,0.1-0.2,0.1-0.3,0.1
			c-0.3,0-0.5-0.1-0.7-0.3c-0.3-0.2-0.6-0.4-1-0.6c-0.4-0.3-0.9-0.4-1.4-0.4c-0.4,0.1-0.8,0.2-1.1,0.4c-0.6,0.3-1.1,0.7-1.4,1.3
			c-0.2,0.8-0.1,1.6,0.3,2.3c0.2,0.4,0.4,0.7,0.7,1c0.3,0.4,0.7,0.7,1.1,1c1,0.9,2.1,1.6,3.3,2.1c0.4,0.1,0.9,0.3,1.3,0.1
			c0.4-0.3,0.8-0.7,1.1-1.2C265-44.5,265.2-45.2,265.3-45.9z"/>
	</g>
	<g transform="matrix(0.848, -0.53, 0.53, 0.848, -20.009, 75.275)">
		<path class="st28" d="M314,189.2c2.5-1.4,4.8-3.1,6.8-5.1c2.2-2.1,4.3-4.6,5.2-7.5c1.6,0.5,3.1,1.1,4.6,1.8
			c0.3,0.1,0.5,0.3,0.7,0.5c0.1,0.2,0.1,0.4,0,0.6c-0.3,1.3-0.8,2.6-1.6,3.7c-0.6,1.1-1.3,2.1-1.9,3.2c-0.7,1.3-1.6,2.6-2.5,3.8
			c-2,2.4-4.4,4.5-7.1,6c-2.7,1.5-5.5,2.9-8.4,4.1c-0.7,0.3-1.6,0.6-2.3,0.1c-0.3-0.2-0.5-0.6-0.6-0.9c-0.6-1.3-1.1-2.6-1.4-4
			c-0.2-1.1-0.2-2.2,0.1-3.3c0.4-1,1.1-0.8,2-0.9C309.9,190.9,312,190.2,314,189.2z"/>
		<path class="st24" d="M328.5,176.7c-0.5-0.1-1-0.4-1.4-0.8c-0.2-0.4-0.3-0.8-0.3-1.3c0-1.2,0.1-2.4,0.5-3.5
			c0.1-0.3,0.2-0.6,0.5-0.5c0.1,0,0.2,0.1,0.3,0.1c0.4,0.1,0.8-0.2,1.1-0.5c0.4-0.8,0.9-1.4,1.6-1.9c0.6-0.3,1.4-0.3,2,0
			c0.6,0.3,1.2,0.8,1.7,1.2c0.1,0.1,0.2,0.2,0.3,0.3c0,0.1,0,0.3,0,0.4c-0.2,1.6-0.7,3.1-1.4,4.5c-0.4,0.9-1.1,2.7-2.3,2.6
			C330.2,177.2,329.3,177,328.5,176.7z"/>
	</g>
	<path class="st29" d="M383.7,40.7c-0.1,0.1-0.1,0.3-0.1,0.4C383.6,40.9,383.7,40.8,383.7,40.7z"/>
	<g transform="matrix(0.995, -0.105, 0.105, 0.995, -3.149, 17.148)">
		<path class="st20" d="M386.3,45.3c1.1,2.8,1.7,5.8,1.6,8.8c0.2,7-0.5,14.3-4.3,20.6c-2.2,3.6-5.8,6.9-10.6,7.6
			c-4.4,0.5-8.7-1-11.9-4.1c-2.7-2.8-4.5-6.2-5.4-9.9c-1.7-6-2-12.3,0.4-18.1C360.7,39.4,379.8,31.1,386.3,45.3z"/>
		<path class="st30" d="M403.8,84.8c-0.3-0.3-0.5-0.8-0.6-1.2c0-1.5,2.4-1.6,3.4-2.8c0.6-0.9,0.5-2.1-0.1-3
			c-0.7-0.8-1.4-1.6-2.3-2.2c-2.7-2.6-4.5-5.9-5.1-9.6c-0.6-3.6-0.8-7.3-0.4-11c0.2-3.6,0.6-7.3-0.3-10.8c-1.3-5.1-5-9.2-9.9-11.1
			c-4.1-1.5-8.7-1.3-13.1-0.9c-4.6,0.4-9.3,1-13.5,3c-4.5,2.2-8.2,6.6-8,11.6c0,0.9,0.3,1.8,0.8,2.5c0.6,0.6,1.3,1,2.1,1.3
			c4,1.4,8.4,1.7,12.6,0.6c1.1,1.4,2.7,2.4,4.5,2.7c2,0.3,4.2-0.3,6.1,0.6c1.6,0.9,2.6,2.6,2.7,4.4c0.1,1.6,0,3.3-0.5,4.9
			c0.4-0.6,1.1-0.8,1.7-0.4c0,0,0.1,0.1,0.1,0.1c0.6,0.7,0.6,1.8,0,2.5c-0.6,0.7-1.2,1.3-2,1.8c-0.7,0.5-1.2,1.3-1.4,2.2
			c0,0.6,0.2,1.3,0.4,1.9c0.5,1.9,0.1,3.9-1,5.5c-1.4,1.9-3.6,3-5.3,4.7c-1.7,1.6-2.7,4.6-1,6.3c1.1,1.1,3,1.1,4.5,0.8
			c1.6-0.3,3.1-1,4.7-0.8c1.6,0.3,3,1.1,4.2,2.2c1.2,1.1,2.5,2,4,2.7c1.5,0.7,3.3,0.4,4.5-0.7c0.3-0.4,0.7-0.9,1.1-1.3
			c1-0.5,2.2-0.5,3.1,0.2c0.9,0.6,1.9,1.1,3,1.4c1.4,0,2.8-0.6,3.7-1.7c0.8-0.7,1.3-1.7,1.2-2.7C407.6,86.5,405.1,86.2,403.8,84.8z"
			/>
	</g>
</g>
</svg>
