<svg xmlns="http://www.w3.org/2000/svg" width="121" height="161.527" viewBox="0 0 121 161.527"><defs><style>.a{fill:#d4c19c;opacity:0.3;}.b{fill:#3a3635;}.c{fill:#e0a58d;}.d{fill:#4794cb;}.e{fill:#fab99e;}.f{fill:#cecdcc;}.g{fill:#9a9b9c;}.h{fill:#424242;}.i{fill:#e8e7e5;}.j{fill:#38312d;}.k{fill:#332f2b;}.l{fill:#fefefe;}.m{fill:#c18f7a;}</style></defs><g transform="translate(-623 -1360)"><circle class="a" cx="53" cy="53" r="53" transform="translate(638 1388)"/><g transform="translate(623.068 1359.907)"><g transform="translate(-0.068 0.093)"><path class="b" d="M551.534,544.505s-4.572,3.63-5.835,5.812,2.6,27.477,2,32.531c-.6,5.031-5.7,16.725-5.7,16.725s17.162,6.387,27.707,6.019a113.6,113.6,0,0,0,27.086-4.687s-3.377-13.1-3.17-17.736c.23-4.641,5.422-22.836,5.675-28.648.23-5.812-7.26-10.522-7.26-10.522s-13.83,1.953-17.943.988S551.534,544.505,551.534,544.505Z" transform="translate(-529.547 -531.504)"/><path class="c" d="M795.847,1428.122s-1.654-2.78-5.215-.253c-2.068,1.47.023,11.51,1.953,12.843,1.953,1.355,3.262.62,3.262.62Z" transform="translate(-771.631 -1394.031)"/><path class="c" d="M2626,1428.122s1.631-2.78,5.215-.253c2.045,1.47-.046,11.51-1.976,12.843-1.929,1.355-3.239.62-3.239.62Z" transform="translate(-2565.669 -1394.031)"/><path class="d" d="M380.307,3082.1c-.505-6.547-.414-29.016-.414-29.016l10.407-49.417c-5.054-4.365-25.019-11.671-25.019-11.671l-10.017,8.2-10.017-8.2s-20.171,6.318-25.248,10.66l10.315,47.809s.965,13.324,1.011,29.59c0,.965-.069,2.619-.207,4.732h49.417C380.445,3083.689,380.353,3082.77,380.307,3082.1Z" transform="translate(-312.647 -2923.265)"/><path class="c" d="M1395.067,2585.557h0c.528-4.319,1.034-9.557,1.034-9.557H1374l1.034,9.557h0l9.9,22.675Z" transform="translate(-1342.432 -2516.822)"/><path class="e" d="M1570.172,5342.607a11.611,11.611,0,0,0,3.033.3c.643-.068,5.744-2.619,7.7-2.412,1.93.184,5.468,6.18,6.846,7.88s2.55,8.316,1.93,8.638c-.643.321-4.273-.092-5.169-.574s-2.091-4.6-3.056-4.687c-.988-.069-2.849,1.631-3.722,1.7-.9.092-8.73-2.5-8.73-2.5Z" transform="translate(-1532.952 -5217.792)"/><path class="f" d="M2934.382,3500s7.421,29.935,8.8,36.23c1.379,6.318.574,35.38-.322,37.723-.873,2.343-5.008,5.307-8.477,5.077-3.469-.253-7.375-.505-9.167-4.135a13.047,13.047,0,0,1-1.218-7.237s3.607-21.917,3.722-26.788,1.448-16.174,1.448-16.174Z" transform="translate(-2856.728 -3419.594)"/><path class="g" d="M945,5745l42.5,4.434-1.218,11.647-17.414-1.815Z" transform="translate(-923.288 -5613.018)"/><path class="h" d="M969.513,5761.955l-22.7-12.038a2.122,2.122,0,0,1-1.057-1.378L945,5745l28.465,13.646Z" transform="translate(-923.288 -5613.018)"/><path class="h" d="M2061.114,4082.8l-71.932-7.03a1.336,1.336,0,0,0-1.47,1.31l-.712,53.162a.9.9,0,0,0,.85.9l66.1,4.549a1.947,1.947,0,0,0,2.045-1.516l6.318-49.854A1.368,1.368,0,0,0,2061.114,4082.8Z" transform="translate(-1941.349 -3982.13)"/><path class="g" d="M3279.73,5221.285a4.932,4.932,0,1,0,5.4-4.388A4.915,4.915,0,0,0,3279.73,5221.285Z" transform="translate(-3204.351 -5097.022)"/><path class="e" d="M2954.683,6550a7.437,7.437,0,0,0,1.011,4,8.858,8.858,0,0,0,6.869,3.768c2.964.161,4.5-.735,6.364-1.631,1.861-.874,2.527-1.494,4.755-1.562,2.619-.092,2.987-.781,4-.689,2.3.23,2.412-1.814,1.585-2.205-.827-.368-8.409-.988-8.409-.988Z" transform="translate(-2886.793 -6399.523)"/><path class="e" d="M3006.583,5985.646l1.057-10.085a2.109,2.109,0,0,0-1.884-2.3h0a2.087,2.087,0,0,0-2.275,1.746l.3-2.872a2.353,2.353,0,0,0-2.067-2.55h0a2.326,2.326,0,0,0-2.55,2.068l-.368,3.423a2.091,2.091,0,0,0-1.884-2.229h0a2.075,2.075,0,0,0-2.3,1.861l-.161,1.447a1.84,1.84,0,0,0-1.631-1.929h0a1.865,1.865,0,0,0-2.021,1.63l-.919,8.8C2989.627,5987.3,3006.467,5986.772,3006.583,5985.646Z" transform="translate(-2921.186 -5832.436)"/><path class="i" d="M1232.2,2925l4.388,7.719,5.7,16.5v3.032l-7.145-12.865-5.583,1.7L1228,2927.5Z" transform="translate(-1199.787 -2857.803)"/><path class="i" d="M1860.223,2963l-4.319,6.64-5.9,16.7v3.033l7.765-12.2,5.261,3.056,1.08-15.048Z" transform="translate(-1807.496 -2894.93)"/><path class="f" d="M7.285,3456s-8.041,47.625-7.306,51.645c.735,4,36.8,3.01,36.8,3.01l1.769-10.66s-23.617-.85-24.1-1.08c-.482-.252.6-6.846.574-7.03C14.844,3490.576,7.285,3456,7.285,3456Z" transform="translate(0.068 -3376.604)"/><path class="e" d="M989.966,564.564c.092,5.812.735,21.09,2.435,24.467,1.677,3.4,12.36,12.521,17.92,12.521,5.583,0,16.266-9.58,17.23-11.786s2.159-26.9,2.159-26.9-1.355-10.177-4.066-13.83c-2.711-3.63-13.371-5.33-17.988-5.077-4.595.23-13.325,4.847-14.543,7.26C991.9,553.652,989.921,561.394,989.966,564.564Z" transform="translate(-967.221 -531.438)"/><path class="b" d="M936.852,31.634s24.123,1.539,35.173-6.938c0,0,1.861,10.086,7.214,13.026,0,0,3.63-14.542,2.964-17.8-.666-3.285-4.687-7.329-4.687-7.329s-3.262-9.4-14.887-11.946-22.813,4.365-24.858,8.73S936.852,31.634,936.852,31.634Z" transform="translate(-915.025 -0.093)"/><path class="j" d="M1244.41,1469.952c0,2.182-1.447,3.951-3.216,3.951s-3.193-1.769-3.193-3.951,1.424-3.952,3.193-3.952S1244.41,1467.769,1244.41,1469.952Z" transform="translate(-1209.557 -1432.322)"/><path class="k" d="M1280,1593.676v.253a2.911,2.911,0,0,0,2.229,1.126c1.769,0,3.216-1.769,3.216-3.951a6.1,6.1,0,0,0-.046-.666,3.618,3.618,0,0,0-1.723-.437A3.657,3.657,0,0,0,1280,1593.676Z" transform="translate(-1250.592 -1553.474)"/><path class="l" d="M1269.229,1527.355a1.258,1.258,0,0,1-1.1,1.379,1.393,1.393,0,0,1,0-2.734A1.25,1.25,0,0,1,1269.229,1527.355Z" transform="translate(-1237.89 -1490.944)"/><path class="j" d="M2199.41,1469.952c0,2.182-1.424,3.951-3.193,3.951s-3.216-1.769-3.216-3.951,1.447-3.952,3.216-3.952S2199.41,1467.769,2199.41,1469.952Z" transform="translate(-2142.617 -1432.322)"/><path class="k" d="M2235,1593.676v.253a2.993,2.993,0,0,0,2.251,1.126c1.769,0,3.193-1.769,3.193-3.951a6.134,6.134,0,0,0-.046-.666,3.62,3.62,0,0,0-1.723-.437A3.657,3.657,0,0,0,2235,1593.676Z" transform="translate(-2183.652 -1553.474)"/><path class="l" d="M2221.229,1527.355a1.258,1.258,0,0,1-1.1,1.379,1.393,1.393,0,0,1,0-2.734A1.25,1.25,0,0,1,2221.229,1527.355Z" transform="translate(-2168.019 -1490.944)"/><path class="l" d="M1612,2414.631a19.991,19.991,0,0,0,14.68-1.631A12,12,0,0,1,1612,2414.631Z" transform="translate(-1574.965 -2357.567)"/><path class="m" d="M1924.618,2032s-.391,7.536,0,7.6c.391.092,3.377,0,4.02-.643S1925.514,2032.414,1924.618,2032Z" transform="translate(-1880.231 -1985.319)"/></g></g></g></svg>