<svg xmlns="http://www.w3.org/2000/svg" width="255.282" height="75" viewBox="0 0 255.282 75"><defs><style>.a{fill:#9d2449;fill-rule:evenodd;}</style></defs><path class="a" d="M4978,4982.1h4.6v1.183h-3.145v2.378h2.469l-.312,1.183h-2.157v2.431h3.145v1.183H4978V4982.1Zm150.777,8.487a3.985,3.985,0,0,1-4.354-4.237v-.117a3.991,3.991,0,0,1,4.354-4.237,5,5,0,0,1,2.43.545l-.156,1.157a4.186,4.186,0,0,0-2.3-.455,2.769,2.769,0,0,0-2.729,2.99v.117a2.762,2.762,0,0,0,2.729,2.989,4.189,4.189,0,0,0,2.3-.455l.156,1.157A4.985,4.985,0,0,1,5128.777,4990.591Zm-71.555-.17a3.918,3.918,0,0,0,1.325.716,4.642,4.642,0,0,0,1.339.09l.585-.025.04,1.156-.585.014a5.646,5.646,0,0,1-1.676-.117,8.027,8.027,0,0,1-2.808-1.806,3.588,3.588,0,0,1-3.2-3.782v-.715a3.993,3.993,0,0,1,7.98,0v.715A3.582,3.582,0,0,1,5057.223,4990.421Zm-.987-.975a2.474,2.474,0,0,1-2.43-2.612v-1.066a2.436,2.436,0,1,1,4.86,0v1.066A2.466,2.466,0,0,1,5056.235,4989.446Zm-24.485,1.145a3.985,3.985,0,0,1-4.354-4.237v-.117a3.991,3.991,0,0,1,4.354-4.237,4.994,4.994,0,0,1,2.43.545l-.155,1.157a4.189,4.189,0,0,0-2.3-.455,2.769,2.769,0,0,0-2.73,2.99v.117a2.761,2.761,0,0,0,2.73,2.989,4.192,4.192,0,0,0,2.3-.455l.155,1.157A4.982,4.982,0,0,1,5031.75,4990.591Zm8.746-.092a3.645,3.645,0,0,1-3.988-3.833v-.715a3.985,3.985,0,0,1,7.966,0v.715A3.643,3.643,0,0,1,5040.5,4990.5Zm0-1.053a2.466,2.466,0,0,1-2.43-2.612v-1.066a2.437,2.437,0,1,1,4.861,0v1.066A2.475,2.475,0,0,1,5040.5,4989.446Zm107.735-1.923V4982.1h-1.455v5.419a2.1,2.1,0,0,1-4.184,0V4982.1h-1.457v5.419C5141.135,4991.6,5148.231,4991.6,5148.231,4987.523Zm9.214-5.419-2.625,4.536v3.821h-1.455v-3.821l-1.65-2.782a1.256,1.256,0,0,0-1.066-.572V4982.1c.884,0,1.274-.247,1.989.988l1.455,2.481,1.989-3.469Zm-48.278,0h1.468v8.357h-1.468Zm4.951,0h1.2l4.627,5.783V4982.1h1.455v8.357h-.949l-4.861-6.122v6.122h-1.468Zm20.027,0h1.455v7.174h3.327v1.183h-4.782V4982.1Zm26.224,0h4.614v1.183h-3.146v2.378h2.47l-.325,1.183h-2.145v2.431h3.146v1.183h-4.614V4982.1Zm-89.827,5.419V4982.1h-1.467v5.419a2.093,2.093,0,0,1-4.173,0V4982.1h-1.469v5.419C5063.434,4991.6,5070.542,4991.6,5070.542,4987.523Zm22.613-5.419v1.183h-2.65v7.174h-1.47v-7.174H5086.4V4982.1h6.757Zm2.976,0h4.615v1.183h-3.159v2.378h2.481l-.324,1.183h-2.157v2.431h3.159v1.183h-4.615V4982.1Zm-21.884,0h4.614v1.183h-3.146v2.378h2.469l-.312,1.183h-2.157v2.431h3.146v1.183h-4.614V4982.1Zm-57.038,0h1.2l4.626,5.783V4982.1h1.469v8.357h-.95l-4.872-6.122v6.122h-1.469Zm-5.784,0h-1.468l-3.25,8.357h1.468l.923-2.392h3.17l.937,2.392h1.467Zm-1.936,4.965,1.2-3.081,1.209,3.081Zm-10.669-4.965h3.275a2.019,2.019,0,0,1,2,2h0a2.011,2.011,0,0,1-2,2h.3a2.185,2.185,0,0,1,2.169,2.184h0a2.181,2.181,0,0,1-2.169,2.17h-3.573Zm1.468,1.1v2.5h1.026a1.249,1.249,0,0,0,1.249-1.248h0a1.257,1.257,0,0,0-1.249-1.248Zm0,3.417v2.834h1.325a1.421,1.421,0,0,0,1.418-1.417h0a1.421,1.421,0,0,0-1.418-1.417Zm-9.2,2.652v1.183h-4.77V4982.1h1.456v7.174Z" transform="translate(-4913.438 -4917.384)"/><path class="a" d="M4984.46,1020.6c6.706-.039,14.191-.195,13.957,7.369-.234,7.485-7.018,6.992-13.957,6.992Zm150.464-11.424h-1.948v3.262l-.026,3.054h4.716l.078,24.653h7.032l.012-24.666h12.164v-6.3h-12.164c0-8.525,2.274-7.759,9.656-6.55l1.053-4.978c-3.808-1.027-8.044-1.832-12.047-.572-5.784,1.806-5.77,6.992-5.77,12.1Zm26.642,0h4.938c1.638,0,1.638,6.992,0,6.992h-4.938C5159.929,1016.164,5159.929,1009.172,5161.565,1009.172Zm-75.374,26.46h-.3c-4.042.013-6.875-1.04-10.137-2.222l-.858,5.068c5.172,1.261,8.746,3.3,15.907,1.585,4.626-1.1,8.758-4.626,7.576-10.514-1-4.964-5.522-6.082-10.5-7.784-2.261-.78-5.237-1.378-5.419-3.769-.52-6.771,12.45-2.534,13.971-2.222l1.014-5c-5.159-1.209-9.956-2.586-15.53-.884-4.211,1.287-8.214,5.263-6.095,11.047,1.532,4.172,6.341,5.2,11.229,6.784,2.286.741,4.782,1.663,4.522,4.406C5091.324,1034.734,5089,1035.618,5086.191,1035.631Zm22.676-14.568c.6-4.081,2.561-6.953,6.72-7.187,4.808-.26,6.562,2.56,6.576,7.187Zm19.3,17.518-.716-4.887c-2.352.013-7.746,2.716-13.229,1.014-3.913-1.222-6.109-4.938-5.549-9.994h20.143c.56-8.681-2.456-14.608-10.357-15.439-8.707-.936-14.295,2.638-16.348,9.422-1.91,6.3-1.208,14.972,4.809,19.13C5113.339,1042.259,5121.006,1040.765,5128.168,1038.581Zm-84.005-28.9-.039,30.32,6.705-.026c.014-1.325-.375-19.858.3-21.053,2.014-3.6,11.072-7.148,12.345.637.962,5.978-.61,14.673.286,20.612l7.056-.013c.442-3.717.091-9.721.091-13.7,0-6.836,1.053-17.675-10.487-17.285a14.212,14.212,0,0,0-7.591,2.82,8.858,8.858,0,0,1-2.014,1.547c-.676-1-.545-2.352-.819-3.054C5049.465,1009.093,5048.828,1009.613,5044.163,1009.678Zm-14.334,15.881c.013,6.03.884,6.342-2.43,8.681-7.251,5.108-13.008-4.328-6.263-6.576A61.918,61.918,0,0,1,5029.828,1025.56Zm-17.44-13.217a15.133,15.133,0,0,0,.65,2.43l.9,2.209c6.07-2.027,16.739-6.576,15.83,4.679-1.288.754-9.669,2.339-12,2.937-4.445,1.156-7.484,2.976-6.835,8.447.754,6.2,7.966,9.344,14.113,6.628,2.912-1.3,3.5-2.443,4.783-3.067a.516.516,0,0,1,.117.208l.467,1.053c1.937,4.406,6.888,2.6,10.514,1.6l-.325-4.2h-3.041c-3.106-8.292,6.368-27.422-14.594-26.07C5017.534,1009.548,5015.065,1011.589,5012.388,1012.343Zm-27.928-9.266h4.9c4.627,0,7.967,3.483,6.173,8.265-1.624,4.328-5.745,4.3-11.072,4.328Zm-7.459-3.6.014,40.69c8.706-.1,21.52,1.391,26.368-3.86,3.534-3.834,4.379-12.476-.65-16.336-1.961-1.508-3.353-1.456-5.2-2.508.845-1.144,2.82-1.715,3.666-2.534,3.781-3.678,3.014-11.32-.572-14.153-5.12-4.068-16.127-3-23.626-2.911Z" transform="translate(-4912.45 -983.609)"/><path class="a" d="M10,1107H43.36l-8.655,8.656H18.655v16.05L10,1140.348Zm42.3,8.941V1149.3H18.941l8.655-8.655h16.05V1124.6Z" transform="translate(-10 -1092.743)"/><path class="a" d="M2599,23.958l8.019-8.019h-6.563L2606.395,10h15.517V25.5l-5.952,5.952V24.893l-8.018,8.019H2599Z" transform="translate(-2565.354 -10)"/><path class="a" d="M18777.611,930.161h7.041V907.769h-2.426c-2.408,0-2.809-3.288-2.809-5.082a9.132,9.132,0,0,1,.625-3.5h-2.432Zm3.6-45.161a4.211,4.211,0,1,0,4.209,4.211A4.207,4.207,0,0,0,18781.211,885Z" transform="translate(-18533.113 -873.628)"/></svg>