<svg xmlns="http://www.w3.org/2000/svg" width="81.024" height="366.026" viewBox="0 0 81.024 366.026"><defs><style>.a{fill:#d4c19c;}.b{fill:#eef6f2;}.c{fill:#8c6239;}.d{fill:#c79f99;}.e{fill:#edd5be;}.f{fill:#d4bca6;}.g{fill:#aa4a4d;}.h{fill:#98b99d;}.i{fill:#d9924e;}.j{fill:#f8f8f8;}.k{fill:#8b3d3f;}</style></defs><g transform="translate(1.902)"><ellipse class="a" cx="40.5" cy="6" rx="40.5" ry="6" transform="translate(-1.902 354.026)"/><path class="b" d="M517.969,723.836c4.184.322,8.153-.965,12.122-2.253,3.862-1.18,7.616-2.467,11.585-2.253,4.076.215,9.225,1.5,11.478-1.931.966-1.5.966-3.433.858-5.256-.644-19.952-1.287-40.011-2.038-59.964A64.576,64.576,0,0,1,514,651c0,22.634.107,45.16.215,67.794,0,1.5.107,3.218,1.287,4.183A4.869,4.869,0,0,0,517.969,723.836Z" transform="translate(-495.792 -592.538)"/><path class="c" d="M396.683,3227.809a51.161,51.161,0,0,0,7.4-15.662,33.282,33.282,0,0,0,1.073-7.187,2.689,2.689,0,0,0-.536-2.039,3.024,3.024,0,0,0-1.609-.644c-3.862-.644-8.26-.965-11.049,1.716a12.2,12.2,0,0,0-2.36,3.969,49.616,49.616,0,0,0-3.433,23.385c1.18,1.824,3.969,2.146,5.9,1.18C394.109,3231.563,395.4,3229.632,396.683,3227.809Zm42.693,2.682c-3.111-4.827-6.007-9.977-7.4-15.661a39.967,39.967,0,0,1-.965-7.188,3.031,3.031,0,0,1,.429-1.931,2.438,2.438,0,0,1,1.716-.644c3.755-.644,8.152-1.073,10.942,1.716a11.033,11.033,0,0,1,2.36,3.862A48.559,48.559,0,0,1,450,3234.03c-1.287,1.931-3.969,2.146-6.007,1.179A12.991,12.991,0,0,1,439.376,3230.49Z" transform="translate(-381.478 -2869.743)"/><path class="d" d="M350.45,726.612c3.969-29.392,9.225-59.32,5.9-88.175a14.452,14.452,0,0,1,9.332-2.682c.536,20.6,1.18,41.084,1.716,61.68h17.807l.215.751c3.754,0,7.509,0,11.263-.107.536-20.489,1.18-41.084,1.716-61.573a14.453,14.453,0,0,1,9.332,2.682c-3.325,29.284,4.4,58.569,7.4,87.961,2.36,24.136,5.149,34.648,4.4,59-1.395,39.582-6.222,93.217-7.616,132.907,0,.965-53.635-.644-59.749-.644,1.073,0-4.827-70.69-5.149-75.947-1.609-27.461-3.754-56.209-2.253-83.67C345.408,747.744,348.841,737.768,350.45,726.612Z" transform="translate(-344.256 -578.902)"/><path class="e" d="M561.2,146.223a42.605,42.605,0,0,1,3.326-7.08c4.72-7.723,17.485-17.163,26.5-10.405a21.355,21.355,0,0,1,5.042,6.114,41.083,41.083,0,0,1,3.647,7.187,26.4,26.4,0,0,1,1.18,15.232c-1.073,4.613-3.969,9.011-6.543,12.98-3.54,5.149-7.831,10.3-13.945,11.8-8.045,2.038-16.627-3.754-19.845-11.478C557.337,162.957,558.41,154.054,561.2,146.223Z" transform="translate(-535.589 -124.233)"/><path class="f" d="M508.263,173.687a2.819,2.819,0,0,1,1.5-.965h0c-7.294-13.087-5.471-30.572-3.862-40.548a39.824,39.824,0,0,1,6.007-15.769,23.9,23.9,0,0,1,13.409-9.654,32.681,32.681,0,0,1,7.938-.751c2.038,0,4.505.215,5.793,1.716,2.467-.965,5.578-.107,7.723,1.609a21.689,21.689,0,0,1,5.042,7.294,56.909,56.909,0,0,1,4.72,13.194A48.8,48.8,0,0,1,556,151.375a27.544,27.544,0,0,1-2.682,7.187c-1.931,3.218-4.827,5.578-7.723,7.938a3.94,3.94,0,0,1-1.716.965c-.644.107-1.5-.107-1.609-.751a2.385,2.385,0,0,1,.322-1.716c6.329-11.049,6.329-24.779,3.862-37.222-1.073-5.363-2.682-10.834-6.222-14.91a2.135,2.135,0,0,0-1.287-.858,10.6,10.6,0,0,1-2.789,3c-5.471,4.291-10.834,8.689-16.305,13.087-3.218,2.467-6.436,5.149-7.831,9.011-1.5,4.183-.322,8.8.322,13.3.644,3.862,4.076,16.09.214,21.883a9.228,9.228,0,0,1,1.716-.107,24.385,24.385,0,0,1-.965,19.2c.429-2.682-1.931-4.934-3.433-7.187a13.1,13.1,0,0,1-1.931-9.547Z" transform="translate(-487.265 -106)"/><path class="g" d="M875.69,819.6a2.559,2.559,0,0,1-1.18-.644,7.362,7.362,0,0,0-3.969-1.073c-2.145.322-3.862,2.36-4.4,4.505-.644,2.145-.429,4.4-.429,6.651,0,1.824,0,3.969,1.394,5.149a6.561,6.561,0,0,0,1.287.536,3.993,3.993,0,0,0,1.931-.215,13.992,13.992,0,0,0,7.294-4.72c1.394-1.716,3.755-4.934,2.789-7.187a6.516,6.516,0,0,0-.751-1.073,2.448,2.448,0,0,0-1.287-.644A20.658,20.658,0,0,1,875.69,819.6Z" transform="translate(-809.747 -741.51)"/><path class="g" d="M504.836,784c-.429.322-.751.536-1.18.858a6.386,6.386,0,0,0-2.575,3c-.751,2.145.429,4.505,2.146,6.007s3.862,2.253,5.793,3.218c1.716.858,3.647,1.716,5.363.966a3.046,3.046,0,0,0,1.073-.966,5.125,5.125,0,0,0,.643-1.931,14.021,14.021,0,0,0-1.287-8.582c-.858-1.931-2.9-5.578-5.256-5.578a4.807,4.807,0,0,0-1.287.107,3.36,3.36,0,0,0-1.18.858C506.338,782.716,505.587,783.36,504.836,784Z" transform="translate(-484.053 -708.593)"/><path class="g" d="M713.472,799.092a5.673,5.673,0,0,1-.107-1.395,7.389,7.389,0,0,0-1.18-3.862c-1.394-1.716-3.969-2.038-6.114-1.395a25.917,25.917,0,0,0-5.9,3.111c-1.5.965-3.433,2.038-3.54,3.862a2.97,2.97,0,0,0,.107,1.394,4.747,4.747,0,0,0,1.287,1.609,14.342,14.342,0,0,0,7.831,3.647c2.145.322,6.221.644,7.509-1.395a3.969,3.969,0,0,0,.536-1.18,3.09,3.09,0,0,0-.107-1.394C713.686,801.023,713.472,800.057,713.472,799.092Z" transform="translate(-658.792 -718.533)"/><path class="g" d="M624.218,779.841c.429-.107.858-.107,1.287-.214a6.2,6.2,0,0,0,3.862-1.287c1.716-1.394,1.931-3.969,1.18-6.114-.644-2.146-2.038-3.862-3.325-5.793-.965-1.5-2.145-3.325-3.969-3.433a2.942,2.942,0,0,0-1.394.215,4.367,4.367,0,0,0-1.5,1.287,14.716,14.716,0,0,0-3.433,7.938c-.215,2.145-.429,6.222,1.716,7.509a3.967,3.967,0,0,0,1.18.536,3.087,3.087,0,0,0,1.394-.107A14.734,14.734,0,0,1,624.218,779.841Z" transform="translate(-587.559 -692.524)"/><path class="g" d="M641.487,842.536a5.665,5.665,0,0,1-1.395.107,7.391,7.391,0,0,0-3.862,1.18c-1.716,1.394-1.931,3.969-1.394,6.114.644,2.145,2.038,3.969,3.218,5.9.965,1.5,2.038,3.433,3.969,3.54a2.643,2.643,0,0,0,1.287-.107,4.753,4.753,0,0,0,1.609-1.287,14.342,14.342,0,0,0,3.647-7.831c.215-2.145.536-6.222-1.5-7.509a2.556,2.556,0,0,0-1.18-.644,6.122,6.122,0,0,0-1.395.107A15.568,15.568,0,0,1,641.487,842.536Z" transform="translate(-603.434 -763.05)"/><path class="g" d="M715.092,714.166c-.429,0-.858.107-1.394.107a6.318,6.318,0,0,0-3.862,1.18c-1.716,1.395-2.038,3.969-1.394,6.114a23.524,23.524,0,0,0,3.218,5.793c.965,1.609,2.038,3.433,3.862,3.647a3.167,3.167,0,0,0,1.395-.215,5.219,5.219,0,0,0,1.5-1.18,13.933,13.933,0,0,0,3.647-7.938c.322-2.038.644-6.222-1.395-7.509a3.964,3.964,0,0,0-1.18-.536,3.085,3.085,0,0,0-1.394.107C717.023,713.952,716.057,714.059,715.092,714.166Z" transform="translate(-669.101 -648.41)"/><path class="g" d="M787.35,763.6a11.294,11.294,0,0,1,1.18.751,6.12,6.12,0,0,0,3.754,1.5c2.253,0,4.076-1.931,4.935-3.969.751-2.038.751-4.4,1.073-6.544.214-1.823.429-3.969-.858-5.256a5.074,5.074,0,0,0-1.287-.751,5.844,5.844,0,0,0-1.931,0,15.286,15.286,0,0,0-7.724,3.969c-1.5,1.5-4.291,4.613-3.54,6.865a4.164,4.164,0,0,0,.644,1.18,4.431,4.431,0,0,0,1.18.751A27.354,27.354,0,0,1,787.35,763.6Z" transform="translate(-735.781 -680.249)"/><path class="h" d="M787.4,825.5a6.76,6.76,0,0,0-.536,2.36,3.448,3.448,0,0,0,1.609,2.253,6.511,6.511,0,0,0,1.073.751c.429.215.751.429,1.18.644a3.821,3.821,0,0,1-2.574.751l.429.858.215.107.107-.107a6.183,6.183,0,0,0,2.467-1.395,16.552,16.552,0,0,0,2.467.751,3.409,3.409,0,0,0,1.5.215,2.129,2.129,0,0,0,1.395-.644,18.659,18.659,0,0,1,1.287-1.5c-.536-.107-1.073.322-1.609.429l-.966.107h-1.716l-.214-.107v-.322a22.536,22.536,0,0,1,1.394-2.789l-.429.107a6.644,6.644,0,0,0-1.824,1.18l-.536.429-.751-.429-.107-.858a7.119,7.119,0,0,1,.644-2.145l.107-.215-.322-.107-.215.322a18.653,18.653,0,0,1-1.18,1.931l-.214.215h-.644a2.39,2.39,0,0,1-1.18-2.038,16.277,16.277,0,0,1-.322-2.253C787.5,824.322,787.5,824.966,787.4,825.5Z" transform="translate(-739.366 -746.981)"/><path class="g" d="M793.409,831.515a9.723,9.723,0,0,0,.965-1.073,6.28,6.28,0,0,0,1.823-3.54c.215-2.145-1.394-4.291-3.433-5.256a21.464,21.464,0,0,0-6.329-1.823c-1.824-.429-3.969-.966-5.363.215a2.775,2.775,0,0,0-.751,1.18,4.083,4.083,0,0,0-.322,1.931,14.97,14.97,0,0,0,3.111,8.152c1.287,1.716,4.076,4.72,6.436,4.184a3.843,3.843,0,0,0,1.18-.429,4.61,4.61,0,0,0,.965-1.073A20.159,20.159,0,0,1,793.409,831.515Z" transform="translate(-733.258 -742.803)"/><path class="i" d="M557.522,899.824l.107.429a10.011,10.011,0,0,1-.214,3.54,26.564,26.564,0,0,1-1.609,6.865,24.512,24.512,0,0,1-3.54,6.329,25.07,25.07,0,0,1-13.73,8.9,35.687,35.687,0,0,1-8.26,1.18A31.27,31.27,0,0,1,517.4,924.6a21.344,21.344,0,0,1-8.582-7.187,29.193,29.193,0,0,1-5.9-15.554c-.107-.965-.429-1.823.644-2.253a10.085,10.085,0,0,1,3.647-.322c2.9-.215,5.685-.322,8.582-.536,5.685-.214,11.478-.429,17.163-.536,2.145-.107,4.291-.107,6.329-.214a94.284,94.284,0,0,1,16.52.965C556.557,899.073,557.2,899.18,557.522,899.824Z" transform="translate(-485.787 -813.043)"/><path class="j" d="M547.836,934.738c-.429-2.038-3.218-1.824-4.184-.429a2.26,2.26,0,0,0,0,2.574,2.19,2.19,0,0,0,2.467.751,2.731,2.731,0,0,0,1.716-2.146Zm9.654-5.578c-.429-1.931-3.111-1.716-4.076-.429a1.958,1.958,0,0,0,0,2.575,2.035,2.035,0,0,0,2.36.751,2.547,2.547,0,0,0,1.716-2.145Zm13.409,0c-.429-1.931-3.111-1.716-4.076-.429a2.261,2.261,0,0,0,0,2.575,2.19,2.19,0,0,0,2.467.751,2.613,2.613,0,0,0,1.609-2.145Zm8.045,18.021c-.322-1.5-2.467-1.395-3.218-.322a1.772,1.772,0,0,0,0,2.038,1.848,1.848,0,0,0,1.931.644,2.364,2.364,0,0,0,1.287-1.717Zm-15.339,1.18c-.322-1.5-2.467-1.395-3.218-.322a1.772,1.772,0,0,0,0,2.038,1.637,1.637,0,0,0,1.931.536,2.19,2.19,0,0,0,1.287-1.609Zm22.634-7.4c-.322-1.716-2.682-1.5-3.433-.429a1.778,1.778,0,0,0,0,2.253,2.024,2.024,0,0,0,2.038.644,2.42,2.42,0,0,0,1.394-1.823Zm-14.589,2.146c-.429-2.038-3.111-1.824-4.076-.536a2.259,2.259,0,0,0,0,2.574,2.426,2.426,0,0,0,2.467.858,2.776,2.776,0,0,0,1.609-2.253Zm-15.983,0c-.429-2.038-3.218-1.824-4.184-.536a2.259,2.259,0,0,0,0,2.574,2.426,2.426,0,0,0,2.467.858,2.892,2.892,0,0,0,1.716-2.253Zm36.257-11.049c-.429-1.716-2.9-1.5-3.754-.322a2.132,2.132,0,0,0,0,2.253,1.99,1.99,0,0,0,2.253.644,2.584,2.584,0,0,0,1.5-1.931Zm-12.443,2.682c-.536-2.038-3.218-1.824-4.184-.429a2.26,2.26,0,0,0,0,2.574,2.19,2.19,0,0,0,2.467.751,2.951,2.951,0,0,0,1.716-2.146Zm-16.627.965c-.536-2.038-3.218-1.824-4.183-.429a2.26,2.26,0,0,0,0,2.574,2.189,2.189,0,0,0,2.467.751,2.949,2.949,0,0,0,1.716-2.146Z" transform="translate(-521.904 -839.59)"/><path class="e" d="M403.762,882.31c3.325,9.225-.215,19.416-3.754,28.534-3.433,8.689-6.758,17.378-10.083,26.066-.965,2.574-2.789,5.578-5.471,5.149-2.467-.322-3.433-3.325-3.754-5.792-2.145-19.094,8.582-37.115,18.879-53.42.751-1.18,2.145-2.575,3.325-1.824A3.4,3.4,0,0,1,403.762,882.31Zm46.126-.858c.965.965,1.18,2.575,1.287,3.969,1.395,15.769,2.789,31.43,4.184,47.091.536,6.651.858,14.16-3.433,19.309-1.073,1.287-2.682,2.467-4.4,2.253-6.007-14.589-7.187-30.572-8.367-46.233-.536-7.831-.965-16.2,2.682-23.063a8.108,8.108,0,0,1,3.325-3.754A3.862,3.862,0,0,1,449.888,881.452Z" transform="translate(-376.544 -797.353)"/><path class="k" d="M571.735,763.7h-.215l.215-.965.536.214-.322.429Zm-2.9.644-.214-.107.536-.858.322.215Zm-7.08-7.187-.322-.215a5.7,5.7,0,0,1,.644-1.073l.107.107A2.25,2.25,0,0,1,561.759,757.153Zm-1.18-3.862-.322-.215.965-.751.107.107Zm2.9-2.038-.214-.215.751-.429.107.107Zm3,1.18-.429-.107.107-.643.107-.215h.107l.107.107Zm-2.038,1.18-.322-.214.536-.751h.107Zm1.073,2.682-.214-.107a1.906,1.906,0,0,1,.429-1.073h.107A2.163,2.163,0,0,1,565.513,756.295Zm-1.5,2.467c0-.107-.107-.107-.214-.107a2.343,2.343,0,0,1,.322-.536l.107.107Zm.107,1.931a3.407,3.407,0,0,0-1.073-1.073l.107-.107a1.71,1.71,0,0,1,1.287.965Zm.536,3.111-.215-.429-.214-.322v-.215l.429.107.429.644Zm-2.253.107-.751-.751.107-.107a1.428,1.428,0,0,1,.965.644Zm-.751-2.682a1.967,1.967,0,0,1-1.073-.751v-.107l.751.214.429.322Zm-2.574,1.716a5.888,5.888,0,0,1-.965-.751l.107-.107a5,5,0,0,1,1.073.536Zm-.322-3.862a3.57,3.57,0,0,1-1.073-.644l.107-.107a4.486,4.486,0,0,1,1.073.429Zm-1.073-3.647-.215-.214.536-.644h.215Zm.751-3-.215-.215.858-.858.107.107Zm-2.038-.107h0l-.107-.643-.107-.429a.284.284,0,0,1,.322-.322c.107,0,.214.107.214.322a2.667,2.667,0,0,1-.107.858C556.5,752.111,556.5,752.218,556.4,752.326Zm-2.038-2.36-.322-.858.536-.107v.965ZM552.212,752v-1.073l.429.107a3.131,3.131,0,0,1-.215.965Zm2.36,1.824-.107-.858h.429l-.107.751v.107Zm.751,1.824-.429-.215.751-.751.215.107-.322.429ZM555,757.8l-.644-.107-.107-.107h-.107v-.107l.215-.107.751.107Zm.858,2.145-.751-.644.107-.107.858.429Zm-2.467.536-.322-.751.107-.107.429.644Zm1.716,3.218-.644-1.073h.107l.751.751Zm-1.18,1.287-.751-1.073h.214l.751.858Zm-1.824-.322h-.858v-.215l.965-.107Zm-2.038-3.325h-.107l-.536-.644.429-.215.322.644v.107h0Zm.536-1.931-.322-.858.429-.107.107.965Zm0-4.183a2.162,2.162,0,0,1-.322-1.18l.322-.107c.107.429.107.858.214,1.287ZM548.779,752a1.764,1.764,0,0,1-.215-1.073h.429V752Zm-.536,6.114a1.906,1.906,0,0,1-.429-1.073l.322-.107a3.858,3.858,0,0,1,.215,1.18Zm-.536-3.433-.322-.644-.107-.536.322-.107a2.515,2.515,0,0,1,.215,1.287Zm-.858-4.291-.107-.429.107-.644.429.107-.107.429-.107.429Zm-1.609,3.111a2.1,2.1,0,0,1-.107-1.609l.322.107a3.064,3.064,0,0,0,0,1.394Zm-1.609,2.574a2.444,2.444,0,0,1-.322-1.18h.107a1.906,1.906,0,0,1,.429,1.073Zm-1.931-3.54-.322-.536v-.214h.214l.537.536Zm-2.574.858H538.8l.322-.858.107.107Zm1.823,1.287-.107-.965h.107l.322.858Zm.107,4.184c0-.322-.107-.644-.107-.965l.215-.107.322.965C541.378,758.762,541.271,758.869,541.056,758.869Zm5.364,4.827-.214-.858.429-.107v.965Zm-2.9,1.394c0-.322-.107-.644-.107-1.073h.429c0,.429-.107.751-.107,1.073Zm-4.505-.965-.214-.322.107-.751.536.214-.214.429-.107.322Zm-1.716-3.862h-.322v-.858h.215Zm.858-3.432h-.322a4.557,4.557,0,0,1,.215-1.18l.107.107Zm-2.146.643h-.429a3.859,3.859,0,0,1,.214-1.18h.214Zm-.643,4.827a.231.231,0,0,1-.215-.214,3.305,3.305,0,0,1,.107-1.073h.214v.536l.215.429A.285.285,0,0,1,535.371,762.3Zm-1.609-4.505-.322-.429-.322-.322.429-.322.429.966Zm-2.9-.858-.751-.536.322-.322.322.429.215.322Zm2.253,3.218-.536-.751.322-.214.429.858Zm.858,3.325-.322-.644.322-.214h0Zm-3.433,0a2.444,2.444,0,0,1-.965-.858l.322-.215.751.965Zm-.322-3.647-.644-.858.322-.214.429.965Zm-2.9,1.931c-.322-.214-.751-.429-.858-.858l.322-.107.644.858Zm.429,2.9-.536-.429-.429-.322.215-.322a3.7,3.7,0,0,1,.858.965Zm-2.682.322A3.153,3.153,0,0,1,524,763.7l.429-.107a2.778,2.778,0,0,0,.751,1.18Zm-.322-3.647-.322-.107-.322-.751.429-.107.107.536.107.322Z" transform="translate(-504.719 -680.026)"/><path class="h" d="M512.089,696.478a8.165,8.165,0,0,0-2.038-1.287,3.669,3.669,0,0,0-2.682.858,6.5,6.5,0,0,0-1.073.751,6.947,6.947,0,0,0-.965.858,4.157,4.157,0,0,1,.107-2.789l-.858.215-.215.107v.215a6.172,6.172,0,0,0,.536,2.789,24.744,24.744,0,0,0-1.5,2.038,3.532,3.532,0,0,0-.751,1.395,2.813,2.813,0,0,0,.214,1.609c.322.644.751,1.073.966,1.609.322-.429,0-.965.107-1.609l.215-.965c.215-.536.429-.965.644-1.5l.215-.322.215.107c.751.751,1.5,1.5,2.145,2.252l.107-.429a6.349,6.349,0,0,0-.536-2.038l-.215-.751.644-.536.858.214a7.5,7.5,0,0,1,1.824,1.394l.215.107.107-.322-.107-.215a22.423,22.423,0,0,1-1.5-1.824l-.214-.322.322-.644a2.73,2.73,0,0,1,2.253-.429,18.657,18.657,0,0,1,2.36.536A3.484,3.484,0,0,0,512.089,696.478Zm43.551,9.011a6.438,6.438,0,0,0,.215-2.467,3.4,3.4,0,0,0-1.824-2.038c-.322-.214-.751-.429-1.073-.644-.429-.214-.858-.322-1.287-.536a3.654,3.654,0,0,1,2.575-.966l-.644-.751-.107-.107-.214.107a5.475,5.475,0,0,0-2.253,1.609,15.481,15.481,0,0,0-2.574-.536,3.066,3.066,0,0,0-1.395,0,2.1,2.1,0,0,0-1.394.858c-.429.429-.644,1.073-1.073,1.609.536,0,.965-.429,1.5-.644l.965-.214c.536,0,1.073-.107,1.609-.107h.322v.322c-.322.965-.643,1.931-1.073,2.9l.429-.107a5.048,5.048,0,0,0,1.609-1.395l.644-.429.644.322.214.858a8.353,8.353,0,0,1-.429,2.253v.215h.322l.107-.322a12.239,12.239,0,0,1,1.073-2.038l.215-.322h.643a2.551,2.551,0,0,1,1.287,1.824,18.726,18.726,0,0,1,.536,2.36A3.98,3.98,0,0,0,555.641,705.488Zm-18.236-15.232A8.708,8.708,0,0,0,536.332,688a3.787,3.787,0,0,0-2.682-.751,5.226,5.226,0,0,0-1.287.107,5.378,5.378,0,0,0-1.287.215,4.214,4.214,0,0,1,1.609-2.253l-.858-.322h-.214l-.107.215a5.506,5.506,0,0,0-1.073,2.574,20.849,20.849,0,0,0-2.36.858,3.712,3.712,0,0,0-1.287.751,2.86,2.86,0,0,0-.751,1.5c-.107.644.107,1.287,0,1.931.429-.322.536-.858.858-1.395l.751-.644,1.287-.965.322-.107.215.214a31.5,31.5,0,0,1,.536,3.111l.322-.429a5.864,5.864,0,0,0,.644-1.931l.322-.751.751-.107.536.644a7.493,7.493,0,0,1,.858,2.145l.107.107.322-.107v-.322a8.358,8.358,0,0,1-.322-2.36l.107-.322.429-.322a2.615,2.615,0,0,1,2.145.858,12.969,12.969,0,0,1,1.717,1.716A4.085,4.085,0,0,0,537.405,690.256Zm-7.938,13.73a5.069,5.069,0,0,0-1.073-2.145,3.107,3.107,0,0,0-2.575-.751h-1.287c-.536.107-.965.215-1.395.322a3.551,3.551,0,0,1,1.609-2.253l-.858-.322h-.215l-.107.107a8.406,8.406,0,0,0-.965,2.575c-.858.322-1.716.644-2.467.965a5.07,5.07,0,0,0-1.287.751,2.249,2.249,0,0,0-.751,1.5,10.35,10.35,0,0,1,0,1.823c.429-.214.536-.858.858-1.287l.751-.644a12.158,12.158,0,0,0,1.394-1.073h.215l.214.214a29.416,29.416,0,0,1,.536,3l.429-.322a6.475,6.475,0,0,0,.643-2.038l.214-.644.751-.107.643.536a5.143,5.143,0,0,1,.751,2.145l.107.214.322-.107v-.322a20.574,20.574,0,0,1-.322-2.36l.107-.322.536-.429a3.407,3.407,0,0,1,2.146.858c.536.536,1.073,1.073,1.609,1.716C530.111,705.059,529.682,704.523,529.467,703.987Z" transform="translate(-485.621 -622.891)"/></g></svg>