<svg xmlns="http://www.w3.org/2000/svg" width="153.555" height="422.423" viewBox="0 0 153.555 422.423"><defs><style>.a{fill:#d4c19c;}.b{fill:#c4ad6f;}.c{fill:#736357;}.d{fill:#d9c283;}.e{fill:#eaddd0;}.f{fill:#a1a1a1;}.g{fill:#f7f7f7;}.h{fill:#c7b5bb;}.i{fill:#deeaee;}.j{fill:#f2f2f2;}.k{fill:#6c99b9;}.l{fill:#fff;}.m{fill:#333;}</style></defs><ellipse class="a" cx="76.5" cy="5.5" rx="76.5" ry="5.5" transform="translate(0.294 411.423)"/><path class="b" d="M2618.052,647.364c4.066-.7,8.946-1.046,11.851,1.975a11.318,11.318,0,0,1,2.672,6.275c1.045,8.017-1.975,17.08-9.063,20.682-3.719,1.859-8.25,2.092-12.432,1.51-4.184-.7-8.135-1.975-12.2-3.021-8.947-2.324-18.475-3.253-26.609-7.088h-3.136a14.673,14.673,0,0,1-5.926-.813,4.9,4.9,0,0,1-3.254-4.532c0-3.021,3.37-4.764,6.274-5.693,10.226-3.6,20.8-6.855,31.6-7.785,3.021-.349,6.739-1.162,8.831.7C2612.357,648.294,2616.773,647.48,2618.052,647.364Z" transform="translate(-2554.631 -571.755)"/><path class="c" d="M2842.452,1709.818c.929-10.922,2.324-34.974,5.576-44.152,1.511-4.3,6.855-3.951,12.433-3.6,4.067.232,8.249.464,11.154-1.046,8.6-4.531,10.574-3.253,16.383-4.066,10.574-1.394,10.806-.7,16.616-.581,2.789.116,7.32-.581,12.2-1.278,9.876-1.394,21.5-2.788,24.283,2.208,4.067,7.436,8.366,13.013,9.645,21.379,7.785,50.891-4.764,116.075-13.71,166.734-.7,4.532-1.743,9.3-4.648,12.781-3.021,3.6-8.482,5.461-12.316,3.021,1.743-45.663.233-59.025-13.129-102.713-1.627-5.229-2.789-14.292-5-15.1-1.743-.7-5.344-.116-7.437.93-4.88,44.617-8.714,63.789-13.594,108.406-.348,3.486-1.045,7.32-4.066,8.947-10.806,5.693-11.5-6.158-12.665-13.246-1.745-10.108-3.37-20.333-4.648-30.558-2.672-20.218-11.154-37.181-14.059-57.4C2842.916,1742.236,2841.405,1720.973,2842.452,1709.818Z" transform="translate(-2804.013 -1461.665)"/><path class="d" d="M2844.447,621.511c4.647-.7,9.644-2.9,14.06-1.046,4.647,1.975,13.71.581,15.1,5.577,6.624,23.471,12.666,56.7,18.01,80.521,2.208,10.341,14.757,46.825,13.711,57.282a23.586,23.586,0,0,1-2.324,8.6c-2.324,4.532-6.971,7.2-11.5,8.947-13.014,5-44.734,4.067-58.561,2.788-7.2-.813-35.089.116-41.712-3.021-2.092-.929-4.3-2.208-5.229-4.531a11.5,11.5,0,0,1-.464-4.88c.582-11.271-1.395-41.945,4.763-60.652,4.648-13.943,13.13-29.629,16.035-44.037,1.395-7.2.582-16.151,2.673-23.122,1.975-6.623,3.834-14.872,7.437-20.682,1.975-3.137,13.362-3.834,16.5-2.9C2836.779,621.511,2840.5,622.208,2844.447,621.511Z" transform="translate(-2753.956 -547.76)"/><path class="e" d="M3140.471,167.6a21.223,21.223,0,0,1-3.719-11.154c-.465-8.366-.116-17.08,3.37-24.749,3.951-8.831,14.059-17.545,24.517-15.337,12.2,2.672,11.387,18.474,10.573,28.932-.7,8.366-3.718,16.848-9.876,22.425C3156.156,176.2,3145.816,175.155,3140.471,167.6Z" transform="translate(-3064.27 -102.567)"/><path class="f" d="M3115.075,26.032a4.826,4.826,0,0,0-2.9-1.743l.348-1.046a1.389,1.389,0,0,0-.581-1.046c1.858-.232,3.369-3.021,2.556-5a5.466,5.466,0,0,0-6.042-3.137c2.324.232,3.951-3.021,3.021-5.345a5.636,5.636,0,0,0-5.46-3.37c.465-.232.581-1.278.349-1.859-1.51-3.021-5.345-3.6-8.481-3.021s-6.275,1.975-9.412,1.627c-1.743-.116-3.371-.813-5.113-.93a4.5,4.5,0,0,0-4.415,2.091c-2.789-.349-5.81-.581-8.366.581-2.439,1.162-4.3,3.951-3.834,6.623a1.929,1.929,0,0,0-2.324.116,13.258,13.258,0,0,0-2.557,5.112c-.349,1.394-.7,2.9-.929,4.3-.233,1.278-.581,2.556-.813,3.834-.7,3.37-.7,7.9,2.323,9.063a9.016,9.016,0,0,0,1.395,11.5,5.979,5.979,0,0,0,1.394,6.971,5.486,5.486,0,0,0,3.486,1.162,2,2,0,0,0,2.556-2.672c-2.091-4.415.349-7.552-.581-11.387,1.858-1.975,1.976-4.183,3.6-6.158,1.743-2.091,2.672-3.486,2.324-5.926,2.091-.813,4.415-2.556,4.415-4.183h0a9.441,9.441,0,0,0,9.876,0c1.51,1.278,3.138,2.672,5,3.137,1.976.465,4.3-.349,5-2.324a12.434,12.434,0,0,0,1.626,1.859c.116,1.046.464,1.859.7,3.021a11.2,11.2,0,0,1-.118,3.951c0,2.672,1.162,4.415,1.511,7.088a34.718,34.718,0,0,1,.93,6.855c-.232,1.975-1.627,2.789,0,4.415a1.859,1.859,0,0,0,2.673,0c1.976-1.627,2.556-4.648,3.6-6.855.93-2.091.813-2.9,1.046-5.112a5.593,5.593,0,0,1-.465-1.278,8.142,8.142,0,0,0,1.858-1.627,7.055,7.055,0,0,0,1.046-1.859,4.131,4.131,0,0,0-.232-3.137C3116.121,29.169,3116.469,27.775,3115.075,26.032Z" transform="translate(-2996.348 -0.269)"/><path class="g" d="M3330.659,1086.875c.116-2.091-.465-4.3-2.44-4.88a16.291,16.291,0,0,0-2.556-1.976c-4.764-2.788-5.694-2.556-6.159-8.25a27.413,27.413,0,0,1,.349-6.158c.348-5.112.581-10.225.7-15.453,0-8.6-.116-17.661-1.394-26.259-.929-5.577-2.905-10.574-8.482-12.432a1.155,1.155,0,0,0-.93,2.091h.116a4.176,4.176,0,0,0-.116,3.718c.581,1.627,1.046,1.278,1.858,2.672a19.869,19.869,0,0,1,3.138,6.274c1.859,7.784-.116,17.428-.581,25.329a228.134,228.134,0,0,0,.116,23.587v4.764c-.232,4.183-.349,9.411,1.627,11.852,2.556,3.37,9.179,2.324,12.665,2.091a1.763,1.763,0,0,0,1.511-1.859l.232-.581A16.085,16.085,0,0,0,3330.659,1086.875Z" transform="translate(-3216.813 -893.912)"/><path class="h" d="M3325.383,1444.925c-2.789,0-5.578,0-8.481-.232a3.025,3.025,0,0,1-1.743-.465,3.535,3.535,0,0,1-.93-1.859c-.813-4.647-1.279-9.295-1.626-13.943-.349-3.6-.582-7.2-.93-10.806-.117-1.976-1.859-8.25-.7-9.876.581-.813,2.323-1.162,4.183-1.394-.117,5.926.116,11.735.349,17.545v4.764c-.232,4.183-.349,9.412,1.627,11.852,1.51,1.975,4.415,2.44,7.2,2.44,1.975,0,3.951-.232,5.461-.349a1.762,1.762,0,0,0,1.51-1.859l.232-.581a16.1,16.1,0,0,0,.348-4.531c.116-2.092-.465-4.3-2.44-4.88a16.308,16.308,0,0,0-2.556-1.975c-4.765-2.789-5.694-2.556-6.158-8.25a27.412,27.412,0,0,1,.348-6.158c.116-2.673.349-5.461.465-8.25,1.627,0,3.137-.116,4.764-.116,1.859,0,3.718.116,5.577.232a4.211,4.211,0,0,1,2.672.7c1.511,1.046,1.395,3.137,1.278,5-1.162,10.108-2.207,20.333-3.254,30.558a3.024,3.024,0,0,1-.812,1.975,2.669,2.669,0,0,1-1.627.465Z" transform="translate(-3218.043 -1242.666)"/><path class="i" d="M3358.945,1443.833c-2.79,0-5.693-.465-7.2-2.44-1.976-2.44-1.859-7.669-1.627-11.851v-4.764c-.232-5.81-.465-11.62-.349-17.545,2.324-.116,4.764-.116,5.81-.116a1.047,1.047,0,0,1,.58-.116c-.115,2.789-.348,5.577-.464,8.25a27.41,27.41,0,0,0-.348,6.158c.464,5.693,1.395,5.461,6.158,8.25a16.294,16.294,0,0,1,2.557,1.975c1.975.581,2.556,2.789,2.439,4.88a16.063,16.063,0,0,1-.348,4.531l-.232.581a1.762,1.762,0,0,1-1.51,1.859C3362.9,1443.6,3360.92,1443.833,3358.945,1443.833Z" transform="translate(-3252.651 -1243.55)"/><path class="j" d="M2576.324,722.346a18.1,18.1,0,0,1-6.623-5.926,55.283,55.283,0,0,1-4.648-8.017c-.7-1.394-1.278-2.9-1.859-4.415-.465-1.511-1.046-2.091.232-2.9,1.975-1.162,6.507-.7,8.714-.581a31.249,31.249,0,0,1,8.6,1.627,10.921,10.921,0,0,1,3.834,1.975,11.05,11.05,0,0,1,1.743,2.324,31.844,31.844,0,0,1,3.486,8.482,7.686,7.686,0,0,1,.349,2.789,5.689,5.689,0,0,1-2.557,3.6A11.2,11.2,0,0,1,2576.324,722.346Zm32.417,20.45a3.9,3.9,0,0,0,1.858-1.162c.581-1.046.116-2.44-.348-3.718-1.162-3.253-2.44-6.507-3.6-9.76-1.743.93-4.066,1.627-5.577.232a7,7,0,0,1-1.278-3.021c-1.859-6.507-4.067-13.014-7.786-18.475-3.718-5.577-9.063-10.109-15.1-11.387-5.577-1.278-11.039.349-16.383,1.975-11.155,3.486-22.425,6.972-33.579,10.457-3.021.93-8.714,1.278-11.155,3.6-3.138,2.9-.93,9.063.349,12.665,3.486,9.876,6.972,19.636,10.458,29.513a19.9,19.9,0,0,0,2.556,5.229,10.073,10.073,0,0,0,8.134,3.6c2.9,0,5.693-.93,8.482-1.743C2566.564,754.183,2588.292,750.465,2608.742,742.8Z" transform="translate(-2514.183 -614.319)"/><path class="k" d="M2686.351,747.072a32.679,32.679,0,0,0,4.066,5.577,14.6,14.6,0,0,1,3.369,6.158c.349,1.51.349,3.253.582,4.88a12.522,12.522,0,0,0,2.672,5.926c1.394,1.627,3.253,3.253,3.253,5.345,0,2.208-1.976,3.95-2.091,6.042-.116,2.208,1.626,3.95,2.9,5.693l.349.813c-.116.465-.465.581-.814.813-4.3,1.743-9.062,2.44-13.594,3.834-4.3,1.394-8.482,3.6-13.013,3.6a2.955,2.955,0,0,1-1.743-.349,4.162,4.162,0,0,1-.813-1.162,8.2,8.2,0,0,1-.93-4.415c.116-3.137,2.092-6.158,1.511-9.3-.465-2.672-2.673-4.648-4.764-6.623-1.975-1.859-3.95-4.183-3.718-6.972a31.013,31.013,0,0,1,1.162-4.415,7.78,7.78,0,0,0-1.277-5.926,18.4,18.4,0,0,0-3.253-3.486,6.77,6.77,0,0,1-2.208-4.067l.116-.581.464-.349c4.881-2.091,9.877-4.3,14.874-6.158,2.44-.93,5-1.743,7.436-2.557,1.511-.465,4.647-1.975,4.764.581,0,1.162-.464,2.208-.348,3.37A10.462,10.462,0,0,0,2686.351,747.072Zm47.407,34.974c-2.093-5.113-3.254-10.574-4.765-16.035l-1.045.233c.929,5.577,2.789,10.806,4.531,16.034C2732.944,783.44,2734.222,783.091,2733.758,782.046Z" transform="translate(-2641.289 -652.756)"/><path class="l" d="M2764.761,882.074c.7-.929,1.394-1.743,2.091-2.672.582-.813,1.627-2.672,2.44-2.9s1.743.465,2.556.7c1.278.465,2.556.93,3.834,1.278l.116-.581a41.194,41.194,0,0,0-5.112-2.44c3.02-1.162,5.925-2.556,8.831-3.834l-.117-.465c-5.925,2.092-11.851,3.718-17.661,6.042-.7.233-.231,1.511.465,1.278,1.743-.465,3.369-1.046,5.113-1.627-1.162,1.394-2.324,2.788-3.485,4.3C2763.25,881.842,2764.3,882.772,2764.761,882.074Zm7.087-23.122c.349-2.091-.93-2.672-2.789-2.556,1.627-1.278,2.441-2.789,1.046-4.531-1.278-1.627-3.371-1.278-5-.813a58.686,58.686,0,0,0-10.109,4.3l.232.581c3.37-1.394,6.971-3.137,10.574-3.95a4.769,4.769,0,0,1,1.277-.116c1.395-.233,2.092.7,1.975,2.788a6.9,6.9,0,0,1-2.091,1.511,17.871,17.871,0,0,1-2.208.929c-1.86.581-3.486,1.278-3.951,1.394-.7.232-.348,1.51.348,1.278.581-.232,1.859-.581,3.253-1.162.813-.232,1.511-.465,2.208-.7.813-.116,2.324-.814,3.137-.233,2.092,1.394-.929,3.021-1.626,3.253-3.369,1.627-7.32,1.627-10.922,2.788-.7.232-.348,1.511.465,1.278,3.138-.93,6.507-1.278,9.761-2.324C2769.059,862.089,2771.5,861.044,2771.848,858.952Zm-2.556,6.623h0c-3.254.581-6.392,1.975-9.527,2.9-.7.232-.349,1.51.349,1.278,3.137-1.046,6.506-1.975,9.411-3.718Zm3.253.116c.582-.349.813-1.627.117-1.975l-.813-.232a1.254,1.254,0,0,0-1.045,1.743A1.153,1.153,0,0,0,2772.545,865.692Zm-7.9,6.623c1.278-.465,2.672-.929,4.066-1.394,2.672-.813,5.344-1.743,7.9-2.556l-.116-.465a99.891,99.891,0,0,0-9.761,2.44c-1.974.581-5.693.813-6.855,2.789-.464.7.465,1.627.93.929C2761.624,873.012,2763.482,872.779,2764.644,872.314Z" transform="translate(-2727.02 -751.855)"/><path class="e" d="M3382.865,1486.005a3.123,3.123,0,0,0-1.976,1.278l-.116,1.045c-.232.7-1.511,1.046-2.44,1.395-2.9,1.046-5.229,3.137-5.46,5.577-.232,2.324,1.975,4.88,5.112,5.345a13.685,13.685,0,0,0,4.88-.349c3.485-.581,6.855-1.162,10.108-1.859a16.421,16.421,0,0,0,2.557-.813c2.323-1.046,2.9-3.486,3.02-5.577a19.685,19.685,0,0,0,0-5.229c-.232-1.627-1.277-1.743-3.137-1.511C3391.231,1485.656,3386.816,1484.843,3382.865,1486.005Z" transform="translate(-3273.085 -1312.679)"/><path class="e" d="M2926.944,652.492a10.2,10.2,0,0,1,7.668,2.44,31.167,31.167,0,0,1,5.461,6.274,11.859,11.859,0,0,1,2.557,5.461,6.1,6.1,0,0,1-4.648,6.623c-2.789.7-5.577-.7-7.785-2.44-2.091-1.859-3.834-4.183-5.926-6.042a37.352,37.352,0,0,1-3.253-2.789C2916.371,657.023,2922.18,653.189,2926.944,652.492Z" transform="translate(-2872.239 -576.65)"/><path class="m" d="M2915.688,3477a63.655,63.655,0,0,0-13.362,1.394,53.509,53.509,0,0,1-10.806,6.972,9.616,9.616,0,0,0-3.138,1.975,2.818,2.818,0,0,0-.231,3.486,3.684,3.684,0,0,0,3.138.7,125.936,125.936,0,0,0,24.632-3.6,2.976,2.976,0,0,0,1.4-.581,3.47,3.47,0,0,0,.464-1.161A11.869,11.869,0,0,0,2915.688,3477Zm44.268.465a57.956,57.956,0,0,1,13.479.582,52.878,52.878,0,0,0,11.155,6.274,8.216,8.216,0,0,1,3.253,1.859,2.853,2.853,0,0,1,.464,3.369,3.945,3.945,0,0,1-3.021.93,126.888,126.888,0,0,1-24.865-2.091,2.558,2.558,0,0,1-1.394-.582,1.561,1.561,0,0,1-.581-1.046A11.948,11.948,0,0,1,2959.956,3477.465Z" transform="translate(-2844.251 -3073.034)"/><path class="b" d="M3479.775,666.557c6.855,4.067,7.668,11.271,8.714,17.661,2.208,12.2,7.32,24.168,10.342,36.368,2.672,10.573,3.718,21.379,4.765,32.069a14.365,14.365,0,0,1-.117,5.461,10.293,10.293,0,0,1-2.673,4.415c-4.067,4.415-11.968,7.2-18.823,5a8.119,8.119,0,0,1-2.44-1.278c-1.162-1.162-1.162-2.672-1.162-4.067.117-2.208.349-4.531,2.324-6.158,1.394-1.046,3.718-1.627,4.648-3.021,1.161-1.511.116-3.6-.814-5.345-12.316-22.193-17.544-45.9-22.773-69.366-.93-4.648-4.066-10.109,2.208-12.781C3468.737,663.653,3475.244,663.769,3479.775,666.557Z" transform="translate(-3350.242 -587.114)"/></svg>