<svg xmlns="http://www.w3.org/2000/svg" xmlns:xlink="http://www.w3.org/1999/xlink" width="320.411" height="415.144" viewBox="0 0 320.411 415.144"><defs><style>.a{fill:#d4c19c;}.b{fill-rule:evenodd;fill:url(#a);}.c{fill:#f4f4f4;}.d{fill:#67302d;}.e{fill:#f0e5d4;}.f{fill:#b4977d;}.g{fill:#e8dbce;}.h{fill:#333;}.i{fill:#e6ac77;}.j{fill:#666;}.k{fill:#65a585;}.l{fill:#89cbaa;}.m{fill:#f0f0f0;}.n{fill:#3d3d3d;}.o{fill:#fff;}.p{fill:#5e625e;}.q{fill:#ebefeb;}.r{fill:#d9924e;}.s{fill:#828282;}.t{fill:#d18e53;}.u{fill:#edeae8;}.v{fill:#ebebeb;}</style><linearGradient id="a" x1="0.093" y1="1.727" x2="0.907" y2="-0.715" gradientUnits="objectBoundingBox"><stop offset="0" stop-color="#ccc"/><stop offset="1" stop-color="#ccc"/></linearGradient></defs><ellipse class="a" cx="53" cy="5" rx="53" ry="5" transform="translate(7 405.144)"/><ellipse class="a" cx="58" cy="5" rx="58" ry="5" transform="translate(192 402.144)"/><path class="b" d="M13346.857,8265.427c-2.139,0-4.051-.112-4.727-.9-3.264-3.377,16.43-4.165,19.131-4.39,18.344-1.351,36.912-2.026,55.256-2.139h0c-18.344.112-36.8.788-55.256,2.139-2.7.225-22.395,1.013-19.131,4.39.676.786,2.588.9,4.727.9Zm7.764-.337h0Zm20.707,0c11.93-.111,23.859-.111,35.787-.226C13399.188,8264.979,13387.258,8264.979,13375.328,8265.09Z" transform="translate(-13312.869 -7850.73)"/><path class="c" d="M13786.672,5470.378c-15.869,9.452-34.549-15.08-43.439-25.434-8.664-9.9-18.117-19.693-31.285-23.294-1.014-.338-1.463,1.351-.449,1.688,18.006,5.4,28.133,21.494,40.625,34.436,7.764,7.99,23.295,21.72,35,13.392A.455.455,0,1,0,13786.672,5470.378Z" transform="translate(-13640.484 -5333.529)"/><path class="d" d="M14958.6,8164.186a3.281,3.281,0,0,1,.113,1.8,3.066,3.066,0,0,1-1.014,1.351c-2.139,1.8-5.287,1.913-8.1,2.025-3.826.113-7.652.226-11.479.226a3.4,3.4,0,0,1-2.59-.45c-1.236-1.014-.674-3.039.564-4.052a7.266,7.266,0,0,1,4.389-1.013c2.477-.225,4.951-.45,7.428-.9a7.315,7.315,0,0,0,3.039-.9,2.877,2.877,0,0,0,1.463-2.588c0,.226,4.613-.338,5.063-.112C14958.376,8160.135,14958.489,8163.173,14958.6,8164.186Z" transform="translate(-14726.664 -7763.332)"/><path class="d" d="M15619.278,8101.9c-.449,3.039-1.91,5.853-2.586,8.891-.225.9-.338,2.139.449,2.813a2.282,2.282,0,0,0,1.688.45,19.784,19.784,0,0,0,2.588.113l.789-.226.449-.788c1.014-3.6,2.027-7.2,3.152-10.8a5.771,5.771,0,0,0,.338-2.363,7.357,7.357,0,0,0-.676-2.588q-1.014-2.363-2.025-4.727l-.451-.675-.787.112c-1.463.675-4.729,1.351-4.164,3.488.227,1.013,1.012,1.913,1.125,3.039A10.7,10.7,0,0,1,15619.278,8101.9Z" transform="translate(-15331.639 -7703.411)"/><path class="e" d="M13329.578,6606.582a15.852,15.852,0,0,1-10.578-2.926c4.727-13.729,6.189-17.781,10.916-31.51a91.424,91.424,0,0,0,3.938-13.392c1.014-5.627.9-11.479.9-17.331-.225-22.507.451-97.117.227-119.736a14.9,14.9,0,0,1,.674-5.515c1.8-4.951,14.855-4.051,19.582-3.826,1.125,0,8.777,1.013,9.678,1.8.9.9,8.664.338,8.664,1.688,1.014,17.78-10.24,53.454-11.814,72.135-.449,6.3-5.627,45.8-6.527,51.991a106.937,106.937,0,0,1-10.129,31.4C13337.793,6585.987,13336.668,6589.364,13329.578,6606.582Z" transform="translate(-13292.664 -6212.591)"/><path class="f" d="M13707.416,5675.36c4.389,2.025,7.428,5.964,10.24,9.79,7.092,9.115,14.068,18.344,21.045,27.572,2.025,2.588,4.164,5.288,7.316,6.526,3.6,1.463,7.764.45,11.7-.563,7.539-2.138,6.078-2.7,13.73-4.726.563-.113,1.238-.338,1.688,0l.563,1.013c.789,2.251,2.365,7.428,1.014,9.34-1.014,1.351-2.814,1.8-4.5,2.251-13.055,3.151-16.992,4.727-30.385,5.74-1.912.112-3.15-1.014-6.752-2.927a21.811,21.811,0,0,1-4.051-3.15,175.746,175.746,0,0,1-20.145-23.745,141.991,141.991,0,0,1-8.439-12.942c-1.914-3.15-5.176-7.877-4.389-11.928C13697.176,5672.772,13704.154,5673.672,13707.416,5675.36Z" transform="translate(-13627.178 -5557.53)"/><path class="g" d="M13380.738,5172.947c-.338-6.19-3.037-12.041-5.738-17.555-2.252-4.5-4.615-9.115-8.666-12.154a5.551,5.551,0,0,0-2.588-1.237,8.8,8.8,0,0,0-2.477.45c-7.652,2.588-15.416,5.064-22.055,9.454a2.625,2.625,0,0,0-1.238,1.237,2.492,2.492,0,0,0,0,1.576c3.037,15.53,9.789,35.9,25.318,39.725,7.541-3.6,6.189-.788,13.955-3.826C13375.111,5186.563,13381.076,5177.448,13380.738,5172.947Z" transform="translate(-13309.39 -5085.389)"/><path class="h" d="M13783.545,8198.313a7.829,7.829,0,0,0-2.814-1.689A40.734,40.734,0,0,1,13770.6,8191a48.012,48.012,0,0,0-12.041-.45,10.317,10.317,0,0,0-1.35,8.329l.449.9a2.491,2.491,0,0,0,1.238.563,123.534,123.534,0,0,0,22.395,1.914c.9-.113,2.025-.113,2.7-.9A2.42,2.42,0,0,0,13783.545,8198.313Z" transform="translate(-13681.249 -7790.704)"/><path class="h" d="M13294.2,8123.092a8.961,8.961,0,0,0-2.025-2.588,43.966,43.966,0,0,1-7.2-8.665,46.58,46.58,0,0,0-10.8-4.839,10.159,10.159,0,0,0-4.164,7.089l.113,1.126c.111.337.563.563.9.787a109.787,109.787,0,0,0,19.58,9.791,3.56,3.56,0,0,0,2.814.225A2.418,2.418,0,0,0,13294.2,8123.092Z" transform="translate(-13249.18 -7716.724)"/><path class="e" d="M13739.51,6430.14c.113-1.913,0-3.713,0-5.514h0c-.338-8.553-1.463-16.993-2.475-25.434-.676-5.289-1.463-10.69-4.053-15.192a46.036,46.036,0,0,1-20.705,7.99l-.227.45a18.511,18.511,0,0,0-.787,3.376c1.352,14.854-1.576,31.734-1.576,44.564a237.634,237.634,0,0,1-1.687,23.857h.563c2.926,11.591,3.264,23.97,3.6,36.235.9,28.922,1.688,57.956,2.477,86.878,0,3.038,10.578.337,11.254.225,0-.675.111-1.238.111-1.8,1.014-14.967,1.014-30.271,2.363-45.127,1.238-13.954,1.688-29.033,4.5-42.65a81.931,81.931,0,0,0,1.35-15.755,155.588,155.588,0,0,1,1.8-20.594C13737.484,6451.185,13739.4,6440.719,13739.51,6430.14Z" transform="translate(-13637.889 -6187.621)"/><path class="i" d="M13354.1,5838.159c0-9.115-1.125-18.344-1.8-27.459-.562-9.115,1.576-32.185-.111-41.187-3.939-21.607-8.666-19.919-6.3-30.385,6.641-29.6-13.053-69.659-31.846-89.128-5.516,1.688-11.254,1.913-16.994,1.913a3,3,0,0,0-.338,1.351c-5.287,27.571-7.426,78.549-8.1,88.79-1.35,20.256-8.439,32.748-11.029,51.653-.9,5.965-2.137,12.154-3.037,18.344-2.025,6.527-4.727,13.616-5.4,20.706a8.93,8.93,0,0,0-1.125,3.038c-2.25,3.6-1.912,9.453,2.025,11.592a4.02,4.02,0,0,0,2.477.563l.451.226c13.727,5.964,28.7,9.9,43.211,9.115a5.73,5.73,0,0,0,2.477-.563c4.277.338,8.439.563,12.83.676,5.287.112,12.492,1.688,17.33-1.688,2.926-2.025,3.826-6.3,3.377-10.24A14.36,14.36,0,0,0,13354.1,5838.159Z" transform="translate(-13246.175 -5536.221)"/><path class="f" d="M13233.1,5712.622c-8.217,4.5-29.26,16.317-38.937,15.3a300.718,300.718,0,0,0,23.182-26.446c5.178-6.864,3.6-17.893,2.025-25.77-1.014-5.064-6.752-4.84-9.453-1.8a5.089,5.089,0,0,0-4.051,3.263c-9.229,21.044-26.672,39.162-30.836,62.345-.561,3.038.789,7.314,4.5,7.877,22.621,3.714,38.375-20.031,56.943-28.583C13244.015,5715.435,13236.024,5710.933,13233.1,5712.622Z" transform="translate(-13164.789 -5555.517)"/><path class="g" d="M13686.309,5885.052a5.681,5.681,0,0,0-3.039-4.163,1.767,1.767,0,0,0-2.475,1.35c-.113,2.7-.227,5.4-.451,8.1l-.674-.45c-1.463-.9-2.814,1.014-2.363,2.251.787,2.251,2.25,3.6,3.6,5.4a1.527,1.527,0,0,0,2.139.675,1.9,1.9,0,0,0,2.814-.225,1.71,1.71,0,0,0,.338-1.463C13687.434,5892.7,13688.336,5888.54,13686.309,5885.052Z" transform="translate(-13610.571 -5741.002)"/><path class="j" d="M13739.313,5024.206c-2.361.9-4.725,1.914-7.2,2.589-1.125.337-.562,1.688.449,1.575,2.477-.45,5.064-.787,7.539-1.462C13741.9,5026.457,13741,5023.531,13739.313,5024.206Z" transform="translate(-13658.737 -4980.762)"/><path class="j" d="M13612.439,4912.211a1.353,1.353,0,0,0-2.475.675,11,11,0,0,0,1.01,3.264,11.162,11.162,0,0,0,1.352,3.375c.451.45,1.352.563,1.463-.225a11.6,11.6,0,0,0-.449-3.375A13.849,13.849,0,0,0,13612.439,4912.211Z" transform="translate(-13550.882 -4880.92)"/><path class="j" d="M13696.289,4923.931a23.184,23.184,0,0,0-2.137,3.6,9.248,9.248,0,0,0-1.238,3.488c-.113.563.676.9,1.125.563a8.643,8.643,0,0,0,2.137-2.363,24.9,24.9,0,0,0,2.252-3.714C13698.99,4924.155,13697.3,4922.581,13696.289,4923.931Z" transform="translate(-13624.491 -4891.403)"/><path class="h" d="M14908.908,6773.058c0-1.125,6.863-.562,7.2.338,5.514.225,11.029.45,16.543.563,1.35.112,2.7.112,3.6,1.238,1.352,1.35,8.439,4.163,8.439,6.414-.787,43.889-8.664,103.757-9.34,147.646h-6.863c0-14.067-5.967-27.8-7.99-41.525C14915.66,6855.771,14908.57,6805.582,14908.908,6773.058Z" transform="translate(-14703.642 -6532.34)"/><path class="h" d="M15227.769,6724.766a2.941,2.941,0,0,1,2.365-1.238c3.939-.787,5.965.9,7.988,5.4.789,1.464,2.7,4.052,3.939,3.265,35.449-24.758,4.389,58.63,6.527,79.9a98.587,98.587,0,0,0,2.588,16.318,91.081,91.081,0,0,0,4.5,12.041q8.1,18.568,16.205,37.137a12.53,12.53,0,0,1-8.553,4.051c-2.814-6.864-6.752-8.439-24.42-29.935-5.852-7.2-12.043-23.97-14.4-34.1-1.463-5.627-2.7-47.939-3.152-53.792-1.012-16.88-1.35-21.831-2.363-38.712C15218.88,6723.752,15227.095,6725.778,15227.769,6724.766Z" transform="translate(-14978.84 -6488.774)"/><path class="g" d="M15802,4653.584c-.561-3.038-1.8-6.077-1.012-9l.9.225a10.033,10.033,0,0,1,.563,1.688,20.7,20.7,0,0,1,.563-4.614c.449-1.462,1.238-3.038,2.363-2.926,1.238.113,1.914,1.8,2.139,3.151,1.463,6.752.787,13.842.113,20.707a11.976,11.976,0,0,1-5.629-.675A21.885,21.885,0,0,0,15802,4653.584Z" transform="translate(-15495.118 -4638.949)"/><path class="g" d="M15395.688,4938.734c-8.553,5.4-19.807-26-9.115-32.41,9.678-5.852,25.883-6.527,34.66-15.53,4.164-4.276,6.754-10.466,7.2-17.893.9-14.854,1.574-29.6,1.912-44.451,2.363-.113,4.84-.225,7.316-.45,1.35,18.456,2.7,36.8,4.051,55.142.225,3.6.449,7.2-.338,10.691a25,25,0,0,1-3.939,8.778C15426.41,4919.491,15409.08,4930.182,15395.688,4938.734Z" transform="translate(-15123.688 -4806.726)"/><path class="g" d="M14601.808,4839.588l.787-.112a2.3,2.3,0,0,1,1.689-2.476,2.786,2.786,0,0,1,2.363,1.688,15,15,0,0,1,1.238,3.376q.507,2.194,1.012,4.39a2.121,2.121,0,0,0,.674-1.688c.338-.226.789,0,1.014.45a3,3,0,0,1,.338,1.351c.449,3.038.787,6.076,1.125,9.115-.9.45-1.687,1.126-2.588,1.463a2.616,2.616,0,0,1-2.7-.337c-1.127-.9-1.465-2.7-1.8-4.277a46.48,46.48,0,0,0-1.689-5.626C14602.37,4844.652,14601.245,4842.063,14601.808,4839.588Z" transform="translate(-14430.978 -4814.712)"/><path class="g" d="M14645.3,4995c2.363,12.829,5.064,25.658,7.988,38.487,1.465,6.415,4.5,11.141,8.777,13.954,8.668,5.739,18.121,6.978,27.236,9.791,10.016,3.039,7.988,16.543-.113,18.569-13.055,3.151-27.572-2.026-39.387-14.18a21.091,21.091,0,0,1-4.615-6.751,35.352,35.352,0,0,1-1.8-9.228q-2.191-24.645-4.389-49.29C14641.027,4995.9,14643.164,4995.45,14645.3,4995Z" transform="translate(-14464.118 -4954.932)"/><path class="k" d="M14654.584,4916.419c3.939,4.276,7.99,8.44,12.154,12.379-5.291,42.088-11.367,62.119-12.379,104.77-.227,7.315,4.613,12.492,9.9,12.942a138.481,138.481,0,0,0,28.922-.9c4.84-.788,9.789-1.688,14.742-2.813a47.01,47.01,0,0,0,4.727-1.462h.449a124.867,124.867,0,0,0,23.184-3.939c6.75-1.687,6.076-12.716,1.463-16.43a19.79,19.79,0,0,0-1.352-7.09c.9-24.308,3.264-25.658.563-49.741-.111-2.813-.225-5.627-.449-8.44a186.355,186.355,0,0,0-3.715-23.97c2.139-2.813,4.391-5.4,6.414-8.215,2.363-3.264,5.064-5.4,7.654-8.216a10.581,10.581,0,0,0,1.35-2.025s18.682-22.732,23.406-31.623-4.275-68.646-4.275-68.646l-9.34.788-1.238,9.453s-2.139,29.372-4.727,43.551c-2.7,14.067-20.932,17.668-20.932,17.668a33.8,33.8,0,0,1-3.6.787,35.867,35.867,0,0,1-6.979.9c-.787,0-1.463.113-2.137.113-10.916,4.389-22.4,5.514-33.537,2.364a6.346,6.346,0,0,0-.9,1.462,5.01,5.01,0,0,0-2.588-.338,47.484,47.484,0,0,1-9.791.225c-1.8-.562-3.6-1.125-5.4-1.575-2.027-.676-4.953-.563-6.865-1.8,0,0-11.029-3.263-14.518-14.066-3.488-10.691-9.678-39.05-9.678-39.05l-9.115,1.688,4.953,53.116S14628.25,4893.913,14654.584,4916.419Z" transform="translate(-14452.581 -4793.413)"/><path class="l" d="M14880.045,5513.074a22.343,22.343,0,0,0-3.6,4.952,14.359,14.359,0,0,0-1.238,4.275c-1.574,7.765-2.586,15.643-3.486,23.521-1.8,14.179-3.49,28.359-5.178,42.538-1.352,10.354-2.59,20.931-.338,31.06a4.6,4.6,0,0,0,1.014,2.251,3.346,3.346,0,0,0,2.7.563c14.4-.788,28.7-1.463,43.1-2.251,9-.45,18.23-1.013,27.01-3.376,4.162-1.125,8.777-3.038,10.576-7.2a17.687,17.687,0,0,0,1.238-6.864l1.014-23.633c.449-11.929,1.012-23.857-.564-35.674-1.012-8.1-3.148-16.092-5.176-24.082a10.074,10.074,0,0,0-1.463-3.6,9.084,9.084,0,0,0-2.7-2.363,55.337,55.337,0,0,1-20.594-29.709,8.063,8.063,0,0,0-1.125-2.7c-1.8-2.588-5.627-1.687-8.439-.562a9.535,9.535,0,0,1-7.541,9.228c-4.387.788-7.988-2.139-9.9-6.189-2.139-4.839-4.838-3.488-5.963,1.575C14887.359,5495.069,14886.686,5504.521,14880.045,5513.074Z" transform="translate(-14664.65 -5384.554)"/><path class="m" d="M13552.114,5654.752a1.609,1.609,0,0,0-1.236.563,1.175,1.175,0,0,0-1.238-1.237h0a1.654,1.654,0,0,0-1.574-2.139h-.338a1.32,1.32,0,0,0-1.238-1.8h-.113a1.674,1.674,0,0,0-1.687-2.139,1.745,1.745,0,0,0,0,3.488h.338c0,.788.449,1.576,1.35,1.463l.113-.112h.113a1.679,1.679,0,0,0,1.463,2.476l.449-.112a1.128,1.128,0,0,0,1.125,1.351,1.107,1.107,0,0,0,.9-.338,1.569,1.569,0,0,0,1.574,2.026A1.745,1.745,0,1,0,13552.114,5654.752Z" transform="translate(-13491.457 -5534.446)"/><path class="m" d="M13646.086,5703a1.418,1.418,0,0,0-1.463,1.462l-.449-.112a2.109,2.109,0,0,0-1.689.9,1.614,1.614,0,0,0-1.463-.788c-2.363,0-2.363,3.714,0,3.714a1.613,1.613,0,0,0,1.463-.787,1.737,1.737,0,0,0,1.689.9,1.8,1.8,0,0,0,1.8-2.251h.111A1.519,1.519,0,0,0,13646.086,5703Z" transform="translate(-13576.874 -5583.258)"/><path class="m" d="M13692.012,5684.139a1.071,1.071,0,0,0,0-2.139A1.071,1.071,0,0,0,13692.012,5684.139Z" transform="translate(-13622.803 -5564.62)"/><path class="m" d="M13678.794,5629.15a1.621,1.621,0,0,0,.674,3.038,1.58,1.58,0,0,0,.227-3.15,1.639,1.639,0,0,0-.789-3.038A1.579,1.579,0,0,0,13678.794,5629.15Z" transform="translate(-13610.708 -5514.922)"/><path class="g" d="M14388.113,6012.112c.449-.112,1.012-.225,1.35.112l.451.45c.563.563,1.463.337,2.25.113a13.538,13.538,0,0,1,3.713-.676,3.081,3.081,0,0,1,1.463.226c1.014.45,1.352,1.574,1.689,2.588.338,1.237.676,2.813,0,3.938a5.1,5.1,0,0,1-2.814,1.8,87.138,87.138,0,0,1-12.041,2.25c-.562,0-1.125.112-1.463-.225l-.562-.787c-.787-1.576-2.25-4.727-.674-6.077A22.73,22.73,0,0,1,14388.113,6012.112Z" transform="translate(-14234.952 -5857.484)"/><path class="c" d="M14454.7,5496.891c-8.215,13.055-26.67,21.945-41.187,25.546-7.2,1.8-14.854,1.688-21.719,4.614a37.3,37.3,0,0,0-14.518,10.8c-.338.45.338,1.013.676.675,6.527-7.315,14.516-11.254,23.969-12.716,7.879-1.126,15.193-2.251,22.621-5.289,11.59-4.727,24.98-11.592,31.621-22.733A.859.859,0,0,0,14454.7,5496.891Z" transform="translate(-14231.765 -5399.993)"/><path class="g" d="M15045.094,5128.535c2.252,4.952,2.814,10.8,3.152,16.543.449,7.089.9,14.4-.789,21.157-1.238,5.064-.787,2.813-8.553,8.89-8.215.675-2.25,0-9.564.788-26.783-6.865-13.617-28.921-11.254-46.815a7.444,7.444,0,0,1,.449-1.687,2.355,2.355,0,0,1,1.465-.788c6.863-2.026,14.064-1.463,21.043-1.013a3.956,3.956,0,0,1,2.252.563A5.552,5.552,0,0,1,15045.094,5128.535Z" transform="translate(-14795.828 -5070.461)"/><path class="c" d="M14280.74,5901.621h-.562c1.012,9.565,2.137,19.807-.564,29.146-2.812,9.679-11.928,8.665-17.666,2.813-4.5-4.389-6.641-10.578-7.09-16.768-1.352-19.469,11.816-36.236,13.5-55.143,0-.562-1.012-.562-1.012,0-.338,8.1-4.277,16.993-7.092,24.533-2.361,6.415-4.951,12.828-6.3,19.581-2.025,10.354-1.014,22.282,7.314,29.709,4.84,4.389,13.842,7.877,17.781.788C14284.791,5926.267,14282.314,5912.313,14280.74,5901.621Z" transform="translate(-14121.613 -5723.698)"/><path class="c" d="M14482.85,6201.238l-.113-.45c-.111-.338-.111-.676-.225-1.126l-.113-.675c.113-.45-.225-.676-.674-.562l-.113-.226c-1.35-1.125-2.137.676-1.912,1.913h.113a4.8,4.8,0,0,0,0,1.8,3.549,3.549,0,0,0,.561,2.363,1.528,1.528,0,0,0,2.477-1.126v-1.912Z" transform="translate(-14322.711 -6022.414)"/><path class="n" d="M14433.438,5900.778a10.173,10.173,0,0,1,.113-5.515c.787-1.913,2.7-2.477,4.389-2.813a34.142,34.142,0,0,1,5.852-.45c.9.112,2.814.112,3.6.675,1.014.9.9,2.589,1.014,4.164.787,9.229,1.686,16.768,1.912,25.32,0,1.125,0,2.476-.674,3.264a3,3,0,0,1-1.576.787c-3.152.676-12.492,2.927-13.055-3.15C14434.338,5915.633,14434.451,5908.317,14433.438,5900.778Z" transform="translate(-14281.402 -5750.988)"/><path class="o" d="M14443,5922.355a4.06,4.06,0,0,1,.338-2.025,2.485,2.485,0,0,1,1.688-1.013,49.738,49.738,0,0,1,8.1-.9,3.7,3.7,0,0,1,1.914.113l.9.675c.674,1.013.336,2.25.563,3.488.225,1.126.111,2.25.225,3.264q.17,1.856.338,3.714c.111,1.8.225,3.488.449,5.288.111,1.351.227,2.589.451,3.827a4.881,4.881,0,0,1,0,1.8,1.962,1.962,0,0,1-1.463,1.238,23.707,23.707,0,0,1-3.939.563l-5.738.338c-.676,0-2.027.338-2.477-.675a6.622,6.622,0,0,1-.113-2.139,16.984,16.984,0,0,0-.225-2.363c-.225-3.263-.562-6.527-.789-9.79C14443.113,5925.957,14443,5924.156,14443,5922.355Z" transform="translate(-14290.175 -5774.367)"/><path class="p" d="M14492.924,5907h-.676c-.562,0-1.012.112-1.574.112l-.674.225.225.226c.449.225,2.924.225,3.037-.338Z" transform="translate(-14331.887 -5764.3)"/><path class="p" d="M14483.451,5909h-.227l-.225.337v.226h.451l.109-.45Z" transform="translate(-14325.675 -5766.075)"/><path class="q" d="M14507.451,6153.624a2.775,2.775,0,0,0-.451,1.014v.45a1.8,1.8,0,0,0,.789,1.013,1.333,1.333,0,0,0,1.125.112l.338-.112.111-.338a1.679,1.679,0,0,0,.113-1.463C14509.139,6153.511,14508.125,6152.949,14507.451,6153.624Z" transform="translate(-14346.974 -5982.903)"/><path class="r" d="M14481.223,5990.138l-.111-.45a3.99,3.99,0,0,1,1.125-.225l.787-.226c.451,0,.676-.112.9.226h0A19.024,19.024,0,0,0,14481.223,5990.138Zm4.391,1.688a28.136,28.136,0,0,0-.676-3.263c-.338-.562-.676-.562-1.238-.562-1.125.112-2.252.45-3.377.675l-.449.676a12.315,12.315,0,0,1,.225,2.025,4.443,4.443,0,0,1,0,1.237h-.225a1.051,1.051,0,0,0-1.012,1.576.962.962,0,0,0,1.35.337c1.236,0,1.236-2.025,1.012-3.6a27.592,27.592,0,0,1,2.814-.338h.113l.111.45.113.9v.112a1.073,1.073,0,0,0-1.127.9,1.248,1.248,0,0,0,2.252.788A2.817,2.817,0,0,0,14485.613,5991.826Z" transform="translate(-14321.873 -5836.185)"/><path class="s" d="M14505.337,6094l-.336.226v.112a11,11,0,0,0,.225,1.913h.449l.789-.563.674-.562-.111-.45A10.528,10.528,0,0,0,14505.337,6094Z" transform="translate(-14345.199 -5930.256)"/><path class="s" d="M14483,6098a12.155,12.155,0,0,0,.113,2.025c0,.337.563.225.447-.113-.109-.675-.225-1.237-.336-1.912Z" transform="translate(-14325.675 -5933.806)"/><path class="s" d="M14474,6098.112a16.584,16.584,0,0,0,.563,2.25h.225a8.432,8.432,0,0,1-.225-2.362Z" transform="translate(-14317.688 -5933.806)"/><path class="s" d="M14541.688,6092.389c0-.338,0-.676-.451-.563h-.674l-.564.113v1.688c.113.45.338.45.676.45l1.014-.45Z" transform="translate(-14376.258 -5928.307)"/><path class="t" d="M13500.215,6436.9a4.285,4.285,0,0,1,1.689.112c2.25.675,2.361,4.277,2.023,6.865-17.217,4.839-35.109,2.138-52.439-.563-3.6-.562-10.129-4.5-4.391-8.215,4.391-2.813,11.367.45,15.869,1.014A158.773,158.773,0,0,0,13500.215,6436.9Z" transform="translate(-13404.333 -6231.967)"/><path class="u" d="M13135.625,5032.41c-2.25.9-4.727.337-7.09-.225,1.238,1.463-.225,3.827-2.025,4.727-1.8.788-3.937,1.013-5.289,2.476-1.687,1.688-1.463,4.614-.562,6.752,1.014,2.25,2.588,4.164,3.6,6.414,2.361,5.4,1.012,12.83,5.852,16.318,1.914,1.463,4.838,2.476,4.613,4.839-.225,1.576-2.137,2.475-3.826,2.251-1.574-.113-3.039-1.013-4.5-1.688-7.2-2.814-15.191.675-22.844,1.238-3.15.225-6.865-.563-7.99-3.376-.787-2.025.111-4.5-.562-6.527-1.687-4.614-10.016-4.952-10.016-9.791-.111-3.489,4.5-5.289,5.289-8.553,1.238-4.614-4.951-9.228-2.814-13.5,1.576-3.263,6.867-2.926,9.342-5.739,3.039-3.263,1.238-10.016,5.4-11.7a19.689,19.689,0,0,1,3.713-.563c3.375-.562,5.852-3.376,8.328-5.739,2.475-2.251,5.852-4.5,9.115-3.376,1.688.675,2.926,2.025,4.613,2.588,2.588.9,5.4-.225,8.1-.9s6.191-.337,7.316,2.139c.676,1.238.563,2.925,1.688,3.713.787.675,1.8.563,2.813.788,3.6.675,4.729,5.064,5.178,8.777a2.894,2.894,0,0,1-.111,1.688,2.5,2.5,0,0,1-1.465.9,13.079,13.079,0,0,1-9.678-.563C13140.127,5027.571,13137.764,5031.622,13135.625,5032.41Z" transform="translate(-13084.982 -4964.996)"/><path class="p" d="M14996.5,5222.674a9.313,9.313,0,0,1,6.078.788v.112c2.023,4.164-7.316,9.678-9.9,5.4C14990.871,5226.05,14993.8,5223.35,14996.5,5222.674Zm13.617,3.6c-.9-3.938,3.488-6.863,6.977-5.289a.612.612,0,0,0,.787-.562,8.887,8.887,0,0,1,5.289,2.926c3.377,3.938-.9,7.314-4.838,7.989C15014.729,5232.015,15010.9,5229.989,15010.115,5226.274Zm-18.455,3.715c3.486,4.951,12.152-.45,12.152-5.739,1.576,0,3.264-.113,4.951-.113v.226c-.787,4.727,3.939,8.553,8.328,8.439,3.939-.112,10.467-3.488,8.328-8.215-1.687-3.714-5.627-5.514-9.566-5.4a6.366,6.366,0,0,0-6.752,3.826c-1.687.225-3.375.112-5.064.225v-.225c-2.7-2.476-7.426-2.476-10.352-.562C14991.322,5224.024,14989.859,5227.4,14991.66,5229.989Z" transform="translate(-14776.378 -5153.797)"/><path class="v" d="M14984.914,5045.626c-1.238-.9-3.152-2.7-5.064-3.939-.336-.45-.562-1.013-.9-1.463a17.9,17.9,0,0,0-11.928-7.652c-4.164-.675-7.09.676-10.8,1.8-3.039.9-6.863.674-9.227,3.375-1.689,1.8-2.814,4.164-4.953,5.515-2.924,1.8-6.752,1.013-10.016.112-1.012,2.025,1.238,4.051,3.264,5.064a25.6,25.6,0,0,0,13.281,2.588c4.275-.45,8.326-1.8,12.6-2.138,4.275-.45,9,.45,11.7,3.826l.449.675a27.68,27.68,0,0,0,.676,3.263c.338,1.238.9,4.952,1.35,6.19,2.365,6.415-.674,8.777,1.238,17.555a2.76,2.76,0,0,0,3.039-.675c.676-.787,1.125-1.687,1.912-2.475.9-.9,2.139-1.351,3.039-2.251,1.8-2.025,1.576-5.064,2.139-7.765.9-4.389,4.5-8.328,4.162-12.829C14990.652,5050.8,14987.84,5047.765,14984.914,5045.626Z" transform="translate(-14723.943 -4988.115)"/><path class="v" d="M15069,5462.678l.225.9c.451.788,1.576.676,2.363.563,3.037-.562,6.189-1.687,9.115-1.013a4.505,4.505,0,0,0,1.689.338,1.426,1.426,0,0,0,1.461-.788,1.512,1.512,0,0,0-.787-1.688,3.433,3.433,0,0,0-1.8-.338,59.63,59.63,0,0,0-7.766.226C15071.926,5461.1,15069.338,5460.314,15069,5462.678Z" transform="translate(-14845.729 -5368.142)"/></svg>