<svg xmlns="http://www.w3.org/2000/svg" xmlns:xlink="http://www.w3.org/1999/xlink" width="116.599" height="379.554" viewBox="0 0 116.599 379.554"><defs><style>.a{fill:#d4c19c;}.b{fill-rule:evenodd;fill:url(#a);}.c{fill:#f5d5b5;}.d{fill:#dadeda;}.e{fill:#d5afcb;}.f{fill:#afd9c4;}.g{fill:#ebefeb;}.h{fill:#662e2a;}.i{fill:#f9d8c0;}.j{fill:#999;}.k{fill:#494949;}.l{fill:#d5d5d5;}.m{fill:#d1a16d;}</style><linearGradient id="a" y1="0.499" x2="1" y2="0.499" gradientUnits="objectBoundingBox"><stop offset="0" stop-color="#ccc"/><stop offset="1" stop-color="#ccc"/></linearGradient></defs><g transform="translate(-930.067 -1846.645)"><ellipse class="a" cx="53.5" cy="6" rx="53.5" ry="6" transform="translate(932 2211)"/><path class="b" d="M20.979,11.189h3.7l.1-.1h6.594l.1-.1h0l-.1.1H24.775l-.1.1h-3.7Zm-.1,0h-3.2l-.4-.1h-3.5l-.4-.1h-1.6l-.4-.1h-1.2l-.4-.1h-.7l-.4-.1h-.4l-.3-.1h-.7l-.4-.1h-.3l-.3-.1h-.3l-.3-.1h-.4l-.3-.1h-.2l-.3-.1h0l-.3-.1h-.3l-.3-.1h0l-.2-.1H3.1l-.2-.1h0l-.2-.1H2.4l-.2-.1h0l-.2-.1H2l-.2-.1h0l-.2-.1h0l-.2-.1h0l-.2-.1h0l-.2-.1H1l-.1-.1h0l-.2-.1-.1-.1-.2-.1-.1-.1-.1-.1-.1-.1.1.1.1.1.1.1.2.1.1.1.2.1h0l.1.1H1l.2.1h0l.2.1h0l.2.1h0l.2.1h0l.2.1H2l.2.1h0l.2.1h.3l.2.1h0l.2.1h.3l.2.1h0l.3.1h.3l.3.1h0l.3.1h.2l.3.1h.4l.3.1h.3l.3.1h.3l.4.1h.7l.3.1h.4l.4.1h.7l.4.1h1.2l.4.1h1.6l.4.1h3.5l.4.1h3.2Zm10.99-.2Zm0,0h5.295v-.1h8.99l.1.1h0l-.1-.1h-8.99v.1H31.869Zm14.486,0h6.193l.1.1h0l-.1-.1H46.355Zm9.391.1Zm0,0h3.1l.5-.1h7.59l.4-.1h5.4l.5-.1h4.895l.5-.1h0l-.5.1H73.23l-.5.1h-5.4l-.4.1h-7.59l-.5.1h-3.1ZM0,7.594v-.3H0l.1-.2h0v-.3h0v-.2H.2v-.2l.1-.2h0v-.2l.1-.1V5.7l.1-.2H.6l.1-.2h0l.1-.2.1-.1v-.1h0l.2-.1.1-.2h0c.2-.2.3-.4.5-.5V4h.1l.1-.1.2-.2h0l.2-.1V3.5h.1l.1-.1.2-.2h.1L3,3.1l.2-.2h.1l.2-.1.2-.2h0a3.083,3.083,0,0,0,.8-.4h0l.2-.1h0l.3-.1.1-.1h.2V1.8l.2-.1h.1l.2-.1h.1l.2-.1.3-.1h.1l.2-.1h.1l.1-.1h.1l.2-.1h.3l.1-.1h.2l.3-.1h.1l.2-.1h.1l.2-.1h.3l.1-.1h.3l.1-.1h.4l.2-.1h.3l.1-.1h.6l.1-.1h.5l.2-.1h.2c.4,0,.8-.1,1.2-.1h0c-.4,0-.8.1-1.2.1h-.2l-.2.1h-.5l-.1.1h-.6l-.1.1h-.3l-.2.1h-.4l-.1.1h-.3l-.1.1h-.3l-.2.1h-.1l-.2.1h-.1l-.3.1h-.2l-.1.1h-.3l-.2.1h-.1l-.1.1h-.1l-.2.1h-.1l-.3.1-.2.1h-.1l-.2.1h-.1l-.2.1v.1h-.2l-.1.1-.3.1h0l-.2.1h0a3.083,3.083,0,0,1-.8.4h0l-.2.2-.2.1H3.2L3,3.1l-.2.1H2.7l-.2.2-.1.1H2.3v.1l-.2.1h0l-.2.2L1.8,4H1.7v.1c-.2.1-.3.3-.5.5h0l-.1.2-.2.1h0v.1l-.1.1-.1.2h0l-.1.2H.5l-.1.2v.2l-.1.1v.2h0l-.1.2v.2H.1v.2h0v.3h0l-.1.2H0ZM13.984,0Zm.6,0c4.7.3,9.092,2.4,13.889,2.5C23.676,2.4,19.281.3,14.584,0ZM28.473,2.5ZM105.1,3.9h0v0Zm0-.1h0V3.7h0V3.6H105V3.5h0V3.4h0V3.3h0V3.2h0V3.1h0v.1h0v.1h0v.1h0v.1h0v.1h.1v.1h0v.1Zm-.1-.7c-.1,0-.1,0-.1-.1C104.9,3.1,104.9,3.1,105,3.1Zm-.6-.8Z" transform="matrix(0.998, -0.07, 0.07, 0.998, 941.044, 2215.037)"/><path class="c" d="M20.26,18a44.189,44.189,0,0,1-3.4,6c-3.7,5.794-7.494,11.389-11.49,16.984a1.949,1.949,0,0,1-.9.9,1.815,1.815,0,0,1-1.2-.3c-.9-.4-1.7-.7-2.6-1.1l-.6-.4a1.678,1.678,0,0,1,.3-1.5C5.273,30.385,10.27,21.693,11.168,12.1c.2-2.2.2-4.5.3-6.793,0-1.6.2-3.5,1.6-4.5a4.83,4.83,0,0,1,2.9-.7c1.3,0,5.094-.5,6.094.6.8,1,.3,4,.3,5.2A33.133,33.133,0,0,1,20.26,18Z" transform="matrix(0.998, -0.07, 0.07, 0.998, 963.636, 1927.721)"/><path class="c" d="M22.842.237c.9-.2,2-.5,2.6.2l.6.6c1,.9,2.6-.5,3.895-.1a2.109,2.109,0,0,1,1.2,1.4c.5,1.6-.7,3.4-2.2,4.1a11.909,11.909,0,0,1-5,.7c-6.793-.1-13.586-.3-20.279-1-1.4-.1-3-.5-3.5-1.8a2.742,2.742,0,0,1,2.1-3.6c2.1-.1,4.6.9,6.795,1A40.362,40.362,0,0,0,22.842.237Z" transform="matrix(0.998, -0.07, 0.07, 0.998, 994.212, 1889.304)"/><path class="d" d="M8.855,1.183a13.183,13.183,0,0,0,3.895.6,3.286,3.286,0,0,1,1.9.4c1,.7.8,2.3.4,3.6a26.741,26.741,0,0,1-1,2.5,4.571,4.571,0,0,1-1.1,1.6,2.768,2.768,0,0,1-1.3.3,22.7,22.7,0,0,1-7.793-.2,3.958,3.958,0,0,1-1.9-.7,4.245,4.245,0,0,1-1.5-2.5c-.5-1.7-1-5.095.8-6.193C3.459-.816,6.758.683,8.855,1.183Z" transform="matrix(0.998, -0.07, 0.07, 0.998, 982.362, 1887.384)"/><path class="c" d="M6.879.615a2.256,2.256,0,0,0-1.6-.6c-.4.1-.7.5-1.2.7-.6.2-1.2-.2-1.9-.2-1.7,0-2.6,2.2-2,3.8a7.27,7.27,0,0,0,3.6,3.3A65.673,65.673,0,0,0,32.457,15.6l.7-.1.5-.8c.3-1,.5-3-.2-3.9-.7-.7-2.3-.6-3.3-.7a46.452,46.452,0,0,1-8.189-1.9A48.765,48.765,0,0,1,6.879.615Z" transform="matrix(0.998, -0.07, 0.07, 0.998, 930.068, 1875.985)"/><path class="e" d="M8.99,12.83c-.3-.9-.9-1.7-1.2-2.6a2.777,2.777,0,0,1,.4-2.8l.6-.6a1.34,1.34,0,0,0-.7-1.5,3.286,3.286,0,0,0-1.9-.4l.3-.3c-.2-1.5-.5-3.1-1.7-4.1a3.228,3.228,0,0,0-2.7-.4A2.613,2.613,0,0,0,.2,2.04a7.5,7.5,0,0,0-.2,2.1c.2,1.7.4,3.3.7,4.994a12.1,12.1,0,0,0,1.9,5.2c1.2,1.5,3.193,2.5,4.992,1.8a1.9,1.9,0,0,0,1-.5A3.345,3.345,0,0,0,8.99,12.83Z" transform="matrix(0.998, -0.07, 0.07, 0.998, 930.972, 1956.416)"/><path class="c" d="M28.355,27.8a4.947,4.947,0,0,1-.2,1.2c-.2.6-.7.9-1.1,1.3-6.2,5-13.088,8.792-19.98,12.589a19.431,19.431,0,0,1-4.895,2.2h-.8l-.5-.7c-.2-.5-.4-1-.6-1.5a1.319,1.319,0,0,1-.2-1.2l.5-.7A116.931,116.931,0,0,1,12.871,31a7.911,7.911,0,0,0,2.5-2.3,7.565,7.565,0,0,0,.5-3c0-6.094-.1-12.289-.2-18.383a6.213,6.213,0,0,1,.5-3.3,4.979,4.979,0,0,1,1.5-1.4c2.2-1.5,9.193-4.5,10.992-1,1,2,.3,5.394.3,7.492-.1,2.9-.1,5.895-.2,8.792C28.656,21.21,28.457,24.507,28.355,27.8Z" transform="matrix(0.998, -0.07, 0.07, 0.998, 933.654, 1915.779)"/><path class="f" d="M1.322,12.526a5.3,5.3,0,0,0,2.2,4.1,4.4,4.4,0,0,0,2.5.6,35.32,35.32,0,0,0,9.193-.6,2.342,2.342,0,0,0,1.4-.7,2.112,2.112,0,0,0,.6-1.7c.1-3.6-1.9-6.992-2.6-10.59a4.77,4.77,0,0,0-.4-1.6,4.1,4.1,0,0,0-2.8-1.5c-2.4-.6-4.895-.9-7.094.2a7.7,7.7,0,0,0-4,5.095,3.875,3.875,0,0,0-.1,2.8A28.2,28.2,0,0,1,1.322,12.526Z" transform="matrix(0.998, -0.07, 0.07, 0.998, 968.191, 1916.16)"/><path class="f" d="M3.436,13.841c.5,2.1-3.895,5.894-3.4,7.992a5.53,5.53,0,0,0,.9,2.1,5.06,5.06,0,0,0,2.2,1.7c3.994,1,14.188,1.1,18.184.2a2.932,2.932,0,0,0,1.795-1c.8-.9.5-2.4.1-3.6-1.1-4.7,3.3-6.693,3.3-11.489,0-1.5-4.4-5.994-5.295-7.094a3.555,3.555,0,0,0-1.8-1.4,12.443,12.443,0,0,0-13.287,1.6C2.139,6.048,2.338,9.344,3.436,13.841Z" transform="matrix(0.998, -0.07, 0.07, 0.998, 944.417, 1910.097)"/><path class="g" d="M35.182,6.9c2.2.7,4.793.7,6.391,2.3a7.631,7.631,0,0,1,1.6,3.1c.8,2.2,1.5,4.6,1,6.895-.6,3.3-3.2,5.794-4.795,8.691a14.165,14.165,0,0,0-1.7,7.793c.1,1.4.4,2.8.4,4.2a4.919,4.919,0,0,1-1.7,3.6c-2.1,1.4-4.9-.2-7.393-.3-3.5-.2-6.795,2.3-10.291,1.8-2.8-.5-4.8-2.8-7.293-4.1a10.56,10.56,0,0,0-7.193-1.1,5.7,5.7,0,0,1-2.6.1c-1.8-.7-1.8-3.2-1.4-5a33.24,33.24,0,0,1,2.7-8.791,13.489,13.489,0,0,1,6.295-6.4c1.7-.8,3.7-1.1,5.395-2.1,3.3-1.9,4.7-5.9,6.094-9.392.9-2.2,3.6-8.491,6.795-8.191,1.6.2,1.9,2.4,2.9,3.6A10.133,10.133,0,0,0,35.182,6.9Z" transform="matrix(0.998, -0.07, 0.07, 0.998, 944.153, 1881.615)"/><path class="h" d="M18.529,5.895c-.6-1.8-1.4-3.7-3-4.795S11.936,0,10.039,0a3.826,3.826,0,0,0-2.8.7,3.655,3.655,0,0,0-1.1,1.8c-1.9,5.2-3.8,10.39-5.795,15.585a3.614,3.614,0,0,0-.2,2.5c.4.9,1.6,1.2,2.6,1.4,4.4,1,8.891,2,13.287,2.9,1.7.4,3.994.9,5.7,0,2.2-1,1.6-2.5,1.2-4.694A90.725,90.725,0,0,0,18.529,5.895Z" transform="matrix(0.998, -0.07, 0.07, 0.998, 1004.497, 1945.908)"/><path class="i" d="M.98,36.221a10.08,10.08,0,0,0-.9,5.095c.3,2.5,2.3,4.4,4,6.294,3.4,3.9,5.693,8.592,8.592,12.788a83.421,83.421,0,0,0,6.992,8.691c1.6,1.9,3.3,3.9,4.9,5.794a7.619,7.619,0,0,0,2.594,2.2c2.1.9,4.4-.1,6.295-1.3a34.419,34.419,0,0,0,4.4-3.4,9.591,9.591,0,0,0,2.3-3c1-2.9-.8-5.993-2.9-8.191-3-3.2-6.494-5.7-9.789-8.393-2.7-2.3-5.295-4.8-7.795-7.293-2.5-2.6-4.992-5.7-5.295-9.291-.2-2.6-.4-5.5.4-7.892.9-2.8,1.3-6.4,2-9.191,1.3-5.4,2.6-10.79,3.4-16.286a1.835,1.835,0,0,0-.3-1.6c-1.5-1.5-3.4-1.8-4.795-.1-2,2.6-4.3,8.492-5.395,11.488C6.775,20.435,3.277,28.229.98,36.221Z" transform="matrix(0.998, -0.07, 0.07, 0.998, 942.003, 1907.66)"/><path class="j" d="M9.861,45.263C5.564,53.155.77,61.147.07,70.039c-.3,4.3.4,8.691,1,12.887,3.7,25.776,6.094,54.248,7.293,80.124,3,.4,3.8,1.2,6.795,1.6a4.387,4.387,0,0,0,2.8-.3,4.217,4.217,0,0,0,1.4-2.8c2.994-17.082,4.992-37.463,4.193-54.747-.5-8.791-1.4-17.883.7-26.475,1.9-7.893,12.387-13.187,16.682-20.081,3.7-5.894,7.594-11.789,12.488-16.784,6.494-6.693,8.594-13.486,13.889-21.18,2.3-3.2,3.895-7.793,1.6-10.988a10.453,10.453,0,0,0-4.6-3.1A95.752,95.752,0,0,0,43.43,1.6c-3.1-.6-7.594-2-10.689-1.5-3.8.6-3.4,1.3-4.9,5.295A291.334,291.334,0,0,1,9.861,45.263Z" transform="matrix(0.998, -0.07, 0.07, 0.998, 946.762, 2045.781)"/><path class="j" d="M42.023,26.338a83.619,83.619,0,0,1,.5,14.985c-.8,7.792-3.6,15.187-5.893,22.679-9.891,31.27-11.891,64.538-13.787,97.308-4.2.2-8.291.3-12.488.5q-.3-38.814-.6-77.627c0-5.794-.1-11.687-1.7-17.283-2.1-7.192-6.7-13.486-7.793-20.979-1.2-7.792,1.9-15.586,5.094-22.879C9.652,13.449,17.646-1.735,30.633.163,41.523,1.762,41.123,18.346,42.023,26.338Z" transform="matrix(0.998, -0.07, 0.07, 0.998, 983.256, 2043.372)"/><path class="i" d="M33.861,28.967c.8-4.9,1.5-10.091.5-15.087-.9-4.895-3.594-9.789-7.99-12.187-5.895-3.3-13.687-1.5-18.582,3C2.893,9.285.592,16.078.094,22.672a26.743,26.743,0,0,0,.4,7.494c1.7,7.292,9.988,19.58,18.582,18.98C28.266,48.547,32.563,36.359,33.861,28.967Z" transform="matrix(0.998, -0.07, 0.07, 0.998, 978.441, 1911.983)"/><path class="h" d="M75.947,26.236c-.1-6.594-1.4-14.386-6.9-16.584-2.2-.9-4.592-.6-6.99-.3-4.5.6-8.893,1.2-13.387,1.8-4.7.6-9.592,1.2-14.287.7a10.269,10.269,0,0,0-3-3.9A72.107,72.107,0,0,0,22.6,1.36a9.723,9.723,0,0,0-2.3-1.1,7,7,0,0,0-2.9-.2,22.475,22.475,0,0,0-7.994,2.4C5.016,3.059.418,9.152.02,13.948c-.3,4.5,2.7,8.492,5.895,11.288s6.893,5.2,8.988,8.992c3.8,6.693,1.7,15.385.1,23.078-2.6,12.388-8.492,24.776-7.594,37.464a15.607,15.607,0,0,0,1.4,6.095c1.6,3.2,10.193,5.095,13.488,5.494,3.4.4,6.693-.1,10.092.3,5.693.7,10.988,4,16.584,5.594s16.584,2.1,19.781-3.3a19,19,0,0,0,2.2-7.094C75.646,77.287,76.348,51.312,75.947,26.236Z" transform="matrix(0.998, -0.07, 0.07, 0.998, 954.275, 1956.271)"/><path class="k" d="M28.578,1.17a2.357,2.357,0,0,1,1.1.6l.3.9a26.474,26.474,0,0,1,.5,8.893,1.609,1.609,0,0,1-.3.9,2.622,2.622,0,0,1-1.3.6,25.1,25.1,0,0,1-10.891-.4c-3.594-.8-6.99-2-10.588-2.6a18.557,18.557,0,0,1-4.8-1c-1.5-.7-2.7-1.9-2.6-3.2a3.143,3.143,0,0,1,.6-1.6c.7-1.4,1.6-3,3.2-3.7a7.773,7.773,0,0,1,5-.3c1.7.3,3.3.9,4.994,1.1,2.5.4,4-1.2,6.295-1.1A39.492,39.492,0,0,1,28.578,1.17Z" transform="matrix(0.998, -0.07, 0.07, 0.998, 947.079, 2208.335)"/><path class="k" d="M3.914,1.223a5.855,5.855,0,0,1,4.494-.3,19.974,19.974,0,0,1,2.9,1.5,3.053,3.053,0,0,0,1.6.3c.6-.1,1.1-.5,1.1-1l.1-.8.6-.2a44.349,44.349,0,0,1,9.594-.7,3.4,3.4,0,0,1,2.6.8,2.083,2.083,0,0,1,.7,1.3,8.581,8.581,0,0,1,.4,2.8,39.343,39.343,0,0,1-.3,8.393,2.016,2.016,0,0,1-.3,1.1,2.54,2.54,0,0,1-1.5.9,33.049,33.049,0,0,1-7.691.9,14.136,14.136,0,0,1-2-.1,7.974,7.974,0,0,1-2.4-1.3A65.831,65.831,0,0,0,3.615,9.514c-1.6-.7-4.2-2.1-3.5-4.4.2-.7,1-1.2,1.5-1.8A7.665,7.665,0,0,1,3.914,1.223Z" transform="matrix(0.998, -0.07, 0.07, 0.998, 990.341, 2202.753)"/><path class="c" d="M.92,15.484c1.4-4.6,3.5-9.292,7.293-12.388S17.7-1.2,21.8,1.5C25.8,4.095,27.1,9.59,25.9,14.185c-1.1,4.6-4.295,8.492-7.691,11.79-3.4,3.2-9.193,7.093-13.889,3.9C-.578,26.474-.68,20.68.92,15.484Z" transform="matrix(0.998, -0.07, 0.07, 0.998, 972.924, 1852.074)"/><path class="g" d="M5.6,2.9a7.715,7.715,0,0,1,.6,1.3l.1.4-.3.4c-.6.4-1.5.4-2.2.8L3,6.3H2.1l-.4-.4A17.645,17.645,0,0,1,.3,3.6L0,2.8c0-.7.6-1.1,1.1-1.4.6-.4,2-1.5,2.7-1.4C4.6.207,5.2,2.205,5.6,2.9Z" transform="matrix(0.998, -0.07, 0.07, 0.998, 934.221, 1955.623)"/><path class="i" d="M.9,8.329a25.706,25.706,0,0,1-.9-4l.1-.8.5-.7A16.457,16.457,0,0,1,3.1.736a3.686,3.686,0,0,1,1.4-.7,1.532,1.532,0,0,1,1.5.4,3.336,3.336,0,0,1,.5,1.4c.1.5.3,1,.8,1.1l.7.1a1.09,1.09,0,0,1,.7,1.3,4.426,4.426,0,0,1-.5,1.5,6.241,6.241,0,0,0-.4,1.3c-.4,1.7-1.5,5.6-1.7,7.293-.1.4-.2.9-.6,1.1l-.4.1c-1.1.1-3.6-.6-4.395-1.6-.4-.4-.2-1.2-.2-1.7C.5,11.427,1.2,9.128.9,8.329Z" transform="matrix(0.998, -0.07, 0.07, 0.998, 955.335, 1895.229)"/><path class="i" d="M1.262,7.707a3.181,3.181,0,0,1-1-1,.933.933,0,0,1,0-1.3l.5-.3a9.056,9.056,0,0,0,4.6-3.795c.3-.6.7-1.3,1.3-1.3.6-.1,1,.4,1.2.9.1.5.1,1.1.2,1.6.4,1.7,1.8,2.8,2.8,4.2a2.27,2.27,0,0,1,.7,2,2.784,2.784,0,0,1-1.2,1.8,5.851,5.851,0,0,1-2.7,1.4,3.1,3.1,0,0,1-3.4-1A22.726,22.726,0,0,0,1.262,7.707Z" transform="matrix(0.998, -0.07, 0.07, 0.998, 980.715, 1903.893)"/><path class="l" d="M6.092,9.411a46.486,46.486,0,0,1-3.6,6.094A19.34,19.34,0,0,0,0,24.8a6.444,6.444,0,0,0,.9,3.9c.8,1.2,2.3,1.8,3.4,2.8a11.069,11.069,0,0,1,2.2,3,71.51,71.51,0,0,1,6.293,13.788,3.436,3.436,0,0,0,1.2,2.1,4.28,4.28,0,0,0,2.5.7l9.291.3a6.047,6.047,0,0,0,3-.3c1.4-.6,2.2-2.1,3.2-3.3,2.994-3.9,8.191-6.395,9.189-11.289.5-2,.1-4.2.3-6.294a36.828,36.828,0,0,1,1.4-5.5,50.827,50.827,0,0,0,.9-5.595c.3-2.4.6-4.795.8-7.192a4.458,4.458,0,0,0-.1-2.3,4.558,4.558,0,0,0-1.2-1.2A41.419,41.419,0,0,0,22.174.119c-3.2-.2-7.291-.3-10.187,1C8.486,2.718,7.49,6.214,6.092,9.411Z" transform="matrix(0.998, -0.07, 0.07, 0.998, 975.335, 1910.572)"/><path class="d" d="M11.176.094a44,44,0,0,0-5.191,1.4,9.046,9.046,0,0,1-5.4-.1,9.936,9.936,0,0,0,.1,6.993,2.1,2.1,0,0,0,.6,1,3.56,3.56,0,0,0,1,.2c3.7.2,7.293.3,10.99.3.9,0,2,0,2.4-.8.3-.3.3-.8.4-1.2.1-1.6.9-5,.1-6.494S12.678-.105,11.176.094Z" transform="matrix(0.998, -0.07, 0.07, 0.998, 956.139, 1880.795)"/><path class="m" d="M33.977,9.893a9.284,9.284,0,0,0-1-2.3c-1-1.4-2.6-2-4.1-2.8a21.134,21.134,0,0,0-3.5-2.3,5.918,5.918,0,0,0-2.9-.7A6.209,6.209,0,0,0,15.1.8C13.6,1.7,12.5,3.2,11,4.1c-1.1.6-2.4.8-3.6,1.3-1.9.8-2.3,1.6-1.9,2.3a6.3,6.3,0,0,0-1.6,1,6.911,6.911,0,0,0-2,6.395c.3,1.1.9,2.3.7,3.5-.3,1.9-2.5,3.3-2.6,5.3a5.648,5.648,0,0,0,1.1,3.2,25.788,25.788,0,0,1,3.2,8.491,35.358,35.358,0,0,1-.1,9.191c-.4,4.1-.8,8.093-1.2,12.089a5.511,5.511,0,0,0,.2,2.2,3.294,3.294,0,0,0,2.9,1.8,10.485,10.485,0,0,0,3.4-.8c-.5-1.5-1.1-3.1-.5-4.5.5-1.4,1.9-2.3,2.8-3.5a5.658,5.658,0,0,0,.6-5.194c-.3-.8-.9-1.6-1.2-2.5-1.8-4.795,4.1-9.791,2.8-14.686-.4-1.7-1.6-3.1-2.2-4.7-1.3-3.1.4-5.694,1.8-8.092a1.822,1.822,0,0,1,1.4,1.4,19.69,19.69,0,0,1,2.4.3l.8.3c.3.2.5.8.9,1,.7.2,1.7-.8,2.2-.3l.3.6c.4,1.2,1.9,1.5,3.2,1.4a4.318,4.318,0,0,1,1.6-.1c1.1.3,1.7,1.5,2.6,2a5.326,5.326,0,0,0,2.2.3,3.261,3.261,0,0,0,1.4-.4,3.7,3.7,0,0,0,1.6-2.4A21.918,21.918,0,0,0,33.977,9.893Z" transform="matrix(0.998, -0.07, 0.07, 0.998, 965.716, 1849.071)"/><path class="m" d="M9.188,9.477c-.7,3.1-2.3,5.994-3.295,8.991s-1.4,6.494.1,9.292c1.2,2.4,3.7,4.2,4,6.793.4,2.2-.9,4.3-2.1,6.094a16.4,16.4,0,0,0-6.6-1.1c.8-2.7,1.5-5.6.9-8.292-.6-2.4-2.1-4.5-2.2-7,0-2,.9-3.795,1.7-5.693a33.617,33.617,0,0,0,2.4-14.386,5.649,5.649,0,0,1,.5-3.1c1.4-2.4,3.5-.3,4.2,1.3A10.809,10.809,0,0,1,9.188,9.477Z" transform="matrix(0.998, -0.07, 0.07, 0.998, 990.066, 1866.312)"/></g></svg>