<svg xmlns="http://www.w3.org/2000/svg" width="136.299" height="520.628" viewBox="0 0 136.299 520.628"><defs><style>.a{fill:#d4c19c;}.b{fill:#ececec;}.c{fill:#ffe0d6;}.d{fill:#494949;}.e{fill:#7574ae;}.f{fill:#d9b19a;}.g{fill:#b0afd5;}.h{fill:#aa6a64;}.i{fill:#fcf6d4;}.j{fill:#fcee9f;}.k{fill:#d3e4ea;}.l{fill:#f7f7f7;}.m{fill:#acb18f;}.n{fill:#f2f2f2;}</style></defs><ellipse class="a" cx="67" cy="6.5" rx="67" ry="6.5" transform="translate(1.019 507.289)"/><path class="b" d="M2008.181,5236.012c-1.556,12.446-6.223,25.047-15.713,33.293-3.267,2.8-7.312,5.6-7.467,9.958,0,2.955,2.022,5.6,3.889,7.777a10.24,10.24,0,0,0,2.334,2.179c1.867.933,4.045.466,6.067.933,3.734.623,6.379,3.89,9.335,6.379a24.485,24.485,0,0,0,17.736,5.757c4.356-.312,9.179-2.178,11.357-6.068a36.041,36.041,0,0,0,2.023-5.756,24.939,24.939,0,0,1,16.18-15.869,32.049,32.049,0,0,0,6.845-2.178c2.956-1.711,4.667-4.979,5.445-8.246a36.514,36.514,0,0,0,.467-10.112c-.156-2.645-.311-5.6-1.711-7.78a14.916,14.916,0,0,0-5.134-4.2c-4.512-2.335-9.023-4.2-13.224-6.846a23.613,23.613,0,0,1-9.957-11.045c-1.712-4.824-1.556-11.047-5.912-14a12.512,12.512,0,0,0-5.134-1.712c-7.468-1.4-11.668.156-14.313,7.468C2009.115,5222.321,2008.959,5229.322,2008.181,5236.012Z" transform="translate(-1979.894 -5178.081)"/><path class="c" d="M2172.568,6667.289c-1.556-35.316,1.711-71.1,1.4-106.57a84.382,84.382,0,0,0-4.823-36.25,6.218,6.218,0,0,0-1.089-2.023c-1.711-1.71-4.511-.778-6.689.156a71.93,71.93,0,0,1-64.876-5.6c-3.734,5.757-4.823,12.757-5.756,19.6-1.555,11.047-3.267,22.093-3.578,33.295h0c-.156,2.333-.156,4.822-.156,7.156.311,13.846,2.956,27.537,4.979,41.228,1.4,8.869,2.645,17.736,2.645,26.76.156,7.468,1.4,12.915,2.023,20.381,2.334,26.6,2.8,38.272,4.512,56.476,1.867,19.446,2.178,18.825,3.734,38.272a11.828,11.828,0,0,0,.155,2.333c.934.312,9.023,1.712,9.023-2.179,1.09-37.8,3.89-55.539,4.979-93.5.623-15.87,6.379-67.677,10.424-82.923,1.555.155,3.267.312,4.979.621,15.4,43.719,22.559,122.286,31.738,172.382.777,4.356,3.734,6.534,6.689,9.336,2.8,2.8,2.022.154,2.956-4.2C2173.035,6723.608,2174.28,6705.561,2172.568,6667.289Z" transform="translate(-2066.024 -6283.42)"/><path class="d" d="M2598.277,8049l1.089.312.467.779c1.711,4.354,1.555,9.179,2.333,13.846.934,6.534,3.267,12.6,5.135,18.824a16.325,16.325,0,0,1,1.089,5.6,9.623,9.623,0,0,1-5.134,8.4,13.9,13.9,0,0,1-8.713.466,7.509,7.509,0,0,1-1.711-.621,14.132,14.132,0,0,1-1.4-1.557c-3.578-4.979-3.734-12.291-3.889-18.979-.156-3.89-.311-7.625-.622-11.513-.156-3.268-1.089-7.313-.623-10.581.312-2.644,1.867-2.8,3.734-3.11C2592.832,8050.246,2595.476,8049.156,2598.277,8049Z" transform="translate(-2487.533 -7577.073)"/><path class="e" d="M2000.181,6597.331c-.623,7.312-1.4,14.78.467,21.937a17.039,17.039,0,0,0,3.267,7c2.334,2.955,5.756,4.822,9.335,6.223,11.2,4.512,23.337,5.913,35.472,6.535a319.39,319.39,0,0,0,34.539.311c9.957-.311,24.737-3.423,32.205-9.957,8.868-7.624,4.511-16.647,3.267-28.159-3.889-40.14-3.422-49.475-8.246-81.213-4.045-26.293-.934-51.028-5.6-77.321-.778-4.824-1.867-10.426-6.068-13.225-2.333-1.4-16.647-2.023-19.292-2.333q-13.769-1.169-27.538-1.4c-11.357-.31-24.114.623-32.827,8.714-7,6.223-5.6,19.447-6.379,28-2.645,28.782-5.445,57.719-8.09,86.5C2003.137,6565.127,2001.736,6581.15,2000.181,6597.331Z" transform="translate(-1992.118 -6206.305)"/><path class="f" d="M2214.32,5104.13c-.312-4.978-1.09-10.267-4.045-14.313a20.689,20.689,0,0,0-5.756-5.289,35.434,35.434,0,0,0-30.649-3.422c-12.446,15.09-14.469,38.116-4.823,55.386a36.259,36.259,0,0,0,9.8,11.356c4.2,2.8,9.491,4.356,14.469,3.422,5.446-.934,10.268-4.667,13.379-9.334,3.112-4.512,4.667-9.957,5.913-15.4A98.312,98.312,0,0,0,2214.32,5104.13Z" transform="translate(-2130.179 -5069.224)"/><path class="d" d="M2077.112,8101.893c-.155-1.244-.934-2.489-1.089-3.733-.311-1.244.156-2.8.311-4.2.778-5.911,1.556-11.979,2.489-18.047.156-1.867.312-4.045-1.088-5.134a5.788,5.788,0,0,0-3.578-.777c-3.734.156-7.312.312-10.891.466a3.593,3.593,0,0,0-2.645.778c-.778.777-.623,1.711-.623,2.8a84.958,84.958,0,0,1-1.089,17.736c-.311,1.711-.623,3.423-.778,5.135a63.343,63.343,0,0,1-14.624,7,11.61,11.61,0,0,0-4.2,2.021c-1.089,1.089-1.712,3.112-.778,4.357.778,1.089,2.334,1.244,3.734,1.4a166.159,166.159,0,0,0,31.738-.779,3.691,3.691,0,0,0,1.867-.466l.778-1.4A14.033,14.033,0,0,0,2077.112,8101.893Z" transform="translate(-2024.709 -7594.807)"/><path class="g" d="M2174.072,5684.408c-.622-18.668,2.956-24.891.156-43.249-1.245-7.313-2.334-14.78-5.134-21.627-2.178-5.288-2.178-12.912-3.89-21.312-2.645-12.759-4.044-21-11.668-31.271-.622-.935-7-1.089-8.09-1.557a6.584,6.584,0,0,0-3.889-.312c-9.49,1.245-19.6,2.646-28.471-.467a4.866,4.866,0,0,0-6.379,3.733c-2.023,17.27-4.045,34.384-6.068,51.653a221.858,221.858,0,0,1-3.267,22.4c-1.089,5.135-2.489,10.27-3.579,15.4-3.578,15.558,2.179,15.558.934,31.583-.156,1.71-7.312,19.446-6.845,21a11.658,11.658,0,0,0,3.734,4.513c12.446,9.335,28.782,9.023,43.873,7.935,10.735-.933,21.625-2.021,31.738-5.445,4.356-1.555,11.824-3.89,14.158-8.245C2183.406,5705.412,2174.228,5688.766,2174.072,5684.408Z" transform="translate(-2066.75 -5478.989)"/><path class="h" d="M2488.156,5359l-.156.777Z" transform="translate(-2404.638 -5305.58)"/><path class="b" d="M2188.618,5036.542a32.239,32.239,0,0,0-5.6-11.046,23.7,23.7,0,0,0-9.334-7.779,35.3,35.3,0,0,0-9.957-1.867c-9.49-.623-19.6-.155-27.382,5.291a17.291,17.291,0,0,0-6.534,8.4l-.311,1.244-.155.156a34.317,34.317,0,0,0-7.779,16.024c-.466,2.488-.777,5.289.156,7.623.933,2.488,3.734,4.356,6.379,3.734,1.245-.312,2.489-1.09,3.734-.935a6.872,6.872,0,0,1,2.49.935,6.783,6.783,0,0,0,5.756-.156,3.518,3.518,0,0,1,2.333-.778l1.245.935c2.022,1.556,4.823.466,7.156-.468a4.151,4.151,0,0,1,1.867-.467c.778.156,1.4.935,2.022,1.4a4.5,4.5,0,0,0,5.6-.777c-.156.622.467,1.089,1.089,1.245a8.231,8.231,0,0,0,2.022.155c2.023,0,4.2,1.4,6.223.623a4.618,4.618,0,0,0,2.49-2.646c1.556,4.047,1.4,9.335.778,13.225l.933-1.089c1.245-.154,1.556,1.556,1.4,2.8a136.738,136.738,0,0,1-3.267,15.87c2.178-2.957,4.356-5.912,6.69-8.868a66.514,66.514,0,0,0,5.756-8.868,48.921,48.921,0,0,0,3.423-11.2C2189.4,5051.789,2190.485,5044.01,2188.618,5036.542Z" transform="translate(-2094.832 -5015.637)"/><path class="i" d="M2443.047,5917.35c1.4,3.111,2.644,6.223,4.044,9.335,1.089,2.8,2.334,5.6,2.645,8.557.466,4.355-.622,9.024.933,13.068a12,12,0,0,0,10.113,7.313,15,15,0,0,0,11.824-4.512,22.269,22.269,0,0,0,5.912-11.357,30.284,30.284,0,0,0,.311-3.89,16.408,16.408,0,0,0-.933-3.734,11.566,11.566,0,0,0-4.2-5.911,18.99,18.99,0,0,0-5.757-2.489c-6.69-2.489-13.535-5.913-17.892-11.669-1.867-2.645-4.822-7-8.556-4.667C2437.29,5910.037,2441.8,5914.394,2443.047,5917.35Z" transform="translate(-2363.885 -5768.094)"/><path class="j" d="M2410.85,5882.772c2.956-1.712,6.067-3.579,8.868-5.444.467-.312,1.089-.778,1.089-1.4a3.818,3.818,0,0,0-.934-2.49c-.778-1.244-1.711-2.333-2.489-3.422l-1.089-1.246a1.9,1.9,0,0,0-1.4.312c-1.867,1.245-3.734,2.335-5.445,3.423a10.853,10.853,0,0,0-2.645,2.022c-1.09,1.09-2.334,3.112-.778,4.979.622.777,1.4,1.556,2.022,2.334C2408.983,5883.084,2409.761,5883.395,2410.85,5882.772Z" transform="translate(-2334.8 -5736.005)"/><path class="i" d="M2388,5927.279l.156.623c.311.777.777,1.556,1.089,2.333l.156.468.311.155h1.4l1.089-.933a6.1,6.1,0,0,1,1.556-1.246l.467-.621-.156-.312c-.311-1.245-1.245-2.955-2.8-2.8C2390.489,5924.947,2388.156,5926.5,2388,5927.279Z" transform="translate(-2320.195 -5783.47)"/><path class="k" d="M2536.407,6076.932c2.178.312,4.667,1.09,5.756,3.111a5.138,5.138,0,0,1,.311,3.734,24.423,24.423,0,0,1-1.4,3.579,26.725,26.725,0,0,1-2.022,3.578,27.053,27.053,0,0,1-2.333,2.021,11.013,11.013,0,0,1-4.667,2.334c-2.178.467-4.512-.156-6.69-.622a7.039,7.039,0,0,1-3.889-1.866,7.677,7.677,0,0,1-1.244-2.8,40.867,40.867,0,0,1-.934-6.067c-.156-1.867-.622-4.511,0-6.378.467-1.557,2.022-1.245,3.423-.934a42.831,42.831,0,0,0,6.379.311A38.419,38.419,0,0,1,2536.407,6076.932Z" transform="translate(-2430.796 -5911.341)"/><path class="j" d="M2437.621,5955.01c.311,2.335.311,4.667.466,6.846l.312,1.089,1.089-.467.156-1.089a23.177,23.177,0,0,0-.312-3.267c-.155-1.712-.155-3.424-.311-5.136-.156-.775-.156-1.71-.312-2.487a3.138,3.138,0,0,0-.467-1.712,1.068,1.068,0,0,0-1.4-.468C2435.286,5949.1,2437.309,5953.766,2437.621,5955.01Z" transform="translate(-2360.947 -5803.109)"/><path class="f" d="M2422.179,5954.183a10.139,10.139,0,0,0-3.734.934,5.849,5.849,0,0,0-2.8,6.067,12.723,12.723,0,0,0,3.267,6.223,10.01,10.01,0,0,0,1.244,1.4,4.411,4.411,0,0,0,2.023.623,10.3,10.3,0,0,0,6.379-1.556c1.867-.935,3.578-2.334,5.6-3.269,2.645-1.244,5.757-1.71,8.713-2.333a4.087,4.087,0,0,0,2.333-1.089,3.015,3.015,0,0,0,.311-2.334c-.622-4.667-2.333-6.067-7.157-5.912C2433.07,5953.249,2427.625,5953.56,2422.179,5954.183Z" transform="translate(-2343.484 -5807.104)"/><path class="g" d="M2582.4,5955.974a3.663,3.663,0,0,0,.777,1.556,4.474,4.474,0,0,0,2.023,1.245,31.552,31.552,0,0,1,6.534,3.11,38.411,38.411,0,0,1,8.868,7.779c1.245,1.246,2.334,2.646,3.578,3.735a14.4,14.4,0,0,0,4.667,2.8,4.486,4.486,0,0,0,6.845-2.644c1.711-3.268,1.867-7,1.711-10.581a11.489,11.489,0,0,0-1.711-6.067c-1.867-2.488-5.135-3.111-8.246-3.577-4.667-.622-9.957-2.8-14.78-3.423a63.271,63.271,0,0,0-9.491-.935c-1.244,0-2.178-.155-2.178,1.245S2582.089,5954.573,2582.4,5955.974Z" transform="translate(-2483.169 -5803.761)"/><path class="g" d="M2497.737,5600.584c-.311,3.268.934,6.378,2.022,9.49,4.668,11.513,9.49,23.181,17.27,32.983,1.867,2.332,4.045,4.667,5.756,7.155s3.112,5.135,4.512,7.624a99.779,99.779,0,0,0,10.58,14.935,8.532,8.532,0,0,0,3.423,2.8,5.819,5.819,0,0,0,5.756-1.867,10.513,10.513,0,0,0,2.023-6.069c.467-7.312-3.267-14.157-6.845-20.38q-12.136-21.236-24.271-42.473a44.079,44.079,0,0,0-5.289-7.935c-1.867-2.177-5.29-5.289-8.557-4.512C2500.692,5593.272,2498.2,5597.315,2497.737,5600.584Z" transform="translate(-2412.818 -5502.512)"/><path class="b" d="M2416.414,5169.541a93.8,93.8,0,0,0-4.823,33.45,10.739,10.739,0,0,0,.623,3.89,7.6,7.6,0,0,0,2.645,2.8,11.285,11.285,0,0,0,14-1.71c.623-.779,1.4-1.712,2.489-1.712,2.022,0,2.334,2.645,2.022,4.513-.778,3.268-2.178,6.378-2.8,9.646-.778,3.422-.467,7.155,1.712,9.645,2.489,2.957,6.845,3.422,10.579,3.578a14.75,14.75,0,0,0,6.379-.777,6.364,6.364,0,0,0,4.2-4.668c.156-1.555-.311-3.111-.155-4.667.622-3.267,4.355-4.667,7.467-5.757,4.667-1.712,9.957-4.822,10.268-9.8.156-3.733-2.333-6.846-5.134-9.18s-6.068-4.2-8.246-7.157c-3.111-4.045-3.578-9.335-4.355-14.469a82.592,82.592,0,0,0-6.845-23.181c-2.334-5.134-5.29-10.112-7.156-15.558-2.49-6.845-3.423-14.157-6.224-20.848-.778-1.712-1.867-3.578-3.734-3.578a3.668,3.668,0,0,0-2.49,1.089c-4.045,2.956-5.445,8.4-5.29,13.536,0,4.979,1.245,9.956,1.555,14.935C2423.881,5153.672,2419.525,5160.518,2416.414,5169.541Z" transform="translate(-2340.052 -5098.697)"/><path class="l" d="M2045.1,6067.579a8.445,8.445,0,0,1,0,3.423,3.736,3.736,0,0,1-1.089,1.866,10.293,10.293,0,0,1-4.978,1.866c-4.356.779-8.557,1.557-12.758,2.335a4,4,0,0,1-3.267-.155c-2.334-1.245-3.578-5.136-4.356-8.558-5.445-21.47-10.58-41.54-16.024-63.01a15.6,15.6,0,0,1-.623-3.732c.156-3.735,3.112-4.824,5.6-5.136,6.379-.933,12.446-3.11,18.98-3.578,1.711-.155,6.067-1.712,7.779.156,2.022,2.179,2.022,9.179,2.49,12.29C2039.494,6026.193,2042.295,6046.886,2045.1,6067.579Z" transform="translate(-1994.249 -5840.221)"/><path class="k" d="M2051,6104.044A89.114,89.114,0,0,1,2069.05,6100l.934.156.155.466c.467,2.177.778,4.2,1.089,6.378.311,2.334.311,4.668.467,7,.467,5.6.933,11.045,1.556,16.646.466,4.045.933,7.935,1.4,11.979a106.093,106.093,0,0,0,1.556,12.292c.311,2.021.778,4.043.311,5.911a3.844,3.844,0,0,1-.623,1.4l-1.245.621a35.024,35.024,0,0,1-15.4,2.179,4.138,4.138,0,0,1-1.867-.467,2.885,2.885,0,0,1-1.089-1.867c-1.245-3.267-2.023-7-3.579-10.269-.778-1.556-.622-3.888-1.4-5.444a38.837,38.837,0,0,1-1.711-6.068c-1.245-5.912-3.578-10.891-4.512-16.8-.623-3.111-1.089-6.067-1.556-9.023-.312-1.557-.467-3.112-.778-4.667,0-.778-.933-3.733-.467-4.356.467-.777,2.956-.468,4.045-.622C2047.892,6105.134,2049.447,6104.511,2051,6104.044Z" transform="translate(-2028.161 -5931.296)"/><path class="m" d="M2143.668,5990.391c-1.711-7.935-.622-15.869-.467-23.8a181.013,181.013,0,0,0-1.556-22.559c-1.866-14.936-5.445-29.4-9.023-44.029l-.623.156c3.423,15.559,6.845,30.96,8.557,46.673a157.12,157.12,0,0,1,.777,22.56c-.155,7.313-.777,14.313.778,21.47C2142.268,5991.948,2143.824,5991.481,2143.668,5990.391Z" transform="translate(-2104.023 -5762.412)"/><path class="n" d="M2071.234,5829.646l-.467-.155a4.683,4.683,0,0,1-3.423,1.244l.311-.312c1.867-2.645,1.244-7.156.467-10.112l-.934-.311a30.055,30.055,0,0,0-4.979,4.978,6.9,6.9,0,0,0-1.244-1.711c-.623-.933-1.712-2.645-2.8-3.112l-1.245.312-.312,1.4a21.236,21.236,0,0,0-.311,2.956v1.4c-.623-.156-1.4-.312-2.022-.467a11.055,11.055,0,0,1-4.667-2.8l-.778.311c-.312,3.578,1.712,9.179,5.446,9.8l.466.156.778.155c-1.244.934-2.956.467-4.512,1.245a1.706,1.706,0,0,0-1.244,1.867c.155.934,1.711,1.244,2.644,1.4a10.043,10.043,0,0,0,4.823.311,9.533,9.533,0,0,0,4.978-2.8A7.488,7.488,0,0,0,2071.234,5829.646Z" transform="translate(-2033.767 -5694.859)"/><path class="h" d="M2107.242,5848.756a8.217,8.217,0,0,1-1.4-5.444H2106a7.634,7.634,0,0,0,1.711,5.444h0l.623-.312a10.969,10.969,0,0,1,.622-5.444l.156.156a12.783,12.783,0,0,0-.467,5.443h.312a14.2,14.2,0,0,1,2.334-3.577l.156.155-.623.777h.156v-.155l.156.467h-.156l-.156-.312a25.15,25.15,0,0,0-1.556,2.8l.156.312a1.288,1.288,0,0,1-.467,1.71,1.352,1.352,0,0,1-1.867-.621A1.159,1.159,0,0,1,2107.242,5848.756Z" transform="translate(-2081.909 -5714.28)"/><path class="h" d="M2128,5849v0Z" transform="translate(-2100.646 -5719.347)"/><path class="h" d="M2120,5846.155l.156-.155h.155Z" transform="translate(-2093.89 -5716.813)"/><path class="h" d="M2127,5854h0l.155.467H2127Z" transform="translate(-2099.801 -5723.569)"/><path class="h" d="M2119.156,5853.467,2119,5853Z" transform="translate(-2093.046 -5722.724)"/><path class="h" d="M2126,5861h.156v.465h0Z" transform="translate(-2098.957 -5729.481)"/><path class="h" d="M2119.156,5861.311,2119,5861Z" transform="translate(-2093.046 -5729.481)"/><path class="h" d="M2127,5868v.466h0Z" transform="translate(-2099.801 -5735.391)"/><path class="h" d="M2119,5868.466v0Z" transform="translate(-2093.046 -5735.391)"/><path class="h" d="M2135,5856.311v0Z" transform="translate(-2106.557 -5725.258)"/><path class="h" d="M2137,5868l.156.466Z" transform="translate(-2108.246 -5735.391)"/><path class="h" d="M2132,5864.313v0Z" transform="translate(-2104.023 -5732.014)"/><path class="h" d="M2133,5873h0Z" transform="translate(-2104.868 -5739.613)"/><path class="h" d="M2144,5858l.156.467Z" transform="translate(-2114.157 -5726.946)"/><path class="h" d="M2139,5853.155v0Z" transform="translate(-2109.935 -5722.724)"/><path class="h" d="M2127.155,5840.311,2127,5840Z" transform="translate(-2099.801 -5711.746)"/><path class="h" d="M2113,5866.468v0Z" transform="translate(-2087.979 -5733.702)"/><path class="h" d="M2108,5871v0Z" transform="translate(-2083.757 -5737.924)"/><path class="h" d="M2112,5860.466v0Z" transform="translate(-2087.135 -5728.636)"/><path class="h" d="M2104,5862v0Z" transform="translate(-2080.379 -5730.324)"/><path class="h" d="M2109,5855.156v0Z" transform="translate(-2084.601 -5724.414)"/><path class="h" d="M2102.311,5854h0l-.311.155V5854Z" transform="translate(-2078.691 -5723.569)"/><path class="h" d="M2109.156,5848.311,2109,5848Z" transform="translate(-2084.601 -5718.503)"/><path class="h" d="M2103,5846.311v0Z" transform="translate(-2079.535 -5716.813)"/><path class="h" d="M2107,5840.311v0Z" transform="translate(-2082.913 -5711.746)"/><path class="m" d="M2109.047,5817.445c-.778-10.891-4.512-21.624-7.156-32.359a300.16,300.16,0,0,1-5.756-30.494c-2.957-20.069-4.045-39.983-5.134-59.742,0-.621.778-.467.778.156,1.555,21,2.956,42.162,6.378,63.477,1.711,10.112,3.734,20.38,6.378,30.492,2.645,9.646,5.6,19.292,6.223,28.938C2110.914,5819.313,2109.2,5818.69,2109.047,5817.445Z" transform="translate(-2069.402 -5588.845)"/><path class="n" d="M2032,5626.358l.467-.312a4.205,4.205,0,0,0,3.578.622l-.312-.156c-2.333-2.489-2.489-6.845-2.178-9.956l1.089-.311a43.937,43.937,0,0,1,5.6,4.044l.933-1.867a8.947,8.947,0,0,1,2.334-3.423h1.245l.467,1.4a18.886,18.886,0,0,1,.778,2.8l.156,1.4c.778-.312,1.4-.467,2.022-.778a11.346,11.346,0,0,0,4.2-3.422l.778.155c.934,3.422-.155,9.179-3.889,10.578l-.311.156-.934.155c1.4.935,3.112.156,4.823.623.622.312,1.556.777,1.4,1.556,0,1.088-1.556,1.711-2.334,2.021a9.665,9.665,0,0,1-4.667.935,9.432,9.432,0,0,1-5.445-2.022A7.51,7.51,0,0,1,2032,5626.358Z" transform="translate(-2019.581 -5521.751)"/><path class="h" d="M2082.823,5643.6a7.738,7.738,0,0,0,.466-5.6h-.155a7.722,7.722,0,0,1-.778,5.6h0l-.623-.156a12.152,12.152,0,0,0-1.4-5.288h-.311a13.409,13.409,0,0,1,1.4,5.288l-.311.156a11.338,11.338,0,0,0-2.956-3.11l-.156.155.778.622h-.155v.467h.155l.156-.312a10.442,10.442,0,0,1,1.867,2.489v.155a1.156,1.156,0,0,0,.623,1.712,1.507,1.507,0,0,0,1.867-.935A1.176,1.176,0,0,0,2082.823,5643.6Z" transform="translate(-2058.425 -5541.174)"/><path class="h" d="M2092,5645v0Z" transform="translate(-2070.246 -5547.085)"/><path class="h" d="M2096.311,5641Z" transform="translate(-2073.625 -5543.708)"/><path class="h" d="M2093,5650h0v.466h0Z" transform="translate(-2071.091 -5551.306)"/><path class="h" d="M2100,5647.467v0Z" transform="translate(-2077.002 -5548.773)"/><path class="h" d="M2094.156,5657H2094v.467h.156Z" transform="translate(-2071.936 -5557.217)"/><path class="h" d="M2102,5656.311v0Z" transform="translate(-2078.691 -5556.373)"/><path class="h" d="M2095,5664v.467h0Z" transform="translate(-2072.78 -5563.128)"/><path class="h" d="M2103.156,5662.466,2103,5662Z" transform="translate(-2079.535 -5561.439)"/><path class="h" d="M2085,5653.312v0Z" transform="translate(-2064.335 -5553.84)"/><path class="h" d="M2085,5665v0Z" transform="translate(-2064.335 -5563.973)"/><path class="h" d="M2090,5660.312v0Z" transform="translate(-2068.557 -5559.751)"/><path class="h" d="M2088.311,5670h0Z" transform="translate(-2066.869 -5568.196)"/><path class="h" d="M2077,5656v0Z" transform="translate(-2057.58 -5556.373)"/><path class="h" d="M2081,5650.31v0Z" transform="translate(-2060.958 -5551.306)"/><path class="h" d="M2090,5635.467v0Z" transform="translate(-2068.557 -5538.641)"/><path class="h" d="M2109,5660.468v0Z" transform="translate(-2084.601 -5559.751)"/><path class="h" d="M2114,5663l.156.466Z" transform="translate(-2088.824 -5562.284)"/><path class="h" d="M2109,5654.31v0Z" transform="translate(-2084.601 -5554.685)"/><path class="h" d="M2117,5654v0Z" transform="translate(-2091.357 -5554.685)"/><path class="h" d="M2111,5648.155v0Z" transform="translate(-2086.29 -5549.618)"/><path class="h" d="M2116,5646v.156h.311V5646Z" transform="translate(-2090.513 -5547.929)"/><path class="h" d="M2109.156,5641.312,2109,5641Z" transform="translate(-2084.601 -5543.708)"/><path class="h" d="M2116,5638.31v0Z" transform="translate(-2090.513 -5541.174)"/><path class="h" d="M2111,5633.312v0Z" transform="translate(-2086.29 -5536.952)"/><path class="m" d="M2043.4,5906.862c-1.245-8.089-4.512-15.4-7.312-22.869a71.017,71.017,0,0,1-3.578-13.691c-.778-4.979-.622-9.957-1.244-14.935-1.089-9.335-3.89-18.515-5.445-27.848-1.4-8.246-2.645-17.271-7-24.738a.528.528,0,0,0-.933.467,135.4,135.4,0,0,1,5.912,26.138c1.4,9.335,4.2,18.67,4.978,28,.778,8.714.934,16.8,3.734,25.2,2.8,8.246,6.534,16.025,7.934,24.737C2040.6,5909.353,2043.715,5908.73,2043.4,5906.862Z" transform="translate(-2007.649 -5680.127)"/><path class="n" d="M1970.663,5708.4h-.623a8.176,8.176,0,0,1-1.711,1.556,7.843,7.843,0,0,0,.311-1.865c-.311-3.58-3.267-5.913-5.757-8.091l-.622.155c-.155,2.955-2.178,5.133-2.178,8.09a7.416,7.416,0,0,0,.778,2.8c-.778-.312-1.555-.467-2.489-.778-2.334-.777-3.734-2.955-5.134-4.822l-.622.155c-.933,4.356-.778,9.958,4.512,11.2a5.236,5.236,0,0,1-4.045-.155l-.467.467c2.178,3.268,6.534,5.757,9.957,2.8a4.4,4.4,0,0,0,1.711-2.334l.311.312a3.578,3.578,0,0,0,2.178.622C1971.908,5718.2,1973.619,5711.822,1970.663,5708.4Z" transform="translate(-1952.177 -5593.527)"/><path class="h" d="M1986.845,5744.378a7.963,7.963,0,0,0-1.556-6.378l-.156.155a7.794,7.794,0,0,1,1.245,6.378h0l-.778.156a13.03,13.03,0,0,0-3.889-5.289l-.156.311a14.6,14.6,0,0,1,3.578,5.134l-.311.312a21.8,21.8,0,0,0-4.667-2.334l-.156.311,1.089.468h-.155l.155.466h.156v-.466a15.193,15.193,0,0,1,3.423,2.022v.312a1.345,1.345,0,0,0,1.4,1.556,2.145,2.145,0,0,0,1.867-1.867A1.2,1.2,0,0,0,1986.845,5744.378Z" transform="translate(-1975.671 -5625.616)"/><path class="h" d="M1992,5755l.156.312Z" transform="translate(-1985.804 -5639.971)"/><path class="h" d="M1997.311,5748H1997v.155Z" transform="translate(-1990.026 -5634.061)"/><path class="h" d="M1996,5759v.156l.156.312h0Z" transform="translate(-1989.182 -5643.349)"/><path class="h" d="M2004.156,5753.621,2004,5753Z" transform="translate(-1995.937 -5638.282)"/><path class="h" d="M2000.156,5766H2000l.156.466h.155Z" transform="translate(-1992.56 -5649.261)"/><path class="h" d="M2008.156,5762.466,2008,5762Z" transform="translate(-1999.315 -5645.882)"/><path class="h" d="M2004,5774l.156.466h0Z" transform="translate(-1995.937 -5656.015)"/><path class="h" d="M2013.156,5769.312,2013,5769Z" transform="translate(-2003.537 -5651.793)"/><path class="h" d="M1988.156,5766.466,1988,5766Z" transform="translate(-1982.427 -5649.261)"/><path class="h" d="M1992,5780l.311.312Z" transform="translate(-1985.804 -5661.082)"/><path class="h" d="M1996.156,5772.467,1996,5772Z" transform="translate(-1989.182 -5654.326)"/><path class="h" d="M1997.467,5782l-.467.155v.154l.622-.31Z" transform="translate(-1990.026 -5662.771)"/><path class="h" d="M1979,5774l.156.311Z" transform="translate(-1974.827 -5656.015)"/><path class="h" d="M1982,5765.312v0Z" transform="translate(-1977.36 -5648.415)"/><path class="h" d="M1987.155,5745.467,1987,5745Z" transform="translate(-1981.582 -5631.527)"/><path class="h" d="M2019.155,5763.623,2019,5763Z" transform="translate(-2008.604 -5646.727)"/><path class="h" d="M2027,5765l.156.466Z" transform="translate(-2015.359 -5648.415)"/><path class="h" d="M2017.156,5757.31,2017,5757Z" transform="translate(-2006.915 -5641.661)"/><path class="h" d="M2026,5754l.156.466Z" transform="translate(-2014.515 -5639.127)"/><path class="h" d="M2017.156,5749.311,2017,5749Z" transform="translate(-2006.915 -5634.904)"/><path class="h" d="M2022,5745.156h0l.311-.155h0Z" transform="translate(-2011.137 -5631.527)"/><path class="h" d="M2012.156,5743.311,2012,5743Z" transform="translate(-2002.693 -5629.837)"/><path class="h" d="M2018.156,5737.311,2018,5737Z" transform="translate(-2007.759 -5624.771)"/><path class="h" d="M2011.156,5733.311,2011,5733Z" transform="translate(-2001.849 -5621.394)"/><path class="f" d="M2013.912,6214.427a7.568,7.568,0,0,1,3.734-2.646,6.127,6.127,0,0,1,3.267.623c1.867.777,3.889,1.4,5.445,2.956a5.862,5.862,0,0,1,1.4,2.334,6.393,6.393,0,0,1-1.4,5.443,23.916,23.916,0,0,1-3.889,4.047c-2.178,1.867-4.2,3.888-6.69,5.134-2.489,1.4-5.445,2.022-7.779.777C2000.844,6229.205,2010.49,6218,2013.912,6214.427Z" transform="translate(-1997.137 -6025.652)"/></svg>