<?xml version="1.0" encoding="utf-8"?>
<!-- Generator: Adobe Illustrator 22.1.0, SVG Export Plug-In . SVG Version: 6.00 Build 0)  -->
<svg version="1.1" id="Capa_1" xmlns="http://www.w3.org/2000/svg" xmlns:xlink="http://www.w3.org/1999/xlink" x="0px" y="0px"
	 viewBox="0 0 493.1 462.3" style="enable-background:new 0 0 493.1 462.3;" xml:space="preserve">
<style type="text/css">
	.st0{fill:#D4C19C;}
	.st1{fill:#C89A81;}
	.st2{fill:url(#SVGID_1_);}
	.st3{fill:url(#SVGID_2_);}
	.st4{fill:#2B2B2B;}
	.st5{fill:#EBEFEB;}
	.st6{fill:#662E2A;}
	.st7{fill:#333333;}
	.st8{fill:#5E5E5E;}
	.st9{fill:#537082;}
	.st10{fill:#D3E4EA;}
	.st11{fill:#736357;}
	.st12{fill:url(#SVGID_3_);}
	.st13{fill:#F5D5B5;}
	.st14{fill:#DADEDA;}
	.st15{fill:#D5AFCB;}
	.st16{fill:#AFD9C4;}
	.st17{fill:#F9D8C0;}
	.st18{fill:#999999;}
	.st19{fill:#494949;}
	.st20{fill:#D5D5D5;}
	.st21{fill:#D1A16D;}
</style>
<g transform="translate(4.23)">
	<ellipse class="st0" cx="245.1" cy="454.8" rx="53.5" ry="6"/>
	<ellipse class="st0" cx="425.1" cy="452.8" rx="53.5" ry="6"/>
	<path class="st1" d="M336,259.7c2.7-0.9,5.4-2,7.9-3.4c10.2-5.4,6.7,7.6-14.4,15c-1.8,0.7-4.3,1.1-5.1-0.3c-0.5-1,0-2.1,0.7-3
		C328,264.3,331,261,336,259.7z"/>
	
		<linearGradient id="SVGID_1_" gradientUnits="userSpaceOnUse" x1="187.6263" y1="682.9178" x2="188.6263" y2="682.9178" gradientTransform="matrix(117.6973 0 0 -15.0918 -21711.9434 10761.252)">
		<stop  offset="0" style="stop-color:#CCCCCC"/>
		<stop  offset="1" style="stop-color:#CCCCCC"/>
	</linearGradient>
	<path class="st2" d="M387.5,462.3L387.5,462.3z M371.2,458.8c0-0.4,0.1-0.8,0.3-1.1c2.1-4.4,6.9-6.9,11.7-8.1
		c5.2-1.4,10.6-2.3,16.1-2.4h1.7c28.2,1.2,56.3,1.7,84.6,2.5c1.2,0.1,2.7,0.3,3.2,1.5c0.1,0.1,0.1,0.3,0.1,0.5c0-0.2,0-0.4-0.1-0.5
		c-0.5-1.2-2-1.4-3.2-1.5c-28.3-0.8-56.4-1.3-84.6-2.5h-1.7c-5.4,0.1-10.8,1-16.1,2.4c-4.8,1.2-9.6,3.7-11.7,8.1
		c-0.2,0.3-0.3,0.6-0.3,1V458.8z"/>
	
		<linearGradient id="SVGID_2_" gradientUnits="userSpaceOnUse" x1="187.6258" y1="679.5434" x2="188.6258" y2="679.5434" gradientTransform="matrix(119.5879 0 0 -12.4038 -22241.9492 8881.8682)">
		<stop  offset="0" style="stop-color:#CCCCCC"/>
		<stop  offset="1" style="stop-color:#CCCCCC"/>
	</linearGradient>
	<path class="st3" d="M287.5,459.1L287.5,459.1z M195.8,453.9c0.1-1.5,0.8-2.9,2.1-3.8c1.5-1,3.1-1.7,4.9-2c5-1,10-1.4,15.1-1.4
		c9,0,18.2,1.1,26.9,1.5c15,0.7,30.1,1.4,45.2,2.1c7.3,0.4,14.7,0.7,22,1.1c1.3,0,2.9,0.3,3.4,1.5c0,0.2,0.1,0.5,0.1,0.7v-0.2
		c0-0.2-0.1-0.3-0.1-0.5c-0.5-1.2-2.1-1.5-3.4-1.5c-7.3-0.4-14.7-0.7-22-1.1c-15.1-0.7-30.2-1.4-45.2-2.1
		c-8.7-0.4-17.9-1.5-26.9-1.5c-5.1,0-10.1,0.4-15.1,1.4c-1.8,0.3-3.4,1-4.9,2C196.7,451,195.9,452.4,195.8,453.9L195.8,453.9z"/>
	<path class="st4" d="M354.9,249.2c3.7-2,7.3-4,10.2-7c2.3-2.7,4.2-5.7,5.7-8.9c3.4-6.2,6.2-12.7,8.5-19.4c1.5-4.5,2.7-9.2,5.9-12.9
		c3.1-3.6,9-5.4,12.6-2.4c2,1.8,3.2,4.3,3.1,7c-0.1,2.6-0.7,5.2-1.7,7.6c-4,11.3-10.4,21.6-16.7,31.7c-0.8,1.5-1.8,2.9-3,4.2
		c-1.6,1.5-3.5,2.7-5.5,3.6c-8.6,4.2-17.5,7.9-26.6,11.2c-2.2,0.7-4.4,1.7-6.7,2.4c-2.4,0.7-3.1,0.3-3.6-2.3c-0.8-3.3,1.2-5.3,3.8-7
		C345.4,254,350.3,252.1,354.9,249.2z"/>
	<path class="st5" d="M441.5,308.9c-0.4,0.9-0.7,1.9-1.1,2.8c-3,8.1-6.1,16.2-9,24.3c-2.6,7.3-7.6,17.8-4.9,25.6
		c0.7,1.6,1.6,3.2,2.8,4.5c6.5,8.4,15,15,23.9,20.8c3.1,2,6.3,4,9.6,5.8c3,1.7,6.2,2.3,5.3,6.3c-0.5,2.4-0.5,2.1-2.2,3.6
		c-2.2,1.8-5.1,1.1-7.6,0.3c-10.8-3.6-21.1-8.4-30.9-14.3c-10-6.1-20-14.1-23.9-26.3c-2.9-9.3-1.8-19.7-1.1-29.7
		c1-12.5,1.4-25,1.3-37.5c0-4.5,0.1-9.6,3.1-12.9c1.8-2,4.4-2.8,6.9-3.4c5.7-1.3,11.5-2.1,17.1-1.2c4.1,0.6,7.9,2.1,11.3,4.5
		c1.5,1,6.5-1,6.7,1c0.2,2.1-1.2,6.1-1.7,8.2C444,302.3,446.4,294.7,441.5,308.9z"/>
	<path class="st6" d="M475.5,400.6c-1.5-3.9-5.4-6.4-9.6-6.1c1.5,1.9,2.2,4.5,0.7,6.7c-1.6,2.1-4.6,2.7-6.9,1.4
		c-3.2,5.4-5,11.6-5.1,17.9c-0.1,1.4,0.1,2.8,0.8,4.1c1.4,1.9,4.3,2.1,6.4,1.1s3.6-2.9,5-4.8c2.2-3.2,4.3-6.4,6.3-9.7
		c1.1-1.8,2-3.8,2.7-5.9C476.1,403.7,476,402.1,475.5,400.6z"/>
	<path class="st5" d="M370.5,315.1c-3.1,10.2-6.2,20.5-6.3,31.2c0,9.5,2.4,18.8,5.1,28c3.8,12.6,8,25,12.8,37.2
		c2.3,6.2,4.9,12.2,7.5,18.2c1.4,3.4,3.6,12.4,8.1,12.7c1.8,0,3.6-0.7,5-1.9c0.9-0.5,1.6-1.3,2.1-2.2c0.8-1.5,0.3-3.3-0.2-5
		c-3.8-12.7-4-28.3-8.2-40.9c-1.2-3.6-2.5-7.2-3.6-10.8c-3.3-10.8-1.6-21.1,1.7-31.9c4.2-13.6,7.4-26.7,15-39.2
		c4.7-7.9,10.4-15.1,14.8-23.3c2.1-3.8-1.4-5.8-3.8-9.9c-2.1-3.5-5.9-5.8-9.5-7.3C380.3,257.1,376.6,295.2,370.5,315.1z"/>
	<path class="st6" d="M409.1,442.5c0.1-1.9-0.3-3.8-1.3-5.4c-0.4-0.9-0.9-1.7-1.4-2.5c-0.4-0.5-1.5-1.4-1.7-2
		c0.5,2.2-0.5,4.6-2.5,5.7c-1.8,0.7-3.7,0.8-5.6,0.4c-1.2,0-2.4-0.4-3.4-1.1c-1.4,0.4-1.5,0.9-2.2,2.2c-0.6,1-1.3,2-2,2.9
		c-1.4,1.8-3,3.4-4.8,4.8c-2.1,1.6-4.2,4.4-3.8,7.3c0.3,2.3,2.7,3.8,5.1,3.9c2.3,0.1,4.6-1,6.6-2.1c3.5-1.8,6.8-3.7,10.1-5.8
		c1.9-1.1,3.5-2.4,5-4C408.3,445.6,408.9,444.1,409.1,442.5z"/>
	<path class="st7" d="M380.1,196.4c4.6-1.4,9.2-2.8,13.8-4.3c2.2-0.7,4.4-1.4,6.7-1.1c2.4,0.2,4.6,1.5,6.8,2.7c4.5,2.5,9.2,5.2,13,9
		c3.8,3.7,6.7,8.5,9.3,13.3c12,22.6,19.3,47.5,21.4,73c0.2,1.4,0.1,2.8-0.3,4.1c-0.5,1.3-1.4,2.5-2.5,3.4
		c-8.1,6.7-18.8,7.4-28.9,7.7c-12.9,0.4-25.9,0.6-38.8-0.6c-3.2-0.2-6.5-0.8-9.6-1.6c-0.9-0.1-1.7-0.6-2.1-1.4
		c-0.3-0.8-0.4-1.7-0.2-2.5c1-6.9,2.4-13.8,3.1-20.8c1.9-17,0.1-34.2-3-50.9c-0.8-4.2-1.6-8.4-2.5-12.6c-0.6-2.9-3-8.6-2.4-11.5
		C365.1,197.3,376.1,197.7,380.1,196.4z"/>
	<path class="st1" d="M385.8,201.8c2.1-2.2,3.2-5.1,4.1-8c1.9-6.1,3.2-12.5,2.8-18.9c-0.5-6.5-2.8-12.9-7.4-17.4
		c-4.6-4.6-11.5-6.9-17.7-5c-7.2,2.1-11.9,9.5-12.7,17s1.8,14.9,5.4,21.5C364.7,199,376.8,211.3,385.8,201.8z"/>
	<path class="st1" d="M346.6,272c2.9-0.3,5.7-0.9,8.5-1.9c11.2-3.6,22.4-7.7,33.3-12.3c1.4-0.5,2.6-1.3,3.7-2.3
		c1.3-1.5,1.6-3.5,1.8-5.5c1.2-9.5,2.2-19,3.2-28.5c0.4-3.8,1-8,4.1-10.2c2.2-1.6,5-1.7,7.7-1.5c2.9,0.3,6.1,1,7.7,3.5
		c0.7,1.3,1.1,2.7,1.2,4.2c0.6,5.7-0.2,11.5-1,17.2c-1.1,6.9-2.2,13.7-3.4,20.5c-0.2,2.4-1,4.6-2.2,6.7c-2,2.8-5.5,4-8.8,5.1
		c-21.2,6.9-42.5,13.9-64.6,16.9c-1.9,0.3-4.4,0.1-4.9-1.7c-0.2-1.3,0.4-2.6,1.4-3.4C337.8,275.2,341.4,272.2,346.6,272z"/>
	<path class="st4" d="M355.6,281.4l0.3,0.7l0.7-0.1c6.1-1.7,12.3-3.5,18.5-5.2c10.5-3.1,21.1-6.1,31.7-9.2c2.4-0.6,5-1.4,6.5-3.3
		c1.1-1.4,1.8-3.1,2.1-4.9c3.6-14,5.8-28.3,6.6-42.7c0.2-1.6,0-3.2-0.4-4.7c-0.9-2.2-2.6-3.9-4.8-4.7c-2.1-0.8-4.4-1.1-6.7-1.1
		c-2.6-0.3-5.3,0.2-7.7,1.4c-4.1,2.3-5.5,7.4-6.6,11.9c-2.5,10.6-5,21.3-7.5,31.9c-0.2,1.3-0.7,2.6-1.5,3.6
		c-0.8,0.7-1.7,1.3-2.7,1.7c-7.2,3-14.4,6.1-21.6,9.1c-2,0.9-8.8,2.5-9.6,4.6c-0.4,1.1,0.9,4,1.2,5.2
		C354.6,277.5,355.1,279.5,355.6,281.4z"/>
	<path class="st8" d="M401.4,165.4c2-0.8,3.4-3.3,3.5-5.6c0.2-1.5-0.2-2.9-1.1-4.1c-1-1.1-2.6-1.4-3.9-0.6c1.5-2.1,1.9-4.9,0.9-7.3
		c-1.1-2.3-4.4-3.5-6.5-2c-0.3-2.2-2.7-3.6-5-3.6c-2.2,0.1-4.3,1.3-6.2,2.5c-0.8-2.1-3.3-3-5.5-2.7c-2.2,0.4-3.9,1.8-5.7,3.1
		c-3.3-3.4-6.6-1.3-9.5,1.2c-2.9,2.2-6.1,3.9-9.5,5.2c-2,0.8-5.7,1.7-6.9,3.7c-1.1,1.9,0.5,5.6,2.9,5.5c-6.1,1.2-4.1,10.1,1.3,9.5
		c-0.8,0.6-1.1,1.7-0.7,2.7c0.6,1.4,2.3,1.9,3.8,1.8c2.5-0.2,4.8-1.8,5.8-4.1c-0.4,1.4,1.9,2.1,3.3,1.6c2.2-0.8,4-2.6,4.6-4.9v1.7
		c1.4,0.7,3,1.1,4.6,1c1.2-0.1,2.3-0.8,3-1.8c0.1,1.3,1.1,2.3,2.3,2.6c1.7,0.3,3.4-0.5,4.9-1.2c0,1.2,0.4,2.7,1.6,2.9
		c0.5,0,1,0,1.4-0.2c1.4,0.1,2.6,1.3,2.7,2.7c0,1.4-0.3,2.8-1,4.1c0.5-1.1,2.3-0.6,2.6,0.5c0.3,1.1,0,2.2-0.7,3.1
		c-0.7,0.9-1.1,2-1.1,3.2c2.5,0.9,3.4,4.5,1.8,6.6c1.7,0.4,3.4-1.1,4.4-2.6c1-1.6,1.6-3.4,3-4.6c1.2-1,2.9-1.5,3.7-2.8
		c1-1.6,0.5-3.7-1.1-4.6c-0.2-0.1-0.5-0.3-0.8-0.4c3.5-0.2,5.6-4.3,5.5-7.8c0-1.2-0.4-2.5-1.1-3.5
		C402.5,165.8,402,165.5,401.4,165.4z"/>
	<path class="st1" d="M275.9,327.1c2.6-1.9,5-3.9,7.4-6.1c3.3-3.2,6.1-6.9,9.5-9.8c1.2-1.1,2.6-1.9,4.1-2.4c1.5-0.5,3.1-0.2,4.4,0.8
		c1.5,1.6,1.8,4,0.8,6c-1.1,1.9-2.5,3.5-4.3,4.7c-6.3,5.3-12.7,10.6-19,15.9c-3.3,2.8-7.3,5.7-11.5,4.8c-2.1-0.3-3.6-2.3-3.2-4.5
		c0.2-1.1,0.9-2.1,1.8-2.7c1.3-0.8,2.8-1.2,4.1-2.1C272,330.3,273.9,328.7,275.9,327.1z"/>
	<path class="st1" d="M287.8,408.1c-6.4-10.8-10.9-21.6-17.7-32.3c-2.8,0.7-5.4,2.1-7.6,4c-1.2,1.1-2.4,2.6-2.3,4.3
		c0.1,0.9,0.3,1.8,0.8,2.6c2.2,4.8,4.8,9.4,7.8,13.7c4.3,6.4,9.7,12.8,10.3,20.6c0.2,3.2-0.2,6.4-1,9.5c-0.5,2.7-1.3,5.4-2,8
		c-0.5,1.7-0.8,3.9,0.6,4.8c0.5,0.3,1.1,0.4,1.7,0.5c0.8,0.2,1.6,0.3,2.4,0.3c0.6,0,1.2-0.1,1.8-0.3c0.5-0.5,0.9-1.2,1.1-1.9
		c2.2-6.8,4.2-13.5,6.4-20.4c0.5-1.2,0.8-2.5,1-3.8C291.3,414.3,289.5,411.1,287.8,408.1z"/>
	<path class="st1" d="M241.8,413.4c-0.7,2.5-1.6,5-2.9,7.3c-1.4,1.9-3.1,3.5-5.2,4.7c-6.2,4.1-12.8,7.7-19.6,10.7
		c-0.5,0.2-1.2,0.6-1.3,1.2c-0.8,0.3-1.5-0.5-1.9-1.1c-0.9-1.4-1.6-2.9-2.1-4.4c-0.3-0.5-0.4-1.1-0.3-1.7c0.2-0.7,0.6-1.3,1.1-1.7
		c3.1-3.6,11.1-6.9,14.4-10.4c0.9-0.9,1.8-1.9,2.5-3c0.7-1.1,1.2-2.3,1.6-3.6c2.8-7.6-0.8-15.9,0.3-23.9c0.1-1,0.5-2,1-2.9
		c0.9-0.9,2.1-1.4,3.3-1.5c2.7-0.6,13.3-3,13.8,1.5c0.4,2.8-0.7,6.2-1,9c-0.4,3.1-0.8,6.2-1.1,9.3
		C243.8,406.4,242.9,410,241.8,413.4z"/>
	<path class="st9" d="M246.1,323.4c-2.8,1.9-3.8,5.1-4.9,8.1c-4.4,12.1-12.4,23.2-14.6,35.7c-1,5.7-0.7,11.5-1.9,17.2
		c-0.8,4.2-6.1,19.3-6.7,23.5c-0.3,1-0.2,2,0.3,2.9c0.6,0.7,1.3,1.2,2.1,1.6c4.1,1.8,8.9,2.2,13.5,2.4c3.7,0.1,7.5,0.2,11.3,0.1
		c0.7,0.1,1.4,0,2.1-0.3c1.1-0.6,1.8-1.6,2.1-2.8c1.3-3.9,5.6-19,5.4-23c-0.3-1.9-0.2-3.9,0.3-5.8c0.6-1.4,1.5-2.8,2.5-4
		c6.8-8.7,11.2-19.1,12.7-30.1c1-6.9,3.7-24.5-6.5-26.3C258.7,321.7,250.5,320.5,246.1,323.4z"/>
	<path class="st1" d="M244.3,291.6c-0.5,2.9-0.5,5.8,0.2,8.7c0.6,4,2,7.9,4.2,11.3c2.2,3.4,5.6,5.9,9.5,7c7,1.4,13.9-2.6,16.1-9.4
		c1.4-4.8,0.1-9.8-1.6-14.4c-1.4-4.1-3.1-8.3-6.2-11.4C258.6,275.2,246.4,281.3,244.3,291.6z"/>
	<path class="st10" d="M262.5,351.7c0.8,0,1.6-0.1,2.4-0.3c1.3-0.5,1.7-1.9,2.1-3.1c1-4.1,1.6-8.3,1.8-12.5c0.2-2.3,0.5-4.7-0.6-6.8
		c-1.6-3.3-5.8-4.9-9.7-5.5c-2-0.3-4.1-0.2-6.1,0.1c-2,0.4-3.8,1.4-5.1,3c-0.6,0.9-1.1,1.9-1.5,3c-0.7,1.8-1.4,3.6-2.1,5.3
		c-1.3,3.3-2.5,6.7-3.5,10.1c-0.4,1.5-0.4,3.2,1.4,3.8c2.1,0.6,4.2,1,6.3,1.3C252.7,351,257.6,351.6,262.5,351.7z"/>
	<path class="st1" d="M239,312c-4.3-7-7.2-15.2-9.8-23.5c-0.3-1-0.8-2.1-1.6-2.2h-1c-0.6-0.1-0.7-1-1-1.7c-0.4-1.6-2.1-2.5-3.6-2
		c-0.1,0-0.3,0.1-0.4,0.1c-1.8,1-2.8,3-2.6,5c0.1,1.9,1.3,3.3,2.1,4.9c1.2,2.6,2.2,5.2,2.9,8c0.7,3.2,1.2,6.9,2.7,9.5
		c6.1,10.5,12.9,20.8,22.3,26.9c0.5,0.4,1.1,0.7,1.8,0.6c0.6-0.2,1.9,0.1,3.1-0.8c3.1-2.2,4.3-7.6,2.6-9.8c-1.1-1.3-4.7-2.2-6.1-3.1
		C245.7,320.8,241.8,316.7,239,312z"/>
	<path class="st9" d="M238,381.5c4,6.1,10.4,10.5,14.9,16.3c1.3,1.7,2.4,3.5,3.5,5.3c1.3,2.1,2.6,4.3,4,6.4c0.3,0.6,0.7,1.2,1.3,1.5
		c1.1,0.5,2.2,0.5,3.3,0c4.5-1.2,8.9-3,13-5.3c4-2.2,7.2-5.7,9.1-9.9c0.5-1.2,0.8-2.4,0.6-3.7c-0.4-1.4-1-2.7-1.9-3.9
		c-4.7-6.8-9.3-13.6-13.9-20.4c-2.3-3.4-4.8-7-8.6-8.8c-3.3-1.5-7-1.7-10.5-0.8c-3.3,0.8-6.6,2.1-9.6,3.8c-2.3,1.2-4.6,2.3-6.8,3.4
		c-2.1,1-4,1.4-3.4,3.9C233.9,373.7,235.6,377.8,238,381.5z"/>
	<path class="st5" d="M216.5,436.3l0.1,0.3l-0.3,0.1c-0.7,0.2-1.5,0.3-2.2,0.4c-0.7,0.1-1.6,0.5-1.6,1.2c-0.7,0.2-1.4,0.1-2-0.3
		c-0.4-0.2-0.7-0.6-0.8-1c-1-1.9-1.8-3.9-2.5-6c-0.3-0.6-0.3-1.2-0.1-1.8c0.3-0.9,1.5-1.2,2.1-1.9c0.2-0.4,0.5-0.8,0.8-1.2l0.8-0.8
		c1.2-0.8,1.5-1.3,1.9,0.3c0.3,1.3,0.6,2.5,1,3.7s0.8,2.4,1.3,3.6C215.4,433.7,216.5,435.4,216.5,436.3z"/>
	<path class="st11" d="M210.9,437.1c0.4,0.6,0.6,1.4,0.5,2.1l-0.6,0.9c-1,1.4-0.8,3.5-0.3,5.2c0.7,1.7,1.1,3.5,1.4,5.3l-0.1,0.8
		c-0.2,0.3-0.5,0.6-0.8,0.9c-1.2,0.9-2.6,1.9-4.1,1.5c-0.9-0.3-1.6-0.9-2.1-1.6c-1.1-1.5-2-3.1-2.5-4.9c-0.7-1.8-1.2-3.6-1.7-5.5
		c-0.7-2.5-1.3-4.9-2-7.4c-0.4-1.4-0.7-3.1,0.2-4.2c0.5-0.5,1.1-0.8,1.7-1c1.4-0.6,2.8-1.2,4.3-1.6c0.4-0.1,1.7-0.8,2.1-0.6
		s0.6,1.4,0.7,1.8C208.6,431.6,209.7,434.4,210.9,437.1z"/>
	<path class="st5" d="M281.1,439.4c0.6,0,1.2,0.1,1.8,0.3c0.6,0.2,1,0.6,1.3,1.1c0.2,0.8,0.1,1.6-0.3,2.3c-0.4,0.5-0.5,1.1-0.3,1.7
		l0.2,0.3c0.1,0.4-0.5,0.6-0.9,0.6c-2.7,0-5.5,0.1-8-1l-0.5-0.3l-0.2-0.8c0.1-1.1,0.1-3.9,1.3-4.4c0.8-0.2,1.7-0.2,2.5,0
		C279,439.2,280.1,439.3,281.1,439.4z"/>
	<path class="st11" d="M282.5,445.2c0.8,0.1,1.8,0.2,2.2,0.9c0.3,0.5,0.3,1.1,0.6,1.6c0.5,0.5,1.1,0.8,1.7,0.9
		c1.8,0.5,3.6,0.9,5.4,1.3c0.5,0.1,1,0.2,1.5,0.5c1,0.8,0.7,2.3,1,3.5c0.1,0.4,0.3,0.7,0.2,1c0,0.7-0.6,1.3-1.3,1.3
		c-0.7,0.2-1.4,0.1-2-0.1c-6.1-1-12.4,0.4-18.6-0.6l-0.7-0.3c-0.3-0.2-0.3-0.6-0.3-0.9c-0.2-2.8-0.1-5.5,0.3-8.3
		c0.2-2.4,1.9-1.6,3.7-1.5C278.3,444.8,280.4,445,282.5,445.2z"/>
	<path class="st7" d="M273,283.8c0.5-0.6,0.6-1.4,0.4-2.2c-0.2-1.3-0.4-2.7-1.5-3.6s-3.3-0.7-3.6,0.6c0.1-1.9-1.9-3.6-4.1-3.7
		c-2.1,0-4.1,1.1-5.2,2.9c-1.9-1.6-4.4-2.3-6.9-1.8c-2.3,0.5-4.3,2-5.4,4.1c-1.5-1.2-3.6-1.4-5.3-0.4c-1.3,0.8-2,2.3-1.7,3.8
		c-0.5-0.5-1.2-0.8-1.9-0.6c-1,0.3-1.7,1.2-1.8,2.2c0,1,0.2,1.9,0.6,2.8c0.2,0.4-1.6,0.9-0.3,2c-0.8,0.6-0.9,1.8-0.4,2.6
		c1,1,2.3,1.5,3.7,1.5l-0.5,0.4c-0.9,1.7,1.2,3.8,3.2,3.5c2-0.2,3.6-1.9,3.7-3.9c0,1.4,2.2,2,3.5,1.4c1.2-0.8,2-2.1,2.2-3.5
		c-0.3,0.9,1,1.6,2,1.7c3.1,0.2,5.9-1.5,7.1-4.4c0.6,1.7,2.3,2.8,4.1,2.6c1.5-0.1,2.8-1.2,3.2-2.6c0.2,0.6,0.8,1.1,1.5,1.2
		c1-0.1,1.9-0.5,2.5-1.3c1.1-1.3,1.6-3,1.2-4.7L273,283.8z"/>
</g>
<g transform="translate(-930.067 -1846.645)">
	<ellipse class="st0" cx="985.3" cy="2225.1" rx="53.5" ry="6"/>
	
		<linearGradient id="SVGID_3_" gradientUnits="userSpaceOnUse" x1="1120.0002" y1="2537.3213" x2="1121.0002" y2="2537.3213" gradientTransform="matrix(104.8898 -7.357 -0.7832 -11.1666 -114548.0703 38801.9023)">
		<stop  offset="0" style="stop-color:#CCCCCC"/>
		<stop  offset="1" style="stop-color:#CCCCCC"/>
	</linearGradient>
	<path class="st12" d="M962.6,2232.9l3.7-0.3l0.1-0.1l6.6-0.5l0.1-0.1l0,0l-0.1,0.1l-6.6,0.5l-0.1,0.1L962.6,2232.9L962.6,2232.9z
		 M962.5,2232.9l-3.2,0.2l-0.4-0.1l-3.5,0.2l-0.4-0.1l-1.6,0.1l-0.4-0.1l-1.2,0.1l-0.4-0.1l-0.7,0l-0.4-0.1l-0.4,0l-0.3-0.1l-0.7,0
		l-0.4-0.1l-0.3,0l-0.3-0.1l-0.3,0l-0.3-0.1l-0.4,0l-0.3-0.1l-0.2,0l-0.3-0.1l0,0l-0.3-0.1l-0.3,0l-0.3-0.1l0,0l-0.2-0.1l-0.3,0
		l-0.2-0.1l0,0l-0.2-0.1l-0.3,0l-0.2-0.1l0,0l-0.2-0.1l0,0l-0.2-0.1l0,0l-0.2-0.1l0,0l-0.2-0.1l0,0l-0.2-0.1l0,0l-0.2-0.1l0,0
		l-0.1-0.1l0,0l-0.2-0.1l-0.1-0.1l-0.2-0.1l-0.1-0.1l-0.1-0.1l-0.1-0.1l0.1,0.1l0.1,0.1l0.1,0.1l0.2,0.1l0.1,0.1l0.2,0.1l0,0
		l0.1,0.1l0,0l0.2,0.1l0,0l0.2,0.1l0,0l0.2,0.1l0,0l0.2,0.1l0,0l0.2,0.1l0,0l0.2,0.1l0,0l0.2,0.1l0.3,0l0.2,0.1l0,0l0.2,0.1l0.3,0
		l0.2,0.1l0,0l0.3,0.1l0.3,0l0.3,0.1l0,0l0.3,0.1l0.2,0l0.3,0.1l0.4,0l0.3,0.1l0.3,0l0.3,0.1l0.3,0l0.4,0.1l0.7,0l0.3,0.1l0.4,0
		l0.4,0.1l0.7,0l0.4,0.1l1.2-0.1l0.4,0.1l1.6-0.1l0.4,0.1l3.5-0.2l0.4,0.1L962.5,2232.9L962.5,2232.9z M973.4,2231.9l5.3-0.4l0-0.1
		l9-0.6l0.1,0.1l0,0l-0.1-0.1l-9,0.6l0,0.1L973.4,2231.9z M987.9,2230.9l6.2-0.4l0.1,0.1l0,0l-0.1-0.1L987.9,2230.9z M997.2,2230.3
		l3.1-0.2l0.5-0.1l7.6-0.5l0.4-0.1l5.4-0.4l0.5-0.1l4.9-0.3l0.5-0.1l0,0l-0.5,0.1l-4.9,0.3l-0.5,0.1l-5.4,0.4l-0.4,0.1l-7.6,0.5
		l-0.5,0.1L997.2,2230.3L997.2,2230.3z M941.4,2230.7l0-0.3l0,0l0.1-0.2l0,0l0-0.3l0,0l0-0.2l0.1,0l0-0.2l0.1-0.2l0,0l0-0.2l0.1-0.1
		l0-0.2l0.1-0.2l0.1,0l0.1-0.2l0,0l0.1-0.2l0.1-0.1l0-0.1l0,0l0.2-0.1l0.1-0.2l0,0c0.2-0.2,0.3-0.4,0.5-0.5l0-0.1l0.1,0l0.1-0.1
		l0.2-0.2l0,0l0.2-0.1l0-0.1l0.1,0l0.1-0.1l0.2-0.2l0.1,0l0.2-0.1l0.2-0.2l0.1,0l0.2-0.1l0.2-0.2l0,0c0.3-0.1,0.5-0.3,0.8-0.5l0,0
		l0.2-0.1l0,0l0.3-0.1l0.1-0.1l0.2,0l0-0.1l0.2-0.1l0.1,0l0.2-0.1l0.1,0l0.2-0.1l0.3-0.1l0.1,0l0.2-0.1l0.1,0l0.1-0.1l0.1,0l0.2-0.1
		l0.3,0l0.1-0.1l0.2,0l0.3-0.1l0.1,0l0.2-0.1l0.1,0l0.2-0.1l0.3,0l0.1-0.1l0.3,0l0.1-0.1l0.4,0l0.2-0.1l0.3,0l0.1-0.1l0.6,0l0.1-0.1
		l0.5,0l0.2-0.1l0.2,0c0.4,0,0.8-0.2,1.2-0.2l0,0c-0.4,0-0.8,0.2-1.2,0.2l-0.2,0l-0.2,0.1l-0.5,0l-0.1,0.1l-0.6,0l-0.1,0.1l-0.3,0
		l-0.2,0.1l-0.4,0l-0.1,0.1l-0.3,0l-0.1,0.1l-0.3,0l-0.2,0.1l-0.1,0l-0.2,0.1l-0.1,0l-0.3,0.1l-0.2,0l-0.1,0.1l-0.3,0l-0.2,0.1
		l-0.1,0l-0.1,0.1l-0.1,0l-0.2,0.1l-0.1,0l-0.3,0.1l-0.2,0.1l-0.1,0l-0.2,0.1l-0.1,0l-0.2,0.1l0,0.1l-0.2,0l-0.1,0.1l-0.3,0.1l0,0
		l-0.2,0.1l0,0c-0.2,0.2-0.5,0.3-0.8,0.5l0,0l-0.2,0.2l-0.2,0.1l-0.1,0l-0.2,0.2l-0.2,0.1l-0.1,0l-0.2,0.2l-0.1,0.1l-0.1,0l0,0.1
		l-0.2,0.1l0,0l-0.2,0.2l-0.1,0.1l-0.1,0l0,0.1c-0.2,0.1-0.3,0.3-0.5,0.5l0,0l-0.1,0.2l-0.2,0.1l0,0l0,0.1l-0.1,0.1l-0.1,0.2l0,0
		l-0.1,0.2l-0.1,0l-0.1,0.2l0,0.2l-0.1,0.1l0,0.2l0,0l-0.1,0.2l0,0.2l-0.1,0l0,0.2l0,0l0,0.3l0,0l-0.1,0.2l0,0L941.4,2230.7z
		 M955.4,2222.1c4.7,0,9.2,1.8,14,1.5C964.6,2223.9,960.1,2222.1,955.4,2222.1z M1046,2219.7L1046,2219.7L1046,2219.7z M1046,2219.6
		L1046,2219.6L1046,2219.6L1046,2219.6l0-0.2l-0.1,0l0-0.1l0,0l0-0.1l0,0l0-0.1l0,0l0-0.1l0,0l0-0.1l0,0l0,0.1l0,0l0,0.1l0,0l0,0.1
		l0,0l0,0.1l0,0l0,0.1l0.1,0L1046,2219.6L1046,2219.6C1046,2219.5,1046,2219.6,1046,2219.6z M1045.8,2218.9c-0.1,0-0.1,0-0.1-0.1
		C1045.7,2218.9,1045.7,2218.9,1045.8,2218.9z"/>
	<path class="st13" d="M984.9,1952.4c-0.8,2.1-1.8,4.2-3,6.2c-3.3,6-6.7,11.9-10.3,17.8c-0.2,0.4-0.5,0.7-0.8,1
		c-0.4,0.1-0.9,0-1.2-0.2c-0.9-0.3-1.7-0.6-2.7-0.9l-0.6-0.4c-0.2-0.5-0.1-1.1,0.2-1.5c4.3-8.5,8.7-17.6,8.9-27.2
		c0-2.2-0.1-4.5-0.2-6.8c-0.1-1.6,0-3.5,1.3-4.6c0.8-0.6,1.8-0.9,2.8-0.9c1.3-0.1,5-0.9,6.1,0.2c0.9,0.9,0.6,4,0.7,5.2
		C986.5,1944.3,986.1,1948.4,984.9,1952.4z"/>
	<path class="st13" d="M1016.8,1896.1c0.9-0.3,2-0.6,2.6,0l0.6,0.6c1.1,0.8,2.6-0.7,3.9-0.4c0.6,0.2,1.1,0.7,1.3,1.3
		c0.6,1.6-0.5,3.4-1.9,4.2c-1.6,0.7-3.2,1.1-4.9,1c-6.8,0.4-13.6,0.7-20.3,0.4c-1.4,0-3-0.3-3.6-1.6c-0.6-1.4,0-3,1.4-3.6
		c0.1-0.1,0.3-0.1,0.4-0.1c2.1-0.2,4.7,0.6,6.9,0.5C1007.8,1898.5,1012.4,1897.7,1016.8,1896.1z"/>
	<path class="st14" d="M991.1,1896.1c1.3,0.3,2.6,0.4,3.9,0.3c0.7-0.1,1.3,0,1.9,0.3c1,0.6,1,2.2,0.7,3.6c-0.2,0.9-0.5,1.7-0.8,2.6
		c-0.2,0.6-0.5,1.2-1,1.7c-0.4,0.2-0.8,0.4-1.3,0.4c-2.6,0.6-5.2,0.7-7.8,0.3c-0.7,0-1.4-0.2-1.9-0.6c-0.8-0.6-1.4-1.4-1.7-2.4
		c-0.6-1.7-1.4-5,0.4-6.2C985.5,1894.5,988.9,1895.7,991.1,1896.1z"/>
	<path class="st13" d="M936.8,1884.2c-0.5-0.4-1-0.5-1.6-0.5c-0.4,0.1-0.7,0.5-1.1,0.8c-0.6,0.2-1.2-0.1-1.9-0.1
		c-1.7,0.1-2.4,2.4-1.7,3.9c0.9,1.4,2.2,2.5,3.8,3c9.1,4.2,19.1,6.2,29.2,6l0.7-0.1l0.4-0.8c0.2-1,0.3-3-0.5-3.9
		c-0.7-0.6-2.3-0.4-3.3-0.5c-2.8-0.2-5.6-0.6-8.3-1.3C946.8,1889.5,941.5,1887.3,936.8,1884.2z"/>
	<path class="st15" d="M940.6,1976.7c-0.4-0.9-1-1.6-1.4-2.5c-0.5-0.9-0.4-2,0.2-2.8l0.6-0.6c0.1-0.6-0.2-1.2-0.8-1.4
		c-0.6-0.3-1.3-0.4-1.9-0.3l0.3-0.3c-0.3-1.5-0.7-3.1-2-4c-0.8-0.5-1.8-0.5-2.7-0.2c-0.9,0.3-1.6,1.1-1.8,2
		c-0.1,0.7-0.1,1.4-0.1,2.1c0.3,1.7,0.6,3.3,1,4.9c0.4,1.8,1.1,3.6,2.3,5.1c1.3,1.4,3.4,2.3,5.1,1.4c0.4-0.1,0.7-0.3,1-0.6
		C940.9,1978.7,941,1977.6,940.6,1976.7z"/>
	<path class="st13" d="M963.7,1949.7c0,0.4,0,0.8-0.1,1.2c-0.2,0.6-0.6,0.9-1,1.4c-5.8,5.4-12.4,9.7-19.1,14c-1.5,1.1-3,1.9-4.7,2.5
		l-0.8,0.1l-0.5-0.7c-0.2-0.5-0.5-1-0.7-1.5c-0.3-0.3-0.4-0.8-0.3-1.2l0.5-0.7c3.6-3.9,7.5-7.5,11.6-10.8c0.9-0.6,1.7-1.5,2.3-2.5
		c0.3-1,0.4-2,0.3-3c-0.4-6.1-1-12.3-1.5-18.3c-0.2-1.1-0.1-2.3,0.3-3.3c0.4-0.6,0.8-1.1,1.4-1.5c2.1-1.7,8.9-5.1,10.9-1.8
		c1.1,1.9,0.7,5.4,0.8,7.5c0.1,2.9,0.3,5.9,0.4,8.8C963.5,1943.1,963.6,1946.4,963.7,1949.7z"/>
	<path class="st16" d="M970.2,1936.7c0.2,1.6,1.1,3.1,2.5,3.9c0.8,0.4,1.7,0.5,2.5,0.4c3.1,0,6.2-0.4,9.1-1.2c0.5-0.1,1-0.4,1.3-0.8
		c0.4-0.5,0.6-1.1,0.5-1.7c-0.2-3.6-2.4-6.8-3.3-10.4c-0.1-0.5-0.3-1.1-0.5-1.6c-0.8-0.8-1.8-1.3-2.9-1.3c-2.4-0.4-4.9-0.6-7.1,0.7
		c-1.9,1.2-3.3,3.1-3.6,5.4c-0.3,0.9-0.3,1.9,0.1,2.8C969.4,1934.1,969.8,1935.4,970.2,1936.7z"/>
	<path class="st16" d="M948.6,1931.8c0.6,2.1-3.5,6.2-2.8,8.2c0.2,0.7,0.6,1.4,1,2c0.6,0.7,1.4,1.3,2.3,1.5
		c4.1,0.7,14.2,0.1,18.2-1.1c0.7-0.2,1.3-0.6,1.7-1.1c0.7-1,0.3-2.4-0.2-3.6c-1.4-4.6,2.8-6.9,2.5-11.7c-0.1-1.5-4.8-5.7-5.8-6.7
		c-0.5-0.6-1.1-1.1-1.9-1.3c-4.5-1.8-9.6-0.8-13.1,2.5C946.8,1924.1,947.2,1927.4,948.6,1931.8z"/>
	<path class="st5" d="M979.5,1894.2c2.2,0.5,4.8,0.4,6.5,1.8c0.8,0.8,1.4,1.9,1.8,3c1,2.1,1.8,4.5,1.5,6.8c-0.4,3.3-2.8,6-4.2,9
		c-1.1,2.5-1.5,5.2-1.2,7.9c0.2,1.4,0.6,2.8,0.7,4.2c0.1,1.4-0.5,2.7-1.4,3.7c-2,1.5-4.9,0.1-7.4,0.2c-3.5,0-6.6,2.8-10.1,2.5
		c-2.8-0.3-5-2.5-7.6-3.6c-2.3-1.1-4.8-1.3-7.3-0.6c-0.8,0.3-1.7,0.4-2.6,0.3c-1.8-0.6-2-3.1-1.7-4.9c0.3-3.1,1-6.1,2.1-9
		c1.1-2.9,3.2-5.3,5.8-6.8c1.6-0.9,3.6-1.4,5.2-2.5c3.2-2.1,4.3-6.2,5.4-9.8c0.7-2.3,3-8.7,6.2-8.7c1.6,0.1,2.1,2.3,3.1,3.4
		C975.9,1892.7,977.6,1893.7,979.5,1894.2z"/>
	<path class="st6" d="M1023.2,1958.6c-0.7-1.8-1.7-3.6-3.3-4.6c-1.7-1-3.7-0.8-5.6-0.7c-1-0.1-2,0.2-2.7,0.9c-0.5,0.5-0.8,1.2-1,1.9
		c-1.5,5.3-3.1,10.6-4.7,16c-0.3,0.8-0.3,1.7,0,2.5c0.5,0.9,1.7,1.1,2.7,1.2c4.5,0.7,9,1.4,13.5,2c1.7,0.3,4,0.6,5.7-0.4
		c2.1-1.2,1.4-2.6,0.9-4.8C1027.2,1967.8,1025.4,1963.1,1023.2,1958.6z"/>
	<path class="st17" d="M945.3,1951.9c-0.6,1.6-0.8,3.4-0.5,5.1c0.5,2.5,2.6,4.2,4.4,6c3.7,3.7,6.3,8.2,9.5,12.2
		c2.3,2.9,4.9,5.6,7.6,8.2c1.7,1.8,3.6,3.7,5.3,5.4c0.8,0.9,1.7,1.6,2.7,2c2.2,0.8,4.4-0.4,6.2-1.7c1.5-1.1,2.9-2.4,4.2-3.7
		c0.9-0.9,1.6-2,2.1-3.2c0.8-3-1.2-5.9-3.5-8c-3.2-3-6.9-5.2-10.4-7.7c-2.9-2.1-5.6-4.4-8.3-6.7c-2.7-2.4-5.4-5.3-5.9-8.9
		c-0.4-2.6-0.8-5.5-0.2-7.9c0.7-2.9,0.8-6.5,1.4-9.3c0.9-5.5,1.8-11,2.3-16.5c0.1-0.6,0-1.1-0.4-1.6c-1.6-1.4-3.5-1.6-4.8,0.2
		c-1.8,2.7-3.7,8.8-4.6,11.8C950,1935.7,947,1943.7,945.3,1951.9z"/>
	<path class="st18" d="M959.6,2098.4c-3.7,8.2-8,16.5-8,25.4c0,4.3,1,8.6,1.9,12.8c5.5,25.5,9.9,53.7,12.9,79.5
		c3,0.2,3.9,0.9,6.9,1.1c1,0.1,1.9,0,2.8-0.5c0.8-0.8,1.2-1.8,1.2-2.9c1.8-17.3,2.4-37.7,0.4-54.9c-1.1-8.7-2.6-17.7-1.2-26.5
		c1.3-8,11.4-14,15.2-21.2c3.3-6.1,6.8-12.3,11.3-17.6c6-7.1,7.6-14.1,12.4-22.1c2.1-3.4,3.3-8.1,0.8-11.1c-1.3-1.3-3-2.3-4.8-2.8
		c-6.9-2.5-14-4.2-21.3-5.1c-3.1-0.4-7.7-1.5-10.8-0.7c-3.8,0.9-3.3,1.5-4.5,5.6C970.7,2071.4,965.6,2085.1,959.6,2098.4z"/>
	<path class="st18" d="M1026.8,2074.8c1,4.9,1.5,9.9,1.5,14.9c-0.3,7.8-2.5,15.4-4.3,23c-7.7,31.9-7.3,65.2-6.9,98.1
		c-4.2,0.5-8.3,0.9-12.4,1.4c-2-25.8-4-51.6-6-77.4c-0.4-5.8-0.9-11.7-2.9-17.1c-2.6-7-7.6-13-9.2-20.4c-1.7-7.7,0.8-15.7,3.5-23.2
		c3.6-9.9,10.5-25.6,23.6-24.6C1024.6,2050.4,1025.4,2066.9,1026.8,2074.8z"/>
	<path class="st17" d="M1014,1946.7c0.5-4.9,0.8-10.2-0.6-15.1c-1.2-4.8-4.3-9.5-8.8-11.6c-6.1-2.9-13.8-0.5-18.3,4.3
		c-4.6,4.9-6.4,11.9-6.4,18.5c0,2.5,0.3,5,0.9,7.5c2.2,7.2,11.3,18.8,19.9,17.6C1009.8,1966.6,1013.3,1954.1,1014,1946.7z"/>
	<path class="st6" d="M1031.7,1985.3c-0.6-6.6-2.4-14.3-8-16.1c-2.3-0.7-4.6-0.3-7,0.2c-4.4,0.9-8.8,1.8-13.2,2.7
		c-4.6,0.9-9.5,1.9-14.2,1.7c-0.8-1.5-1.9-2.7-3.3-3.7c-2.9-2.2-6-4.2-9.2-6c-0.7-0.4-1.5-0.7-2.4-0.9c-1-0.2-1.9-0.2-2.9,0
		c-2.8,0.5-5.4,1.5-7.8,3c-4.3,0.9-8.5,7.3-8.6,12.1c0,4.5,3.3,8.3,6.7,10.9s7.2,4.7,9.6,8.3c4.3,6.4,2.8,15.2,1.7,23
		c-1.7,12.5-6.7,25.3-5,37.9c0.2,2.1,0.8,4.1,1.8,6c1.8,3.1,10.5,4.4,13.8,4.5c3.4,0.2,6.7-0.6,10.1-0.4c5.7,0.3,11.2,3.2,16.9,4.4
		c5.7,1.2,16.7,0.9,19.5-4.7c1-2.3,1.6-4.7,1.7-7.2C1035,2036.2,1033.8,2010.3,1031.7,1985.3z"/>
	<path class="st19" d="M975.5,2215.6c0.4,0.1,0.8,0.2,1.1,0.5l0.4,0.9c0.9,2.9,1.2,5.9,1.1,8.8c0,0.3-0.1,0.6-0.2,0.9
		c-0.3,0.3-0.8,0.6-1.3,0.7c-3.6,0.9-7.3,1-10.9,0.4c-3.6-0.5-7.1-1.5-10.7-1.9c-1.6,0-3.3-0.2-4.9-0.7c-1.5-0.6-2.8-1.7-2.8-3
		c0-0.6,0.2-1.1,0.5-1.6c0.6-1.4,1.4-3.1,2.9-3.9c1.5-0.8,3.3-1,5-0.6c1.7,0.2,3.4,0.7,5.1,0.7c2.5,0.2,3.9-1.5,6.2-1.5
		C969.8,2215.1,972.6,2215.2,975.5,2215.6z"/>
	<path class="st19" d="M994.1,2211.8c1.3-0.8,3-1,4.5-0.6c1,0.3,2,0.8,3,1.3c0.5,0.2,1.1,0.3,1.6,0.2c0.6-0.1,1.1-0.6,1-1.1l0-0.8
		l0.6-0.2c3.1-0.8,6.3-1.3,9.5-1.4c0.9-0.2,1.9,0.1,2.7,0.6c0.4,0.3,0.7,0.8,0.8,1.2c0.4,0.9,0.6,1.8,0.6,2.8
		c0.4,2.8,0.5,5.6,0.3,8.4c0,0.4,0,0.8-0.2,1.1c-0.3,0.5-0.9,0.8-1.4,1c-2.5,0.8-5,1.3-7.6,1.4c-0.7,0.1-1.3,0.1-2,0
		c-0.9-0.2-1.7-0.6-2.5-1.1c-3.4-1.8-6.9-3.4-10.5-4.6c-1.6-0.6-4.3-1.8-3.8-4.1c0.2-0.7,0.9-1.3,1.4-1.9
		C992.5,2213.2,993.3,2212.4,994.1,2211.8z"/>
	<path class="st13" d="M974.7,1875.6c1.1-4.7,2.8-9.5,6.4-12.9c3.6-3.4,9.2-5,13.4-2.5c4.2,2.3,5.9,7.7,5,12.4
		c-0.8,4.7-3.7,8.8-6.9,12.3c-3.2,3.4-8.7,7.7-13.6,4.9C974,1886.7,973.5,1880.9,974.7,1875.6z"/>
	<path class="st5" d="M939.8,1966.3c0.3,0.4,0.5,0.8,0.7,1.3l0.1,0.4l-0.3,0.4c-0.6,0.4-1.5,0.5-2.1,1l-0.8,0.6l-0.9,0.1l-0.4-0.4
		c-0.6-0.7-1.1-1.4-1.6-2.2l-0.4-0.8c0-0.7,0.5-1.1,1-1.5c0.6-0.4,1.9-1.6,2.6-1.6C938.6,1963.6,939.4,1965.6,939.8,1966.3z"/>
	<path class="st17" d="M956.6,1911.6c-0.5-1.3-0.9-2.6-1.2-3.9l0-0.8l0.5-0.7c0.7-0.8,1.5-1.6,2.3-2.3c0.4-0.4,0.8-0.6,1.3-0.8
		c0.5-0.2,1.1-0.1,1.5,0.3c0.3,0.4,0.5,0.9,0.6,1.4c0.1,0.5,0.4,1,0.9,1l0.7,0.1c0.5,0.1,0.9,0.7,0.8,1.2c0,0.5-0.2,1-0.4,1.5
		c-0.2,0.4-0.3,0.9-0.3,1.3c-0.3,1.7-1.1,5.7-1.2,7.4c-0.1,0.4-0.1,0.9-0.5,1.1l-0.4,0.1c-1.1,0.2-3.6-0.3-4.5-1.3
		c-0.4-0.4-0.3-1.2-0.3-1.7C956.4,1914.7,957,1912.4,956.6,1911.6z"/>
	<path class="st17" d="M982.3,1919.6c-0.4-0.2-0.8-0.5-1.1-0.9c-0.4-0.3-0.4-0.9-0.1-1.3l0.5-0.3c1.9-0.8,3.4-2.3,4.3-4.1
		c0.3-0.6,0.6-1.3,1.2-1.4c0.6-0.1,1,0.3,1.3,0.8c0.1,0.5,0.2,1.1,0.3,1.6c0.5,1.7,2,2.7,3.1,4c0.6,0.5,0.9,1.2,0.8,1.9
		c-0.1,0.7-0.5,1.4-1.1,1.9c-0.7,0.7-1.6,1.3-2.6,1.6c-1.2,0.5-2.6,0.2-3.5-0.8C984.5,1921.5,983.5,1920.5,982.3,1919.6z"/>
	<path class="st20" d="M981.9,1927.7c-0.9,2.2-2,4.3-3.2,6.3c-1.4,2.9-2,6.2-1.8,9.5c0,1.4,0.4,2.7,1.2,3.8c0.9,1.1,2.4,1.6,3.6,2.6
		c1,0.8,1.8,1.8,2.4,2.8c2.9,4.2,5.3,8.6,7.2,13.3c0.2,0.8,0.7,1.5,1.3,2c0.8,0.4,1.7,0.6,2.5,0.5l9.3-0.4c1,0.1,2-0.1,3-0.5
		c1.4-0.7,2-2.2,3-3.5c2.7-4.1,7.7-7,8.4-11.9c0.4-2-0.2-4.2-0.1-6.3c0.2-1.9,0.5-3.8,1-5.6c0.3-1.9,0.4-3.8,0.5-5.6
		c0.1-2.4,0.3-4.8,0.3-7.2c0.1-0.8,0-1.6-0.3-2.3c-0.4-0.4-0.8-0.8-1.3-1.1c-6.4-4.2-13.9-6.6-21.6-6.8c-3.2,0-7.3,0.2-10.1,1.7
		C983.8,1920.8,983,1924.4,981.9,1927.7z"/>
	<path class="st14" d="M967.1,1888.2c-1.7,0.5-3.4,1.1-5.1,1.8c-1.7,0.6-3.6,0.7-5.4,0.3c-0.7,2.3-0.4,4.8,0.6,7
		c0.1,0.4,0.4,0.7,0.7,1c0.3,0.1,0.7,0.1,1,0.1c3.7-0.1,7.3-0.2,11-0.5c0.9-0.1,2-0.1,2.3-1c0.3-0.3,0.2-0.8,0.3-1.2
		c0-1.6,0.5-5.1-0.4-6.5C971.3,1887.7,968.6,1887.9,967.1,1888.2z"/>
	<path class="st21" d="M1000.1,1864.7c-0.3-0.8-0.7-1.5-1.2-2.2c-1.1-1.3-2.7-1.8-4.3-2.5c-1.1-0.8-2.4-1.5-3.7-2.1
		c-0.9-0.4-1.9-0.6-2.9-0.5c-2.1-1.8-5.1-2-7.4-0.5c-1.4,1-2.4,2.6-3.9,3.6c-1.1,0.7-2.3,1-3.5,1.5c-1.8,0.9-2.2,1.8-1.7,2.4
		c-0.6,0.3-1.1,0.7-1.5,1.1c-1.6,1.8-2.2,4.2-1.5,6.5c0.4,1.1,1.1,2.2,0.9,3.4c-0.2,1.9-2.3,3.5-2.2,5.5c0.1,1.1,0.6,2.2,1.3,3.1
		c1.7,2.5,3,5.3,3.8,8.3c0.6,3,0.8,6.1,0.5,9.2c-0.1,4.1-0.2,8.1-0.4,12.1c0,0.7,0.1,1.5,0.4,2.2c0.6,1.1,1.8,1.7,3,1.6
		c1.2-0.2,2.3-0.5,3.3-1c-0.6-1.5-1.3-3-0.8-4.5c0.4-1.4,1.7-2.4,2.5-3.7c0.9-1.6,1-3.5,0.2-5.2c-0.4-0.8-1-1.5-1.4-2.4
		c-2.1-4.7,3.4-10.1,1.8-14.9c-0.5-1.7-1.8-3-2.5-4.5c-1.5-3,0-5.7,1.2-8.2c0.7,0.1,1.3,0.6,1.5,1.3c0.8,0,1.6,0,2.4,0.1l0.8,0.2
		c0.3,0.2,0.6,0.8,1,0.9c0.7,0.2,1.6-0.9,2.2-0.5l0.3,0.6c0.5,1.2,2,1.4,3.3,1.2c0.5-0.2,1.1-0.2,1.6-0.2c1.1,0.2,1.8,1.4,2.7,1.8
		c0.7,0.2,1.5,0.3,2.2,0.1c0.5-0.1,1-0.2,1.4-0.5c0.8-0.6,1.3-1.5,1.4-2.5C1001.7,1872,1001.4,1868.2,1000.1,1864.7z"/>
	<path class="st21" d="M999.7,1883.3c-0.5,3.1-1.9,6.1-2.7,9.2s-0.9,6.6,0.8,9.3c1.4,2.3,4,3.9,4.5,6.5c0.6,2.2-0.6,4.4-1.7,6.2
		c-2.2-0.7-4.4-0.9-6.7-0.6c0.6-2.8,1.1-5.7,0.3-8.3c-0.8-2.4-2.4-4.3-2.7-6.8c-0.1-2,0.6-3.9,1.3-5.8c1.5-4.7,2-9.6,1.4-14.5
		c-0.2-1-0.1-2.1,0.3-3.1c1.2-2.5,3.5-0.5,4.3,1C999.9,1878.4,1000.2,1880.9,999.7,1883.3z"/>
</g>
</svg>
