<svg xmlns="http://www.w3.org/2000/svg" xmlns:xlink="http://www.w3.org/1999/xlink" width="297.262" height="320.351" viewBox="0 0 297.262 320.351"><defs><style>.a{fill:#d4c19c;}.b{fill:#c89a81;}.c,.d{fill-rule:evenodd;}.c{fill:url(#a);}.d{fill:url(#b);}.e{fill:#2b2b2b;}.f{fill:#ebefeb;}.g{fill:#662e2a;}.h{fill:#333;}.i{fill:#5e5e5e;}.j{fill:#537082;}.k{fill:#d3e4ea;}.l{fill:#736357;}</style><linearGradient id="a" y1="0.5" x2="1" y2="0.5" gradientUnits="objectBoundingBox"><stop offset="0" stop-color="#ccc"/><stop offset="1" stop-color="#ccc"/></linearGradient><linearGradient id="b" x1="0" y1="0.502" x2="1" y2="0.502" xlink:href="#a"/></defs><g transform="translate(4.23)"><ellipse class="a" cx="53.5" cy="6" rx="53.5" ry="6" transform="translate(-4.23 306.857)"/><ellipse class="a" cx="53.5" cy="6" rx="53.5" ry="6" transform="translate(175.77 304.857)"/><path class="b" d="M13.848,2.039A42.493,42.493,0,0,0,22.34.473C33.527-2.5,27.133,9.378,4.957,11.852c-1.9.248-4.4.083-4.895-1.4-.3-1.072.5-2.061,1.395-2.8C5.055,4.678,8.652,2.2,13.848,2.039Z" transform="matrix(0.974, -0.225, 0.225, 0.974, 126.227, 118.859)"/><path class="c" d="M24563.385,8157.086h0Zm-16.387-3.5a2.614,2.614,0,0,1,.3-1.1c2.1-4.4,6.895-6.894,11.691-8.092a67.285,67.285,0,0,1,16.082-2.4h1.7c28.172,1.2,56.344,1.7,84.617,2.5,1.2.1,2.7.3,3.2,1.5a.739.739,0,0,1,.1.5.739.739,0,0,0-.1-.5c-.5-1.2-2-1.4-3.2-1.5-28.273-.8-56.445-1.3-84.617-2.5h-1.7a67.285,67.285,0,0,0-16.082,2.4c-4.8,1.2-9.594,3.7-11.691,8.092a2.243,2.243,0,0,0-.3,1Z" transform="translate(-24371.658 -7836.735)"/><path class="d" d="M22405.711,8149.389h0Zm-91.711-5.2a4.934,4.934,0,0,1,2.1-3.8,11.813,11.813,0,0,1,4.895-2,74.255,74.255,0,0,1,15.086-1.4c8.988,0,18.184,1.1,26.875,1.5,14.984.7,30.07,1.4,45.152,2.1,7.293.4,14.688.7,21.98,1.1,1.3,0,2.9.3,3.4,1.5,0,.2.1.5.1.7v-.2a4.441,4.441,0,0,1-.1-.5c-.5-1.2-2.1-1.5-3.4-1.5-7.293-.4-14.687-.7-21.98-1.1-15.082-.7-30.168-1.4-45.152-2.1-8.691-.4-17.887-1.5-26.875-1.5a74.255,74.255,0,0,0-15.086,1.4,11.813,11.813,0,0,0-4.895,2A4.934,4.934,0,0,0,22314,8144.193Z" transform="translate(-22314 -7832.235)"/><path class="e" d="M18.219,51.4c3.7-1.9,7.395-3.9,10.293-6.794a39.88,39.88,0,0,0,5.895-8.792A124.72,124.72,0,0,0,43.2,16.532c1.6-4.5,2.895-9.191,6.094-12.788,3.2-3.5,9.09-5.2,12.688-2.2a8.95,8.95,0,0,1,3,7.094,22.223,22.223,0,0,1-1.8,7.592C58.98,27.421,52.387,37.611,45.895,47.6a18.378,18.378,0,0,1-3.1,4.1,18.2,18.2,0,0,1-5.594,3.5A257.882,257.882,0,0,1,10.43,65.885c-2.2.7-4.4,1.6-6.7,2.3-2.395.7-3.1.2-3.594-2.4-.7-3.3,1.3-5.295,3.895-6.894C8.629,56.094,13.625,54.2,18.219,51.4Z" transform="translate(139.944 56.122) rotate(-1)"/><path class="f" d="M24891.859,6471.818c-.4.9-.7,1.9-1.1,2.8-3,8.093-6.094,16.185-8.992,24.277-2.6,7.293-7.59,17.782-4.895,25.575a16.156,16.156,0,0,0,2.8,4.5c6.5,8.392,14.984,14.985,23.879,20.779,3.094,2,6.293,4,9.59,5.795,3,1.7,6.2,2.3,5.3,6.294-.5,2.4-.5,2.1-2.2,3.6-2.2,1.8-5.094,1.1-7.594.3a157,157,0,0,1-30.867-14.286c-9.992-6.095-19.984-14.087-23.883-26.275-2.895-9.291-1.793-19.681-1.1-29.672,1-12.488,1.4-24.976,1.3-37.464,0-4.5.1-9.591,3.1-12.888,1.8-2,4.395-2.8,6.895-3.4,5.691-1.3,11.488-2.1,17.082-1.2a25.168,25.168,0,0,1,11.289,4.5c1.5,1,6.492-1,6.691,1,.2,2.1-1.2,6.094-1.7,8.192C24894.359,6465.225,24896.758,6457.632,24891.859,6471.818Z" transform="translate(-24646.189 -6304.921)"/><path class="g" d="M25402.66,7619.573a9.433,9.433,0,0,0-9.59-6.094c1.5,1.9,2.2,4.5.7,6.693a5.294,5.294,0,0,1-6.895,1.4,36.381,36.381,0,0,0-5.094,17.883,7.232,7.232,0,0,0,.8,4.1c1.4,1.9,4.293,2.1,6.395,1.1s3.594-2.9,4.992-4.795c2.2-3.2,4.3-6.394,6.3-9.691a26.124,26.124,0,0,0,2.7-5.894A8.284,8.284,0,0,0,25402.66,7619.573Z" transform="translate(-25123.025 -7360.964)"/><path class="f" d="M24483.293,6389.573c-3.094,10.19-6.2,20.48-6.293,31.17,0,9.491,2.4,18.782,5.094,27.974,3.8,12.588,8,24.976,12.789,37.164,2.3,6.194,4.895,12.188,7.492,18.183,1.4,3.4,3.6,12.388,8.09,12.688a7.972,7.972,0,0,0,5-1.9,5.536,5.536,0,0,0,2.1-2.2c.8-1.5.3-3.3-.2-5-3.793-12.687-3.992-28.272-8.191-40.86-1.2-3.6-2.5-7.193-3.6-10.79-3.293-10.79-1.6-21.08,1.7-31.87,4.2-13.586,7.395-26.675,14.988-39.162,4.7-7.893,10.387-15.085,14.785-23.277,2.1-3.8-1.4-5.795-3.8-9.891-2.1-3.5-5.895-5.795-9.492-7.293C24493.184,6331.628,24489.387,6369.692,24483.293,6389.573Z" transform="translate(-24308.656 -6216.482)"/><path class="g" d="M24668.227,8004.891a9.237,9.237,0,0,0-1.3-5.395,20.949,20.949,0,0,0-1.4-2.5c-.4-.5-1.5-1.4-1.7-2a5.151,5.151,0,0,1-2.5,5.7,9.647,9.647,0,0,1-5.594.4,5.74,5.74,0,0,1-3.395-1.1c-1.4.4-1.5.9-2.2,2.2a29.605,29.605,0,0,1-2,2.9,27.269,27.269,0,0,1-4.793,4.8c-2.1,1.6-4.2,4.4-3.8,7.292.3,2.3,2.7,3.8,5.094,3.9,2.3.1,4.594-1,6.594-2.1,3.5-1.8,6.793-3.7,10.09-5.795a21.379,21.379,0,0,0,5-4A7.97,7.97,0,0,0,24668.227,8004.891Z" transform="translate(-24454.924 -7704.422)"/><path class="h" d="M24489.322,5581.752c4.6-1.4,9.2-2.8,13.789-4.3,2.2-.7,4.395-1.4,6.7-1.1,2.4.2,4.594,1.5,6.793,2.7,4.492,2.5,9.191,5.194,12.988,8.991,3.793,3.7,6.691,8.491,9.289,13.287a187.938,187.938,0,0,1,21.379,73.03,9.313,9.313,0,0,1-.3,4.1,8.619,8.619,0,0,1-2.5,3.4c-8.094,6.693-18.781,7.393-28.871,7.692-12.887.4-25.875.6-38.762-.6a53.42,53.42,0,0,1-9.594-1.6,2.791,2.791,0,0,1-2.1-1.4,4.259,4.259,0,0,1-.2-2.5c1-6.893,2.4-13.787,3.1-20.78,1.9-16.983.1-34.167-3-50.851-.8-4.2-1.594-8.393-2.5-12.589-.6-2.9-3-8.592-2.4-11.488C24474.338,5582.651,24485.33,5583.052,24489.322,5581.752Z" transform="translate(-24305.092 -5527.349)"/><path class="b" d="M24414.563,5235.235c2.1-2.2,3.2-5.1,4.094-7.992,1.9-6.094,3.2-12.488,2.8-18.882-.5-6.494-2.8-12.888-7.395-17.384-4.594-4.6-11.488-6.893-17.684-5-7.2,2.1-11.887,9.491-12.687,16.984s1.8,14.885,5.395,21.479C24393.383,5232.438,24405.473,5244.727,24414.563,5235.235Z" transform="translate(-24224.537 -5175.437)"/><path class="b" d="M24176.207,5827.459a36.005,36.005,0,0,0,8.492-1.9c11.188-3.6,22.375-7.693,33.266-12.289a10.942,10.942,0,0,0,3.7-2.3c1.3-1.5,1.6-3.5,1.8-5.5,1.2-9.491,2.2-18.982,3.2-28.473.4-3.8,1-7.992,4.1-10.19,2.2-1.6,5-1.7,7.7-1.5,2.895.3,6.094,1,7.691,3.5a9.732,9.732,0,0,1,1.2,4.2c.6,5.694-.2,11.489-1,17.184-1.1,6.894-2.2,13.687-3.4,20.48a16.572,16.572,0,0,1-2.2,6.693c-2,2.8-5.5,4-8.793,5.095-21.18,6.895-42.461,13.887-64.637,16.884-1.9.3-4.4.1-4.895-1.7a3.8,3.8,0,0,1,1.395-3.4C24167.414,5830.655,24171.012,5827.658,24176.207,5827.459Z" transform="translate(-24025.445 -5697.427)"/><path class="e" d="M24366.016,5804.929l.3.7.7-.1c6.094-1.7,12.289-3.5,18.48-5.2,10.492-3.1,21.082-6.095,31.668-9.191,2.4-.6,5-1.4,6.5-3.3a11.226,11.226,0,0,0,2.1-4.895,220.393,220.393,0,0,0,6.594-42.659,12.3,12.3,0,0,0-.4-4.7,8.235,8.235,0,0,0-4.8-4.7,18.832,18.832,0,0,0-6.691-1.1,14.33,14.33,0,0,0-7.691,1.4c-4.1,2.3-5.5,7.393-6.6,11.889-2.5,10.59-5,21.279-7.492,31.869a7.268,7.268,0,0,1-1.5,3.6,11.049,11.049,0,0,1-2.7,1.7c-7.191,3-14.387,6.094-21.582,9.091-2,.9-8.789,2.5-9.586,4.595-.4,1.1.895,4,1.2,5.2C24365.016,5801.032,24365.516,5803.03,24366.016,5804.929Z" transform="translate(-24206.264 -5665.506)"/><path class="i" d="M24343.7,5109.871c2-.8,3.4-3.3,3.5-5.594a5.463,5.463,0,0,0-1.1-4.1,3.07,3.07,0,0,0-3.895-.6,7.652,7.652,0,0,0,.9-7.293c-1.1-2.3-4.4-3.5-6.492-2-.3-2.2-2.7-3.6-5-3.6-2.2.1-4.3,1.3-6.2,2.5-.8-2.1-3.3-3-5.5-2.7-2.2.4-3.895,1.8-5.691,3.1-3.3-3.4-6.594-1.3-9.492,1.2a38.068,38.068,0,0,1-9.492,5.195c-2,.8-5.7,1.7-6.895,3.7-1.1,1.9.5,5.594,2.9,5.494-6.1,1.2-4.1,10.09,1.3,9.491a2.327,2.327,0,0,0-.7,2.7c.6,1.4,2.3,1.9,3.793,1.8a7,7,0,0,0,5.8-4.1c-.4,1.4,1.9,2.1,3.3,1.6a7.261,7.261,0,0,0,4.594-4.9v1.7a9.592,9.592,0,0,0,4.6,1,3.968,3.968,0,0,0,3-1.8,2.965,2.965,0,0,0,2.3,2.6c1.7.3,3.4-.5,4.9-1.2,0,1.2.4,2.7,1.6,2.9a3.4,3.4,0,0,0,1.4-.2,2.982,2.982,0,0,1,2.7,2.7,8.514,8.514,0,0,1-1,4.1c.5-1.1,2.3-.6,2.6.5a3.552,3.552,0,0,1-.7,3.1,5.618,5.618,0,0,0-1.1,3.2c2.5.9,3.4,4.5,1.8,6.593,1.7.4,3.4-1.1,4.4-2.6,1-1.6,1.6-3.4,3-4.6,1.2-1,2.9-1.5,3.7-2.8a3.369,3.369,0,0,0-1.8-5c3.5-.2,5.594-4.3,5.5-7.793a6.328,6.328,0,0,0-1.1-3.5A2.855,2.855,0,0,0,24343.7,5109.871Z" transform="translate(-24138.088 -5086.438)"/><path class="b" d="M23009.016,6772.544a85.667,85.667,0,0,0,7.391-6.094c3.3-3.2,6.094-6.895,9.492-9.791a11.315,11.315,0,0,1,4.1-2.4,4.921,4.921,0,0,1,4.395.8,5.266,5.266,0,0,1,.8,5.994,14.67,14.67,0,0,1-4.3,4.7c-6.293,5.3-12.687,10.591-18.98,15.885-3.3,2.8-7.293,5.7-11.488,4.8a3.9,3.9,0,0,1-1.4-7.193c1.3-.8,2.8-1.2,4.1-2.1C23005.117,6775.741,23007.016,6774.143,23009.016,6772.544Z" transform="translate(-22928.891 -6587.465)"/><path class="b" d="M22986.521,7459.27c-6.395-10.79-10.891-21.58-17.686-32.27a17.932,17.932,0,0,0-7.59,4c-1.2,1.1-2.4,2.6-2.3,4.3a5.658,5.658,0,0,0,.8,2.6,87.841,87.841,0,0,0,7.793,13.688c4.295,6.394,9.691,12.787,10.291,20.58a30.886,30.886,0,0,1-1,9.49c-.5,2.7-1.3,5.4-2,7.992-.5,1.7-.8,3.9.6,4.8a4.788,4.788,0,0,0,1.7.5,9.876,9.876,0,0,0,2.4.3,3.791,3.791,0,0,0,1.8-.3,4,4,0,0,0,1.1-1.9c2.2-6.794,4.193-13.487,6.393-20.381a16.31,16.31,0,0,0,1-3.8C22990.018,7465.464,22988.219,7462.267,22986.521,7459.27Z" transform="translate(-22894.506 -7193.168)"/><path class="b" d="M22474.029,7519.68a30.855,30.855,0,0,1-2.9,7.293,15.7,15.7,0,0,1-5.2,4.7,132.8,132.8,0,0,1-19.582,10.69c-.5.2-1.2.6-1.3,1.2-.8.3-1.5-.5-1.9-1.1a19.618,19.618,0,0,1-2.1-4.4,3.253,3.253,0,0,1-.3-1.7,3.568,3.568,0,0,1,1.1-1.7c3.1-3.6,11.09-6.893,14.385-10.39a18.03,18.03,0,0,0,2.5-3,16.419,16.419,0,0,0,1.6-3.6c2.8-7.593-.8-15.885.3-23.877a7.139,7.139,0,0,1,1-2.9,5.593,5.593,0,0,1,3.295-1.5c2.7-.6,13.289-3,13.787,1.5.4,2.8-.7,6.194-1,8.991-.4,3.1-.8,6.194-1.1,9.291A69.635,69.635,0,0,1,22474.029,7519.68Z" transform="translate(-22428.072 -7248.283)"/><path class="j" d="M22562.947,6885.538c-2.8,1.9-3.8,5.095-4.895,8.093-4.4,12.088-12.387,23.178-14.586,35.665-1,5.7-.7,11.489-1.9,17.184-.8,4.2-6.1,19.282-6.693,23.478a4.118,4.118,0,0,0,.3,2.9,5.581,5.581,0,0,0,2.1,1.6c4.1,1.8,8.893,2.2,13.488,2.4,3.7.1,7.492.2,11.289.1a4.871,4.871,0,0,0,2.1-.3,4.256,4.256,0,0,0,2.1-2.8c1.3-3.9,5.6-18.981,5.395-22.978a16.009,16.009,0,0,1,.3-5.795,16.776,16.776,0,0,1,2.5-4,62.7,62.7,0,0,0,12.688-30.07c1-6.895,3.7-24.478-6.492-26.275C22575.537,6883.84,22567.344,6882.641,22562.947,6885.538Z" transform="translate(-22512.695 -6704.155)"/><path class="b" d="M22795.738,6475.895a21.2,21.2,0,0,0,.2,8.691,28.685,28.685,0,0,0,4.2,11.289,16.753,16.753,0,0,0,9.49,6.993,13.963,13.963,0,0,0,16.086-9.391c1.4-4.795.1-9.791-1.6-14.387-1.4-4.1-3.1-8.292-6.2-11.389C22810.025,6459.51,22797.838,6465.6,22795.738,6475.895Z" transform="translate(-22747.285 -6326.282)"/><path class="k" d="M22778.34,6930.6a6.6,6.6,0,0,0,2.4-.3c1.3-.5,1.7-1.9,2.1-3.1a74.868,74.868,0,0,0,1.8-12.488c.2-2.3.5-4.7-.6-6.794-1.6-3.3-5.793-4.9-9.691-5.5a20.764,20.764,0,0,0-6.094.1,8.745,8.745,0,0,0-5.094,3,12.116,12.116,0,0,0-1.5,3c-.7,1.8-1.4,3.6-2.1,5.295a101.022,101.022,0,0,0-3.5,10.09c-.4,1.5-.4,3.2,1.4,3.8a44.113,44.113,0,0,0,6.293,1.3A101.831,101.831,0,0,0,22778.34,6930.6Z" transform="translate(-22711.705 -6720.843)"/><path class="b" d="M22565.783,6522.006c-4.295-6.992-7.191-15.186-9.789-23.478-.3-1-.8-2.1-1.6-2.2h-1c-.6-.1-.7-1-1-1.7a2.932,2.932,0,0,0-4-1.9,5.312,5.312,0,0,0-2.6,5c.1,1.9,1.3,3.3,2.1,4.9a39.956,39.956,0,0,1,2.895,7.992c.7,3.2,1.2,6.894,2.7,9.49,6.094,10.49,12.889,20.781,22.281,26.875a2.326,2.326,0,0,0,1.795.6c.6-.2,1.9.1,3.1-.8,3.1-2.2,4.295-7.593,2.6-9.79-1.1-1.3-4.7-2.2-6.1-3.1A37.121,37.121,0,0,1,22565.783,6522.006Z" transform="translate(-22522.627 -6352.013)"/><path class="j" d="M22689.984,7269.548c4,6.095,10.391,10.49,14.887,16.284a60.579,60.579,0,0,1,3.5,5.295c1.3,2.1,2.6,4.3,4,6.395a3.173,3.173,0,0,0,1.3,1.5,4.2,4.2,0,0,0,3.3,0,59.121,59.121,0,0,0,12.988-5.295,21.224,21.224,0,0,0,9.09-9.891,6.751,6.751,0,0,0,.6-3.7,11.805,11.805,0,0,0-1.9-3.9c-4.7-6.793-9.293-13.587-13.885-20.381-2.3-3.4-4.8-6.993-8.594-8.791a15.834,15.834,0,0,0-10.49-.8,40,40,0,0,0-9.59,3.8c-2.3,1.2-4.6,2.3-6.795,3.4-2.1,1-4,1.4-3.4,3.9A37.009,37.009,0,0,0,22689.984,7269.548Z" transform="translate(-22647.824 -7030.021)"/><path class="f" d="M22435.016,7926.224l.1.3-.3.1a16.953,16.953,0,0,1-2.2.4c-.7.1-1.6.5-1.6,1.2a2.692,2.692,0,0,1-2-.3,2,2,0,0,1-.8-1,39.735,39.735,0,0,1-2.5-5.994,2.277,2.277,0,0,1-.1-1.8c.3-.9,1.5-1.2,2.1-1.9a11.827,11.827,0,0,1,.8-1.2l.8-.8c1.2-.8,1.5-1.3,1.9.3.3,1.3.6,2.5,1,3.7s.8,2.4,1.3,3.6C22433.914,7923.627,22435.016,7925.326,22435.016,7926.224Z" transform="translate(-22414.332 -7631.95)"/><path class="l" d="M22350.791,7948.769a2.859,2.859,0,0,1,.5,2.1l-.6.9c-1,1.4-.8,3.5-.3,5.194a22.9,22.9,0,0,1,1.4,5.295l-.1.8a3.452,3.452,0,0,1-.8.9c-1.2.9-2.6,1.9-4.1,1.5a4.113,4.113,0,0,1-2.1-1.6,16.2,16.2,0,0,1-2.5-4.9,57.412,57.412,0,0,1-1.7-5.5c-.7-2.5-1.3-4.9-2-7.393-.4-1.4-.7-3.1.2-4.2a4.25,4.25,0,0,1,1.7-1,31.52,31.52,0,0,1,4.295-1.6c.4-.1,1.7-.8,2.1-.6s.6,1.4.7,1.8A84.346,84.346,0,0,0,22350.791,7948.769Z" transform="translate(-22335.707 -7653.695)"/><path class="f" d="M23105.891,8059.773a5.689,5.689,0,0,1,1.8.3,2.372,2.372,0,0,1,1.3,1.1,3.068,3.068,0,0,1-.3,2.3,1.742,1.742,0,0,0-.3,1.7l.2.3c.1.4-.5.6-.9.6-2.7,0-5.5.1-8-1l-.5-.3-.2-.8c.1-1.1.1-3.9,1.3-4.4a5.257,5.257,0,0,1,2.5,0C23103.793,8059.574,23104.895,8059.674,23105.891,8059.773Z" transform="translate(-23020.574 -7762.402)"/><path class="l" d="M23088.172,8112.832c.8.1,1.8.2,2.2.9.3.5.3,1.1.6,1.6a3.513,3.513,0,0,0,1.7.9c1.8.5,3.6.9,5.395,1.3a3.821,3.821,0,0,1,1.5.5c1,.8.7,2.3,1,3.5.1.4.3.7.2,1a1.4,1.4,0,0,1-1.3,1.3,3.381,3.381,0,0,1-2-.1c-6.1-1-12.389.4-18.582-.6l-.7-.3c-.3-.2-.3-.6-.3-.9a38.179,38.179,0,0,1,.3-8.292c.2-2.4,1.9-1.6,3.7-1.5C23083.977,8112.432,23086.072,8112.632,23088.172,8112.832Z" transform="translate(-23001.453 -7809.666)"/><path class="h" d="M22749.168,6425.892a2.369,2.369,0,0,0,.4-2.2c-.2-1.3-.4-2.7-1.5-3.6s-3.3-.7-3.6.6c.1-1.9-1.9-3.6-4.1-3.7a6.22,6.22,0,0,0-5.2,2.9,8.165,8.165,0,0,0-6.893-1.8,7.677,7.677,0,0,0-5.4,4.1,4.659,4.659,0,0,0-5.295-.4,3.544,3.544,0,0,0-1.7,3.8,1.885,1.885,0,0,0-1.9-.6,2.574,2.574,0,0,0-1.8,2.2,5.664,5.664,0,0,0,.6,2.8c.2.4-1.6.9-.3,2a2,2,0,0,0-.4,2.6,5.2,5.2,0,0,0,3.7,1.5l-.5.4c-.9,1.7,1.2,3.8,3.2,3.5a4.165,4.165,0,0,0,3.7-3.9c0,1.4,2.2,2,3.5,1.4a4.788,4.788,0,0,0,2.2-3.5c-.3.9,1,1.6,2,1.7a7.089,7.089,0,0,0,7.094-4.4,3.88,3.88,0,0,0,4.1,2.6,3.645,3.645,0,0,0,3.2-2.6,1.877,1.877,0,0,0,1.5,1.2,3.437,3.437,0,0,0,2.5-1.3,5.416,5.416,0,0,0,1.2-4.7Z" transform="translate(-22672.039 -6284.071)"/></g></svg>