<svg xmlns="http://www.w3.org/2000/svg" xmlns:xlink="http://www.w3.org/1999/xlink" width="211.54" height="258.082" viewBox="0 0 211.54 258.082"><defs><style>.a,.j{fill-rule:evenodd;}.a{fill:url(#a);}.b{fill:#fff;}.c{fill:#d1ac9d;}.d{fill:#e6dbc4;}.e{fill:#9d2449;}.f{fill:#736357;}.g{fill:rgba(209,225,232,0.6);}.h{fill:#f3f3f3;}.i{fill:#d4c19c;}.j{fill:url(#b);}.k{fill:#f2f2f2;}.l{fill:#ffe0d6;}.m{fill:#aa6a64;}.n{fill:#d2d3d5;}.o{fill:#fcee9f;}.p{fill:#494949;}</style><linearGradient id="a" x1="0.264" y1="-2.339" x2="0.735" y2="3.339" gradientUnits="objectBoundingBox"><stop offset="0" stop-color="#ccc"/><stop offset="1" stop-color="#ccc"/></linearGradient><linearGradient id="b" x1="0" y1="0.5" x2="1.001" y2="0.5" xlink:href="#a"/></defs><g transform="translate(0 -10.456)"><path class="a" d="M1882.731,2958.271h1.369v-.085h1.369v-.086h0v.086H1884.1v.085h-1.369Zm0,0Zm-.428,0c-14.714-.428-23.354-.428-34.3-.77C1858.95,2957.844,1867.59,2957.844,1882.3,2958.271Zm3.507-.171h1.967l.342-.086h2.909l1.283-.085h4.962v-.085h6.159l.342-.086h0l-.342.086h-6.159v.085h-4.962l-1.283.085h-2.909l-.342.086h-1.967Zm21.557-.342c3.593-.085,7.1-.256,10.693-.428C1914.469,2957.5,1910.961,2957.672,1907.368,2957.758Zm10.693-.428h.171l.085-.085h1.112l.086-.085h1.2v-.086h.941l.086-.086h.941l.085-.085h0l-.085.085h-.941l-.086.086h-.941v.086h-1.2l-.086.085h-1.112l-.085.085h-.171Zm5.218-.428a4.1,4.1,0,0,0,1.454-.427A4.1,4.1,0,0,1,1923.28,2956.9Zm-18.307-5.731c1.112,0,2.224-.086,3.336-.086-1.112,0-2.224.086-3.336.086Zm3.336-.086h.513l.085-.085h0l-.085.085h-.513Zm3.336-.085Zm-7.271.171h-.171l-.256-.086h-6.159l-.171-.085h0l.171.085h6.159l.256.086h.171Zm-15.141-.171Zm-.6,0h0Z" transform="translate(-1848 -2689.733)"/><g transform="translate(142.716 10.456)"><path class="b" d="M3.018,31.6a4.94,4.94,0,0,0,2.918-1.93,20.638,20.638,0,0,0,3.353-4.824c.869-1.633,1.676-3.414,2.422-5.2l2.98-7.125A38.789,38.789,0,0,0,16.367,8a9.28,9.28,0,0,0,.435-5.2C16.305,1.1,14.877-.311,13.449.06c-1.242.3-2.049,1.781-2.732,3.117C7.8,9.188,4.88,15.274,1.9,21.285A31.9,31.9,0,0,0,.472,24.7C-.335,27.371-.46,31.972,3.018,31.6Z" transform="matrix(-0.978, 0.208, -0.208, -0.978, 35.416, 107.403)"/><path class="c" d="M433.09,668.49a7.732,7.732,0,0,0-8.043-7.49c-4.482,0-8.1,3.315-8.1,7.49a6.918,6.918,0,0,0,.307,1.965v.553a22.092,22.092,0,0,0,.368,4.482,10.112,10.112,0,0,0,4.85,7.122,6.273,6.273,0,0,0,3.131.982,5.858,5.858,0,0,0,3.929-1.781c3.438-3.131,3.745-7.92,3.5-12.4A4.646,4.646,0,0,0,433.09,668.49Z" transform="translate(-389.868 -609.246)"/><path class="d" d="M309.268,1097.724l-.061-14.919c0-5.034-1.289-10.437-2.087-15.41a15.369,15.369,0,0,0-2.394-6.2c-.184-.307-.246-.553-2.026-1.105a6.384,6.384,0,0,0-1.842-.552c-2.394.368-4.85-.43-7.245-.062-2.517.368-6.753-.8-8.718.8-2.64,2.087-2.824,7.122-3.254,10.376-.553,4.482-1.9,8.964-2.149,13.384-.246,3.929-.368,7.859-.43,11.726,0,.491-.061,1.167-.061,1.965Z" transform="translate(-257.573 -983.163)"/><path class="b" d="M550.461,1051.512c.123-.184.246-.368.184-.553-.061-.123-.246-.184-.368-.245-.737-.307-1.412-.553-2.087-.8a1.016,1.016,0,0,0-.737,0l-.246.245c-.43.553-.859,1.167-1.289,1.719l-.184.307.246.307a14.734,14.734,0,0,1,1.289,1.473c.307.307.675,1.167,1.228.8.491-.307.614-1.167.859-1.6A12.974,12.974,0,0,1,550.461,1051.512Z" transform="translate(-515.343 -974.218)"/><path class="b" d="M443.527,1050.6a5.811,5.811,0,0,0,.307,1.105l.061.123.43-.184a16.086,16.086,0,0,1,2.763-3.008,1.741,1.741,0,0,0,.553-.614.643.643,0,0,0-.061-.737,1.234,1.234,0,0,0-.491-.246c-.368-.123-.8-.246-1.228-.368a1.449,1.449,0,0,0-.737-.061,1.3,1.3,0,0,0-.614.245c-.491.246-1.842.86-1.9,1.412,0,.307.43.8.553,1.105A5.489,5.489,0,0,1,443.527,1050.6Z" transform="translate(-406.076 -971.159)"/><path class="b" d="M303,1623.123l.061-.123Z" transform="translate(-252.84 -1512.184)"/><g transform="translate(30.646 78.545)"><path class="e" d="M521.5,1098.1v-.184l.061-.061a2.991,2.991,0,0,1,2.026-.43l.246.061.184.184a1.893,1.893,0,0,1,0,1.167,3.3,3.3,0,0,1-.614.982l-.061.123h-.184C522.175,1099.938,521.684,1098.771,521.5,1098.1Z" transform="translate(-517.949 -1097.383)"/><path class="e" d="M531.9,1150.592a10.513,10.513,0,0,0-1.473,5.28,54.319,54.319,0,0,1-.307,5.464,12.977,12.977,0,0,1-1.351,3.929c-1.105,2.087-.367,4.338-1.1,6.548a1.382,1.382,0,0,0-.061.86,1.4,1.4,0,0,0,.43.614c1.167,1.351-.247,2.354.552,3.889,1.474-.737,2.947-1.474,4.482-2.21.307-.184.614-.307.737-.614a1.971,1.971,0,0,0-.061-.859c-1.289-5.219,0-10.683-.061-16.086a45.166,45.166,0,0,0-.368-4.973c-.061-.553.061-2.026-.307-2.456C532.575,1149.426,532.145,1150.162,531.9,1150.592Z" transform="translate(-527.551 -1146.563)"/></g><path class="f" d="M326.459,614.407c.184-.614.675-1.044.86-1.658a9.246,9.246,0,0,0-.061-1.842,2.956,2.956,0,0,1,.43-1.474,4.323,4.323,0,0,1,1.535-1.9,2.724,2.724,0,0,1,2.272-.43h.061a1.675,1.675,0,0,1,.307-1.105,2.661,2.661,0,0,1,2.886-.921,2.729,2.729,0,0,0,1.412-.061,1.4,1.4,0,0,0,.614-.43,4.248,4.248,0,0,1,4.912-.184,9.378,9.378,0,0,0,1.351.982c.859.368,1.78.184,2.579.675a3.727,3.727,0,0,1,1.412,2.579,8.839,8.839,0,0,0,.921,2.886c.614.86,1.658,1.351,2.026,2.394.491,1.228-.246,2.579-1.105,3.561a4.015,4.015,0,0,0-1.044,1.6c-.061.246,0,.553-.061.86-.123.491-.614.8-.737,1.289-.675,3.008-2.456,2.579-5.219,6.017a3.582,3.582,0,0,0,.553-1.412,9.077,9.077,0,0,0-.061-2.579,2.09,2.09,0,0,1,0-1.228,11.349,11.349,0,0,0,.8-1.78.759.759,0,0,0-.614-.982.839.839,0,0,0-.737.921,6.856,6.856,0,0,0-.43-3.193,4.209,4.209,0,0,0-3.07-1.965,25.043,25.043,0,0,1-3.622-.675,3.635,3.635,0,0,1-1.412-.8,5.538,5.538,0,0,1-.614.553,12.72,12.72,0,0,0-1.474,1.044,3.533,3.533,0,0,0-1.473,2.149c-.123.982-.675,1.781-.8,2.763a4.241,4.241,0,0,0-.982-2.272c-.43-.491-.368-1.044-.8-1.535A2.267,2.267,0,0,1,326.459,614.407Z" transform="translate(-301.349 -555.47)"/><path class="b" d="M209.862,1089.52c2.456,1.473,2.763,4.052,3.131,6.324.8,4.359,2.64,8.657,3.684,13.016a74.1,74.1,0,0,1,1.719,11.481,7.015,7.015,0,0,1,0,1.964,4.331,4.331,0,0,1-.982,1.6,6.257,6.257,0,0,1-1.9,1.351h-5.648l-.061-.061a1.709,1.709,0,0,1-.43-1.412,2.909,2.909,0,0,1,.8-2.21c.553-.368,1.351-.553,1.719-1.044.43-.614.061-1.351-.307-1.965-4.42-7.92-6.262-16.454-8.166-24.8-.368-1.658-1.412-3.684.8-4.6A6.737,6.737,0,0,1,209.862,1089.52Z" transform="translate(-163.108 -1011.534)"/><path class="g" d="M88.044,79.8a2.5,2.5,0,0,0-1.473.491,2.34,2.34,0,0,0-.614,1.228C84.545,86.859,85.4,92.446,85.9,97.91c1.351,15.287-.614,30.636.123,45.985.43,10.007,2.026,20.076,1.228,30.084q5.71.368,11.419.553a17.121,17.121,0,0,1-.43-3.561,15.533,15.533,0,0,1,31.066,0,14.127,14.127,0,0,1-.553,3.929c1.965,0,3.929,0,5.955-.061a14.69,14.69,0,0,0,6.324-.921,2.8,2.8,0,0,0,1.412-1.105,3.419,3.419,0,0,0,.307-1.719c.184-16.024.307-31.987.491-48.011.061-5.71.123-11.481-.184-17.252-.246-5.28-.8-10.56-.921-15.84a72.989,72.989,0,0,1,.246-8.166c.184-2.947-.921-2.763-3.561-2.64-10.806.491-21.611-.184-32.355-.184A167.382,167.382,0,0,0,88.044,79.8Z" transform="translate(-79.694 -62.978)"/><path class="b" d="M316.307,466c4.113,5.587,8.1,11.235,12.095,16.884l-.123.123c-4.113-5.648-8.227-11.174-12.279-16.884Z" transform="translate(-278.979 -426.218)"/><path class="b" d="M309.246,356c2.272,2.886,4.359,5.955,6.569,8.841,2.394,3.193,4.85,6.262,7.306,9.332l-.123.184c-2.456-3.008-4.912-6.078-7.306-9.148-2.272-2.947-4.666-5.894-6.692-9.025Z" transform="translate(-273.268 -322.972)"/><path class="b" d="M608.9,865c2.149,3.745,4.359,7.49,6.569,11.235a.206.206,0,1,1-.368.184c-2.149-3.745-4.3-7.49-6.508-11.235Z" transform="translate(-584.039 -800.722)"/><path class="b" d="M691.5,827.644c1.9,3.684,4.052,7.183,6.262,10.683.184.246-.184.491-.368.246a116.176,116.176,0,0,1-6.2-10.744C691.129,827.583,691.436,827.46,691.5,827.644Z" transform="translate(-671.421 -765.576)"/><path class="h" d="M13.568,97.1c4.482-.123,9.025.061,13.507.061,4.666-.061,9.332-.061,14-.061,4.482,0,9.025,0,13.568.061,1.842,0,3.806,0,5.771-.061-.061-5.771,0-11.542,0-17.375-.061-6.14.061-12.279,0-18.419V42.211c0-6.14-.061-12.34,0-18.48.061-5.341-.061-11.358-.061-16.822-2.026,0-4.052,0-6.078-.061-1.351.061-2.7-.061-3.991,0-4.052.061-8.1,0-12.156,0-7.674,0-15.042-.123-23.085,0-2.272.061-4.482,0-6.753,0-.061,5.771.061,11.542,0,17.375,0,1.78-.061,3.622-.061,5.464.123,5.526.061,11.051.061,16.577,0,10.5-.061,20.445-.061,31.434.123,5.587-.061,11.235,0,16.822V97.1Zm50.9-.061c1.473,0,2.947,0,4.3.061l.061,6.569c-4.85-.184-9.7.123-14.551-.061-1.351.061-2.7-.061-3.991,0-4.052.123-8.1,0-12.156.061-7.674,0-15.042-.123-23.085-.061-4.113.123-8.227-.123-12.34,0L0,103.544V97.159C1.412,97.1,2.763,97.1,4.175,97.1c-.061-5.771,0-11.6-.061-17.375,0-6.14.123-12.279.061-18.419,0-6.385-.061-12.709,0-19.094,0-6.14-.061-12.34,0-18.48.061-5.341-.061-11.419-.061-16.945A11.348,11.348,0,0,0,2.7,6.847L0,6.786V.339C4.543.216,9.025.4,13.568.339,18.05.216,22.593.4,27.075.339c4.666,0,9.332-.061,14,0,4.482,0,9.025-.061,13.568,0,4.482.123,9.639-.123,14.121,0l.061,6.569c-1.412-.061-2.886-.061-4.3-.061-.061,5.771.061,11.6,0,17.375,0,1.78-.061,3.622-.061,5.464.123,5.526.061,11.051.061,16.577,0,10.5-.061,20.445,0,31.434.061,5.587-.123,11.235-.061,16.822Z" transform="translate(0 10.894)"/><rect class="h" width="56.12" height="12.619" transform="translate(6.406 0)"/></g><g transform="translate(82.748 44.609)"><ellipse class="i" cx="30.552" cy="2.1" rx="30.552" ry="2.1" transform="translate(3.709 184.575)"/><path class="j" d="M1424.265,2763.9c3.165,0,6.33-.085,9.41-.085,7.613-.171,15.227-.257,22.84-.428a110.333,110.333,0,0,0,15.056-.941,2.153,2.153,0,0,0-.77-2.4,5.856,5.856,0,0,0-2.566-.941,57,57,0,0,0-10.009-.77h0a56.051,56.051,0,0,1,9.923.77,5.819,5.819,0,0,1,2.652.941,2.153,2.153,0,0,1,.77,2.4,110.333,110.333,0,0,1-15.056.941c-7.614.171-15.227.257-22.84.428-3.079,0-6.245.085-9.41.085Zm14.286-4.962h0c-4.961,0-10.009-.171-15.056-.6-1.882-.171-3.935-.342-5.817-.342h0c1.968,0,3.935.171,5.817.342C1428.542,2758.77,1433.589,2758.941,1438.55,2758.941Z" transform="translate(-1414.156 -2575.087)"/><path class="k" d="M1861.756,1045.942c-2.224,4.534-3.079,9.581-3.593,14.543a172.924,172.924,0,0,0-.513,31.908c2.138-1.283,2.994-3.85,3.507-6.159,2.566-11.72.6-24.038,3.849-35.587.428-1.625,1.968-5.475.684-7.015C1864.236,1042.007,1862.44,1044.744,1861.756,1045.942Z" transform="translate(-1846.257 -1006.915)"/><path class="k" d="M26.433,3.228c.086,1.3-1.027,2.393-2.31,3.213-2.481,1.572-5.646,2.187-8.811,2.734C10.779,10,6.33,10.816,1.8,11.568a2.064,2.064,0,0,1-.6.068.8.8,0,0,1-.513-.479A4.879,4.879,0,0,1,0,8.765a.95.95,0,0,1,.086-.479.949.949,0,0,1,.855-.342A45.322,45.322,0,0,0,18.135,1.588,17.547,17.547,0,0,1,20.7.22C23.268-.6,26.348.972,26.433,3.228Z" transform="translate(36.501 82.911) rotate(-75)"/><path class="l" d="M3.073.314A9.292,9.292,0,0,0,1.619,0,2.23,2.23,0,0,0,.165.377c-.342.439-.086,1,.171,1.507.171.377.428.753.6,1.13A2.058,2.058,0,0,0,2.218,4.206a3.624,3.624,0,0,0,1.625-.188c.684-.188,1.369-.377,2.053-.5a3.158,3.158,0,0,0,1.2-.565A1.885,1.885,0,0,0,6.581.628C5.725.063,4.1.5,3.073.314Z" transform="translate(42.692 87.887) rotate(-65)"/><path class="l" d="M1573.981,1669.091c0-12.746-1.454-25.663-1.882-38.41a37.7,37.7,0,0,1,.941-13.174,1.38,1.38,0,0,1,.256-.77c.428-.6,1.283-.342,1.882,0a16.64,16.64,0,0,0,18.392-2.737,19.487,19.487,0,0,1,1.968,7.015c.6,4.021,1.2,7.956,1.454,11.976h0c.085.855.085,1.711.171,2.652.086,4.962-.513,9.923-.855,14.885a74.43,74.43,0,0,0-.428,9.752,46.284,46.284,0,0,1,.086,7.7c-.855,6.5-.6,13.516-.855,20.1-.257,7.015-.513,14.115-.684,21.13v.855c-.257.086-4.534,1.54-4.534.086-.855-13.6-1.711-27.289-2.652-40.976-.342-5.731-.77-25.15-2.138-30.625-.428.085-.941.171-1.369.257-1.882,18.221-3.764,49.958-5.646,68.179a9.365,9.365,0,0,1-1.2,4.363,1.435,1.435,0,0,1-2.652-.684C1574.494,1696.807,1574.067,1682.949,1573.981,1669.091Z" transform="translate(-1552.837 -1528.95)"/><path class="k" d="M21.922,19.869A8.764,8.764,0,0,0,19.7,16.276c-2.737-3.08-5.988-5.817-8.383-9.239C9.689,4.727,8.406,2.075,6.011.364a1.537,1.537,0,0,0-.77-.342A1.257,1.257,0,0,0,4.214.364,9.687,9.687,0,0,0,.279,4.9,1.781,1.781,0,0,0,.023,6.01a2.57,2.57,0,0,0,.513.941A45.937,45.937,0,0,0,5.5,12a29.069,29.069,0,0,1,4.7,5.988,19.448,19.448,0,0,0,2.823,4.106C15.763,24.745,23.462,25.771,21.922,19.869Z" transform="translate(45.579 64.521) rotate(-156)"/><path class="m" d="M1461.483,1557.985a22.573,22.573,0,0,0,.171,7.956,5.9,5.9,0,0,0,1.2,2.566,7.657,7.657,0,0,0,3.336,2.224,40.6,40.6,0,0,0,12.832,2.4,123.324,123.324,0,0,0,12.575.086c3.507-.086,8.9-1.2,11.634-3.593,3.165-2.737,1.625-5.988,1.2-10.18-1.454-14.543-2.139-16.852-4.448-26.262-2.4-9.41-3.08-21.728-4.705-31.224-.342-1.8-.684-3.764-2.224-4.791a6.684,6.684,0,0,0-2.909-.77c-3.251-.257-6.587-.428-9.923-.513-4.106-.085-8.725.257-11.891,3.165-2.481,2.31-1.967,7.1-2.31,10.094-.941,10.436-1.968,20.873-2.908,31.395C1462.6,1546.351,1462,1552.168,1461.483,1557.985Z" transform="translate(-1451.375 -1420.924)"/><path class="l" d="M20.524,9.968A10.387,10.387,0,0,0,18.9,4.237a8.487,8.487,0,0,0-2.224-2.053A14.227,14.227,0,0,0,4.356.815,19.989,19.989,0,0,0,2.474,22.886a11.858,11.858,0,0,0,3.935,4.534,7.688,7.688,0,0,0,5.732,1.454,8.255,8.255,0,0,0,5.3-3.764,15.977,15.977,0,0,0,2.4-6.159A35.085,35.085,0,0,0,20.524,9.968Z" transform="matrix(0.996, 0.087, -0.087, 0.996, 18.85, 3.925)"/><path class="n" d="M35.354,8.144V7.888c0-1.54-1.283-2.823-2.481-3.935C30.906,2.242,28.767.445,26.2.1,24.234-.239,22.18.36,20.127.616a21.329,21.329,0,0,0-3.935.77A5.994,5.994,0,0,0,13.369,3.61a11.825,11.825,0,0,0-1.2,2.31,19.264,19.264,0,0,0-1.882,6.074,13.115,13.115,0,0,0,.171,3.165c-4.106.086-7.442,4.448-8.383,8.041a23.5,23.5,0,0,0-.513,8.469,73.728,73.728,0,0,0,2.4,11.463A37.244,37.244,0,0,1,5.414,49.8a5.336,5.336,0,0,1-1.026,4.277c-1.027,1.112-3.251,1.027-3.764-.428-.684-.086-.77,1.112-.428,1.711a6.224,6.224,0,0,0,7.357,2.566,8.738,8.738,0,0,0,5.218-6.33,17.043,17.043,0,0,0,.342-3.593,32.018,32.018,0,0,0-.941-8.554c-.6-2.566-1.54-5.047-1.882-7.613a10.7,10.7,0,0,1,1.54-7.613c.513-.6,1.026-1.2,1.454-1.8l.171.171a8.4,8.4,0,0,0,.684,1.54c1.454,2.481,3.935,4.021,5.9,6.074.513.513,1.027,1.112,1.711,1.112a2.431,2.431,0,0,0,1.027-.342c1.625-.77,3.507-1.8,3.935-3.593a5.614,5.614,0,0,0,.086-1.711c0-.684-.086-1.369-.086-2.053a1.842,1.842,0,0,0-.171-.941,1.935,1.935,0,0,0-1.027-.77,3.841,3.841,0,0,1-.941-1.112,1.164,1.164,0,0,1,.513-1.283c.513-.171,1.112.257.941.77a13.809,13.809,0,0,0,0-1.882,1.95,1.95,0,0,1,.6-1.625c.256-.171.513-.257.77-.428a4.69,4.69,0,0,0,2.053-2.481,4.746,4.746,0,0,0,.684-.513,3.538,3.538,0,0,0,.6-.941c.342.77.684,1.625,1.027,2.4a2.674,2.674,0,0,0,.428.855,2.028,2.028,0,0,0,2.994-.342,5.008,5.008,0,0,0,.77-3.165A12.365,12.365,0,0,0,35.354,8.144Z" transform="matrix(0.996, 0.087, -0.087, 0.996, 5.079, 0)"/><path class="k" d="M1580.452,1039.8a40.746,40.746,0,0,0-1.082-7.785c-.666-2.224-1.5-4.363-2.164-6.587a86.179,86.179,0,0,1-2.247-9.153,135.263,135.263,0,0,0-3.829-13.773c-.416-1.027-1.082-2.224-2.081-2.139a4.253,4.253,0,0,0-1.082.513,10.937,10.937,0,0,1-6.992,1.968,7.566,7.566,0,0,1-5.993-3.85l-.167,2.31c-1.415,7.7-1.582,15.569-2.83,23.268-1.249,8.127-3.746,16.168-3.33,24.38a3.8,3.8,0,0,0,.333,1.625,3.2,3.2,0,0,0,2.914.855c8.74-.342,17.564-.77,26.3-1.369.749-.086,1.665-.171,2.081-.856a4.116,4.116,0,0,0,.333-1.369C1580.7,1045.109,1580.618,1042.457,1580.452,1039.8Z" transform="translate(-1535.21 -966.56)"/><path class="o" d="M1512.8,1005.137a52.9,52.9,0,0,0-.328,7.2c.082,1.714.082,3.6-1.148,4.8-1.393,1.286-3.688.771-5.492.086a6.022,6.022,0,0,1-3.442-2.228,7.679,7.679,0,0,1-.656-3.857c.164-2.828.246-5.657.328-8.485a3.662,3.662,0,0,0-.082-.943c-.328-1.114-2.049-1.114-2.869-.257a6.176,6.176,0,0,0-.984,3.428,94.834,94.834,0,0,1-3.2,15.084c-.82,2.828-1.558,5.657-2.459,8.4a70.553,70.553,0,0,0-2.377,7.028,54.772,54.772,0,0,0-1.066,8.314c-.574,7.971-1.147,15.941-1.8,23.912a98.011,98.011,0,0,0-.41,9.856c.082,2.057.41,4.543,2.131,5.571a6.139,6.139,0,0,0,3.278.686l32.459.257c1.229,0,2.623-.086,3.279-1.114a3.972,3.972,0,0,0,.492-2.4c-.41-19.2-4.426-38.139-8.361-56.995-1.229-5.742-2.377-11.485-2.131-17.313.082-1.457.574-3.771-.9-4.542C1514.608,1000.252,1513.05,1003.166,1512.8,1005.137Z" transform="translate(-1479.548 -968.398)"/><path class="p" d="M1503.179,2630.094l.086-.428a27.082,27.082,0,0,0,.513-6.416,16.757,16.757,0,0,1,.086-2.909c1.2,0,4.7-.342,5.9-.342h.342l.171.342c.6,2.909-1.112,6.245-.342,9.068.342,1.2,1.454,1.54,2.481,2.138.856.513,2.652,1.711,3.678,1.625a6.414,6.414,0,0,1,1.711.855,1.452,1.452,0,0,1,.256,1.8,1.89,1.89,0,0,1-1.54.513,65.364,65.364,0,0,1-12.917-.6.972.972,0,0,1-.684-.256.61.61,0,0,1-.257-.513C1502.067,2633.088,1502.751,2631.8,1503.179,2630.094Z" transform="translate(-1468.005 -2448.892)"/><path class="p" d="M1699.238,2635.4c.086-.513.428-.855.513-1.369a4.168,4.168,0,0,0,.086-1.454c-.086-2.224-.257-4.448-.342-6.758,0-.6,0-1.454.6-1.8a2.34,2.34,0,0,1,1.369-.171c1.283.171,2.566.427,3.935.6a1.287,1.287,0,0,1,.941.342c.171.257.086.684.086,1.027a27.571,27.571,0,0,0-.171,6.5,13.834,13.834,0,0,1,0,1.882,25.528,25.528,0,0,0,5.133,3.08,5,5,0,0,1,1.454.855,1.292,1.292,0,0,1,.086,1.625c-.256.342-.855.342-1.369.342a58.334,58.334,0,0,1-11.548-1.369.925.925,0,0,1-.6-.256c-.171-.085-.171-.257-.257-.513A5.224,5.224,0,0,1,1699.238,2635.4Z" transform="translate(-1679.72 -2452.404)"/></g></g></svg>