<svg xmlns="http://www.w3.org/2000/svg" width="27" height="27" viewBox="0 0 27 27"><defs><style>.a{fill:#fff;stroke:#b38e5d;stroke-linecap:round;stroke-linejoin:round;stroke-width:3px;}.b{fill:#b38e5d;}</style></defs><g transform="translate(1.5 1.5)"><circle class="a" cx="12" cy="12" r="12"/><path class="b" d="M174.838,127.757v.081a2.507,2.507,0,0,0-.162.649.685.685,0,0,0,.162.486.7.7,0,0,0,.486.243,1.247,1.247,0,0,0,.892-.486,5.039,5.039,0,0,0,.973-1.378,4.33,4.33,0,0,1-.973,2.27,3.013,3.013,0,0,1-1.784.649,1.907,1.907,0,0,1-1.378-.486,1.423,1.423,0,0,1-.486-1.216v-.486a1.937,1.937,0,0,0,.162-.73l1.459-4.7a.731.731,0,0,1,.081-.405v-.324a.685.685,0,0,0-.162-.486.619.619,0,0,0-.405-.162,1.121,1.121,0,0,0-.73.405,5.039,5.039,0,0,0-.973,1.378,2.756,2.756,0,0,1,2.919-2.838,1.758,1.758,0,0,1,1.135.405,1.343,1.343,0,0,1,.405.973,1.785,1.785,0,0,1-.081.649,2.367,2.367,0,0,1-.162.73ZM175.73,116a.94.94,0,0,1,.811.324.79.79,0,0,1,.324.73,1.245,1.245,0,0,1-.405,1.054,1.12,1.12,0,0,1-.892.486,1.239,1.239,0,0,1-.811-.324,1.041,1.041,0,0,1-.324-.811,1.708,1.708,0,0,1,.405-1.054A1.162,1.162,0,0,1,175.73,116Z" transform="translate(-162.595 -111.135)"/></g></svg>