<svg xmlns="http://www.w3.org/2000/svg" width="73" height="73" viewBox="0 0 73 73"><defs><style>.a{fill:#b38e5d;stroke:#b38e5d;stroke-linecap:round;stroke-linejoin:round;stroke-width:3px;}.b{fill:#fff;}</style></defs><g transform="translate(1.5 1.5)"><circle class="a" cx="35" cy="35" r="35"/><path class="b" d="M180.277,150.291v.236a7.311,7.311,0,0,0-.473,1.892,2,2,0,0,0,.473,1.419,2.044,2.044,0,0,0,1.419.709,3.638,3.638,0,0,0,2.6-1.419,14.7,14.7,0,0,0,2.838-4.02c-.236,1.655-1.182,5.2-2.838,6.622a8.788,8.788,0,0,1-5.2,1.892,5.563,5.563,0,0,1-4.02-1.419,4.15,4.15,0,0,1-1.419-3.547v-1.419a5.649,5.649,0,0,0,.473-2.128l4.257-13.716a2.132,2.132,0,0,1,.236-1.182v-.946a2,2,0,0,0-.473-1.419,1.806,1.806,0,0,0-1.182-.473,3.269,3.269,0,0,0-2.128,1.182,14.7,14.7,0,0,0-2.838,4.02c0-1.419.946-4.966,2.838-6.385a9.622,9.622,0,0,1,5.676-1.892,5.127,5.127,0,0,1,3.311,1.182,3.916,3.916,0,0,1,1.182,2.838,5.207,5.207,0,0,1-.236,1.892,6.905,6.905,0,0,1-.473,2.128Zm2.6-34.291a2.742,2.742,0,0,1,2.365.946,2.305,2.305,0,0,1,.946,2.128,3.631,3.631,0,0,1-1.182,3.074,3.268,3.268,0,0,1-2.6,1.419,3.613,3.613,0,0,1-2.365-.946,3.036,3.036,0,0,1-.946-2.365,4.981,4.981,0,0,1,1.182-3.074A3.388,3.388,0,0,1,182.878,116Z" transform="translate(-144.568 -101.811)"/></g></svg>