<svg xmlns="http://www.w3.org/2000/svg" xmlns:xlink="http://www.w3.org/1999/xlink" width="174.672" height="412.778" viewBox="0 0 174.672 412.778"><defs><style>.a{fill:#d4c19c;}.b,.m{fill:#444243;}.b,.c,.d,.e,.f{fill-rule:evenodd;}.c,.i{fill:#e9e9e9;}.d{fill:#97a8b2;}.e,.h{fill:#ffc3b1;}.f{fill:url(#a);}.g{fill:#6a93ab;}.j{fill:#d9924e;}.k{fill:#ac6e32;}.l{fill:#333;}</style><linearGradient id="a" y1="0.5" x2="1" y2="0.5" gradientUnits="objectBoundingBox"><stop offset="0" stop-color="#ccc"/><stop offset="1" stop-color="#ccc"/></linearGradient></defs><g transform="translate(0.18 -0.121)"><ellipse class="a" cx="72.5" cy="6" rx="72.5" ry="6" transform="translate(0.006 375.109)"/><g transform="translate(-0.18 0.121)"><g transform="translate(0 86.335)"><path class="b" d="M57.455,1303.949h0a3.778,3.778,0,0,1,4.025,3.506l1.948,29.476a3.662,3.662,0,0,1-3.506,3.9,3.561,3.561,0,0,1-3.9-3.376l-2.078-29.476A3.778,3.778,0,0,1,57.455,1303.949Z" transform="translate(-46.914 -1220.975)"/><path class="b" d="M12.958,1558h0a3.721,3.721,0,0,1,3.766,3.506c5.713,53.239-4.8,131.538-9.349,171.143a3.811,3.811,0,0,1-3.766,3.506c-2.078,0-4.025-1.558-3.766-3.506,6.363-46.486,14.284-127.253,9.479-171.143C9.063,1559.558,10.881,1558,12.958,1558Z" transform="translate(0.18 -1442.044)"/><path class="c" d="M127.112,665c-25.84,35.319-26.619,95.31-22.724,114.4h13.634c-2.467-18.439.519-46.876,15.322-72.456Z" transform="translate(-89.303 -665)"/><path class="d" d="M49.818,1546h27.4a1.887,1.887,0,0,1,1.948,1.818v3.376a1.887,1.887,0,0,1-1.948,1.818h-27.4A1.775,1.775,0,0,1,48,1551.194v-3.376A1.775,1.775,0,0,1,49.818,1546Z" transform="translate(-41.744 -1431.602)"/><path class="e" d="M96.182,1512.526c-1.039,3.116-.13,5.584,2.467,7.531a32.338,32.338,0,0,0,12.466.52,7.825,7.825,0,0,0,3.9-7.142C110.205,1507.982,103.323,1507.852,96.182,1512.526Z" transform="translate(-83.303 -1399.557)"/><path class="d" d="M46.155,1293H69.009a4.1,4.1,0,0,1,4.155,4.155v7.142a4.1,4.1,0,0,1-4.155,4.155H46.155A4.1,4.1,0,0,1,42,1304.3v-7.142A4.1,4.1,0,0,1,46.155,1293Z" transform="translate(-36.523 -1211.454)"/></g><path class="f" d="M288.425,3101.557h0Zm13.115-.13a186.837,186.837,0,0,0,25.581-1.818c1.818-.26,4.155-1.3,4.155-2.987,0,1.688-2.337,2.727-4.155,2.987A186.837,186.837,0,0,1,301.54,3101.427Zm-74.924-10.388Zm1.039,0h0Zm3.116,0H232.2l62.718-.39h0l-62.718.39Zm-50.771-.13a1.168,1.168,0,0,1,.649-.13A1.168,1.168,0,0,0,180,3090.909Zm.779-.13c.13-.13.13-.13.26-.13C180.909,3090.649,180.909,3090.649,180.779,3090.779Zm1.039-.26Zm.13,0h0Zm6.493-.52h0Z" transform="translate(-156.604 -2688.779)"/><path class="g" d="M534.992,1598.386c-.779,20.516-1.558,37.786-1.818,69.21-4.155.39-8.31.649-12.466.909-3.9-27.4-4.285-43.76-7.791-61.289a331.3,331.3,0,0,0-22.724-71.418A58.485,58.485,0,0,1,485,1512.035a13.936,13.936,0,0,1,1.818-7.142c2.6-4.285,8.44-6.363,13.894-7.272a70.017,70.017,0,0,1,27.009.13c3.636.779,5.454.909,6.493,4.155,1.169,3.766.39,8.96.649,12.985.649,17.789.909,35.449.779,53.239C535.512,1578.129,535.252,1588.257,534.992,1598.386Z" transform="translate(-421.999 -1302.083)"/><path class="g" d="M214.528,1482.62c1.428,16.88,2.337,33.5,5.454,50.252,4.545,24.282,9.609,55.057,13.375,79.468,3.506-.13,7.4,1.428,10.388-.26,3.376-1.688,2.727-12.336,2.6-15.712-1.039-21.815,1.818-43.63,4.8-65.315,2.857-21.945,5.843-43.889,11.427-65.444,1.948-7.531,4.155-15.972,0-22.724-2.987-4.8-8.7-7.921-14.673-9.219-5.973-1.428-12.206-1.3-18.309-1.169-4.545.13-12.076-.39-15.972,2.078s.13,9.479.13,13.634C213.619,1459.636,213.619,1471.193,214.528,1482.62Z" transform="translate(-184.38 -1246.438)"/><path class="h" d="M315.979,131.519c-.779,6.493-1.3,13.245.26,19.607s8.31,11.687,14.284,14.543c7.791,3.9,14.8,1.818,20.906-4.415,5.973-6.233,8.57-15.192,8.83-23.892a34.2,34.2,0,0,0-1.169-9.609c-2.6-9.349-14.154-24.8-25.321-23.373C321.822,105.809,317.147,121.78,315.979,131.519Z" transform="translate(-274.273 -90.762)"/><path class="i" d="M272.979,616.143c4.025-.779,7.921-2.078,12.076-2.208s8.57,1.039,11.037,4.155c2.337,2.987,2.467,7.012,2.6,10.778.39,13.634,2.727,27.009,5.194,40.254,2.987,16.621,5.973,33.631,3.116,50.382-.779,4.675-2.207,9.609-5.973,12.855a17.325,17.325,0,0,1-7.921,3.376,49.386,49.386,0,0,1-13.115.519c-15.712-1.169-31.034-4.675-46.227-8.051a20.06,20.06,0,0,1-2.987-.909,7.389,7.389,0,0,1-3.246-5.584,21.659,21.659,0,0,1,.649-6.492c2.6-14.284,2.207-28.7,2.078-43.24,0-7.012,0-14.284,1.169-21.3.779-4.675,2.078-9.219,2.857-13.894,1.169-6.1,1.948-18.958,9.869-20.906,3.766-.909,8.7.909,12.6,1.3A56.7,56.7,0,0,0,272.979,616.143Z" transform="translate(-197.902 -534.223)"/><path class="j" d="M198.8,648.651c-1.818,12.076-3.766,24.022-4.8,36.1-1.688,17.27-1.558,34.67-1.558,52.07.13,6.882.13,13.634.13,20.516a25.811,25.811,0,0,0-10.648-3.506c-4.155-.39-8.96,0-11.816-3.116-2.337-2.337-2.467-5.973-2.337-9.219.519-37.916,1.688-76.352,13.5-112.45.649-2.078,1.428-4.415,3.116-5.973,2.337-2.207,5.973-2.467,9.09-2.078,1.688.26,7.142.39,8.31,1.428,1.818,1.688.39,5.194,0,7.531C200.751,636.185,199.842,642.418,198.8,648.651Z" transform="translate(-145.931 -540.241)"/><path class="k" d="M216.01,657.013c-3.376,14.024-6.363,28.307-8.96,42.591h-5.064a.779.779,0,1,0,0,1.558c1.558,0,3.116.13,4.8.26l-.519,2.467c-1.688-.26-3.376-.39-5.064-.649a.745.745,0,0,0-.13,1.428c1.688.26,3.246.649,4.934.909l-.39,2.467c-1.558-.13-3.246-.26-4.8-.519-.649,0-.779,1.169-.13,1.3,1.558.26,3.116.649,4.675,1.039A508.506,508.506,0,0,0,199,772.45c0,.779,1.039.649,1.169,0,2.078-20.776,4.545-41.552,7.791-62.068,1.558.39,3.246.649,4.8,1.039l-.779,6.233c-2.207,19.867-3.9,39.864-4.545,59.861a1.43,1.43,0,0,0,2.857,0c.909-19.218,2.078-38.436,4.155-57.524l.779-8.181a32.583,32.583,0,0,0,3.506.519c1.428.13,1.688-2.207.39-2.467-1.169-.26-2.467-.389-3.636-.649l.26-1.818c1.039.13,2.207.39,3.376.519,1.428.26,2.207-2.078.649-2.337-1.3-.13-2.6-.39-3.766-.519l.13-2.207c1.558.39,3.116.649,4.675,1.039,1.818.39,2.6-2.467.779-2.857-1.688-.39-3.376-.649-5.064-.909,1.428-12.855,3.246-25.84,6.882-38.176.26-.779-1.039-1.039-1.3-.39-4.025,12.336-6.233,25.321-8.051,38.306-1.428-.13-2.857-.13-4.285-.26,2.467-14.024,5.194-28.048,8.57-41.942A1.213,1.213,0,0,0,216.01,657.013ZM208.219,708.3l.39-2.207c1.558.26,3.116.649,4.675.909l-.26,1.948C211.466,708.694,209.907,708.564,208.219,708.3Zm.779-4.155.39-2.467c1.428.26,2.987.39,4.415.649l-.26,2.337C211.985,704.539,210.557,704.279,209,704.149Z" transform="translate(-173.136 -570.938)"/><path class="j" d="M565.95,667.544c3.116,21.945,6.1,44.8.26,66.224a64.214,64.214,0,0,0,17.919-1.818c4.934-1.3,10.258-3.506,12.6-8.051a17.823,17.823,0,0,0,1.558-5.714c4.155-26.749-3.506-53.758-4.155-80.767-.13-4.415,0-8.83-.519-13.115a104.4,104.4,0,0,0-1.948-10.778c-.909-3.9-1.688-7.661-2.6-11.557a13.26,13.26,0,0,0-2.078-5.454c-2.6-3.766-8.051-4.155-12.725-4.155-4.675-.13-15.193-.779-17.66,4.415-1.3,2.467.26,7.012.649,9.609.649,4.155,1.169,8.31,1.818,12.466C561.275,635.081,563.612,651.313,565.95,667.544Z" transform="translate(-483.861 -515.375)"/><path class="k" d="M645.542,686.256c-.26-2.078-.39-4.025-.649-5.973.779-.13,1.558-.26,2.467-.39,1.428-.26,1.039-2.6-.39-2.6H644.5l-.39-2.857a2.209,2.209,0,0,0-.13-.909l-.389-2.6a1.13,1.13,0,0,0-.39-2.208c-2.207-15.322-5.194-30.515-8.83-45.577a.564.564,0,0,0-1.039.39c2.6,15.063,4.934,30.125,7.012,45.318-3.9.26-7.791.519-11.687.909-2.207-14.284-4.675-28.437-7.4-42.721,0-.649-.909-.39-.909.26,2.467,14.024,4.8,28.307,6.752,42.591-2.467.39-5.064.649-7.531,1.039-.779.13-.649,1.558.26,1.428,2.467,0,5.064-.13,7.531-.26l.39,2.337c-2.337.26-4.545.649-6.752.909-.779.13-.519,1.3.13,1.169,2.207,0,4.545-.13,6.752-.13l.39,2.727c-2.078.26-4.285.649-6.492.779-.909.13-.909,1.428,0,1.428,2.207-.13,4.545-.26,6.752-.26,2.857,23.243,4.415,46.746,3.116,69.989-.13,1.818,2.857,1.818,2.857,0,.909-23.763-1.039-47.006-4.155-69.989,3.766-.13,7.661-.26,11.557-.519.26,2.337.519,4.545.779,6.882,2.337,20.386,4.155,41.163,1.428,61.679-.26,1.688,2.727,2.078,2.987.39C649.957,728.457,648.139,707.291,645.542,686.256Zm-15.452-7.4-.39-2.6c3.766-.13,7.661-.26,11.557-.519l.26,1.818C637.621,677.815,633.855,678.335,630.09,678.854Zm-.779-4.675-.26-2.208c3.9-.13,7.791-.389,11.557-.779l.26,1.818C637.1,673.271,633.206,673.66,629.311,674.18Z" transform="translate(-538.652 -542.008)"/><path class="l" d="M755.575,2778a3.293,3.293,0,0,1,1.558.26,2.208,2.208,0,0,1,.779,1.3c.519,1.558,1.169,2.987,1.688,4.545a6.722,6.722,0,0,0,1.818,2.856,7.923,7.923,0,0,0,1.818.909,106.344,106.344,0,0,0,18.049,3.9,1.891,1.891,0,0,1,1.558.649l.39.779a17.755,17.755,0,0,1,.26,2.467,2.568,2.568,0,0,1-.26,1.428c-.519.779-1.558.779-2.467.779q-17.14-.779-34.28-.39a12.965,12.965,0,0,1-5.454-.779,64.517,64.517,0,0,0,.13-8.7l-.389-4.285c0-.909-.519-2.208-.26-3.116.649-1.948,4.8-1.688,6.492-1.818Q751.29,2778.195,755.575,2778Z" transform="translate(-644.27 -2417.292)"/><path class="l" d="M217.955,2789l.779.13.39.909a118.629,118.629,0,0,1-.13,15.192l-.39,1.039-.649.13c-11.557,1.3-23.243,2.207-34.93,2.856a5.837,5.837,0,0,1-2.987-.519c-.909-.779-1.039-2.207-1.039-3.376a5.047,5.047,0,0,1,.26-1.948c.649-1.3,2.337-1.948,3.766-2.338,3.636-.909,7.272-1.948,10.778-2.856a12.254,12.254,0,0,0,2.987-1.3,10.47,10.47,0,0,0,1.558-1.818c.909-1.3,1.948-3.765,3.246-4.675,1.039-.779,3.506-.389,4.8-.52C210.294,2789.649,214.06,2789.26,217.955,2789Z" transform="translate(-155.733 -2426.864)"/><path class="m" d="M289.426,47.89c-1.428-1.558-.26-4.155,1.3-5.713,1.428-1.558,3.376-3.246,3.246-5.454-.13-3.246-4.934-4.8-4.934-8.181-.13-1.428.779-2.727,1.169-4.025a6.711,6.711,0,0,0-1.688-6.363,11.392,11.392,0,0,0-5.843-3.246c-1.818-.39-3.9-.779-4.934-2.337-.779-1.169-.649-2.727-1.039-4.155-.909-3.9-4.934-6.1-8.7-7.272-4.155-1.169-8.83-1.688-12.725.39-1.428.779-2.727,1.948-4.155,2.857-3.506,2.207-7.661,2.857-11.557,4.545a4.874,4.874,0,0,0-2.857,2.467c-.649,1.688.39,3.506.909,5.194a7.534,7.534,0,0,1-.519,4.8c-1.039,2.078-2.857,3.506-4.415,5.194s-2.727,4.025-1.818,6.233c.649,1.428,2.207,2.467,2.987,3.9,1.169,1.948,5.973,3.506,5.194,5.584-.26,1.169-.779,2.337-.26,3.376.779,1.558-1.948,2.337-1.039,3.9.649,1.039.13,2.467.26,3.636a3.3,3.3,0,0,0,2.987,2.727,13.333,13.333,0,0,0,1.558-8.31,7.98,7.98,0,0,1,0-3.506C243.589,41.4,248,41.4,249.043,38.8c.779-1.948-.519-4.155-.13-6.1a5.318,5.318,0,0,1,4.155-3.376c1.818-.26,3.636-.13,5.454-.39,2.857-.39,5.713-1.948,8.31-.909l1.3-1.688c-1.428,1.558-.909,4.285.39,5.843,1.428,1.558,3.506,2.207,5.454,2.857,2.078.649,4.155,1.169,5.713,2.6l.779,1.169c.26.909-.519,1.818-1.039,2.727-.519.779-1.039,1.948-.39,2.727.519.649,1.558.519,2.337,1.039,1.428.909.39,3.376.779,5.064a6.713,6.713,0,0,0,.779,1.688,8.172,8.172,0,0,1,.13,6.752,12.891,12.891,0,0,0-1.818,3.506c-.39,1.3,0,2.987,1.3,3.246a15.141,15.141,0,0,1,2.337-5.324A38.384,38.384,0,0,1,288,56.85a14.618,14.618,0,0,0,2.727-4.545,3.574,3.574,0,0,0,0-3.246A10.546,10.546,0,0,1,289.426,47.89Z" transform="translate(-200.585 -0.121)"/><g transform="translate(103.644 86.594)"><path class="b" d="M963.922,1295.949h0a3.74,3.74,0,0,0-3.9,3.506l-2.078,29.476a3.775,3.775,0,1,0,7.531.519l1.948-29.476A3.779,3.779,0,0,0,963.922,1295.949Z" transform="translate(-937.173 -1214.274)"/><path class="b" d="M947.995,1550h0a3.812,3.812,0,0,0-3.766,3.506c-5.583,53.369,4.8,131.538,9.479,171.143a3.692,3.692,0,0,0,3.636,3.506c2.078,0,4.025-1.558,3.766-3.506-6.363-46.486-14.154-127.253-9.349-171.143C952.02,1551.558,950.073,1550,947.995,1550Z" transform="translate(-923.843 -1435.342)"/><path class="c" d="M810,667c25.84,35.319,24.542,94.141,20.646,113.1H817.012c2.467-18.439-2.078-44.539-5.583-72.586Z" transform="translate(-808.442 -667)"/><path class="d" d="M827.216,1538h-27.4a1.887,1.887,0,0,0-1.818,1.948v3.246a1.887,1.887,0,0,0,1.818,1.948h27.4a2,2,0,0,0,1.948-1.948v-3.246A2,2,0,0,0,827.216,1538Z" transform="translate(-798 -1424.901)"/><path class="e" d="M860.648,1505.184c1.169,2.986.26,5.454-2.337,7.4a32.873,32.873,0,0,1-12.6.52,7.657,7.657,0,0,1-3.766-7.012C846.754,1500.639,853.506,1500.379,860.648,1505.184Z" transform="translate(-836.236 -1393.383)"/><path class="d" d="M830.139,1285H807.155a4.272,4.272,0,0,0-4.155,4.155v7.271a4.272,4.272,0,0,0,4.155,4.155h22.984a4.159,4.159,0,0,0,4.025-4.155v-7.271A4.159,4.159,0,0,0,830.139,1285Z" transform="translate(-802.351 -1204.753)"/></g></g></g></svg>