<svg xmlns="http://www.w3.org/2000/svg" width="278.859" height="334.446" viewBox="0 0 278.859 334.446"><defs><style>.a{fill:#d4c19c;}.b{fill:#aa4a4d;}.c{fill:#282a2b;}.d{fill:#4c4c4c;}.e{fill:#353535;}.f{fill:#67302d;}.g{fill:#97a8b2;}.h{fill:#c8ae9a;}.i{fill:#736357;}.j{fill:#666;}.k{fill:#3d322b;}.l{fill:#e8e8e8;}.m{fill:#4d4d4d;}.n{fill:#373435;}.o{fill:#333;}</style></defs><ellipse class="a" cx="75.5" cy="7.24" rx="75.5" ry="7.24" transform="translate(14.859 319.966)"/><ellipse class="a" cx="43" cy="7.24" rx="43" ry="7.24" transform="translate(192.859 319.966)"/><g transform="translate(0 0)"><g transform="translate(0 0)"><path class="b" d="M742,1717.009c3.118-4.914,10.584-12.946,18.522-17.955a110.294,110.294,0,0,1,25.988-11.623c12.947-3.875,16.254-14.836,19.278-25.137,2.93-9.922,5.765-19.372,16.538-21.924a14.43,14.43,0,0,0,5.387-3.4,7.307,7.307,0,0,0,2.457-3.969l1.89.283c-.189,1.8-1.512,3.591-3.024,5.1a17,17,0,0,1-6.332,3.874c-9.639,2.268-12.285,11.151-15.12,20.6-3.213,10.773-6.615,22.207-20.507,26.365a104.728,104.728,0,0,0-25.515,11.434c-7.749,4.819-15.026,12.663-17.955,17.388Z" transform="translate(-671.87 -1478.676)"/><g transform="translate(0 192.124)"><path class="c" d="M248,2051.616s2.174-17.1,0-18.616c0,0,12.663,3.4,9.639,22.585Z" transform="translate(-224.554 -2033)"/><path class="c" d="M367.759,2853c-4.347,1.8-7.277,0-14.742,1.8l2.173,41.012-4.347,9.167S343,2906.3,343,2911.495h12.191l9.167-15.687Z" transform="translate(-310.576 -2775.511)"/><path class="c" d="M1111.563,2593.131l.378-19.656s5.387-17.293-15.97-24.475L1080,2579.523c3.5,10.111,20.6,28.35,32.886,32.035v15.97s-5.859.851-5.859,8.694h10.584l3.5-9.167v-19.561Z" transform="translate(-977.929 -2500.239)"/><path class="c" d="M1495,2579.953s19.278-.661,18.711,13.324a11.807,11.807,0,0,1-9.356,10.773Z" transform="translate(-1353.712 -2528.262)"/><path class="d" d="M178.1,2259.674v19.561l-3.5,9.166h-8.694c0-7.844,3.875-8.694,3.875-8.694v-13.041c-16.065-6.143-33.548-34.208-33.548-34.208-7.844,1.04-18.428,5.481-18.428,5.481-5.859,3.591-13.136,5.575-19.751,6.52a88.635,88.635,0,0,1-15.782.945,19.489,19.489,0,0,1-2.174-.095v27.4L70.936,2288.4H58.745c0-5.2,7.844-6.52,7.844-6.52l4.347-9.167-4.347-32.6c16.538-38.366-18.333-48.005-18.333-48.005H26.71c-3.308,0-5.387-.85-6.71-2.079a5.274,5.274,0,0,0,3.875-5.1,6.037,6.037,0,0,0-.945-3.119l12.285-5.386c5.2-15.592,21.735-10.867,21.735-10.867,6.993,2.173,25.326,31.09,25.326,31.09H98.057l37.8,1.606c40.919,2.173,33.075,27.4,33.075,27.4l-.378,19.656Z" transform="translate(-18.1 -2152.418)"/><path class="d" d="M342,2051.616s2.174-17.1,0-18.616c0,0,12.663,3.4,9.639,22.585Z" transform="translate(-309.671 -2033)"/><path class="b" d="M686.938,2501v48.667a77.694,77.694,0,0,1-7.938.094V2501Z" transform="translate(-614.824 -2456.775)"/><path class="c" d="M235.93,2288.512a1.475,1.475,0,0,1-1.512,1.417,1.453,1.453,0,0,1-1.418-1.417,1.475,1.475,0,0,1,1.418-1.512A1.493,1.493,0,0,1,235.93,2288.512Z" transform="translate(-210.971 -2262.997)"/><path class="c" d="M5.667,2347.119a5.273,5.273,0,0,1-3.875,5.1c-2.552-2.457-1.8-6.142-1.8-6.142L4.722,2344A6.035,6.035,0,0,1,5.667,2347.119Z" transform="translate(0.108 -2314.611)"/><path class="d" d="M1280.755,2617.146a40.876,40.876,0,0,0,18.711,34.87s13.041-24.1,3.5-34.87C1302.962,2617.146,1292.945,2607.318,1280.755,2617.146Z" transform="translate(-1159.689 -2557.99)"/><path class="e" d="M334.776,2501.005c-16.443-12.19-19.656-35.248-18.333-48.005C316.443,2453,351.313,2462.639,334.776,2501.005Z" transform="translate(-286.287 -2413.311)"/><path class="b" d="M387.51,2700v11.623H347.725A50.122,50.122,0,0,1,343,2700Z" transform="translate(-310.576 -2636.969)"/><path class="f" d="M770.844,2501v47.816c-2.74.378-5.481.661-7.844.85V2501Z" transform="translate(-690.886 -2456.775)"/><path class="c" d="M1594,3442.118h3.118V3439H1594Z" transform="translate(-1443.356 -3306.135)"/></g><path class="g" d="M1817.194,1242.023c1.607-1.8,3.686-3.591,6.143-3.307,2.363.378,3.875,2.74,4.82,4.914,1.7,3.875,2.646,8.6.567,12.379a15.939,15.939,0,0,1-4.441,4.63c-8.789,6.521-19.278,10.111-29.673,13.419a6.6,6.6,0,0,1-4.252.473c-4.253-1.417,0-5.1,1.418-6.615,2.835-2.93,5.67-5.764,8.41-8.694C1805.854,1253.457,1811.524,1247.693,1817.194,1242.023Z" transform="translate(-1619.488 -1121.624)"/><path class="h" d="M1599.3,1577.636a3.14,3.14,0,0,0-2.268.283,1.24,1.24,0,0,0-.473,1.984c.283-.283.756.378.473.756s-.851.283-1.229.283a6.159,6.159,0,0,0-4.347,2.079,5.608,5.608,0,0,0-1.228,4.536,2.756,2.756,0,0,0,2.551.661,9,9,0,0,0,2.551-.85c3.4-1.606,6.9-3.213,10.3-4.819a4.017,4.017,0,0,0,2.079-1.607C1609.974,1576.124,1601.564,1577.825,1599.3,1577.636Z" transform="translate(-1439.863 -1428.414)"/><path class="i" d="M2278.783,1937.539a91.27,91.27,0,0,0,2.079,10.111c1.134,4.063,24.167,56.977,32.2,67.088,1.04,1.323,2.363,2.741,3.969,2.835,1.985,0,3.5-1.89,3.686-3.875a11.8,11.8,0,0,0-1.323-5.575c-2.079-5.008-4.252-9.922-6.048-14.931-11.34-30.334-8.858-71.246-3.849-103.186.283-1.984.567-4.252-.662-5.859a5.93,5.93,0,0,0-3.024-1.89,32.836,32.836,0,0,0-11.34-1.418c-6.048.095-13.8.378-19.373,2.835-5.009,2.079-2.835,7.56-2.268,12C2274.625,1909.662,2276.61,1923.647,2278.783,1937.539Z" transform="translate(-2057.17 -1703.08)"/><path class="i" d="M1957.1,1888.883c.284,9.355,0,18.805.945,28.161,1.229,12.1,4.63,24,8.033,35.815a194.26,194.26,0,0,0,7.749,23.058,11.636,11.636,0,0,0,3.308,4.914,6.167,6.167,0,0,0,6.332.756c2.363-1.323,2.363-4.158,1.985-6.52-.851-7.276-1.8-14.647-2.74-21.924-1.607-12.568-3.213-25.231-1.985-37.894.945-9.45,3.4-18.805,5.954-28.066,3.024-11.434,6.048-22.963,9.166-34.4.473-1.984,1.04-4.158.473-6.237-.756-2.646-3.4-4.63-6.143-6.048a38.416,38.416,0,0,0-20.979-4.347c-5.67.378-15.971,1.984-16.538,7.465-.284,3.119,1.228,7.276,1.606,10.489.472,3.875.85,7.749,1.229,11.623C1956.254,1873.48,1956.915,1881.134,1957.1,1888.883Z" transform="translate(-1768.093 -1662.551)"/><path class="j" d="M2382.521,394.341a65.17,65.17,0,0,1,1.984,7.371c.189,1.039,1.606.661,1.606-.283-.189-2.552-.378-5.1-.756-7.654C2385.072,391.978,2382.048,392.64,2382.521,394.341Z" transform="translate(-2157.316 -355.589)"/><path class="j" d="M2257.923,470.437a20.92,20.92,0,0,0,3.308,2.362,8.972,8.972,0,0,0,3.307,1.606.73.73,0,0,0,.756-1.039A12.9,12.9,0,0,0,2263.12,471a23.689,23.689,0,0,0-3.5-2.551C2258.4,467.791,2256.694,469.3,2257.923,470.437Z" transform="translate(-2044.152 -424.031)"/><path class="h" d="M2129.249,98.348c0-9.072-7.844-16.348-17.577-16.348C2101.844,82,2094,89.276,2094,98.348a13.088,13.088,0,0,0,.661,4.347v1.134a43.114,43.114,0,0,0,.756,9.828c1.229,6.237,4.441,12.1,10.584,15.592a12.835,12.835,0,0,0,6.9,2.079c3.213,0,6.237-1.7,8.6-3.78,7.466-6.9,8.127-17.388,7.655-27.216A13.959,13.959,0,0,0,2129.249,98.348Z" transform="translate(-1896.106 -74.243)"/><path class="k" d="M2102.56,3393.724a45.337,45.337,0,0,0-10.111.378,36.727,36.727,0,0,1-8.411,4.158,9.328,9.328,0,0,0-2.363,1.229,1.563,1.563,0,0,0-.283,2.268c.472.567,1.417.567,2.268.662a122.553,122.553,0,0,0,18.617-1.417,3.4,3.4,0,0,0,1.04-.378l.378-.756A7.166,7.166,0,0,0,2102.56,3393.724Z" transform="translate(-1884.348 -3072.893)"/><path class="k" d="M2695.1,3265a39.385,39.385,0,0,0-8.788,1.89,34.794,34.794,0,0,1-6.615,5.009,5.528,5.528,0,0,0-1.89,1.417,1.359,1.359,0,0,0,.189,1.984,2.662,2.662,0,0,0,2.079.284,101.3,101.3,0,0,0,16.16-4.158,1.828,1.828,0,0,0,.85-.472l.189-.662A6.322,6.322,0,0,0,2695.1,3265Z" transform="translate(-2430.436 -2949.454)"/><path class="g" d="M1920.585,754.646c.095-15.592.189-31.09.189-46.682.094-13.135,3.024-27.027,5.009-39.973,1.039-7.087,2.362-9.639,5.575-15.97.473-.851.473-1.512,4.82-2.835.945-.378,3.118-1.606,4.252-1.417,5.575.945,11.246-1.134,16.916-.189,5.859.945,15.781-1.984,20.412,1.984,6.237,5.481,6.709,18.522,7.654,27.027,1.323,11.434,4.536,23.058,5.1,34.587.472,10.111.756,20.223.945,30.334.094,5.292,1.985,23.719-2.74,27.216-2.74,2.079-10.206,2.93-17.861,3.118l-.85.095h-.189c-3.118.095-6.237.095-9.072,0-4.158-.095-7.655-.284-9.544-.472a206.52,206.52,0,0,1-26.46-4.63c-1.512-.378-3.308-.851-4.158-2.268C1920.018,763.528,1920.585,755.874,1920.585,754.646Z" transform="translate(-1738.85 -586.147)"/><path class="l" d="M2077.512,649.553c.378-2.457,2.552-4.347,5.387-5.67.567-2.362,1.134-4.725,1.8-7.087l.189-.189a1.6,1.6,0,0,0,.284-.945l-2.268-.284a85.186,85.186,0,0,1-28.539-.378,5.169,5.169,0,0,1,.094,1.7c-5.1,40.918-7.182,81.93-5.1,122.943a16.539,16.539,0,0,1,4.536-.567c5.2.094,10.678.661,16.065.945C2057.1,723.923,2070.613,686.124,2077.512,649.553Z" transform="translate(-1854.953 -574.986)"/><path class="m" d="M2103.1,16.369a20.686,20.686,0,0,0-11.34-13.608c-8.694-4.347-23.436-4.63-27.877,5.764-8.694,3.024-4.253,16.726,4.441,13.608l.283-.094c4.536,2.173,10.773,2.835,16.349,2.929,2.079,5.1,6.237,9.45,12.38,6.993C2103.2,29.5,2104.425,21.944,2103.1,16.369Z" transform="translate(-1864.573 0.082)"/><path class="m" d="M2208.074,519.512a3.02,3.02,0,0,0,1.323-.283c.378-.284.661-.851.378-1.229h-4.252a3.005,3.005,0,0,0-1.323.189C2202.026,519.7,2207.6,519.512,2208.074,519.512Z" transform="translate(-1995.438 -469.042)"/><path class="b" d="M1404.942,1686.723q-5.67,26.082-11.34,52.352c-2.174,9.261-4.442,18.522-6.71,27.783-6.332,25.8-11.907,51.691-17.483,77.678-1.228,5.953,4.725,6.142,6.048.189,5.765-27.31,11.624-54.526,18.144-81.647,6.142-25.325,12.379-50.557,16.916-76.26C1411.463,1681.242,1406.171,1681.242,1404.942,1686.723Z" transform="translate(-1239.84 -1523.61)"/><path class="h" d="M1708.678,1618.56a9.834,9.834,0,0,0-2.646,2.929c-.756,1.04-1.228,2.646-.378,3.591.945.945,2.457.661,3.685.189,5.387-2.363,9.639-6.709,13.7-11.056.756,1.04.756,0-3.591-3.213-1.417,1.984-4.253,2.268-6.426,3.307-2.457,1.134-5.292,1.7-6.71,3.969l.756.661A9.9,9.9,0,0,1,1708.678,1618.56Z" transform="translate(-1544.048 -1458.755)"/><path class="g" d="M1829.24,1263.24c-1.89,1.606-3.969,3.969-3.119,5.575.945,1.8,4.063.851,6.332-.094,5.008-2.268,10.017-4.536,15.12-6.709,9.734-4.347,19.751-8.883,28.256-15.687,3.5-2.74,6.9-6.426,6.9-10.111,0-2.268-1.228-4.063-2.646-5.67-6.9-8.032-14.364,2.079-22.019,8.5C1848.423,1247.081,1838.879,1255.208,1829.24,1263.24Z" transform="translate(-1653.364 -1111.562)"/><path class="g" d="M2259.473,684.9c-.378-2.93-1.04-6.048-2.93-8.316-6.426-8.032-16.349,7.749-18.333,13.324-3.875,11.34-4.725,34.681-6.143,45.832-.189,2.268-.472,4.63.378,6.615,1.607,3.591,9.355,6.615,12.38,3.78,2.835-2.457,10.584-24.57,11.529-28.255C2259.095,707.11,2260.89,695.959,2259.473,684.9Z" transform="translate(-2020.943 -610.619)"/></g><path class="n" d="M2114.808,306.245a.847.847,0,0,1-.851.85l-11.151.945c-.095.189-.189.284-.189.473a4.828,4.828,0,0,1-2.174,2.362,3.5,3.5,0,0,1-1.323.378,9.314,9.314,0,0,1-1.607.189,14.666,14.666,0,0,1-4.819-.567c-1.512-.473-2.552-1.228-2.646-1.984l-.094-.094h0v-1.89a1.377,1.377,0,0,0-1.512.095v1.039h0v.189c-.094.661-.945,1.323-2.174,1.7a12.159,12.159,0,0,1-3.969.567,16.149,16.149,0,0,1-2.929-.283,4.98,4.98,0,0,1-1.134-.284,6.072,6.072,0,0,1-2.457-2.646,6.769,6.769,0,0,1-.473-3.685,9.315,9.315,0,0,1,.473-1.512c.473-.851,1.8-1.229,3.308-1.229a23.86,23.86,0,0,1,5.67.567c1.8.473,2.741,1.228,3.213,2.362a4.68,4.68,0,0,1,.378,1.228,3.088,3.088,0,0,1,1.89-.094.347.347,0,0,1,.094-.284c.473-1.229,1.417-1.984,3.213-2.362a31.605,31.605,0,0,1,5.576-.378c1.512,0,2.835.378,3.307,1.323h0a8.156,8.156,0,0,1,.662,1.984v.945l10.679-.85A.919.919,0,0,1,2114.808,306.245Z" transform="translate(-1879.113 -272.406)"/><path class="o" d="M2097.274,320.858c-.945,0-1.607,0-1.7.189a3.343,3.343,0,0,0-.283,1.039,3.967,3.967,0,0,0,.378,2.551,3.336,3.336,0,0,0,1.512,1.7,6.014,6.014,0,0,0,.661.189,23.172,23.172,0,0,0,2.552.189,11.338,11.338,0,0,0,3.4-.472c.472-.189.851-.189.851-.284a10.682,10.682,0,0,0-.283-3.307c-.284-.567-.851-.945-1.985-1.228A20.014,20.014,0,0,0,2097.274,320.858Z" transform="translate(-1897.206 -290.516)"/><path class="o" d="M2259.738,332.1c-.095-.189-.756-.284-1.7-.284h0a25.549,25.549,0,0,0-5.1.378c-1.134.189-1.607.567-1.89,1.134a10.961,10.961,0,0,0-.189,3.307,12.779,12.779,0,0,0,1.323.473,14.265,14.265,0,0,0,4.252.473h0c.473,0,.945-.095,1.418-.095.283-.094.472-.189.756-.283a3.066,3.066,0,0,0,1.229-1.417,3.931,3.931,0,0,0,.378-2.362,4.512,4.512,0,0,0-.472-1.323Z" transform="translate(-2038.124 -300.439)"/></g></svg>