<svg xmlns="http://www.w3.org/2000/svg" xmlns:xlink="http://www.w3.org/1999/xlink" width="348.542" height="398" viewBox="0 0 348.542 398"><defs><style>.a{fill:#d4c19c;}.b{fill:#b38e5d;}.c{fill:#ebefeb;}.d{fill-rule:evenodd;fill:url(#a);}.e{fill:#c89a81;}.f{fill:#443b36;}.g{fill:#97a8b2;}.h{fill:#9d2449;}.i{fill:#621132;}.j{fill:#a78e41;}</style><linearGradient id="a" y1="0.498" x2="1" y2="0.498" gradientUnits="objectBoundingBox"><stop offset="0" stop-color="#c7c7c7"/><stop offset="1" stop-color="#c7c7c7"/></linearGradient></defs><g transform="translate(0 0.11)"><ellipse class="a" cx="76" cy="4.5" rx="76" ry="4.5" transform="translate(174 388.89)"/><g transform="translate(0 -0.11)"><g transform="translate(194.806 247.057)"><path class="b" d="M1732.928,2048.689l-2.172,24.741-17.982-.6s-5.552-13.4-1.328-25.827Z" transform="translate(-1698.31 -2047)"/><path class="a" d="M1827.6,2087.207s-.724,24.5,1.086,31.62l-7.12.241L1820,2086Z" transform="translate(-1795.157 -2081.293)"/><path class="a" d="M1902.1,2579c-3.862,26.189,2.776,38.137,7.362,40.068l1.69,5.19s-8.931,19.551-16.655,16.292c5.19-7-1.448-58.533-3.5-60.584Z" transform="translate(-1857.588 -2514.795)"/><path class="b" d="M1616.547,2951.551c8.327,3.138,28.361-1.448,32.344-13.517,2.9-2.293,27.758-13.155,17.137-27.034-3.862,1.569-10.138,5.31-11.465,13.155l-9.655,10.5c-2.776,14-20.758,17.017-29.085,13.758C1612.444,2947.085,1614.978,2950.947,1616.547,2951.551Z" transform="translate(-1614.151 -2806.728)"/><path class="c" d="M1746.034,2192.97a24.589,24.589,0,0,1-.845-7.362s-2.414-2.052-7.6,4.1L1733,2194.3a53.788,53.788,0,0,0,6.758,16.172s9.052,28.723,17.62,63.119Z" transform="translate(-1718.657 -2168.592)"/><path class="a" d="M1770.361,2064l-2.776,14.241-2.414,1.569s-7.241-3.017-14.12,5.431l-2.052-21.12Z" transform="translate(-1732.726 -2061.948)"/><path class="b" d="M1831.422,2310.034a54.317,54.317,0,0,0,.121,7.6c.121,1.569.241,3.259.483,5.069.241,2.293.6,4.707,1.086,7.12.241,1.69.483,3.259.845,4.948.483,2.293.966,4.707,1.448,7,.362,1.69.724,3.259,1.086,4.828.6,2.414,1.086,4.707,1.69,6.879.483,1.689.845,3.258,1.207,4.827a133.287,133.287,0,0,0,4.465,13.517l2.414-16.534.845-5.672,1.207-8.207.845-5.552.724-5.189a18.32,18.32,0,0,0,1.086-3.379,24.7,24.7,0,0,0,1.086-5.672,23.856,23.856,0,0,0-.724-7.362,25.926,25.926,0,0,0-1.81-4.586,28.9,28.9,0,0,0-3.983-5.793,34.557,34.557,0,0,0-3.862-3.62,32.706,32.706,0,0,0-4.948-3.259c-2.534.966-3.983,3.621-4.707,7.483A26.076,26.076,0,0,0,1831.422,2310.034Z" transform="translate(-1805.131 -2266.829)"/><path class="c" d="M1832,2333.776l14.12-6.155a34.585,34.585,0,0,0-3.862-3.621l-9.655,4.224A26.064,26.064,0,0,0,1832,2333.776Zm6.758,43.447c.483,1.69.845,3.259,1.207,4.828l6.879-3.017.845-5.672Zm-2.776-11.706c.362,1.689.724,3.258,1.086,4.827l11.827-5.189.845-5.552Zm-2.293-11.948c.241,1.689.483,3.258.845,4.948l17.017-7.483a24.708,24.708,0,0,0,1.086-5.672Zm-1.569-12.189c.121,1.569.241,3.258.483,5.069l19.31-8.448a25.922,25.922,0,0,0-1.81-4.586Z" transform="translate(-1805.709 -2290.57)"/></g><path class="d" d="M1450,3118.017c0-1.931,2.172-3.379,4.1-4.1,10.862-4.465,21.362-5.914,32.344-5.914,3.862,0,7.724.121,11.707.483-3.862-.362-7.845-.483-11.586-.483h-.121c-10.982,0-21.482,1.448-32.344,5.914-1.931.724-4.1,2.172-4.1,4.1Zm138.306-3.258a3.716,3.716,0,0,0-.362-1.569c-9.293-1.81-18.586-2.052-28-2.414-20.034-.724-40.309-.483-60.343-2.172a.725.725,0,0,1-.483-.121.725.725,0,0,0,.483.121c20.034,1.69,40.309,1.448,60.343,2.172,9.414.362,18.706.6,28,2.414A3.716,3.716,0,0,1,1588.306,3114.759ZM1499,3108.483h0Z" transform="translate(-1275.005 -2732.896)"/><path class="e" d="M1084.333,191.006c-1.81,7.241-6.517,14.362-13.517,16.775-5.672,2.052-12.069.845-17.379-2.052a18.021,18.021,0,0,1-5.914-4.948c-1.69-2.414-2.414-5.31-3.138-8.207-1.69-6.155-3.259-12.431-4.948-18.706-.965-3.379-1.81-7-.965-10.379a13.25,13.25,0,0,1,7.362-8.327,26.365,26.365,0,0,1,10.982-2.293,55.449,55.449,0,0,1,14.844,1.569,20.007,20.007,0,0,1,8.931,3.983c4.345,3.5,4.224,7.845,4.345,12.793C1084.936,177.851,1085.9,184.368,1084.333,191.006Z" transform="translate(-912.838 -134.391)"/><path d="M959.218,40.024A12.44,12.44,0,0,1,966.7,26.266c2.776-.965,5.914-.965,8.569-2.293,3.741-1.81,5.914-6.155,9.776-7.845a3.9,3.9,0,0,1,2.052-.362,5.556,5.556,0,0,1,2.172,1.207c6.4,4.1,15.569-3.138,22.448.241,3.138,1.569,4.828,4.827,6.4,7.965a69.484,69.484,0,0,1,4.465,10.258c1.086,3.621,1.569,7.483,3.5,10.741,1.086,1.569,2.293,2.9,3.258,4.586a11.839,11.839,0,0,1-4.224,15.689,16.711,16.711,0,0,0-3.983,2.414c-1.69,1.69-2.172,4.345-3.138,6.517-1.086,2.172-3.862,4.1-5.793,2.655.121-3.983.241-8.207-1.931-11.707-.6-1.086-1.328-1.931-1.931-3.138a6.748,6.748,0,0,1,.966-7c-2.534.483-5.069.845-7.6,1.328-.121-3.741-.6-7.965-3.741-9.9-2.052-1.207-4.707-1.086-7.12-.724C979.976,48.11,963.8,53.9,959.218,40.024Z" transform="translate(-843.238 -13.822)"/><path d="M1466.681,82.09c-.362,2.052-2.172,3.5-3.983,4.707-4.345,2.776-10.982,4.1-14,0A9.677,9.677,0,0,1,1447.25,81c.241-14.844,15.207-25.1,20.517-38.982a31.91,31.91,0,0,0-7.724-34.033c-9.414-8.689-35.6-14-39.344,3.379-1.328,6.638,1.569,9.776,7.965,8.569,8.81-1.81,16.775.241,19.672,10.017,2.052,6.758.483,14.12-2.052,20.758s-5.914,12.913-7.6,19.792c-1.569,6.879-1.086,14.844,3.5,20.275a16.443,16.443,0,0,0,18.948,4.1,11.686,11.686,0,0,0,6.879-7.965,8.556,8.556,0,0,0-1.327-6.4A3.447,3.447,0,0,1,1466.681,82.09Z" transform="translate(-1248.963 0.11)"/><path class="f" d="M1776,646.562a5.925,5.925,0,0,1,3.379,2.534C1779.017,647.528,1777.569,646.2,1776,646.562Z" transform="translate(-1561.661 -568.465)"/><path class="e" d="M19.43,750.279l.6.121c1.69.362,2.655.362,4.345.724h0c23.413,3.259,47.671-2.776,70.843,2.414,4.707,1.086,9.414,2.655,14,3.862a138.388,138.388,0,0,0,30.654,4.586c3.138.121,6.758-.121,8.569-3.017a10.835,10.835,0,0,0,1.448-4.465,41.382,41.382,0,0,0-1.086-14.482,2.714,2.714,0,0,0-3.138-2.776c-6.638-.483-13.4.845-20.155,1.448-8.448.845-16.9.362-25.465.121-7-.241-14-.362-21.12-.362-12.431.121-24.861.483-37.292,1.207-3.138.121-6.276.362-9.414.6h-.241a11.039,11.039,0,0,1-2.052.121c-4.345.362-9.172.362-11.465.6a29.072,29.072,0,0,1-7.241,0c-3.138-.362-6.517-.965-9.534.6-.362.241-1.328.966-1.448,1.448A5,5,0,0,0,0,744.969c.121,1.569.483,3.621,1.569,4.224,1.569.724,3.5,0,4.586,1.448.483.483.724,1.207,1.207,1.448a2.026,2.026,0,0,0,1.569-.483c2.172-1.207,3.621-2.293,5.914-1.569Z" transform="translate(0 -648.166)"/><path class="e" d="M1545.8,459.077c21.241-5.431,36.447-11.948,58.412-9.9,2.534.241,5.19.6,7.241,2.172s3.138,4.707,1.569,6.758c-1.569,2.172-4.707,2.172-7.362,2.172-10.5.121-13.879,1.086-24.137,3.138-7.845,1.69-24.017,6.276-31.982,7.12-24.137,2.534-39.585,9.9-62.636,17.5-5.914,1.931-12.189,2.172-18.465,2.655-2.414.241-5.069.121-7.12-1.328a10.837,10.837,0,0,1-2.776-3.741c-.845-1.931-3.741-6.758-3.138-8.81.483-2.293,5.19-1.81,7.6-2.052,6.758-.845,13.4-1.81,20.155-2.9,13.517-2.052,27.034-4.586,40.309-7.483C1530.952,462.7,1538.435,461.008,1545.8,459.077Z" transform="translate(-1279.684 -394.618)"/><path class="g" d="M1194.993,671.262c3.62,11.344,17.258,20.275,27.034,27.154,7.12,4.827,10.862,14.844,17.982,19.793,2.052,1.448,4.345,3.017,6.879,2.776,2.534-.121,4.586-1.931,6.4-3.621,9.9-8.81,20.155-24.741,24.741-37.292a8.406,8.406,0,0,0,.6-4.224,8.546,8.546,0,0,0-1.931-3.741,47.523,47.523,0,0,0-8.81-8.931c-3.983-3.138-8.327-5.552-11.827-9.172-5.189-5.431-7.965-13.034-13.517-17.982-5.189-4.707-12.31-6.638-17.5-11.344-1.931-1.69-3.621-3.862-6.155-4.465a10.318,10.318,0,0,0-5.672.966,103.263,103.263,0,0,0-14.362,6.638c-7.241,4.1-4.224,11.465-4.707,18.586C1193.544,654.728,1192.337,663.3,1194.993,671.262Z" transform="translate(-1049.324 -545.252)"/><path class="h" d="M1638.505,1134.033c4.345,1.569,9.172,1.931,13.879,2.052a156.747,156.747,0,0,0,19.913-.483c3.259-.241,6.879-.724,9.534-2.776,3.138-2.414,4.466-6.517,5.552-10.379a13.82,13.82,0,0,0,.845-5.793c-.362-3.259-2.776-5.793-4.586-8.448-2.655-4.224-3.621-9.293-5.19-14-1.689-4.707-4.224-9.534-8.81-11.707-4.948-2.414-11.224-.845-15.689,2.534-4.465,3.259-7.482,8.086-10.5,12.793-2.9,4.707-5.793,9.293-8.689,13.879-2.172,3.5-6.517,9.413-6.034,13.637C1629.092,1129.688,1634.885,1132.705,1638.505,1134.033Z" transform="translate(-1432.132 -950.819)"/><path class="h" d="M1715.172,1442.012c-.483-6.758-5.19.362-10.982-4.465-4.345-3.621-16.413,1.086-21.965,4.948-4.827,3.379-9.776-4.465-11.224.362-2.414,7.844-.483,31.137-.965,39.223-1.69,25.948-1.69,26.068,1.931,39.1,3.379.241,9.172-1.448,12.431-1.086,6.758.6,8.327,1.086,14.965,1.69C1703.827,1498.251,1716.741,1463.011,1715.172,1442.012Z" transform="translate(-1467.524 -1262.901)"/><path class="h" d="M1957.524,741.462a196.635,196.635,0,0,0,22.327-1.931c2.655-.483,5.431-1.207,6.879-3.138,1.328-1.81,1.328-3.983,1.328-6.034-.483-28.361-6.4-56.481-11.827-84.359-3.621.362-7.121.724-10.741,1.086a5.281,5.281,0,0,0-3.017.965c-1.207.966-1.207,2.776-1.086,4.224,1.086,17.137-2.414,34.154.966,51.05.483,2.293.845,4.827-.845,6.517-1.69,1.931-4.828,1.569-7.483,1.207-14.362-2.052-13.879-2.776-28.482-2.052-10.982.6-22.689,1.81-32.465-2.9-3.741-1.69-7.12-4.224-10.862-5.793-3.862-1.569-8.569-2.052-11.948.362a12.5,12.5,0,0,0-3.862,5.431c-5.672,14,1.81,37.533,19.43,38.981,12.431,1.086,26.189-1.207,38.74-1.81C1937.611,742.669,1944.369,742.066,1957.524,741.462Z" transform="translate(-1639.516 -568.024)"/><path class="h" d="M2002.213,1423.413a12.837,12.837,0,0,1,4.707-6.759c2.655-1.81,5.914-2.293,8.931-3.5a3.085,3.085,0,0,0,1.207-.845c.6-.845-.121-2.052-.845-2.655-2.9-2.535-7.12-2.655-10.862-2.655-3.5.121-7.483.362-9.534,3.259a10.491,10.491,0,0,0-1.327,3.862c-.724,3.621-1.086,7.482.483,10.62.724,1.327,3.138,5.672,4.948,5.31C2001.609,1429.689,2001.609,1424.862,2002.213,1423.413Z" transform="translate(-1753.237 -1237.182)"/><path class="e" d="M2636.377,345.553c-.362-3.017-.845-5.914-1.327-8.81a5.978,5.978,0,0,0-.483-1.569c-.6-.845-3.138-3.138-3.983-2.655-.965.483-3.017,1.931-3.258,2.9a13.758,13.758,0,0,0-.241,3.138c0,2.414,2.293,6.4,1.448,8.569a25.306,25.306,0,0,1-2.9,4.948,32.75,32.75,0,0,0-2.9,4.224c-1.086,1.569-2.172,3.621-1.448,5.431a7.277,7.277,0,0,0,2.534,2.534c1.81,1.448,3.621,3.138,4.224,5.31.241.845.362,1.81.6,2.776a3,3,0,0,0,1.569,2.172,4.692,4.692,0,0,0,1.811.241c1.931,0,5.189.6,7-.362,1.931-.965.6-3.5.241-4.948a90.682,90.682,0,0,1-2.052-15.086C2636.981,351.346,2636.74,348.449,2636.377,345.553Z" transform="translate(-2304.732 -292.317)"/><path class="i" d="M2018.522,1167.609c-5.914,1.81-10.982,5.793-15.327,10.138-.362.362.241,1.086.724.724,4.465-4.224,9.776-6.638,15.327-9.172A.93.93,0,0,0,2018.522,1167.609Z" transform="translate(-1761.34 -1026.634)"/><path class="i" d="M2085.84,1180c-5.069.362-10.259,3.5-14,6.879a.512.512,0,1,0,.724.724c4.224-3.741,8.327-4.827,13.517-5.793C2087.167,1181.69,2086.926,1180,2085.84,1180Z" transform="translate(-1821.658 -1037.578)"/><path class="i" d="M2661.423,1199.522a31.373,31.373,0,0,0-10.741-14.241c-.483-.362-.966.362-.6.724a44.728,44.728,0,0,1,10.741,13.879Z" transform="translate(-2330.14 -1042.135)"/><path class="i" d="M2649.845,1192.12c-.121-.362-.845-.362-.845.121.362,3.741.966,7.12.724,10.982h.241C2650.448,1199.723,2650.81,1195.62,2649.845,1192.12Z" transform="translate(-2329.302 -1048.008)"/><path class="j" d="M1691,1149v0Z" transform="translate(-1486.92 -1010.319)"/></g></g></svg>