<svg xmlns="http://www.w3.org/2000/svg" width="347.764" height="301" viewBox="0 0 347.764 301">
  <g id="Group_1349" data-name="Group 1349" transform="translate(-59.732 -799)">
    <ellipse id="Ellipse_121" data-name="Ellipse 121" cx="122.5" cy="4.5" rx="122.5" ry="4.5" transform="translate(150.5 1091)" fill="#d4c19c"/>
    <g id="ruedas" transform="translate(111.907 799)">
      <g id="_1616288043312" transform="translate(0 0)">
        <path id="Path_5278" data-name="Path 5278" d="M1145.554,47.17c-1.462-2.632-4.094-4.776-4.289-7.9-.1-1.755.682-3.607.292-5.361-.292-1.17-1.072-2.047-1.365-3.217a4.845,4.845,0,0,1,.78-4.192,7.55,7.55,0,0,1,3.022-2.534,5.6,5.6,0,0,1,3.7-.78,6.257,6.257,0,0,1,3.119,2.242,20.064,20.064,0,0,1,3.7,8.286,59.808,59.808,0,0,1,1.072,9.358,5.1,5.1,0,0,1-.195,2.437,4.246,4.246,0,0,1-1.267,1.365,17.6,17.6,0,0,1-5.166,2.339C1146.724,49.9,1146.724,49.315,1145.554,47.17Z" transform="translate(-1028.88 -20.82)" fill="#c89a81"/>
        <path id="Path_5279" data-name="Path 5279" d="M661.688,319.077c-6.336,2.34-12.964,2.827-14.426-4.094-2.437-11.99,10.625-21.738,23-25.637,2.339-.78,4.776-1.365,7.018-2.047a50.652,50.652,0,0,0,17.643-9.553c6.141-5.069,6.921-7.993,6.726-14.719-.1-1.755-2.144-23.882-1.17-24.077,2.827-.487,7.408-1.462,10.137-1.95.293,0,3.509,24.76,4.289,26.9,2.632,7.408,1.755,13.842-3.9,20.666-4.679,5.849-11.4,10.43-18.033,14.817-7.115,4.874-14.328,9.748-21.542,14.622A55.959,55.959,0,0,1,661.688,319.077Z" transform="translate(-583.905 -213.866)" fill="#67302d"/>
        <path id="Path_5280" data-name="Path 5280" d="M2492.625,1914.912c2.242.584,5.166,1.462,7.993.487,5.361-3.8,12.867-6.044,18.813-8.286,3.119-3.8,6.726-1.95,5.166.878l-22.126,23.3c-4.289,4.484-7.8,4.777-10.625,1.755a41.216,41.216,0,0,0-9.844-9.651Z" transform="translate(-2240.072 -1719.241)" fill="#404040" fill-rule="evenodd"/>
        <path id="Path_5281" data-name="Path 5281" d="M596.087,806.7c-9.661-20.276-27.066-58-17.072-81.1,3.248-7.506,17.406-1.56,23.235-.1,29.981,24.175,51.94,59.222,65.209,86.658Z" transform="translate(-519.873 -651.486)" fill="#aa6a64" fill-rule="evenodd"/>
        <path id="Path_5282" data-name="Path 5282" d="M604,682.87c1.241-3.217.621-5.556.621-9.26,8.511-1.949,22.076-.39,25.8,1.267.089,5.166,1.862,5.459,3.192,9.455C622,681.115,614.905,681.9,604,682.87Z" transform="translate(-545.127 -607.098)" fill="#67302d" fill-rule="evenodd"/>
        <path id="Path_5283" data-name="Path 5283" d="M1628,1474.319c15.6-3.8,41.816-16.571,55.462-3.509l41.816,47.18-10.235,12.087-42.693-41.818c-1.267-.877-2.047-2.047-3.314-2.242-1.463-.292-2.729.195-4.582.585l-27.683,10.138Z" transform="translate(-1469.314 -1322.221)" fill="#537082" fill-rule="evenodd"/>
        <path id="Path_5284" data-name="Path 5284" d="M356.286,1241.816l-34.506-73.694a15.279,15.279,0,0,0-6.141-7.213,8.164,8.164,0,0,0-6.628-.39l-11.307,4.191-3.7-10.138,11.4-4.094a18.163,18.163,0,0,1,15.3.974,26.378,26.378,0,0,1,10.82,12.088l34.408,73.791Z" transform="translate(-265.344 -1037.176)" fill="#bdc5c6" fill-rule="evenodd"/>
        <path id="Path_5285" data-name="Path 5285" d="M30.23,1170.205,1.086,1180.83a1.66,1.66,0,0,0-.975,2.145L4.5,1194.868a1.711,1.711,0,0,0,2.144,1.072l29.047-10.625a1.618,1.618,0,0,0,.975-2.144l-4.289-11.99A1.791,1.791,0,0,0,30.23,1170.205Z" transform="translate(-0.015 -1056.026)" fill="#ebefeb" fill-rule="evenodd"/>
        <path id="Path_5286" data-name="Path 5286" d="M796.131,1243.042c-3.217-8.871-7.993-18.034-19.3-14.232l-17.155,6.239C764.647,1249.865,775.661,1254.544,796.131,1243.042Zm16.96,30.121-90.455,33.045L697,1252.107l77.881-28.464c11.892-4,21.152,3.021,26.026,16.181Z" transform="translate(-629.062 -1103.323)" fill="#ebefeb" fill-rule="evenodd"/>
        <path id="Path_5287" data-name="Path 5287" d="M927.776,1726.682,923,1716.836l106.539-38.8a5.331,5.331,0,0,1,5.946,1.657l56.827,55.563a5.474,5.474,0,0,1,.1,7.6,5.383,5.383,0,0,1-7.6,0l-54.78-53.516Z" transform="translate(-833.033 -1514.146)" fill="#bdc5c6" fill-rule="evenodd"/>
        <path id="Path_5288" data-name="Path 5288" d="M1627.069,2004.951l41.036-14.914L1662.939,1976,1622,1991.012Z" transform="translate(-1463.899 -1783.35)" fill="#ebefeb" fill-rule="evenodd"/>
        <path id="Path_5289" data-name="Path 5289" d="M1968.722,2008.461l8.188-3.022L1966.188,1976l-8.188,3.022Z" transform="translate(-1767.147 -1783.35)" fill="#ebefeb" fill-rule="evenodd"/>
        <path id="Path_5290" data-name="Path 5290" d="M1794,1672.46,1772.458,1640l-5.459,6.726,21.25,32.753Z" transform="translate(-1594.766 -1480.103)" fill="#ebefeb" fill-rule="evenodd"/>
        <path id="Path_5291" data-name="Path 5291" d="M2095.946,2269.766l1.365-.487L2091.365,2253l-1.365.487Z" transform="translate(-1886.282 -2033.348)" fill="#618d82" fill-rule="evenodd"/>
        <path id="Path_5292" data-name="Path 5292" d="M1993,2328.169l.877-1.169,14.329,9.65-.78,1.268Z" transform="translate(-1798.736 -2100.135)" fill="#618d82" fill-rule="evenodd"/>
        <path id="Path_5293" data-name="Path 5293" d="M1962.1,2443.047l-.1-1.461,17.35-.585.1,1.461Z" transform="translate(-1770.758 -2203.023)" fill="#618d82" fill-rule="evenodd"/>
        <path id="Path_5294" data-name="Path 5294" d="M2001.974,2469.8l-.974-1.17L2014.646,2458l.975,1.072Z" transform="translate(-1805.957 -2218.366)" fill="#618d82" fill-rule="evenodd"/>
        <path id="Path_5295" data-name="Path 5295" d="M2105.365,2488.058l-1.365-.389,4.68-16.669,1.461.39Z" transform="translate(-1898.917 -2230.098)" fill="#618d82" fill-rule="evenodd"/>
        <path id="Path_5296" data-name="Path 5296" d="M2174.946,2485.864l1.365-.488L2170.365,2469l-1.365.584Z" transform="translate(-1957.581 -2228.293)" fill="#618d82" fill-rule="evenodd"/>
        <path id="Path_5297" data-name="Path 5297" d="M2200.206,2465.65l-.877,1.268L2185,2457.17l.78-1.17Z" transform="translate(-1972.022 -2216.561)" fill="#618d82" fill-rule="evenodd"/>
        <path id="Path_5298" data-name="Path 5298" d="M2210.35,2432v1.462l-17.253.682-.1-1.462Z" transform="translate(-1979.242 -2194.9)" fill="#618d82" fill-rule="evenodd"/>
        <path id="Path_5299" data-name="Path 5299" d="M2196.646,2315l.975,1.17-13.744,10.723-.877-1.17Z" transform="translate(-1970.217 -2089.305)" fill="#618d82" fill-rule="evenodd"/>
        <path id="Path_5300" data-name="Path 5300" d="M2171.776,2249l1.365.39-4.776,16.669-1.364-.389Z" transform="translate(-1955.776 -2029.738)" fill="#618d82" fill-rule="evenodd"/>
        <path id="Path_5301" data-name="Path 5301" d="M2158.6,2439.189a.925.925,0,1,0-1.17-.585A.909.909,0,0,0,2158.6,2439.189Z" transform="translate(-1947.087 -2199.75)" fill="#745437" fill-rule="evenodd"/>
        <path id="Path_5302" data-name="Path 5302" d="M2135.758,2414.685a2.055,2.055,0,0,0-1.073,2.437,1.8,1.8,0,0,0,2.339,1.073,1.939,1.939,0,0,0,1.17-2.34A2.007,2.007,0,0,0,2135.758,2414.685Zm-.488-1.364a3.331,3.331,0,0,1,2.339,6.238,3.243,3.243,0,0,1-4.288-1.949A3.443,3.443,0,0,1,2135.271,2413.321Z" transform="translate(-1925.216 -2177.877)" fill="#a77244" fill-rule="evenodd"/>
        <path id="Path_5303" data-name="Path 5303" d="M1957.148,2228.083a15.141,15.141,0,1,0,19.4,9.066A15.137,15.137,0,0,0,1957.148,2228.083Zm-2.437-6.531a22.111,22.111,0,1,1-13.159,28.366A22.151,22.151,0,0,1,1954.711,2221.552Z" transform="translate(-1751.09 -2003.753)" fill="#bdc5c6" fill-rule="evenodd"/>
        <path id="Path_5304" data-name="Path 5304" d="M844.838,1884.3l4.094-1.56L831.094,1834,827,1835.462Z" transform="translate(-746.391 -1655.192)" fill="#ebefeb" fill-rule="evenodd"/>
        <path id="Path_5305" data-name="Path 5305" d="M537,2059.7l2.534-3.7,43.083,29.049-2.437,3.607Z" transform="translate(-484.658 -1855.552)" fill="#ebefeb" fill-rule="evenodd"/>
        <path id="Path_5306" data-name="Path 5306" d="M445.195,2403.336l-.195-4.485L496.953,2397l.2,4.386Z" transform="translate(-401.626 -2163.312)" fill="#ebefeb" fill-rule="evenodd"/>
        <path id="Path_5307" data-name="Path 5307" d="M564.729,2483.482,562,2480.07,602.939,2448l2.729,3.508Z" transform="translate(-507.221 -2209.341)" fill="#ebefeb" fill-rule="evenodd"/>
        <path id="Path_5308" data-name="Path 5308" d="M872.289,2538.176l-4.289-1.17L882.329,2487l4.191,1.17Z" transform="translate(-783.394 -2244.538)" fill="#ebefeb" fill-rule="evenodd"/>
        <path id="Path_5309" data-name="Path 5309" d="M1081.838,2534.3l4.192-1.559L1068.191,2484l-4.191,1.462Z" transform="translate(-960.289 -2241.831)" fill="#ebefeb" fill-rule="evenodd"/>
        <path id="Path_5310" data-name="Path 5310" d="M1156.618,2471.049l-2.437,3.7L1111,2445.7l2.535-3.7Z" transform="translate(-1002.708 -2203.925)" fill="#ebefeb" fill-rule="evenodd"/>
        <path id="Path_5311" data-name="Path 5311" d="M1188.856,2372l.195,4.387-51.953,1.95-.1-4.484Z" transform="translate(-1026.174 -2140.748)" fill="#ebefeb" fill-rule="evenodd"/>
        <path id="Path_5312" data-name="Path 5312" d="M1147.842,2021l2.729,3.509-40.842,32.071-2.729-3.509Z" transform="translate(-999.098 -1823.964)" fill="#ebefeb" fill-rule="evenodd"/>
        <path id="Path_5313" data-name="Path 5313" d="M1072.328,1822l4.191,1.17-14.231,50.006-4.289-1.267Z" transform="translate(-954.874 -1644.362)" fill="#ebefeb" fill-rule="evenodd"/>
        <path id="Path_5314" data-name="Path 5314" d="M466.851,1794.03a52.517,52.517,0,1,0,67.354,31.291A52.542,52.542,0,0,0,466.851,1794.03Zm-3.217-8.87a61.907,61.907,0,1,1-36.845,79.445A61.933,61.933,0,0,1,463.634,1785.16Z" transform="translate(-381.758 -1607.717)" fill="#bdc5c6" fill-rule="evenodd"/>
        <path id="Path_5315" data-name="Path 5315" d="M1033.7,2393.721a2.712,2.712,0,0,0,1.657-3.509,2.761,2.761,0,1,0-5.166,1.949A2.665,2.665,0,0,0,1033.7,2393.721Z" transform="translate(-929.6 -2155.549)" fill="#ebefeb" fill-rule="evenodd"/>
        <path id="Path_5316" data-name="Path 5316" d="M964.023,2319.611a5.551,5.551,0,0,0,3.8,10.43,5.551,5.551,0,0,0-3.8-10.43Zm-1.56-4.094a9.96,9.96,0,1,1-5.946,12.769A9.975,9.975,0,0,1,962.463,2315.517Z" transform="translate(-862.749 -2089.237)" fill="#bdc5c6" fill-rule="evenodd"/>
        <path id="Path_5317" data-name="Path 5317" d="M2584.27,1929.79l-35.578,37.53a2.15,2.15,0,0,0,.1,3.021l7.506,7.214a2.034,2.034,0,0,0,2.925-.1l35.578-37.529a2.244,2.244,0,0,0-.1-3.022l-7.506-7.213A2.034,2.034,0,0,0,2584.27,1929.79Z" transform="translate(-2299.746 -1741.04)" fill="#ebefeb" fill-rule="evenodd"/>
        <g id="Group_1348" data-name="Group 1348" transform="translate(37.233 0)">
          <path id="Path_5318" data-name="Path 5318" d="M572.71,171.214a17.458,17.458,0,0,1-5.361,2.924c-1.852.487-3.7-.1-5.458-.682-3.7-1.072-7.6-2.437-10.04-5.556a21.1,21.1,0,0,1-3.022-6.336q-2.632-8.481-4.679-17.254c-.585-2.924-1.17-6.141-.292-8.968,1.657-4.776,6.823-6.726,11.5-8.091,4.484-1.462,9.357-2.827,14.036-1.462,4.776,1.462,4.679,5.264,6.043,9.748,1.657,5.459,3.217,11.015,4.581,16.669.78,3.217,1.462,6.531.585,9.65C579.728,164.78,576.317,168.582,572.71,171.214Z" transform="translate(-527.677 -112.987)" fill="#c89a81"/>
          <path id="Path_5319" data-name="Path 5319" d="M382,18.911a14.039,14.039,0,0,1,.877-6.044,15.777,15.777,0,0,1,4.386-4.776,27.925,27.925,0,0,1,4.094-2.827A19.274,19.274,0,0,1,396.134,3.9a33.392,33.392,0,0,1,10.332-.1c2.437.292,4.874.877,7.408,1.072a10.593,10.593,0,0,0,1.755-.1c1.755-1.17,3.509-2.339,5.361-3.412,2.144-1.072,4.484-2.047,6.921-1.56a10.329,10.329,0,0,1,4.581,2.827,12.638,12.638,0,0,1,4.191,8.091,11.666,11.666,0,0,1-3.509,8.286,22.613,22.613,0,0,1-7.6,5.069c-2.144.975-4.386,1.852-6.628,2.632a61.575,61.575,0,0,1-12.574,2.729c-.78.1-1.949-.1-2.242.682s.39,1.755.682,2.339a45,45,0,0,1,2.242,6.044c.487,1.755.877,3.8.1,5.459a5.908,5.908,0,0,0-1.657-2.827,2.13,2.13,0,0,0-2.924-.195,2.577,2.577,0,0,0-.39,2.242c.487,2.339,2.632,4,4.289,5.751a19.354,19.354,0,0,1,3.9,6.141,1.472,1.472,0,0,1-1.852,2.242,10.409,10.409,0,0,1-4.386-2.729c-4.094-3.314-8.188-6.824-10.82-11.405-1.365-2.437-2.242-5.166-3.7-7.6-.78-1.462-1.852-2.827-2.827-4.289a2.524,2.524,0,0,1-1.072-.682C382.682,27.684,382.195,23.1,382,18.911Z" transform="translate(-382 0.324)" fill="#333"/>
        </g>
        <path id="Path_5320" data-name="Path 5320" d="M571.292,816.095c-7.408,15.207-14.329,37.139-12.379,49.812,1.462,8.871,29.339,14.914,43.96,22.323,4.679,2.34,7.9-5.362,8.578-9.845-9.065-7.018-21.444-15.3-31-21.446a242.7,242.7,0,0,0,11.209-29.926C596.732,810.051,578.31,801.765,571.292,816.095Z" transform="translate(-504.134 -729.892)" fill="#67302d" fill-rule="evenodd"/>
        <path id="Path_5321" data-name="Path 5321" d="M1027.336,1537c5.946,2.924,8.188,4.289,11.5,8.773,3.022,4.972,3.217,9.358-.39,14.037-3.314,3.607-6.433-3.7-8.285-6.629l-9.162-9.358A11.806,11.806,0,0,1,1027.336,1537Z" transform="translate(-921.481 -1387.143)" fill="#c89a81" fill-rule="evenodd"/>
      </g>
    </g>
    <line id="Line_251" data-name="Line 251" x1="49.16" transform="translate(91.895 1010.387)" fill="none" stroke="#b38e5d" stroke-linecap="round" stroke-width="1"/>
    <line id="Line_252" data-name="Line 252" x1="72.49" transform="translate(60.232 1032.991)" fill="none" stroke="#b38e5d" stroke-linecap="round" stroke-width="1"/>
    <line id="Line_253" data-name="Line 253" x1="52.492" transform="translate(88.562 1056.28)" fill="none" stroke="#b38e5d" stroke-linecap="round" stroke-width="1"/>
  </g>
</svg>
