<svg xmlns="http://www.w3.org/2000/svg" width="126" height="188" viewBox="0 0 126 188"><defs><style>.a{fill:#d4c19c;}.b{fill:#aa4a4d;}.c{fill:#282a2b;}.d{fill:#4c4c4c;}.e{fill:#353535;}.f{fill:#67302d;}.g{fill:#97a8b2;}.h{fill:#c8ae9a;}.i{fill:#736357;}.j{fill:#666;}.k{fill:#3d322b;}.l{fill:#e8e8e8;}.m{fill:#4d4d4d;}.n{fill:#373435;}</style></defs><g transform="translate(0)"><ellipse class="a" cx="36.565" cy="4.072" rx="36.565" ry="4.072" transform="translate(49.444 179.857)"/><ellipse class="a" cx="23.111" cy="4.072" rx="23.111" ry="4.072" transform="translate(0 179.857)"/><path class="b" d="M772.411,1683.969a38.193,38.193,0,0,0-6.254-10.893,33.391,33.391,0,0,0-8.775-7.052c-4.372-2.351-5.489-9-6.51-15.25-.989-6.02-1.947-11.753-5.584-13.3a5.542,5.542,0,0,1-1.819-2.064,5.746,5.746,0,0,1-.829-2.408l-.638.172a7.5,7.5,0,0,0,1.021,3.1,6.384,6.384,0,0,0,2.138,2.351c3.255,1.376,4.148,6.766,5.106,12.5,1.085,6.536,2.234,13.473,6.925,16a31.774,31.774,0,0,1,8.616,6.937,35.859,35.859,0,0,1,6.063,10.549Z" transform="translate(-675.849 -1546.251)"/><g transform="translate(52.833 114.074)"><path class="c" d="M253.062,2042.633s-1.089-8.85,0-9.633c0,0-6.344,1.76-4.829,11.687Z" transform="translate(-191.641 -2033)"/><path class="c" d="M343,2853c2.178.929,3.645,0,7.385.929l-1.089,21.222,2.178,4.743s3.929.685,3.929,3.374H349.3l-4.592-8.117Z" transform="translate(-296.803 -2812.904)"/><path class="c" d="M1084.781,2571.834l-.189-10.17s-2.7-8.948,8-12.665l8,15.794c-1.751,5.232-10.32,14.669-16.474,16.576v8.264s2.935.44,2.935,4.5h-5.3l-1.752-4.743v-10.122Z" transform="translate(-1071.568 -2523.769)"/><path class="c" d="M1504.379,2579.95s-9.657-.343-9.373,6.894a6.087,6.087,0,0,0,4.686,5.575Z" transform="translate(-1495 -2553.204)"/><path class="d" d="M20,2213.93v10.122l1.6,4.743h3.971c0-4.059-1.77-4.5-1.77-4.5v-6.748c7.337-3.178,15.322-17.7,15.322-17.7a37.844,37.844,0,0,1,8.416,2.836,22.289,22.289,0,0,0,9.021,3.374,35.813,35.813,0,0,0,7.208.489,7.82,7.82,0,0,0,.993-.049v14.181l4.187,8.117h5.568c0-2.689-3.582-3.374-3.582-3.374l-1.985-4.743,1.985-16.87c-7.553-19.852,8.373-24.84,8.373-24.84h9.841a4,4,0,0,0,3.064-1.076,2.7,2.7,0,0,1-1.77-2.64,3.427,3.427,0,0,1,.432-1.614l-5.611-2.787c-2.374-8.068-9.927-5.623-9.927-5.623-3.194,1.125-11.567,16.087-11.567,16.087H56.558l-17.265.831c-18.689,1.124-15.106,14.18-15.106,14.18l.173,10.171Z" transform="translate(-19.994 -2158.432)"/><path class="d" d="M347.062,2042.633s-1.089-8.85,0-9.633c0,0-6.344,1.76-4.829,11.687Z" transform="translate(-288.583 -2033)"/><path class="b" d="M679,2501v25.182a37.945,37.945,0,0,0,3.977.049V2501Z" transform="translate(-639.009 -2478.116)"/><path class="c" d="M233,2287.782a.75.75,0,0,0,.757.733.74.74,0,0,0,.71-.733.753.753,0,0,0-.71-.783A.76.76,0,0,0,233,2287.782Z" transform="translate(-172.336 -2274.58)"/><path class="c" d="M-.108,2345.614a2.716,2.716,0,0,0,1.941,2.64,3.8,3.8,0,0,0,.9-3.178L.366,2344A3.2,3.2,0,0,0-.108,2345.614Z" transform="translate(70.382 -2328.793)"/><path class="d" d="M1293.6,2615.038a21.433,21.433,0,0,1-9.373,18.043s-6.533-12.469-1.752-18.043C1282.478,2615.038,1287.5,2609.953,1293.6,2615.038Z" transform="translate(-1274.094 -2584.428)"/><path class="e" d="M318.405,2477.839c8.237-6.307,9.847-18.239,9.184-24.839C327.589,2453,310.121,2457.987,318.405,2477.839Z" transform="translate(-268.003 -2432.463)"/><path class="b" d="M343,2700v6.014h19.93A26.434,26.434,0,0,0,365.3,2700Z" transform="translate(-306.41 -2667.386)"/><path class="f" d="M763,2501v24.742c1.373.2,2.746.343,3.929.44V2501Z" transform="translate(-726.575 -2478.116)"/><path class="c" d="M1595.562,3440.613H1594V3439h1.562Z" transform="translate(-1590.87 -3370.25)"/></g><path class="g" d="M1795.656,1240.562c-.9-1.009-2.07-2.019-3.45-1.859-1.327.212-2.176,1.54-2.707,2.762-.955,2.178-1.486,4.834-.318,6.959a8.955,8.955,0,0,0,2.494,2.6c4.936,3.665,10.827,5.684,16.665,7.543a3.706,3.706,0,0,0,2.388.266c2.388-.8,0-2.868-.8-3.718-1.592-1.647-3.184-3.24-4.724-4.887C1802.025,1246.989,1798.84,1243.749,1795.656,1240.562Z" transform="translate(-1752.22 -1172.882)"/><path class="h" d="M1595.081,1577.573a1.762,1.762,0,0,1,1.274.159.7.7,0,0,1,.265,1.116c-.159-.16-.425.212-.265.425s.478.16.69.16a3.458,3.458,0,0,1,2.442,1.169,3.155,3.155,0,0,1,.69,2.55,1.547,1.547,0,0,1-1.433.372,5.047,5.047,0,0,1-1.433-.478c-1.911-.9-3.874-1.806-5.785-2.709a2.257,2.257,0,0,1-1.167-.9C1589.084,1576.724,1593.808,1577.68,1595.081,1577.573Z" transform="translate(-1530.151 -1493.693)"/><path class="i" d="M2295.439,1912.7a51.233,51.233,0,0,1-1.168,5.684c-.636,2.284-13.572,32.028-18.083,37.712a3.489,3.489,0,0,1-2.229,1.594,2.287,2.287,0,0,1-2.07-2.178,6.634,6.634,0,0,1,.743-3.134c1.167-2.815,2.388-5.578,3.4-8.393,6.369-17.052,4.975-40.049,2.162-58-.159-1.115-.318-2.39.372-3.293a3.328,3.328,0,0,1,1.7-1.063,18.423,18.423,0,0,1,6.369-.8c3.4.053,7.749.213,10.88,1.594,2.813,1.169,1.592,4.25,1.273,6.746C2297.775,1897.034,2296.66,1904.9,2295.439,1912.7Z" transform="translate(-2265.431 -1780.909)"/><path class="i" d="M1974.786,1865.755c-.159,5.259,0,10.571-.531,15.83-.69,6.8-2.6,13.492-4.511,20.132a109.278,109.278,0,0,1-4.352,12.961,6.544,6.544,0,0,1-1.858,2.762,3.459,3.459,0,0,1-3.556.425c-1.327-.743-1.327-2.337-1.115-3.665.478-4.09,1.009-8.234,1.539-12.324.9-7.065,1.8-14.183,1.114-21.3a95.951,95.951,0,0,0-3.343-15.777c-1.7-6.427-3.4-12.908-5.148-19.336a7.139,7.139,0,0,1-.265-3.506c.425-1.487,1.911-2.6,3.45-3.4a21.559,21.559,0,0,1,11.782-2.444c3.184.213,8.969,1.115,9.288,4.2.159,1.753-.69,4.09-.9,5.9-.265,2.178-.478,4.356-.69,6.534C1975.263,1857.1,1974.892,1861.4,1974.786,1865.755Z" transform="translate(-1926.467 -1738.528)"/><path class="j" d="M2384.487,393.625a36.66,36.66,0,0,0-1.115,4.143c-.106.584-.9.372-.9-.159.106-1.434.212-2.868.425-4.3C2383.055,392.3,2384.753,392.669,2384.487,393.625Z" transform="translate(-2356.495 -371.842)"/><path class="j" d="M2261.685,469.5a11.773,11.773,0,0,1-1.858,1.328,5.037,5.037,0,0,1-1.858.9.41.41,0,0,1-.424-.584,7.228,7.228,0,0,1,1.221-1.328,13.257,13.257,0,0,1,1.963-1.434C2261.419,468.01,2262.375,468.86,2261.685,469.5Z" transform="translate(-2227.27 -443.411)"/><path class="h" d="M2094.012,91.19c0-5.1,4.405-9.19,9.871-9.19,5.52,0,9.925,4.09,9.925,9.19a7.371,7.371,0,0,1-.371,2.444v.637a24.268,24.268,0,0,1-.425,5.524,12.459,12.459,0,0,1-5.944,8.765,7.2,7.2,0,0,1-3.874,1.169,7.586,7.586,0,0,1-4.83-2.125c-4.193-3.878-4.564-9.774-4.3-15.3A7.83,7.83,0,0,1,2094.012,91.19Z" transform="translate(-2070.478 -77.64)"/><path class="k" d="M2081.8,3393.666a25.448,25.448,0,0,1,5.678.212,20.6,20.6,0,0,0,4.724,2.338,5.248,5.248,0,0,1,1.327.691.879.879,0,0,1,.159,1.274c-.265.319-.8.319-1.274.372a68.765,68.765,0,0,1-10.455-.8,1.9,1.9,0,0,1-.584-.212l-.212-.425A4.031,4.031,0,0,1,2081.8,3393.666Z" transform="translate(-2049.876 -3213.319)"/><path class="k" d="M2678.7,3265a22.081,22.081,0,0,1,4.936,1.063,19.517,19.517,0,0,0,3.715,2.815,3.115,3.115,0,0,1,1.062.8.765.765,0,0,1-.106,1.115,1.5,1.5,0,0,1-1.168.159,56.932,56.932,0,0,1-9.075-2.337,1.026,1.026,0,0,1-.478-.266l-.106-.372A3.555,3.555,0,0,1,2678.7,3265Z" transform="translate(-2672.869 -3087.624)"/><path class="g" d="M1960.391,707.653c-.053-8.765-.106-17.477-.106-26.241-.053-7.384-1.7-15.192-2.813-22.47-.584-3.984-1.327-5.418-3.131-8.977-.265-.478-.265-.85-2.707-1.594a6.351,6.351,0,0,0-2.388-.8c-3.131.531-6.316-.637-9.5-.106-3.29.531-8.863-1.116-11.464,1.116-3.5,3.081-3.768,10.411-4.3,15.192-.743,6.428-2.547,12.961-2.866,19.442-.265,5.684-.424,11.368-.531,17.051-.053,2.975-1.115,13.333,1.539,15.3,1.539,1.169,5.732,1.647,10.03,1.753l.478.053h.106c1.751.053,3.5.053,5.095,0,2.335-.053,4.3-.159,5.36-.266a115.882,115.882,0,0,0,14.86-2.6,3.544,3.544,0,0,0,2.335-1.275C1960.709,712.646,1960.391,708.343,1960.391,707.653Z" transform="translate(-1907.986 -612.935)"/><path class="l" d="M2052.851,643.18c-.212-1.381-1.433-2.443-3.024-3.187-.319-1.328-.637-2.656-1.009-3.984l-.106-.106a.9.9,0,0,1-.159-.531l1.275-.159a47.794,47.794,0,0,0,16.027-.212,2.91,2.91,0,0,0-.053.956,396.286,396.286,0,0,1,2.865,69.109,9.275,9.275,0,0,0-2.547-.319c-2.919.053-6,.372-9.022.531C2064.315,684.986,2056.726,663.738,2052.851,643.18Z" transform="translate(-2023.373 -601.265)"/><path class="m" d="M2059.448,9.166a11.626,11.626,0,0,1,6.369-7.649c4.883-2.444,13.162-2.6,15.656,3.24,4.883,1.7,2.388,9.4-2.494,7.649l-.159-.053c-2.547,1.222-6.05,1.594-9.181,1.647-1.168,2.868-3.5,5.312-6.953,3.931C2059.4,16.549,2058.7,12.3,2059.448,9.166Z" transform="translate(-2038.939 0.082)"/><path class="m" d="M2204.719,518.85a1.7,1.7,0,0,1-.743-.159c-.212-.159-.372-.478-.212-.691h2.388a1.685,1.685,0,0,1,.743.106C2208.115,518.956,2204.985,518.85,2204.719,518.85Z" transform="translate(-2169.668 -490.48)"/><path class="b" d="M1372.439,1684.928q3.185,14.661,6.369,29.428c1.221,5.206,2.494,10.411,3.768,15.617,3.556,14.5,6.687,29.057,9.819,43.664.69,3.347-2.654,3.453-3.4.106-3.237-15.352-6.528-30.65-10.19-45.9-3.45-14.236-6.952-28.419-9.5-42.868C1368.777,1681.847,1371.749,1681.847,1372.439,1684.928Z" transform="translate(-1310.693 -1593.239)"/><path class="h" d="M1713.481,1615.25a5.528,5.528,0,0,1,1.486,1.647c.425.584.69,1.487.212,2.019a1.93,1.93,0,0,1-2.07.106c-3.025-1.328-5.413-3.772-7.7-6.215-.424.584-.424,0,2.017-1.806.8,1.116,2.388,1.275,3.609,1.859,1.38.638,2.972.956,3.768,2.231l-.425.372A5.562,5.562,0,0,0,1713.481,1615.25Z" transform="translate(-1651.469 -1525.419)"/><path class="g" d="M1855.964,1247.623c1.062.9,2.229,2.231,1.751,3.134-.531,1.009-2.282.478-3.556-.053-2.813-1.275-5.626-2.55-8.491-3.772-5.467-2.443-11.092-4.993-15.869-8.818-1.964-1.541-3.874-3.612-3.874-5.684a4.855,4.855,0,0,1,1.486-3.187c3.874-4.516,8.067,1.169,12.366,4.781C1845.19,1238.539,1850.551,1243.108,1855.964,1247.623Z" transform="translate(-1800.268 -1162.361)"/><path class="g" d="M2232.145,680.283a9.028,9.028,0,0,1,1.645-4.675c3.609-4.515,9.182,4.356,10.3,7.49,2.176,6.374,2.654,19.5,3.449,25.763a7.918,7.918,0,0,1-.212,3.718c-.9,2.019-5.254,3.718-6.953,2.125-1.592-1.381-5.944-13.811-6.475-15.883C2232.357,692.766,2231.349,686.5,2232.145,680.283Z" transform="translate(-2211.635 -638.526)"/><path class="n" d="M2075.234,303.88a.476.476,0,0,0,.478.478l6.262.531c.053.106.106.159.106.266a2.716,2.716,0,0,0,1.221,1.328,1.969,1.969,0,0,0,.743.212,5.23,5.23,0,0,0,.9.106,8.232,8.232,0,0,0,2.706-.319c.849-.266,1.433-.691,1.486-1.116l.053-.053h0v-1.062a.772.772,0,0,1,.849.053v.584h0V305c.053.372.531.744,1.221.956a6.823,6.823,0,0,0,2.229.319,9.06,9.06,0,0,0,1.646-.159,2.794,2.794,0,0,0,.637-.159,3.411,3.411,0,0,0,1.38-1.487,3.8,3.8,0,0,0,.265-2.072,5.233,5.233,0,0,0-.265-.85,2.1,2.1,0,0,0-1.857-.691,13.391,13.391,0,0,0-3.184.319,2.37,2.37,0,0,0-1.8,1.328,2.635,2.635,0,0,0-.212.691,1.733,1.733,0,0,0-1.061-.053.2.2,0,0,0-.053-.159,2.163,2.163,0,0,0-1.8-1.328,17.741,17.741,0,0,0-3.132-.212c-.849,0-1.592.212-1.857.744h0a4.6,4.6,0,0,0-.371,1.116v.531l-6-.478A.516.516,0,0,0,2075.234,303.88Z" transform="translate(-2053.133 -284.858)"/><path d="M2099.356,320.852c.531,0,.9,0,.955.106a1.88,1.88,0,0,1,.159.584,2.23,2.23,0,0,1-.212,1.434,1.874,1.874,0,0,1-.85.956,3.391,3.391,0,0,1-.371.106,13.034,13.034,0,0,1-1.433.106,6.361,6.361,0,0,1-1.911-.266c-.265-.106-.478-.106-.478-.159a5.993,5.993,0,0,1,.16-1.859c.159-.319.477-.531,1.114-.691A11.227,11.227,0,0,1,2099.356,320.852Z" transform="translate(-2057.246 -303.796)"/><path d="M2251.124,331.971c.053-.106.425-.159.955-.159h0a14.336,14.336,0,0,1,2.866.212c.637.106.9.319,1.062.637a6.182,6.182,0,0,1,.106,1.859,7.105,7.105,0,0,1-.743.266,8,8,0,0,1-2.388.266h0c-.266,0-.531-.053-.8-.053-.159-.053-.265-.106-.424-.159a1.722,1.722,0,0,1-.69-.8,2.212,2.212,0,0,1-.212-1.328,2.528,2.528,0,0,1,.265-.744Z" transform="translate(-2221.115 -314.172)"/></g></svg>